<?xml version="1.0" encoding="UTF-8"?>
<!-- Generator: Adobe Illustrator 22.1.0, SVG Export Plug-In . SVG Version: 6.00 Build 0)  -->
<svg version="1.1" id="圖層_1" xmlns="http://www.w3.org/2000/svg" xmlns:xlink="http://www.w3.org/1999/xlink" x="0px" y="0px" width="142px" height="32.1px" viewBox="0 0 142 32.1" style="enable-background:new 0 0 142 32.1;" xml:space="preserve">
<style type="text/css">
	.st0{fill:#FFFFFF;}
</style>
<g>
	<g>
		<path class="st0" d="M5.2,0.1L9,1.3C8.5,3.5,7.7,5.7,6.9,7.8v24H3.1V15.4c-0.3,0.6-0.7,1.2-1.1,1.7l-2.1-4C2.4,9,4.1,4.7,5.2,0.1z     M8.2,5.4h9.9v3.4H8.2V5.4z M8.8,10h8.5v3.4H8.8V10z M17.6,19.9v11.3h-3.4V30h-2.1v1.8H8.8V19.9H17.6z M8.9,14.8h8.4v1.9    c1-0.8,1.9-1.6,2.9-2.6h-2.5v-3.6h3.7V7.2h-2.5V3.9h2.5V0.1h3.4v3.7h2.5V6c0.7-1,1.3-1.9,1.8-2.9l2.9,1.6c-1,1.9-2.2,3.8-3.7,5.7    h3.7v3.6h-6.7c-0.7,0.8-1.4,1.4-2,2.1h7.8v15.6h-3.6v-1.4h-4.5v1.4h-3.6V19.4c-0.3,0.3-0.6,0.5-0.9,0.7L17,18.2h-8V14.8z M9.6,0.7    h7.7v3.4H9.6V0.7z M12.2,26.7h2.1v-3.4h-2.1V26.7z M22.9,21.6h4.5v-2.1h-4.5V21.6z M22.9,27.1h4.5v-2.2h-4.5V27.1z M24.8,9.2    c0.6-0.7,1.1-1.3,1.6-2h-1.6V9.2z"/>
		<path class="st0" d="M43,0l3.7,1.1c-0.8,2.8-1.8,5.5-3,8.1v18.3c0.9-1.4,1.6-3,2.1-4.8c0.6-2.1,1-5.9,1.2-11.4h-1.3V8.2h5.9V5.7    h-4.4V2.5h4.4V0h3.9v2.5h3.8V0H63v2.5h4.4v3.2H63v2.5h5.5v3.1H50.4c-0.2,6.4-0.6,10.8-1.3,13.2c-0.7,2.6-1.7,4.8-3.1,6.6l-2.2-1.7    v2.2h-3.6V16c-0.5,0.9-1.1,1.7-1.6,2.4l-2-3.9C39.6,9.9,41.7,5.1,43,0z M67.4,12.7v15c0,2.6-1.4,3.9-4.3,3.9h-1.2l-0.6-3.5    c0.7,0.2,1.3,0.3,1.9,0.3c0.5,0,0.7-0.5,0.7-1.5v-1.1H61V31h-3.6v-5.2h-2.9v5.7H51V12.7H67.4z M54.5,17.9h2.9v-2h-2.9V17.9z     M54.5,22.9h2.9v-1.9h-2.9V22.9z M55.4,8.2h3.8V5.7h-3.8V8.2z M61,15.9v2h2.8v-2H61z M61,20.9v1.9h2.8v-1.9H61z"/>
		<path class="st0" d="M88.8,0.1h4.1v2.2h12.5v3.9H80.2v10.4c0,2.9-0.3,5.7-0.8,8.4c-0.4,2.2-1,4.4-1.8,6.7l-3.9-2.4    c0.9-2.8,1.5-5.3,1.8-7.3c0.4-2.5,0.5-5.1,0.5-7.6V2.4h12.7V0.1z M89,7h4.1v3.2h11.3v3.9H93.1v3.5h10.6v14.3h-4.1v-1.4h-14v1.4    h-4.1V17.6H89V7z M85.5,26.8h14v-5.4h-14V26.8z"/>
		<path class="st0" d="M138.3,0.7v3.7h-19.4v1.5h18.5v3.6h-18.5V11h18.5v3.6h-18.5v1.4h23v3.8h-4.7l2.1,2.7c-1.7,1.2-3.5,2.2-5.5,3    c0.2,0.1,0.4,0.2,0.6,0.3c1.9,0.9,4.4,1.7,7.6,2.5l-2.2,4c-3.1-0.8-6.1-2.1-9-3.7c-2.2-1.3-4-2.8-5.4-4.5c-1.1-1.3-2-2.7-2.6-4.2    H119v6.8c2.3-0.4,4.4-0.9,6.4-1.3l0.6,3.5c-4,1.2-8.5,2.2-13.4,3.1l-1.4-4c1.3-0.2,2.5-0.4,3.7-0.5v-7.5h-4.1v-3.8h4.1V0.7H138.3z     M129.8,23c2.1-0.8,4.1-1.9,6.2-3.3h-9c0.7,1.1,1.5,2.1,2.4,2.9C129.5,22.7,129.7,22.9,129.8,23z"/>
	</g>
</g>
</svg>