<?xml version="1.0" encoding="UTF-8"?>
<!-- Generator: Adobe Illustrator 22.1.0, SVG Export Plug-In . SVG Version: 6.00 Build 0)  -->
<svg version="1.1" id="圖層_1" xmlns="http://www.w3.org/2000/svg" xmlns:xlink="http://www.w3.org/1999/xlink" x="0px" y="0px" width="142.1px" height="31.8px" viewBox="0 0 142.1 31.8" style="enable-background:new 0 0 142.1 31.8;" xml:space="preserve">
<style type="text/css">
	.st0{fill:#FFFFFF;}
</style>
<g>
	<g>
		<path class="st0" d="M5.2,0.1L9,1.3C8.5,3.5,7.7,5.7,6.9,7.8v24H3.1V15.4c-0.3,0.6-0.7,1.2-1.1,1.7l-2.1-4C2.4,9,4.1,4.7,5.2,0.1z     M8.2,5.4h9.9v3.4H8.2V5.4z M8.8,10h8.5v3.4H8.8V10z M17.6,19.9v11.3h-3.4V30h-2.1v1.8H8.8V19.9H17.6z M8.9,14.8h8.4v1.9    c1-0.8,1.9-1.6,2.9-2.6h-2.5v-3.6h3.7V7.2h-2.5V3.9h2.5V0.1h3.4v3.7h2.5V6c0.7-1,1.3-1.9,1.8-2.9l2.9,1.6c-1,1.9-2.2,3.8-3.7,5.7    h3.7v3.6h-6.7c-0.7,0.8-1.4,1.4-2,2.1h7.8v15.6h-3.6v-1.4h-4.5v1.4h-3.6V19.4c-0.3,0.3-0.6,0.5-0.9,0.7L17,18.2h-8V14.8z M9.6,0.7    h7.7v3.4H9.6V0.7z M12.2,26.7h2.1v-3.4h-2.1V26.7z M22.9,21.6h4.5v-2.1h-4.5V21.6z M22.9,27.1h4.5v-2.2h-4.5V27.1z M24.8,9.2    c0.6-0.7,1.1-1.3,1.6-2h-1.6V9.2z"/>
		<path class="st0" d="M43,0l3.7,1.1c-0.8,2.8-1.8,5.5-3,8.1v18.3c0.9-1.4,1.6-3,2.1-4.8c0.6-2.1,1-5.9,1.2-11.4h-1.3V8.2h5.9V5.7    h-4.4V2.5h4.4V0h3.9v2.5h3.8V0H63v2.5h4.4v3.2H63v2.5h5.5v3.1H50.4c-0.2,6.4-0.7,10.8-1.3,13.2c-0.7,2.6-1.7,4.8-3.1,6.6l-2.2-1.7    v2.2h-3.6V16c-0.5,0.9-1.1,1.7-1.6,2.4l-2-3.9C39.6,9.9,41.7,5.1,43,0z M67.4,12.7v15c0,2.6-1.4,3.9-4.3,3.9h-1.2l-0.7-3.5    c0.7,0.2,1.3,0.3,1.9,0.3c0.5,0,0.7-0.5,0.7-1.5v-1.1H61V31h-3.6v-5.2h-2.9v5.7H51V12.7H67.4z M54.5,17.9h2.9v-2h-2.9V17.9z     M54.5,22.9h2.9v-1.9h-2.9V22.9z M55.4,8.2h3.8V5.7h-3.8V8.2z M61,15.9v2h2.8v-2H61z M61,20.9v1.9h2.8v-1.9H61z"/>
		<path class="st0" d="M73.6,2.4h5.9V0.1h3.7v2.2h6v3.6h-6v1.6h5v1c1.4-1.2,2.5-2.3,3.4-3.4c1.4-1.6,2.6-3.3,3.5-5.1l3.8,1.1    c-0.3,0.5-0.5,1.1-0.8,1.6c1.1,1.1,2.2,2.2,3.3,3.1c1.5,1.2,3,2.2,4.5,2.9l-2,3.7c-0.5-0.3-0.9-0.6-1.4-0.9v2.8h-3.9v4.4h6.3v3.7    h-6.3v9.3h-3.8v-9.3H89v-3.7h5.9v-4.4h-4.5v-2.6c-0.2,0.2-0.4,0.3-0.6,0.4l-1.5-1.5v10.7h-5V23h5.9v3.6h-5.9v5.2h-3.7v-5.2h-5.7    V23h5.7v-1.7h-5V7.5h5V5.9h-5.9V2.4z M78.1,12.7h6.5v-1.7h-6.5V12.7z M78.1,17.8h6.5V16h-6.5V17.8z M91.8,10.7h9.5    c-0.7-0.5-1.3-1-1.9-1.6c-1.1-1-2.2-2.1-3.3-3.2c-0.3,0.4-0.6,0.8-0.9,1.2C94.2,8.4,93.1,9.6,91.8,10.7z"/>
		<path class="st0" d="M117.4,0.1h4V3h6.3v3.7h-3.7l2.1,0.6c-0.3,1.2-0.8,2.4-1.3,3.7c-0.2,0.5-0.4,0.9-0.6,1.4h4.4v3.8h-18v-3.8    h3.3c-0.5-1.4-1-2.6-1.6-3.7l3.5-1.6c0.8,1.4,1.6,2.9,2.2,4.6l-1.7,0.7h3.8c0.3-0.7,0.5-1.5,0.8-2.2c0.4-1.2,0.8-2.4,1.1-3.6    h-10.5V3h6.3V0.1z M126.5,17.6V31h-3.8v-1.5h-6.8v1.8H112V17.6H126.5z M115.9,25.9h6.8v-4.5h-6.8V25.9z M142.1,1.1l-4.3,12.1    c1.2,1.3,2.2,2.7,2.9,4.1c0.8,1.7,1.2,3.3,1.2,4.8c-0.1,3.6-1.8,5.5-5.2,5.5c-0.6,0-1.5,0-2.5-0.1l-0.9-4.5    c1.3,0.4,2.5,0.6,3.4,0.6c0.8,0,1.2-0.5,1.3-1.5c0-1.2-0.3-2.4-0.9-3.6c-0.6-1.3-1.7-2.7-3.2-4.2l3.1-9.5H133v26.8h-4V1.1H142.1z"/>
	</g>
</g>
</svg>