<?xml version="1.0" encoding="UTF-8"?>
<!-- Generator: Adobe Illustrator 22.1.0, SVG Export Plug-In . SVG Version: 6.00 Build 0)  -->
<svg version="1.1" id="圖層_1" xmlns="http://www.w3.org/2000/svg" xmlns:xlink="http://www.w3.org/1999/xlink" x="0px" y="0px" width="162px" height="36.4px" viewBox="0 0 162 36.4" style="enable-background:new 0 0 162 36.4;" xml:space="preserve">
<style type="text/css">
	.st0{fill:#222222;}
</style>
<g>
	<g>
		<path class="st0" d="M7.1,0.1h4.3v2.2h6.3v4.1h-6.3v1.4h7.4v4.1h-2.2l2.3,1.3c-0.3,1.7-0.7,2.8-1.2,3.1c-0.1,0.2-0.5,0.3-1.1,0.3    c-0.3,0.1-0.9,0.1-1.8,0.1c-1.1,0-2-0.1-2.7-0.3c-0.4-0.1-0.7-0.1-0.9-0.3v1.6h6.3v4.1h-6.3v1.4c2.2-0.1,4.2-0.3,6-0.4l0.2,1    c1.3-1.4,2.4-3,3.2-5c0.2-0.4,0.3-0.9,0.5-1.3c-0.8-0.6-1.6-1.2-2.4-1.8l2.8-2.9c0.2,0.1,0.4,0.2,0.5,0.4c0.2-1.3,0.3-2.7,0.4-4.2    h-2.9V4.8h3V0.1h4.2v4.7h5.5v12.1c0,2.6,0,4.4,0.1,5.4c0,0.5,0.1,0.8,0.2,0.8c0.1,0,0.2-0.4,0.3-1.1c0.1-0.9,0.2-2.6,0.3-4.9    l3.3,1.4c-0.3,3.7-0.8,6.1-1.6,7.3C34,26.6,33.3,27,32.4,27c-1.2,0-2.2-0.5-2.9-1.5c-0.7-0.9-1.2-2.6-1.4-5.2l-1.5,1.9    c-0.6-0.6-1.3-1.2-1.9-1.8c-0.1,0.3-0.2,0.6-0.3,0.9c-1.1,2.8-2.9,5.1-5.2,6.9l-1.6-1.7C12.5,27.1,7,27.6,1,28l-0.8-4.4    c2.4-0.1,4.6-0.2,6.8-0.3v-1.6H1.1v-4.1h5.8v-1.9h3.9c-0.7-0.7-1-1.7-1-3.1v-0.8H8.2c-0.2,0.4-0.3,0.8-0.5,1.1    C7,14.1,6.2,15,5.2,15.7c-1,0.8-2.1,1.3-3.2,1.7l-2.2-3.5c0.9-0.2,1.8-0.5,2.5-0.9c0.5-0.3,1-0.7,1.3-1.1H0V7.8h7.1V6.4h-6V2.4h6    V0.1z M2.1,28.4l4.6,1.1c-0.3,2.4-1.2,4.6-2.5,6.7l-4.6-2.4C1,32.1,1.8,30.2,2.1,28.4z M14.4,28.4c1,2.1,1.7,4.2,2,6.3l-5,1.2    c-0.3-2.3-0.8-4.4-1.6-6.4L14.4,28.4z M14.1,11.9V12c0,0.7,0.1,1,0.2,1.1c0.1,0.1,0.2,0.2,0.5,0.2c0.4,0,0.6-0.1,0.7-0.2    c0.1-0.1,0.1-0.3,0.2-0.7c0-0.2,0.1-0.4,0.1-0.6H14.1z M22.7,27.7c1.2,1.9,2.3,3.9,3.1,6.2L21.1,36c-0.7-2.4-1.5-4.5-2.5-6.4    L22.7,27.7z M28,17.4c0-0.2,0-0.4,0-0.6v-8h-1.4c-0.1,2.6-0.3,4.8-0.6,6.8C26.7,16.3,27.4,16.8,28,17.4z M31.4,27.4    c1.8,1.9,3.3,3.9,4.4,6.1l-4.6,2.7c-0.9-2.2-2.1-4.3-3.7-6.3L31.4,27.4z"/>
		<path class="st0" d="M43.1,1.1h19.6v4.2H53c-0.3,0.7-0.5,1.4-0.9,2.1h9.4v4.3c-1.5,3.7-3.5,6.6-6.2,8.9c-2.8,2.5-6.5,4.7-10.9,6.4    l-1.9-4c3.1-1.2,5.7-2.6,7.7-4.2c-1.1-1-2.3-2.1-3.6-3c-0.7,0.8-1.4,1.5-2.1,2.1l-2.9-3.4c1.9-1.7,3.5-3.6,4.8-5.6    c0.8-1.2,1.4-2.4,1.9-3.5h-5.2V1.1z M46,26.9l4.2,2.5c-1.4,2.9-2.9,5.2-4.3,6.9l-4.1-3.4C43.5,31,44.9,29,46,26.9z M49.5,12.2    c1.5,1,3,2.1,4.4,3.2c1-1.2,1.9-2.5,2.5-3.9H50C49.8,11.8,49.7,12,49.5,12.2z M56.6,27.2c1,2.2,1.8,4.6,2.4,7.2l-5,1.6    c-0.4-2.7-1.1-5.2-1.9-7.4L56.6,27.2z M65.2,26.7c1.1,2.3,2,4.9,2.7,7.7l-5,1.6c-0.5-2.9-1.2-5.5-2.2-7.8L65.2,26.7z M64.1,3h4.5    v16.1h-4.5V3z M71.7,0.1h4.7v19.6c0,2.3-0.3,3.9-1,4.7c-0.8,0.9-2.1,1.4-4.1,1.4c-1.6,0-3-0.1-4.4-0.2L66.1,21    c1.5,0.2,3,0.3,4.5,0.3c0.4,0,0.7-0.2,0.9-0.5c0.1-0.5,0.2-1.2,0.2-2.1V0.1z M74.1,26.4c1.5,2.3,2.8,4.9,3.9,7.8l-4.7,2    c-0.9-2.9-2.1-5.6-3.4-7.9L74.1,26.4z"/>
		<path class="st0" d="M84,6.7h4.8V0.1h4.5v6.6h3.9v4.4h-3.9v6.1c1.1-0.4,2.1-0.7,3-1.1L97,20c-1.2,0.6-2.4,1.1-3.6,1.6v8.8    c0,2.2-0.3,3.7-0.9,4.5c-0.7,0.9-2,1.4-3.9,1.4c-1.4,0-2.8-0.1-4-0.3l-0.8-4.5c1.4,0.3,2.8,0.4,4.3,0.4c0.4,0,0.6-0.2,0.7-0.5    c0.1-0.4,0.2-1.1,0.2-2v-6.1c-1.2,0.4-2.4,0.8-3.6,1.2L83.7,20c1.8-0.4,3.5-0.9,5.2-1.4v-7.5H84V6.7z M98,1.3H119    c0,9.3-0.5,14.4-1.6,15.3c-0.9,1.1-2.4,1.7-4.6,1.7c-1.4,0-3-0.1-4.8-0.4l-1-4.7c2.1,0.4,3.9,0.6,5.3,0.6c0.7,0,1.1-0.2,1.3-0.7    c0.3-0.6,0.6-3.1,0.7-7.4h-6c-0.4,2.7-1.2,5.1-2.4,7.2c-1.7,2.7-4.1,4.7-7.1,6.1l-2-3.9c2.2-1.1,4-2.6,5.2-4.6    c0.9-1.4,1.5-3,1.7-4.8H98V1.3z M118.3,19.1v17.2h-4.6v-1.7h-11.2v1.7H98V19.1H118.3z M102.5,30.1h11.2v-6.7h-11.2V30.1z"/>
		<path class="st0" d="M126.9,1.5h8V0h4.3v1.6h8.4V0h4.4v1.6h8.4v3.8H152v1.1h4.8v11.8h-14.5c-0.3,0.4-0.5,0.8-0.8,1.1h19.6v3.8H156    c1.9,0.8,4,1.4,6.3,2l-2.5,4.4c-1.5-0.6-3-1.3-4.5-2.1c-0.3,3.9-0.9,6.4-1.9,7.5c-0.9,0.9-2.3,1.4-4.1,1.4c-1.2,0-2.9-0.1-5.2-0.3    l-0.9-4.1c2.4,0.2,4.4,0.3,6.1,0.3c0.4,0,0.8-0.1,1-0.4c0.2-0.4,0.4-1.3,0.4-2.7h-7.9c-0.2,0.4-0.3,0.8-0.5,1.1    c-0.9,1.6-2.3,2.9-4.2,4.1c-1.7,1-3.7,1.8-6.2,2.1l-2-3.9c2.2-0.4,4-0.9,5.4-1.6c1-0.5,1.8-1.1,2.5-1.8h-5v-1.8    c-1.4,0.9-2.9,1.7-4.5,2.5l-2.8-3.4c2.3-1,4.3-2,6.1-3.1h-5.2v-3.8h10.2c0.4-0.4,0.8-0.8,1.1-1.1h-7.4V6.4h4.7V5.3h-8V1.5z     M134.2,10.8h18.6v-1h-18.6V10.8z M134.2,14.8h18.6v-0.9h-18.6V14.8z M135.5,25.3h4.1c0.1-0.6,0.2-1.2,0.2-1.9l4,0.5    c0,0.5,0,1-0.1,1.4h8c-1.1-0.7-2.1-1.4-3-2.1h-10.7c-0.3,0.2-0.5,0.4-0.7,0.6C136.8,24.3,136.1,24.8,135.5,25.3z M139.2,6.4h8.4    V5.3h-8.4V6.4z"/>
	</g>
</g>
</svg>