<?xml version="1.0" encoding="UTF-8"?>
<!-- Generator: Adobe Illustrator 23.0.6, SVG Export Plug-In . SVG Version: 6.00 Build 0)  -->
<svg version="1.1" id="圖層_1" xmlns="http://www.w3.org/2000/svg" xmlns:xlink="http://www.w3.org/1999/xlink" x="0px" y="0px" width="287px" height="560.7px" viewBox="0 0 287 560.7" style="enable-background:new 0 0 287 560.7;" xml:space="preserve">
<style type="text/css">
	.st0{fill:none;}
	.st1{fill:none;stroke:#FFFFFF;stroke-width:0.3;}
	.st2{fill:#009EA2;stroke:#009EA2;stroke-width:2.0483;stroke-miterlimit:10;}
	.st3{fill:#009EA2;}
	.st4{fill:#FFFFFF;stroke:#009EA2;stroke-width:1.3221;stroke-miterlimit:10;}
	.st5{fill:#FFFFFF;stroke:#009EA2;stroke-width:0.6638;stroke-miterlimit:10;}
	.st6{fill:#009EA2;stroke:#009EA2;stroke-width:0.6638;stroke-miterlimit:10;}
	.st7{fill:#FFFFFF;}
	.st8{fill:#009EA2;stroke:#009EA2;stroke-width:0.9725;stroke-miterlimit:10;}
	.st9{fill:#009EA2;stroke:#009EA2;stroke-width:0.9725;stroke-linecap:round;stroke-linejoin:round;stroke-miterlimit:10;}
	.st10{fill:#FFFFFF;stroke:#009EA2;stroke-width:0.9725;stroke-miterlimit:10;}
	.st11{fill:none;stroke:#009EA2;stroke-width:0.9725;stroke-miterlimit:10;}
	.st12{fill:none;stroke:#FFFFFF;stroke-width:0.9725;stroke-miterlimit:10;}
	.st13{fill:#009EA2;stroke:#009EA2;stroke-width:8.182281e-02;stroke-miterlimit:10;}
	.st14{fill:#009EA2;stroke:#009EA2;stroke-width:0.8465;stroke-linecap:round;stroke-linejoin:round;stroke-miterlimit:10;}
	.st15{fill:#009EA2;stroke:#009EA2;stroke-width:0.4443;stroke-miterlimit:10;}
	.st16{fill:#009EA2;stroke:#009EA2;stroke-width:0.4579;stroke-miterlimit:10;}
	.st17{fill:none;stroke:#009EA2;stroke-width:0.6084;stroke-miterlimit:10;}
	.st18{fill:#FFFFFF;stroke:#009EA2;stroke-width:0.6084;stroke-miterlimit:10;}
	.st19{fill:#009EA2;stroke:#009EA2;stroke-width:0.6084;stroke-miterlimit:10;}
	.st20{opacity:0.7;fill:url(#SVGID_1_);}
	.st21{fill:#009EA2;stroke:#009EA2;stroke-width:2.8371;stroke-miterlimit:10;}
	.st22{fill:#FFFFFF;stroke:#009EA2;stroke-width:0.4538;stroke-miterlimit:10;}
	.st23{fill:#009EA2;stroke:#009EA2;stroke-width:0.4538;stroke-miterlimit:10;}
	.st24{fill:#009EA2;stroke:#009EA2;stroke-width:0.3042;stroke-miterlimit:10;}
	.st25{fill:#FFFFFF;stroke:#009EA2;stroke-width:0.3042;stroke-linecap:round;stroke-linejoin:round;stroke-miterlimit:10;}
	.st26{fill:#FFFFFF;stroke:#009EA2;stroke-width:0.3042;stroke-miterlimit:10;}
	.st27{fill:none;stroke:#009EA2;stroke-width:0.3042;stroke-miterlimit:10;}
	.st28{fill:none;stroke:#FFFFFF;stroke-width:0.3042;stroke-miterlimit:10;}
	.st29{opacity:0.7;fill:url(#SVGID_2_);}
</style>
<pattern x="-47.3" y="170" width="72" height="72" patternUnits="userSpaceOnUse" id="_x35__英吋方格線" viewBox="72.2 -144.2 72 72" style="overflow:visible;">
	<g>
		<rect x="72.2" y="-144.2" class="st0" width="72" height="72"/>
		<g>
			<line class="st1" x1="126.2" y1="-72.5" x2="126.2" y2="0"/>
			<line class="st1" x1="90.2" y1="-72.5" x2="90.2" y2="0"/>
		</g>
		<g>
			<line class="st1" x1="144" y1="-126.2" x2="216.5" y2="-126.2"/>
			<line class="st1" x1="144" y1="-90.2" x2="216.5" y2="-90.2"/>
		</g>
		<g>
			<line class="st1" x1="72" y1="-126.2" x2="144.5" y2="-126.2"/>
			<line class="st1" x1="126.2" y1="-144.5" x2="126.2" y2="-72"/>
			<line class="st1" x1="72" y1="-90.2" x2="144.5" y2="-90.2"/>
			<line class="st1" x1="90.2" y1="-144.5" x2="90.2" y2="-72"/>
		</g>
		<g>
			<line class="st1" x1="0" y1="-126.2" x2="72.5" y2="-126.2"/>
			<line class="st1" x1="0" y1="-90.2" x2="72.5" y2="-90.2"/>
		</g>
		<g>
			<line class="st1" x1="126.2" y1="-216.5" x2="126.2" y2="-144"/>
			<line class="st1" x1="90.2" y1="-216.5" x2="90.2" y2="-144"/>
		</g>
	</g>
</pattern>
<g>
	<g>
		<line class="st2" x1="227.9" y1="143.8" x2="227.9" y2="271.3"/>
		<g>
			<path class="st3" d="M245.3,178.1l-0.7,1.1c-2.2-1-4.1-2.2-5.6-3.5c-1.4,1.1-3.2,2.3-5.4,3.4l-0.8-1c2.7-1.2,4.7-2.6,6-4l1.3,0.5     c-0.1,0.1-0.2,0.2-0.2,0.3C241.1,176,243,177,245.3,178.1z M243.5,186.5h-1.3v-0.7h-6.6v0.7h-1.3v-5.7h9.3V186.5z M242.2,184.6     V182h-6.6v2.6H242.2z M242.2,179.3h-6.5v-1.2h6.5V179.3z"/>
			<path class="st3" d="M237.3,193.8l-0.8,0.9c-0.1-0.2-0.2-0.5-0.5-0.9v6.8h-1.2v-6c-0.5,1.1-0.9,1.9-1.4,2.4l-0.6-1.2     c0.8-1,1.5-2.2,2-3.8h-1.9v-1.2h1.9v-2.5h1.2v2.5h1.2v1.2h-1.2v0.1C236.5,192.7,237,193.3,237.3,193.8z M245.1,194l-0.6,1.1     c-1.4-0.4-2.4-1-3.3-1.6c-1,0.6-2.1,1.2-3.2,1.6l-0.7-1.1c1.2-0.4,2.2-0.8,2.9-1.3c-0.5-0.5-0.9-1-1.1-1.4     c-0.4,0.4-0.8,0.6-0.9,0.7l-0.8-0.9c1-0.7,1.9-1.7,2.7-3l1.2,0.3c0,0.1-0.2,0.3-0.4,0.7h3.3v1.2c-0.5,0.9-1.2,1.7-2,2.4     C243,193.4,244,193.8,245.1,194z M244.2,200.6h-1.3v-0.5h-3.4v0.5h-1.3v-5.2h6V200.6z M242.9,198.9v-2.3h-3.4v2.3H242.9z      M242.8,190.5H240l-0.1,0.1c0.4,0.6,0.8,1.2,1.3,1.6C241.9,191.6,242.4,191.1,242.8,190.5z"/>
		</g>
	</g>
	<g>
		<line class="st2" x1="145.3" y1="355.3" x2="145.3" y2="482.7"/>
		<g>
			<path class="st3" d="M162.7,389.5l-0.7,1.1c-2.2-1-4.1-2.2-5.6-3.5c-1.4,1.1-3.2,2.3-5.4,3.4l-0.8-1c2.7-1.2,4.7-2.6,6-4l1.3,0.5     c-0.1,0.1-0.2,0.2-0.2,0.3C158.5,387.4,160.4,388.5,162.7,389.5z M160.9,398h-1.3v-0.7H153v0.7h-1.3v-5.7h9.3V398z M159.6,396     v-2.6H153v2.6H159.6z M159.6,390.7h-6.5v-1.2h6.5V390.7z"/>
			<path class="st3" d="M154.7,405.2l-0.8,0.9c-0.1-0.2-0.2-0.5-0.5-0.9v6.8h-1.2v-6c-0.5,1.1-0.9,1.9-1.4,2.4l-0.6-1.2     c0.8-1,1.5-2.2,2-3.8h-1.9v-1.2h1.9v-2.5h1.2v2.5h1.2v1.2h-1.2v0.1C153.9,404.2,154.4,404.7,154.7,405.2z M162.5,405.4l-0.6,1.1     c-1.4-0.4-2.4-1-3.3-1.6c-1,0.6-2.1,1.2-3.2,1.6l-0.7-1.1c1.2-0.4,2.2-0.8,2.9-1.3c-0.5-0.5-0.9-1-1.1-1.4     c-0.4,0.4-0.8,0.6-0.9,0.7l-0.8-0.9c1-0.7,1.9-1.7,2.7-3l1.2,0.3c0,0.1-0.2,0.3-0.4,0.7h3.3v1.2c-0.5,0.9-1.2,1.7-2,2.4     C160.4,404.8,161.4,405.2,162.5,405.4z M161.6,412h-1.3v-0.5h-3.4v0.5h-1.3v-5.2h6V412z M160.3,410.3V408h-3.4v2.3H160.3z      M160.2,401.9h-2.7l-0.1,0.1c0.4,0.6,0.8,1.2,1.3,1.6C159.3,403,159.8,402.5,160.2,401.9z"/>
		</g>
	</g>
	<g>
		<circle class="st4" cx="145.3" cy="492.9" r="67.1"/>
		<g>
			<g>
				<path class="st3" d="M130.3,531.9h-12.3v-1.2h1.8v-7.2h1.3v7.2h2.7v-9.2h-5.4v-1.2H130v1.2h-5v3.6h4.5v1.2H125v4.3h5.3V531.9z"/>
				<path class="st3" d="M144.4,529.2c-0.2,2.1-0.7,3.1-1.7,3.1c-0.9,0-1.6-0.8-2.3-2.5c-0.6-1.6-1-3.8-1.1-6.5h-7.2v-1.2h7.2      c-0.1-1-0.1-1.7-0.1-2.3h1.3c0,0.5,0,1.3,0.1,2.3h3.8v1.2h-3.8c0.1,2.7,0.3,4.6,0.9,5.8c0.5,1.2,0.9,1.8,1.1,1.8      c0.3,0,0.5-0.8,0.5-2.4L144.4,529.2z M139.2,530c-2.6,0.7-4.8,1.1-6.6,1.3l-0.3-1.2c0.8-0.1,1.7-0.2,2.8-0.4V526h-2.3v-1.2h6      v1.2h-2.4v3.5c1.2-0.2,2.1-0.5,2.8-0.7L139.2,530z M144,521.2l-0.9,0.8c-0.6-0.5-1.2-0.9-1.8-1.2l1-0.8      C143,520.3,143.6,520.7,144,521.2z"/>
				<path class="st3" d="M158.7,531.3l-1,0.9c-2.7-2.3-4.4-4.9-5.2-7.7c-0.9,3.2-2.8,5.8-5.5,7.6l-0.9-1c1.2-0.8,2.3-1.8,3.2-2.9      c0.9-1.2,1.6-2.4,2-3.8c0.5-1.4,0.7-2.3,0.7-2.7l0-0.3h-1.7v-1.3h2.9c0.1,2.7,0.7,4.9,1.6,6.6C155.7,528.5,157,530,158.7,531.3z      "/>
				<path class="st3" d="M165.8,527.6l-0.9,0.9c-0.4-0.6-0.8-1.1-1.2-1.5v5.3h-1.3v-4.7c-0.3,0.3-0.7,0.7-1.2,1.1l-0.8-1      c1.6-1.4,2.7-2.7,3.2-4.1h-3.1v-1.2h4.4v1.2c-0.3,0.8-0.7,1.5-1,2C164.7,526.3,165.3,526.9,165.8,527.6z M163.9,521.4l-1.1,0.6      c-0.3-0.6-0.8-1.1-1.3-1.7l1.1-0.6C163.2,520.3,163.6,520.9,163.9,521.4z M172.7,531.9h-7.4v-1.3h3v-6.3h-2.8v-1.3h2.8v-3.2h1.3      v3.2h2.7v1.3h-2.7v6.3h3.1V531.9z"/>
			</g>
			<g>
				<rect x="99.2" y="464.6" class="st5" width="92.2" height="43.8"/>
				<rect x="99.2" y="450.6" class="st6" width="33.2" height="13.8"/>
				<g>
					<path class="st7" d="M106.6,460l-1.6-2.9c0,0,0,0.6,0,0.9v2h-1.7v-5.2h1.9l1.5,2.9c0,0,0-0.6,0-0.9v-2h1.7v5.2H106.6z"/>
					<path class="st7" d="M109.1,460v-5.2h1.7v5.2H109.1z"/>
					<path class="st7" d="M114.2,456.1v3.9h-1.7v-3.9h-1.2v-1.3h4.2v1.3H114.2z"/>
					<path class="st7" d="M118.1,460.1c-1.6,0-2.8-1-2.8-2.7c0-1.7,1.2-2.7,2.8-2.7s2.8,1,2.8,2.7       C121,459.1,119.8,460.1,118.1,460.1z M118.1,456.1c-0.7,0-1.1,0.5-1.1,1.2c0,0.7,0.4,1.2,1.1,1.2c0.7,0,1.1-0.5,1.1-1.2       C119.3,456.6,118.8,456.1,118.1,456.1z"/>
					<path class="st7" d="M124.3,460l-0.8-1.7h-0.2v1.7h-1.7v-5.2h2.3c0.6,0,1.1,0.1,1.5,0.4c0.4,0.3,0.6,0.7,0.6,1.3       c0,1.1-0.6,1.4-0.9,1.6l1.2,2H124.3z M124,456.1c-0.1-0.1-0.2-0.1-0.4-0.1h-0.4v0.9h0.4c0.3,0,0.6-0.1,0.6-0.5       C124.2,456.3,124.1,456.2,124,456.1z"/>
					<path class="st7" d="M126.5,460v-5.2h1.7v5.2H126.5z"/>
				</g>
				<g>
					<rect x="105.7" y="470.5" class="st3" width="4.6" height="5.1"/>
					<rect x="114" y="470.5" class="st3" width="4.6" height="5.1"/>
					<rect x="122.3" y="470.5" class="st3" width="4.6" height="5.1"/>
					<rect x="130.6" y="470.5" class="st3" width="4.6" height="5.1"/>
					<rect x="138.9" y="470.5" class="st3" width="4.6" height="5.1"/>
					<rect x="147.2" y="470.5" class="st3" width="4.6" height="5.1"/>
					<rect x="155.5" y="470.5" class="st3" width="4.6" height="5.1"/>
					<rect x="163.8" y="470.5" class="st3" width="4.6" height="5.1"/>
					<rect x="172.1" y="470.5" class="st3" width="4.6" height="5.1"/>
					<rect x="180.4" y="470.5" class="st3" width="4.6" height="5.1"/>
				</g>
				<g>
					<rect x="105.7" y="477.9" class="st3" width="4.6" height="5.1"/>
					<rect x="114" y="477.9" class="st3" width="4.6" height="5.1"/>
					<rect x="122.3" y="477.9" class="st3" width="4.6" height="5.1"/>
					<rect x="130.6" y="477.9" class="st3" width="4.6" height="5.1"/>
					<rect x="138.9" y="477.9" class="st3" width="4.6" height="5.1"/>
					<rect x="147.2" y="477.9" class="st3" width="4.6" height="5.1"/>
					<rect x="155.5" y="477.9" class="st3" width="4.6" height="5.1"/>
					<rect x="163.8" y="477.9" class="st3" width="4.6" height="5.1"/>
					<rect x="172.1" y="477.9" class="st3" width="4.6" height="5.1"/>
					<rect x="180.4" y="477.9" class="st3" width="4.6" height="5.1"/>
				</g>
				<g>
					<rect x="105.7" y="485.3" class="st3" width="4.6" height="5.1"/>
					<rect x="114" y="485.3" class="st3" width="4.6" height="5.1"/>
					<rect x="122.3" y="485.3" class="st3" width="4.6" height="5.1"/>
					<rect x="130.6" y="485.3" class="st3" width="4.6" height="5.1"/>
					<rect x="138.9" y="485.3" class="st3" width="4.6" height="5.1"/>
					<rect x="147.2" y="485.3" class="st3" width="4.6" height="5.1"/>
					<rect x="155.5" y="485.3" class="st3" width="4.6" height="5.1"/>
					<rect x="163.8" y="485.3" class="st3" width="4.6" height="5.1"/>
					<rect x="172.1" y="485.3" class="st3" width="4.6" height="5.1"/>
					<rect x="180.4" y="485.3" class="st3" width="4.6" height="5.1"/>
				</g>
				<g>
					<rect x="105.7" y="492.7" class="st3" width="4.6" height="5.1"/>
					<rect x="114" y="492.7" class="st3" width="4.6" height="5.1"/>
					<rect x="122.3" y="492.7" class="st3" width="4.6" height="5.1"/>
					<rect x="130.6" y="492.7" class="st3" width="4.6" height="5.1"/>
					<rect x="138.9" y="492.7" class="st3" width="4.6" height="5.1"/>
					<rect x="147.2" y="492.7" class="st3" width="4.6" height="5.1"/>
					<rect x="155.5" y="492.7" class="st3" width="4.6" height="5.1"/>
					<rect x="163.8" y="492.7" class="st3" width="4.6" height="5.1"/>
					<rect x="172.1" y="492.7" class="st3" width="4.6" height="5.1"/>
					<rect x="180.4" y="492.7" class="st3" width="4.6" height="5.1"/>
				</g>
			</g>
			<g>
				<ellipse class="st8" cx="128.3" cy="483.8" rx="14.1" ry="16.1"/>
				<path class="st9" d="M140,504l-7.7-4.4c0.4,0-1.6-0.3-3.1-0.6v-0.2c0,0-0.3,0-0.7,0.1c-0.4-0.1-0.7-0.1-0.7-0.1v0.2      c-1.4,0.2-3.5,0.6-3.1,0.6l-7.7,4.4l-0.8,9.3h11.6h1.4h11.6L140,504z"/>
				<g>
					<path class="st10" d="M138.8,482"/>
					<path class="st10" d="M138.8,479.1c0.1,2.2,0,4.5-0.2,6.7l0.1,0.4c0.9-0.8,2.2-1.6,3.2-1c1,0.6,1,2,0.8,3.2       c0,0.3-0.1,0.7-0.3,1c-0.5,1-2,1-3.1,0.8l-0.3-0.1c-1.1,2.6-3,4.8-5.4,6.3c-0.7,0.4-1.1,0.8-1.8,1.1l0,0.3c0,0.8,0,1.6,0,2.4       l0.1,0.5c-1.7,1.3-4.3,1.3-5.9-0.1l0.2,0c0-0.8,0-1.6,0-2.4l-0.1-0.3c-0.8-0.3-1.6-0.6-2.4-1.1c-2.7-1.5-4.8-3.9-6.1-6.7       l-0.4,0.1c-1.1,0.2-2.6,0.2-3.1-0.8c-0.2-0.3-0.2-0.7-0.3-1c-0.2-1.2-0.2-2.6,0.8-3.2c1-0.6,2.3,0.2,3.2,1l0.2-0.4       c-0.2-2.2-0.3-4.4-0.2-6.7l0,2.8"/>
					<g>
						<g>
							<path class="st11" d="M122.1,486.9c0.8-0.7,2-1.1,3.1-0.8"/>
							<path class="st11" d="M134.5,486.9c-0.8-0.7-2-1.1-3.1-0.8"/>
						</g>
						<g>
							<path class="st3" d="M127.5,491.3c0.5,0.7,1.2,0.7,1.7,0l0.6-0.8c0.5-0.7,0.2-1.2-0.6-1.2h-1.5c-0.8,0-1.1,0.5-0.6,1.2         L127.5,491.3z"/>
							<path class="st11" d="M127.5,491.3c0.5,0.7,1.2,0.7,1.7,0l0.6-0.8c0.5-0.7,0.2-1.2-0.6-1.2h-1.5c-0.8,0-1.1,0.5-0.6,1.2         L127.5,491.3z"/>
						</g>
					</g>
				</g>
				<g>
					<path class="st10" d="M126,497.6c0.9,1.3,1.8,2.7,2.5,4.1c0.1,0.2,0.3,0.5,0.2,0.8c0,0.2-0.2,0.4-0.4,0.6       c-0.7,0.8-1.4,1.6-2.2,2.3c-0.1,0.1-0.1,0.1-0.2,0.2c-0.2,0-0.3-0.1-0.4-0.3c-1.2-1.9-1.2-4.1-1.2-6.3c0-0.5,0-1,0.3-1.4       S125.6,497.2,126,497.6"/>
					<path class="st10" d="M131.4,497.6c-0.9,1.3-1.8,2.7-2.5,4.1c-0.1,0.2-0.3,0.5-0.2,0.8c0,0.2,0.2,0.4,0.4,0.6       c0.7,0.8,1.4,1.6,2.2,2.3c0.1,0.1,0.1,0.1,0.2,0.2c0.2,0,0.3-0.1,0.4-0.3c1.2-1.9,1.2-4.1,1.2-6.3c0-0.5,0-1-0.3-1.4       S131.8,497.2,131.4,497.6"/>
				</g>
				<path class="st12" d="M122.1,481.5c0-1.1,0-2.2,0-3.2"/>
				<path class="st12" d="M126.5,481.5c0-1.1,0-2.2,0-3.2"/>
				<path class="st12" d="M131,481.5c0-1.1,0-2.2,0-3.2"/>
				<path class="st12" d="M135.4,481.5c0-1.1,0-2.2,0-3.2"/>
			</g>
			<g>
				<ellipse class="st8" cx="160.5" cy="481.2" rx="14" ry="15.2"/>
				<path class="st9" d="M172,504l-7.7-4.4c0.4,0-1.6-0.3-3.1-0.6v-0.2c0,0-0.3,0-0.7,0.1c-0.4-0.1-0.7-0.1-0.7-0.1v0.2      c-1.4,0.2-3.5,0.6-3.1,0.6l-7.7,4.4l-0.8,9.3h11.6h1.4h11.6L172,504z"/>
				<g>
					<polyline class="st10" points="159.6,513.2 159.6,501 161.6,501 161.6,513.2      "/>
				</g>
				<g>
					<path class="st10" d="M149.9,482"/>
					<path class="st10" d="M149.9,479.1c-0.1,2.2,0,4.5,0.2,6.7l-0.1,0.4c-0.9-0.8-2.2-1.6-3.2-1c-1,0.6-1,2-0.8,3.2       c0,0.3,0.1,0.7,0.3,1c0.5,1,2,1,3.1,0.8l0.3-0.1c1.1,2.6,3,4.8,5.4,6.3c0.7,0.4,2,0.8,2.7,1.1l0,0.3c0,0.8,0,1.6,0,2.4       l-0.1,0.5c1.7,1.3,4.3,1.3,5.9-0.1l-0.2,0c0-0.8,0-1.6,0-2.4l0.1-0.3c0.8-0.3,0.7-0.6,1.5-1.1c2.7-1.5,4.8-3.9,6.1-6.7l0.4,0.1       c1.1,0.2,2.6,0.2,3.1-0.8c0.2-0.3,0.2-0.7,0.3-1c0.2-1.2,0.2-2.6-0.8-3.2c-1-0.6-2.3,0.2-3.2,1l-0.2-0.4       c0.2-2.2,0.3-4.4,0.2-6.7l0,2.8"/>
					<g>
						<g>
							<path class="st11" d="M154.1,486.9c0.8-0.7,2-1.1,3.1-0.8"/>
							<path class="st11" d="M166.5,486.9c-0.8-0.7-2-1.1-3.1-0.8"/>
						</g>
						<g>
							<path class="st3" d="M159.5,491.3c0.5,0.7,1.2,0.7,1.7,0l0.6-0.8c0.5-0.7,0.2-1.2-0.6-1.2h-1.5c-0.8,0-1.1,0.5-0.6,1.2         L159.5,491.3z"/>
							<path class="st11" d="M159.5,491.3c0.5,0.7,1.2,0.7,1.7,0l0.6-0.8c0.5-0.7,0.2-1.2-0.6-1.2h-1.5c-0.8,0-1.1,0.5-0.6,1.2         L159.5,491.3z"/>
						</g>
					</g>
				</g>
				<g>
					<path class="st10" d="M158,497.6c0.9,1.3,1.8,2.7,2.5,4.1c0.1,0.2,0.3,0.5,0.2,0.8c0,0.2-0.2,0.4-0.4,0.6       c-0.7,0.8-1.4,1.6-2.2,2.3c-0.1,0.1-0.1,0.1-0.2,0.2c-0.2,0-0.3-0.1-0.4-0.3c-1.2-1.9-1.2-4.1-1.2-6.3c0-0.5,0-1,0.3-1.4       S157.6,497.2,158,497.6"/>
					<path class="st10" d="M163.4,497.6c-0.9,1.3-1.8,2.7-2.5,4.1c-0.1,0.2-0.3,0.5-0.2,0.8c0,0.2,0.2,0.4,0.4,0.6       c0.7,0.8,1.4,1.6,2.2,2.3c0.1,0.1,0.1,0.1,0.2,0.2c0.2,0,0.3-0.1,0.4-0.3c1.2-1.9,1.2-4.1,1.2-6.3c0-0.5,0-1-0.3-1.4       S163.8,497.2,163.4,497.6"/>
				</g>
			</g>
		</g>
	</g>
	<g>
		<g>
			<path class="st4" d="M248.4,327.8H42.2c-3.8,0-7-3.1-7-7V219.2c0-3.8,3.1-7,7-7h206.1c3.8,0,7,3.1,7,7v101.6     C255.3,324.6,252.2,327.8,248.4,327.8z"/>
			<g>
				<g>
					<g>
						<g>
							<ellipse class="st13" cx="138.3" cy="255.6" rx="14" ry="15.2"/>
							<path class="st14" d="M149.9,278.4l-7.7-4.4c0.4,0-1.6-0.3-3.1-0.6v-0.2c0,0-0.3,0-0.7,0.1c-0.4-0.1-0.7-0.1-0.7-0.1v0.2         c-1.4,0.2-3.5,0.6-3.1,0.6l-7.7,4.4l-0.8,9.3h11.6h1.4h11.6L149.9,278.4z"/>
							<g>
								<line class="st15" x1="137.5" y1="275.4" x2="137.5" y2="287.6"/>
								<line class="st15" x1="139.5" y1="275.4" x2="139.5" y2="287.6"/>
							</g>
							<g>
								<g>
									<path class="st3" d="M148.7,253.5c0.1,2.2,0,4.5-0.2,6.7l0.1,0.4c0.9-0.8,2.2-1.6,3.2-1c1,0.6,1,2,0.8,3.2           c0,0.3-0.1,0.7-0.3,1c-0.5,1-2,1-3.1,0.8l-0.3-0.1c-1.1,2.6-3,4.8-5.4,6.3c-0.7,0.4-1.1,0.8-1.8,1.1l0,0.3           c0,0.8,0,1.6,0,2.4l0.1,0.5c-1.7,1.3-4.3,1.3-5.9-0.1l0.2,0c0-0.8,0-1.6,0-2.4l-0.1-0.3c-0.8-0.3-1.6-0.6-2.4-1.1           c-2.7-1.5-4.8-3.9-6.1-6.7l-0.4,0.1c-1.1,0.2-2.6,0.2-3.1-0.8c-0.2-0.3-0.2-0.7-0.3-1c-0.2-1.2-0.2-2.6,0.8-3.2           c1-0.6,2.3,0.2,3.2,1l0.2-0.4c-0.2-2.2-0.3-4.4-0.2-6.7l0,2.8c4.6-0.6,8-1.2,10.7-5v0.4c2.7,3.8,5.5,4.1,10.2,4.6"/>
									<g>
										<path class="st3" d="M148.4,253.5c0.1,2.2-0.6,5-0.1,7.1c0,0.2,0.3,0.3,0.5,0.2c0.1,1.1,0.2,2.2,0.3,3.3            c-0.1,0-0.3,0-0.4,0.1c-1.6,3.2-4,5.6-7.1,7.3c-0.1,0.1-0.2,0.2-0.2,0.3c0.3,3.9,0.6,4-5.3,3.4c0.2,0,0.3-0.2,0.3-0.3            c0-0.8,0.4-2.2-0.2-3c-0.2-0.2-10.8-5.9-2.4-1.1c-2.7-1.5-4.6-3.8-5.9-6.6c-0.1-0.1-0.2-0.2-0.4-0.1            c-1.2,0.3-1.2-0.8,0.2-3.3c0.1,0.1,0.4,0,0.4-0.1c0.5-1.1,0.1-2.8,0-3.9c-0.1-0.6,0-4.3-0.6-2.3c-0.2,0.5,0,1.3,0,1.8            c0,0.2,0.1,0.3,0.3,0.3c2.3-0.3,4.7-0.6,6.8-1.6c0.7-0.3,4.2-3.3,3.6-3.3c0.2,0,3.3,3.2,4,3.5c2,0.9,4.3,1.1,6.5,1.4            c0.4,0,0.4-0.6,0-0.6c-2.3-0.3-9.8-1.1-9.8-4.7c0-0.3-0.4-0.4-0.5-0.2c-2.1,2.6-4.5,3.9-7.7,4.5c-2.8,0.6-2.5,0.4-2.5-2.1            c0-0.4-0.6-0.4-0.6,0c0,1.6,0.2,3.5,0,5c-0.3,2.2,0.6,0.8-0.6,1c-1.2,0.3-1.2-1-2.5-0.3c-1.3,0.7-1.5,3.6-0.7,4.7            c0.7,1,1.1,0.6,2.1,1c0.4,0.1,1-0.3,1.3-0.1c0.5,0.2,1.2,2,1.5,2.4c0.9,1.3,2.1,2.4,3.4,3.3c0.6,0.4,2,0.9,2.5,1.4            c0.3,0.1,0.7,0.3,1,0.4c0,0.7,0,1.5,0.2,2.2c-0.3,0-0.4,0.4-0.2,0.6c2.2,1.4,4.1,1.4,6.3,0.1c0.1-0.1,0.2-0.2,0.1-0.4            c-0.5-2.4,0.2-2.6,1.6-4c1.4-1.4,2.9-2.3,4.1-3.9c0-0.1,1-2.1,1.3-2.2c0.3-0.2,1,0.3,1.3,0.1c1.1-0.5,1.4,0.1,2.2-1            c0.8-1.1,0.6-3.9-0.7-4.6c-1.3-0.8-1.3,0.5-2.5,0.3c-1-0.2-0.3,3.8-0.5-1c-0.1-1.7,0.1-3.3,0-5            C149,253.1,148.4,253.1,148.4,253.5L148.4,253.5z"/>
									</g>
								</g>
								<g>
									<path class="st3" d="M134.5,257.4c0,1.3,0,2.6,0,3.8"/>
									<g>
										<path class="st3" d="M134,257.4c0,1.3,0,2.6,0,3.8c0,0.7,1.1,0.7,1.1,0c0-1.3,0-2.6,0-3.8C135,256.7,134,256.7,134,257.4            L134,257.4z"/>
									</g>
								</g>
								<g>
									<path class="st3" d="M142.6,257.4c0,1.3,0,2.6,0,3.8"/>
									<g>
										<path class="st3" d="M142.1,257.4c0,1.3,0,2.6,0,3.8c0,0.7,1.1,0.7,1.1,0c0-1.3,0-2.6,0-3.8            C143.2,256.7,142.1,256.7,142.1,257.4L142.1,257.4z"/>
									</g>
								</g>
								<g>
									<path class="st3" d="M136.8,264.8c1.1,0.5,2.5,0.4,3.6,0"/>
									<g>
										<path class="st3" d="M136.6,265.3c1.3,0.5,2.6,0.5,3.9,0c0.6-0.2,0.4-1.3-0.3-1c-1.1,0.4-2.2,0.5-3.3,0            C136.3,264,136,265,136.6,265.3L136.6,265.3z"/>
									</g>
								</g>
							</g>
							<g>
								<g>
									<path class="st3" d="M135.8,272c0.9,1.3,1.8,2.7,2.5,4.1c0.1,0.2,0.3,0.5,0.2,0.8c0,0.2-0.2,0.4-0.4,0.6           c-0.7,0.8-1.4,1.6-2.2,2.3c-0.1,0.1-0.1,0.1-0.2,0.2c-0.2,0-0.3-0.1-0.4-0.3c-1.2-1.9-1.2-4.1-1.2-6.3c0-0.5,0-1,0.3-1.4           C134.8,271.8,135.5,271.6,135.8,272"/>
									<g>
										<path class="st3" d="M135.6,272.2c0.7,1,1.3,2,1.9,3.1c0.4,0.7,0.8,1.2,0.4,2c-0.2,0.3-1,1.2-1.3,1.4            c-0.8,0.7-1.3,0.8-1.7-0.5c-0.2-0.6-0.3-1.3-0.4-2C134.5,275.7,134.2,271.4,135.6,272.2c0.4,0.3,0.8-0.2,0.4-0.5            c-1.4-0.9-2.1,0.6-2.2,1.8c-0.1,1.7-0.1,5.3,1.4,6.6c0.4,0.3,0.6,0.3,1,0.1c0.5-0.3,1-1,1.4-1.5c0.3-0.4,0.9-0.8,1.1-1.2            c0.3-0.6,0.2-0.9,0-1.4c-0.5-1.5-1.6-2.9-2.5-4.1C135.9,271.5,135.3,271.8,135.6,272.2L135.6,272.2z"/>
									</g>
								</g>
								<g>
									<path class="st3" d="M141.3,272c-0.9,1.3-1.8,2.7-2.5,4.1c-0.1,0.2-0.3,0.5-0.2,0.8c0,0.2,0.2,0.4,0.4,0.6           c0.7,0.8,1.4,1.6,2.2,2.3c0.1,0.1,0.1,0.1,0.2,0.2c0.2,0,0.3-0.1,0.4-0.3c1.2-1.9,1.2-4.1,1.2-6.3c0-0.5,0-1-0.3-1.4           C142.4,271.8,141.7,271.6,141.3,272"/>
									<g>
										<path class="st3" d="M141,271.9c-0.9,1.3-2,2.7-2.5,4.1c-0.2,0.6-0.3,0.9-0.1,1.4c0.2,0.5,0.8,0.9,1.2,1.3            c0.4,0.4,0.9,1.2,1.4,1.5c0.4,0.2,0.6,0.3,1-0.1c1.5-1.3,1.4-4.6,1.4-6.3c0-1.2-0.6-3-2.2-2.1c-0.3,0.2,0,0.8,0.3,0.5            c1.3-0.8,1.2,1.8,1.2,2.3c0,0.5,0,1.1-0.1,1.6c-0.1,0.7-0.2,1.4-0.4,2c0,0.7-0.3,1-0.8,0.9c-0.4,0.1-0.7,0-0.9-0.4            c-0.4-0.3-1.1-1-1.3-1.4c-0.3-0.8,0.1-1.4,0.4-2c0.6-1.1,1.3-2.1,1.9-3.1C141.8,271.8,141.3,271.5,141,271.9L141,271.9z"/>
									</g>
								</g>
							</g>
						</g>
						<g>
							<path class="st7" d="M143.4,256.2h-10.2v-1h4.5v-2.5h-3.6v-1h3.6v-2.5h-4.1v-1h4.3c-0.1-0.5-0.4-1.1-0.8-1.7l1.1-0.3         c0.3,0.6,0.6,1.3,0.9,2h3.9v1h-4.1v2.5h3.6v1h-3.6v2.5h4.5V256.2z"/>
							<path class="st7" d="M138.2,259.5h-3.1c-0.4,0.4-0.8,0.8-1.3,1.2l-0.7-0.8c0.9-0.6,1.5-1.3,1.8-2l1.1,0.3         c-0.1,0.1-0.1,0.3-0.2,0.5h2.5V259.5z M143.1,263h-1v-1.1h-7.6v1.1h-1v-2h4.2c0-0.1-0.1-0.3-0.3-0.5l1.2-0.2         c0.1,0.2,0.2,0.4,0.4,0.7h4.2V263z M142,267.7h-6.2v0.5h-1v-5.7h6.9v2.2h-5.8v0.6h6.2V267.7z M137.1,260.5l-1.1,0.2         c-0.1-0.2-0.3-0.5-0.5-0.8l1.1-0.2C136.7,259.9,136.9,260.2,137.1,260.5z M140.6,264v-0.7h-4.8v0.7H140.6z M141,266.9v-0.8         h-5.2v0.8H141z M143.4,259.5h-3.6c-0.2,0.3-0.4,0.6-0.7,0.8l-1-0.5c0.6-0.7,1.1-1.3,1.4-2l1.1,0.3c-0.1,0.2-0.2,0.4-0.3,0.5         h3.1V259.5z M141.8,260.6l-1.1,0.2c-0.1-0.3-0.2-0.6-0.4-0.9l1.1-0.1C141.5,260,141.7,260.3,141.8,260.6z"/>
						</g>
					</g>
					<g>
						<ellipse class="st8" cx="69.7" cy="259.1" rx="14.1" ry="16.1"/>
						<path class="st9" d="M81.4,279.3l-7.7-4.4c0.4,0-1.6-0.3-3.1-0.6V274c0,0-0.3,0-0.7,0.1c-0.4-0.1-0.7-0.1-0.7-0.1v0.2        c-1.4,0.2-3.5,0.6-3.1,0.6l-7.7,4.4l-0.8,9.3h11.6h1.4h11.6L81.4,279.3z"/>
						<g>
							<path class="st10" d="M80.2,257.2"/>
							<path class="st10" d="M80.2,254.4c0.1,2.2,0,4.5-0.2,6.7l0.1,0.4c0.9-0.8,2.2-1.6,3.2-1c1,0.6,1,2,0.8,3.2         c0,0.3-0.1,0.7-0.3,1c-0.5,1-2,1-3.1,0.8l-0.3-0.1c-1.1,2.6-3,4.8-5.4,6.3c-0.7,0.4-1.1,0.8-1.8,1.1l0,0.3c0,0.8,0,1.6,0,2.4         l0.1,0.5c-1.7,1.3-4.3,1.3-5.9-0.1l0.2,0c0-0.8,0-1.6,0-2.4l-0.1-0.3c-0.8-0.3-1.6-0.6-2.4-1.1c-2.7-1.5-4.8-3.9-6.1-6.7         l-0.4,0.1c-1.1,0.2-2.6,0.2-3.1-0.8c-0.2-0.3-0.2-0.7-0.3-1c-0.2-1.2-0.2-2.6,0.8-3.2c1-0.6,2.3,0.2,3.2,1l0.2-0.4         c-0.2-2.2-0.3-4.4-0.2-6.7l0,2.8"/>
							<path class="st11" d="M68.3,265.6c1.1,0.5,2.5,0.4,3.6,0"/>
							<g>
								<ellipse class="st8" cx="64.7" cy="260.7" rx="0.7" ry="2"/>
								<ellipse class="st8" cx="74.7" cy="260.7" rx="0.7" ry="2"/>
							</g>
						</g>
						<g>
							<path class="st10" d="M67.4,272.9c0.9,1.3,1.8,2.7,2.5,4.1c0.1,0.2,0.3,0.5,0.2,0.8c0,0.2-0.2,0.4-0.4,0.6         c-0.7,0.8-1.4,1.6-2.2,2.3c-0.1,0.1-0.1,0.1-0.2,0.2c-0.2,0-0.3-0.1-0.4-0.3c-1.2-1.9-1.2-4.1-1.2-6.3c0-0.5,0-1,0.3-1.4         C66.3,272.6,67,272.5,67.4,272.9"/>
							<path class="st10" d="M72.8,272.9c-0.9,1.3-1.8,2.7-2.5,4.1c-0.1,0.2-0.3,0.5-0.2,0.8c0,0.2,0.2,0.4,0.4,0.6         c0.7,0.8,1.4,1.6,2.2,2.3c0.1,0.1,0.1,0.1,0.2,0.2c0.2,0,0.3-0.1,0.4-0.3c1.2-1.9,1.2-4.1,1.2-6.3c0-0.5,0-1-0.3-1.4         C73.9,272.6,73.2,272.5,72.8,272.9"/>
						</g>
						<path class="st12" d="M63.5,256.8c0-1.1,0-2.2,0-3.2"/>
						<path class="st12" d="M67.9,256.8c0-1.1,0-2.2,0-3.2"/>
						<path class="st12" d="M72.4,256.8c0-1.1,0-2.2,0-3.2"/>
						<path class="st12" d="M76.8,256.8c0-1.1,0-2.2,0-3.2"/>
					</g>
				</g>
				<g>
					<rect x="84.4" y="273.9" class="st16" width="38.6" height="2.1"/>
					<g>
						<rect x="87.4" y="275.3" class="st15" width="3.2" height="12.4"/>
						<rect x="116.9" y="275.3" class="st15" width="3.2" height="12.4"/>
					</g>
				</g>
				<g>
					<g>
						<g>
							<path class="st3" d="M196.8,280.5c0.4,0.3,0.4,0.8,0,1.1l-8,5.7c-0.4,0.2-0.7,0-0.5-0.5l3.1-9.3c0.2-0.5,0.6-0.6,1-0.3         L196.8,280.5z"/>
							<path class="st17" d="M196.8,280.5c0.4,0.3,0.4,0.8,0,1.1l-8,5.7c-0.4,0.2-0.7,0-0.5-0.5l3.1-9.3c0.2-0.5,0.6-0.6,1-0.3         L196.8,280.5z"/>
						</g>
						<path class="st3" d="M224.2,245.4c-2.5,3.3-4.9,6.5-7.3,9.7c-0.7,0.9-1.4,1.9-2.1,2.8c-0.6,0.8-1.3,1.2-2.3,0.4        c-1.1-0.9-2.3-1.8-3.5-2.6c-1.1-0.7-0.9-1.5-0.3-2.4c2.3-3,4.5-6.1,6.8-9.1c1.6-2.2,3.3-4.4,4.9-6.6c1.3-1.7,2.9-2.1,4.5-1.1        c2.6,1.7,3,3,2,5.2c-0.3,0.7-0.4,1.7-0.1,2.4c1.2,2.7,0.5,4.9-1.3,7.2c-1.9,2.4-3.4,5.1-5.1,7.5c-0.4,0.6-1.5,1.1-2.1,1        c-0.8-0.1-1.8-0.7-2.3-1.4c-0.6-0.7,0.2-2,1.5-2.1c1.4-0.2,2.2-1,2.9-2.1c1.2-1.9,2.5-3.8,3.8-5.6        C225,247.4,224.9,246.6,224.2,245.4z"/>
						<path class="st18" d="M208.2,254.4c2,1.4,3.8,2.8,5.7,4.2c-5.6,7.6-11,15.1-16.6,22.8c-2-1.4-3.8-2.7-5.7-4.1        C197.2,269.5,202.7,262,208.2,254.4z"/>
					</g>
					<rect x="183.8" y="287.9" class="st19" width="50.1" height="0.7"/>
				</g>
				<g>
					<path class="st3" d="M177.3,266.4h-5v5h-2v-5h-5v-2h5v-5h2v5h5V266.4z"/>
				</g>
			</g>
			<g>
				<path class="st3" d="M97.4,300.3h-3.7c-0.4,0.5-0.9,1-1.5,1.5l-0.9-0.8c1-0.8,1.8-1.7,2.4-2.8l1.2,0.4c-0.1,0.2-0.2,0.4-0.4,0.6      h2.9V300.3z M103.5,305.8c0,0.6-0.1,1.4-0.2,2.2c-0.1,0.8-0.3,1.3-0.5,1.5c-0.2,0.2-0.4,0.3-0.6,0.4c-0.2,0.1-0.7,0.1-1.4,0.1      c-0.3,0-0.6,0-0.8,0l-0.4-1.2c0.4,0,0.7,0,1.2,0c0.6,0,0.9,0,1-0.1c0.1-0.1,0.2-0.2,0.3-0.5c0.1-0.2,0.1-0.7,0.2-1.3h-3.9v3.7      H97v-3.2c-1.2,1.3-2.9,2.3-5.1,3l-0.6-1.1c1.9-0.5,3.4-1.3,4.6-2.4h-4l0.7-3H97v-0.8h-5.2V302h11.1v3.1h-4.7v0.8H103.5z       M97,305.8V305h-3.3l-0.2,0.8H97z M96.5,301.4l-1.2,0.3c-0.1-0.2-0.3-0.5-0.6-0.9l1.2-0.3C96.1,300.8,96.3,301.1,96.5,301.4z       M103.8,300.3h-4.3c-0.5,0.6-0.9,1.1-1.5,1.5l-1-0.7c0.9-0.6,1.6-1.6,2.3-2.9l1.2,0.3c-0.1,0.1-0.2,0.4-0.4,0.6h3.5V300.3z       M101.7,303.9v-0.8h-3.4v0.8H101.7z M102.1,301.5l-1.2,0.2c-0.2-0.4-0.4-0.7-0.6-0.9l1.3-0.3C101.8,300.8,102,301.2,102.1,301.5      z"/>
				<path class="st3" d="M117.9,310.2h-12.3v-1.2h12.3V310.2z M117,300.1h-10.4v-1.2H117V300.1z"/>
				<path class="st3" d="M124.4,306.4h-4.6v-1.2h4.6V306.4z M124,301.3h-3.9v-1.2h3.9V301.3z M132.2,309.7l-0.8,1.1      c-2-1.2-3.4-2.8-4.1-4.6c-0.7,1.9-2.2,3.4-4.4,4.6l-0.9-1c1.8-1,3.1-2,3.7-2.9s0.9-2.3,0.9-3.9c0-0.3,0-0.6,0-0.9h1.2      c0,0.3,0,0.5,0,0.7c0,1.2,0.2,2.1,0.5,2.9c0.3,0.8,0.8,1.6,1.6,2.3C130.7,308.8,131.4,309.3,132.2,309.7z M131.9,300.2      c-0.3,2.1-0.9,3.7-1.7,5l-1.1-0.6c0.6-0.9,1-2,1.3-3.1h-4.5c-0.6,1.2-1.2,2.2-1.8,2.8l-1-0.8c1.1-1.3,2-3,2.7-5.2l1.2,0.2      c-0.2,0.5-0.4,1.1-0.6,1.7H131.9z"/>
				<path class="st3" d="M146.3,299.8h-5.4c-0.2,0.4-0.4,0.9-0.7,1.4h5.3v9.4h-1.2V310H136v0.6h-1.2v-9.4h3.9      c0.3-0.4,0.5-0.9,0.7-1.4h-5.5v-1.2h12.3V299.8z M137.5,308.9v-6.5H136v6.5H137.5z M141.5,303.8v-1.4h-2.8v1.4H141.5z       M141.5,306.3v-1.4h-2.8v1.4H141.5z M141.5,308.9v-1.5h-2.8v1.5H141.5z M144.2,308.9v-6.5h-1.5v6.5H144.2z"/>
				<path class="st3" d="M152.6,300.7H148v-1.1h1.7c-0.1-0.2-0.2-0.6-0.5-1l1.3-0.3c0.2,0.4,0.4,0.9,0.6,1.3h1.5V300.7z       M152.3,302.9h-4v-1.1h4V302.9z M152.3,304.9h-4v-1.1h4V304.9z M152.3,310.5h-1.3v-0.7h-1.4v0.9h-1.3v-4.9h3.9V310.5z       M151.1,308.7V307h-1.4v1.7H151.1z M156.9,308.5c-1.4,0.7-2.8,1.2-4,1.5l-0.2-1.2c0.5-0.1,0.9-0.3,1.4-0.4v-4h-1.2v-1.1h3.6v1.1      h-1.1v3.5c0.3-0.1,0.8-0.3,1.5-0.7L156.9,308.5z M160.5,307.9c-0.1,0.9-0.2,1.6-0.5,2.1c-0.2,0.5-0.6,0.8-1,0.8      c-0.8,0-1.3-0.8-1.6-2.3s-0.5-3.7-0.5-6.6h-4v-1.2h3.9l0-2.4h1.2c0,1.1,0,1.9,0,2.4h2.3v1.2h-2.2c0.1,2.7,0.3,4.7,0.5,5.8      c0.2,1.1,0.4,1.7,0.5,1.7c0,0,0.1-0.2,0.2-0.5c0.1-0.3,0.2-0.8,0.2-1.6L160.5,307.9z M160.2,299.8l-0.9,0.6      c-0.3-0.4-0.6-0.8-1.1-1.4l0.9-0.6C159.5,298.9,159.9,299.3,160.2,299.8z"/>
				<path class="st3" d="M170.1,306.1h-3v3h-1.2v-3h-3v-1.2h3v-3h1.2v3h3V306.1z"/>
				<path class="st3" d="M178.8,300.2h-3.7c-0.5,0.6-0.9,1.1-1.4,1.5l-1-0.8c0.9-0.7,1.6-1.6,2.2-2.7l1.2,0.3      c-0.1,0.2-0.2,0.5-0.4,0.7h3V300.2z M185.1,309.1h-5.6v1.6h-1.3v-1.6h-5.5v-1h5.5v-0.7h-5v-1h5v-0.6h-4.4v-0.9h4.4v-0.6h-5.5      v-0.9h5.5v-0.6h-4.4v-1h4.4v-0.7h1.3v0.7h4.3v1.5h1.3v0.9h-1.3v1.5h-4.3v0.6h5.1v1h-5.1v0.7h5.6V309.1z M177.5,301.4l-1.2,0.3      c-0.3-0.5-0.5-0.8-0.7-1l1.3-0.2C177.1,300.8,177.4,301.1,177.5,301.4z M185.1,300.2h-4.3c-0.3,0.4-0.6,0.7-0.9,1l-1-0.7      c0.7-0.6,1.2-1.4,1.7-2.4l1.2,0.4c0,0.1-0.1,0.3-0.3,0.6h3.6V300.2z M182.6,303.4v-0.6h-3.1v0.6H182.6z M182.6,304.9v-0.6h-3.1      v0.6H182.6z M183.4,301.4l-1.3,0.3c-0.2-0.3-0.4-0.7-0.7-1l1.3-0.2C183,300.7,183.2,301,183.4,301.4z"/>
				<path class="st3" d="M191.4,300.7h-4.6v-1.1h1.7c-0.1-0.2-0.2-0.6-0.5-1l1.3-0.3c0.2,0.4,0.4,0.9,0.6,1.3h1.5V300.7z       M191.2,302.9h-4v-1.1h4V302.9z M191.2,304.9h-4v-1.1h4V304.9z M191.2,310.5h-1.3v-0.7h-1.4v0.9h-1.3v-4.9h3.9V310.5z       M189.9,308.7V307h-1.4v1.7H189.9z M195.7,308.5c-1.4,0.7-2.8,1.2-4,1.5l-0.2-1.2c0.5-0.1,0.9-0.3,1.4-0.4v-4h-1.2v-1.1h3.6v1.1      h-1.1v3.5c0.3-0.1,0.8-0.3,1.5-0.7L195.7,308.5z M199.4,307.9c-0.1,0.9-0.2,1.6-0.5,2.1c-0.2,0.5-0.6,0.8-1,0.8      c-0.8,0-1.3-0.8-1.6-2.3s-0.5-3.7-0.5-6.6h-4v-1.2h3.9l0-2.4h1.2c0,1.1,0,1.9,0,2.4h2.3v1.2H197c0.1,2.7,0.3,4.7,0.5,5.8      c0.2,1.1,0.4,1.7,0.5,1.7c0,0,0.1-0.2,0.2-0.5c0.1-0.3,0.2-0.8,0.2-1.6L199.4,307.9z M199.1,299.8l-0.9,0.6      c-0.3-0.4-0.6-0.8-1.1-1.4l0.9-0.6C198.4,298.9,198.8,299.3,199.1,299.8z"/>
			</g>
		</g>
		<g>
			<rect x="90.6" y="314.9" class="st3" width="109.3" height="62.8"/>
			<pattern id="SVGID_1_" xlink:href="#_x35__勗寞 潛" patternTransform="matrix(0.3042 0 0 0.3107 -5080.2393 -5256.7061)">
			</pattern>
			<rect x="90.6" y="314.9" class="st20" width="109.3" height="61.8"/>
			<g>
				<path class="st7" d="M113.8,326.7h6.5v6.5h-6.5V326.7z"/>
				<path class="st7" d="M133.1,335.1h-1.3v-0.9h-6.7v0.9h-1.3v-12h9.4V335.1z M131.8,327.9v-3.5h-6.7v3.5H131.8z M131.8,333v-3.9      h-6.7v3.9H131.8z"/>
				<path class="st7" d="M142.4,324.6h-3.9c-0.4,0.5-0.9,1-1.4,1.5l-0.9-0.9c0.8-0.7,1.5-1.5,2.1-2.4l1.3,0.4      c-0.1,0.2-0.2,0.4-0.3,0.5h3.1V324.6z M142,333l-0.7,1c-0.4-0.5-0.9-1-1.4-1.4v2.6h-1.2v-2.9c-0.7,1.1-1.4,1.8-1.9,2.2l-0.6-1.1      c1-0.9,1.7-1.7,2.1-2.5h-2v-1h2.3v-0.7h-2.1v-1h2.1v-0.7c-0.6,0.1-1.2,0.1-2,0.1l-0.3-1c1,0,1.8-0.1,2.3-0.1v-0.8h1.2v0.7      c0.7-0.1,1.3-0.2,1.6-0.3l0.3,1c-0.7,0.2-1.3,0.3-1.9,0.3v0.9h1.6v1h-1.6v0.7h1.9v1h-1.9v0.3C140.7,331.8,141.4,332.4,142,333z       M141.5,325.5l-1.2,0.3c-0.2-0.3-0.4-0.6-0.6-0.9l1.2-0.3C141.1,325,141.3,325.3,141.5,325.5z M148.8,324.6h-4.5      c-0.5,0.6-1,1.1-1.6,1.5l-0.8-0.9c1-0.8,1.8-1.6,2.4-2.5l1.2,0.4l-0.3,0.5h3.7V324.6z M148.7,329.6h-6.8v-1h1.4v-1h-1.2v-1.1      h1.2v-0.9h1.2v0.9h1.6v-0.9h1.2v0.9h1.1v1.1h-1.1v1h1.4V329.6z M148.2,335.2H147v-0.5h-3.5v0.5h-1.2v-5h5.9V335.2z M147,331.9      v-0.7h-3.5v0.7H147z M147,333.7v-0.8h-3.5v0.8H147z M146.1,328.6v-1h-1.6v1H146.1z M146.2,325.5l-1.2,0.3l-0.5-0.8l1.2-0.3      C145.8,324.9,146,325.2,146.2,325.5z"/>
				<path class="st7" d="M162.9,334.8h-12.3v-1.2h5.5v-3h-4.3v-1.2h4.3v-3h-5v-1.2h5.2c-0.2-0.6-0.5-1.3-0.9-2.1l1.3-0.3      c0.4,0.8,0.7,1.6,1,2.4h4.7v1.2h-5v3h4.3v1.2h-4.3v3h5.5V334.8z"/>
				<path class="st7" d="M170.7,324.7H167c-0.4,0.5-1,1-1.6,1.5l-0.8-1c1.1-0.7,1.8-1.5,2.1-2.4l1.3,0.3c-0.1,0.2-0.2,0.4-0.3,0.6h3      V324.7z M176.7,328.9h-1.2v-1.4h-9.2v1.4H165v-2.4h5.1c-0.1-0.1-0.2-0.3-0.3-0.6l1.4-0.2c0.1,0.2,0.3,0.5,0.5,0.9h5V328.9z       M175.4,334.6h-7.5v0.6h-1.2v-6.9h8.3v2.7h-7v0.8h7.5V334.6z M169.4,325.9l-1.4,0.3c-0.1-0.3-0.3-0.6-0.6-1l1.3-0.3      C169,325.1,169.2,325.4,169.4,325.9z M173.7,330v-0.8h-5.8v0.8H173.7z M174.1,333.6v-1h-6.2v1H174.1z M177,324.7h-4.4      c-0.2,0.3-0.5,0.7-0.8,1l-1.1-0.6c0.8-0.8,1.3-1.6,1.7-2.4l1.3,0.4c-0.1,0.2-0.2,0.4-0.3,0.6h3.7V324.7z M175.1,326l-1.4,0.2      c-0.1-0.3-0.3-0.7-0.5-1.1l1.4-0.2C174.8,325.3,175,325.6,175.1,326z"/>
				<path class="st7" d="M113.8,343.7h6.5v6.5h-6.5V343.7z"/>
				<path class="st7" d="M128.7,344.2l-0.6,1c-0.7-0.4-1.4-0.8-2-1v1.2h1.9v5.4h-1.1v-0.5h-2.8v0.6H123v-5.1      c-0.2,0.1-0.3,0.2-0.4,0.3l-0.6-1.1c1-0.6,1.8-1.2,2.4-1.9h-2.1V342h2.6v-1.9c-0.9,0.1-1.6,0.1-2.1,0.1l-0.4-1      c2,0,3.7-0.3,5-0.7l0.7,0.9c-0.5,0.2-1.2,0.3-2,0.5v2.1h2.1v1.1h-2.1C127.1,343.4,128,343.8,128.7,344.2z M124.5,341.4l-1,0.4      c-0.3-0.4-0.5-0.8-0.7-1.1l1-0.4C124.1,340.6,124.3,341,124.5,341.4z M125,345.3v-1.3c-0.4,0.5-0.8,0.9-1.2,1.3H125z M125,347.3      v-1h-0.9v1H125z M125,349.2v-0.9h-0.9v0.9H125z M126.9,347.3v-1h-0.8v1H126.9z M126.9,349.3v-0.9h-0.8v0.9H126.9z M128.1,340.5      c-0.3,0.6-0.5,1-0.8,1.4l-0.9-0.5c0.2-0.4,0.5-0.8,0.8-1.4L128.1,340.5z M129.8,345c-0.2,1.5-0.4,2.7-0.7,3.5l-1-0.5      c0.3-1,0.5-2.2,0.7-3.5L129.8,345z M131.1,349.8c0,0.4-0.1,0.7-0.3,0.9c-0.2,0.2-0.5,0.3-0.9,0.3c-0.3,0-0.7,0-1.2,0l-0.3-1.1      l1.3,0c0.2,0,0.3-0.1,0.3-0.3v-9.4h-1.8V339h2.8V349.8z M129.9,343.7l-1,0.4c-0.1-0.9-0.3-1.7-0.5-2.6l1-0.3      C129.6,342.1,129.8,342.9,129.9,343.7z M133,345.1c-0.3,1.5-0.6,2.6-0.9,3.4l-0.9-0.6c0.3-0.8,0.6-1.9,0.8-3.2L133,345.1z       M133.1,343.6l-1,0.4c-0.2-1.1-0.5-2-0.8-2.6l1-0.4C132.6,341.8,132.9,342.6,133.1,343.6z M134.3,349.8c0,0.3-0.1,0.6-0.4,0.8      c-0.3,0.3-0.9,0.4-2,0.4l-0.4-1.2h1.3c0.1,0,0.1,0,0.2-0.1s0.1-0.2,0.1-0.3v-9.3h-1.7V339h2.8V349.8z"/>
				<path class="st7" d="M140.8,341h-4.4v-1.1h1.7c0-0.1-0.1-0.5-0.4-1.2l1.2-0.2c0.1,0.2,0.2,0.4,0.3,0.8c0.1,0.3,0.2,0.6,0.2,0.7      h1.4V341z M140.6,343h-3.8v-1.2h3.8V343z M140.6,345.1h-3.8l0-1.2h3.8V345.1z M140.5,350.7h-1.2v-0.6H138v0.8h-1.2v-4.8h3.7      V350.7z M139.2,348.9v-1.6H138v1.6H139.2z M148.7,345.4h-1.4c-0.1,0.2-0.2,0.6-0.4,1h1.5v1h-3v0.9h3.3v1h-3.3v1.6h-1.2v-1.6      h-3.3v-1h3.3v-0.9h-2.9v-1h1.7c-0.1-0.4-0.2-0.7-0.4-1H141v-1.1h3.3v-0.8h-2.9v-1h2.9v-0.6h-3v-3.1h7.2v3.1h-3v0.6h3v1h-3v0.8      h3.3V345.4z M143.3,340.9v-1.1h-0.9v1.1H143.3z M146.1,345.4H144c0.1,0.4,0.3,0.7,0.4,1h1.3C145.8,346.1,146,345.7,146.1,345.4z       M145.3,340.9v-1.1h-0.9v1.1H145.3z M147.3,340.9v-1.1h-0.9v1.1H147.3z"/>
				<path class="st7" d="M153.7,343c0.8,1.1,1.1,2.1,1.1,3.1c0,0.6-0.1,1-0.3,1.3c-0.2,0.3-0.4,0.5-0.7,0.6s-0.7,0.1-1.3,0.1      l-0.3-1.3c0.1,0,0.3,0,0.5,0c0.3,0,0.6,0,0.7-0.1c0.1-0.1,0.2-0.3,0.2-0.6c0-0.4-0.1-0.9-0.4-1.5c-0.2-0.6-0.5-1-0.9-1.4      c0.4-1,0.8-2,1.1-3h-1.5V351h-1.2v-12.1h4v1.2C154.4,341.2,154.1,342.2,153.7,343z M162.9,344.6h-8v-1.2h1.9      c-0.3-0.8-0.5-1.4-0.8-1.9l0.8-0.6h-1.5v-1.2h2.8c-0.2-0.3-0.3-0.7-0.6-1l1.3-0.4c0.3,0.5,0.5,1,0.7,1.4h3.1v1.2h-1.8l0.8,0.6      c-0.2,0.7-0.5,1.3-0.8,1.9h2V344.6z M162.1,351h-1.3v-0.6H157v0.6h-1.3v-5.3h6.4V351z M160.8,349.2v-2.3H157v2.3H160.8z       M160.6,341h-3.5c0.2,0.5,0.5,1.3,0.9,2.5h1.6C160.1,342.4,160.4,341.6,160.6,341z"/>
				<path class="st7" d="M176.6,349.8c0,0.3-0.1,0.6-0.3,0.8c-0.2,0.2-0.5,0.3-0.8,0.4c-0.4,0-0.8,0.1-1.3,0.1c-0.3,0-0.7,0-1.1,0      l-0.4-1.3c0.3,0,0.6,0,1,0c0.8,0,1.3,0,1.4-0.1c0.1-0.1,0.2-0.2,0.2-0.3v-9.2h-8.8v10.8h-1.2v-12h11.3V349.8z M174.5,342.5h-7.2      v-1.2h7.2V342.5z M173.7,348.3H168v-4.5h5.7V348.3z M172.5,347.1V345h-3.2v2.2H172.5z"/>
				<path class="st7" d="M113.8,360.7h6.5v6.5h-6.5V360.7z"/>
				<path class="st7" d="M123.7,358.8c-0.1,1.3-0.2,2.5-0.5,3.5l-1-0.5c0.2-1.1,0.4-2.2,0.4-3.3L123.7,358.8z M126.6,359.7l-0.7,1      c-0.2-0.3-0.4-0.6-0.6-0.9v8.2h-1.2l0-12.4l0,0l1.2,0v2.6C125.7,358.6,126.2,359.1,126.6,359.7z M134.6,367.7h-8.1v-1.2h3.6v-3      h-2.9v-1.2h2.9v-2.6h-1.7c-0.4,0.9-0.7,1.6-1.1,2.1l-1.1-0.6c0.8-1.2,1.4-2.8,1.8-4.8l1.2,0.2c-0.1,0.4-0.2,1-0.4,1.8h1.3v-2.9      h1.3v2.9h2.9v1.2h-2.9v2.6h2.6v1.2h-2.6v3h3.3V367.7z"/>
				<path class="st7" d="M148.1,366.7c0,0.3-0.1,0.6-0.3,0.8c-0.2,0.2-0.5,0.3-0.8,0.3l-2.3,0l-0.5-1.2c0.7,0,1.4,0,2.2,0      c0.3,0,0.4-0.1,0.4-0.4v-7.7h-8.7v9.4h-1.3v-10.6h2.7c0.4-0.7,0.8-1.3,1.1-1.9l1.3,0.2c-0.2,0.6-0.5,1.1-0.9,1.6h7V366.7z       M145.4,365.3h-5.7v-5.2h5.7V365.3z M144.1,364.1v-2.8H141v2.8H144.1z"/>
				<path class="st7" d="M153.3,363.3c-0.4,1.5-1,3-1.8,4.7l-1.1-0.8c0.7-1.5,1.3-3.1,1.7-4.7L153.3,363.3z M153.5,360.8l-0.8,1      c-0.5-0.5-1.2-1.1-2.2-1.7l0.8-1C152.1,359.6,152.8,360.2,153.5,360.8z M153.6,357.5l-0.8,1c-0.6-0.7-1.2-1.4-2-2l0.9-1      C152.2,356,152.9,356.7,153.6,357.5z M158.3,364.6h-3.2l0.9,0.5c-0.6,1.1-1.2,2.1-1.9,2.9l-1-0.7c0.8-0.9,1.4-1.8,1.9-2.7h-1      v-8.7h4.4V364.6z M157.1,358.5v-1.4h-2v1.4H157.1z M157.1,361v-1.4h-2v1.4H157.1z M157.1,363.5v-1.4h-2v1.4H157.1z M158.7,367.3      l-1.1,0.5c-0.2-0.6-0.6-1.4-1.2-2.3l1.1-0.6C158,365.7,158.4,366.5,158.7,367.3z M160.4,365.3h-1.2v-8.8h1.2V365.3z       M162.6,366.5c0,0.6-0.2,0.9-0.5,1.1s-0.8,0.3-1.5,0.3c-0.2,0-0.5,0-0.9,0l-0.3-1.2c1,0,1.6,0,1.8,0c0.2-0.1,0.2-0.2,0.2-0.4      v-10.8h1.2V366.5z"/>
				<path class="st7" d="M165.6,363.4c0,1.2-0.1,2.3-0.4,3.5l-0.6-0.2c0.2-1.1,0.4-2.2,0.4-3.4L165.6,363.4z M169.7,356.9h-1.4v0.9      h1v1h-1v0.9h1v1h-1v1h1.2c0,3-0.1,4.8-0.3,5.4c-0.2,0.5-0.7,0.8-1.5,0.8c-0.1,0-0.3,0-0.5,0l-0.4-1.1l1.2,0      c0.1,0,0.2-0.1,0.3-0.2c0.1-0.1,0.1-1.4,0.2-3.7h-3.3v-7h4.5V356.9z M166.5,366.5l-0.6,0.1c0-0.4,0-0.9,0-1.4      c0-0.6,0-1.2-0.1-1.8l0.6-0.1c0.1,0.7,0.1,1.5,0.1,2.2C166.5,366,166.5,366.3,166.5,366.5z M167.2,357.8v-0.9h-0.9v0.9H167.2z       M167.2,359.7v-0.9h-0.9v0.9H167.2z M167.2,361.7v-1h-0.9v1H167.2z M167.4,366l-0.6,0.1c0-1-0.1-1.9-0.2-2.7l0.5-0.1      C167.3,364.1,167.4,364.9,167.4,366z M168.2,365.5l-0.5,0.2c0-0.7-0.1-1.5-0.3-2.3l0.5-0.1C168.1,363.8,168.2,364.6,168.2,365.5      z M173.2,366.3l-0.8,0.9c-0.3-0.4-0.6-0.6-0.8-0.8c-0.3,0.6-0.7,1.2-1.1,1.7l-1.1-0.7c0.7-0.8,1.3-1.9,1.8-3.2l1.2,0.3      c-0.1,0.3-0.2,0.6-0.3,0.9C172.5,365.6,172.9,365.9,173.2,366.3z M177.2,358.7l-0.6,1.1c-0.6-0.3-1.1-0.7-1.5-1v0.7h-3.8v-0.7      c-0.6,0.5-1,0.8-1.3,1l-0.6-1.2c1.6-1,2.8-2.1,3.4-3.2l1.3,0.3c-0.1,0.1-0.1,0.2-0.2,0.3C174.7,356.9,175.8,357.8,177.2,358.7z       M172.9,363.8h-2.8v-3.6h2.8V363.8z M171.9,362.7v-1.5h-0.9v1.5H171.9z M174.7,358.5c-0.5-0.4-1-0.9-1.4-1.5      c-0.4,0.5-0.9,1-1.5,1.5H174.7z M177.1,367l-0.9,0.9c-0.4-0.5-0.8-0.9-1.4-1.4c-0.3,0.5-0.6,1-1,1.5l-1.1-0.6      c0.8-0.9,1.4-2,1.9-3.3l1.2,0.2c-0.1,0.3-0.2,0.7-0.4,1.1C176.1,365.9,176.7,366.5,177.1,367z M176.4,363.8h-2.9v-3.6h2.9V363.8      z M175.4,362.7v-1.5h-0.8v1.5H175.4z"/>
			</g>
		</g>
	</g>
	<line class="st21" x1="1.8" y1="68.9" x2="284.8" y2="68.9"/>
	<g>
		<path class="st3" d="M149.8,81.4l-0.7,1.1c-2.2-1-4.1-2.2-5.6-3.5c-1.4,1.1-3.2,2.3-5.4,3.4l-0.8-1c2.7-1.2,4.7-2.6,6-4l1.3,0.5    c-0.1,0.1-0.2,0.2-0.2,0.3C145.6,79.3,147.5,80.4,149.8,81.4z M148,89.9h-1.3v-0.7h-6.6v0.7h-1.3v-5.7h9.3V89.9z M146.7,87.9v-2.6    h-6.6v2.6H146.7z M146.7,82.7h-6.5v-1.2h6.5V82.7z"/>
		<path class="st3" d="M141.8,97.2l-0.8,0.9c-0.1-0.2-0.2-0.5-0.5-0.9v6.8h-1.2v-6c-0.5,1.1-0.9,1.9-1.4,2.4l-0.6-1.2    c0.8-1,1.5-2.2,2-3.8h-1.9v-1.2h1.9v-2.5h1.2v2.5h1.2v1.2h-1.2v0.1C141,96.1,141.5,96.7,141.8,97.2z M149.6,97.4l-0.6,1.1    c-1.4-0.4-2.4-1-3.3-1.6c-1,0.6-2.1,1.2-3.2,1.6l-0.7-1.1c1.2-0.4,2.2-0.8,2.9-1.3c-0.5-0.5-0.9-1-1.1-1.4    c-0.4,0.4-0.8,0.6-0.9,0.7l-0.8-0.9c1-0.7,1.9-1.7,2.7-3l1.2,0.3c0,0.1-0.2,0.3-0.4,0.7h3.3v1.2c-0.5,0.9-1.2,1.7-2,2.4    C147.5,96.7,148.5,97.1,149.6,97.4z M148.7,104h-1.3v-0.5H144v0.5h-1.3v-5.2h6V104z M147.4,102.3V100H144v2.3H147.4z M147.3,93.8    h-2.7l-0.1,0.1c0.4,0.6,0.8,1.2,1.3,1.6C146.4,95,146.9,94.4,147.3,93.8z"/>
	</g>
	<g>
		<circle class="st4" cx="67.8" cy="67.8" r="67.1"/>
		<g>
			<path class="st3" d="M34.4,105.2h-6.3v-1.4h2.3v-7.7l-2.4,0.6v-1.4l4-1.1v9.6h2.3V105.2z"/>
			<path class="st3" d="M35.8,100.1c0-1.9,0.3-3.3,1-4.3c0.6-1,1.6-1.5,2.8-1.5c2.3,0,3.5,1.8,3.5,5.5c0,1.8-0.3,3.2-1,4.1     c-0.6,1-1.6,1.5-2.8,1.5c-1.2,0-2-0.5-2.6-1.4C36.1,103.1,35.8,101.8,35.8,100.1z M37.5,100c0,2.7,0.7,4.1,2,4.1     c1.3,0,2-1.4,2-4.2c0-2.9-0.6-4.3-1.9-4.3C38.2,95.6,37.5,97.1,37.5,100z"/>
			<path class="st3" d="M51.6,102.6h-1.3v2.6h-1.5v-2.6h-4.9v-1l4.7-7h1.8v6.8h1.3V102.6z M48.7,101.3v-4.2c0-0.3,0-0.7,0-1.1h0     c-0.1,0.3-0.3,0.6-0.4,0.8l-2.9,4.4H48.7z"/>
			<path class="st3" d="M57.7,97h-1.5v2.4c0.3-0.1,0.8-0.3,1.3-0.5l0.1,1.3c-0.5,0.2-1,0.4-1.4,0.6v3.9c0,0.3-0.1,0.6-0.2,0.8     c-0.1,0.2-0.3,0.3-0.5,0.4c-0.2,0.1-0.5,0.1-0.9,0.1c-0.2,0-0.5,0-0.9,0l-0.4-1.2l1.5,0c0.2,0,0.2-0.1,0.2-0.2v-3.2     c-0.7,0.2-1.3,0.4-1.6,0.5l-0.4-1.2c0.8-0.2,1.5-0.4,2-0.6V97h-1.9v-1.2h1.9v-2.3h1.2v2.3h1.5V97z M65.6,104.8l-0.6,1.1     c-1.3-0.4-2.5-0.9-3.5-1.6c-1,0.7-2.3,1.2-3.8,1.6l-0.7-1.1c1.3-0.2,2.5-0.7,3.5-1.3c-0.8-0.6-1.4-1.6-1.8-2.9h-0.5v-1.2h6.4v1.1     c-0.6,1.2-1.2,2.2-2.1,3C63.1,103.9,64.2,104.4,65.6,104.8z M65.4,98.6h-1.7c-0.8,0-1.1-0.4-1.1-1.2v-2.5h-2.2     c0.1,1.9-0.6,3.2-1.9,3.9l-0.9-0.9c0.6-0.3,1-0.7,1.2-1.1c0.2-0.4,0.4-0.9,0.4-1.6v-1.5h4.7v3.5c0,0.1,0.1,0.2,0.2,0.2h1.4V98.6z      M63.1,100.6h-3.2c0.4,1,0.9,1.8,1.6,2.2C62.1,102.2,62.6,101.5,63.1,100.6z"/>
			<path class="st3" d="M79.7,104.7l-0.4,1.1c-0.9,0-1.9,0-3,0c-2.1,0-3.4,0-4-0.1s-1.1-0.2-1.7-0.5c-0.5-0.2-1-0.5-1.4-0.9     c-0.5,0.7-0.9,1.3-1.4,1.8l-0.8-0.9c1.1-1.1,1.8-2.4,2.1-3.9h-1.8v-1.1c0.5-0.7,1-1.5,1.5-2.5h-1.6v-1.2h3.1v1     c-0.3,0.8-0.8,1.6-1.5,2.6h1.5v1.1c-0.2,0.8-0.3,1.5-0.6,2c0.4,0.4,0.9,0.7,1.4,0.9s1,0.3,1.5,0.4c0.5,0.1,1.8,0.1,3.8,0.1     C77.6,104.7,78.6,104.7,79.7,104.7z M70.2,95.3l-1,0.9c-0.5-0.6-1.1-1.2-1.8-1.8l0.9-0.9C69,94,69.6,94.6,70.2,95.3z M79.4,96.8     c-0.1,0.8-0.3,1.6-0.5,2.2l-1.1-0.3c0.1-0.3,0.2-0.6,0.3-0.9h-2v0.7l1.5-0.1l0.1,0.9l-1.6,0.1v0.4c0,0.1,0.1,0.2,0.2,0.2h2.4v0.9     h-2.9c-0.2,0-0.4-0.1-0.6-0.3S75,100.2,75,100v-0.5l-1.1,0.1c0,2-0.3,3.6-1,4.8l-1-0.6c0.6-1,0.8-2.2,0.8-3.6v-3.3h2.1V95     c-0.8,0.1-1.8,0.2-2.7,0.2V99c0,2-0.3,3.7-1,5l-1-0.8c0.6-1.3,0.8-2.7,0.8-4.1v-4.9c3.1-0.1,5.5-0.3,7.3-0.8l0.6,1.1     c-0.8,0.2-1.8,0.3-2.8,0.4v0.4h2.8v0.9h-2.8v0.5H79.4z M75.9,101.4c0,1.5-0.5,2.5-1.3,3.1l-0.8-0.7c0.8-0.5,1.1-1.3,1.1-2.4H75.9     z M75,98.6v-0.7h-1.1v0.8L75,98.6z M79.5,102.5c0,0.6-0.1,1.1-0.4,1.3s-0.6,0.3-1.2,0.3c-0.5,0-0.8-0.1-1-0.2s-0.3-0.3-0.3-0.7     v-1.9h1.1v1.5c0,0.2,0.1,0.3,0.3,0.3c0.3,0,0.4-0.3,0.4-1L79.5,102.5z"/>
			<path class="st3" d="M93,96.4h-9.6v3.8c0,2.3-0.4,4.2-1.1,5.8l-1-0.8c0.6-1.2,0.9-3,0.9-5.5v-6H93V96.4z M91.8,95.4v-0.7h-8.4     v0.7H91.8z M86.4,99.7c-0.1,0.2-0.4,0.6-0.8,1v5.3h-1.1v-4.2c-0.1,0.1-0.3,0.2-0.6,0.4l-0.4-1.1c0.8-0.6,1.5-1.3,2.1-2.2     L86.4,99.7z M86.7,97.1c-0.7,0.9-1.6,1.7-2.6,2.2l-0.4-1.1c1-0.6,1.7-1.1,2.2-1.7L86.7,97.1z M93.8,105.1l-0.5,0.9     c-1.1-0.3-2.1-0.6-3.1-1.1c-1.2,0.5-2.4,0.9-3.7,1l-0.4-0.9c1.3-0.2,2.3-0.4,3-0.7c-0.4-0.3-0.8-0.5-1.1-0.8     c-0.5,0.3-0.9,0.6-1.4,0.8l-0.6-0.8c0.5-0.2,0.9-0.5,1.2-0.7c-0.1-0.1-0.2-0.2-0.4-0.4l0.7-0.6c0,0,0.2,0.2,0.4,0.4     c0.2-0.2,0.4-0.4,0.7-0.7h-1.5V99l-0.4,0.3L86,98.5c0.9-0.6,1.6-1.3,2-2l1,0.3C89,97,88.9,97,88.9,97.1h4.6v0.9h-5.3     c-0.1,0.2-0.3,0.3-0.5,0.5H93v3.1h-3.2c-0.1,0.2-0.2,0.4-0.4,0.6h3.7v0.8c-0.4,0.4-1,0.9-1.8,1.3C92,104.6,92.8,104.9,93.8,105.1     z M91.8,99.7v-0.5h-3.4v0.5H91.8z M91.8,100.9v-0.5h-3.4v0.5H91.8z M91.6,103h-2.8c0.6,0.4,1,0.7,1.4,0.9     C90.7,103.6,91.2,103.3,91.6,103z"/>
			<path class="st3" d="M107.8,95H97.5v5.3c0,2.4-0.4,4.3-1.1,5.7l-1-0.9c0.6-1.1,0.8-2.4,0.8-4v-7.3h11.6V95z M107.9,105.7H97.5     v-1.1H99v-2.3h1.2v2.3h2v-2.9h1.2v0.7h3.6v1.1h-3.6v1h4.4V105.7z M102.6,99.5l-0.6,0.9c-0.4-0.4-0.8-0.7-1-0.8v2.3h-1.2v-2.2     c-0.3,0.6-0.7,1.2-1.3,1.9l-0.8-0.9c0.8-0.8,1.3-1.5,1.7-2.3h-1.5v-1h1.9v-0.7c-0.6,0-1.1,0.1-1.5,0.1l-0.4-1     c1.5,0,2.8-0.2,4-0.5l0.5,0.9c-0.5,0.2-1,0.3-1.5,0.3v0.8h1.4v1h-1.4C101.6,98.7,102.1,99.1,102.6,99.5z M108,100.4l-0.7,1     c-0.5-0.7-1.1-1.3-1.7-1.8v2.3h-1.2v-2.2c-0.4,0.7-1,1.3-1.6,1.9l-0.8-0.9c0.9-0.8,1.6-1.5,2-2.2h-1.3v-1h1.7v-0.7     c-0.5,0.1-0.9,0.1-1.4,0.1l-0.4-1c1.5,0,2.9-0.2,4.3-0.5l0.5,0.9c-0.6,0.2-1.2,0.3-1.8,0.4v0.8h2v1h-1.7     C106.7,99,107.4,99.7,108,100.4z"/>
		</g>
		<g>
			<rect x="58.1" y="23.8" class="st18" width="47.4" height="62.6"/>
			<rect x="88.8" y="26.9" class="st22" width="13.1" height="16.9"/>
			<rect x="62.2" y="29.4" class="st23" width="21.8" height="0.7"/>
			<rect x="62.2" y="33.2" class="st23" width="21.8" height="0.7"/>
			<rect x="62.2" y="37" class="st23" width="21.8" height="0.7"/>
			<rect x="62.2" y="40.8" class="st23" width="21.8" height="0.7"/>
			<rect x="62.2" y="47.2" class="st23" width="39.4" height="0.7"/>
			<rect x="62.2" y="50.3" class="st23" width="39.4" height="0.7"/>
			<rect x="62.2" y="53.4" class="st23" width="39.4" height="0.7"/>
			<rect x="62.2" y="56.5" class="st23" width="39.4" height="0.7"/>
			<rect x="62.2" y="59.5" class="st23" width="39.4" height="0.7"/>
			<rect x="62.2" y="62.6" class="st23" width="39.4" height="0.7"/>
			<rect x="62.2" y="65.7" class="st23" width="39.4" height="0.7"/>
			<rect x="62.2" y="68.8" class="st23" width="39.4" height="0.7"/>
			<rect x="62.2" y="71.8" class="st23" width="39.4" height="0.7"/>
			<rect x="62.2" y="74.9" class="st23" width="39.4" height="0.7"/>
			<rect x="62.2" y="78" class="st23" width="39.4" height="0.7"/>
			<rect x="62.2" y="81" class="st23" width="39.4" height="0.7"/>
			<g>
				<ellipse class="st24" cx="95.5" cy="34.2" rx="4.2" ry="4.6"/>
				<path class="st25" d="M99,41.1l-2.3-1.3c0.1,0-0.5-0.1-0.9-0.2v-0.1c0,0-0.1,0-0.2,0c-0.1,0-0.2,0-0.2,0v0.1      c-0.4,0.1-1,0.2-0.9,0.2L92,41.1l-0.2,2.8h3.5h0.4h3.5L99,41.1z"/>
				<g>
					<line class="st26" x1="95.2" y1="40.2" x2="95.2" y2="43.8"/>
					<line class="st26" x1="95.8" y1="40.2" x2="95.8" y2="43.8"/>
				</g>
				<g>
					<path class="st26" d="M98.6,33.6c0,0.7,0,1.3-0.1,2l0,0.1c0.3-0.2,0.7-0.5,1-0.3c0.3,0.2,0.3,0.6,0.3,1c0,0.1,0,0.2-0.1,0.3       c-0.2,0.3-0.6,0.3-0.9,0.2l-0.1,0c-0.3,0.8-0.9,1.4-1.6,1.9c-0.2,0.1-0.3,0.2-0.6,0.3l0,0.1c0,0.2,0,0.5,0,0.7l0,0.2       c-0.5,0.4-1.3,0.4-1.8,0l0.1,0c0-0.2,0-0.5,0-0.7l0-0.1c-0.2-0.1-0.5-0.2-0.7-0.3c-0.8-0.5-1.5-1.2-1.8-2l-0.1,0       c-0.3,0.1-0.8,0.1-0.9-0.2c0-0.1-0.1-0.2-0.1-0.3c0-0.4-0.1-0.8,0.3-1c0.3-0.2,0.7,0.1,1,0.3l0-0.1c-0.1-0.7-0.1-1.3-0.1-2       l0,0.8c1.4-0.2,2.4-0.4,3.2-1.5V33c0.8,1.2,1.7,1.2,3.1,1.4"/>
					<path class="st27" d="M94.3,34.7c0,0.4,0,0.8,0,1.2"/>
					<path class="st27" d="M96.8,34.7c0,0.4,0,0.8,0,1.2"/>
					<path class="st27" d="M95,36.9c0.3,0.1,0.7,0.1,1.1,0"/>
				</g>
				<g>
					<path class="st26" d="M94.7,39.1c0.3,0.4,0.5,0.8,0.8,1.3c0,0.1,0.1,0.2,0.1,0.2c0,0.1-0.1,0.1-0.1,0.2       c-0.2,0.2-0.4,0.5-0.7,0.7c0,0,0,0-0.1,0.1c-0.1,0-0.1,0-0.1-0.1c-0.4-0.6-0.4-1.2-0.4-1.9c0-0.1,0-0.3,0.1-0.4       C94.4,39.1,94.6,39,94.7,39.1"/>
					<path class="st26" d="M96.4,39.1c-0.3,0.4-0.5,0.8-0.8,1.3c0,0.1-0.1,0.2-0.1,0.2c0,0.1,0.1,0.1,0.1,0.2       c0.2,0.2,0.4,0.5,0.7,0.7c0,0,0,0,0.1,0.1c0.1,0,0.1,0,0.1-0.1c0.4-0.6,0.4-1.2,0.4-1.9c0-0.1,0-0.3-0.1-0.4       C96.7,39.1,96.5,39,96.4,39.1"/>
				</g>
				<path class="st28" d="M96.6,30.8"/>
				<path class="st28" d="M97.6,31.2c0.3,0.2,0.5,0.5,0.7,0.8"/>
			</g>
		</g>
		<g>
			<rect x="28" y="23.8" class="st18" width="47.4" height="62.6"/>
			<rect x="58.8" y="26.9" class="st22" width="13.1" height="16.9"/>
			<rect x="32.1" y="29.4" class="st23" width="21.8" height="0.7"/>
			<rect x="32.1" y="33.2" class="st23" width="21.8" height="0.7"/>
			<rect x="32.1" y="37" class="st23" width="21.8" height="0.7"/>
			<rect x="32.1" y="40.8" class="st23" width="21.8" height="0.7"/>
			<rect x="32.1" y="47.2" class="st23" width="39.4" height="0.7"/>
			<rect x="32.1" y="50.3" class="st23" width="39.4" height="0.7"/>
			<rect x="32.1" y="53.4" class="st23" width="39.4" height="0.7"/>
			<rect x="32.1" y="56.5" class="st23" width="39.4" height="0.7"/>
			<rect x="32.1" y="59.5" class="st23" width="39.4" height="0.7"/>
			<rect x="32.1" y="62.6" class="st23" width="39.4" height="0.7"/>
			<rect x="32.1" y="65.7" class="st23" width="39.4" height="0.7"/>
			<rect x="32.1" y="68.8" class="st23" width="39.4" height="0.7"/>
			<rect x="32.1" y="71.8" class="st23" width="39.4" height="0.7"/>
			<rect x="32.1" y="74.9" class="st23" width="39.4" height="0.7"/>
			<rect x="32.1" y="78" class="st23" width="39.4" height="0.7"/>
			<rect x="32.1" y="81" class="st23" width="39.4" height="0.7"/>
			<g>
				<path class="st24" d="M67.3,40.7c0.9,0,1.8,0,2.7,0c0.1,0,0.3,0,0.4-0.1c0.1-0.1,0.1-0.2,0.1-0.3c0.1-0.9,0.2-1.8,0.3-2.6      c0.2-1.9,0.3-3.8-0.3-5.6c-0.5-1.8-2-3-3.6-3.7c-1.6-0.8-3,0-3,0c-1.7,0.3-3,1.9-3.6,3.7s-0.5,3.8-0.3,5.6      c0.1,0.9,0.2,1.8,0.3,2.6c0,0.1,0,0.2,0.1,0.3c0.1,0.1,0.2,0.1,0.4,0.1c0.9,0,1.8,0,2.7,0H67.3z"/>
				<path class="st25" d="M69.5,40.6L66.8,39c0.1,0-0.6-0.1-1.1-0.2v-0.1c0,0-0.1,0-0.2,0c-0.1,0-0.2,0-0.2,0v0.1      C64.7,38.9,64,39,64.1,39l-2.7,1.6l-0.3,3.3h4.1h0.5h4.1L69.5,40.6z"/>
				<g>
					<line class="st26" x1="65.1" y1="39.5" x2="65.1" y2="43.8"/>
					<line class="st26" x1="65.8" y1="39.5" x2="65.8" y2="43.8"/>
				</g>
				<g>
					<path class="st26" d="M69,31.8c0,0.8,0,1.6-0.1,2.4l0,0.1c0.3-0.3,0.8-0.6,1.1-0.4c0.4,0.2,0.4,0.7,0.3,1.1       c0,0.1,0,0.2-0.1,0.3c-0.2,0.4-0.7,0.3-1.1,0.3l-0.1,0c-0.4,0.9-1.1,1.7-1.9,2.2c-0.2,0.2-0.4,0.3-0.6,0.4l0,0.1       c0,0.3,0,0.6,0,0.9l0,0.2c-0.6,0.5-1.5,0.4-2.1-0.1l0.1,0c0-0.3,0-0.6,0-0.9l0-0.1c-0.3-0.1-0.6-0.2-0.8-0.4       c-0.9-0.5-1.7-1.4-2.1-2.4l-0.1,0c-0.4,0.1-0.9,0.1-1.1-0.3c-0.1-0.1-0.1-0.2-0.1-0.3c-0.1-0.4-0.1-0.9,0.3-1.1       c0.4-0.2,0.8,0.1,1.1,0.4l0.1-0.1c-0.1-0.8-0.1-1.6-0.1-2.4l0,1c1.6-0.2,2.8-0.4,3.8-1.8v0.1c0.9,1.3,2,1.4,3.6,1.6"/>
					<path class="st27" d="M64,33.2c0,0.5,0,0.9,0,1.4"/>
					<path class="st27" d="M66.9,33.2c0,0.5,0,0.9,0,1.4"/>
					<path class="st27" d="M64.8,35.8c0.4,0.2,0.9,0.2,1.3,0"/>
				</g>
				<g>
					<path class="st26" d="M64.5,38.3c0.3,0.5,0.6,1,0.9,1.5c0,0.1,0.1,0.2,0.1,0.3c0,0.1-0.1,0.1-0.1,0.2c-0.3,0.3-0.5,0.6-0.8,0.8       c0,0,0,0.1-0.1,0.1c-0.1,0-0.1,0-0.2-0.1c-0.4-0.7-0.4-1.5-0.4-2.2c0-0.2,0-0.3,0.1-0.5C64.1,38.2,64.4,38.2,64.5,38.3"/>
					<path class="st26" d="M66.4,38.3c-0.3,0.5-0.6,1-0.9,1.5c0,0.1-0.1,0.2-0.1,0.3c0,0.1,0.1,0.1,0.1,0.2c0.3,0.3,0.5,0.6,0.8,0.8       c0,0,0,0.1,0.1,0.1c0.1,0,0.1,0,0.2-0.1c0.4-0.7,0.4-1.5,0.4-2.2c0-0.2,0-0.3-0.1-0.5C66.8,38.2,66.5,38.2,66.4,38.3"/>
				</g>
			</g>
		</g>
	</g>
	<g>
		<circle class="st4" cx="219.2" cy="67.8" r="67.1"/>
		<g>
			<path class="st3" d="M190.8,95.6h-3.7c-0.4,0.5-0.9,1-1.5,1.5l-0.9-0.8c1-0.8,1.8-1.7,2.4-2.8l1.2,0.4c-0.1,0.2-0.2,0.4-0.4,0.6     h2.9V95.6z M196.9,101.1c0,0.6-0.1,1.4-0.2,2.2s-0.3,1.3-0.5,1.5c-0.2,0.2-0.4,0.3-0.6,0.4c-0.2,0.1-0.7,0.1-1.4,0.1     c-0.3,0-0.6,0-0.8,0L193,104c0.4,0,0.7,0,1.2,0c0.6,0,0.9,0,1-0.1c0.1-0.1,0.2-0.2,0.3-0.5s0.1-0.7,0.2-1.3h-3.9v3.7h-1.3v-3.2     c-1.2,1.3-2.9,2.3-5.1,3l-0.6-1.1c1.9-0.5,3.4-1.3,4.6-2.4h-4l0.7-3h4.4v-0.8h-5.2v-1.1h11.1v3.1h-4.7v0.8H196.9z M190.4,101.1     v-0.8H187l-0.2,0.8H190.4z M189.8,96.7l-1.2,0.3c-0.1-0.2-0.3-0.5-0.6-0.9l1.2-0.3C189.4,96.1,189.7,96.4,189.8,96.7z      M197.1,95.6h-4.3c-0.5,0.6-0.9,1.1-1.5,1.5l-1-0.7c0.9-0.6,1.6-1.6,2.3-2.9l1.2,0.3c-0.1,0.1-0.2,0.4-0.4,0.6h3.5V95.6z      M195,99.2v-0.8h-3.4v0.8H195z M195.5,96.8l-1.2,0.2c-0.2-0.4-0.4-0.7-0.6-0.9l1.3-0.3C195.1,96.1,195.3,96.4,195.5,96.8z"/>
			<path class="st3" d="M211.3,100.1H199v-1.2h12.3V100.1z"/>
			<path class="st3" d="M217.7,101.7h-4.6v-1.2h4.6V101.7z M217.4,96.6h-3.9v-1.2h3.9V96.6z M225.5,105l-0.8,1.1     c-2-1.2-3.4-2.8-4.1-4.6c-0.7,1.9-2.2,3.4-4.4,4.6l-0.9-1c1.8-1,3.1-2,3.7-2.9c0.6-1,0.9-2.3,0.9-3.9c0-0.3,0-0.6,0-0.9h1.2     c0,0.3,0,0.5,0,0.7c0,1.2,0.2,2.1,0.5,2.9c0.3,0.8,0.8,1.6,1.6,2.3C224,104,224.8,104.6,225.5,105z M225.3,95.4     c-0.3,2.1-0.9,3.7-1.7,5l-1.1-0.6c0.6-0.9,1-2,1.3-3.1h-4.5c-0.6,1.2-1.2,2.2-1.8,2.8l-1-0.8c1.1-1.3,2-3,2.7-5.2l1.2,0.2     c-0.2,0.5-0.4,1.1-0.6,1.7H225.3z"/>
			<path class="st3" d="M239.6,95.1h-5.4c-0.2,0.4-0.4,0.9-0.7,1.4h5.3v9.4h-1.2v-0.6h-8.2v0.6h-1.2v-9.4h3.9     c0.3-0.4,0.5-0.9,0.7-1.4h-5.5v-1.2h12.3V95.1z M230.8,104.2v-6.5h-1.5v6.5H230.8z M234.8,99v-1.4h-2.8V99H234.8z M234.8,101.6     v-1.4h-2.8v1.4H234.8z M234.8,104.2v-1.5h-2.8v1.5H234.8z M237.5,104.2v-6.5H236v6.5H237.5z"/>
			<path class="st3" d="M245.9,96h-4.6v-1.1h1.7c-0.1-0.2-0.2-0.6-0.5-1l1.3-0.3c0.2,0.4,0.4,0.9,0.6,1.3h1.5V96z M245.7,98.2h-4V97     h4V98.2z M245.7,100.2h-4V99h4V100.2z M245.7,105.7h-1.3v-0.7H243v0.9h-1.3v-4.9h3.9V105.7z M244.4,103.9v-1.7H243v1.7H244.4z      M250.2,103.7c-1.4,0.7-2.8,1.2-4,1.5l-0.2-1.2c0.5-0.1,0.9-0.3,1.4-0.4v-4h-1.2v-1.1h3.6v1.1h-1.1v3.5c0.3-0.1,0.8-0.4,1.5-0.7     L250.2,103.7z M253.9,103.1c-0.1,0.9-0.2,1.6-0.5,2.1c-0.2,0.5-0.6,0.8-1,0.8c-0.8,0-1.3-0.8-1.6-2.3s-0.5-3.7-0.5-6.6h-4V96h3.9     l0-2.4h1.2c0,1.1,0,1.9,0,2.4h2.3v1.2h-2.2c0.1,2.7,0.3,4.7,0.5,5.8c0.2,1.1,0.4,1.7,0.5,1.7c0,0,0.1-0.2,0.2-0.5     c0.1-0.3,0.2-0.8,0.2-1.6L253.9,103.1z M253.6,95.1l-0.9,0.6c-0.3-0.4-0.6-0.8-1.1-1.4l0.9-0.6C252.9,94.1,253.3,94.6,253.6,95.1     z"/>
		</g>
		<g>
			<rect x="158.5" y="109.3" class="st3" width="121.4" height="54.9"/>
			<pattern id="SVGID_2_" xlink:href="#_x35__勗寞 潛" patternTransform="matrix(0.2638 0 0 0.2638 -5405.6255 -5540.499)">
			</pattern>
			<rect x="158.5" y="109.3" class="st29" width="121.4" height="54.9"/>
			<g>
				<path class="st7" d="M167.3,120.2h5.7v5.7h-5.7V120.2z"/>
				<path class="st7" d="M185.5,125.6l-0.7,0.9c-2.4-1.8-4-3.7-4.7-5.7c-0.6,2.2-2.2,4.1-4.7,5.6l-0.7-0.9c3.2-2,4.8-4.6,4.8-7.9v-2      h1.2v2.5c0,1.3,0.4,2.6,1.3,3.9S184,124.6,185.5,125.6z"/>
				<path class="st7" d="M191.7,123.5h-3.3l0.8,0.4c-0.3,0.9-0.8,1.8-1.4,2.7l-0.9-0.7c0.6-0.8,1-1.6,1.3-2.4h-0.7V116h4.2V123.5z       M190.6,118.2v-1.1h-2.1v1.1H190.6z M190.6,120.3v-1.2h-2.1v1.2H190.6z M190.6,122.5v-1.2h-2.1v1.2H190.6z M192,125.8l-0.9,0.5      c-0.4-0.7-0.8-1.3-1.3-2l1-0.5C191.3,124.5,191.7,125.2,192,125.8z M197.6,119.2h-1v6.3c0,0.3-0.1,0.5-0.3,0.7s-0.4,0.3-0.6,0.3      c-0.2,0-0.7,0-1.5,0l-0.4-1.1c0.3,0,0.6,0,1,0c0.4,0,0.6,0,0.7-0.1c0.1-0.1,0.1-0.1,0.1-0.2v-4.8c-0.7,1.6-1.7,3.1-3,4.4      l-0.7-0.9c1.5-1.3,2.5-2.8,3.2-4.6h-2.8v-1.1h3.3v-2.3h1.1v2.3h1V119.2z"/>
				<path class="st7" d="M202.8,118.7h-1.1v1.6c0.4-0.2,0.7-0.4,0.9-0.5l0.1,1.1c-0.2,0.1-0.5,0.3-1,0.6v3.9c0,0.3-0.1,0.5-0.2,0.6      c-0.1,0.2-0.3,0.3-0.4,0.3c-0.2,0.1-0.5,0.1-0.9,0.1c-0.2,0-0.4,0-0.5,0l-0.3-1c0.6,0,1,0,1.1,0c0.1,0,0.2-0.1,0.2-0.3V122      c-0.2,0.1-0.6,0.3-1.2,0.6l-0.3-1c0.5-0.2,1-0.4,1.5-0.7v-2.2h-1.3v-1h1.3v-2h1.1v2h1.1V118.7z M210.1,125.2l-0.6,1      c-1-1-1.9-2-2.6-3.1v3.5h-1.1v-3.5c-0.8,1.1-1.8,2.2-3,3.1l-0.6-0.9c1.4-1,2.4-2,3.1-3.1h-2.4v-1h2.9v-0.9h1.1v0.9h3v1h-2.5      C208,123.1,208.8,124.1,210.1,125.2z M209.5,116.6c-1.3,0.4-3.3,0.6-6.1,0.9l-0.4-1c2.4-0.1,4.4-0.4,6-0.8L209.5,116.6z       M205.1,120.2l-1,0.3c-0.3-0.8-0.6-1.5-1-2.2l1-0.4C204.4,118.4,204.7,119.2,205.1,120.2z M207.2,119.6l-1,0.3      c-0.1-0.6-0.4-1.3-0.7-2.1l1.1-0.3C206.8,118.3,207,119,207.2,119.6z M209.9,117.7c-0.3,1-0.7,2-1.2,2.9l-1-0.4      c0.5-0.9,0.9-1.8,1.2-2.8L209.9,117.7z"/>
				<path class="st7" d="M221.6,125.2c0,0.3-0.1,0.6-0.4,0.9c-0.2,0.2-0.7,0.4-1.3,0.4c-0.3,0-0.6,0-0.9,0l-0.3-1.1l1.4,0      c0.1,0,0.2,0,0.3-0.1c0.1-0.1,0.1-0.2,0.1-0.3v-2.2h-3v3.4h-1v-3.4h-3c-0.1,1.6-0.5,2.8-1.1,3.8l-1-0.6c0.3-0.5,0.6-1.2,0.8-2      c0.2-0.8,0.3-1.6,0.3-2.4V116h9.1V125.2z M216.5,118.8v-1.8h-2.9v1.8H216.5z M216.5,121.7v-1.8h-2.9v1.8H216.5z M220.5,118.8      v-1.8h-3v1.8H220.5z M220.5,121.7v-1.8h-3v1.8H220.5z"/>
				<path class="st7" d="M234.5,127.2h-10.6v-1.1h4.8v-2.6h-3.8v-1.1h3.8v-2.6h-4.3v-1.1h4.5c-0.2-0.5-0.4-1.1-0.8-1.8l1.1-0.3      c0.3,0.7,0.6,1.4,0.9,2.1h4.1v1.1h-4.3v2.6h3.8v1.1h-3.8v2.6h4.8V127.2z"/>
				<path class="st7" d="M241.3,118.4H238c-0.4,0.4-0.8,0.8-1.4,1.3l-0.7-0.9c0.9-0.6,1.6-1.3,1.9-2.1l1.1,0.3      c-0.1,0.2-0.1,0.3-0.2,0.5h2.6V118.4z M246.4,122h-1.1v-1.2h-8v1.2h-1.1V120h4.4c0-0.1-0.1-0.3-0.3-0.6l1.3-0.2      c0.1,0.2,0.2,0.4,0.4,0.7h4.4V122z M245.3,127h-6.5v0.5h-1.1v-6h7.2v2.3h-6.1v0.7h6.5V127z M240.1,119.5l-1.2,0.2      c-0.1-0.2-0.3-0.5-0.5-0.9l1.2-0.2C239.7,118.8,239.9,119.1,240.1,119.5z M243.8,123v-0.7h-5v0.7H243.8z M244.2,126.2v-0.9h-5.4      v0.9H244.2z M246.7,118.4H243c-0.2,0.3-0.4,0.6-0.7,0.9l-1-0.5c0.7-0.7,1.2-1.4,1.4-2.1l1.1,0.3c-0.1,0.2-0.2,0.4-0.3,0.5h3.2      V118.4z M245.1,119.5l-1.2,0.2c-0.1-0.3-0.3-0.6-0.5-1l1.2-0.1C244.8,118.9,245,119.2,245.1,119.5z"/>
				<path class="st7" d="M259,118.1h-4.7c-0.1,0.3-0.3,0.8-0.6,1.2h4.6v8.2h-1.1V127h-7.1v0.5H249v-8.1h3.4c0.2-0.4,0.5-0.8,0.6-1.2      h-4.8v-1H259V118.1z M251.4,126v-5.7h-1.3v5.7H251.4z M254.9,121.5v-1.2h-2.4v1.2H254.9z M254.9,123.8v-1.2h-2.4v1.2H254.9z       M254.9,126v-1.3h-2.4v1.3H254.9z M257.2,126v-5.7h-1.3v5.7H257.2z"/>
				<path class="st7" d="M264.5,118.9h-4v-1h1.5c-0.1-0.2-0.2-0.5-0.4-0.9l1.1-0.3c0.2,0.4,0.4,0.7,0.5,1.2h1.3V118.9z M264.3,120.8      h-3.5v-1h3.5V120.8z M264.3,122.5h-3.5v-1h3.5V122.5z M264.3,127.3h-1.1v-0.6H262v0.8h-1.1v-4.2h3.4V127.3z M263.2,125.8v-1.4      H262v1.4H263.2z M268.2,125.6c-1.2,0.6-2.4,1-3.5,1.3l-0.2-1c0.4-0.1,0.8-0.2,1.2-0.4v-3.4h-1.1v-1h3.1v1h-1v3      c0.3-0.1,0.7-0.3,1.3-0.6L268.2,125.6z M271.4,125.1c-0.1,0.7-0.2,1.3-0.4,1.8c-0.2,0.5-0.5,0.7-0.9,0.7c-0.7,0-1.1-0.7-1.4-2      s-0.4-3.2-0.5-5.7h-3.5v-1h3.4l0-2h1c0,1,0,1.7,0,2h2v1h-1.9c0.1,2.4,0.2,4,0.4,5c0.2,1,0.3,1.5,0.4,1.5c0,0,0.1-0.1,0.2-0.4      c0.1-0.3,0.1-0.7,0.2-1.4L271.4,125.1z M271.1,118.1l-0.8,0.5c-0.2-0.3-0.5-0.7-0.9-1.2l0.7-0.5      C270.5,117.3,270.8,117.7,271.1,118.1z"/>
				<path class="st7" d="M167.3,134.9h5.7v5.7h-5.7V134.9z"/>
				<path class="st7" d="M185.6,133.8l-0.6,0.9c-1.9-0.9-3.6-1.9-4.9-3c-1.2,1-2.8,2-4.7,3l-0.7-0.9c2.3-1.1,4.1-2.2,5.2-3.5      l1.2,0.4c-0.1,0.1-0.1,0.2-0.2,0.2C182,132,183.6,133,185.6,133.8z M184.1,141.2h-1.1v-0.6h-5.7v0.6H176v-5h8V141.2z       M182.9,139.5v-2.2h-5.7v2.2H182.9z M182.9,134.9h-5.6v-1.1h5.6V134.9z"/>
				<path class="st7" d="M190.9,135.2l-0.7,0.8c-0.1-0.2-0.2-0.5-0.4-0.8v5.9h-1.1v-5.2c-0.4,0.9-0.8,1.6-1.3,2.1l-0.6-1      c0.7-0.8,1.3-2,1.7-3.3H187v-1h1.7v-2.1h1.1v2.1h1v1h-1v0.1C190.3,134.3,190.7,134.8,190.9,135.2z M197.7,135.4l-0.5,1      c-1.2-0.4-2.1-0.8-2.8-1.4c-0.9,0.5-1.8,1-2.8,1.4l-0.6-0.9c1.1-0.3,1.9-0.7,2.5-1.1c-0.4-0.5-0.7-0.9-0.9-1.2      c-0.4,0.3-0.7,0.5-0.8,0.6L191,133c0.9-0.6,1.7-1.5,2.3-2.6l1.1,0.3c0,0.1-0.1,0.3-0.4,0.6h2.9v1.1c-0.5,0.8-1,1.5-1.7,2.1      C195.9,134.8,196.7,135.2,197.7,135.4z M196.9,141.1h-1.1v-0.4h-3v0.4h-1.1v-4.5h5.2V141.1z M195.8,139.6v-2h-3v2H195.8z       M195.7,132.3h-2.4l0,0c0.3,0.6,0.7,1,1.1,1.4C194.9,133.3,195.3,132.8,195.7,132.3z"/>
				<path class="st7" d="M202.8,133.3c-0.3,0.5-0.7,1.1-1.2,1.8v6h-1.1v-4.8c-0.4,0.4-0.7,0.7-0.9,0.8l-0.6-1      c0.9-0.6,1.8-1.7,2.8-3.3L202.8,133.3z M202.4,130.8c-0.8,1.2-1.7,2.1-2.6,2.8l-0.6-0.9c0.8-0.5,1.5-1.3,2.2-2.3L202.4,130.8z       M210.1,140.3l-0.5,1c-1.6-0.3-2.8-0.7-3.6-1.1c-0.7,0.4-1.9,0.7-3.6,1.1l-0.5-1c1.2-0.2,2.2-0.5,3-0.8      c-0.4-0.3-0.7-0.7-1.1-1.1c-0.2,0.2-0.6,0.5-1.1,0.8l-0.7-0.8c0.5-0.3,0.9-0.6,1.2-0.9l-0.4-0.7l0.8-0.5      c0.1,0.1,0.2,0.3,0.4,0.5c0.2-0.2,0.5-0.6,0.7-0.9c-0.8,0-1.4,0-1.9,0l-0.2-1c0.8-0.2,1.7-0.7,2.8-1.3c-0.5,0-1.2,0.1-2.2,0.1      l-0.2-0.9c1-0.5,1.9-1.4,2.8-2.5l1.1,0.5c-0.7,0.8-1.5,1.5-2.3,2c0.7,0,1.4-0.1,2.2-0.2c0.7-0.7,1.1-1.1,1.3-1.2l1,0.5      c-1.5,1.5-3.1,2.6-4.7,3.2c0.8,0,2-0.2,3.5-0.4c-0.1-0.2-0.3-0.4-0.5-0.6l0.9-0.5c0.8,0.9,1.3,1.6,1.7,2.3l-0.9,0.5      c-0.1-0.2-0.3-0.5-0.5-0.8c-0.9,0.1-1.7,0.2-2.6,0.2c-0.1,0.1-0.3,0.4-0.5,0.9h3.6v1c-0.6,0.7-1.2,1.3-1.9,1.8      C208.1,139.9,209.1,140.2,210.1,140.3z M207.6,137.7h-3c0.4,0.5,0.8,0.9,1.4,1.2C206.4,138.8,206.9,138.3,207.6,137.7z"/>
				<path class="st7" d="M216.5,137.2c-0.3-0.1-0.5-0.4-0.5-0.8c0-0.2,0.1-0.4,0.3-0.6c0.2-0.1,0.4-0.2,0.6-0.2      c0.2,0,0.4,0.1,0.6,0.3c0.1,0.2,0.2,0.4,0.2,0.6c0,0.5-0.4,1-1.1,1.5l-0.4-0.3C216.3,137.5,216.4,137.3,216.5,137.2z"/>
				<path class="st7" d="M234.1,134.7h-1.1v-1.6h-7.9v1.7H224v-2.6h4.5v-1.7h1.1v1.7h4.5V134.7z M233.5,141.2h-1v-0.5h-6.7v0.5h-1.1      v-4.5h8.8V141.2z M227.4,131.6l-1.1,0.4c-0.3-0.4-0.7-0.7-1.1-1l1.1-0.4C226.8,130.9,227.2,131.2,227.4,131.6z M228.6,138.2      v-0.7h-2.8v0.7H228.6z M228.6,139.8V139h-2.8v0.7H228.6z M232.3,136h-6.5v-2.3h6.5V136z M231.3,135.2v-0.7h-4.3v0.7H231.3z       M232.5,138.2v-0.7h-2.8v0.7H232.5z M232.5,139.8V139h-2.8v0.7H232.5z M232.9,130.9c-0.4,0.4-0.7,0.7-1.1,1l-1.1-0.5      c0.4-0.3,0.8-0.6,1.2-1L232.9,130.9z"/>
				<path class="st7" d="M246.8,140.3l-0.6,0.9c-1.3-0.8-2.3-1.5-3-2.2c-0.7-0.7-1.3-1.7-1.8-2.8c-0.6,2.1-2.3,3.7-4.9,5l-0.6-1      c2.6-1.2,4.1-2.9,4.6-5h-4.4v-1.1h4.6c0-0.8,0.1-1.6,0.1-2.4h-4.2v-1.1h9.4v1.1H242c0,1.3-0.1,2.1-0.1,2.4h4.7v1.1h-4.3      C242.8,137.3,244.4,139,246.8,140.3z"/>
				<path class="st7" d="M259.1,140l-0.3,1h-4.6c-1.7,0-3-0.4-4-1.3c-0.4,0.6-0.8,1.1-1.2,1.5l-0.9-0.7c1-1,1.7-2.2,2-3.5h-1.8v-1      c0.6-0.7,1.1-1.4,1.5-2.1h-1.7v-1h2.9v1c-0.3,0.7-0.8,1.4-1.4,2.2h1.5v1c-0.1,0.6-0.3,1.2-0.6,1.8c0.8,0.8,2,1.1,3.5,1.1H259.1z       M251.2,131.9l-0.8,0.8c-0.6-0.6-1.2-1.1-1.8-1.6l0.7-0.8C249.9,130.7,250.5,131.2,251.2,131.9z M258.9,139.1h-6.3v-4.5      c-0.2,0.3-0.4,0.6-0.7,0.8l-0.6-1c0.8-1.1,1.5-2.5,2.1-4.1l1.1,0.2c-0.2,0.5-0.4,1-0.6,1.5h1.7c-0.2-0.4-0.4-0.9-0.6-1.4l1-0.3      c0.3,0.7,0.6,1.3,0.7,1.8h2.1v1h-2.3v1h2.1v0.9h-2.1v1h2.1v0.9h-2.1v1.1h2.4V139.1z M255.4,134.1v-1h-1.7v1H255.4z M255.4,136.1      v-1h-1.7v1H255.4z M255.4,138.1V137h-1.7v1.1H255.4z"/>
				<path class="st7" d="M264.3,130.8c-0.9,1.2-2,2.2-3.3,2.9l-0.5-1.1c1-0.5,1.9-1.3,2.7-2.4L264.3,130.8z M264.5,133.1      c-0.4,0.6-0.8,1.2-1.2,1.8v6.2h-1.1v-4.9c-0.4,0.4-0.8,0.8-1.2,1l-0.5-1.1c1-0.7,2-1.8,3-3.5L264.5,133.1z M271.2,135h-1.7v5      c0,0.8-0.4,1.2-1.3,1.2c-0.6,0-1.1,0-1.7,0l-0.4-1.1c0.3,0,1,0,1.9,0c0.1,0,0.2,0,0.2-0.1c0.1-0.1,0.1-0.1,0.1-0.2V135h-4v-1.1      h6.8V135z M270.9,131.9h-6.2v-1.1h6.2V131.9z"/>
				<path class="st7" d="M178.6,146.9h-3.2c-0.3,0.4-0.8,0.9-1.3,1.3l-0.8-0.7c0.9-0.7,1.6-1.5,2.1-2.5l1,0.3      c-0.1,0.2-0.2,0.4-0.3,0.5h2.5V146.9z M183.9,151.7c0,0.6-0.1,1.2-0.2,1.9s-0.2,1.1-0.4,1.3s-0.3,0.3-0.5,0.3      c-0.2,0.1-0.6,0.1-1.2,0.1c-0.3,0-0.5,0-0.7,0l-0.4-1.1c0.3,0,0.6,0,1,0c0.5,0,0.8,0,0.9-0.1c0.1-0.1,0.2-0.2,0.2-0.4      c0-0.2,0.1-0.6,0.1-1.1h-3.4v3.2h-1.1v-2.8c-1.1,1.1-2.5,2-4.4,2.6l-0.5-1c1.7-0.5,3-1.2,4-2.1h-3.5l0.6-2.6h3.8v-0.7h-4.5v-1      h9.6v2.6h-4v0.7H183.9z M178.2,151.7V151h-2.9l-0.2,0.7H178.2z M177.7,147.9l-1,0.3c-0.1-0.2-0.3-0.5-0.6-0.8l1-0.2      C177.4,147.4,177.6,147.6,177.7,147.9z M184.1,146.9h-3.7c-0.4,0.5-0.8,0.9-1.3,1.3l-0.9-0.6c0.8-0.6,1.4-1.4,2-2.5l1.1,0.3      c0,0.1-0.1,0.3-0.3,0.6h3.1V146.9z M182.3,150v-0.7h-3v0.7H182.3z M182.7,147.9l-1.1,0.2c-0.2-0.3-0.3-0.6-0.5-0.8l1.1-0.2      C182.4,147.4,182.5,147.6,182.7,147.9z"/>
				<path class="st7" d="M196.3,155.5h-10.6v-1.1h10.6V155.5z M195.5,146.7h-9v-1.1h9V146.7z"/>
				<path class="st7" d="M200.8,148.9c0.7,1,1,2,1,2.8c0,0.5-0.1,0.9-0.3,1.2s-0.6,0.4-1.3,0.4c-0.1,0-0.3,0-0.4,0l-0.3-1      c0.3,0,0.6,0,0.8,0c0.3,0,0.4-0.2,0.4-0.5c0-1-0.4-1.9-1.1-2.8c0.3-0.7,0.6-1.6,0.9-2.6h-1.2v9.5h-1.1v-10.5h3.4v1      C201.4,147.2,201.1,148,200.8,148.9z M204.8,149.3c-0.8,0.3-1.6,0.6-2.5,0.8l-0.3-0.9c0.1-0.1,0.1-0.3,0.1-0.4v-3.7h1v1.2h1.7v1      h-1.7v1.5c0.5-0.1,1-0.3,1.7-0.6L204.8,149.3z M208.1,155.9H207v-0.6h-3.7v0.6h-1.1v-5.1h1.7c0.1-0.3,0.2-0.6,0.3-1l1,0.3      c0,0.2-0.1,0.5-0.3,0.7h3.1V155.9z M207,152.6v-0.8h-3.7v0.8H207z M207,154.4v-0.9h-3.7v0.9H207z M208.7,148.2      c0,0.6-0.1,1-0.3,1.3c-0.2,0.3-0.4,0.4-0.6,0.4c-0.2,0-0.8,0.1-1.7,0.1c-0.7,0-1.1-0.3-1.1-1v-3.8h1.1v1.2h2v1h-2v1.4      c0,0.1,0.1,0.2,0.2,0.2c0.6,0,0.9,0,1.1-0.1c0.2-0.1,0.2-0.4,0.2-1.1L208.7,148.2z"/>
				<path class="st7" d="M215.2,146c-0.9,0.3-2,0.6-3.2,0.7v1h2.5l0,1H212v1.3h2.5v1H212v1.6c0.9-0.2,1.9-0.5,3-0.8l0.1,1      c-1.2,0.4-2.2,0.6-3.1,0.8v2.2h-1.1v-2l-0.5,0.1l-0.2-1l0.7-0.1v-6.9c1.3-0.1,2.6-0.4,3.7-0.8L215.2,146z M221.1,155l-0.7,0.9      c-1-0.4-1.8-0.9-2.6-1.5c-0.7,0.6-1.6,1.1-2.8,1.4l-0.6-1c1-0.3,1.9-0.7,2.6-1.2c-0.6-0.7-1.1-1.5-1.5-2.5h-0.4v-1.1h5v1.1      c-0.4,0.9-0.9,1.7-1.5,2.4C219.3,154.3,220.1,154.7,221.1,155z M220.9,149.6h-1.5c-0.2,0-0.4-0.1-0.6-0.3      c-0.1-0.2-0.2-0.4-0.2-0.6v-2.2H217c0,1.6-0.4,2.7-1.4,3.4l-1-0.7c0.8-0.4,1.2-1.3,1.2-2.6v-1h3.8v2.9c0,0,0,0.1,0.1,0.1      s0.1,0.1,0.2,0.1h1V149.6z M219,151.3h-2.2c0.3,0.7,0.7,1.3,1.1,1.7C218.3,152.6,218.7,152,219,151.3z"/>
			</g>
		</g>
		<g>
			<g>
				<g>
					<g>
						<ellipse class="st13" cx="253.6" cy="49.6" rx="14" ry="15.2"/>
						<path class="st14" d="M265.2,72.4l-7.7-4.4c0.4,0-1.6-0.3-3.1-0.6v-0.2c0,0-0.3,0-0.7,0.1c-0.4-0.1-0.7-0.1-0.7-0.1v0.2        c-1.4,0.2-3.5,0.6-3.1,0.6l-7.7,4.4l-0.8,9.3h11.6h1.4H266L265.2,72.4z"/>
						<g>
							<line class="st15" x1="252.7" y1="69.4" x2="252.7" y2="81.6"/>
							<line class="st15" x1="254.8" y1="69.4" x2="254.8" y2="81.6"/>
						</g>
						<g>
							<g>
								<path class="st3" d="M263.9,47.5c0.1,2.2,0,4.5-0.2,6.7l0.1,0.4c0.9-0.8,2.2-1.6,3.2-1c1,0.6,1,2,0.8,3.2          c0,0.3-0.1,0.7-0.3,1c-0.5,1-2,1-3.1,0.8l-0.3-0.1c-1.1,2.6-3,4.8-5.4,6.3c-0.7,0.4-1.1,0.8-1.8,1.1l0,0.3          c0,0.8,0,1.6,0,2.4l0.1,0.5c-1.7,1.3-4.3,1.3-5.9-0.1l0.2,0c0-0.8,0-1.6,0-2.4l-0.1-0.3c-0.8-0.3-1.6-0.6-2.4-1.1          c-2.7-1.5-4.8-3.9-6.1-6.7l-0.4,0.1c-1.1,0.2-2.6,0.2-3.1-0.8c-0.2-0.3-0.2-0.7-0.3-1c-0.2-1.2-0.2-2.6,0.8-3.2          c1-0.6,2.3,0.2,3.2,1l0.2-0.4c-0.2-2.2-0.3-4.4-0.2-6.7l0,2.8c4.6-0.6,8-1.2,10.7-5v0.4c2.7,3.8,5.5,4.1,10.2,4.6"/>
								<g>
									<path class="st3" d="M263.6,47.5c0.1,2.2-0.6,5-0.1,7.1c0,0.2,0.3,0.3,0.5,0.2c0.1,1.1,0.2,2.2,0.3,3.3           c-0.1,0-0.3,0-0.4,0.1c-1.6,3.2-4,5.6-7.1,7.3c-0.1,0.1-0.2,0.2-0.2,0.3c0.3,3.9,0.6,4-5.3,3.4c0.2,0,0.3-0.2,0.3-0.3           c0-0.8,0.4-2.2-0.2-3c-0.2-0.2-10.8-5.9-2.4-1.1c-2.7-1.5-4.6-3.8-5.9-6.6c-0.1-0.1-0.2-0.2-0.4-0.1           c-1.2,0.3-1.2-0.8,0.2-3.3c0.1,0.1,0.4,0,0.4-0.1c0.5-1.1,0.1-2.8,0-3.9c-0.1-0.6,0-4.3-0.6-2.3c-0.2,0.5,0,1.3,0,1.8           c0,0.2,0.1,0.3,0.3,0.3c2.3-0.3,4.7-0.6,6.8-1.6c0.7-0.3,4.2-3.3,3.6-3.3c0.2,0,3.3,3.2,4,3.5c2,0.9,4.3,1.1,6.5,1.4           c0.4,0,0.4-0.6,0-0.6c-2.3-0.3-9.8-1.1-9.8-4.7c0-0.3-0.4-0.4-0.5-0.2c-2.1,2.6-4.5,3.9-7.7,4.5c-2.8,0.6-2.5,0.4-2.5-2.1           c0-0.4-0.6-0.4-0.6,0c0,1.6,0.2,3.5,0,5c-0.3,2.2,0.6,0.8-0.6,1c-1.2,0.3-1.2-1-2.5-0.3c-1.3,0.7-1.5,3.6-0.7,4.7           c0.7,1,1.1,0.6,2.1,1c0.4,0.1,1-0.3,1.3-0.1c0.5,0.2,1.2,2,1.5,2.4c0.9,1.3,2.1,2.4,3.4,3.3c0.6,0.4,2,0.9,2.5,1.4           c0.3,0.1,0.7,0.3,1,0.4c0,0.7,0,1.5,0.2,2.2c-0.3,0-0.4,0.4-0.2,0.6c2.2,1.4,4.1,1.4,6.3,0.1c0.1-0.1,0.2-0.2,0.1-0.4           c-0.5-2.4,0.2-2.6,1.6-4c1.4-1.4,2.9-2.3,4.1-3.9c0-0.1,1-2.1,1.3-2.2c0.3-0.2,1,0.3,1.3,0.1c1.1-0.5,1.4,0.1,2.2-1           c0.8-1.1,0.6-3.9-0.7-4.6c-1.3-0.8-1.3,0.5-2.5,0.3c-1-0.2-0.3,3.8-0.5-1c-0.1-1.7,0.1-3.3,0-5           C264.2,47.1,263.6,47.1,263.6,47.5L263.6,47.5z"/>
								</g>
							</g>
							<g>
								<path class="st3" d="M249.8,51.4c0,1.3,0,2.6,0,3.8"/>
								<g>
									<path class="st3" d="M249.2,51.4c0,1.3,0,2.6,0,3.8c0,0.7,1.1,0.7,1.1,0c0-1.3,0-2.6,0-3.8           C250.3,50.7,249.2,50.7,249.2,51.4L249.2,51.4z"/>
								</g>
							</g>
							<g>
								<path class="st3" d="M257.9,51.4c0,1.3,0,2.6,0,3.8"/>
								<g>
									<path class="st3" d="M257.4,51.4c0,1.3,0,2.6,0,3.8c0,0.7,1.1,0.7,1.1,0c0-1.3,0-2.6,0-3.8           C258.4,50.7,257.4,50.7,257.4,51.4L257.4,51.4z"/>
								</g>
							</g>
							<g>
								<path class="st3" d="M252,58.7c1.1,0.5,2.5,0.4,3.6,0"/>
								<g>
									<path class="st3" d="M251.9,59.3c1.3,0.5,2.6,0.5,3.9,0c0.6-0.2,0.4-1.3-0.3-1c-1.1,0.4-2.2,0.5-3.3,0           C251.5,58,251.2,59,251.9,59.3L251.9,59.3z"/>
								</g>
							</g>
						</g>
						<g>
							<g>
								<path class="st3" d="M251.1,66c0.9,1.3,1.8,2.7,2.5,4.1c0.1,0.2,0.3,0.5,0.2,0.8c0,0.2-0.2,0.4-0.4,0.6          c-0.7,0.8-1.4,1.6-2.2,2.3c-0.1,0.1-0.1,0.1-0.2,0.2c-0.2,0-0.3-0.1-0.4-0.3c-1.2-1.9-1.2-4.1-1.2-6.3c0-0.5,0-1,0.3-1.4          S250.7,65.6,251.1,66"/>
								<g>
									<path class="st3" d="M250.8,66.2c0.7,1,1.3,2,1.9,3.1c0.4,0.7,0.8,1.2,0.4,2c-0.2,0.3-1,1.2-1.3,1.4           c-0.8,0.7-1.3,0.8-1.7-0.5c-0.2-0.6-0.3-1.3-0.4-2C249.7,69.7,249.5,65.4,250.8,66.2c0.4,0.3,0.8-0.2,0.4-0.5           c-1.4-0.9-2.1,0.6-2.2,1.8c-0.1,1.7-0.1,5.3,1.4,6.6c0.4,0.3,0.6,0.3,1,0.1c0.5-0.3,1-1,1.4-1.5c0.3-0.4,0.9-0.8,1.1-1.2           c0.3-0.6,0.2-0.9,0-1.4c-0.5-1.5-1.6-2.9-2.5-4.1C251.1,65.5,250.6,65.8,250.8,66.2L250.8,66.2z"/>
								</g>
							</g>
							<g>
								<path class="st3" d="M256.6,66c-0.9,1.3-1.8,2.7-2.5,4.1c-0.1,0.2-0.3,0.5-0.2,0.8c0,0.2,0.2,0.4,0.4,0.6          c0.7,0.8,1.4,1.6,2.2,2.3c0.1,0.1,0.1,0.1,0.2,0.2c0.2,0,0.3-0.1,0.4-0.3c1.2-1.9,1.2-4.1,1.2-6.3c0-0.5,0-1-0.3-1.4          C257.6,65.8,256.9,65.6,256.6,66"/>
								<g>
									<path class="st3" d="M256.3,65.9c-0.9,1.3-2,2.7-2.5,4.1c-0.2,0.6-0.3,0.9-0.1,1.4c0.2,0.5,0.8,0.9,1.2,1.3           c0.4,0.4,0.9,1.2,1.4,1.5c0.4,0.2,0.6,0.3,1-0.1c1.5-1.3,1.4-4.6,1.4-6.3c0-1.2-0.6-3-2.2-2.1c-0.3,0.2,0,0.8,0.3,0.5           c1.3-0.8,1.2,1.8,1.2,2.3c0,0.5,0,1.1-0.1,1.6c-0.1,0.7-0.2,1.4-0.4,2c0,0.7-0.3,1-0.8,0.9c-0.4,0.1-0.7,0-0.9-0.4           c-0.4-0.3-1.1-1-1.3-1.4c-0.3-0.8,0.1-1.4,0.4-2c0.6-1.1,1.3-2.1,1.9-3.1C257.1,65.8,256.5,65.5,256.3,65.9L256.3,65.9z"/>
								</g>
							</g>
						</g>
					</g>
					<g>
						<path class="st7" d="M258.6,50.2h-10.2v-1h4.5v-2.5h-3.6v-1h3.6v-2.5h-4.1v-1h4.3c-0.1-0.5-0.4-1.1-0.8-1.7l1.1-0.3        c0.3,0.6,0.6,1.3,0.9,2h3.9v1h-4.1v2.5h3.6v1h-3.6v2.5h4.5V50.2z"/>
						<path class="st7" d="M253.4,53.5h-3.1c-0.4,0.4-0.8,0.8-1.3,1.2l-0.7-0.8c0.9-0.6,1.5-1.3,1.8-2l1.1,0.3        c-0.1,0.1-0.1,0.3-0.2,0.5h2.5V53.5z M258.4,57h-1v-1.1h-7.6V57h-1v-2h4.2c0-0.1-0.1-0.3-0.3-0.5l1.2-0.2        c0.1,0.2,0.2,0.4,0.4,0.7h4.2V57z M257.3,61.7h-6.2v0.5h-1v-5.7h6.9v2.2h-5.8v0.6h6.2V61.7z M252.3,54.5l-1.1,0.2        c-0.1-0.2-0.3-0.5-0.5-0.8l1.1-0.2C252,53.9,252.1,54.1,252.3,54.5z M255.9,57.9v-0.7h-4.8v0.7H255.9z M256.2,60.9v-0.8h-5.2        v0.8H256.2z M258.6,53.5H255c-0.2,0.3-0.4,0.6-0.7,0.8l-1-0.5c0.6-0.7,1.1-1.3,1.4-2l1.1,0.3c-0.1,0.2-0.2,0.4-0.3,0.5h3.1        V53.5z M257.1,54.6l-1.1,0.2c-0.1-0.3-0.2-0.6-0.4-0.9l1.1-0.1C256.8,54,256.9,54.3,257.1,54.6z"/>
					</g>
				</g>
				<g>
					<ellipse class="st8" cx="185.1" cy="50.5" rx="14" ry="15.2"/>
					<path class="st9" d="M196.7,73.3l-7.7-4.4c0.4,0-1.6-0.3-3.1-0.6V68c0,0-0.3,0-0.7,0.1c-0.4-0.1-0.7-0.1-0.7-0.1v0.2       c-1.4,0.2-3.5,0.6-3.1,0.6l-7.7,4.4l-0.8,9.3h11.6h1.4h11.6L196.7,73.3z"/>
					<g>
						<polyline class="st10" points="184.2,82.4 184.2,70.3 186.3,70.3 186.3,82.4       "/>
					</g>
					<g>
						<path class="st10" d="M174.5,51.2"/>
						<path class="st10" d="M174.5,48.4c-0.1,2.2,0,4.5,0.2,6.7l-0.1,0.4c-0.9-0.8-2.2-1.6-3.2-1c-1,0.6-1,2-0.8,3.2        c0,0.3,0.1,0.7,0.3,1c0.5,1,2,1,3.1,0.8l0.3-0.1c1.1,2.6,3,4.8,5.4,6.3c0.7,0.4,2,0.8,2.7,1.1l0,0.3c0,0.8,0,1.6,0,2.4        l-0.1,0.5c1.7,1.3,4.3,1.3,5.9-0.1l-0.2,0c0-0.8,0-1.6,0-2.4l0.1-0.3c0.8-0.3,0.7-0.6,1.5-1.1c2.7-1.5,4.8-3.9,6.1-6.7        l0.4,0.1c1.1,0.2,2.6,0.2,3.1-0.8c0.2-0.3,0.2-0.7,0.3-1c0.2-1.2,0.2-2.6-0.8-3.2c-1-0.6-2.3,0.2-3.2,1l-0.2-0.4        c0.2-2.2,0.3-4.4,0.2-6.7l0,2.8"/>
						<path class="st11" d="M189.3,52.2c0,1.3,0,2.6,0,3.8"/>
						<path class="st11" d="M181.2,52.2c0,1.3,0,2.6,0,3.8"/>
						<path class="st11" d="M187,59.6c-1.1,0.5-2.5,0.4-3.6,0"/>
					</g>
					<g>
						<path class="st10" d="M182.6,66.9c0.9,1.3,1.8,2.7,2.5,4.1c0.1,0.2,0.3,0.5,0.2,0.8c0,0.2-0.2,0.4-0.4,0.6        c-0.7,0.8-1.4,1.6-2.2,2.3c-0.1,0.1-0.1,0.1-0.2,0.2c-0.2,0-0.3-0.1-0.4-0.3c-1.2-1.9-1.2-4.1-1.2-6.3c0-0.5,0-1,0.3-1.4        S182.3,66.5,182.6,66.9"/>
						<path class="st10" d="M188.1,66.9c-0.9,1.3-1.8,2.7-2.5,4.1c-0.1,0.2-0.3,0.5-0.2,0.8c0,0.2,0.2,0.4,0.4,0.6        c0.7,0.8,1.4,1.6,2.2,2.3c0.1,0.1,0.1,0.1,0.2,0.2c0.2,0,0.3-0.1,0.4-0.3c1.2-1.9,1.2-4.1,1.2-6.3c0-0.5,0-1-0.3-1.4        S188.4,66.5,188.1,66.9"/>
					</g>
				</g>
			</g>
			<g>
				<rect x="199.7" y="67.9" class="st16" width="38.6" height="2.1"/>
				<g>
					<rect x="202.7" y="69.3" class="st15" width="3.2" height="12.4"/>
					<rect x="232.2" y="69.3" class="st15" width="3.2" height="12.4"/>
				</g>
			</g>
		</g>
	</g>
</g>
</svg>