<?xml version="1.0" encoding="utf-8"?>
<!-- Generator: Adobe Illustrator 24.0.1, SVG Export Plug-In . SVG Version: 6.00 Build 0)  -->
<svg version="1.1" id="圖層_1" xmlns="http://www.w3.org/2000/svg" xmlns:xlink="http://www.w3.org/1999/xlink" x="0px" y="0px"
	 width="483.6px" height="138px" viewBox="0 0 483.6 138" style="enable-background:new 0 0 483.6 138;" xml:space="preserve">
<style type="text/css">
	.st0{fill:#222222;}
</style>
<g>
	<g>
		<path class="st0" d="M162.5,7.3h4.2V0.6h4.4v6.7h3.6v4.4h-3.6v5.2c0.9-0.3,1.8-0.6,2.6-1l0.7,3.8c-1.1,0.5-2.2,1.1-3.3,1.6v9.6
			c0,2.2-0.3,3.7-0.9,4.5c-0.7,0.9-2,1.4-3.9,1.4c-1.1,0-2.2-0.1-3.1-0.3l-0.8-4.5c1.1,0.3,2.2,0.4,3.3,0.4c0.5,0,0.8-0.2,0.9-0.5
			c0.1-0.4,0.2-1.1,0.2-2v-6.8c-1,0.4-2.1,0.8-3.1,1.1l-1.6-4.6c1.6-0.4,3.2-0.9,4.7-1.3v-6.5h-4.2L162.5,7.3L162.5,7.3z
			 M175.2,18.6h8.4v-3.4h4.6v3.4h9.3v4.2h-6.7c2.1,3.1,4.5,5.6,7.3,7.5l-2.5,4.4c-1.6-1.4-3.2-3.2-4.8-5.2c-0.9-1.2-1.8-2.5-2.7-3.8
			v11h-4.6V26.2c-0.4,0.7-0.9,1.4-1.4,2.1c-1.8,2.5-3.9,4.6-6.4,6.3l-2.9-3.6c2.3-1.6,4.3-3.3,5.9-5.2c0.9-1.1,1.6-2.1,2.2-3h-5.9
			L175.2,18.6L175.2,18.6z M195.5,0.6l2,4c-6.3,1.1-13.4,2-21.2,2.6L174.8,3C182.3,2.4,189.2,1.6,195.5,0.6z M179.4,7.8
			c1.1,2,1.9,4.1,2.5,6.5l-4.2,1.4c-0.5-2.5-1.3-4.7-2.4-6.7L179.4,7.8z M186.6,6.9c1.1,1.8,1.9,3.8,2.5,5.9l-4.2,1.4
			c-0.5-2.2-1.3-4.3-2.4-6.1L186.6,6.9z M193.5,5.9l4.4,1.4c-1.2,3.7-2.6,6.8-4.1,9.3l-4.2-2.2C191.3,11.5,192.6,8.7,193.5,5.9z"/>
		<path class="st0" d="M210.5,2h28.2v28c0,4-1.8,6-5.3,6c-1,0-2.1,0-3.4-0.2l-1.1-5.2c1.3,0.4,2.6,0.7,3.8,0.7c0.9,0,1.4-1,1.4-3.1
			v-3.6h-8.1v10.9h-4.7V24.7h-8.7c-0.2,1.4-0.4,2.7-0.7,4c-0.6,2.6-1.6,5.2-3,7.9l-4.2-2.5c1.5-3.3,2.5-6.2,2.9-8.6
			c0.6-3,0.9-6,0.9-9V2H210.5z M212.8,20.1h8.3v-4.7h-8.3v3.3C212.8,19.2,212.8,19.7,212.8,20.1z M212.8,10.9h8.3V6.6h-8.3V10.9z
			 M225.8,6.6v4.3h8.1V6.6H225.8z M225.8,15.4v4.7h8.1v-4.7H225.8z"/>
		<path class="st0" d="M249.8,11.1c1.8,0.9,3.4,1.9,4.8,3.1l-3.4,4.3c-1.5-1.5-3.1-2.8-4.8-3.9L249.8,11.1z M250.5,19.7l4.3,1.4
			c-1.2,6.1-2.6,11.2-4.1,15.4l-4.2-2.2C248.3,29.3,249.6,24.5,250.5,19.7z M251.1,1.4c1.9,1,3.5,2.1,5,3.4L252.6,9
			c-1.6-1.6-3.2-3-5-4.2L251.1,1.4z M258.1,18.9h4.5c0,6-0.5,10-1.5,12.1c-1,2.3-2.6,4.3-4.7,5.9l-3.1-3.6c1.6-1.2,2.8-2.7,3.7-4.6
			C257.7,27.1,258.1,23.8,258.1,18.9z M266.4,0.6h4.8v3.8h10.2v4.3H276c2.1,2.4,3.8,4.9,5.2,7.5l-4,2.4c-0.4-0.8-0.9-1.6-1.4-2.4
			c-5.3,0.8-11.5,1.2-18.5,1.3l-0.8-4.3c1.4,0,2.8,0,4.1,0l2.1-4.3h-5.9V4.3h9.5V0.6z M265.2,19h4.5v15.8h-4.5V19z M273.1,12.3
			c-0.4-0.6-0.9-1.1-1.4-1.7l3.1-2h-7l-2.1,4.1C268.4,12.6,270.8,12.5,273.1,12.3z M272.2,18.7h4.5v11.7c0,0.9,0,1.3,0.2,1.4
			c0,0.1,0.2,0.2,0.5,0.2c0.4,0,0.6-0.2,0.7-0.5c0.1-0.3,0.2-0.8,0.2-1.7c0-0.6,0.1-1.5,0.2-2.7l4,2.4c-0.4,3.3-0.9,5.2-1.6,5.8
			c-0.2,0.3-0.6,0.6-1.3,0.7c-0.3,0.2-1.1,0.2-2.2,0.2c-1.2,0-2.1-0.1-2.8-0.4c-1.6-0.2-2.3-1.8-2.3-4.6L272.2,18.7L272.2,18.7z"/>
		<path class="st0" d="M300.9,0.4l2.6,3.6c-1.6,0.8-3.3,1.4-5,2v5.3h4.8v4.3h-4.8V16c2.1,1.9,4,3.7,5.5,5.6l-2.9,3.9
			c-0.9-1.4-1.8-2.6-2.7-3.7v14.8h-4.5V23.4c-1.1,2.2-2.3,4.1-3.8,5.9l-2.7-3.3c1.2-1.4,2.5-3.3,3.8-5.8c0.8-1.4,1.5-2.9,2.1-4.5
			h-5.1v-4.4h5.5V7.5c-1.2,0.4-2.4,0.7-3.6,0.9l-2.2-4.1C292.4,3.5,296.7,2.2,300.9,0.4z M321.5,15.1l2,4c-2.4,0.4-4.9,0.7-7.5,1
			v3.7h6.8v4.3h-6.8v3.8h7.8V36h-21.1v-4.2h8.8v-3.8h-7.3v-4.3h7.3v-3.2c-2.2,0.2-4.4,0.4-6.7,0.6l-1.6-4.3
			C309.8,16.6,315.9,16,321.5,15.1z M304.4,1.3h18.5v12.6h-18.5V1.3z M308.9,9.7h9.5V5.4h-9.5V9.7z"/>
	</g>
	<g>
		<path d="M189,78.7l3,0.8c-0.3,1.5-0.7,3-1.2,4.3v19.2H188V90.5c-0.4,0.7-0.8,1.4-1.3,2.1l-1.2-3.6C187.1,86.2,188.3,82.8,189,78.7
			z M196.7,78.5c0.3,0.8,0.6,1.7,0.8,2.8h2.3v2.8h-8.1v-2.8h2.6c-0.2-0.7-0.5-1.4-0.8-2.1L196.7,78.5z M192.2,89.3h7.1v1
			c1.4-0.7,2.5-1.3,3.5-2.1h-3v-2.7h2.9v-2.1h-2.2V81h2.2v-2.3h3.1V81h2v1.3c0.3-0.5,0.5-1,0.8-1.6l2.6,1.1
			c-0.7,1.4-1.4,2.7-2.2,3.9h1.6v2.7h-3.6c-0.2,0.2-0.4,0.4-0.5,0.6c-0.4,0.4-0.9,0.8-1.3,1.2h4.8v12.9h-3.1v-1.2h-2.9v1.2h-3v-10
			c-0.4,0.2-0.8,0.4-1.3,0.6l-0.6-1.6h-6.8L192.2,89.3L192.2,89.3z M192.2,85.4h7.2v2.7h-7.2V85.4z M199.4,93.4v9.2h-2.9v-1H195v1.4
			h-2.8v-9.5H199.4z M195,99h1.5v-3H195V99z M203.8,94.7h2.9v-2h-2.9V94.7z M203.8,99.2h2.9v-2.1h-2.9V99.2z M205.7,85.4
			c0.5-0.6,0.9-1.2,1.3-1.9h-1.3V85.4z"/>
		<path d="M218.9,78.4l3.3,0.9c-0.4,1.8-1,3.6-1.7,5.3v15c0.6-1.5,1.1-2.8,1.3-3.9c0.3-1.5,0.5-4,0.5-7.5v-0.6h-0.9v-2.8h3.8V83
			h-2.9v-2.6h2.9v-2h3.5v2h3.8v-2h3.6v2h3.5V83H236v1.8h3.9v2.8h-14.4v0.6c0,4.1-0.2,7.1-0.6,8.8c-0.4,1.9-0.9,3.7-1.6,5.2l-2.7-1.7
			v2.7h-3.2V90.8c-0.5,0.7-0.9,1.4-1.4,2.1l-1.3-3.8C216.6,86.2,218,82.7,218.9,78.4z M227.6,88.8H239v12.1c0,1.4-0.8,2.1-2.4,2.1
			h-1.8l-0.4-2.7c0.7,0.1,1.1,0.1,1.3,0.1c0.4,0,0.6-0.2,0.6-0.6v-1h-2.3v3.9h-2.7v-3.9h-2.1v4.3h-2.8V88.8H227.6z M228.6,84.8h3.8
			V83h-3.8V84.8z M229.1,92.9h2.1v-1.6h-2.1V92.9z M229.1,96.8h2.1V95h-2.1V96.8z M233.8,91.3v1.6h2.3v-1.6H233.8z M233.8,95v1.8
			h2.3V95H233.8z"/>
		<path d="M244.2,80.6h4.5v-2.2h3.2v2.2h4.6v2.5c1.3-1.1,2.5-2.6,3.4-4.3h4.3c1.4,2.5,3,4.5,4.9,6l-1.8,3.4
			c-0.2-0.2-0.4-0.3-0.5-0.5v2.2h-3.1V93h4.3v3.2h-4.3v7h-3.4v-7h-4.1V93h4.1v-3.1h-3.2v-2.5c-0.2,0.1-0.3,0.2-0.5,0.3l-0.8-1.6v9.1
			H252V97h4.8v2.8h-4.8v3.4h-3.2v-3.4h-4.8V97h4.8v-1.8h-4.1V84.7h4.1v-1.3h-4.5V80.6z M247.8,88.8h4.9v-1.6h-4.9V88.8z M252.7,92.7
			v-1.6h-4.9v1.6L252.7,92.7L252.7,92.7z M255.1,84.7l-0.2-0.3c0.5-0.3,0.9-0.6,1.3-0.9h-4.3v1.3C251.9,84.7,255.1,84.7,255.1,84.7z
			 M257.9,86.8h7.9c-1.5-1.6-2.8-3.2-3.7-4.8C261.1,83.7,259.7,85.3,257.9,86.8z"/>
		<path d="M277.8,84.2c0.5,1,1,2.1,1.3,3.3h2.2c0.5-1,1-2.1,1.3-3.3l3.2,0.8c-0.3,1-0.6,1.8-1,2.5h2.6v3.2h-14.3v-3.2h2.5
			c-0.3-0.8-0.7-1.7-1.2-2.5L277.8,84.2z M281.9,78.4c0.2,0.7,0.4,1.6,0.5,2.5h4.5v3.1h-13v-3.1h4.8c-0.1-0.6-0.3-1.2-0.5-1.8
			L281.9,78.4z M286.2,92.2v10.3h-3.3v-1.1h-5.3v1.4h-3.3V92.2H286.2z M277.6,98.5h5.3v-3.4h-5.3V98.5z M297.6,79.6v2
			c-0.4,2-1.2,4.6-2.2,7.8c1.5,2.5,2.3,4.8,2.3,6.8c0,1.6-0.3,2.7-1,3.3c-0.5,0.7-2,1-4.4,1l-0.7-3.1c0.5,0.1,0.8,0.2,1,0.2
			c1,0,1.6-0.5,1.6-1.4c0-1.9-0.8-4.2-2.6-6.8c1.2-2.4,2-4.7,2.5-6.8h-3v20.5h-3.3V79.6H297.6z"/>
		<path d="M7.7,136.6H5.1c-1.3-1.8-2.3-4-3-6.4c-0.8-2.5-1.1-4.8-1.1-6.9c0-2.2,0.4-4.5,1.1-7c0.8-2.5,1.8-4.6,3-6.4h2.7
			c-2.8,5.1-4.2,9.5-4.2,13.4C3.5,127.1,4.9,131.5,7.7,136.6z"/>
		<path d="M26.2,110.7c0.2,0.5,0.3,1.1,0.5,1.6H36v2.5H16.2v5.4c1.5-1.4,2.6-3.1,3.3-5.1l2.8,0.6c-0.4,1.2-1,2.3-1.6,3.4v1.4
			c1.7-1.5,2.9-3.4,3.7-5.5l2.6,0.6c-0.2,0.5-0.4,0.9-0.6,1.4h2.8c-0.2-0.5-0.4-0.9-0.7-1.4l3-0.6c0.3,0.6,0.5,1.2,0.7,2h3.3v2h-3.8
			v0.9h3.3v1.8h-3.3v0.8h3.3v1.9h-3.3v1.1h4.2v2.1h-9.1c0.8,0.7,1.5,1.4,2.1,2.2l-2.2,1.7c-0.6-0.9-1.5-2-2.7-3l1.3-0.8h-2.6v-5.3
			c-0.4,0.4-0.8,0.8-1.3,1.2l-0.8-2.3v6.7h-2.7v-5.3c-0.3,0.3-0.6,0.6-1,0.9l-0.8-2.3v0.1c0,5.4-0.8,10.2-2.3,14.2L11,133
			c1.4-3,2.1-6.9,2.1-11.6v-9.2h9.6c-0.2-0.5-0.3-0.9-0.5-1.3L26.2,110.7z M17.5,128.6l2.7,0.6c-0.4,2.2-1,4.1-1.8,5.8l-3.1-1.6
			C16.2,132.1,17,130.5,17.5,128.6z M23.9,128.8v2.7c0,0.6,0.3,0.8,0.8,0.8h3.4c0.1,0,0.2-0.1,0.3-0.2c0.1-0.1,0.1-0.6,0.1-1.6
			l3,0.6c-0.2,1.6-0.5,2.7-0.9,3.2c-0.3,0.4-1,0.6-1.9,0.6h-5.6c-1.5,0-2.2-0.9-2.2-2.6v-3.6L23.9,128.8L23.9,128.8z M28.7,119.9
			V119h-3.2v0.9H28.7z M28.7,122.6v-0.8h-3.2v0.8H28.7z M25.5,124.4v1.1h3.2v-1.1H25.5z M33.3,128.4c1.3,1.7,2.3,3.4,3.1,5l-3.1,1.4
			c-0.8-2-1.7-3.9-2.7-5.5L33.3,128.4z"/>
		<path d="M46,119.3v1.5c0,5.7-0.8,10.7-2.4,14.8l-3.3-2.7c1.5-3.1,2.2-7.2,2.2-12.1v-9h21.6v7.5C64.1,119.3,46,119.3,46,119.3z
			 M60.6,114.5H46v2h14.7V114.5z M46.6,120.9h3.2v10.5H61v-10.7h3.3v14.7H61v-1.1H49.7v1.1h-3.2V120.9z M50.4,122.2h3.4v-2.4H57v2.4
			h3.3v2.8H57v2.3h2.8v2.6h-9.1v-2.6h3V125h-3.4C50.4,125,50.4,122.2,50.4,122.2z"/>
		<path d="M71.7,111.4h20.7v9.4H90v1.4h3.1v2.6H90v1.6h4.4v2.6H83.6v1.3h9.3v2.7h-9.3v2.6h-3.1V133h-9.1v-2.7h9.1v-1.3H69.7v-2.6H74
			v-1.6h-3.1v-2.6H74v-1.4h-2.3L71.7,111.4L71.7,111.4z M75,115h5.4v-1.2H75V115z M80.4,118.3v-1.3H75v1.3H80.4z M80.4,122.2v-1.4
			h-3.3v1.4H80.4z M77.2,126.5h3.3v-1.6h-3.3V126.5z M83.6,113.8v1.2h5.4v-1.2H83.6z M88.9,118.3v-1.3h-5.4v1.3H88.9z M86.8,122.2
			v-1.4h-3.3v1.4H86.8z M83.6,124.9v1.6h3.3v-1.6H83.6z"/>
		<path d="M106.8,110.8h3.3v4.1h1.7v-4.1h3.4v4.1h2.3l-1.5-1.3c1.2-0.8,2.2-1.7,2.9-2.6l2.9,1.7c-0.7,0.8-1.4,1.6-2.2,2.2h3.5v2.7
			h-4.9c-0.3,0.7-0.7,1.3-1.1,1.8h5.4v2.6h-9.6v1.2h9v2.3h-9v1.4h10.4v2.7h-7.4c0.6,0.3,1.2,0.6,1.9,0.9c1.7,0.6,3.7,1.1,6,1.4
			l-1.8,3c-2.8-0.7-5-1.6-6.5-2.6c-1-0.6-1.9-1.3-2.6-2.1v5.4h-3.7v-5.4c-1,0.9-2,1.7-3,2.3c-1.9,1.1-4,1.9-6.3,2.5l-1.4-3.1
			c2.7-0.5,5.1-1.2,7.1-2.2h-6.8V127h10.4v-1.4h-9.1v-2.3h9.1V122h-9.7v-2.6h5.6c-0.3-0.7-0.6-1.3-1-1.8h-5.2v-2.7h3.5
			c-0.6-0.7-1.3-1.4-2.1-2.1l2.6-1.7c1.1,0.8,2.1,1.6,2.9,2.5l-1.6,1.3h2.7L106.8,110.8L106.8,110.8z M108.7,119.4h4.6
			c0.4-0.6,0.8-1.2,1.1-1.8h-6.5C108.2,118.2,108.4,118.8,108.7,119.4z"/>
		<path d="M132.5,112l3.8,0.7c-0.4,1.4-0.8,2.8-1.3,4h4.6v-5.9h3.7v5.9h7.8v3.2h-7.8v4.2h6.9v3.2h-6.9v4.5h9v3.1h-23.3v-3.1h10.7
			v-4.5H132v-3.2h7.6v-4.2h-6c-1,1.9-2.1,3.7-3.3,5.3l-2.1-3.2C130.2,119.5,131.6,116.2,132.5,112z"/>
		<path d="M173.3,125.2l-2.5,2c-1.3-2.1-3.2-4.1-5.6-5.9l2.2-2C169.7,120.9,171.7,122.8,173.3,125.2z"/>
		<path d="M189.3,129l3.1,1.2c-0.8,2-1.9,3.9-3.4,5.5l-3.2-2.3C187.5,131.9,188.6,130.4,189.3,129z M191.1,110.8l3.4,0.5
			c-0.3,0.6-0.6,1.2-1,1.7h16.2v2.9h-1.9v3.4h2v2.8h-2v3.7h2.7v2.9h-23.8v-2.9h2.9v-3.7h-2.2v-2.8h2.2v-1.9
			c-0.5,0.4-0.9,0.7-1.4,1.1l-1.9-2.9C188.4,114.4,190.1,112.8,191.1,110.8z M194.6,119.3v-3.4h-2.1v3.4H194.6z M192.5,125.8h2.1
			v-3.7h-2.1V125.8z M196.6,129.5c0.6,1.3,1.2,2.9,1.6,4.9l-3.8,0.5c-0.1-1.6-0.4-3.3-1.1-5.1L196.6,129.5z M199.7,119.3v-3.4h-2.1
			v3.4H199.7z M197.6,125.8h2.1v-3.7h-2.1V125.8z M202.1,129.3c0.9,1.6,1.6,3.1,1.9,4.5l-3.6,1.1c-0.2-1.5-0.7-3.1-1.5-4.8
			L202.1,129.3z M204.9,119.3v-3.4h-2.2v3.4H204.9z M202.6,125.8h2.2v-3.7h-2.2V125.8z M207.8,129.1c0.9,1.2,1.9,2.9,2.9,5.1
			l-3.8,1.4c-0.7-2.2-1.5-4-2.4-5.5L207.8,129.1z"/>
		<path d="M216.9,112.2h21.7v3.2h-7.7v5.9h6.4v3.2h-6.4v6.9h8.3v3.3h-23.7v-3.3h3.9v-12.8h3.6v12.8h4.3v-15.9h-10.3V112.2z"/>
		<path d="M244.2,111.6h9.3v1.5h2.5c-0.2-0.8-0.4-1.4-0.6-2l3.1-0.2c0.2,0.7,0.3,1.5,0.4,2.2h2.9v2.5H261c-0.2,1.1-0.5,2-0.9,2.9
			h1.8v-7.7h2.8v7.7h3.7v2.6h-3.7c0,1.9,0.1,3.5,0.2,4.8c0.5-1.2,0.9-2.6,1.2-4.1l2.4,1.3c-0.6,2.5-1.6,4.8-3.1,6.9
			c0.4,1.3,0.6,2,0.8,2c0.3,0,0.5-1,0.5-3.1l2.1,1.2c-0.3,2.5-0.7,4-1.4,4.6c-0.5,0.5-0.9,0.8-1.3,0.8c-1.1,0-2-0.9-2.7-2.8
			c-0.9,1-1.9,1.9-3.1,2.8l-2.4-1.9c0.6-0.4,1.1-0.7,1.5-1.1h-3.4v1.5h-2.6V122h7.5v9.1c0.6-0.5,1.2-1.1,1.6-1.6
			c-0.4-2.1-0.6-5-0.6-8.5h-9.5v14.5h-2.7v-4.3c-1.6,0.6-3.3,1.2-5.2,1.7l-0.5-3.2c0.4-0.1,0.7-0.1,1.1-0.2v-15.3h-0.9L244.2,111.6
			L244.2,111.6z M247.8,117.1h1.9v-2.7h-1.9V117.1z M247.8,122.7h1.9v-2.8h-1.9V122.7z M247.8,129c0.6-0.2,1.3-0.4,1.9-0.7v-2.9
			h-1.9V129z M252.4,118.5h2.1c-0.2-1.1-0.5-2-0.8-2.9h-0.6v-1.2h-0.7V118.5z M256,126.2h2.4v-1.8H256V126.2z M256,130.1h2.4v-1.9
			H256V130.1z M257,118.5h0.7c0.4-0.9,0.6-1.8,0.9-2.9h-2.4C256.5,116.6,256.8,117.5,257,118.5z M267.1,112.8
			c0.8,1.3,1.4,2.6,1.8,3.8l-2.5,1.3c-0.4-1.6-0.9-3.1-1.5-4.3L267.1,112.8z"/>
		<path d="M275.2,113.5h20.6v3.2h-8.6v13.6h10.3v3.2h-23.9v-3.2h10v-13.6h-8.4L275.2,113.5L275.2,113.5z"/>
		<path d="M307.9,110.8l3.5,0.9c-0.5,1.8-1.2,3.6-2,5.3v18.3H306v-12.5c-0.8,1.2-1.8,2.3-2.7,3.4l-1.3-4
			C304.7,119.2,306.6,115.4,307.9,110.8z M314.7,110.8l3.8,0.7c-0.3,1.1-0.7,2.2-1.1,3.1h9.6v3.2h-9v3h7.6v3.2h-7.6v3.4h8v3.1h-8
			v4.9h-3.5v-15.2c-0.8,1.3-1.7,2.6-2.7,3.8l-2.1-3.2C312,118.3,313.7,115,314.7,110.8z"/>
		<path d="M332.2,127.7l2.5,0.1c0,2.2-0.2,4.5-0.5,6.9l-3-0.3C331.8,132.4,332.1,130.2,332.2,127.7z M335.4,110.8l3.2,1
			c-1,2.3-1.9,4.1-2.7,5.4c0.6-0.1,1.2-0.2,1.8-0.3c0.6-1,1.1-2,1.7-3l2.6,1.6c-1.7,3.1-3.7,5.8-5.8,8.2c0.9-0.1,1.8-0.2,2.7-0.3
			c-0.2-0.7-0.4-1.3-0.6-1.9l2.3-0.6c0.6,1.3,1.2,3.1,1.8,5.5l-2.8,0.9c-0.1-0.5-0.1-0.9-0.2-1.4c-2.5,0.5-5,1-7.4,1.4l-0.5-3.3
			c0.4,0,0.9,0,1.3,0c1-1.2,2-2.5,2.9-3.7c-1.1,0.2-2.4,0.3-3.6,0.4l-0.5-3.1c0.4,0,0.9,0,1.3-0.1
			C333.9,115.7,334.7,113.5,335.4,110.8z M337.9,127.7c0.3,1.7,0.6,3.6,0.8,5.9l-2.9,0.4c0-1.9-0.1-4-0.4-6.1L337.9,127.7z
			 M340.7,127.1c0.6,1.2,1.2,2.8,1.8,4.9h4.5v-3h-4.4v-2.9h12.7v2.9h-4.9v3h5.5v2.9h-14.2v-2.2l-1.6,0.6c-0.4-2.2-0.9-4.1-1.5-5.6
			L340.7,127.1z M343.6,115l3.1,0.8c-0.9,1.9-1.7,3.4-2.5,4.3c0.8,1.2,1.7,2.6,2.6,4.3l-3,1.2c-0.7-1.8-1.6-3.6-2.7-5.5
			C342.1,118.7,342.9,116.9,343.6,115z M342.1,111.7h13.5v2.8h-13.5V111.7z M347.9,115.1l3,0.8c-0.9,1.8-1.6,3.2-2.3,4.2
			c0.8,1.2,1.6,2.6,2.6,4.2l-3,1.2c-0.7-1.8-1.6-3.6-2.7-5.4C346.5,118.7,347.3,117,347.9,115.1z M352.5,115l3,0.8
			c-0.9,1.9-1.7,3.4-2.4,4.3c0.9,1.1,1.9,2.4,2.9,4l-3,1.2c-0.8-1.7-1.8-3.4-3-5.2C350.9,118.7,351.8,116.9,352.5,115z"/>
		<path d="M361.2,126.5l1.8,0.2c-0.1,2.8-0.3,5.3-0.7,7.5l-1.9-0.6C360.7,131.9,361,129.5,361.2,126.5z M371,111.5v2.5h-2.5v1.3h2.1
			v0.7c2.3-1.3,4.2-3,5.7-5.3h3c1.8,2.2,4,4,6.5,5.4l-1.5,2.8c-0.9-0.6-1.8-1.1-2.5-1.7v1.3H374v-1.2c-0.7,0.6-1.5,1.1-2.3,1.6
			l-1.2-2.3v0.9h-2.1v1.5h2.1v2.3h-2.1v1.6h2.8v2.8c0,3.5-0.2,5.9-0.5,7.2c1.7-1.6,2.6-3.5,2.8-5.6l2.7,0.4
			c-0.1,0.6-0.2,1.2-0.3,1.7c0.8,0.8,1.5,1.6,2.2,2.4c1-1.4,1.6-2.9,1.8-4.5l2.8,0.4c-0.1,0.6-0.2,1.2-0.4,1.8
			c1.2,0.9,2.2,1.9,3.1,3.1l-2,2.3c-0.5-1-1.2-2-2-2.9c-0.6,1.2-1.3,2.3-2.2,3.2l-2.1-1.8l-0.7,0.7c-0.5-0.7-1-1.5-1.5-2.2
			c-0.6,1.3-1.4,2.4-2.4,3.3l-2.1-1.8c0,0.1-0.1,0.1-0.1,0.2c-0.5,0.9-1.4,1.3-2.7,1.3h-1.2l-0.5-2.8c0.9,0.1,1.4,0.1,1.7,0.1
			c0.3,0,0.5-0.2,0.6-0.5c0.1-0.2,0.2-0.7,0.2-1.5l-1,0.2c-0.1-1.4-0.3-2.9-0.7-4.5l1.2-0.3c0.3,1,0.5,2,0.7,2.9v-0.1l0-3.1h-7.4
			v-14.1H371z M364.7,126.6c0.3,2.3,0.4,4.5,0.4,6.8l-1.7,0.1c0-3,0-5.3-0.1-6.8L364.7,126.6z M365.9,115.4V114h-1.7v1.3H365.9z
			 M365.9,119.2v-1.5h-1.7v1.5H365.9z M364.2,121.5v1.6h1.7v-1.6H364.2z M366.3,126.4c0.3,1.5,0.5,3.3,0.7,5.4l-1.5,0.2
			c0-1.7-0.2-3.6-0.5-5.5L366.3,126.4z M371.7,119.7h5.8v7.5h-5.8V119.7z M375.2,124.9v-2.8H374v2.8H375.2z M375.5,116.1h4.8
			c-1-0.9-1.9-1.8-2.6-2.7C377.1,114.4,376.4,115.3,375.5,116.1z M378.5,119.7h5.9v7.6h-5.9V119.7z M382,125v-2.9h-1.3v2.9H382z"/>
		<path d="M391.9,113.2h6.9v-2.1h3.6v2.1h5.8v2.6c1.1-1,2.1-2,2.9-3.1l3.2,1.3c-1.3,1.5-2.6,2.9-4.1,4.2h3.8v2.9h-7.7
			c-0.6,0.4-1.2,0.8-1.8,1.1c-0.5,0.3-1.1,0.6-1.6,0.9h8.6v12.1H408v-0.9H397v1.2h-3.5v-8.6c-1,0.3-2,0.6-3,0.9l-1.3-3.4
			c4.1-0.9,7.6-2,10.4-3.2h-9.4v-2.9h8.5v-2h-6.9L391.9,113.2L391.9,113.2z M397,127.4H408v-1.5H397V127.4z M397,131.5H408V130H397
			V131.5z M405.2,118.1c1-0.6,1.8-1.3,2.6-2h-5.4v2H405.2z"/>
		<path d="M428,111.6v2.1c-0.3,1.7-0.9,3.8-1.8,6.4c1.1,1.9,1.7,3.6,1.7,5.1c0,1.6-0.4,2.8-1,3.5c-0.5,0.6-1.9,1-4.1,1v5.9h-3.3v-24
			H428z M422.7,126.7c0.3,0,0.5,0.1,0.6,0.1c0.9,0,1.3-0.6,1.4-1.6c0-1.4-0.6-3.1-1.8-5.1c0.9-1.9,1.5-3.7,1.9-5.4h-2.1V126.7z
			 M428.8,111.7h13v11.9h-4.9c0.1,1.2,0.4,2.2,0.8,3.2c1.2-0.7,2.2-1.7,3-2.7l2.2,2.7c-1,1-2.3,1.9-3.6,2.5c1.1,1.2,2.5,2.3,4.1,3.1
			l-2.6,3.2c-4.3-3-6.7-6.9-7.1-11.9h-1.6v7.1c1-0.3,2-0.7,3-1.1v3.4c-2.4,1-5.1,1.9-8.2,2.4l-0.6-3.7c0.9-0.1,1.7-0.1,2.5-0.3
			L428.8,111.7L428.8,111.7z M432.1,116.2h6.4v-1.8h-6.4V116.2z M432.1,120.9h6.4v-2h-6.4V120.9z"/>
		<path d="M461.7,111.1c0.3,0.8,0.5,1.7,0.6,2.5h9.5v6h-3v2.1h-6.9v2.9h7.9v3.1h-7.9v3.4c1.9,0.2,4.2,0.3,7,0.3
			c0.4,0,1.4-0.1,3.1-0.2l-0.7,3.6h-3.6c-4.7-0.1-8.1-0.5-10.4-1.3c-1.5-0.6-2.9-1.6-4.2-2.9c-0.8,1.7-1.8,3.3-3,4.6l-2.8-2.6
			c2.7-2.7,4.2-6,4.5-9.7l3.4,0.5c-0.2,1.4-0.5,2.8-0.9,4c0.9,1.2,1.9,2,3.2,2.6c0.3,0.1,0.6,0.2,1,0.3v-8.7h-7.6v-2.1h-1.7v-6h9.1
			c-0.2-0.8-0.5-1.5-0.7-2.1L461.7,111.1z M452.6,118.7h15.7v-2.1h-15.7V118.7z"/>
		<path d="M483,123.2c0,2.2-0.4,4.5-1.2,6.9c-0.8,2.4-1.8,4.6-3,6.4h-2.7c2.8-5.1,4.2-9.5,4.2-13.3c0-3.9-1.4-8.3-4.2-13.4h2.7
			c1.3,1.8,2.3,3.9,3,6.4C482.6,118.7,483,121.1,483,123.2z"/>
	</g>
</g>
</svg>
