<?xml version="1.0" encoding="UTF-8"?>
<!-- Generator: Adobe Illustrator 21.0.2, SVG Export Plug-In . SVG Version: 6.00 Build 0)  -->
<svg version="1.1" id="圖層_1" xmlns="http://www.w3.org/2000/svg" xmlns:xlink="http://www.w3.org/1999/xlink" x="0px" y="0px" width="326.7px" height="142.9px" viewBox="0 0 326.7 142.9" style="enable-background:new 0 0 326.7 142.9;" xml:space="preserve">
<style type="text/css">
	.st0{fill:#BECED1;}
	.st1{fill:#FFFFFF;}
</style>
<g>
	<rect x="7.3" y="58.3" class="st0" width="319.3" height="1.5"/>
	<rect x="7.3" class="st0" width="319.3" height="1.5"/>
	<g>
		<g>
			<path class="st1" d="M97.1,13.3h15.3v3.4h-4.1v2.1h3.9v23.1h-3.4v-1.5h-7.9v1.5h-3.4V18.8h3.7v-2.1h-4.1V13.3z M100.9,31.7h7.9     V30h-1.1c-1.7,0-2.6-0.9-2.6-2.8v-5.1h-0.7v1.6c0,1.6-0.2,3-0.6,4.2c-0.3,1.2-0.8,2.1-1.3,2.9l-1.5-1.2V31.7z M100.9,27.9     c0.2-0.4,0.4-0.8,0.5-1.3c0.3-0.9,0.4-1.9,0.4-2.8v-1.7h-0.9V27.9z M100.9,37h7.9V35h-7.9V37z M104.4,16.7v2.1h0.7v-2.1H104.4z      M107.7,22.1v4.3c0,0.5,0.3,0.8,0.8,0.8h0.4v-5.1H107.7z M113.7,13.2h12.2v15.3h-3.7v-1.5h-5.1v9.4c0,0.7,0.1,1.2,0.4,1.2     c0.2,0.1,1,0.2,2.4,0.2c0.9,0,1.5,0,1.8-0.1c0.4-0.1,0.8-0.2,1-0.5c0.3-0.4,0.4-1.6,0.4-3.7l3.7,1.8c-0.3,2.7-0.7,4.4-1.3,5.2     c-0.4,0.3-0.8,0.6-1.3,0.6c-1.3,0.1-2.8,0.2-4.4,0.2c-2.4,0-3.9-0.1-4.5-0.2c-1.3-0.1-2-1.5-2-4V23.4h8.8v-6.6h-8.5V13.2z"/>
			<path class="st1" d="M133,14.9h4.3v-2.3h3.2v2.3h4.3V18h-4.3v1.3h4.2v13.4h-4.3v1.5h4.5v3.2h-4.5v4.4h-3.2v-4.4h-4.3v-3.2h4.3     v-1.5H133V19.3h4.3V18H133V14.9z M136.3,24.4h1.3v-1.8h-1.3V24.4z M136.3,29.4h1.3v-1.8h-1.3V29.4z M140.3,22.6v1.8h1.3v-1.8     H140.3z M140.3,27.5v1.8h1.3v-1.8H140.3z M145.4,13.9h6.3v-1.4h3.4v1.4h7v2.9h-7v0.9h6.1v10.3h-0.3c0.7,0.9,1.4,1.8,1.9,2.7     l-2.7,1.5c-0.2-0.4-0.4-0.8-0.6-1.2c-0.1,0-0.3,0-0.4,0v1.5h3.2v3.1H159v2.1c0,1.7-0.3,2.8-0.9,3.3c-0.7,0.6-1.8,0.9-3.4,0.9     c-0.6,0-1.2,0-1.8-0.1l-0.6-3.6c0.8,0.3,1.6,0.4,2.4,0.4c0.6,0,0.9-0.5,0.9-1.5v-1.4h-4.9c0.6,0.7,1.1,1.5,1.5,2.2l-2.8,1.6     c-0.5-1-1.1-1.9-1.9-2.8l1.7-1h-3.7v-3.1h10.2v-1.2c-2.9,0.3-6.1,0.4-9.6,0.4l-0.5-2.8c2.2,0,4.2,0,6.1-0.1v-0.9h-6V17.8h6v-0.9     h-6.3V13.9z M148.9,21.6h2.7v-0.9h-2.7V21.6z M148.9,25.1h2.7v-0.9h-2.7V25.1z M155.1,20.7v0.9h2.8v-0.9H155.1z M155.1,24.3v0.9     h2.8v-0.9H155.1z M157.7,28.7c-0.1-0.1-0.2-0.3-0.3-0.4l0.4-0.3h-2.6v0.8C156,28.8,156.8,28.8,157.7,28.7z"/>
			<path class="st1" d="M170.1,14.6h4.2v-2.2h3.6v2.2h3.1v1.9c0.5-0.7,1.1-1.4,1.5-2l3.1,1.7c-0.8,1.2-1.7,2.3-2.5,3.4h1.9v2     c0.4-0.7,0.7-1.5,0.9-2.2c1-2.4,1.8-4.6,2.3-6.7l3.5,1c-0.3,1.4-0.7,2.8-1.2,4.2h7.3v3.7h-1.6c-0.4,2.6-1,5.3-1.9,7.8     c-0.4,1.3-0.9,2.5-1.5,3.6c1.5,2.2,3.2,4,5.3,5.5l-2.3,3.6c-2.1-1.7-3.9-3.5-5.2-5.4c-0.1,0.1-0.2,0.3-0.3,0.4     c-1.6,2.2-3.4,3.8-5.2,4.7l-2-3.2c1.8-1,3.3-2.4,4.6-4.2c0.3-0.4,0.6-0.8,0.8-1.2c-0.9-1.7-1.6-3.6-2.2-5.8     c-0.1,0.3-0.3,0.5-0.4,0.8l-2.3-1.8v0.9c-1.4,1.7-3,3.1-4.9,4.4v0.6c2-0.3,3.8-0.6,5.5-0.9l0.5,3.3c-1.9,0.4-3.9,0.7-6,1v2.4     c0,1.6-0.3,2.6-0.9,3c-0.6,0.6-1.7,0.9-3.2,0.9c-0.8,0-1.6,0-2.3-0.1l-0.7-3.7c1,0.3,2,0.5,3,0.5c0.1,0,0.3-0.1,0.4-0.2     c0.1-0.2,0.1-0.6,0.1-1.1v-1.1c-1.8,0.3-3.8,0.5-5.7,0.7l-0.7-3.7c2.3-0.2,4.4-0.4,6.4-0.6v-3.7l1.6,0.1c0.8-0.5,1.6-1,2.3-1.7     h-3.7c-1.6,1.3-3.3,2.6-5,3.7l-2-3.2c2.4-1.4,4.6-3.1,6.8-5.1h-6.5v-3.3h5.6v-1.6h-4.2V14.6z M178.5,19.6c0.5-0.6,1-1.1,1.5-1.7     h-2v1.7H178.5z M183.5,24.4c0.3-0.5,0.6-1.1,0.9-1.6h-4.1c-0.5,0.5-1,1.1-1.5,1.6H183.5z M188.6,22.8c0.6,2.2,1.2,4.2,2,6     c0.2-0.4,0.3-0.7,0.4-1.1c0.7-1.9,1.1-4,1.5-6.2h-3.4C189,21.9,188.8,22.4,188.6,22.8z"/>
			<path class="st1" d="M217.2,12.6h3.9v2.1h12.4v3.3H229c1.2,1.2,2.4,2.5,3.6,3.9l-3.2,2.6c-0.4-0.6-0.9-1.2-1.3-1.7     C222,23.5,215,24,207,24.2l-0.7-3.6c1.4,0,2.7,0,4.1,0c0.6-0.9,1.2-1.8,1.7-2.6h-7.4v-3.3h12.5V12.6z M230.4,24.6v13.1     c0,2.8-1.6,4.2-4.9,4.2c-1.2,0-2.5-0.1-4.1-0.4l-0.8-3.7c1.8,0.4,3.4,0.6,4.9,0.6c0.8,0,1.2-0.5,1.3-1.4h-15.2v4.9H208V24.6     H230.4z M211.6,29.4h15.2v-1.3h-15.2V29.4z M211.6,33.9h15.2v-1.4h-15.2V33.9z M225.7,19.9c-0.4-0.4-0.8-0.8-1.2-1.2l1.1-0.8     h-9.1c-0.5,0.9-1.1,1.7-1.7,2.5C218.5,20.4,222.2,20.2,225.7,19.9z"/>
		</g>
	</g>
	<g>
		<g>
			<path class="st1" d="M2,105.4h10.3V116c0,0.5-0.1,0.8-0.3,1.1c-0.2,0.3-0.5,0.4-1,0.4H9.2l-0.3-1.3l1.8,0.1     c0.3,0,0.4-0.1,0.4-0.4v-2.5H7.5v3.9H6.2v-3.9H2.6c0,0.5-0.1,1-0.2,1.4c-0.2,1-0.6,1.9-1.1,2.9l-1.2-1c0.5-0.7,0.8-1.5,1-2.3     c0.1-0.8,0.2-1.6,0.2-2.3v-6.7H2z M2.7,108.8h3.6v-2.2H2.7V108.8z M2.7,112.2h3.6v-2.3H2.7V112.2z M7.5,106.6v2.2H11v-2.2H7.5z      M7.5,109.9v2.3H11v-2.3H7.5z"/>
			<path class="st1" d="M21.6,116.2h-6.1v-1.2c1.3-1.2,2.3-2.2,3-3.1c1.1-1.3,1.6-2.3,1.6-2.9c0-1-0.5-1.5-1.6-1.5     c-1,0-1.5,0.6-1.5,1.8h-1.4c0-2,1-3,2.9-3c0.9,0,1.6,0.2,2.1,0.7c0.6,0.5,0.9,1.1,0.9,2c0,1.3-1.4,3.3-4.2,6h4.3V116.2z"/>
			<path class="st1" d="M31.2,111.3c0,1.3-0.2,2.4-0.6,3.3c-0.6,1.1-1.5,1.7-2.8,1.7c-1.3,0-2.2-0.6-2.7-1.7     c-0.4-0.8-0.6-1.9-0.6-3.3c0-1.3,0.2-2.5,0.6-3.3c0.6-1.2,1.5-1.8,2.7-1.8c1.3,0,2.2,0.6,2.8,1.8C31,108.9,31.2,110,31.2,111.3z      M29.8,111.3c0-1-0.1-1.8-0.4-2.4c-0.3-0.9-0.9-1.4-1.7-1.4s-1.3,0.5-1.7,1.4c-0.2,0.6-0.3,1.5-0.3,2.4c0,2.5,0.7,3.8,2,3.8     C29.1,115.1,29.8,113.9,29.8,111.3z"/>
			<path class="st1" d="M36.7,104.8l1.1,0.7c-0.2,0.3-0.4,0.7-0.5,0.9h8.6v1.1h-4.5v2h4.1v1.1h-4.1v2.8h4.6v1.2h-4.6v3h-1.3v-3h-6.6     v-1.2h2.1v-4h4.5v-2h-3.6c-0.1,0.1-0.2,0.3-0.3,0.4c-0.6,0.7-1.3,1.4-2.2,2.1l-0.8-1.3c0.7-0.4,1.3-1,1.9-1.8     C35.7,106.5,36.2,105.7,36.7,104.8z M40.1,113.5v-2.8h-3.2v2.8H40.1z"/>
			<path class="st1" d="M60.5,106.8v1.3h-3.9c0.1,2,0.4,3.6,0.8,4.7c0.7-1,1.3-2.2,1.8-3.8l1.2,0.5c-0.8,2.1-1.6,3.6-2.4,4.6     c0.6,1.2,1.1,1.8,1.3,1.8c0.2,0,0.3-0.7,0.5-2l1.1,0.8c-0.3,1.3-0.6,2.1-0.9,2.4c-0.2,0.2-0.4,0.3-0.6,0.3c-0.6,0-1.2-0.3-1.8-1     c-0.3-0.4-0.6-0.8-0.8-1.2c-0.9,0.8-2,1.5-3.3,2.2l-0.8-1.2c1.4-0.7,2.6-1.4,3.5-2.3c-0.2-0.5-0.3-1-0.5-1.5     c-0.3-1.2-0.5-2.7-0.6-4.5h-4.7v1.7h3.8c0,2.5-0.2,4.1-0.3,4.8c-0.2,0.8-0.7,1.2-1.4,1.2h-1.8l-0.2-1.3c0.9,0.1,1.6,0.1,2.1,0.1     c0.1,0,0.2-0.2,0.3-0.6c0.1-0.5,0.1-1.4,0.1-2.9h-2.5c0,1-0.1,2-0.3,3.1c-0.3,1.3-0.7,2.6-1.2,3.8l-1.1-1c0.5-1,0.9-2.1,1.1-3.2     c0.2-1.1,0.2-2.2,0.2-3.2v-3.7h5.9c0-0.6,0-1.3,0-2h1.3c0,0.7,0,1.3,0,2h2c-0.4-0.4-0.8-0.8-1.4-1.1l0.9-0.8     c0.7,0.4,1.2,0.8,1.7,1.2l-0.7,0.7H60.5z"/>
			<path class="st1" d="M63.5,106.8H65c-0.2-0.5-0.4-1-0.6-1.4l1.3-0.2c0.2,0.5,0.4,1,0.5,1.6h1c0.2-0.6,0.3-1.3,0.4-1.9l1.2,0.2     c-0.1,0.6-0.2,1.2-0.4,1.8h5.5c-0.1,1-0.2,1.8-0.4,2.5h1.3c-0.1,1-0.2,1.8-0.4,2.5h1.1c0,3.1-0.3,4.9-0.8,5.4     c-0.3,0.4-1.2,0.6-2.8,0.6l-0.3-1.4c0.4,0.1,0.8,0.1,1.1,0.1c0.5,0,0.9-0.1,1.2-0.4c0.2-0.2,0.4-1.3,0.5-3.2h-8.4     c-0.6,0.9-1.3,1.7-2,2.3l-1.1-0.8c1.9-1.7,3.2-3.8,4.1-6.3h-3.4V106.8z M65.6,113.7l1.2,0.2c-0.4,1.3-0.9,2.5-1.5,3.5l-1.1-0.7     C64.8,115.8,65.3,114.8,65.6,113.7z M67.1,110.4c-0.2,0.5-0.4,0.9-0.6,1.3h6.6c0.1-0.4,0.2-0.8,0.2-1.3H67.1z M68.4,113.9     c0.2,0.8,0.4,2,0.5,3.4l-1.3,0.2c0-1.5-0.1-2.6-0.3-3.4L68.4,113.9z M68,108c-0.1,0.5-0.3,0.9-0.4,1.3h4.6     c0.1-0.4,0.2-0.8,0.2-1.3H68z M70.4,113.5c0.3,0.8,0.6,1.7,0.9,2.8l-1.2,0.3c-0.2-0.9-0.4-1.9-0.8-2.7L70.4,113.5z M72.4,113.3     c0.4,0.8,0.7,1.5,0.9,2.1l-1.1,0.4c-0.2-0.8-0.5-1.5-0.8-2.3L72.4,113.3z"/>
			<path class="st1" d="M77.8,110.1H90v1.3H77.8V110.1z"/>
			<path class="st1" d="M94.7,104.9l1.1,0.5c-0.3,1-0.6,1.9-0.9,2.6v9.7h-1.2v-7.6c-0.4,0.5-0.7,1.1-1.1,1.6l-0.4-1.5     c0.5-0.7,1-1.5,1.4-2.3C93.9,107.2,94.3,106.2,94.7,104.9z M104.3,105.5v12H103v-0.7h-5.7v0.7H96v-12H104.3z M97.3,115.7h5.7v-9     h-5.7V115.7z M97.7,108.3h1.8v-1.2h1.2v1.2h1.9v1.1h-1.9v1.4h1.4v4h-3.9v-4h1.3v-1.4h-1.8V108.3z M100.9,113.7v-1.8h-1.6v1.8     H100.9z"/>
			<path class="st1" d="M107,105.7h5.6V105h1.2v0.7h5.7v1h-5.7v0.7h4.7v4.3h-0.7c0.6,0.6,1,1.2,1.4,1.6l-1,0.7     c-0.1-0.2-0.3-0.5-0.5-0.7c-0.4,0-0.7,0.1-1.1,0.1v0.9h2.9v1h-2.9v1.1c0,0.5-0.1,0.8-0.3,0.9c-0.2,0.2-0.6,0.3-1.1,0.3h-1.4     l-0.3-1.3c0.5,0.1,1,0.1,1.3,0.1c0.3,0,0.5-0.1,0.5-0.3v-0.9H107v-1h8.4v-0.8c-2.3,0.1-4.9,0.3-7.7,0.4l-0.2-1.1     c1.8,0,3.5-0.1,5.2-0.2v-0.9h-4.6v-4.3h4.6v-0.7H107V105.7z M109.3,109h3.3v-0.8h-3.3V109z M112.7,110.7v-0.8h-3.3v0.8H112.7z      M110.2,115.3c1,0.4,1.8,0.8,2.5,1.2l-0.9,0.9c-0.6-0.4-1.4-0.8-2.5-1.3L110.2,115.3z M113.9,108.3v0.8h3.4v-0.8H113.9z      M117.3,110.7v-0.8h-3.4v0.8H117.3z M113.9,111.6v0.8c1.1,0,2.2-0.1,3.3-0.2c-0.1-0.1-0.2-0.3-0.3-0.4l0.5-0.3H113.9z"/>
			<path class="st1" d="M123.6,108h8.8v1.1h-2.9c-0.4,0.3-0.7,0.6-1.1,0.8c0.5,0.6,0.8,1.2,1.1,1.8c1-0.4,2-1.1,2.9-2l1,0.9     c-0.6,0.5-1.2,1-1.9,1.4c0.3,0.7,0.7,1.4,1.1,2c0.4,0.6,1.1,1.2,1.8,1.9l-0.9,1.1c-0.9-0.8-1.6-1.6-2.1-2.5c-0.4-0.6-0.7-1.3-1-2     c-0.2,0.1-0.4,0.2-0.6,0.3c0.1,0.6,0.2,1.2,0.2,1.8c0,1.1-0.2,1.8-0.5,2.3c-0.3,0.5-1.3,0.7-3,0.7l-0.4-1.4     c0,0.1,0.3,0.1,0.8,0.1c0.7,0,1.2-0.1,1.4-0.3c0.2-0.3,0.4-0.8,0.4-1.5c0-0.2,0-0.4,0-0.6c-0.8,0.6-1.5,1.1-2.1,1.4     c-1,0.5-2.3,1.1-3.8,1.6l-0.7-1.2c1.5-0.4,2.9-0.9,4-1.5c0.9-0.4,1.7-1,2.4-1.6c0-0.1-0.1-0.3-0.1-0.4c0-0.1-0.1-0.3-0.1-0.4     c-0.8,0.5-1.4,1-2,1.2c-0.9,0.4-2,0.8-3.4,1.2l-0.7-1.1c1.3-0.3,2.5-0.7,3.6-1.1c0.8-0.3,1.4-0.7,2.1-1.1     c-0.1-0.2-0.2-0.4-0.3-0.5c-1.2,0.5-2.6,1-4.2,1.3l-0.7-1.1c1.8-0.3,3.1-0.7,4.1-1.1c0.4-0.2,0.8-0.3,1.2-0.5h-3.9V108z      M128.1,104.8c0.2,0.3,0.3,0.7,0.5,1h5.5v2.9h-1.3v-1.6h-9.6v1.6H122v-2.9h5.2c-0.2-0.3-0.3-0.6-0.5-0.8L128.1,104.8z"/>
			<path class="st1" d="M144.6,111.3c0,0.5-0.2,1-0.6,1.3c-0.4,0.4-0.8,0.5-1.4,0.5s-1-0.2-1.4-0.5c-0.4-0.4-0.6-0.8-0.6-1.3     s0.2-1,0.6-1.3c0.4-0.4,0.8-0.5,1.4-0.5s1,0.2,1.4,0.5C144.5,110.3,144.6,110.8,144.6,111.3z M143.7,111.3c0-0.3-0.1-0.5-0.3-0.6     c-0.2-0.2-0.4-0.3-0.7-0.3s-0.5,0.1-0.7,0.3c-0.2,0.2-0.3,0.4-0.3,0.6c0,0.3,0.1,0.5,0.3,0.6c0.2,0.2,0.4,0.3,0.7,0.3     s0.5-0.1,0.7-0.3C143.6,111.8,143.7,111.6,143.7,111.3z"/>
			<path class="st1" d="M3,129.8l1.1,0.5c-0.4,1.1-0.7,2-1.1,2.8v9.5H1.8v-7.4c-0.4,0.6-0.8,1.1-1.3,1.7L0,135.3     c0.6-0.8,1.1-1.5,1.6-2.3C2.1,132.2,2.5,131.2,3,129.8z M11.4,130.2l0.7,1.2c-1,0.3-2.2,0.5-3.5,0.7v3.5h4v1.3h-4v4h3.6v1.2H4     v-1.2h3.3v-4H3.6v-1.3h3.7v-3.4c-0.9,0.1-1.8,0.1-2.8,0.1L4,130.9C6.9,130.9,9.4,130.7,11.4,130.2z"/>
			<path class="st1" d="M17.4,129.8l1.1,0.5c-0.3,0.9-0.6,1.7-0.9,2.4v9.9h-1.3v-7.7c-0.4,0.6-0.8,1.1-1.3,1.7l-0.4-1.5     c0.5-0.7,1-1.5,1.4-2.3C16.6,132.1,17,131.1,17.4,129.8z M18.6,130.7h8.9v1.2h-1.1v9.4c0,0.5-0.1,0.9-0.3,1.1     c-0.2,0.2-0.6,0.3-1.1,0.3h-1.8l-0.3-1.4c0.7,0.1,1.2,0.1,1.6,0.1c0.4,0,0.5-0.1,0.5-0.3v-9.1h-6.5V130.7z M19,133.6h4.6v5.8H19     V133.6z M22.4,138.1v-3.3h-2.2v3.3H22.4z"/>
			<path class="st1" d="M35.1,129.8h1.5v3.3c0.5,2,1.2,3.7,2.1,5c0.7,1.1,2,2.2,3.7,3.3l-0.9,1.2c-1.4-0.9-2.5-1.8-3.2-2.7     c-0.9-1.1-1.7-2.4-2.2-3.9c-0.5,1.6-1.1,2.9-1.9,3.7c-0.8,1-2.1,1.9-3.8,2.9l-0.9-1.2c2.1-1.3,3.6-2.7,4.4-4.2     c0.8-1.4,1.2-2.8,1.3-4.2V129.8z"/>
			<path class="st1" d="M44.1,132.2h2.4v-2.4h1.3v2.4h2.9c0,4.9-0.1,7.7-0.2,8.6c-0.1,0.7-0.3,1.2-0.5,1.4c-0.3,0.3-0.8,0.4-1.6,0.4     c-0.3,0-0.7,0-1.1-0.1l-0.2-1.4c0.4,0.1,0.9,0.1,1.3,0.1c0.5,0,0.7-0.3,0.8-0.9c0.1-0.7,0.2-3,0.2-7h-1.6     c-0.1,1.8-0.2,3.2-0.5,4.5c-0.4,1.5-1,3.1-2.1,4.7l-1.1-1c0.9-1.3,1.5-2.7,1.9-4.1c0.3-1,0.4-2.3,0.5-4.1h-2.3V132.2z      M56.7,131.6v11h-1.3v-1h-2.7v1.1h-1.3v-11.1H56.7z M52.6,140.4h2.7v-7.5h-2.7V140.4z"/>
			<path class="st1" d="M64.8,132.3c0-0.2-0.1-0.4-0.1-0.6h-3.8v-1.3h5.1c0.2,2.7,0.8,4.8,1.8,6.4c0.9,1.6,2.3,3.1,4,4.4l-0.9,1.4     c-2-1.8-3.4-3.4-4.2-5c-0.5-0.9-0.9-1.9-1.2-2.9c-0.4,1.5-0.9,2.7-1.5,3.7c-0.8,1.3-2.1,2.8-4,4.3l-0.9-1.3     c1.8-1.3,3.1-2.7,3.9-4.1C63.6,135.9,64.3,134.3,64.8,132.3z"/>
			<path class="st1" d="M84.2,133.5v7.7h2v1.1H73.8v-1.1h2v-7.7H84.2z M80.3,129.8c0.2,0.3,0.3,0.7,0.5,1.1H86v3.2h-1.3v-2h-9.3v2     H74V131h5.4c-0.2-0.3-0.3-0.7-0.5-0.9L80.3,129.8z M77.1,136.1h5.8v-1.4h-5.8V136.1z M77.1,138.6h5.8v-1.4h-5.8V138.6z      M77.1,141.2h5.8v-1.4h-5.8V141.2z"/>
			<path class="st1" d="M91.9,129.9l0.9,0.8c-1,1.2-2.1,2.3-3.6,3.2l-0.9-1.1C89.7,132,90.8,131,91.9,129.9z M91.7,133.3l1.1,0.5     c-0.4,0.9-0.9,1.7-1.4,2.4v6.4h-1.3v-4.9c-0.4,0.4-0.9,0.8-1.4,1.2l-0.5-1.6c0.7-0.6,1.3-1.1,1.8-1.7     C90.7,135,91.2,134.3,91.7,133.3z M92.5,135.9h8.3v1h-1.5v0.8h1.8v1.1h-1.8v2.4c0,0.5-0.1,0.8-0.3,1c-0.2,0.2-0.6,0.3-1.1,0.3     h-1.6l-0.3-1.3c0.6,0.1,1.2,0.1,1.6,0.1c0.3,0,0.5-0.1,0.5-0.3v-2.2h-5.9v-1.1H98v-0.8h-5.5V135.9z M93.1,130.4h7.3v4.7h-7.3     V130.4z M94.7,139.2c0.4,0.5,0.8,1,1.1,1.6l-1.2,0.5c-0.4-0.7-0.7-1.3-1.2-1.8L94.7,139.2z M94.4,132.3h4.8v-0.9h-4.8V132.3z      M99.2,134.1v-0.9h-4.8v0.9H99.2z"/>
			<path class="st1" d="M109.1,129.9l0.4,1.3c-0.7,0.2-1.5,0.4-2.3,0.6v1.9h2.5v1.3h-2.5v0.1c0.9,0.9,1.8,1.8,2.7,2.9l-0.8,1.1     c-0.8-1.1-1.4-2-1.9-2.6v6.2H106v-6c-0.3,0.6-0.5,1.1-0.7,1.5c-0.5,0.8-1,1.5-1.7,2.3l-0.7-1.2c0.7-0.6,1.2-1.3,1.8-2.2     c0.4-0.6,0.7-1.3,1-2h-2.4v-1.3h2.9V132c-0.7,0.1-1.5,0.2-2.4,0.3l-0.3-1.2C105.5,130.9,107.4,130.5,109.1,129.9z M110.7,130.9     h1.3v8.9h-1.3V130.9z M113.8,129.9h1.4v11.2c0,0.5-0.1,0.9-0.4,1.1c-0.2,0.2-0.6,0.3-1.2,0.3h-2.2l-0.3-1.4     c0.9,0.1,1.6,0.1,2.1,0.1c0.4,0,0.5-0.1,0.5-0.3V129.9z"/>
			<path class="st1" d="M118.3,131.3h2.2v-1.4h1.3v1.4h1.8v1.1h-1.8v1.5h0.8c0.7-0.7,1.4-1.7,2.1-3l1,0.5c-0.5,0.9-1,1.7-1.6,2.5h1     v1.1h-1.9c-0.2,0.2-0.5,0.5-0.7,0.7c-0.3,0.2-0.5,0.4-0.8,0.7h2.9v6.4h-1.2v-0.8h-3v0.9H119v-4.9c-0.3,0.1-0.5,0.2-0.8,0.3     l-0.7-1c1.6-0.6,2.8-1.3,3.9-2.2h-3.6v-1.1h2.6v-1.5h-2.2V131.3z M120.3,138.5h3v-1.1h-3V138.5z M120.3,140.8h3v-1.3h-3V140.8z      M125.7,130.5h4.6v1c-0.4,1.5-0.9,2.8-1.4,4.1c0.6,0.8,1,1.5,1.2,1.9c0.2,0.5,0.3,1,0.3,1.4c0,0.9-0.2,1.5-0.5,1.9     c-0.3,0.4-1.2,0.6-2.5,0.6l-0.4-1.4c0.4,0.1,0.8,0.1,1.2,0.1c0.3,0,0.6-0.1,0.7-0.4c0.1-0.2,0.2-0.5,0.2-1c0-0.3-0.1-0.7-0.3-1.1     c-0.2-0.5-0.6-1.2-1.3-2.2c0.5-1.4,0.9-2.7,1.3-3.9h-2v11h-1.3V130.5z"/>
			<path class="st1" d="M134.7,129.8l1.4,0.4c-0.4,0.9-0.8,1.6-1.2,2.3c0.9,0,1.7-0.1,2.4-0.2c-0.3-0.3-0.5-0.7-0.8-1l0.9-0.5     c0.9,1,1.7,1.8,2.2,2.5l-1,0.7c-0.1-0.2-0.2-0.4-0.4-0.5c-1.2,0.2-3,0.3-5.4,0.5l-0.4-1.4c0.4,0,0.8,0,1.2,0     C133.9,131.7,134.3,130.8,134.7,129.8z M138.5,134.6v6.7c0,0.4-0.1,0.8-0.3,1c-0.2,0.2-0.5,0.3-0.8,0.3H136l-0.3-1.2l1.2,0.1     c0.2,0,0.4-0.2,0.4-0.5v-0.7h-3.2v2.6h-1.2v-8.2H138.5z M134.1,136.9h3.2v-1.1h-3.2V136.9z M134.1,139.1h3.2v-1.2h-3.2V139.1z      M139.5,129.9h1.3v2c1.4-0.4,2.6-0.8,3.6-1.3l0.7,1c-1.2,0.6-2.7,1.1-4.3,1.5v0.8c0,0.3,0.2,0.5,0.5,0.5h1.9c0.2,0,0.3,0,0.4-0.2     c0.1-0.1,0.2-0.6,0.2-1.4l1.3,0.4c-0.1,1.2-0.3,1.9-0.5,2.1c-0.2,0.2-0.6,0.3-1.2,0.3h-2.6c-0.4,0-0.7-0.1-1-0.3     c-0.2-0.2-0.4-0.5-0.4-0.9V129.9z M139.5,136.1h1.3v2.1c1.4-0.4,2.6-0.9,3.6-1.4l0.8,1.1c-1.2,0.6-2.7,1.2-4.4,1.6v1.3     c0,0.3,0.2,0.4,0.5,0.4h2.2c0.1,0,0.2-0.1,0.3-0.2c0.1-0.1,0.1-0.6,0.1-1.4l1.3,0.4c-0.1,1.2-0.3,1.8-0.5,2.1     c-0.2,0.2-0.5,0.3-1,0.3h-2.8c-0.4,0-0.7-0.1-1-0.3c-0.2-0.2-0.4-0.5-0.4-0.9V136.1z"/>
			<path class="st1" d="M147.2,133.2h3.6v0.9c-0.4,0.8-1,1.6-1.7,2.4h1.7v0.8c-0.2,0.9-0.4,1.5-0.6,2.1c0.5,0.6,0.9,1,1.3,1.2     c0.3,0.2,0.7,0.3,1.3,0.4c0.7,0.1,2,0.2,4,0.2c1.5,0,2.5,0,3.3-0.1l-0.2,1.3c-3.8,0-6.2-0.1-7.1-0.2c-0.8-0.1-1.4-0.3-1.8-0.5     c-0.4-0.2-0.8-0.6-1.3-1.2c-0.4,0.7-0.9,1.4-1.5,2.1l-0.9-1c0.7-0.7,1.2-1.4,1.5-1.9c0.2-0.3,0.5-1,0.8-2h-1.9v-1     c0.6-0.6,1.2-1.4,1.8-2.4h-2.1V133.2z M148.8,129.9c0.6,0.7,1.1,1.3,1.6,2l-0.9,0.9c-0.4-0.6-0.9-1.3-1.5-2.1L148.8,129.9z      M158.4,129.8l0.5,1c-0.9,0.2-2,0.4-3.3,0.5v0.9h3.7v1.1h-2.5c0.3,0.3,0.6,0.5,0.9,0.7c0.5,0.3,1.1,0.7,2,1l-0.8,1     c-0.9-0.5-1.7-1-2.2-1.6c-0.4-0.3-0.7-0.7-1-1.1v1.9h-1.2v-2h-0.1c-0.3,0.4-0.5,0.7-0.8,1c-0.5,0.6-1.4,1.2-2.6,1.8l-0.7-1.1     c0.9-0.4,1.5-0.7,2-1.1c0.3-0.2,0.5-0.4,0.7-0.6H151v-1.1h3.4v-0.8c-1,0.1-2,0.1-3.1,0.1l-0.3-1.1     C153.9,130.5,156.4,130.3,158.4,129.8z M152.1,135.8h5.9c-0.1,0.5-0.2,0.9-0.3,1.4h1.4c-0.1,1.3-0.2,2.2-0.3,2.6     c-0.1,0.3-0.2,0.5-0.4,0.6c-0.2,0.2-0.6,0.3-1.1,0.3h-1.7l-0.4-1.3c0.7,0.1,1.2,0.1,1.8,0.1c0.3,0,0.4,0,0.5-0.1     c0.1-0.1,0.2-0.2,0.2-0.4c0.1-0.2,0.1-0.5,0.2-0.8h-1.7c0.2-0.5,0.3-0.9,0.4-1.4h-2c-0.1,0.8-0.3,1.5-0.6,2     c-0.5,0.8-1.2,1.5-2.2,1.8l-0.6-1.2c0.7-0.2,1.2-0.6,1.5-1.1c0.2-0.3,0.4-0.8,0.5-1.5h-1.1V135.8z"/>
			<path class="st1" d="M161.8,133.2h3.6v0.9c-0.4,0.8-1,1.6-1.7,2.4h1.7v0.8c-0.2,0.9-0.4,1.6-0.6,2.1c0.5,0.6,0.9,1,1.3,1.2     c0.3,0.2,0.7,0.3,1.3,0.4c0.7,0.1,2,0.2,4,0.2c1.5,0,2.5,0,3.3-0.1l-0.2,1.3c-3.8,0-6.2-0.1-7.1-0.2c-0.8-0.1-1.4-0.3-1.8-0.5     c-0.4-0.2-0.8-0.6-1.3-1.2c-0.4,0.7-0.9,1.4-1.6,2.1l-1-1.1c0.7-0.7,1.2-1.4,1.5-1.9c0.2-0.3,0.5-1,0.8-2.1h-1.9v-1     c0.6-0.6,1.2-1.3,1.8-2.3h-2.1V133.2z M163.3,129.9c0.7,0.7,1.3,1.4,1.8,2l-0.9,0.9c-0.4-0.7-1-1.4-1.7-2.1L163.3,129.9z      M173.4,130.3v4.2h0.6v5.1c0,0.4-0.1,0.7-0.4,1c-0.2,0.2-0.4,0.3-0.8,0.3h-1.4l-0.3-1.1l1.1,0.1c0.3,0,0.4-0.2,0.4-0.5v-3.7h-5.6     v5h-1.3v-6.1h0.7v-4.2H173.4z M167.8,134.4h1.1v-2h3.2v-1.1h-4.4V134.4z M168.1,136.2h3.7v3.2h-3.7V136.2z M170.7,138.5v-1.3     h-1.4v1.3H170.7z M170.1,134.4h2.1v-1.1h-2.1V134.4z"/>
			<path class="st1" d="M176.5,130.3h4.6v0.7h1.7c-0.2-0.4-0.3-0.7-0.5-1l1.1-0.2c0.2,0.3,0.4,0.7,0.5,1.1h1.7v1H185l-0.4,1.8h1.3     v-3.9h1.1v3.9h2.3v1.1h-2.3c0,1,0,2,0.1,2.8c0.3-0.6,0.6-1.4,0.9-2.2l1,0.4c-0.7,1.6-1.3,2.8-1.8,3.5c0.1,0.5,0.2,1,0.3,1.3     c0.2,0.5,0.3,0.8,0.4,0.8c0.1,0,0.3-0.7,0.4-2.1l1,0.7c-0.3,1.3-0.5,2-0.8,2.3c-0.2,0.2-0.4,0.3-0.6,0.3c-0.4,0-0.7-0.4-1.1-1.1     c-0.2-0.3-0.3-0.7-0.5-1.2c-0.5,0.6-1.1,1.2-1.8,1.8l-0.9-0.8c0.2-0.2,0.4-0.4,0.6-0.6h-2.3v0.7h-1.1v-6h3.9v4.8     c0.5-0.5,0.9-0.9,1.2-1.3c0-0.1,0-0.2,0-0.3c-0.2-1.1-0.3-2.5-0.3-4h-5.3v7.8h-1.1v-2.3c-0.8,0.3-1.8,0.7-2.8,1l-0.3-1.3     c0.2,0,0.4-0.1,0.6-0.1v-8.6h-0.5V130.3z M178.1,133.1h1.4v-1.7h-1.4V133.1z M178.1,136h1.4v-1.9h-1.4V136z M178.1,139.7     c0.5-0.1,0.9-0.3,1.4-0.5v-2.1h-1.4V139.7z M180.6,133.8h1.3l-0.3-1.8H181v-0.7h-0.4V133.8z M182.2,137.8h1.8v-1.1h-1.8V137.8z      M182.2,140h1.8v-1.2h-1.8V140z M182.8,133.8h0.8l0.4-1.8h-1.5L182.8,133.8z M188.4,130.7c0.3,0.7,0.6,1.4,0.9,2.1l-1,0.5     c-0.3-0.8-0.5-1.6-0.9-2.2L188.4,130.7z"/>
			<path class="st1" d="M191.8,133.3c0.9,0.4,1.7,0.8,2.4,1.4l-0.8,1.3c-0.7-0.7-1.5-1.2-2.3-1.6L191.8,133.3z M193.2,136.7l1.1,0.8     c-0.6,2-1.3,3.8-2,5.3l-1.1-1.1C191.8,140.5,192.5,138.8,193.2,136.7z M192.4,130c0.8,0.4,1.6,0.8,2.3,1.3l-0.8,1.3     c-0.7-0.6-1.4-1.1-2.2-1.5L192.4,130z M203.7,130.4v1.2h-7.5v3.7c0,1.1-0.1,2.3-0.3,3.6c-0.3,1.3-0.7,2.6-1.3,3.8l-1.1-1     c0.6-1,1-2.1,1.2-3.2c0.2-1.2,0.2-2.2,0.2-3.2v-4.9H203.7z M196.7,138.4h2.7v-1.2h1.2v1.2h2.9v1.1h-2.9v1.6h3.4v1.1h-8.1v-1.1     h3.5v-1.6h-2.7V138.4z M196.9,133.1h2.4V132h1.3v1.1h2.5v1.1h-2.5v1.4h3v1.1h-6.9v-1.1h2.7v-1.4h-2.4V133.1z"/>
			<path class="st1" d="M206.1,131.8h2v-2h1.3v2h1.7v1.1h-1.7v1.3c0,0.3,0,0.6,0,0.8h1.9v1.2h-2c0,0.3-0.1,0.6-0.1,0.8     c0.8,0.6,1.6,1.4,2.4,2.1l-0.9,1.3c-0.7-0.9-1.3-1.6-1.8-2.1c0,0.1,0,0.1-0.1,0.2c-0.4,1.2-1,2.3-2.1,3.5l-1.1-1     c0.9-0.9,1.5-1.9,1.9-3c0.2-0.5,0.3-1.1,0.4-1.9h-2.1V135h2.2c0-0.3,0-0.6,0-0.8V133h-2V131.8z M211.5,130.3h6.4v7.8h-1.7v2.8     c0,0.3,0.1,0.4,0.4,0.4h0.5c0.1,0,0.2-0.1,0.3-0.2c0.1-0.1,0.1-0.8,0.1-1.9l1.1,0.3c-0.1,1.4-0.2,2.3-0.4,2.5     c-0.2,0.3-0.5,0.4-1,0.4h-1.1c-0.4,0-0.7-0.1-0.9-0.3c-0.2-0.2-0.3-0.5-0.3-0.9v-3.1h-0.9c-0.1,1.2-0.4,2.1-0.8,2.6     c-0.5,0.7-1.4,1.3-2.7,1.9l-0.9-1.1c1.1-0.4,1.9-0.9,2.3-1.4c0.4-0.4,0.6-1.1,0.7-2h-1.3V130.3z M212.7,132.6h4v-1h-4V132.6z      M212.7,134.7h4v-1.1h-4V134.7z M216.7,136.9v-1.1h-4v1.1H216.7z"/>
			<path class="st1" d="M221.7,130.5h4.5v-0.7h1.3v0.7h4.6v1.4h1.1v0.9h-1.1v1.4h-4.6v0.5h5.1v0.8h-5.1v0.5h5.9v0.9h-12.6v-0.9h5.4     v-0.5h-4.8v-0.8h4.8v-0.5h-4.5v-0.8h4.5v-0.6h-5.4v-0.9h5.4v-0.5h-4.5V130.5z M220.8,141.5h12.4v0.9h-12.4V141.5z M221.9,137.4     H232v3.5h-10.1V137.4z M223.1,138.8h3.2v-0.5h-3.2V138.8z M226.4,140.2v-0.6h-3.2v0.6H226.4z M227.4,131.4v0.5h3.4v-0.5H227.4z      M227.4,132.8v0.6h3.4v-0.6H227.4z M227.6,138.3v0.5h3.3v-0.5H227.6z M230.8,140.2v-0.6h-3.3v0.6H230.8z"/>
			<path class="st1" d="M235.6,130.7h12.1v1.3h-4.3c-0.3,0.6-0.6,1.2-0.9,1.7v9.1h-1.4v-7.3c-0.1,0.1-0.2,0.2-0.3,0.3     c-1.2,1.3-2.7,2.4-4.6,3.4l-0.8-1.1c1.7-1,3.2-2,4.3-3.1c0.8-0.7,1.5-1.8,2.2-3.1h-6.4V130.7z M244.3,134.5     c1.4,1.2,2.6,2.4,3.5,3.6l-1,1c-0.8-1.1-2-2.4-3.4-3.7L244.3,134.5z"/>
			<path class="st1" d="M252.5,129.8l1.1,0.5c-0.3,1.1-0.6,2.1-1,2.9v9.4h-1.3v-7.1c-0.3,0.5-0.6,0.9-1,1.4l-0.4-1.6     c0.5-0.8,1-1.5,1.4-2.4C251.7,132.3,252.1,131.2,252.5,129.8z M262.4,136.1v2.6h-1.3v-1.5h-6.5v1.5h-1.3v-2.6H262.4z      M257.8,129.8c0.3,0.3,0.6,0.7,0.8,1.1h3.7v1.1h-8.6v-1.1h3.6c-0.2-0.3-0.5-0.6-0.8-0.9L257.8,129.8z M254.2,132.7h7.5v2.8h-7.5     V132.7z M254.8,138.1h6.2v1.1h-2.4v2.3c0,0.5-0.1,0.8-0.3,1c-0.2,0.2-0.6,0.3-1.1,0.3h-1.5l-0.3-1.3c0.6,0.1,1,0.1,1.4,0.1     s0.5-0.1,0.5-0.3v-2.1h-2.5V138.1z M260.3,134.6v-0.9h-4.8v0.9H260.3z"/>
			<path class="st1" d="M277.1,131.8v1.3h-3.9c0.1,2,0.4,3.6,0.8,4.7c0.7-1,1.3-2.2,1.8-3.8l1.2,0.5c-0.8,2.1-1.6,3.6-2.4,4.6     c0.6,1.2,1.1,1.8,1.3,1.8c0.2,0,0.3-0.7,0.5-2l1.1,0.8c-0.3,1.3-0.6,2.1-0.9,2.4c-0.2,0.2-0.4,0.3-0.6,0.3c-0.6,0-1.2-0.3-1.8-1     c-0.3-0.4-0.6-0.8-0.8-1.2c-0.9,0.8-2,1.5-3.3,2.2l-0.8-1.2c1.4-0.7,2.6-1.4,3.5-2.3c-0.2-0.5-0.3-1-0.5-1.5     c-0.3-1.2-0.5-2.7-0.6-4.5h-4.7v1.7h3.8c0,2.5-0.2,4.1-0.3,4.8c-0.2,0.8-0.7,1.2-1.4,1.2h-1.8l-0.2-1.3c0.9,0.1,1.6,0.1,2.1,0.1     c0.1,0,0.2-0.2,0.3-0.6c0.1-0.5,0.1-1.4,0.1-2.9h-2.5c0,1-0.1,2-0.3,3.1c-0.3,1.3-0.7,2.6-1.2,3.8l-1.1-1c0.5-1,0.9-2.1,1.1-3.2     c0.2-1.1,0.2-2.2,0.2-3.2v-3.7h5.9c0-0.6,0-1.3,0-2h1.3c0,0.7,0,1.3,0,2h2c-0.4-0.4-0.8-0.8-1.4-1.1l0.9-0.8     c0.7,0.4,1.2,0.8,1.7,1.2l-0.7,0.7H277.1z"/>
			<path class="st1" d="M291.2,130.3v1.2H283v0.8h7.8v1.1H283v0.9h7.8v1.1H283v0.9h9.2v1.2h-6.3c0.4,0.7,0.8,1.2,1.4,1.7     c1-0.3,1.9-0.9,2.7-1.6l1,0.9c-0.7,0.6-1.6,1.1-2.5,1.4c1,0.6,2.3,1.1,3.9,1.5l-0.8,1.3c-2.2-0.7-3.9-1.6-5-2.5     c-1-0.8-1.7-1.7-2.1-2.8h-1.9v3.4c1-0.2,2-0.4,3-0.7v1.3c-1.7,0.5-3.5,0.9-5.6,1.1l-0.2-1.4c0.5,0,1-0.1,1.5-0.2v-3.6h-1.7v-1.2     h2.1v-6H291.2z"/>
			<path class="st1" d="M302.4,136.3c0,0.5-0.2,1-0.6,1.3c-0.4,0.4-0.8,0.5-1.4,0.5s-1-0.2-1.4-0.5c-0.4-0.4-0.6-0.8-0.6-1.3     s0.2-1,0.6-1.3c0.4-0.4,0.8-0.5,1.4-0.5s1,0.2,1.4,0.5C302.3,135.3,302.4,135.8,302.4,136.3z M301.5,136.3c0-0.3-0.1-0.5-0.3-0.6     c-0.2-0.2-0.4-0.3-0.7-0.3s-0.5,0.1-0.7,0.3c-0.2,0.2-0.3,0.4-0.3,0.6c0,0.3,0.1,0.5,0.3,0.6c0.2,0.2,0.4,0.3,0.7,0.3     s0.5-0.1,0.7-0.3C301.4,136.8,301.5,136.6,301.5,136.3z"/>
		</g>
	</g>
</g>
</svg>