<?xml version="1.0" encoding="UTF-8"?>
<!-- Generator: Adobe Illustrator 21.0.2, SVG Export Plug-In . SVG Version: 6.00 Build 0)  -->
<svg version="1.1" id="圖層_1" xmlns="http://www.w3.org/2000/svg" xmlns:xlink="http://www.w3.org/1999/xlink" x="0px" y="0px" width="271.7px" height="141.4px" viewBox="0 0 271.7 141.4" style="enable-background:new 0 0 271.7 141.4;" xml:space="preserve">
<style type="text/css">
	.st0{fill:#FFFFFF;}
	.st1{fill:none;stroke:#FFFFFF;stroke-miterlimit:10;}
</style>
<g>
	<g>
		<g>
			<path class="st0" d="M11.3,116.4h-0.7v-1H1.2v1H0.4v-10.1h5.1v-2.2h0.7v2.2h5.1V116.4z M5.5,110.4V107H1.2v3.3H5.5z M5.5,114.6     v-3.5H1.2v3.5H5.5z M10.5,110.4V107H6.2v3.3H10.5z M10.5,114.6v-3.5H6.2v3.5H10.5z"/>
			<path class="st0" d="M17.5,104.4c-0.8,2.5-2.3,4.6-4.5,6.1l-0.6-0.6c2.1-1.4,3.5-3.3,4.3-5.8L17.5,104.4z M23.9,116.1l-0.7,0.4     c-0.3-0.7-0.6-1.3-0.9-1.8c-2.6,0.7-5.3,1.1-7.9,1.4l-0.2-0.7c1.4-1.7,2.8-4.1,4.1-7.2l0.7,0.3c-1.2,2.8-2.4,5.1-3.7,6.8     c1.8-0.1,4-0.5,6.6-1.2c-0.4-0.7-1-1.6-1.7-2.6l0.6-0.4C22.2,112.9,23.2,114.5,23.9,116.1z M25,109.8l-0.5,0.6     c-1.7-1.1-3-2.9-4-5.4h-0.9v-0.8H21C21.9,106.8,23.2,108.7,25,109.8z"/>
			<path class="st0" d="M37.2,115.3c0,0.4-0.1,0.6-0.3,0.8c-0.2,0.2-0.8,0.2-1.7,0.2c-0.4,0-0.9,0-1.5-0.1l-0.3-0.8     c0.8,0.1,1.4,0.1,1.9,0.1c0.5,0,0.8,0,0.9-0.1s0.2-0.2,0.2-0.4v-10H25.7v-0.7h11.5V115.3z M34.9,107.7h-8.9l0-0.7h8.9V107.7z      M34,113.7h-7v-4.3h7V113.7z M33.2,113v-2.8h-5.5v2.8H33.2z"/>
			<path class="st0" d="M50,115.1c0,0.3-0.1,0.6-0.3,0.8s-0.4,0.3-0.7,0.3c-0.3,0-0.7,0-1.1,0c-0.3,0-0.6,0-0.9,0l-0.3-0.8     c0.7,0.1,1.4,0.1,2.1,0.1c0.1,0,0.2-0.1,0.3-0.2s0.2-0.2,0.2-0.4v-7.6h-4c0.2,2,1.4,3.9,3.6,5.8l-0.5,0.5c-2-1.8-3.1-3.5-3.6-5.2     c-0.7,1.8-1.9,3.5-3.6,5.1l-0.5-0.5c1.7-1.4,3-3.3,3.8-5.7H40v8.9h-0.8v-9.7h5.2c0-0.4-0.1-1-0.1-1.8H43v-0.7h2     c0,0.2,0,0.4,0,0.7c0,0.5,0,1.2,0.1,1.9H50V115.1z"/>
			<path class="st0" d="M58.6,110h-7.1v-0.7h2c-0.2-0.8-0.4-1.6-0.8-2.6l0.5-0.4h-1.4v-0.7h3.1c-0.2-0.4-0.4-0.9-0.8-1.4l0.7-0.3     c0.3,0.4,0.6,1,0.9,1.7h2.7v0.7H57l0.5,0.4c-0.3,0.9-0.6,1.8-0.9,2.6h2.1V110z M57.8,116.3h-0.7v-0.9h-3.9v0.9h-0.7v-4.9h5.4     V116.3z M57.1,114.7v-2.5h-3.9v2.5H57.1z M56.8,106.4h-3.5c0.4,1,0.7,2,0.9,3h1.6C56.2,108.5,56.6,107.5,56.8,106.4z M62.2,109.5     c0.9,1.2,1.4,2.3,1.4,3.5c0,0.6-0.1,1-0.4,1.3c-0.3,0.3-0.9,0.4-1.7,0.4c-0.2,0-0.3,0-0.5,0l-0.2-0.7c0.2,0,0.5,0,0.8,0     c0.4,0,0.7,0,0.8-0.1s0.3-0.2,0.4-0.3c0.1-0.2,0.1-0.4,0.1-0.7c0-1-0.5-2.1-1.5-3.3c0.5-1.4,0.9-2.8,1.3-4.3H60v11h-0.7v-11.7     h4.1v0.7C63,106.8,62.6,108.2,62.2,109.5z"/>
			<path class="st0" d="M70.3,104.7c-1.3,0.6-2.7,0.9-4.2,1.1v1.7h3.7v4.1h-3.7c-0.1,2-0.5,3.6-1.1,4.7l-0.6-0.4     c0.7-1.3,1-2.9,1-4.7v-5.9c1.9-0.2,3.4-0.6,4.6-1.1L70.3,104.7z M69.1,110.9v-2.7h-3v2.7H69.1z M76.7,109.2h-1.6v7.2h-0.7v-7.2     h-2.5c0,1.9-0.2,3.3-0.5,4.3c-0.3,0.9-0.8,1.9-1.5,2.9l-0.6-0.5c0.8-1.1,1.3-2.1,1.5-3s0.3-2.1,0.3-3.5v-4.3c1.9-0.1,3.6-0.4,5-1     l0.4,0.6c-1.2,0.5-2.8,0.8-4.6,1v2.8h4.8V109.2z"/>
			<path class="st0" d="M81.6,110.2c-0.6,0.3-1.1,0.5-1.6,0.7v4.4c0,0.4-0.1,0.7-0.3,0.9c-0.2,0.2-0.6,0.2-1.2,0.2     c-0.2,0-0.4,0-0.6,0l-0.2-0.7c0.3,0,0.6,0,0.8,0c0.4,0,0.6,0,0.7-0.1c0.1-0.1,0.2-0.2,0.2-0.3v-4c-0.5,0.2-1,0.4-1.7,0.6     l-0.2-0.7c0.6-0.2,1.2-0.4,1.9-0.7v-3.1h-1.8v-0.7h1.8v-2.5H80v2.5h1.3v0.7H80v2.8c0.6-0.2,1.1-0.4,1.4-0.6L81.6,110.2z      M89.6,116.1h-8.3v-0.7h3.9v-3.2h-3.3v-0.7h7.5v0.7H86v3.2h3.6V116.1z M89.6,110.2h-2.2c-0.7,0-1.1-0.3-1.1-1v-2.8H85     c-0.1,2-1,3.4-2.5,4.4l-0.5-0.6c1.5-0.8,2.2-2.1,2.3-3.8h-1.7v1.7h-0.7v-2.4h3.4c-0.2-0.5-0.4-0.9-0.7-1.3l0.7-0.3     c0.3,0.5,0.6,1,0.8,1.6h3.4v2.4h-0.7v-1.7h-1.6v2.7c0,0.3,0.2,0.4,0.5,0.4h2.1V110.2z"/>
			<path class="st0" d="M96.4,105.7h-3.9c-0.5,0.6-1,1.1-1.5,1.6l-0.6-0.4c1-0.8,1.8-1.8,2.3-2.9l0.7,0.3c-0.1,0.2-0.3,0.5-0.5,0.8     h3.5V105.7z M102.2,110.4h-0.7v-1.9h-10v1.9h-0.7v-2.6H96c0-0.2-0.2-0.4-0.3-0.8l0.6-0.2c0.2,0.3,0.3,0.6,0.4,1h5.4V110.4z      M100.9,115.7h-7.9v0.6h-0.7v-6.8h8.2v2.4h-7.5v1.1h7.9V115.7z M99.8,111.3v-1.1h-6.7v1.1H99.8z M100.2,115.1v-1.4h-7.2v1.4     H100.2z M94.9,107.1l-0.6,0.3c-0.2-0.3-0.4-0.7-0.8-1.2l0.6-0.3C94.4,106.4,94.7,106.7,94.9,107.1z M102.6,105.7h-4.5     c-0.3,0.4-0.7,0.7-1.1,1.1l-0.6-0.4c1-1,1.6-1.8,1.9-2.4l0.7,0.3c-0.1,0.2-0.3,0.5-0.5,0.8h4V105.7z M100.5,107.2l-0.6,0.2     c-0.3-0.6-0.6-1-0.7-1.2l0.7-0.2C100.1,106.4,100.3,106.8,100.5,107.2z"/>
			<path class="st0" d="M108.2,116.1h-0.7v-1.2h-3v1.5h-0.7v-9.9h1.3c0.4-0.6,0.7-1.4,1-2.4l0.7,0.1c-0.2,0.5-0.5,1.2-1,2.3h2.4     V116.1z M107.5,110.1v-3h-3v3H107.5z M107.5,114.2v-3.3h-3v3.3H107.5z M115.2,106.4c-0.1,2.1-0.2,4-0.3,5.8     c-0.1,1.8-0.3,2.9-0.4,3.2s-0.3,0.5-0.6,0.7c-0.2,0.1-0.7,0.2-1.3,0.2c-0.3,0-0.7,0-1.1,0l-0.2-0.7c0.4,0,0.8,0,1.2,0     c0.4,0,0.7,0,0.8,0c0.1,0,0.2-0.1,0.4-0.2s0.2-0.2,0.3-0.4s0.1-0.7,0.2-1.6s0.2-2,0.2-3.1s0.1-2.2,0.1-3.3h-3.7     c-0.5,1-1.1,1.9-1.7,2.8l-0.6-0.4c1.2-1.6,2.1-3.4,2.6-5.4l0.7,0.2c-0.2,0.7-0.5,1.5-0.8,2.1H115.2z M112.6,112.7l-0.6,0.4     c-0.5-1-1.1-2.1-2-3.3l0.6-0.4C111.4,110.5,112.1,111.6,112.6,112.7z"/>
			<path class="st0" d="M126.4,104.8h-3.3v5.4h-0.8v-6.1h4V104.8z"/>
			<path class="st0" d="M141.4,112.2h-6.3c-0.6,0.6-1.3,1-2,1.5v1.8c1-0.2,2-0.4,2.9-0.7v0.7c-1.4,0.4-2.6,0.7-3.7,0.9l-0.2-0.6     c0.2-0.1,0.3-0.2,0.3-0.4v-1.2c-1,0.5-1.9,0.8-2.6,1l-0.4-0.7c1.8-0.4,3.4-1.2,4.8-2.2h-4.9v-0.7h5.9c-0.1-0.1-0.2-0.3-0.3-0.5     l0.7-0.3c0.1,0.2,0.2,0.4,0.4,0.7h5.5V112.2z M137.2,107.2h-3.5v0.8h2.8v1.5c0,0.2-0.1,0.3-0.2,0.5s-0.3,0.2-0.4,0.2l-1.4,0     l-0.2-0.7c0.2,0,0.4,0,0.6,0c0.4,0,0.7,0,0.8-0.1c0.1-0.1,0.1-0.1,0.1-0.3v-0.7h-2.1v2.2H133v-2.2h-2.2v1.7H130V108h3v-0.8h-3.7     v-0.7h3.7v-0.9h-2.3c-0.1,0.2-0.2,0.4-0.4,0.5l-0.7-0.3c0.5-0.5,0.9-1.1,1.2-1.8l0.7,0.2c-0.1,0.3-0.3,0.6-0.4,0.7h1.9v-1h0.7v1     h3v0.6h-3v0.9h3.5V107.2z M141.4,115.7l-0.4,0.6c-2.4-0.8-3.9-2-4.7-3.6l0.6-0.3c0.3,0.5,0.7,1,1.2,1.5c0.9-0.4,1.6-0.9,2.2-1.5     l0.6,0.5c-0.4,0.4-1.2,0.9-2.1,1.5C139.3,114.9,140.2,115.3,141.4,115.7z M138.8,108.7h-0.7v-3.9h0.7V108.7z M141.1,109.5     c0,0.3-0.1,0.6-0.4,0.8s-1,0.2-2.4,0.2l-0.2-0.7c0.8,0,1.4,0,1.6,0s0.4,0,0.5-0.1c0.1-0.1,0.1-0.2,0.1-0.3v-5.3h0.7V109.5z"/>
			<path class="st0" d="M154.5,115.4l-0.1,0.7c-0.5,0-2.1,0-5,0c-2.4,0-4.1-0.5-5.1-1.5c-0.6,0.8-1.1,1.4-1.6,1.9l-0.5-0.5     c1.3-1.1,2.2-2.6,2.7-4.5h-2.4v-0.6c0.6-0.8,1.4-1.7,2.2-2.9h-2.4v-0.7h3.4v0.7c-0.4,0.6-1.1,1.5-2.1,2.8h2.1v0.7     c-0.2,0.9-0.6,1.8-1,2.5c0.5,0.5,1,0.8,1.6,1s1.1,0.3,1.8,0.4c0.6,0,1.9,0.1,3.8,0.1C153,115.4,154,115.4,154.5,115.4z      M145.1,106.2l-0.5,0.5c-0.6-0.8-1.3-1.5-2.1-2.1l0.5-0.5C143.8,104.8,144.5,105.5,145.1,106.2z M154.3,109.3H146v-0.7h3.9v-2     h-2.3c-0.4,0.6-0.7,1.1-0.9,1.3l-0.6-0.4c0.8-1,1.3-2,1.7-3.3l0.7,0.2c-0.2,0.6-0.4,1.1-0.6,1.5h1.9v-1.9h0.7v1.9h3v0.7h-3v2h3.7     V109.3z M153.4,113.9h-6.4v-3.4h6.4V113.9z M152.7,113.2v-2h-4.9v2H152.7z"/>
			<path class="st0" d="M162.5,111.1l-0.5,0.5c-0.7-0.7-1.4-1.4-2.3-2l0.5-0.5C161.2,109.8,162,110.4,162.5,111.1z"/>
			<path class="st0" d="M173,111c-0.6,0.3-1.1,0.5-1.6,0.7v4.7h-0.7V112c-0.9,0.4-1.7,0.6-2.4,0.9l-0.2-0.7c0.9-0.3,1.8-0.6,2.6-0.9     v-3.6h-1.2c-0.2,1-0.4,1.8-0.7,2.4l-0.6-0.3c0.6-1.5,0.9-3.1,1-4.7l0.7,0.1c0,0.5-0.1,1.1-0.2,1.7h1.1v-2.9h0.7v2.9h1.5v0.7h-1.5     v3.3c0.5-0.2,1-0.4,1.6-0.7V111z M179.9,106.1c0,2-0.1,4-0.2,5.9s-0.2,3.1-0.4,3.4s-0.3,0.6-0.6,0.8c-0.3,0.2-0.8,0.3-1.4,0.3     c-0.3,0-0.7,0-1.1-0.1l-0.3-0.7c0.4,0,0.8,0.1,1.2,0.1c0.6,0,1-0.1,1.2-0.2s0.3-0.3,0.4-0.6s0.2-1.3,0.3-3     c0.1-1.7,0.2-3.5,0.2-5.2h-0.8c-0.4,3.8-1.9,6.8-4.5,9.1l-0.6-0.5c2.6-2.1,4.1-5,4.4-8.6h-1.1c-0.5,2.5-1.6,4.6-3.3,6.4l-0.6-0.4     c1.7-1.7,2.8-3.7,3.2-5.9h-1.1c-0.5,1.1-1,2-1.5,2.5l-0.6-0.4c1-1.2,1.8-2.8,2.3-4.8l0.7,0.1c-0.2,0.8-0.4,1.5-0.5,1.9H179.9z"/>
			<path class="st0" d="M183.7,111.9c-0.5,1.5-1.2,3-2.1,4.6l-0.6-0.5c0.8-1.3,1.5-2.7,2.1-4.4L183.7,111.9z M183.7,109.7l-0.5,0.5     c-0.6-0.7-1.4-1.3-2.2-1.9l0.5-0.6C182.4,108.5,183.1,109.1,183.7,109.7z M183.9,106l-0.5,0.6c-0.8-0.9-1.5-1.6-2.1-1.9l0.5-0.6     C182.7,104.7,183.4,105.4,183.9,106z M186.1,110.5c0,1.7-0.1,2.9-0.4,3.7s-0.9,1.5-1.8,2.2l-0.6-0.5c0.5-0.3,1-0.8,1.4-1.5     s0.6-2,0.6-3.8H186.1z M193.2,109.9l-0.6,0.5c-0.2-0.4-0.5-0.7-0.8-1.1c-2.8,0.3-5.1,0.6-7.2,0.7l-0.2-0.7c1.1-0.6,2-1.6,2.8-2.9     h-2.9v-0.7h3.3c0.2-0.3,0.4-0.8,0.7-1.5l0.8,0.2c-0.1,0.2-0.3,0.7-0.6,1.3h4.5v0.7h-4.9c-0.7,1.2-1.5,2.2-2.3,2.8     c1.8-0.1,3.6-0.3,5.4-0.5c-0.4-0.4-0.8-0.8-1.2-1.2l0.6-0.5C191.6,107.9,192.5,108.9,193.2,109.9z M188.5,116.4h-0.7v-5.9h0.7     V116.4z M193.2,116.2h-1.9c-0.7,0-1.1-0.3-1.1-1v-4.7h0.7v4.6c0,0.3,0.1,0.4,0.4,0.4h1.8V116.2z"/>
			<path class="st0" d="M201.4,111.1l-0.5,0.5c-0.7-0.7-1.4-1.4-2.3-2l0.5-0.5C200.1,109.8,200.8,110.4,201.4,111.1z"/>
			<path class="st0" d="M219.2,111.5l-0.3,0.7c-1.7-0.4-3-0.8-4-1.2v0.6h-3.7V111c-1.4,0.6-2.7,1-3.9,1.2l-0.4-0.6     c2.8-0.5,4.8-1.4,6.2-2.5l0.7,0.3c-0.1,0.1-0.2,0.2-0.2,0.2C215,110.4,216.8,111.1,219.2,111.5z M218.8,109.2h-0.7v-2.5h-4.7v1.9     h-0.7v-1.9h-4.8v2.5h-0.7V106h5.5v-1h-5v-0.7h10.6v0.7h-4.9v1h5.4V109.2z M217.4,113c-0.8,0.6-1.9,1.3-3.3,2     c0.4,0.2,1,0.4,1.8,0.8l-0.4,0.6c-1.6-0.9-3.5-1.6-5.6-2.1l0.4-0.6c1.4,0.4,2.3,0.7,3,0.9c1-0.5,2-1,3-1.6h-8v-0.7h9.2V113z      M212.1,109.2c-1,0.2-2.1,0.4-3.4,0.5l-0.2-0.6c1.1-0.1,2.2-0.2,3.3-0.5L212.1,109.2z M212.1,107.7l-0.3,0.6     c-1.2-0.3-2.2-0.5-3.1-0.5l0.3-0.6C210.2,107.3,211.2,107.5,212.1,107.7z M214.7,110.9c-0.6-0.3-1.2-0.6-1.7-0.9     c-0.5,0.3-1,0.6-1.6,0.9H214.7z M217.4,107.8c-1,0.3-2,0.4-3.2,0.5l-0.3-0.6c1.2-0.1,2.2-0.2,3.2-0.5L217.4,107.8z M217.6,109.2     l-0.3,0.6c-1-0.3-2.1-0.5-3.1-0.6l0.3-0.6C215.9,108.8,216.9,109,217.6,109.2z"/>
			<path class="st0" d="M232,111.4h-10.2v-4.2c-0.5,0.6-1,1.1-1.5,1.5l-0.6-0.5c1.3-1.2,2.4-2.6,3.2-4.2l0.7,0.2l-0.7,1.2h3.4     c-0.1-0.3-0.3-0.7-0.6-1.2l0.7-0.2c0.3,0.4,0.5,0.8,0.7,1.4h4.7v0.7h-4.8v1h4.1v0.7h-4.1v1.1h4.2v0.7h-4.2v1.1h4.9V111.4z      M231,116.3h-0.7v-0.7h-7.9v0.7h-0.7v-3.9h9.4V116.3z M230.3,114.9v-1.8h-7.9v1.8H230.3z M226.4,107.2v-1h-3.9v1H226.4z      M226.4,108.9v-1.1h-3.9v1.1H226.4z M226.4,110.7v-1.1h-3.9v1.1H226.4z"/>
			<path class="st0" d="M245,112.8h-5.7v3.6h-0.7v-3.6h-5.8v-0.7h5.8V111h-5.1v-0.7h5.1v-1.1h-5.4v-0.7h3.7     c-0.2-0.4-0.5-0.8-0.8-1.1l0.5-0.3h-3.7v-0.7h4.6v-2.3h0.7v2.3h1.6v-2.3h0.7v2.3h4.5v0.7h-3.6l0.5,0.3c-0.2,0.4-0.4,0.7-0.7,1.1     h3.5v0.7h-5.4v1.1h5v0.7h-5v1.1h5.7V112.8z M237.3,113.9c-1,0.8-2.4,1.5-4,2.1l-0.5-0.6c1.8-0.6,3.1-1.3,3.9-2L237.3,113.9z      M236,105.8l-0.6,0.4c-0.3-0.5-0.8-0.9-1.4-1.4l0.6-0.4C235.2,104.8,235.7,105.3,236,105.8z M241.2,107.1h-4.4     c0.4,0.6,0.7,1.1,0.9,1.4h2.6C240.7,108,241,107.5,241.2,107.1z M245,115.6l-0.4,0.6c-1.4-0.9-2.8-1.7-4.1-2.2l0.4-0.6     C242.5,114.1,243.9,114.8,245,115.6z M243.9,104.6c-0.4,0.5-0.9,1-1.4,1.5l-0.6-0.4c0.6-0.5,1.1-1,1.4-1.4L243.9,104.6z"/>
			<path class="st0" d="M247.8,115.7h3.3v-5.4h0.8v6.1h-4V115.7z"/>
			<path class="st0" d="M264.6,111.5c-0.3-0.2-0.5-0.4-0.5-0.7c0-0.1,0.1-0.3,0.2-0.4s0.3-0.2,0.5-0.2c0.4,0,0.7,0.3,0.7,0.9     c0,0.5-0.3,0.9-0.8,1.4l-0.3-0.2C264.5,111.9,264.6,111.7,264.6,111.5z"/>
			<path class="st0" d="M57.3,140.4l-0.2,0.7h-4.6c-1.2,0-2.2-0.2-2.9-0.5s-1.4-0.8-2-1.5c-0.5,0.7-1.1,1.4-2,2.2l-0.5-0.5     c1.5-1.1,2.5-2.5,3-4.3l0.7,0.2c-0.2,0.6-0.4,1.2-0.8,1.8c0.9,1.1,1.9,1.8,3.1,1.9v-4.5H45v-0.7h12.2v0.7h-5.5v1.8h4.8v0.7h-4.8     v2c0.4,0,0.9,0,1.4,0H57.3z M55.5,134.1h-8.6v-4.6h8.6V134.1z M54.7,131.4v-1.2h-7.1v1.2H54.7z M54.7,133.4v-1.3h-7.1v1.3H54.7z"/>
			<path class="st0" d="M70.2,133.1H68l-0.1,1.4H60l0.1-1.4H58v-0.5h2.2l0.2-1.4h7.8l-0.1,1.4h2.2V133.1z M68.4,139.5h-5.7l0.3,0.4     c-1.5,0.8-3,1.3-4.5,1.5l-0.4-0.6c1.5-0.2,3-0.6,4.4-1.3h-2.7v-4.2h8.6V139.5z M69.7,131.8H69v-1.3h-9.7v1.3h-0.7v-1.9h5.2     c-0.1-0.2-0.2-0.4-0.4-0.6l0.7-0.2c0.1,0.2,0.3,0.5,0.5,0.8h5.2V131.8z M67.7,136.5v-0.6h-7.2v0.6H67.7z M67.7,137.7V137h-7.2     v0.7H67.7z M67.7,138.9v-0.7h-7.2v0.7H67.7z M63.7,133.1h-2.8l-0.1,0.8h2.8L63.7,133.1z M63.8,131.8H61l-0.1,0.8h2.8L63.8,131.8z      M67.3,133.1h-2.8l-0.1,0.8h2.8L67.3,133.1z M67.4,131.8h-2.8l-0.1,0.8h2.8L67.4,131.8z M70,140.8l-0.3,0.6     c-1.2-0.5-2.8-0.8-4.6-1l0.3-0.6C67.3,140,68.8,140.4,70,140.8z"/>
			<path class="st0" d="M75.3,137.9c-1.5,0.8-2.9,1.6-4.1,2.2l-0.3-0.6l1.9-1v-3.9h-1.7v-0.7h1.7v-3.2H71v-0.7h4.2v0.7h-1.7v3.2H75     v0.7h-1.5v3.5c0.5-0.3,1.1-0.6,1.6-0.9L75.3,137.9z M83.2,138.9c0,0.6-0.1,1.1-0.3,1.4s-0.3,0.5-0.5,0.7s-0.6,0.2-1.2,0.2     c-0.3,0-0.6,0-0.8,0s-0.4-0.1-0.5-0.2c-0.1-0.2-0.2-0.4-0.2-0.7v-3.3h-1.3c-0.2,2.3-1.5,3.8-3.8,4.5l-0.4-0.6     c2.2-0.6,3.4-1.9,3.5-3.9h-1.4v-7.4h6.1v7.4h-1.9v3.3c0,0.1,0,0.2,0.1,0.2s0.4,0.1,0.8,0.1c0.4,0,0.7,0,0.8-0.1     c0.1-0.1,0.2-0.3,0.3-0.7c0.1-0.4,0.1-0.7,0.1-1.1L83.2,138.9z M81.5,131.7v-1.5h-4.6v1.5H81.5z M81.5,133.9v-1.6h-4.6v1.6H81.5z      M81.5,136.2v-1.6h-4.6v1.6H81.5z"/>
			<path class="st0" d="M96.1,141H83.9v-0.7h2.2v-7.6h7.7v7.6h2.3V141z M95.6,133.3h-0.7v-2.2h-9.7v2.2h-0.7v-2.9h5.3     c-0.1-0.4-0.2-0.7-0.5-1.2L90,129c0.2,0.5,0.3,0.9,0.5,1.4h5.1V133.3z M93.1,135.1v-1.7h-6.2v1.7H93.1z M93.1,137.7v-1.8h-6.2     v1.8H93.1z M93.1,140.3v-1.9h-6.2v1.9H93.1z"/>
			<path class="st0" d="M100.5,132.4c-0.2,0.5-0.5,1.1-1.1,1.9v7h-0.7v-6c-0.5,0.6-1,1.1-1.4,1.5l-0.4-0.6c1.3-1.2,2.3-2.6,3.1-4.2     L100.5,132.4z M100.3,129.4c-0.8,1.4-1.8,2.5-3,3.2l-0.5-0.6c1-0.6,2-1.5,2.8-2.9L100.3,129.4z M109,137.5h-1.7v2.8     c0,0.4-0.1,0.6-0.3,0.8s-0.8,0.2-1.6,0.2c-0.3,0-0.5,0-0.8,0l-0.3-0.7c0.3,0,0.6,0,1,0c0.6,0,1,0,1.1-0.1     c0.1-0.1,0.2-0.2,0.2-0.3v-2.7h-6.2v-0.7h6.2v-1.4h-6v-0.7h8.1v0.7h-1.4v1.4h1.7V137.5z M108.2,133.8h-6.8v-4.3h6.8V133.8z      M103.9,140l-0.6,0.4c-0.3-0.6-0.8-1.4-1.5-2.2l0.6-0.4C103,138.5,103.5,139.2,103.9,140z M107.4,131.2v-1.1h-5.3v1.1H107.4z      M107.4,133.1v-1.2h-5.3v1.2H107.4z"/>
			<path class="st0" d="M116.9,137l-0.4,0.6c-0.9-1-1.8-1.9-2.6-2.5v6.2h-0.7V135c-1,1.7-1.9,3-2.9,3.9l-0.5-0.6     c0.4-0.4,0.9-0.9,1.3-1.5c0.4-0.6,0.9-1.2,1.3-2.1c0.5-0.8,0.7-1.3,0.7-1.3v-0.1h-3.3v-0.7h3.3v-2c-0.8,0.1-1.7,0.2-2.6,0.3     l-0.3-0.7c2.2-0.2,4.1-0.6,5.7-1.1l0.5,0.7c-0.8,0.3-1.6,0.5-2.6,0.7v2.2h2.7v0.7h-2.7v0.9C114.8,135,115.8,135.9,116.9,137z      M118.5,138.8h-0.7v-8.7h0.7V138.8z M121.6,140c0,0.6-0.2,1-0.5,1.1c-0.3,0.2-0.8,0.2-1.6,0.2h-1.1l-0.3-0.8c0.7,0,1.2,0,1.6,0     c0.4,0,0.6,0,0.7,0s0.2-0.1,0.3-0.2s0.1-0.2,0.1-0.3v-11h0.7V140z"/>
			<path class="st0" d="M128.8,130.2h-1.4c-0.2,0.9-0.3,1.4-0.3,1.6h1.7v4.9h-1.3v3.9c0,0.2-0.1,0.4-0.2,0.6s-0.3,0.2-0.6,0.2     c-0.4,0-0.7,0-0.8,0l-0.3-0.6c0.3,0,0.5,0,0.7,0c0.3,0,0.5-0.1,0.5-0.3v-3.8h-1.6v-4.9h1.1c0.1-0.4,0.2-0.9,0.3-1.6h-2.5v4.7     c0,2.7-0.3,4.8-0.9,6.4l-0.6-0.3c0.5-1.7,0.8-3.7,0.8-6.1v-5.4h5.3V130.2z M126,137.5c-0.2,1-0.5,1.9-1,2.7l-0.6-0.3     c0.5-0.9,0.8-1.7,1-2.6L126,137.5z M128,133.8v-1.4h-2.2v1.4H128z M128,135.9v-1.5h-2.2v1.5H128z M129.4,139.3l-0.6,0.2     c-0.1-0.6-0.4-1.3-0.7-2l0.6-0.2C129,138,129.3,138.7,129.4,139.3z M134.9,130.2h-2.6c-0.2,0.9-0.3,1.5-0.4,1.6h2.4v6.8h-3.1     l0.3,0.4c-0.8,1-1.5,1.8-2.2,2.2l-0.4-0.5c0.8-0.5,1.5-1.3,2.2-2.1h-1.2v-6.8h1.4c0.1-0.3,0.2-0.8,0.4-1.6h-2.1v-0.6h5.4V130.2z      M133.5,133.8v-1.3h-3v1.3H133.5z M133.5,135.8v-1.4h-3v1.4H133.5z M133.5,138v-1.5h-3v1.5H133.5z M134.9,141l-0.5,0.5     c-0.5-0.7-1.2-1.3-1.9-1.9l0.5-0.5C133.7,139.7,134.4,140.3,134.9,141z"/>
			<path class="st0" d="M147.9,134.7h-12.2v-0.7h5.7c-0.2-0.4-0.3-0.8-0.6-1.1h-3.7v-3.6h9.4v3.6h-4.8c0.2,0.3,0.3,0.7,0.5,1.1h5.7     V134.7z M139.6,139c-0.8,0.7-1.8,1.4-3.2,2.1l-0.5-0.6c1.4-0.6,2.5-1.3,3.2-1.9L139.6,139z M146.5,138h-4.4v2.4     c0,0.3-0.1,0.5-0.3,0.7s-0.6,0.2-1.3,0.2h-0.9l-0.2-0.7l1.7,0c0.1,0,0.2,0,0.2-0.1s0.1-0.2,0.1-0.2V138h-4.3v-2.5h9.4V138z      M145.8,130.9v-0.8h-7.9v0.8H145.8z M145.8,132.4v-0.8h-7.9v0.8H145.8z M145.8,137.3v-1.1h-7.9v1.1H145.8z M147.5,140.4L147,141     c-0.8-0.6-1.8-1.3-3-1.9l0.5-0.5C145.8,139.2,146.8,139.8,147.5,140.4z"/>
			<path class="st0" d="M153.5,141.1h-0.7v-1.2h-3v1.5h-0.7v-9.9h1.3c0.4-0.6,0.7-1.4,1-2.4l0.7,0.1c-0.2,0.5-0.5,1.2-1,2.3h2.4     V141.1z M152.8,135.1v-3h-3v3H152.8z M152.8,139.2v-3.3h-3v3.3H152.8z M160.5,131.4c-0.1,2.1-0.2,4-0.3,5.8     c-0.1,1.8-0.3,2.9-0.4,3.2s-0.3,0.5-0.6,0.7c-0.2,0.1-0.7,0.2-1.3,0.2c-0.3,0-0.7,0-1.1,0l-0.2-0.7c0.4,0,0.8,0,1.2,0     c0.4,0,0.7,0,0.8,0c0.1,0,0.2-0.1,0.4-0.2s0.2-0.2,0.3-0.4s0.1-0.7,0.2-1.6s0.2-2,0.2-3.1s0.1-2.2,0.1-3.3h-3.7     c-0.5,1-1.1,1.9-1.7,2.8l-0.6-0.4c1.2-1.6,2.1-3.4,2.6-5.4l0.7,0.2c-0.2,0.7-0.5,1.5-0.8,2.1H160.5z M157.9,137.7l-0.6,0.4     c-0.5-1-1.1-2.1-2-3.3l0.6-0.4C156.8,135.5,157.4,136.6,157.9,137.7z"/>
			<path class="st0" d="M173.8,141h-12.2v-0.7h5.7v-1.1h-5.1v-0.7h5.1v-1.1H163v-4.1h4.3v-1.1h-5.4v-0.7h5.4v-1.2     c-1.3,0.1-2.8,0.1-4.4,0.1l-0.2-0.6c3.8,0,7.1-0.2,9.9-0.7l0.4,0.6c-1,0.2-2.7,0.4-4.9,0.6v1.2h5.4v0.7H168v1.1h4.4v4.1H168v1.1     h5.1v0.7H168v1.1h5.7V141z M167.3,135.1v-1h-3.6v1H167.3z M167.3,136.8v-1.1h-3.6v1.1H167.3z M171.7,135.1v-1H168v1H171.7z      M171.7,136.8v-1.1H168v1.1H171.7z"/>
			<path class="st0" d="M186.7,137h-3.2c-0.5,0.9-1,1.6-1.6,2.1c1.9,0.6,3.5,1.1,4.6,1.7l-0.4,0.6c-1.5-0.7-3.2-1.3-4.9-1.8     c-1.5,1-3.6,1.5-6.2,1.7l-0.4-0.7c2.3-0.1,4.2-0.6,5.6-1.3c-1.3-0.3-2.6-0.6-3.8-0.8c0.6-0.5,1.1-1,1.6-1.5h-3.5v-0.7h4.2     c0.3-0.3,0.7-0.7,1.1-1.2l0.8,0.2c-0.2,0.2-0.4,0.5-0.8,1h3.2c0.1-0.1,0.2-0.4,0.4-0.8l0.7,0.1c0,0.1-0.1,0.4-0.3,0.7h2.9V137z      M186.6,130.2h-4v1.4h3.2v3.3h-10.3v-3.3h3.2v-1.4h-4v-0.7h11.9V130.2z M178.7,134.1v-1.9h-2.5v1.9H178.7z M182.6,137h-3.5     c-0.4,0.4-0.7,0.8-1.1,1.1c1,0.2,2,0.5,3.1,0.7C181.7,138.3,182.2,137.7,182.6,137z M181.9,131.6v-1.4h-2.4v1.4H181.9z      M181.9,134.1v-1.9h-2.4v1.9H181.9z M185.1,134.1v-1.9h-2.5v1.9H185.1z"/>
			<path class="st0" d="M192.1,135.2l-0.6,0.5c-0.4-0.7-0.7-1.3-1.1-1.8v7.4h-0.7v-7c-0.6,1.3-1.2,2.4-1.8,3.2l-0.5-0.6     c0.9-1.1,1.6-2.6,2.2-4.2h-1.9V132h2v-2.9h0.7v2.9h1.6v0.7h-1.6v0.2C191,133.5,191.5,134.3,192.1,135.2z M199.8,140.8l-0.5,0.5     c-0.9-0.9-1.9-1.8-2.9-2.5c-1.4,1.1-2.9,2-4.5,2.5l-0.4-0.6c3.4-1.2,5.8-3.2,7.4-6.1l0.7,0.3c-0.7,1.3-1.6,2.5-2.6,3.4     C198.1,139.2,199,140.1,199.8,140.8z M199.7,131.4H196c-0.6,1.1-1.3,2.1-2.2,3c0.8-0.1,1.8-0.2,2.9-0.3c0.4-0.6,0.7-1,0.9-1.5     l0.7,0.3c-1.3,2.6-3.3,4.5-6.1,5.5l-0.4-0.6c1.9-0.7,3.4-1.7,4.4-2.9c-1.5,0.2-2.6,0.3-3.5,0.4l-0.2-0.7c0.5,0,1.4-1,2.7-3.1h-3     v-0.7h3.6c-0.2-0.4-0.4-0.8-0.8-1.4l0.7-0.3c0.3,0.5,0.6,1,0.9,1.6h3.2V131.4z"/>
			<path class="st0" d="M203,133.7c-0.6,2.5-1.2,4.6-2,6l-0.7-0.5c0.8-1.4,1.4-3.3,1.9-5.8L203,133.7z M209.9,137.4     c-0.1,0.9-0.1,1.6-0.2,2.2c-0.1,0.6-0.2,1-0.4,1.2s-0.3,0.3-0.6,0.4s-0.8,0.1-1.7,0.1c-0.6,0-1.2,0-1.6,0c-0.4,0-0.7-0.1-0.9-0.3     c-0.2-0.2-0.3-0.4-0.3-0.8v-7.8h0.8v7.6c0,0.1,0,0.2,0.1,0.3s0.2,0.2,0.2,0.2s0.4,0,1.1,0l1.8,0c0.1,0,0.3-0.1,0.4-0.2     s0.3-0.5,0.3-1.2s0.1-1.3,0.1-1.9L209.9,137.4z M208.6,132.9l-0.6,0.5c-0.7-1.3-1.8-2.5-3.2-3.8l0.6-0.5     C206.7,130.3,207.8,131.5,208.6,132.9z M212.6,139l-0.8,0.3c-0.4-1.6-1.1-3.3-2.2-5.3l0.7-0.4C211.4,135.6,212.2,137.4,212.6,139     z"/>
			<path class="st0" d="M219.5,133.9c0.4,0,0.7,0.1,1,0.4s0.4,0.6,0.4,1s-0.1,0.7-0.4,1s-0.6,0.4-1,0.4c-0.4,0-0.7-0.1-1-0.4     c-0.3-0.2-0.4-0.6-0.4-1.1c0-0.5,0.1-0.8,0.4-1C218.9,134,219.2,133.9,219.5,133.9z M220.3,135.3c0-0.2-0.1-0.4-0.2-0.6     s-0.4-0.2-0.6-0.2c-0.2,0-0.4,0.1-0.6,0.2c-0.2,0.2-0.2,0.3-0.2,0.6c0,0.2,0.1,0.4,0.2,0.6s0.3,0.3,0.6,0.3     c0.2,0,0.4-0.1,0.6-0.2C220.3,135.7,220.3,135.5,220.3,135.3z"/>
		</g>
	</g>
	<g>
		<path class="st0" d="M37.6,30.8c0,2.3-0.8,4-2.5,5.3c-1.5,1.2-3.5,1.8-5.9,1.8h-9.4v-24h8.9c2.2,0,4,0.6,5.5,1.7    c1.6,1.3,2.4,3,2.4,5c0,1.8-0.7,3.3-2.1,4.5C36.6,26.5,37.6,28.4,37.6,30.8z M31.7,20.9c0-1.8-1.2-2.6-3.6-2.6h-3.5v5.2h3.6    C30.6,23.4,31.7,22.6,31.7,20.9z M32.7,30.6c0-1.2-0.6-2.1-1.9-2.5c-0.7-0.2-2-0.4-3.8-0.4h-2.5v5.9h3.7    C31.3,33.6,32.7,32.6,32.7,30.6z"/>
		<path class="st0" d="M55.5,37.9h-4.8l-0.1-1.2c-0.9,1.1-2.1,1.6-3.6,1.6c-2.3,0-3.9-0.7-5.1-2c-1.1-1.3-1.7-3.1-1.7-5.4V20.9h4.6    V31c0,2,0.9,3.1,2.6,3.1c1,0,1.7-0.3,2.3-1c0.5-0.6,0.8-1.4,0.8-2.4v-9.7h4.6v12.6C55.1,34.7,55.2,36.2,55.5,37.9z"/>
		<path class="st0" d="M72.4,32.5c0,2-0.8,3.6-2.4,4.6c-1.4,0.9-3.1,1.3-5.3,1.3c-2.1,0-3.8-0.5-5-1.6c-1.3-1.1-2.1-2.7-2.2-4.8h4.6    c0.3,1.4,1.3,2.1,3,2.1c1.8,0,2.6-0.4,2.6-1.2c0-0.5-1.1-1.1-3.3-1.7c-2.1-0.6-3.5-1.1-4.3-1.6c-1.4-0.9-2.1-2.1-2.1-3.7    c0-1.8,0.7-3.3,2.2-4.2c1.3-0.8,2.9-1.2,4.8-1.2c4.4,0,6.7,2,7,6.1h-4.6c-0.4-1.2-1.3-1.8-2.5-1.8c-1.4,0-2,0.3-2,0.9    c0,0.5,0.6,0.9,1.8,1.3c2.9,0.9,4.5,1.5,5.1,1.8C71.5,29.7,72.4,30.9,72.4,32.5z"/>
		<path class="st0" d="M79.1,18.5h-4.6v-4.6h4.6V18.5z M79,37.9h-4.5v-17H79V37.9z"/>
		<path class="st0" d="M96.9,37.9h-4.6V27.8c0-2-0.9-3-2.6-3c-0.9,0-1.7,0.3-2.2,0.9c-0.5,0.6-0.7,1.4-0.7,2.4v9.8h-4.6V25.6    c0-0.8-0.2-2.4-0.5-4.7h4.7l0,1.2c1.2-1.1,2.6-1.7,4.1-1.7c2.3,0,3.9,0.7,5,2.2c0.9,1.2,1.4,2.9,1.4,5V37.9z"/>
		<path class="st0" d="M115.7,30.5H104c0.2,2.4,1.5,3.6,3.7,3.6c1.7,0,2.7-0.6,3.1-1.9h4.8c-0.8,4.1-3.5,6.2-7.9,6.2    c-2.8,0-4.9-0.9-6.4-2.8c-1.4-1.7-2-3.7-2-6.2c0-2.3,0.7-4.3,2-6c1.5-2,3.6-2.9,6.3-2.9c2.9,0,5,1.1,6.5,3.2    C115.1,25.4,115.7,27.7,115.7,30.5z M110.7,27.2c-0.1-0.7-0.4-1.2-1-1.7c-0.6-0.5-1.3-0.8-2.2-0.8c-0.8,0-1.5,0.2-2.1,0.7    c-0.6,0.5-1,1.1-1.1,1.7H110.7z"/>
		<path class="st0" d="M132.3,32.5c0,2-0.8,3.6-2.4,4.6c-1.4,0.9-3.1,1.3-5.3,1.3c-2.1,0-3.8-0.5-5-1.6c-1.3-1.1-2.1-2.7-2.2-4.8    h4.6c0.3,1.4,1.3,2.1,3,2.1c1.8,0,2.6-0.4,2.6-1.2c0-0.5-1.1-1.1-3.3-1.7c-2.1-0.6-3.5-1.1-4.3-1.6c-1.4-0.9-2.1-2.1-2.1-3.7    c0-1.8,0.7-3.3,2.2-4.2c1.3-0.8,2.9-1.2,4.8-1.2c4.4,0,6.7,2,7,6.1h-4.6c-0.4-1.2-1.3-1.8-2.5-1.8c-1.4,0-2,0.3-2,0.9    c0,0.5,0.6,0.9,1.8,1.3c2.9,0.9,4.5,1.5,5.1,1.8C131.4,29.7,132.3,30.9,132.3,32.5z"/>
		<path class="st0" d="M148.6,32.5c0,2-0.8,3.6-2.4,4.6c-1.4,0.9-3.1,1.3-5.3,1.3c-2.1,0-3.8-0.5-5-1.6c-1.3-1.1-2.1-2.7-2.2-4.8    h4.6c0.3,1.4,1.3,2.1,3,2.1c1.8,0,2.6-0.4,2.6-1.2c0-0.5-1.1-1.1-3.3-1.7c-2.1-0.6-3.5-1.1-4.3-1.6c-1.4-0.9-2.1-2.1-2.1-3.7    c0-1.8,0.7-3.3,2.2-4.2c1.3-0.8,2.9-1.2,4.8-1.2c4.4,0,6.7,2,7,6.1h-4.6c-0.4-1.2-1.3-1.8-2.5-1.8c-1.4,0-2,0.3-2,0.9    c0,0.5,0.6,0.9,1.8,1.3c2.9,0.9,4.5,1.5,5.1,1.8C147.7,29.7,148.6,30.9,148.6,32.5z"/>
		<path class="st0" d="M187.6,37.9h-4.7V25l-6,13h-4l-6-13v13h-4.7v-24h4.5l8.2,17.7l8.2-17.7h4.4V37.9z"/>
		<path class="st0" d="M207.8,29.4c0,2.4-0.7,4.5-2.2,6.2c-1.6,1.9-3.8,2.8-6.5,2.8c-2.7,0-4.9-0.9-6.5-2.8    c-1.4-1.7-2.1-3.8-2.1-6.2c0-2.4,0.7-4.5,2.2-6.2c1.6-1.9,3.8-2.8,6.5-2.8c2.7,0,4.9,0.9,6.5,2.8C207.1,24.9,207.8,27,207.8,29.4z     M203.1,29.4c0-1.3-0.3-2.4-1-3.3c-0.7-0.9-1.6-1.3-2.9-1.3c-1.2,0-2.1,0.4-2.8,1.3c-0.7,0.9-1,2-1,3.3c0,1.3,0.3,2.4,1,3.3    c0.7,0.9,1.7,1.4,2.9,1.4s2.2-0.5,2.9-1.4C202.7,31.8,203.1,30.7,203.1,29.4z"/>
		<path class="st0" d="M226.5,37.9h-4.7l-0.1-0.8c-1.4,0.8-2.8,1.2-4.2,1.2c-2.6,0-4.6-1-6-2.9c-1.1-1.6-1.7-3.6-1.7-6    c0-2.3,0.6-4.3,1.8-6c1.4-2,3.4-3,6-3c1.4,0,2.7,0.3,3.9,0.9v-7.4h4.6v19.3C226.1,34.4,226.2,36,226.5,37.9z M221.5,29.2    c0-3-1.1-4.4-3.4-4.4c-1.1,0-1.9,0.5-2.6,1.4c-0.6,0.9-1,2-1,3.3c0,1.3,0.3,2.4,1,3.3c0.7,0.9,1.5,1.4,2.5,1.4    C220.3,34.1,221.5,32.5,221.5,29.2z"/>
		<path class="st0" d="M245.3,30.5h-11.7c0.2,2.4,1.5,3.6,3.7,3.6c1.7,0,2.7-0.6,3.1-1.9h4.8c-0.8,4.1-3.5,6.2-7.9,6.2    c-2.8,0-4.9-0.9-6.4-2.8c-1.4-1.7-2-3.7-2-6.2c0-2.3,0.7-4.3,2-6c1.5-2,3.6-2.9,6.3-2.9c2.9,0,5,1.1,6.5,3.2    C244.7,25.4,245.3,27.7,245.3,30.5z M240.2,27.2c-0.1-0.7-0.4-1.2-1-1.7c-0.6-0.5-1.3-0.8-2.2-0.8c-0.8,0-1.5,0.2-2.1,0.7    c-0.6,0.5-1,1.1-1.1,1.7H240.2z"/>
		<path class="st0" d="M252.1,37.9h-4.6v-24h4.6V37.9z"/>
	</g>
	<line class="st1" x1="0" y1="0" x2="271.7" y2="0"/>
	<line class="st1" x1="0" y1="58" x2="271.7" y2="58"/>
</g>
</svg>