<?xml version="1.0" encoding="UTF-8"?>
<!-- Generator: Adobe Illustrator 21.0.2, SVG Export Plug-In . SVG Version: 6.00 Build 0)  -->
<svg version="1.1" id="圖層_1" xmlns="http://www.w3.org/2000/svg" xmlns:xlink="http://www.w3.org/1999/xlink" x="0px" y="0px" width="500px" height="182.7px" viewBox="0 0 500 182.7" style="enable-background:new 0 0 500 182.7;" xml:space="preserve">
<style type="text/css">
	.st0{fill:#FFFFFF;}
	.st1{fill:none;stroke:#FFFFFF;stroke-width:2;stroke-miterlimit:10;}
	.st2{stroke:#FFFFFF;stroke-width:2;stroke-miterlimit:10;}
</style>
<g>
	<g>
		<path class="st0" d="M95.6,142.3v12.2h-1.4v-1H83.8v1h-1.4v-12.2h5.8v-2.5h1.5v2.5H95.6z M83.8,147h4.3v-3.3h-4.3V147z     M83.8,152.1h4.3v-3.7h-4.3V152.1z M89.7,143.7v3.3h4.5v-3.3H89.7z M89.7,152.1h4.5v-3.7h-4.5V152.1z"/>
		<path class="st0" d="M101.4,140.5l1.6,0.6c-0.6,1.6-1.1,2.8-1.5,3.5c-0.4,0.8-1.1,1.7-2.1,2.8l-1.3-1.1c0.9-0.9,1.6-1.8,2.1-2.6    C100.6,142.8,101,141.8,101.4,140.5z M103.6,144.8l1.7,0.6c-1,2.7-2,4.9-3.1,6.6c2.3-0.1,4.4-0.2,6.3-0.4c-0.5-1.1-1-2.2-1.6-3.2    l1.5-0.5c1.1,1.8,2.1,3.9,3,6.2l-1.8,0.5c-0.2-0.6-0.4-1.1-0.6-1.6c-2.1,0.3-5.6,0.5-10.3,0.8l-0.3-1.6c0.6,0,1.2,0,1.8,0    C101.3,150.3,102.4,147.9,103.6,144.8z M104.3,140.2h4.4c0.6,2,1.8,3.8,3.7,5.6l-1,1.5c-0.9-0.8-1.7-1.7-2.2-2.5    c-0.7-0.9-1.2-2-1.6-3.1h-3.2V140.2z"/>
		<path class="st0" d="M114.1,140.6h13.4v12.2c0,0.6-0.2,1-0.5,1.3c-0.3,0.3-0.8,0.4-1.4,0.4h-2.2l-0.3-1.6l2.2,0.1    c0.4,0,0.6-0.2,0.6-0.7V142h-11.7V140.6z M114.3,143.5h8.9v1.4h-8.9V143.5z M114.7,146.3h7.9v5.5h-7.9V146.3z M121.1,150.4v-2.7    h-4.8v2.7H121.1z"/>
		<path class="st0" d="M143.2,143v9.7c0,0.6-0.1,1-0.4,1.2c-0.2,0.3-0.6,0.4-1,0.4h-2.7l-0.3-1.6l2.4,0.1c0.3,0,0.5-0.3,0.5-0.7    v-2.1l-0.9,1.1c-0.9-0.9-1.7-1.7-2.2-2.5c-0.5-0.8-1-1.7-1.4-2.7c-0.2,0.6-0.5,1.2-0.8,1.7c-0.7,1.2-1.8,2.5-3.2,3.8l-0.6-1v4    h-1.5V143h5.4v-1.6h-3.4v-1.2h5v2.8H143.2z M132.4,149.9c1.2-1.1,2.1-2.2,2.7-3.1c0.4-0.7,0.8-1.5,1.1-2.4h-3.7V149.9z     M137.9,144.3c0.4,1,0.8,1.9,1.3,2.7c0.5,0.9,1.3,1.8,2.5,2.7v-5.4H137.9z"/>
		<path class="st0" d="M148.1,143c0.4,0.8,0.7,1.7,1,2.8h1.5c0.4-0.8,0.7-1.8,1-2.8l1.4,0.4c-0.3,0.9-0.6,1.6-0.9,2.3h2.1v1.4h-8.6    v-1.4h2.1c-0.2-0.7-0.6-1.5-1-2.3L148.1,143z M150,139.8c0.3,0.5,0.5,1,0.8,1.5h3.2v1.4h-8.1v-1.4h3.4c-0.2-0.5-0.5-0.9-0.8-1.4    L150,139.8z M153.2,148.5v6.1h-1.4v-0.9h-4v0.9h-1.4v-6.1H153.2z M147.7,152.3h4v-2.5h-4V152.3z M154.6,140.6h5.6v1.2    c-0.5,1.7-1.1,3.3-1.7,4.8c0.7,0.9,1.1,1.7,1.3,2.2c0.3,0.6,0.4,1.1,0.4,1.6c0,1-0.2,1.7-0.5,2.2c-0.3,0.5-1.2,0.7-2.6,0.7    l-0.4-1.6c0.5,0.1,0.9,0.1,1.4,0.1c0.3,0,0.5-0.1,0.7-0.4c0.1-0.2,0.2-0.5,0.2-1c0-0.3-0.1-0.8-0.3-1.3c-0.2-0.5-0.7-1.4-1.5-2.5    c0.7-1.6,1.2-3.1,1.6-4.5h-2.6v12.6h-1.5V140.6z"/>
		<path class="st0" d="M168.3,140l0.8,1.4c-1.4,0.5-3,0.8-4.8,0.9v1.6h3.9v5.2h-4c-0.1,0.8-0.2,1.6-0.3,2.5c-0.2,1.1-0.6,2.2-1,3.1    l-1.1-1.2c0.4-0.8,0.6-1.6,0.8-2.5c0.1-0.9,0.2-2,0.3-3.2V141C165,141,166.8,140.7,168.3,140z M164.3,147.7h2.6v-2.4h-2.6V147.7z     M175.6,139.9l0.8,1.5c-1.7,0.5-3.5,0.8-5.6,0.9v2.8h5.7v1.4h-1.6v8.1h-1.5v-8.1h-2.5v1.8c0,1.1-0.2,2.2-0.6,3.4    c-0.3,1-0.8,2-1.5,2.9l-1.1-1.2c0.6-0.7,1-1.5,1.2-2.2c0.2-0.8,0.4-1.8,0.5-2.9V141C171.8,141,173.9,140.6,175.6,139.9z"/>
		<path class="st0" d="M177.7,142.8h1.8v-2.9h1.4v2.9h1.5v1.3h-1.5v2.9c0.5-0.3,0.9-0.6,1.4-0.9v1.6c-0.5,0.3-0.9,0.6-1.4,0.9v4.3    c0,0.6-0.1,1-0.4,1.2c-0.2,0.2-0.6,0.4-1.2,0.4h-1.1l-0.3-1.6c0.4,0.1,0.8,0.1,1.1,0.1c0.4,0,0.6-0.1,0.6-0.4v-3.3    c-0.6,0.2-1.1,0.5-1.7,0.6l-0.2-1.6c0.6-0.1,1.2-0.3,1.9-0.6v-3.6h-1.8V142.8z M182.9,148.6h8.7v1.4h-3.6v2.5h4.3v1.4h-10.1v-1.4    h4.2V150h-3.5V148.6z M185.6,143.4l1.4,0.3c-0.3,1.3-0.6,2.2-1.1,2.9c-0.4,0.6-1.2,1.2-2.4,1.6l-0.8-1.2c1-0.4,1.7-0.9,2.1-1.4    C185.1,145.1,185.4,144.4,185.6,143.4z M187.6,139.8c0.2,0.5,0.3,1,0.5,1.6h3.8v3.1h-1.4v-1.8h-6.3v1.8h-1.4v-3.1h3.8    c-0.2-0.5-0.3-0.9-0.5-1.4L187.6,139.8z M187.8,143.5h1.4v2.1c0,0.4,0.2,0.5,0.6,0.5h2.3v1.3h-2.6c-0.5,0-0.9-0.1-1.2-0.3    c-0.3-0.2-0.5-0.6-0.5-1.1V143.5z"/>
		<path class="st0" d="M196.1,139.8l1.3,0.2c-0.2,0.3-0.4,0.6-0.6,0.8h4.1v1.1c0.8-0.6,1.3-1.3,1.7-2.1l1.3,0.2    c-0.1,0.3-0.3,0.5-0.4,0.8h4.8v1.2h-2.9c0.2,0.4,0.3,0.9,0.5,1.3l-1.5,0.1c-0.1-0.5-0.2-1-0.3-1.5h-1.4c-0.3,0.4-0.6,0.8-1,1.1    l-0.9-1.1h-2.2c0.2,0.4,0.3,0.9,0.5,1.3l-1.6,0.1c-0.1-0.5-0.2-1-0.3-1.5h-1.3c-0.4,0.5-0.9,0.9-1.4,1.2l-0.9-1.1    C194.6,141.5,195.5,140.7,196.1,139.8z M201.1,142.6c0.2,0.4,0.3,0.9,0.5,1.4h6.6v3.5h-1.4v-2.3h-11.4v2.3h-1.4v-3.5h6.2    c-0.2-0.4-0.4-0.9-0.5-1.2L201.1,142.6z M206.1,146.2v3.3h-9v0.9h9.5v4.1h-1.4v-0.6h-8.1v0.6h-1.4v-8.3H206.1z M197.2,148.3h7.6    v-1h-7.6V148.3z M197.2,152.7h8.1v-1.2h-8.1V152.7z"/>
		<path class="st0" d="M213,139.9l1.4,0.2c-0.2,0.8-0.5,1.6-0.8,2.3h2.3v3.3c0.5-0.8,0.8-1.6,1.1-2.3c0.3-0.9,0.6-2.1,0.8-3.6    l1.6,0.2c-0.1,0.9-0.3,1.6-0.4,2.3h4.9c0,5.6-0.1,8.9-0.2,10c-0.2,0.8-0.4,1.3-0.8,1.6c-0.4,0.3-1.3,0.5-2.5,0.5    c-0.4,0-0.8,0-1.2-0.1l-0.2-1.6c0.5,0.1,0.9,0.1,1.4,0.1c1,0,1.6-0.3,1.7-1c0.2-0.8,0.3-3.5,0.3-8.1h-3.8c0,0.1-0.1,0.2-0.1,0.3    c-0.3,1.2-0.9,2.4-1.8,3.7l-0.8-0.9v6.5h-1.4v-0.8h-2.9v1.2h-1.4v-11.4h2C212.6,141.6,212.8,140.8,213,139.9z M211.6,146.8h2.9    v-3.1h-2.9V146.8z M211.6,151.3h2.9v-3.2h-2.9V151.3z M219.1,145.9c0.9,1.5,1.6,2.8,2.1,3.8l-1.5,1c-0.4-1.2-1.1-2.5-1.9-4    L219.1,145.9z"/>
		<path class="st0" d="M238,140.5h-3.8v6.7H233v-7.9h5V140.5z"/>
		<path class="st0" d="M243.4,139.8l1.2,0.2c-0.1,0.3-0.2,0.5-0.4,0.8h1.3v-1h1.4v1h3.3v1H247v0.7h3.7v1.1H247v0.8h3.4v1.7    c0,0.4-0.1,0.7-0.4,0.9c-0.2,0.2-0.5,0.2-0.9,0.2h-1.1l-0.2-1l0.9,0.1c0.3,0,0.5-0.2,0.5-0.5v-0.4h-2v2.5h-1.4v-2.5h-1.8v2h-1.4    v-3h3.1v-0.8H242v-1.1h0.6l-0.9-0.6C242.5,141.3,243.1,140.6,243.4,139.8z M249.5,147.5c0.2,0.3,0.4,0.6,0.5,1h6.1v1.2h-5.4    c0.5,0.6,0.9,1.1,1.4,1.5c0.3-0.1,0.5-0.3,0.8-0.4c0.3-0.2,0.6-0.5,0.9-0.8l1.1,0.6c-0.4,0.5-0.8,0.8-1.1,1.1    c-0.2,0.1-0.3,0.3-0.5,0.4c0.8,0.4,1.8,0.8,3.1,1.2l-0.7,1.3c-1.7-0.6-2.9-1.2-3.7-1.8c-0.9-0.7-1.7-1.6-2.5-2.9h-0.8    c-0.5,0.4-0.9,0.8-1.5,1.1v2c1.2-0.1,2.3-0.3,3.2-0.5v1.2c-1.2,0.3-3.2,0.6-6.2,0.9l-0.2-1.4c0.6,0,1.1,0,1.7-0.1v-1.4    c-0.9,0.4-1.9,0.8-3,1.1l-0.8-1.2c1.6-0.4,2.8-0.7,3.7-1.1c0.4-0.2,0.8-0.4,1.1-0.6h-4.8v-1.2h6.7c-0.2-0.3-0.3-0.6-0.5-0.8    L249.5,147.5z M245.6,142.6v-0.7h-2c-0.2,0.3-0.4,0.5-0.7,0.7H245.6z M251.5,140.6h1.4v4.7h-1.4V140.6z M254.1,139.8h1.4v6.6    c0,0.5-0.1,0.8-0.4,1c-0.2,0.2-0.6,0.3-1.2,0.3h-1.7l-0.3-1.4c0.6,0.1,1.2,0.1,1.6,0.1c0.4,0,0.6-0.1,0.6-0.3V139.8z"/>
		<path class="st0" d="M257.7,143.7h4.1v1c-0.5,0.9-1.2,1.8-2,2.8h2v1c-0.2,0.9-0.4,1.6-0.7,2.2c0.7,0.8,1.5,1.4,2.4,1.7    c0.9,0.3,2.6,0.4,5,0.4c1.5,0,2.8,0,3.8-0.1l-0.4,1.6c-4.9,0-7.9-0.2-8.9-0.5c-1-0.3-1.8-0.9-2.5-1.8c-0.5,0.8-1.1,1.7-2,2.6    l-1-1.1c0.9-0.8,1.5-1.6,1.8-2.2c0.3-0.4,0.6-1.1,1-2.3h-2.3v-1.2c0.6-0.7,1.3-1.6,2-2.6h-2.4V143.7z M259.4,140.1    c0.8,0.7,1.4,1.3,1.9,1.9l-1,1c-0.4-0.6-1.1-1.3-1.9-2.1L259.4,140.1z M264.2,140l1.4,0.3c-0.2,0.5-0.3,0.9-0.5,1.3h1.4v-1.8h1.4    v1.8h3.5v1.3h-3.5v1.6h4.2v1.3h-4.2v1h-1.4v-1h-4.2v-1.3h4.2v-1.6h-2.1c-0.3,0.5-0.7,1-1,1.4l-1.3-0.8    C263.1,142.4,263.8,141.3,264.2,140z M263.2,147.2h8v4.2h-8V147.2z M269.8,150.1v-1.7h-5.1v1.7H269.8z"/>
		<path class="st0" d="M283.2,148.5l-1.1,0.9c-0.3-0.5-0.8-1.1-1.5-1.9c-0.4-0.4-1-1-1.8-1.6l1-0.8c0.5,0.4,1.2,0.9,1.9,1.6    C282.1,147.2,282.6,147.8,283.2,148.5z"/>
		<path class="st0" d="M290.5,141.1l1.2,0.1c0,0.7-0.1,1.4-0.2,2h1v-3.4h1.5v3.4h1.4v1.1c0.4-0.6,0.7-1.1,0.9-1.6    c0.3-0.7,0.6-1.7,0.8-2.9l1.5,0.2c-0.1,0.7-0.3,1.3-0.5,1.9h5.8c0,5.8-0.1,9.2-0.2,10.2c-0.1,0.8-0.4,1.4-0.7,1.7    c-0.4,0.3-1.1,0.5-2.2,0.5c-0.4,0-0.8,0-1.2-0.1l-0.2-1.6c0.5,0.1,1,0.1,1.5,0.1c0.9,0,1.3-0.3,1.4-1c0.2-0.9,0.3-3.7,0.3-8.5    h-0.4c-0.4,2.6-1,4.7-1.7,6.2c-0.8,1.7-2.1,3.1-3.7,4.4l-1-1.2c1.5-1.2,2.6-2.5,3.4-3.9c0.7-1.4,1.2-3.2,1.6-5.5h-0.7    c-0.4,1.5-0.8,2.7-1.3,3.6c-0.5,1.2-1.5,2.4-2.7,3.8l-1-1.2c1.1-1,1.9-2,2.4-3c0.5-0.8,0.8-1.8,1.1-3.1h-0.8c0,0,0,0.1,0,0.1    c-0.4,0.9-1,2-1.8,3l-1-1.3c0.1-0.2,0.2-0.3,0.3-0.5h-1.2v3.1c0.5-0.2,1-0.4,1.5-0.6v1.4c-0.5,0.2-1,0.4-1.5,0.6v5.3h-1.5v-4.8    c-0.8,0.3-1.6,0.5-2.5,0.8l-0.4-1.6c1-0.2,1.9-0.4,2.9-0.7v-3.6h-1.1c-0.1,0.9-0.3,1.7-0.5,2.4l-1.4-0.5    C290,144.9,290.3,143,290.5,141.1z"/>
		<path class="st0" d="M306.4,143.9c1,0.4,2,1,2.8,1.6l-0.9,1.5c-0.9-0.8-1.8-1.4-2.7-1.8L306.4,143.9z M308,147.7l1.2,0.9    c-0.7,2.2-1.4,4.2-2.3,5.9l-1.2-1.3C306.5,151.9,307.2,150.1,308,147.7z M306.9,140.1c0.9,0.4,1.8,0.8,2.6,1.3l-1,1.4    c-0.8-0.7-1.6-1.2-2.4-1.6L306.9,140.1z M310.8,147.3h1.4c-0.1,2.1-0.3,3.7-0.7,4.6c-0.4,1-1.1,1.9-2.1,2.7l-1-1.2    c0.9-0.6,1.5-1.3,1.8-2.1C310.5,150.5,310.7,149.2,310.8,147.3z M314.4,139.8c0.5,0.5,0.9,1,1.3,1.6h4.7v1.3h-6.2    c-0.3,0.9-0.8,1.7-1.4,2.5c2-0.1,3.6-0.2,4.9-0.3c-0.3-0.4-0.5-0.8-0.8-1.1l1-1c0.9,1.1,1.6,2.2,2.2,3.2l-1,1.1    c-0.2-0.4-0.4-0.7-0.6-1.1c-1.9,0.3-4.6,0.5-8.3,0.7l-0.4-1.4h1.2c0.6-0.8,1.1-1.6,1.5-2.5h-2.8v-1.3h4.5    c-0.3-0.3-0.7-0.7-1.1-1.1L314.4,139.8z M313.5,147.3h1.4v7.1h-1.4V147.3z M316.4,147.3h1.4v5.4c0,0.2,0.2,0.4,0.5,0.4    c0.5,0,0.7-0.2,0.7-0.5V150l1.3,0.6c0,1.8-0.2,2.9-0.5,3.3c-0.2,0.3-0.8,0.5-1.5,0.5c-0.6,0-1.1-0.1-1.4-0.3    c-0.3-0.2-0.5-0.5-0.5-0.9V147.3z"/>
		<path class="st0" d="M331.2,148.5l-1.1,0.9c-0.3-0.5-0.8-1.1-1.5-1.9c-0.4-0.4-1-1-1.8-1.6l1-0.8c0.5,0.4,1.2,0.9,1.9,1.6    C330.1,147.2,330.6,147.8,331.2,148.5z"/>
		<path class="st0" d="M338.6,140.3h12.7v1.2h-5.6v0.8h6.5v3.5h-1.5v-2.3h-4.9v2.9c1,0.5,1.9,0.8,3,1.1c0.8,0.2,2,0.5,3.8,0.8    l-0.9,1.3c-0.9-0.2-1.8-0.4-2.6-0.6c-1.3-0.4-2.6-0.9-4-1.7c-1,0.5-2,0.9-2.9,1.2c-1,0.3-2.3,0.7-4,1.1l-0.7-1.4    c1.9-0.3,3.4-0.6,4.4-0.9c0.8-0.2,1.6-0.5,2.4-0.9v-2.9h-4.9v2.5h-1.5v-3.6h6.4v-0.8h-5.6V140.3z M344.8,147.8    c0.5,0.4,1,1,1.4,1.5h4.2v1.1c-0.6,0.6-1.2,1.1-2,1.5c-0.5,0.3-1.1,0.6-1.8,0.8c0.4,0.2,0.8,0.5,1.1,0.7l-0.8,1.2    c-1.6-1.2-3.3-2.1-5-2.8l0.7-1c1,0.4,1.9,0.8,2.8,1.2c0.8-0.3,1.6-0.6,2.3-1c0.3-0.2,0.6-0.3,0.9-0.6h-9.2v-1.2h5.3    c-0.3-0.3-0.7-0.7-1.2-1L344.8,147.8z M339.9,144h3.8v1h-3.8V144z M339.9,145.5h3.8v1h-3.8V145.5z M346.3,143.9h3.9v0.9h-3.9    V143.9z M346.3,145.5h3.9v1h-3.9V145.5z"/>
		<path class="st0" d="M356.9,139.8l1.4,0.3c-0.2,0.4-0.4,0.9-0.6,1.2h3.6c-0.2-0.4-0.5-0.9-0.8-1.2l1.6-0.2    c0.3,0.4,0.5,0.9,0.8,1.4h5.2v1.2h-5.2v0.9h4.7v1.1h-4.7v0.9h4.7v1.1h-4.7v1h5.5v1.2h-12.5v-4.5c-0.4,0.5-0.8,0.9-1.2,1.3l-1-1.2    C355,143,356.1,141.5,356.9,139.8z M367.4,149.7v4.8h-1.5v-0.7h-9v0.7h-1.4v-4.8H367.4z M356.9,152.5h9V151h-9V152.5z     M361.3,143.5v-0.9h-4.1v0.9H361.3z M361.3,145.5v-0.9h-4.1v0.9H361.3z M361.3,147.7v-1h-4.1v1H361.3z"/>
		<path class="st0" d="M374.8,139.8h1.4v2.5h1.4v-2.5h1.4v2.5h1.1c0.4-0.6,0.7-1.3,1.1-2.2l1.5,0.6c-0.3,0.6-0.6,1.2-0.9,1.6h2.4    v1.3h-4.4l1.1,0.4c-0.2,0.4-0.5,0.7-0.7,1h3.5v1.2h-6v0.9h5.6v1.2h-5.6v0.9h6.5v1.2H379c0.7,0.6,1.4,1.1,1.9,1.3    c0.8,0.4,1.8,0.7,3.2,1l-0.8,1.3c-1.6-0.5-2.8-1-3.5-1.5c-0.7-0.5-1.4-1.1-2.1-2v3.7h-1.5v-3.7c-0.4,0.5-0.9,1-1.4,1.4    c-0.9,0.7-2.3,1.4-4.1,2.1l-0.8-1.2c1.8-0.6,3.1-1.1,3.9-1.6c0.4-0.2,0.8-0.5,1.1-0.8h-5.1v-1.2h6.4v-0.9h-5.5v-1.2h5.5v-0.9h-5.9    V145h3.6c-0.2-0.3-0.4-0.7-0.6-1l1-0.4h-4.5v-1.3h2.3c-0.2-0.5-0.4-1.1-0.7-1.7l1.4-0.5c0.3,0.6,0.6,1.3,0.8,2.2h1.1V139.8z     M375.4,145h3.1c0.3-0.4,0.6-0.9,0.8-1.4h-4.5C375,144.1,375.2,144.5,375.4,145z"/>
		<path class="st0" d="M393,155.1h-5v-1.2h3.8v-6.7h1.2V155.1z"/>
		<path class="st0" d="M410,147.3c0,0.6-0.2,1.1-0.5,1.5c-0.2,0.3-0.7,0.7-1.3,1l-0.5-0.8c0.8-0.4,1.2-0.8,1.3-1.4h-1v-1.9h1.9    V147.3z"/>
		<path class="st0" d="M137.7,174.9h14.6v1.4H146v1.5h5.5v1.3H146v1.6c0.8,0.1,1.7,0.1,2.8,0.1c1.5,0,2.7,0,3.7-0.1l-0.4,1.6    c-4.9,0-7.8-0.2-8.8-0.5c-0.9-0.3-1.7-1-2.4-1.9c-0.4,0.9-1.2,1.8-2.2,2.8l-1.1-1.4c0.9-0.7,1.5-1.4,1.9-2.1    c0.4-0.7,0.8-1.5,1-2.6l1.6,0.2c-0.2,0.7-0.4,1.3-0.6,1.8c0.6,0.9,1.4,1.5,2.4,1.8c0.2,0.1,0.4,0.1,0.6,0.2v-4.2h-6.8V174.9z     M139.3,168.2h11.5v5.8h-11.5V168.2z M140.9,170.5h8.3v-1h-8.3V170.5z M149.2,172.7v-1h-8.3v1H149.2z"/>
		<path class="st0" d="M156.1,170.4h10.1l-0.1,1.6h2.3v1H166l-0.1,1.6h-10.2l0.1-1.6h-2.2v-1h2.3L156.1,170.4z M161.3,167.7    c0.2,0.3,0.4,0.6,0.6,0.9h6.1v2.8h-1.4v-1.6h-11.1v1.6H154v-2.8h6.3c-0.2-0.3-0.4-0.5-0.6-0.8L161.3,167.7z M155.3,175.2h11.3v5.4    h-3.1c1.4,0.2,2.7,0.6,4.2,1l-0.4,1.2c-1.6-0.6-3.2-1-5-1.2l0.4-0.9h-3.3l0.4,0.6c-0.8,0.4-1.5,0.7-2.1,0.9    c-0.7,0.2-1.6,0.5-2.7,0.7l-0.7-1.2c1.1-0.2,2-0.3,2.8-0.6c0.3-0.1,0.7-0.2,1-0.3h-2.7V175.2z M156.7,176.6h8.5v-0.6h-8.5V176.6z     M156.7,178.1h8.5v-0.6h-8.5V178.1z M165.2,179.6V179h-8.5v0.6H165.2z M157.2,173.6h3l0-0.6h-3L157.2,173.6z M157.3,172h3l0-0.7    h-2.9L157.3,172z M161.5,173l0,0.6h3.2l0-0.6H161.5z M161.6,171.3l0,0.7h3.2l0-0.7H161.6z"/>
		<path class="st0" d="M169.8,168.8h5.7v1.5h-2.2v3.2h1.9v1.5h-1.9v3.5c0.8-0.3,1.5-0.5,2.1-0.8v1.6c-1.6,0.7-3.5,1.3-5.5,1.9    l-0.4-1.6c0.8-0.2,1.6-0.4,2.4-0.7v-4h-1.9v-1.5h1.9v-3.2h-2.1V168.8z M176.1,168.5h7.4v8.9h-1.9v3.1c0,0.3,0.2,0.4,0.6,0.4h0.4    c0.2,0,0.3-0.1,0.4-0.2c0.1-0.2,0.1-0.9,0.2-2.2l1.4,0.5c-0.1,1.6-0.3,2.5-0.5,2.8c-0.2,0.3-0.6,0.4-1.2,0.4h-1.2    c-0.4,0-0.8-0.1-1.1-0.3c-0.2-0.3-0.4-0.6-0.4-1v-3.5h-1.3c-0.1,1.3-0.4,2.3-0.8,3c-0.5,0.8-1.4,1.5-2.6,2.1l-1-1.3    c1.1-0.5,1.9-1,2.3-1.5c0.4-0.5,0.6-1.3,0.7-2.4h-1.4V168.5z M177.4,171h4.7v-1.2h-4.7V171z M177.4,173.5h4.7v-1.3h-4.7V173.5z     M182.1,176.1v-1.4h-4.7v1.4H182.1z"/>
		<path class="st0" d="M197.8,172v8.8h2.3v1.3h-14.2v-1.3h2.3V172H197.8z M193.4,167.8c0.2,0.4,0.4,0.8,0.6,1.3h5.9v3.6h-1.5v-2.2    h-10.7v2.2h-1.5v-3.6h6.2c-0.2-0.4-0.4-0.7-0.6-1.1L193.4,167.8z M189.7,175h6.6v-1.6h-6.6V175z M189.7,177.9h6.6v-1.5h-6.6V177.9    z M189.7,180.8h6.6v-1.6h-6.6V180.8z"/>
		<path class="st0" d="M205.7,167.9l1.1,0.9c-1.1,1.4-2.4,2.6-4.1,3.7l-1-1.3C203.2,170.3,204.6,169.2,205.7,167.9z M205.6,171.8    l1.3,0.6c-0.5,1.1-1,2-1.6,2.7v7.3h-1.5v-5.7c-0.5,0.5-1,0.9-1.5,1.4l-0.5-1.8c0.8-0.6,1.5-1.3,2.1-2    C204.4,173.8,205,172.9,205.6,171.8z M206.5,174.8h9.4v1.2h-1.7v1h2.1v1.3h-2.1v2.8c0,0.5-0.1,0.9-0.4,1.1    c-0.2,0.2-0.6,0.4-1.2,0.4h-1.9l-0.3-1.5c0.7,0.1,1.3,0.1,1.8,0.1c0.4,0,0.6-0.1,0.6-0.4v-2.5h-6.8v-1.3h6.8v-1h-6.3V174.8z     M207.2,168.5h8.4v5.4h-8.4V168.5z M209.1,178.5c0.5,0.6,0.9,1.2,1.3,1.9L209,181c-0.4-0.8-0.8-1.5-1.3-2.1L209.1,178.5z     M208.6,170.6h5.5v-1h-5.5V170.6z M214.1,172.7v-1h-5.5v1H214.1z"/>
		<path class="st0" d="M224.7,168l0.5,1.4c-0.8,0.3-1.7,0.5-2.6,0.7v2.1h2.9v1.5h-2.9v0.1c1,1,2,2.1,3.1,3.3l-0.9,1.3    c-0.9-1.2-1.6-2.2-2.2-3v7.1h-1.4v-6.9c-0.3,0.7-0.6,1.3-0.8,1.7c-0.5,0.9-1.2,1.7-2,2.6l-0.8-1.4c0.8-0.7,1.4-1.5,2-2.5    c0.4-0.7,0.8-1.4,1.1-2.3h-2.8v-1.5h3.3v-1.9c-0.9,0.1-1.8,0.2-2.8,0.3l-0.3-1.4C220.5,169,222.8,168.6,224.7,168z M226.4,169.1    h1.5v10.2h-1.5V169.1z M230,167.9h1.6v12.8c0,0.6-0.1,1-0.4,1.2c-0.2,0.3-0.7,0.4-1.4,0.4h-2.6l-0.3-1.6c1,0.1,1.8,0.1,2.4,0.1    c0.4,0,0.6-0.1,0.6-0.4V167.9z"/>
		<path class="st0" d="M241.3,168.3v1.2h-1.8c0,0.5-0.1,0.9-0.2,1.3h1.9v6.1h-1.6v4.1c0,0.5-0.1,0.8-0.3,1c-0.2,0.2-0.5,0.3-1,0.3    h-1.1l-0.2-1.4c0.4,0.1,0.7,0.1,1,0.1c0.3,0,0.5-0.1,0.5-0.3V177h-1.9v-6.1h1.5c0.1-0.4,0.2-0.9,0.2-1.3h-2.4v4.2    c0,1.3-0.1,2.8-0.2,4.2c-0.2,1.5-0.4,3-0.8,4.5l-1.2-1.1c0.3-1.2,0.5-2.5,0.7-3.8c0.1-1.4,0.1-2.7,0.1-3.8v-5.5H241.3z     M236.7,177.3l1.2,0.3c-0.3,1.4-0.7,2.6-1.2,3.6l-1-0.7C236.1,179.5,236.5,178.5,236.7,177.3z M237.7,173.3h2.2v-1.2h-2.2V173.3z     M239.9,175.8v-1.4h-2.2v1.4H239.9z M240.9,177.3c0.4,0.9,0.7,1.9,1,3l-1.2,0.3c-0.2-1-0.6-2-1-3L240.9,177.3z M243.4,179.5l1,0.5    c-0.6,1-1.4,1.8-2.2,2.6l-1.1-0.8C241.9,181.1,242.7,180.3,243.4,179.5z M241.7,168.3h6.6v1.2h-2.6c-0.1,0.4-0.2,0.8-0.3,1.2h2.2    v8.4h-5.6v-8.4h1.9c0.2-0.4,0.3-0.8,0.4-1.2h-2.7V168.3z M243.4,173.2h2.8V172h-2.8V173.2z M243.4,175.6h2.8v-1.3h-2.8V175.6z     M246.3,178.1v-1.4h-2.8v1.4H246.3z M245.9,179.5c1,0.8,1.8,1.5,2.3,2.1l-1.2,0.8c-0.5-0.7-1.2-1.4-2.1-2.3L245.9,179.5z"/>
		<path class="st0" d="M251,168.2h12v4.6h-5.5c0.1,0.2,0.2,0.5,0.3,0.7h6.4v1.2h-14.5v-1.2h6.5c-0.1-0.2-0.2-0.5-0.4-0.7H251V168.2z     M253.7,178.8l0.8,1c-0.6,0.6-1.2,1.1-1.7,1.4c-0.6,0.3-1.3,0.7-2.2,1l-0.8-1.3c0.9-0.2,1.6-0.5,2.3-0.9    C252.7,179.6,253.2,179.2,253.7,178.8z M251.2,175.4h11.7v3.1h-5v2.4c0,0.5-0.1,0.9-0.4,1.1c-0.2,0.2-0.7,0.4-1.3,0.4h-1.8    l-0.3-1.4c0.6,0.1,1.2,0.1,1.6,0.1c0.4,0,0.6-0.1,0.6-0.4v-2.2h-5.3V175.4z M252.5,170.1h9.1v-0.8h-9.1V170.1z M261.6,171.8V171    h-9.1v0.8H261.6z M261.5,177.3v-0.8h-9v0.8H261.5z M260.3,178.8c1.3,0.4,2.6,1.1,3.9,2.1l-0.6,1.4c-1.3-1-2.6-1.8-4-2.2    L260.3,178.8z"/>
		<path class="st0" d="M269,167.9l1.4,0.2c-0.2,0.8-0.5,1.6-0.8,2.3h2.3v3.3c0.5-0.8,0.8-1.6,1.1-2.3c0.3-0.9,0.6-2.1,0.8-3.6    l1.6,0.2c-0.1,0.9-0.3,1.6-0.4,2.3h4.9c0,5.6-0.1,8.9-0.2,10c-0.2,0.8-0.4,1.3-0.8,1.6c-0.4,0.3-1.3,0.5-2.5,0.5    c-0.4,0-0.8,0-1.2-0.1l-0.2-1.6c0.5,0.1,0.9,0.1,1.4,0.1c1,0,1.6-0.3,1.7-1c0.2-0.8,0.3-3.5,0.3-8.1h-3.8c0,0.1-0.1,0.2-0.1,0.3    c-0.3,1.2-0.9,2.4-1.8,3.7l-0.8-0.9v6.5h-1.4v-0.8h-2.9v1.2h-1.4v-11.4h2C268.6,169.6,268.8,168.8,269,167.9z M267.6,174.8h2.9    v-3.1h-2.9V174.8z M267.6,179.3h2.9v-3.2h-2.9V179.3z M275.1,173.9c0.9,1.5,1.6,2.8,2.1,3.8l-1.5,1c-0.4-1.2-1.1-2.5-1.9-4    L275.1,173.9z"/>
		<path class="st0" d="M294.9,167.8l0.6,1.1c-1.7,0.3-3.7,0.5-5.9,0.6v1h6.4v1.2h-6.4v0.9h5.2v5.2h-5.2v0.8h5.9v1.2h-5.9v0.9h6.6    v1.2h-14.4v-1.2h6.4V180h-5.8v-1.2h5.8v-0.8h-5.2v-5.2h5.2v-0.9h-6.3v-1.2h6.3v-0.9c-1.7,0.1-3.5,0.1-5.4,0.1l-0.4-1.2    C287.3,168.5,291.5,168.3,294.9,167.8z M284.4,174.7h3.8v-0.9h-3.8V174.7z M288.2,176.8v-1h-3.8v1H288.2z M289.6,173.8v0.9h3.8    v-0.9H289.6z M293.4,176.8v-1h-3.8v1H293.4z"/>
		<path class="st0" d="M297.8,168.4h14.5v1.3h-4.8v1.2h4v4.1H305c-0.3,0.4-0.5,0.7-0.8,1h8.1v1.3h-3c-0.5,0.9-1,1.6-1.6,2.2    c1.6,0.5,3.2,1,4.6,1.6l-1.2,1.2c-1.4-0.7-2.9-1.3-4.7-1.8c-1.4,0.8-4.1,1.5-7.9,1.9l-0.6-1.4c3-0.2,5.2-0.5,6.5-1    c-1.4-0.3-2.9-0.7-4.6-1c0.6-0.6,1.2-1.2,1.6-1.8h-3.9v-1.3h4.9c0.3-0.4,0.5-0.7,0.8-1h-4.8V171h3.9v-1.2h-4.6V168.4z     M302.4,173.8v-1.6H300v1.6H302.4z M306.1,179.3c0.6-0.5,1.2-1.1,1.6-1.8h-4.5c-0.3,0.4-0.6,0.7-0.9,1    C303.9,178.8,305.1,179,306.1,179.3z M306,171v-1.2h-2.2v1.2H306z M306,173.8v-1.6h-2.2v1.6H306z M309.9,173.8v-1.6h-2.5v1.6    H309.9z"/>
		<path class="st0" d="M313.9,170.9h2.2v-3.1h1.4v3.1h1.7v1.3h-1.7v0.7c0.7,0.7,1.4,1.5,2.1,2.3l-0.8,1.2c-0.5-0.8-0.9-1.4-1.2-1.9    v8h-1.4V175c0,0,0,0,0,0c-0.5,1.3-1.1,2.5-1.8,3.5l-0.6-1.7c0.9-1.3,1.7-2.9,2.3-4.6h-2.1V170.9z M326.9,174.1l1.2,0.6    c-0.9,1.5-1.8,2.8-2.9,3.8c1.2,0.9,2.3,1.9,3.1,2.8l-1.1,1.1c-0.7-0.9-1.8-1.9-3.1-2.9l0,0c-1.2,1.1-3,2-5.2,2.8l-0.8-1.2    c2.1-0.8,3.8-1.7,5.1-2.7C324.4,177.6,325.6,176.2,326.9,174.1z M323.9,167.8c0.2,0.5,0.5,1,0.7,1.5h3.8v1.4h-4.6    c-0.3,0.9-0.8,1.8-1.5,2.8c0.8,0,1.5-0.1,2.1-0.1c0.4-0.5,0.7-1.1,1.1-1.7l1.2,0.6c-0.9,1.6-1.9,3-3,4.1c-1,0.9-2.3,1.7-4,2.4    l-0.8-1.2c1.6-0.6,2.8-1.4,3.8-2.3c0.2-0.2,0.5-0.4,0.7-0.7c-1,0.1-2.2,0.2-3.7,0.3l-0.2-1.4c0.4,0,0.8,0,1.1,0    c0.7-0.9,1.3-1.8,1.7-2.8h-3.1v-1.4h3.9c-0.2-0.5-0.4-0.9-0.7-1.4L323.9,167.8z"/>
		<path class="st0" d="M331.2,172.4l1.6,0.3c-0.4,3.1-1,5.8-1.7,8.1l-1.5-0.9C330.4,177.5,330.9,175.1,331.2,172.4z M334,171.8h1.6    v8.5c0,0.4,0.2,0.5,0.6,0.5h2.9c0.2,0,0.3-0.1,0.5-0.3c0.1-0.2,0.2-1.3,0.2-3.3l1.5,0.4c-0.1,2.3-0.3,3.7-0.6,4.1    c-0.2,0.4-0.7,0.6-1.4,0.6h-3.6c-0.5,0-0.9-0.1-1.2-0.4c-0.3-0.3-0.4-0.7-0.4-1.2V171.8z M336.6,168.3c1.3,1.4,2.4,2.7,3.1,3.7    l-1.5,1.1c-0.7-1.2-1.7-2.5-2.9-3.9L336.6,168.3z M342.1,172.5c0.8,2.2,1.5,4.5,2.1,7l-1.6,0.7c-0.6-2.7-1.3-5.1-2.1-7.2    L342.1,172.5z"/>
		<path class="st0" d="M355.2,175.2c0,0.6-0.2,1.1-0.7,1.5c-0.4,0.4-0.9,0.6-1.6,0.6c-0.6,0-1.1-0.2-1.6-0.6    c-0.4-0.4-0.7-0.9-0.7-1.5s0.2-1.1,0.7-1.5c0.4-0.4,0.9-0.6,1.6-0.6c0.6,0,1.1,0.2,1.6,0.6C355,174.1,355.2,174.6,355.2,175.2z     M354.1,175.2c0-0.3-0.1-0.5-0.3-0.7c-0.2-0.2-0.5-0.3-0.8-0.3c-0.3,0-0.6,0.1-0.8,0.3c-0.2,0.2-0.3,0.4-0.3,0.7    c0,0.3,0.1,0.5,0.3,0.7c0.2,0.2,0.5,0.3,0.8,0.3c0.3,0,0.6-0.1,0.8-0.3C354,175.8,354.1,175.5,354.1,175.2z"/>
	</g>
	<g>
		<path class="st0" d="M39.2,53.7c0,4.8-1.8,8.6-5.3,11.4c-3.3,2.6-7.5,3.9-12.6,3.9H1.2V17.7h19c4.7,0,8.6,1.2,11.9,3.7    c3.4,2.8,5.2,6.3,5.2,10.8c0,3.9-1.5,7.1-4.6,9.7C37,44.6,39.2,48.6,39.2,53.7z M26.7,32.5c0-3.8-2.6-5.7-7.7-5.7h-7.6v11.1h7.8    C24.1,37.9,26.7,36.1,26.7,32.5z M28.8,53.2c0-2.7-1.3-4.5-4-5.4c-1.6-0.5-4.3-0.8-8.1-0.8h-5.3v12.6h7.9    C25.6,59.7,28.8,57.6,28.8,53.2z"/>
		<path class="st0" d="M77.5,69H67.3l-0.2-2.6c-1.9,2.3-4.5,3.4-7.8,3.4c-4.8,0-8.4-1.4-10.8-4.2c-2.4-2.8-3.7-6.7-3.7-11.7V32.6    h9.8v21.6c0,4.4,1.9,6.5,5.6,6.5c2.1,0,3.7-0.7,4.8-2.2c1.1-1.3,1.7-3.1,1.7-5.2V32.6h9.9v26.9C76.6,62.2,76.9,65.4,77.5,69z"/>
		<path class="st0" d="M113.7,57.4c0,4.4-1.7,7.6-5.1,9.8c-2.9,1.8-6.7,2.8-11.4,2.8c-4.5,0-8-1.2-10.8-3.5    c-2.9-2.4-4.4-5.8-4.7-10.2h9.9c0.6,3,2.8,4.6,6.4,4.6c3.8,0,5.7-0.9,5.7-2.6c0-1.1-2.3-2.3-7-3.7c-4.5-1.3-7.5-2.4-9.2-3.4    c-3-1.9-4.6-4.6-4.6-7.9c0-4,1.6-7,4.7-9c2.7-1.7,6.1-2.6,10.2-2.6c9.3,0,14.3,4.4,14.9,13.1h-9.8c-0.9-2.6-2.7-3.9-5.4-3.9    c-2.9,0-4.3,0.6-4.3,1.9c0,1,1.3,1.9,3.9,2.8c6.1,2,9.7,3.3,10.8,3.9C111.8,51.3,113.7,54,113.7,57.4z"/>
		<path class="st0" d="M127.9,27.5H118v-9.9h9.9V27.5z M127.8,69h-9.7V32.6h9.7V69z"/>
		<path class="st0" d="M166.1,69h-9.8V47.3c0-4.3-1.9-6.4-5.6-6.4c-2,0-3.6,0.7-4.8,2c-1.1,1.2-1.6,3-1.6,5.2V69h-9.9V42.6    c0-1.7-0.3-5.1-1-10h10.1l0.1,2.6c2.7-2.4,5.6-3.6,8.8-3.6c4.8,0,8.4,1.6,10.6,4.7c2,2.6,3,6.1,3,10.6V69z"/>
		<path class="st0" d="M206.3,53h-25c0.5,5.1,3.1,7.7,8,7.7c3.5,0,5.7-1.4,6.5-4.1h10.2c-1.8,8.9-7.4,13.3-16.9,13.3    c-5.9,0-10.5-2-13.8-5.9c-2.9-3.5-4.3-8-4.3-13.3c0-5,1.4-9.3,4.2-12.9c3.3-4.2,7.8-6.3,13.4-6.3c6.2,0,10.8,2.3,13.9,6.8    C205,42.1,206.3,47,206.3,53z M195.5,46.1c-0.1-1.4-0.9-2.6-2.2-3.7c-1.2-1.1-2.8-1.7-4.6-1.7c-1.7,0-3.2,0.5-4.6,1.6    c-1.3,1-2,2.3-2.3,3.7H195.5z"/>
		<path class="st0" d="M241.8,57.4c0,4.4-1.7,7.6-5.1,9.8c-2.9,1.8-6.7,2.8-11.4,2.8c-4.5,0-8-1.2-10.8-3.5    c-2.9-2.4-4.4-5.8-4.7-10.2h9.9c0.6,3,2.8,4.6,6.4,4.6c3.8,0,5.7-0.9,5.7-2.6c0-1.1-2.3-2.3-7-3.7c-4.5-1.3-7.5-2.4-9.2-3.4    c-3-1.9-4.6-4.6-4.6-7.9c0-4,1.6-7,4.7-9c2.7-1.7,6.1-2.6,10.2-2.6c9.3,0,14.3,4.4,14.9,13.1h-9.8c-0.9-2.6-2.7-3.9-5.4-3.9    c-2.9,0-4.3,0.6-4.3,1.9c0,1,1.3,1.9,3.9,2.8c6.1,2,9.7,3.3,10.8,3.9C239.8,51.3,241.8,54,241.8,57.4z"/>
		<path class="st0" d="M276.6,57.4c0,4.4-1.7,7.6-5.1,9.8c-2.9,1.8-6.7,2.8-11.4,2.8c-4.5,0-8-1.2-10.8-3.5    c-2.9-2.4-4.4-5.8-4.7-10.2h9.9c0.6,3,2.8,4.6,6.4,4.6c3.8,0,5.7-0.9,5.7-2.6c0-1.1-2.3-2.3-7-3.7c-4.5-1.3-7.5-2.4-9.2-3.4    c-3-1.9-4.6-4.6-4.6-7.9c0-4,1.6-7,4.7-9c2.7-1.7,6.1-2.6,10.2-2.6c9.3,0,14.3,4.4,14.9,13.1h-9.8c-0.9-2.6-2.7-3.9-5.4-3.9    c-2.9,0-4.3,0.6-4.3,1.9c0,1,1.3,1.9,3.9,2.8c6.1,2,9.7,3.3,10.8,3.9C274.6,51.3,276.6,54,276.6,57.4z"/>
		<path class="st0" d="M360.1,69H350V41.2L337.2,69h-8.5l-12.8-27.8V69h-10.1V17.7h9.6l17.6,37.9l17.6-37.9h9.5V69z"/>
		<path class="st0" d="M403.4,50.8c0,5.2-1.5,9.6-4.6,13.2c-3.4,4-8.1,6-13.9,6c-5.8,0-10.4-2-13.9-6c-3-3.6-4.5-8-4.5-13.2    c0-5.2,1.5-9.6,4.6-13.2c3.4-4,8.1-6,13.9-6c5.8,0,10.5,2,13.9,6C401.9,41.2,403.4,45.6,403.4,50.8z M393.2,50.8    c0-2.8-0.7-5.1-2.2-7c-1.5-1.9-3.5-2.8-6.1-2.8c-2.6,0-4.6,0.9-6,2.8c-1.5,1.9-2.2,4.2-2.2,7c0,2.8,0.7,5.1,2.1,7    c1.5,2,3.6,3,6.1,3c2.6,0,4.6-1,6.1-3C392.5,55.9,393.2,53.6,393.2,50.8z"/>
		<path class="st0" d="M443.2,69h-10l-0.2-1.7c-3,1.7-6,2.6-8.9,2.6c-5.6,0-9.9-2.1-12.8-6.3c-2.4-3.5-3.7-7.8-3.7-12.9    c0-5,1.3-9.2,3.8-12.8c3.1-4.3,7.4-6.4,12.9-6.4c3,0,5.8,0.6,8.3,1.9V17.6h9.9v41.3C442.5,61.4,442.7,64.8,443.2,69z M432.6,50.3    c0-6.3-2.4-9.5-7.2-9.5c-2.3,0-4.1,1-5.5,3c-1.4,2-2.1,4.3-2.1,7c0,2.7,0.7,5.1,2.1,7c1.5,1.9,3.2,2.9,5.3,2.9    C430.2,60.8,432.6,57.3,432.6,50.3z"/>
		<path class="st0" d="M483.5,53h-25c0.5,5.1,3.1,7.7,8,7.7c3.5,0,5.7-1.4,6.5-4.1h10.2c-1.8,8.9-7.4,13.3-16.9,13.3    c-5.9,0-10.5-2-13.8-5.9c-2.9-3.5-4.3-8-4.3-13.3c0-5,1.4-9.3,4.2-12.9c3.3-4.2,7.8-6.3,13.4-6.3c6.2,0,10.8,2.3,13.9,6.8    C482.2,42.1,483.5,47,483.5,53z M472.7,46.1c-0.1-1.4-0.9-2.6-2.2-3.7c-1.2-1.1-2.8-1.7-4.6-1.7c-1.7,0-3.2,0.5-4.6,1.6    c-1.3,1-2,2.3-2.3,3.7H472.7z"/>
		<path class="st0" d="M498.2,69h-9.8V17.6h9.8V69z"/>
	</g>
	<line class="st1" x1="0" y1="1" x2="500" y2="1"/>
	<line class="st2" x1="0" y1="87" x2="500" y2="87"/>
</g>
</svg>