<?xml version="1.0" encoding="UTF-8"?>
<!-- Generator: Adobe Illustrator 21.0.2, SVG Export Plug-In . SVG Version: 6.00 Build 0)  -->
<svg version="1.1" id="圖層_1" xmlns="http://www.w3.org/2000/svg" xmlns:xlink="http://www.w3.org/1999/xlink" x="0px" y="0px" width="124px" height="19.3px" viewBox="0 0 124 19.3" style="enable-background:new 0 0 124 19.3;" xml:space="preserve">
<style type="text/css">
	.st0{fill:#222222;}
	.st1{fill:#009EA2;}
</style>
<g>
	<path class="st0" d="M15.6,5.5V17h3.1v1.7H0V17h3V5.5H15.6z M9.8,0c0.3,0.5,0.5,1.1,0.7,1.7h7.8v4.8h-2V3.5h-14v2.9h-2V1.7h8.1   c-0.2-0.5-0.5-1-0.8-1.4L9.8,0z M4.9,9.4h8.7V7.3H4.9V9.4z M4.9,13.2h8.7v-2H4.9V13.2z M4.9,17h8.7v-2.1H4.9V17z"/>
	<path class="st0" d="M26,0.1l1.4,1.2c-1.4,1.8-3.2,3.4-5.3,4.9l-1.3-1.7C22.7,3.3,24.5,1.8,26,0.1z M25.8,5.2L27.5,6   c-0.7,1.4-1.3,2.6-2.1,3.5v9.6h-2v-7.4c-0.6,0.6-1.3,1.2-2,1.8l-0.7-2.4c1-0.8,1.9-1.7,2.7-2.6C24.3,7.8,25,6.7,25.8,5.2z M27,9.1   h12.4v1.6h-2.2v1.3h2.7v1.7h-2.7v3.6c0,0.7-0.2,1.2-0.5,1.5c-0.3,0.3-0.8,0.5-1.6,0.5h-2.4l-0.4-2c1,0.1,1.8,0.2,2.4,0.2   c0.5,0,0.7-0.2,0.7-0.5v-3.3h-8.9v-1.7h8.9v-1.3H27V9.1z M27.9,0.8h11v7.1h-11V0.8z M30.4,14c0.7,0.8,1.2,1.6,1.7,2.5l-1.8,0.8   c-0.5-1-1.1-1.9-1.7-2.7L30.4,14z M29.8,3.7H37V2.3h-7.2V3.7z M37,6.4V5.1h-7.2v1.3H37z"/>
	<path class="st0" d="M50.9,0.1L51.5,2c-1,0.3-2.2,0.6-3.4,0.9v2.8h3.8v1.9h-3.8v0.2c1.3,1.3,2.7,2.7,4,4.3L51,13.9   c-1.1-1.6-2.1-2.9-2.9-3.9v9.3h-1.9v-9.1c-0.4,0.9-0.8,1.7-1.1,2.2c-0.7,1.2-1.5,2.3-2.6,3.4l-1.1-1.9c1-0.9,1.9-2,2.6-3.3   c0.5-0.9,1-1.9,1.4-3.1h-3.7V5.7h4.3V3.2c-1.1,0.2-2.3,0.3-3.6,0.4l-0.4-1.9C45.4,1.5,48.3,1,50.9,0.1z M53.2,1.6h2V15h-2V1.6z    M57.8,0.1h2.1v16.8c0,0.8-0.2,1.3-0.5,1.6c-0.3,0.3-0.9,0.5-1.8,0.5h-3.4l-0.4-2.2C55.1,17,56.2,17,57,17c0.5,0,0.8-0.2,0.8-0.5   V0.1z"/>
	<path class="st0" d="M67,0.1l1.9,0.2c-0.2,1.1-0.6,2.1-1,3.1h3v4.4c0.6-1,1.1-2,1.4-3c0.4-1.2,0.8-2.7,1-4.7l2.1,0.3   c-0.2,1.1-0.4,2.1-0.6,3h6.5c0,7.4-0.1,11.7-0.3,13.1c-0.2,1.1-0.6,1.8-1.1,2.1c-0.6,0.4-1.7,0.6-3.3,0.6c-0.5,0-1,0-1.6-0.1   L74.8,17c0.6,0.1,1.2,0.2,1.9,0.2c1.3,0,2.1-0.4,2.2-1.3c0.3-1.1,0.4-4.6,0.5-10.6h-5c-0.1,0.1-0.1,0.3-0.1,0.3   C73.7,7,73,8.6,71.9,10.3l-1-1.2v8.6h-1.8v-1h-3.8v1.6h-1.8V3.4H66C66.5,2.3,66.8,1.2,67,0.1z M65.2,9.2h3.8V5.1h-3.8V9.2z    M65.2,15h3.8v-4.2h-3.8V15z M75,7.9c1.2,1.9,2.1,3.6,2.8,5l-2,1.3c-0.6-1.5-1.4-3.3-2.5-5.2L75,7.9z"/>
	<path class="st1" d="M86.9,0l1.7,0.8c-0.4,1.4-0.7,2.5-1.1,3.6v15h-1.8V8.2c-0.4,0.8-0.9,1.5-1.4,2.3l-0.7-2.4   c0.7-1.1,1.2-2.3,1.7-3.5C85.9,3.6,86.4,2,86.9,0z M88.9,0.6h13.4v1.4h-5.8c-0.1,0.3-0.2,0.6-0.4,0.8h5v5.3h1.6V11h-1.4   c0.5,0.7,0.9,1.2,1.2,1.7l-1.4,1c-0.5-1-1.2-2.1-2.1-3.3l1.1-0.7c0.2,0.3,0.5,0.6,0.7,0.8V9.4h-4.9c0.4,0.2,0.8,0.4,1.1,0.6   l-0.8,1.3c-0.7-0.5-1.3-0.9-2.1-1.3l0.5-0.7H90V11h-1.8V8.1H90V2.8h4c0.2-0.3,0.3-0.5,0.4-0.8h-5.5V0.6z M92.4,9.8h1.6v1.5   c0,0.3,0.2,0.4,0.6,0.4H97c0.2,0,0.3,0,0.3-0.1s0.1-0.5,0.2-1.3l1.5,0.4c-0.1,1.1-0.3,1.8-0.6,2c-0.2,0.2-0.6,0.3-1.3,0.3h-2.3   c-0.2,0.3-0.4,0.5-0.7,0.7h6.2v1.1c-0.8,0.8-1.7,1.4-2.6,2c1.2,0.3,2.8,0.5,4.9,0.7l-0.4,1.7c-2.5-0.2-4.5-0.6-5.8-1.1   c-0.3-0.1-0.6-0.2-0.8-0.3c-1.7,0.6-3.9,1.1-6.8,1.5l-0.7-1.7c2.1-0.2,4-0.5,5.4-0.8c-0.6-0.4-1.3-0.8-1.9-1.3   c-0.7,0.3-1.4,0.6-2.3,1l-1.3-1.5c1.6-0.4,2.7-0.9,3.5-1.3c0.5-0.3,1-0.6,1.3-1c-0.1,0-0.1-0.1-0.2-0.1c-0.3-0.2-0.4-0.6-0.4-1V9.8   z M90.8,10l1.3,0.6c-0.6,1.2-1.2,2.3-2,3.2l-1.4-1C89.5,12,90.2,11.1,90.8,10z M91.9,4.7h7.3V4h-7.3V4.7z M91.9,6.4h7.3V5.7h-7.3   V6.4z M91.9,8.1h7.3V7.4h-7.3V8.1z M93.7,14.9c0.7,0.5,1.4,0.9,2.1,1.1c0.8-0.3,1.5-0.7,2.1-1.1H93.7z"/>
	<path class="st1" d="M105.7,1h3.3V0h1.8v1h3.2v1.4h-3.2v1h3.7V5h-2v0.5c0,0.3,0.1,0.4,0.4,0.4h1.6v1.3h-2.1c-0.5,0-0.8-0.1-1-0.3   c-0.3-0.3-0.5-0.9-0.5-1.8h-1.9c-0.2,0.5-0.5,0.9-0.8,1.2c-0.4,0.5-1.3,1-2.7,1.7l-0.8-1.6c0.9-0.2,1.6-0.5,2.1-0.8   c0.2-0.1,0.4-0.3,0.6-0.5h-2.4V3.4h4v-1h-3.3V1z M106.3,7.8h2.8V6.2h1.8v1.6h3v1.5h-3v1.1c1.3-0.1,2.4-0.3,3.5-0.5v1.5h1.1   l-0.9-0.8c1-0.9,1.7-1.8,2.2-2.8c-0.6-0.6-1.2-1.3-1.8-2l1.1-1.1c0.4,0.4,0.8,0.9,1.2,1.3c0.1-0.6,0.2-1.4,0.2-2.2h-2.4V2.1h2.5V0   h1.6v2.1h2.8c-0.1,1.8-0.1,3.4-0.1,4.9c0,0.9,0.1,1.7,0.2,2.4c0,0.4,0.1,0.6,0.2,0.6c0.2,0,0.3-1,0.3-2.9l1.6,0.9   c-0.2,1.8-0.5,2.9-0.8,3.4c-0.3,0.4-0.6,0.6-0.9,0.6c-0.4,0-0.8-0.1-1.1-0.4c-0.4-0.3-0.7-0.8-0.8-1.5c-0.2-0.8-0.3-1.8-0.3-3.1   c0-0.9,0-2-0.1-3.3h-1c0,1.4-0.2,2.7-0.5,3.7c0.6,0.7,1.1,1.3,1.5,2l-1.3,1.2c-0.3-0.5-0.6-1-1-1.5c-0.5,0.8-1.1,1.7-1.9,2.6   l-0.4-0.3c-0.2,0.6-0.3,1.1-0.5,1.6h7.5c-0.1,3.1-0.4,4.9-0.7,5.5c-0.4,0.5-1.2,0.8-2.5,0.8c-1.2,0-2.1,0-2.6-0.1l-0.5-2   c1,0.2,2.1,0.2,3.1,0.2c0.4,0,0.7-0.2,0.8-0.5c0.1-0.2,0.2-0.9,0.2-2.2h-6.1c-0.4,0.8-0.8,1.4-1.3,1.9c-1.1,1.2-3.4,2.2-6.8,2.8   l-0.7-1.9c3-0.4,5-1,6-2c0.2-0.2,0.5-0.5,0.7-0.8h-6V13h6.9c0.2-0.5,0.4-1,0.5-1.5c-1.7,0.3-4.3,0.6-7.8,0.9l-0.2-1.7   c1.3,0,2.5-0.1,3.6-0.2V9.3h-2.8V7.8z"/>
</g>
</svg>