<?xml version="1.0" encoding="UTF-8"?>
<!-- Generator: Adobe Illustrator 23.0.6, SVG Export Plug-In . SVG Version: 6.00 Build 0)  -->
<svg version="1.1" id="圖層_1" xmlns="http://www.w3.org/2000/svg" xmlns:xlink="http://www.w3.org/1999/xlink" x="0px" y="0px" width="565.9px" height="127.9px" viewBox="0 0 565.9 127.9" style="enable-background:new 0 0 565.9 127.9;" xml:space="preserve">
<style type="text/css">
	.繪圖樣式_x0020_2{fill:none;}
	.st0{fill:url(#SVGID_1_);}
	.st1{fill:url(#SVGID_2_);}
	.st2{fill:url(#SVGID_3_);}
	.st3{fill:url(#SVGID_4_);}
	.st4{fill:url(#SVGID_5_);}
	.st5{fill:url(#SVGID_6_);}
	.st6{fill:url(#SVGID_7_);}
	.st7{fill:url(#SVGID_8_);}
	.st8{fill:url(#SVGID_9_);}
	.st9{fill:url(#SVGID_10_);}
	.st10{fill:url(#SVGID_11_);}
	.st11{fill:url(#SVGID_12_);}
	.st12{fill:url(#SVGID_13_);}
	.st13{fill:url(#SVGID_14_);}
	.st14{fill:url(#SVGID_15_);}
	.st15{fill:url(#SVGID_16_);}
	.st16{fill:url(#SVGID_17_);}
	.st17{fill:url(#SVGID_18_);}
	.st18{fill:url(#SVGID_19_);}
	.st19{fill:url(#SVGID_20_);}
	.st20{fill:url(#SVGID_21_);}
	.st21{fill:url(#SVGID_22_);}
	.st22{fill:url(#SVGID_23_);}
	.st23{fill:url(#SVGID_24_);}
	.st24{fill:url(#SVGID_25_);}
	.st25{fill:url(#SVGID_26_);}
	.st26{fill:url(#SVGID_27_);}
	.st27{fill:url(#SVGID_28_);}
	.st28{fill:url(#SVGID_29_);}
	.st29{fill:url(#SVGID_30_);}
	.st30{fill:url(#SVGID_31_);}
	.st31{fill:url(#SVGID_32_);}
	.st32{fill:url(#SVGID_33_);}
	.st33{fill:url(#SVGID_34_);}
	.st34{fill:url(#SVGID_35_);}
	.st35{fill:url(#SVGID_36_);}
	.st36{fill:url(#SVGID_37_);}
	.st37{fill:url(#SVGID_38_);}
</style>
<g>
	<g>
		<g>
			<path d="M0,21.2C6.9,16.1,13.3,7.1,16.1,0.1l7.4,1.2c-0.1,0.8-0.9,1.1-2.7,1.3C33.4,5.2,37.1,10,37.1,12.9c0,1.5-0.9,2.4-2.1,2.4     c-0.5,0-0.9-0.1-1.4-0.4C31.9,11.1,27,6.3,20.5,3.2c-2.2,3.4-5.2,7.2-8.8,10.7H24l2.6-3.4l5.2,3.6c-0.5,1-1.3,1.4-3,1.4H11.5     l-0.3-1.1C8.1,17.3,4.6,20,0.8,22L0,21.2z M28.6,21l2-2.6l5.8,4c-0.5,0.5-1.6,1.1-2.9,1.4v13.9c-0.1,0.1-1.3,1.3-4.2,1.3v-2.3     H10.8c-0.1,1.7-0.3,3.4-0.7,5.2l3.8,1.7h14.5l1.9-2.5l5.5,3.8c-0.4,0.5-1.4,1.1-2.6,1.3v12.9c0,0.1-1.3,1.4-4.2,1.4v-2.9H13.1     v3.1c0,0.3-1.4,1.4-3.5,1.4H9V46.4c-1.4,4.4-3.8,8.7-7.8,12.3l-0.9-0.8c6-8.4,6.6-18.6,6.6-27.7V18.8l5,2.2H28.6z M11.1,29.6     c0,2.3,0,3.8-0.1,5.6h18.4v-5.6H11.1z M29.3,22.6H11.1V28h18.2V22.6z M29.1,45.2H13.1v10.9h15.9V45.2z M48,9     c-0.1,0.9-0.7,1.5-2.8,1.7v34.7c0,0.1-0.6,1.5-4.2,1.5V8.4L48,9z M55.3,1.4L62.6,2c-0.1,1-0.5,1.5-3.1,1.9v51.6     c0,3.5-0.9,6.2-7,6.8c-0.1-3.5-2.2-3.9-7.6-4.4v-1h8.8c1.2,0,1.6-0.5,1.6-1.5V1.4z"/>
			<path d="M85.4,30.5c-0.5,0.5-1.5,1-3.3,1.3V50c4.7,5.4,9.8,6.2,21.4,6.2c7.9,0,18.6,0,26.7-0.3v1c-1.9,0.3-3.1,1.5-3.4,3.6h-23.3     c-12.3,0-17.7-1.5-22.4-9.3c-2.8,3.1-7.2,7.1-9.9,9.3c0.2,0.9-0.1,1.3-0.7,1.6l-3.2-5.6c2.7-1.1,6.8-3.3,10.7-5.4V30.8H67.9     l-0.3-1.7H77l2.6-3.4L85.4,30.5z M69.9,2.3c9.4,2.9,12.4,7.5,12.4,10.5c0,1.7-1,2.9-2.3,2.9c-0.6,0-1.3-0.3-1.9-0.8     c-1.1-4-5.1-9.2-8.6-12.1L69.9,2.3z M105.4,23.9V12.5h-9.3c-1.9,3.9-4.3,7.2-6.8,9.6l-1-0.7C91.1,17,93.6,9,94.9,1.3l6.8,1.9     c-0.3,0.7-0.7,1.2-2.3,1.1c-0.7,2.3-1.6,4.4-2.5,6.5h8.5V0.2l7.5,0.7c-0.1,1.1-0.9,1.5-3.1,1.8v8.2h8.2l3.1-4l5.9,4.2     c-0.5,1-1.3,1.4-3.1,1.4h-14.1v11.5h11.1l3.1-4l5.9,4.2c-0.5,1-1.3,1.4-3.1,1.4H85.6l-0.4-1.6H105.4z M123.1,51.3     c-0.1,0.5-2.2,1.5-3.7,1.5h-0.7v-3.6h-22v2.4c0,0.1-0.8,1.5-4.3,1.5V30.1l4.6,2.1h21.1l2-2.6l5.6,4c-0.4,0.5-1.4,1-2.6,1.3V51.3z      M96.7,47.6h22V33.8h-22V47.6z"/>
			<path d="M190.5,53.1l6.5,4.6c-0.5,0.9-1.3,1.4-3.3,1.4h-58.6l-0.5-1.6h28.5V37.6H143l-0.4-1.6h20.7V17.8h-15.7     c-3.1,5.8-6.7,10.8-10.8,14.3l-0.9-0.7c5-6.2,9.7-17.6,12.4-29.1l7,2.1c-0.3,0.8-0.7,1.2-2.5,1.1c-1.3,3.8-2.7,7.3-4.4,10.7h14.9     V0.2l7.6,0.7c-0.1,1.1-0.9,1.5-3.1,1.8v13.5h15.4l3.4-4.2l6.4,4.4c-0.5,1-1.3,1.4-3.2,1.4h-22V36h13l3.3-4.2l6.3,4.4     c-0.5,1-1.3,1.4-3.2,1.4h-19.4v19.8h19.4L190.5,53.1z"/>
			<path d="M202.1,18.4c8.2,0.9,10.9,4.3,10.9,6.7c0,1.5-1,2.6-2.3,2.6c-0.5,0-1.1-0.2-1.7-0.6c-1.1-2.9-4.3-6.2-7.2-8L202.1,18.4z      M205.8,43.6c0.9,0,1.1,0,1.7-1.4c0.3-0.5,1.2-2.4,13.5-30l1.3,0.3c-3,8.6-9,24.7-10,27.9c-0.6,2.1-1.1,4.2-1.1,5.9     c0.1,2.8,1.7,5.8,1.7,10.8c0,1.1,0,5.4-3.8,5.4c-1.2,0-1.9-1.2-2.1-3.4c0.3-2.5,0.5-4.9,0.5-6.9c0-6.2-1.3-7-4.8-7.2v-1.5     C205,43.6,205.8,43.6,205.8,43.6L205.8,43.6z M205,1c8.4,1.1,11.1,4.8,11.1,7.3c0,1.5-1,2.7-2.3,2.7c-0.5,0-1.1-0.1-1.7-0.6     c-1.1-3.1-4.4-6.8-7.4-8.7L205,1z M258.4,18.1l6,4.4c-0.5,1-1.3,1.4-3.2,1.4h-17.5v13.9h9.4l2-2.7l5.9,4.2     c-0.5,0.5-1.5,1.1-2.9,1.4v19.7c0,0.1-1.3,1.5-4.4,1.5v-4.3H229v3.3c0,0.1-0.6,1.5-4.3,1.5V35.7l4.7,2.1h9.8V23.9h-19.6l-0.5-1.6     h20V8c-5.9,0.9-12.1,1.5-18,1.9L221,8.6c11.7-1.7,26.1-5.5,33.6-8.6l5.2,4.8c-0.3,0.3-0.7,0.5-1.3,0.5s-1.3-0.2-2.1-0.5     c-3.6,0.9-7.9,1.7-12.6,2.5v15h11.5L258.4,18.1z M253.8,39.4H229v16.5h24.8V39.4z"/>
			<path d="M269.5,45.6c9.6,3.5,15.9,9.1,15.9,13.4c0,1.9-1.3,3.1-2.9,3.1c-1.1,0-2.2-0.6-2.9-2.1c-1.6-4.5-5-9.6-11-13.3     L269.5,45.6z"/>
			<path d="M318.9,30.5c-0.5,0.5-1.5,1-3.3,1.3V50c4.8,5.4,10.1,6.3,21.8,6.3c8.2,0,19-0.1,27.3-0.3V57c-1.9,0.3-3.1,1.5-3.4,3.6     h-23.9c-12.4,0-18-1.6-22.8-9.2c-2.5,2.9-6.4,6.9-8.8,9.1c0.1,0.9-0.1,1.3-0.7,1.6l-3.1-5.4c2.3-1.1,6-3.2,9.4-5.3V30.8h-8.8     l-0.3-1.7h8.2l2.6-3.5L318.9,30.5z M304,2.2c9,2.9,11.9,7.5,11.9,10.5c0,1.9-1.1,3.2-2.5,3.2c-0.6,0-1.3-0.2-1.9-0.8     c-0.7-4.2-4.5-9.4-8-12.3L304,2.2z M319.3,9.6L318.9,8h19.2V0.2l7.1,0.6c-0.1,0.9-0.7,1.5-2.8,1.7V8H354l3.1-4l6,4.2     c-0.6,1-1.3,1.4-3.2,1.4h-17.5v6.7h11.1l2-2.7l5.8,4.2c-0.5,0.5-1.5,1.1-2.9,1.3v18.3c0,0.1-1.4,1.5-4.3,1.5v-2.6h-11.7v7h12.7     l3.1-4l6,4.2c-0.5,1-1.3,1.4-3.1,1.4h-18.7v7.6c0,0.2-0.6,1.7-4.3,1.7v-9.3h-19.6l-0.4-1.6h20v-7H327v1.7c0,0.1-0.7,1.5-4.2,1.5     V14.2l4.6,2.1h10.8V9.6H319.3z M338.1,17.9H327v7.4h11.2V17.9z M327,34.6h11.2v-7.8H327V34.6z M354.2,17.9h-11.7v7.4h11.7V17.9z      M342.4,34.6h11.7v-7.8h-11.7V34.6z"/>
			<path d="M379.1,40.1c-0.2,0.8-0.6,1.2-2.1,1.2c-1.6,5.9-4.2,12-7.2,15.6l-1.1-0.6c1.9-4.1,3.8-11.1,4.6-17.6L379.1,40.1z      M369.6,11.3c2.1,0.5,3.8,1.2,5.1,1.9c1.6-3.6,3.6-8.6,5.1-13.1l6.4,2.5c-0.3,0.7-0.9,1.1-2.4,0.9c-2.3,3.6-5.1,7.6-7.6,10.6     c2.2,1.6,3.1,3.4,3.1,4.8c0,1.5-0.9,2.5-2.1,2.5c-0.5,0-1.1-0.2-1.6-0.7c-0.7-3-3.8-6.8-6.4-8.9L369.6,11.3z M394.6,10.3     c-0.3,0.5-0.7,0.7-1.5,0.7c-0.3,0-0.7,0-1.2-0.1c-3.5,5.4-9,12.9-14.1,18.8c3.6-0.1,7.7-0.3,12-0.5c-0.9-1.9-2.1-3.7-3.4-5     l0.7-0.5c6.6,3.2,8.8,6.9,8.8,9.4c0,1.7-1,2.8-2.1,2.8c-0.6,0-1.2-0.3-1.8-0.9c-0.2-1.3-0.7-2.8-1.4-4.4c-1.7,0.3-3.5,0.7-5.6,1     v29.3c0,0.3-1.5,1.3-3.6,1.3h-0.6v-30l-8,1.3c-0.4,0.9-1,1.3-1.7,1.4l-1.9-5.2c1.5,0,3.8,0,6.5-0.1c4.4-6.8,9.5-15.8,12.7-22.4     L394.6,10.3z M388.6,38.7c5.4,3.9,7.1,7.8,7.1,10.5c0,2.1-1.1,3.4-2.3,3.4c-0.6,0-1.2-0.3-1.8-1c-0.1-3.8-1.9-9.2-3.8-12.5     L388.6,38.7z M431.5,12.1c-0.5,1-1.3,1.4-3.1,1.4h-13.8v13.1h6.3l2.9-3.8l5.7,4c-0.5,1-1.2,1.4-3.1,1.4h-28.7l-0.4-1.6h12.9V13.5     h-14.4l-0.4-1.6h14.8V0.4l7.1,0.6c-0.1,0.9-0.7,1.3-2.7,1.7v9.2h8.1l3-4L431.5,12.1z M421.9,36.9l2.1-2.6l5.4,4.1     c-0.5,0.5-1.2,0.9-2.5,1.1v20.8c0,0.3-1.6,1.3-3.6,1.3h-0.7v-4.2h-19.7v3.2c0,0.4-1.3,1.5-3.5,1.5h-0.7V34.7l5,2.1H421.9z      M402.8,55.8h19.7V38.5h-19.7V55.8z"/>
			<path d="M486.4,43c0,0.6-1.9,1.6-3.6,1.6H482v-5h-13.5v4.7c0,0.1-0.5,1.5-4.3,1.5V19.8h-13.1v34.9h35.7l3.4-4.4l6.4,4.6     c-0.5,1-1.3,1.5-3.2,1.5h-42.3v4.2c0,0.2-0.5,1.7-4.4,1.7V19.8h-10.3l-0.4-1.6h10.7V1.7l7.2,0.6c-0.1,0.9-0.7,1.5-2.9,1.7v14.1     h13.1V0.5l7.2,0.6c-0.1,0.9-0.7,1.5-2.9,1.7v15.4H482V1.5l7.2,0.6c-0.1,1-0.8,1.5-2.9,1.7v14.4h3.3l3.2-4.2l6,4.4     c-0.5,0.9-1.3,1.4-3.2,1.4h-9.3V43z M468.5,38H482V19.8h-13.5V38z"/>
			<path d="M553.2,28.2H541c5.4,6.2,15.6,10.7,24.9,12.7l-0.1,0.7c-1.8,0.3-3.1,1.7-3.6,3.8c-5.4-1.9-10.6-4.7-14.9-8.2v23.5     c0,0.1-0.7,1.5-4.4,1.5v-27l2.1,0.2c-2.3-2.2-4.3-4.6-5.8-7.2h-9.1c-1.8,2.6-4.1,5-6.7,7.2l4.1,0.3c-0.1,0.9-0.5,1.3-2.4,1.5v5.6     c-0.1,7.4-3.1,15.3-19.4,19.5l-0.7-1c13.1-4.4,15.7-11.7,15.7-18.6v-5.3c-5,3.6-11.1,6.5-17.8,8.7l-0.7-1.3     c9.3-4,17.2-9.8,22.1-16.7h-9v1.2c0,0.1-0.6,1.5-4.3,1.5V1.9l4.8,2.2h36.6l2.1-2.7l5.8,4.2c-0.5,0.5-1.5,1.1-2.9,1.3V29     c0,0.1-1.3,1.4-4.4,1.4V28.2z M531.9,5.7h-16.5v9.4h16.5V5.7z M531.9,26.6v-9.8h-16.5v9.8H531.9z M553.2,5.7h-17v9.4h17V5.7z      M536.2,26.6h17v-9.8h-17V26.6z"/>
		</g>
	</g>
	<g>
		<linearGradient id="SVGID_1_" gradientUnits="userSpaceOnUse" x1="95.1976" y1="105.335" x2="104.8026" y2="121.9712">
			<stop offset="0" style="stop-color:#00418F"/>
			<stop offset="1" style="stop-color:#009B96"/>
		</linearGradient>
		<path class="st0" d="M99.9,104.1c2.1,0,4.1,0.6,5.9,1.8c0.1,0.1,0.3,0.1,0.3,0.1c0.1,0,0.1,0,0.2-0.1l0.2-0.2    c0.1-0.1,0.2-0.1,0.3-0.1c0.2,0,0.3,0.2,0.3,0.5v1.3l0.2,2.1c0,0.2,0,0.4,0,0.5c0,0.3-0.1,0.5-0.3,0.5c-0.2,0-0.4-0.2-0.5-0.7    c-0.3-1.3-1-2.4-2.1-3.2c-1.4-1.1-2.9-1.7-4.6-1.7c-2.1,0-3.9,0.8-5.2,2.5c-1.3,1.6-2,3.7-2,6.3c0,2.6,0.6,4.7,1.9,6.4    c1.3,1.7,2.9,2.5,4.9,2.5c1.4,0,2.7-0.4,3.9-1.2c1.2-0.8,2-1.8,2.4-2.9c0.2-0.6,0.4-0.8,0.6-0.8c0.2,0,0.3,0.2,0.3,0.5    c0,0.3-0.1,0.7-0.2,1l-0.3,0.9l-0.1,0.6c0,0.2-0.1,0.4-0.2,0.5c-0.1,0.1-0.4,0.3-0.8,0.5c-1.9,1.1-3.9,1.6-6,1.6    c-2.7,0-4.8-0.8-6.3-2.4c-1.5-1.6-2.3-3.8-2.3-6.6c0-3,0.9-5.5,2.6-7.5C95,105.1,97.2,104.1,99.9,104.1z"/>
		<linearGradient id="SVGID_2_" gradientUnits="userSpaceOnUse" x1="108.9293" y1="112.1653" x2="114.0412" y2="121.0194">
			<stop offset="0" style="stop-color:#00418F"/>
			<stop offset="1" style="stop-color:#009B96"/>
		</linearGradient>
		<path class="st1" d="M110.9,114.8c1-1.9,2.1-2.8,3.2-2.8c0.6,0,1,0.2,1,0.7c0,0.1,0,0.3-0.1,0.4c-0.1,0.2-0.1,0.3-0.1,0.4    l-0.2,0.7c-0.1,0.3-0.2,0.5-0.4,0.5c-0.1,0-0.2-0.1-0.3-0.3c-0.2-0.5-0.5-0.8-1-0.8c-0.4,0-0.8,0.5-1.1,1.4    c-0.3,0.9-0.6,2.4-0.8,4.5l-0.4,3.2l0,0.2c0,0.4-0.3,0.5-0.9,0.5c-0.5,0-0.7-0.1-0.7-0.4c0-0.1,0-0.1,0-0.2l0.7-5.4    c0-0.3,0.1-0.7,0.1-1.1c0-1.4-0.3-2-0.9-2c-0.3,0-0.5,0.2-0.8,0.5c-0.2,0.3-0.4,0.7-0.4,1.1c0,0.4-0.2,0.5-0.3,0.5    c-0.2,0-0.3-0.2-0.3-0.7c0-0.9,0.2-1.7,0.7-2.3c0.2-0.3,0.5-0.5,0.8-0.8c0.3-0.2,0.6-0.3,0.8-0.3    C109.9,112,110.5,112.9,110.9,114.8z"/>
		<linearGradient id="SVGID_3_" gradientUnits="userSpaceOnUse" x1="116.4765" y1="113.4541" x2="121.5242" y2="122.1971">
			<stop offset="0" style="stop-color:#00418F"/>
			<stop offset="1" style="stop-color:#009B96"/>
		</linearGradient>
		<path class="st2" d="M116.1,117.7c0,0.4-0.1,0.7-0.1,1c0,0.9,0.3,1.7,0.9,2.4c0.6,0.7,1.4,1,2.3,1c1.1,0,2-0.3,2.7-1    c0.2-0.2,0.4-0.3,0.4-0.3c0.1,0,0.2,0.1,0.2,0.3c0,0.3-0.3,0.7-1,1.2c-1,0.8-2.2,1.2-3.5,1.2c-1.1,0-2-0.3-2.7-1.1    c-0.7-0.7-1-1.7-1-2.9c0-1.8,0.6-3.6,1.8-5.2c1.2-1.6,2.6-2.4,4-2.4c0.7,0,1.3,0.2,1.7,0.6c0.4,0.4,0.7,0.9,0.7,1.5    c0,1.1-0.7,2-2.2,2.9C119.4,117.4,117.9,117.7,116.1,117.7z M116.2,117.2c1.4,0,2.5-0.3,3.5-1c0.9-0.6,1.4-1.4,1.4-2.4    c0-0.9-0.4-1.3-1.3-1.3c-0.8,0-1.5,0.5-2.3,1.4C116.9,114.7,116.4,115.8,116.2,117.2z"/>
		<linearGradient id="SVGID_4_" gradientUnits="userSpaceOnUse" x1="126.7016" y1="113.2018" x2="132.394" y2="123.0612">
			<stop offset="0" style="stop-color:#00418F"/>
			<stop offset="1" style="stop-color:#009B96"/>
		</linearGradient>
		<path class="st3" d="M130.5,120.2c-1.6,2.1-3.2,3.1-4.9,3.1c-0.7,0-1.2-0.3-1.6-0.8c-0.4-0.5-0.6-1.2-0.6-2c0-1.1,0.3-2.2,0.8-3.5    c0.5-1.2,1.2-2.3,2-3.2c1.2-1.3,2.5-2,3.8-2c0.5,0,1,0.1,1.5,0.3c0.2,0.1,0.4,0.1,0.5,0.1c0.3,0,0.6-0.3,1-1    c0.2-0.3,0.4-0.5,0.5-0.5c0.1,0,0.2,0.1,0.2,0.3c0,0.1,0,0.2,0,0.2c0,0.1-0.1,0.3-0.2,0.8l-0.3,1.5c-0.2,0.9-0.4,2-0.6,3.3    c-0.2,1.3-0.3,2.3-0.3,2.8c0,1.1,0.2,1.7,0.5,1.7c0.2,0,0.4-0.2,0.7-0.5c0.3-0.3,0.5-0.6,0.7-1c0.1-0.3,0.3-0.5,0.4-0.5    c0.2,0,0.2,0.1,0.2,0.3c0,0.6-0.4,1.3-1.1,2.1c-0.7,0.8-1.3,1.2-1.9,1.2c-0.4,0-0.6-0.2-0.8-0.6    C130.9,122.2,130.7,121.4,130.5,120.2z M130,112.6c-1,0-1.9,0.5-2.8,1.6c-0.6,0.7-1.1,1.6-1.5,2.7c-0.4,1.1-0.6,2.1-0.6,2.9    c0,1.4,0.6,2,1.8,2c0.8,0,1.6-0.4,2.4-1.2c0.8-0.8,1.3-1.7,1.4-2.6c0.1-0.5,0.1-0.9,0.2-1.3l0.3-1.2c0.1-0.7,0.3-1.1,0.3-1.4    c0.1-0.3,0.1-0.5,0.1-0.7c0-0.2-0.2-0.4-0.5-0.6C130.7,112.7,130.4,112.6,130,112.6z"/>
		<linearGradient id="SVGID_5_" gradientUnits="userSpaceOnUse" x1="136.2904" y1="111.3709" x2="142.1431" y2="121.5081">
			<stop offset="0" style="stop-color:#00418F"/>
			<stop offset="1" style="stop-color:#009B96"/>
		</linearGradient>
		<path class="st4" d="M139.1,113.7l-0.7,5.5c0,0.3,0,0.5,0,0.8c0,0.4,0.1,0.8,0.3,1.1c0.2,0.3,0.5,0.4,0.8,0.4c0.6,0,1.2-0.3,1.8-1    c0.2-0.2,0.3-0.3,0.4-0.3c0.1,0,0.2,0.1,0.2,0.2c0,0.5-0.4,1.1-1.3,1.7c-0.8,0.6-1.6,1-2.3,1c-0.5,0-0.9-0.2-1.3-0.7    s-0.5-1.1-0.5-1.9c0-0.4,0-0.8,0.1-1.4l0.6-5.2c0-0.2,0.1-0.4,0.1-0.5c0-0.1,0-0.1,0-0.2c0-0.2-0.2-0.3-0.5-0.3h-0.8    c-0.2,0-0.3-0.1-0.3-0.2c0-0.2,0.2-0.4,0.6-0.6c1-0.5,1.8-1.3,2.4-2.2c0.1-0.2,0.3-0.4,0.5-0.4c0.2,0,0.3,0.1,0.3,0.3    c0,0.1,0,0.2-0.1,0.4c0,0.1-0.1,0.2-0.1,0.5l-0.1,0.5l-0.1,0.4c0,0.1,0,0.1,0,0.2c0,0.2,0.2,0.3,0.5,0.3h0.1l1.9-0.1    c0.3,0,0.5,0.1,0.5,0.4c0,0.4-0.2,0.6-0.7,0.6l-1.6-0.1h-0.2c-0.3,0-0.4,0-0.5,0.1C139.2,113.2,139.1,113.4,139.1,113.7z"/>
		<linearGradient id="SVGID_6_" gradientUnits="userSpaceOnUse" x1="142.063" y1="108.8627" x2="149.0223" y2="120.9166">
			<stop offset="0" style="stop-color:#00418F"/>
			<stop offset="1" style="stop-color:#009B96"/>
		</linearGradient>
		<path class="st5" d="M144.1,117.5l0.6-3.4c0-0.2,0.1-0.5,0.1-0.7c0-0.4-0.3-0.5-0.8-0.5h-0.7c-0.4,0-0.6-0.1-0.6-0.3    c0-0.2,0.2-0.3,0.6-0.3c0.8,0,1.7-0.1,2.4-0.2c0.3-0.1,0.5-0.1,0.7-0.1c0.2,0,0.3,0.1,0.3,0.3l0,0.2l-0.8,3.8    c-0.4,1.9-0.6,3.3-0.6,4.3c0,0.5,0.1,0.8,0.4,0.9c0.4,0,0.8-0.4,1.2-1.1c0.1-0.2,0.2-0.3,0.3-0.3c0.1,0,0.2,0.1,0.2,0.3    c0,0.6-0.4,1.2-1.1,2c-0.7,0.7-1.3,1.1-1.8,1.1c-0.3,0-0.5-0.2-0.7-0.6c-0.2-0.4-0.3-0.9-0.3-1.6    C143.7,120.3,143.9,119.1,144.1,117.5z M146.5,106.3c0.1,0,0.2,0.1,0.2,0.2c0.1,0.3,0.2,0.4,0.3,0.5l0.3,0.5    c0.1,0.1,0.1,0.2,0.1,0.3c0,0.1-0.1,0.2-0.2,0.3c-0.2,0.2-0.4,0.5-0.7,0.8c-0.1,0.1-0.2,0.2-0.3,0.2c-0.1,0-0.2-0.1-0.3-0.3    c-0.2-0.4-0.4-0.7-0.5-0.9c-0.1-0.1-0.1-0.2-0.1-0.3c0-0.1,0-0.2,0.1-0.3l0.4-0.4c0,0,0.2-0.2,0.4-0.5    C146.3,106.4,146.4,106.3,146.5,106.3z"/>
		<linearGradient id="SVGID_7_" gradientUnits="userSpaceOnUse" x1="150.718" y1="112.0416" x2="157.3772" y2="123.5756">
			<stop offset="0" style="stop-color:#00418F"/>
			<stop offset="1" style="stop-color:#009B96"/>
		</linearGradient>
		<path class="st6" d="M152.2,114.7c0.6-0.8,1.3-1.5,2.1-2c0.8-0.5,1.5-0.7,2.2-0.7c0.6,0,1,0.3,1.4,0.9c0.4,0.6,0.6,1.3,0.6,2.2    c0,0.5,0,1.2-0.1,2l-0.3,3.6c0,0.1,0,0.2,0,0.3c0,0.5,0.1,0.7,0.4,0.7c0.5,0,0.9-0.3,1.3-0.9c0.2-0.3,0.3-0.4,0.5-0.4    c0.2,0,0.2,0.1,0.2,0.3c0,0.5-0.4,1.1-1.2,1.7c-0.7,0.7-1.4,1-1.9,1c-0.6,0-1-0.6-1-1.8c0-0.3,0-0.6,0.1-1.1l0.3-4.2    c0-0.2,0-0.4,0-0.6c0-0.7-0.1-1.3-0.4-1.7c-0.3-0.4-0.6-0.6-1.1-0.6c-0.8,0-1.4,0.5-2,1.4c-0.6,0.9-1,2.2-1.1,3.8l-0.5,4.2    c0,0.3-0.1,0.5-0.2,0.5c-0.1,0.1-0.4,0.1-0.7,0.1c-0.5,0-0.7-0.1-0.7-0.4l0-0.2l0.4-3.6c0.1-0.5,0.1-1.1,0.2-1.6    c0.1-0.9,0.2-1.7,0.2-2.1c0-0.9-0.2-1.3-0.6-1.3c-0.2,0-0.3,0.1-0.6,0.3c-0.2,0.2-0.4,0.5-0.5,0.7c-0.1,0.3-0.2,0.5-0.4,0.5    c-0.2,0-0.3-0.1-0.3-0.4c0-0.6,0.3-1.3,0.8-2c0.5-0.7,1.1-1.1,1.6-1.1c0.3,0,0.6,0.2,0.8,0.6c0.2,0.4,0.3,0.9,0.3,1.5V114.7z"/>
		<linearGradient id="SVGID_8_" gradientUnits="userSpaceOnUse" x1="162.2987" y1="113.2473" x2="169.8479" y2="126.3229">
			<stop offset="0" style="stop-color:#00418F"/>
			<stop offset="1" style="stop-color:#009B96"/>
		</linearGradient>
		<path class="st7" d="M168.1,112.8c0.5,0.9,0.7,1.8,0.7,2.6c0,1.2-0.4,2.3-1.1,3.1c-0.7,0.9-1.6,1.3-2.6,1.3    c-0.4,0-0.8-0.1-1.2-0.2c-0.1,0-0.2-0.1-0.3-0.1c-0.4,0-0.6,0.3-0.6,0.8c0,0.7,0.6,1.2,1.7,1.5l2.2,0.7c1.7,0.5,2.6,1.4,2.6,2.7    c0,0.8-0.4,1.5-1.1,1.9c-0.8,0.5-1.8,0.7-3,0.7c-1.5,0-2.8-0.3-3.7-0.9c-0.9-0.6-1.4-1.4-1.4-2.3c0-0.7,0.2-1.3,0.6-1.7    c0.4-0.4,1-0.7,1.8-0.8c-0.3-0.4-0.4-0.9-0.4-1.4c0-0.5,0.2-1,0.7-1.4c0.1-0.1,0.1-0.1,0.1-0.2l-0.1-0.2c-0.7-0.8-1-1.8-1-2.9    c0-1.1,0.4-2.1,1.1-3c0.7-0.8,1.6-1.3,2.5-1.3c0.3,0,0.8,0.1,1.4,0.2c0.6,0.1,1,0.2,1.3,0.2c0.4,0,0.8-0.1,1.1-0.2l0.6-0.2    c0.1-0.1,0.3-0.1,0.4-0.1c0.1,0,0.2,0.1,0.4,0.2s0.2,0.3,0.2,0.4c0,0.2-0.1,0.4-0.3,0.6c-0.2,0.2-0.5,0.3-0.8,0.3    C169.4,113.2,168.8,113.1,168.1,112.8z M162.9,122.6c-0.5,0.1-0.9,0.3-1.1,0.7c-0.3,0.3-0.4,0.7-0.4,1.2c0,0.8,0.3,1.5,1,2.1    c0.7,0.5,1.6,0.8,2.6,0.8c0.9,0,1.6-0.1,2.2-0.4c0.5-0.3,0.8-0.7,0.8-1.2c0-0.7-0.6-1.3-1.9-1.7l-1.8-0.7    C163.8,123.1,163.3,122.9,162.9,122.6z M165.5,112.4c-0.6,0-1.1,0.4-1.5,1.1c-0.4,0.7-0.6,1.7-0.6,2.9c0,0.9,0.2,1.6,0.5,2.1    c0.3,0.5,0.7,0.8,1.3,0.8c0.6,0,1.2-0.4,1.6-1.1c0.4-0.7,0.6-1.7,0.6-2.8c0-0.9-0.2-1.6-0.5-2.1    C166.5,112.7,166.1,112.4,165.5,112.4z"/>
		<linearGradient id="SVGID_9_" gradientUnits="userSpaceOnUse" x1="175.9862" y1="105.7948" x2="186.6144" y2="124.2034">
			<stop offset="0" style="stop-color:#00418F"/>
			<stop offset="1" style="stop-color:#009B96"/>
		</linearGradient>
		<path class="st8" d="M178.7,120.6l1.6-13.3c0-0.3,0.1-0.5,0.1-0.8c0-0.8-0.4-1.3-1.3-1.5c-0.5-0.1-0.8-0.2-0.8-0.4    c0-0.2,0.2-0.3,0.5-0.3c0.1,0,0.2,0,0.4,0l0.3,0c0.5,0,1,0.1,1.7,0.1c0.6,0,1.1,0,1.6-0.1l0.4,0c0.2,0,0.4,0,0.4,0    c0.3,0,0.5,0.1,0.5,0.3c0,0.1-0.1,0.2-0.3,0.3l-0.2,0.1c-0.5,0.1-0.8,0.3-0.9,0.5c-0.1,0.2-0.3,0.7-0.3,1.5l-1.7,13.7    c0,0.2,0,0.4,0,0.6c0,0.6,0.8,0.8,2.5,0.8c3.5,0,5.8-0.6,6.7-1.9c0.4-0.5,0.6-0.7,0.8-0.7s0.2,0.1,0.2,0.3c0,0.6-0.3,1.3-0.9,2.2    c-0.3,0.5-0.7,0.8-1.1,1c-0.4,0.2-1,0.3-1.8,0.3l-3.2-0.1L180,123c-0.7,0-1.3,0-1.8,0.1c-0.3,0.1-0.6,0.1-0.7,0.1    c-0.3,0-0.5-0.1-0.5-0.3c0-0.1,0.2-0.3,0.5-0.4c0.7-0.2,1.1-0.6,1.2-1.3L178.7,120.6z"/>
		<linearGradient id="SVGID_10_" gradientUnits="userSpaceOnUse" x1="190.4718" y1="108.8627" x2="197.4311" y2="120.9166">
			<stop offset="0" style="stop-color:#00418F"/>
			<stop offset="1" style="stop-color:#009B96"/>
		</linearGradient>
		<path class="st9" d="M192.6,117.5l0.6-3.4c0-0.2,0.1-0.5,0.1-0.7c0-0.4-0.3-0.5-0.8-0.5h-0.7c-0.4,0-0.6-0.1-0.6-0.3    c0-0.2,0.2-0.3,0.6-0.3c0.8,0,1.7-0.1,2.4-0.2c0.3-0.1,0.5-0.1,0.7-0.1c0.2,0,0.3,0.1,0.3,0.3l0,0.2l-0.8,3.8    c-0.4,1.9-0.6,3.3-0.6,4.3c0,0.5,0.1,0.8,0.4,0.9c0.4,0,0.8-0.4,1.2-1.1c0.1-0.2,0.2-0.3,0.3-0.3c0.1,0,0.2,0.1,0.2,0.3    c0,0.6-0.4,1.2-1.1,2c-0.7,0.7-1.3,1.1-1.8,1.1c-0.3,0-0.5-0.2-0.7-0.6c-0.2-0.4-0.3-0.9-0.3-1.6    C192.1,120.3,192.3,119.1,192.6,117.5z M194.9,106.3c0.1,0,0.2,0.1,0.2,0.2c0.1,0.3,0.2,0.4,0.3,0.5l0.3,0.5    c0.1,0.1,0.1,0.2,0.1,0.3c0,0.1-0.1,0.2-0.2,0.3c-0.2,0.2-0.4,0.5-0.7,0.8c-0.1,0.1-0.2,0.2-0.3,0.2c-0.1,0-0.2-0.1-0.3-0.3    c-0.2-0.4-0.4-0.7-0.5-0.9c-0.1-0.1-0.1-0.2-0.1-0.3c0-0.1,0-0.2,0.1-0.3l0.4-0.4c0,0,0.2-0.2,0.4-0.5    C194.7,106.4,194.8,106.3,194.9,106.3z"/>
		<linearGradient id="SVGID_11_" gradientUnits="userSpaceOnUse" x1="196.5087" y1="108.4339" x2="205.011" y2="123.1604">
			<stop offset="0" style="stop-color:#00418F"/>
			<stop offset="1" style="stop-color:#009B96"/>
		</linearGradient>
		<path class="st10" d="M199.7,113h-1.8c-0.4,0-0.7-0.1-0.7-0.4c0-0.4,0.3-0.6,0.8-0.6h1.8l0.1-0.4c0.4-2.5,1.2-4.5,2.4-6    c0.5-0.6,0.9-1.1,1.3-1.3c0.4-0.2,0.9-0.4,1.5-0.4c0.4,0,0.6,0,0.8,0.1c0.1,0.1,0.2,0.2,0.2,0.5c0,1.1-0.1,1.7-0.3,1.7    c-0.1,0-0.2,0-0.2-0.1l-0.3-0.4c-0.3-0.4-0.7-0.6-1.2-0.6c-0.5,0-1,0.5-1.3,1.5c-0.4,1-0.7,2.6-1.1,4.8l-0.1,0.5h2.1    c0.4,0,0.7,0.1,0.7,0.4c0,0.4-0.3,0.6-0.8,0.6h-2.1l-1.3,10.2c-0.2,1.5-0.6,2.6-1.3,3.4c-0.8,0.8-1.5,1.2-2.3,1.2    c-0.5,0-0.7-0.2-0.7-0.6c0-0.4,0.1-0.7,0.2-1.2c0.2-0.4,0.3-0.6,0.4-0.6c0.1,0,0.2,0.1,0.2,0.3c0.1,0.6,0.3,0.9,0.7,0.9    c0.5,0,0.8-0.6,0.9-1.9l0.1-0.9l0.8-6.3C199.2,116.1,199.4,114.5,199.7,113z"/>
		<linearGradient id="SVGID_12_" gradientUnits="userSpaceOnUse" x1="204.9429" y1="113.454" x2="209.9908" y2="122.1972">
			<stop offset="0" style="stop-color:#00418F"/>
			<stop offset="1" style="stop-color:#009B96"/>
		</linearGradient>
		<path class="st11" d="M204.6,117.7c0,0.4-0.1,0.7-0.1,1c0,0.9,0.3,1.7,0.9,2.4c0.6,0.7,1.4,1,2.3,1c1.1,0,2-0.3,2.7-1    c0.2-0.2,0.4-0.3,0.4-0.3c0.1,0,0.2,0.1,0.2,0.3c0,0.3-0.3,0.7-1,1.2c-1,0.8-2.2,1.2-3.5,1.2c-1.1,0-2-0.3-2.7-1.1    c-0.7-0.7-1-1.7-1-2.9c0-1.8,0.6-3.6,1.8-5.2c1.2-1.6,2.6-2.4,4-2.4c0.7,0,1.3,0.2,1.7,0.6c0.4,0.4,0.7,0.9,0.7,1.5    c0,1.1-0.7,2-2.2,2.9C207.9,117.4,206.4,117.7,204.6,117.7z M204.6,117.2c1.4,0,2.5-0.3,3.5-1c0.9-0.6,1.4-1.4,1.4-2.4    c0-0.9-0.4-1.3-1.3-1.3c-0.8,0-1.5,0.5-2.3,1.4C205.3,114.7,204.9,115.8,204.6,117.2z"/>
		<linearGradient id="SVGID_13_" gradientUnits="userSpaceOnUse" x1="212.496" y1="113.259" x2="217.577" y2="122.0596">
			<stop offset="0" style="stop-color:#00418F"/>
			<stop offset="1" style="stop-color:#009B96"/>
		</linearGradient>
		<path class="st12" d="M215.2,115.5l1.9,2.1c0.6,0.7,0.9,1.5,0.9,2.4c0,0.9-0.4,1.7-1.1,2.4c-0.7,0.6-1.6,1-2.7,1    c-0.8,0-1.5-0.2-2-0.5c-0.6-0.3-0.8-0.7-0.8-1.2c0-0.6,0.3-0.9,0.8-0.9c0.3,0,0.6,0.2,0.9,0.7l0.3,0.5c0.3,0.4,0.6,0.7,1.1,0.7    c0.5,0,1-0.2,1.4-0.5c0.4-0.3,0.6-0.8,0.6-1.2c0-0.7-0.4-1.5-1.1-2.3l-1.5-1.6c-0.7-0.7-1.1-1.5-1.1-2.3c0-0.9,0.3-1.6,0.9-2.1    c0.6-0.5,1.4-0.7,2.5-0.7c1.5,0,2.2,0.4,2.2,1.3c0,0.6-0.3,0.9-0.9,0.9c-0.3,0-0.5-0.1-0.7-0.4l-0.3-0.4c-0.3-0.4-0.7-0.6-1.1-0.6    c-0.8,0-1.2,0.4-1.2,1.3C214.2,114.2,214.5,114.8,215.2,115.5z"/>
		<linearGradient id="SVGID_14_" gradientUnits="userSpaceOnUse" x1="219.9225" y1="111.371" x2="225.7752" y2="121.5082">
			<stop offset="0" style="stop-color:#00418F"/>
			<stop offset="1" style="stop-color:#009B96"/>
		</linearGradient>
		<path class="st13" d="M222.7,113.7l-0.7,5.5c0,0.3,0,0.5,0,0.8c0,0.4,0.1,0.8,0.3,1.1c0.2,0.3,0.5,0.4,0.8,0.4    c0.6,0,1.2-0.3,1.8-1c0.2-0.2,0.3-0.3,0.4-0.3c0.1,0,0.2,0.1,0.2,0.2c0,0.5-0.4,1.1-1.3,1.7s-1.6,1-2.3,1c-0.5,0-0.9-0.2-1.3-0.7    c-0.3-0.5-0.5-1.1-0.5-1.9c0-0.4,0-0.8,0.1-1.4l0.6-5.2c0-0.2,0.1-0.4,0.1-0.5c0-0.1,0-0.1,0-0.2c0-0.2-0.2-0.3-0.5-0.3H220    c-0.2,0-0.3-0.1-0.3-0.2c0-0.2,0.2-0.4,0.6-0.6c1-0.5,1.8-1.3,2.4-2.2c0.1-0.2,0.3-0.4,0.5-0.4c0.2,0,0.3,0.1,0.3,0.3    c0,0.1,0,0.2-0.1,0.4c0,0.1-0.1,0.2-0.1,0.5l-0.1,0.5l-0.1,0.4c0,0.1,0,0.1,0,0.2c0,0.2,0.2,0.3,0.5,0.3h0.1l1.9-0.1    c0.3,0,0.5,0.1,0.5,0.4c0,0.4-0.2,0.6-0.7,0.6l-1.6-0.1h-0.2c-0.3,0-0.4,0-0.5,0.1C222.8,113.2,222.8,113.4,222.7,113.7z"/>
		<linearGradient id="SVGID_15_" gradientUnits="userSpaceOnUse" x1="225.761" y1="112.7455" x2="232.9005" y2="125.1115">
			<stop offset="0" style="stop-color:#00418F"/>
			<stop offset="1" style="stop-color:#009B96"/>
		</linearGradient>
		<path class="st14" d="M232.3,119.6c0.6-1.8,0.9-3.3,0.9-4.6c0-0.4-0.1-0.9-0.3-1.3c-0.2-0.4-0.3-0.7-0.3-0.9    c0-0.6,0.2-0.8,0.7-0.8c0.3,0,0.5,0.2,0.7,0.5c0.2,0.3,0.3,0.7,0.3,1.2c0,0.8-0.2,2-0.6,3.7c-0.4,1.7-0.8,3.1-1.2,4.3    c-0.8,2.2-1.6,3.7-2.4,4.8c-0.9,1-1.8,1.5-2.8,1.5c-0.4,0-0.8-0.1-1.2-0.4c-0.3-0.3-0.5-0.6-0.5-0.9c0-0.6,0.2-0.8,0.7-0.8    c0.2,0,0.5,0.1,0.9,0.4c0.4,0.3,0.7,0.4,1,0.4c0.7,0,1.5-0.7,2.3-2c0.6-1,0.9-1.8,0.9-2.4c0-0.3-0.2-1-0.5-2    c-0.3-1-0.7-1.9-1.1-2.8c-1.1-2.3-1.9-3.5-2.6-3.5c-0.6,0-1,0.4-1.2,1.2l-0.1,0.4c0,0.2-0.1,0.2-0.2,0.2c-0.2,0-0.3-0.2-0.3-0.6    c0-0.9,0.2-1.6,0.6-2.3c0.4-0.6,0.9-0.9,1.4-0.9c0.6,0,1.2,0.5,1.9,1.4c0.7,1,1.4,2.3,2.2,4L232.3,119.6z"/>
		<linearGradient id="SVGID_16_" gradientUnits="userSpaceOnUse" x1="233.6975" y1="105.4837" x2="242.414" y2="120.5811">
			<stop offset="0" style="stop-color:#00418F"/>
			<stop offset="1" style="stop-color:#009B96"/>
		</linearGradient>
		<path class="st15" d="M236.3,119.7l1.7-14c0-0.4,0.1-0.6,0.1-0.7c0-0.3-0.2-0.5-0.8-0.5h-0.7c-0.4,0-0.6-0.1-0.5-0.3    c0-0.2,0.2-0.3,0.5-0.3c1.1-0.1,1.8-0.1,2.3-0.2c0.3-0.1,0.5-0.1,0.6-0.1c0.2,0,0.3,0.1,0.3,0.3l0,0.2l-1.9,15.9    c0,0.3-0.1,0.6-0.1,0.7c0,0.5,0.2,0.8,0.5,0.8c0.3,0,0.6-0.2,1-0.5c0.3-0.3,0.7-0.7,0.9-1.2c0.1-0.2,0.2-0.3,0.3-0.3    c0.2,0,0.3,0.1,0.3,0.3c0,0.1-0.1,0.4-0.3,0.8c-0.2,0.4-0.4,0.7-0.7,1c-0.4,0.4-0.8,0.8-1.2,1.1c-0.5,0.3-0.9,0.4-1.2,0.4    c-0.8,0-1.2-0.7-1.2-2.2C236.2,120.6,236.3,120.2,236.3,119.7z"/>
		<linearGradient id="SVGID_17_" gradientUnits="userSpaceOnUse" x1="242.8715" y1="113.4541" x2="247.9193" y2="122.1971">
			<stop offset="0" style="stop-color:#00418F"/>
			<stop offset="1" style="stop-color:#009B96"/>
		</linearGradient>
		<path class="st16" d="M242.5,117.7c0,0.4-0.1,0.7-0.1,1c0,0.9,0.3,1.7,0.9,2.4c0.6,0.7,1.4,1,2.3,1c1.1,0,2-0.3,2.7-1    c0.2-0.2,0.4-0.3,0.4-0.3c0.1,0,0.2,0.1,0.2,0.3c0,0.3-0.3,0.7-1,1.2c-1,0.8-2.2,1.2-3.5,1.2c-1.1,0-2-0.3-2.7-1.1    c-0.7-0.7-1-1.7-1-2.9c0-1.8,0.6-3.6,1.8-5.2s2.6-2.4,4-2.4c0.7,0,1.3,0.2,1.7,0.6s0.7,0.9,0.7,1.5c0,1.1-0.7,2-2.2,2.9    C245.8,117.4,244.3,117.7,242.5,117.7z M242.6,117.2c1.4,0,2.5-0.3,3.5-1c0.9-0.6,1.4-1.4,1.4-2.4c0-0.9-0.4-1.3-1.3-1.3    c-0.8,0-1.5,0.5-2.3,1.4C243.3,114.7,242.8,115.8,242.6,117.2z"/>
		<linearGradient id="SVGID_18_" gradientUnits="userSpaceOnUse" x1="250.4248" y1="113.259" x2="255.5058" y2="122.0596">
			<stop offset="0" style="stop-color:#00418F"/>
			<stop offset="1" style="stop-color:#009B96"/>
		</linearGradient>
		<path class="st17" d="M253.1,115.5l1.9,2.1c0.6,0.7,0.9,1.5,0.9,2.4c0,0.9-0.4,1.7-1.1,2.4c-0.7,0.6-1.6,1-2.7,1    c-0.8,0-1.5-0.2-2-0.5c-0.6-0.3-0.8-0.7-0.8-1.2c0-0.6,0.3-0.9,0.8-0.9c0.3,0,0.6,0.2,0.9,0.7l0.3,0.5c0.3,0.4,0.6,0.7,1.1,0.7    c0.5,0,1-0.2,1.4-0.5c0.4-0.3,0.6-0.8,0.6-1.2c0-0.7-0.4-1.5-1.1-2.3l-1.5-1.6c-0.7-0.7-1.1-1.5-1.1-2.3c0-0.9,0.3-1.6,0.9-2.1    c0.6-0.5,1.4-0.7,2.5-0.7c1.5,0,2.2,0.4,2.2,1.3c0,0.6-0.3,0.9-0.9,0.9c-0.3,0-0.5-0.1-0.7-0.4l-0.3-0.4c-0.3-0.4-0.7-0.6-1.1-0.6    c-0.8,0-1.2,0.4-1.2,1.3C252.1,114.2,252.5,114.8,253.1,115.5z"/>
		<linearGradient id="SVGID_19_" gradientUnits="userSpaceOnUse" x1="256.9489" y1="121.2885" x2="259.782" y2="126.1955">
			<stop offset="0" style="stop-color:#00418F"/>
			<stop offset="1" style="stop-color:#009B96"/>
		</linearGradient>
		<path class="st18" d="M258.9,120.2c0.2,0,0.5,0.2,0.8,0.5c0.5,0.6,0.8,1.4,0.8,2.2c0,1.2-0.5,2.3-1.5,3.4    c-0.6,0.7-1.1,1.1-1.4,1.1c-0.2,0-0.2-0.1-0.2-0.2c0-0.1,0.2-0.3,0.5-0.7c0.8-0.7,1.2-1.6,1.2-2.5c0-0.9-0.3-1.5-1-1.8l-0.2-0.1    c-0.2-0.1-0.3-0.2-0.2-0.3c0-0.1,0.2-0.4,0.5-0.8c0.2-0.2,0.3-0.3,0.3-0.4C258.6,120.4,258.8,120.2,258.9,120.2z"/>
		<linearGradient id="SVGID_20_" gradientUnits="userSpaceOnUse" x1="274.4885" y1="105.3352" x2="284.0933" y2="121.9711">
			<stop offset="0" style="stop-color:#00418F"/>
			<stop offset="1" style="stop-color:#009B96"/>
		</linearGradient>
		<path class="st19" d="M279.2,104.1c2.1,0,4.1,0.6,5.9,1.8c0.1,0.1,0.3,0.1,0.3,0.1c0.1,0,0.1,0,0.2-0.1l0.2-0.2    c0.1-0.1,0.2-0.1,0.3-0.1c0.2,0,0.3,0.2,0.3,0.5v1.3l0.2,2.1c0,0.2,0,0.4,0,0.5c0,0.3-0.1,0.5-0.3,0.5c-0.2,0-0.4-0.2-0.5-0.7    c-0.3-1.3-1-2.4-2.1-3.2c-1.4-1.1-2.9-1.7-4.6-1.7c-2.1,0-3.9,0.8-5.2,2.5c-1.3,1.6-2,3.7-2,6.3c0,2.6,0.6,4.7,1.9,6.4    c1.3,1.7,2.9,2.5,4.9,2.5c1.4,0,2.7-0.4,3.9-1.2c1.2-0.8,2-1.8,2.4-2.9c0.2-0.6,0.4-0.8,0.6-0.8c0.2,0,0.3,0.2,0.3,0.5    c0,0.3-0.1,0.7-0.2,1l-0.3,0.9l-0.1,0.6c0,0.2-0.1,0.4-0.2,0.5c-0.1,0.1-0.4,0.3-0.8,0.5c-1.9,1.1-3.9,1.6-6,1.6    c-2.7,0-4.8-0.8-6.3-2.4c-1.5-1.6-2.3-3.8-2.3-6.6c0-3,0.9-5.5,2.6-7.5C274.3,105.1,276.5,104.1,279.2,104.1z"/>
		<linearGradient id="SVGID_21_" gradientUnits="userSpaceOnUse" x1="288.9867" y1="113.0373" x2="294.1977" y2="122.063">
			<stop offset="0" style="stop-color:#00418F"/>
			<stop offset="1" style="stop-color:#009B96"/>
		</linearGradient>
		<path class="st20" d="M292.3,111.9c1.2,0,2.2,0.4,2.9,1.2s1.1,1.9,1.1,3.3c0,1.9-0.5,3.6-1.6,4.9c-1.1,1.4-2.4,2-3.9,2    c-1.2,0-2.1-0.4-2.8-1.3c-0.7-0.9-1.1-2-1.1-3.4c0-1,0.2-2,0.6-3.1c0.4-1,1-1.9,1.6-2.5C290,112.3,291.1,111.9,292.3,111.9z     M292.4,112.5c-1,0-1.9,0.6-2.6,1.8c-0.7,1.2-1.1,2.6-1.1,4.4c0,2.6,0.8,3.8,2.3,3.8c0.9,0,1.8-0.6,2.4-1.9c0.7-1.3,1-2.8,1-4.5    C294.5,113.7,293.8,112.5,292.4,112.5z"/>
		<linearGradient id="SVGID_22_" gradientUnits="userSpaceOnUse" x1="299.2599" y1="112.0416" x2="305.9191" y2="123.5756">
			<stop offset="0" style="stop-color:#00418F"/>
			<stop offset="1" style="stop-color:#009B96"/>
		</linearGradient>
		<path class="st21" d="M300.8,114.7c0.6-0.8,1.3-1.5,2.1-2c0.8-0.5,1.5-0.7,2.2-0.7c0.6,0,1,0.3,1.4,0.9c0.4,0.6,0.6,1.3,0.6,2.2    c0,0.5,0,1.2-0.1,2l-0.3,3.6c0,0.1,0,0.2,0,0.3c0,0.5,0.1,0.7,0.4,0.7c0.5,0,0.9-0.3,1.3-0.9c0.2-0.3,0.3-0.4,0.5-0.4    c0.2,0,0.2,0.1,0.2,0.3c0,0.5-0.4,1.1-1.2,1.7c-0.7,0.7-1.4,1-1.9,1c-0.6,0-1-0.6-1-1.8c0-0.3,0-0.6,0.1-1.1l0.3-4.2    c0-0.2,0-0.4,0-0.6c0-0.7-0.1-1.3-0.4-1.7c-0.3-0.4-0.6-0.6-1.1-0.6c-0.8,0-1.4,0.5-2,1.4c-0.6,0.9-1,2.2-1.1,3.8l-0.5,4.2    c0,0.3-0.1,0.5-0.2,0.5c-0.1,0.1-0.4,0.1-0.7,0.1c-0.5,0-0.7-0.1-0.7-0.4l0-0.2l0.4-3.6c0.1-0.5,0.1-1.1,0.2-1.6    c0.1-0.9,0.2-1.7,0.2-2.1c0-0.9-0.2-1.3-0.6-1.3c-0.2,0-0.3,0.1-0.6,0.3c-0.2,0.2-0.4,0.5-0.5,0.7c-0.1,0.3-0.2,0.5-0.4,0.5    c-0.2,0-0.3-0.1-0.3-0.4c0-0.6,0.3-1.3,0.8-2c0.5-0.7,1.1-1.1,1.6-1.1c0.3,0,0.6,0.2,0.8,0.6c0.2,0.4,0.3,0.9,0.3,1.5V114.7z"/>
		<linearGradient id="SVGID_23_" gradientUnits="userSpaceOnUse" x1="311.6727" y1="112.0413" x2="318.332" y2="123.5755">
			<stop offset="0" style="stop-color:#00418F"/>
			<stop offset="1" style="stop-color:#009B96"/>
		</linearGradient>
		<path class="st22" d="M313.2,114.7c0.6-0.8,1.3-1.5,2.1-2c0.8-0.5,1.5-0.7,2.2-0.7c0.6,0,1,0.3,1.4,0.9c0.4,0.6,0.6,1.3,0.6,2.2    c0,0.5,0,1.2-0.1,2l-0.3,3.6c0,0.1,0,0.2,0,0.3c0,0.5,0.1,0.7,0.4,0.7c0.5,0,0.9-0.3,1.3-0.9c0.2-0.3,0.3-0.4,0.5-0.4    c0.2,0,0.2,0.1,0.2,0.3c0,0.5-0.4,1.1-1.2,1.7c-0.7,0.7-1.4,1-1.9,1c-0.6,0-1-0.6-1-1.8c0-0.3,0-0.6,0.1-1.1l0.3-4.2    c0-0.2,0-0.4,0-0.6c0-0.7-0.1-1.3-0.4-1.7c-0.3-0.4-0.6-0.6-1.1-0.6c-0.8,0-1.4,0.5-2,1.4c-0.6,0.9-1,2.2-1.1,3.8l-0.5,4.2    c0,0.3-0.1,0.5-0.2,0.5c-0.1,0.1-0.4,0.1-0.7,0.1c-0.5,0-0.7-0.1-0.7-0.4l0-0.2l0.4-3.6c0.1-0.5,0.1-1.1,0.2-1.6    c0.1-0.9,0.2-1.7,0.2-2.1c0-0.9-0.2-1.3-0.6-1.3c-0.2,0-0.3,0.1-0.6,0.3c-0.2,0.2-0.4,0.5-0.5,0.7c-0.1,0.3-0.2,0.5-0.4,0.5    c-0.2,0-0.3-0.1-0.3-0.4c0-0.6,0.3-1.3,0.8-2c0.5-0.7,1.1-1.1,1.5-1.1c0.3,0,0.6,0.2,0.8,0.6c0.2,0.4,0.3,0.9,0.3,1.5V114.7z"/>
		<linearGradient id="SVGID_24_" gradientUnits="userSpaceOnUse" x1="323.9852" y1="113.4541" x2="329.0329" y2="122.1971">
			<stop offset="0" style="stop-color:#00418F"/>
			<stop offset="1" style="stop-color:#009B96"/>
		</linearGradient>
		<path class="st23" d="M323.6,117.7c0,0.4-0.1,0.7-0.1,1c0,0.9,0.3,1.7,0.9,2.4c0.6,0.7,1.4,1,2.3,1c1.1,0,2-0.3,2.7-1    c0.2-0.2,0.4-0.3,0.4-0.3c0.1,0,0.2,0.1,0.2,0.3c0,0.3-0.3,0.7-1,1.2c-1,0.8-2.2,1.2-3.5,1.2c-1.1,0-2-0.3-2.7-1.1s-1-1.7-1-2.9    c0-1.8,0.6-3.6,1.8-5.2c1.2-1.6,2.6-2.4,4-2.4c0.7,0,1.3,0.2,1.7,0.6s0.7,0.9,0.7,1.5c0,1.1-0.7,2-2.2,2.9    C326.9,117.4,325.4,117.7,323.6,117.7z M323.7,117.2c1.4,0,2.5-0.3,3.5-1c0.9-0.6,1.4-1.4,1.4-2.4c0-0.9-0.4-1.3-1.3-1.3    c-0.8,0-1.5,0.5-2.3,1.4C324.4,114.7,323.9,115.8,323.7,117.2z"/>
		<linearGradient id="SVGID_25_" gradientUnits="userSpaceOnUse" x1="333.2093" y1="113.2722" x2="338.3001" y2="122.0898">
			<stop offset="0" style="stop-color:#00418F"/>
			<stop offset="1" style="stop-color:#009B96"/>
		</linearGradient>
		<path class="st24" d="M338.3,114.2l-0.8-0.8c-0.4-0.4-0.9-0.7-1.4-0.7c-1,0-1.8,0.5-2.4,1.6c-0.6,1-1,2.3-1,3.9    c0,1.2,0.3,2.2,0.8,2.9c0.5,0.7,1.3,1,2.3,1c1,0,1.8-0.3,2.5-0.9l0.5-0.4c0.1-0.1,0.2-0.1,0.2-0.1c0.1,0,0.2,0,0.2,0.2    c0,0.2-0.2,0.6-0.6,1c-1,1.1-2.4,1.7-4,1.7c-1.1,0-2-0.4-2.7-1.1c-0.6-0.7-0.9-1.8-0.9-3.1c0-1.9,0.6-3.6,1.8-5    c1.2-1.5,2.5-2.2,4-2.2c0.7,0,1.4,0.2,2,0.5c0.6,0.3,0.8,0.7,0.8,1.1c0,0.3-0.1,0.5-0.2,0.7c-0.2,0.2-0.4,0.3-0.6,0.3    C338.6,114.4,338.4,114.4,338.3,114.2z"/>
		<linearGradient id="SVGID_26_" gradientUnits="userSpaceOnUse" x1="340.8186" y1="111.3709" x2="346.6713" y2="121.5081">
			<stop offset="0" style="stop-color:#00418F"/>
			<stop offset="1" style="stop-color:#009B96"/>
		</linearGradient>
		<path class="st25" d="M343.6,113.7l-0.7,5.5c0,0.3,0,0.5,0,0.8c0,0.4,0.1,0.8,0.3,1.1c0.2,0.3,0.5,0.4,0.8,0.4    c0.6,0,1.2-0.3,1.8-1c0.2-0.2,0.3-0.3,0.4-0.3c0.1,0,0.2,0.1,0.2,0.2c0,0.5-0.4,1.1-1.3,1.7c-0.8,0.6-1.6,1-2.3,1    c-0.5,0-0.9-0.2-1.3-0.7c-0.3-0.5-0.5-1.1-0.5-1.9c0-0.4,0-0.8,0.1-1.4l0.6-5.2c0-0.2,0.1-0.4,0.1-0.5c0-0.1,0-0.1,0-0.2    c0-0.2-0.2-0.3-0.5-0.3h-0.8c-0.2,0-0.3-0.1-0.3-0.2c0-0.2,0.2-0.4,0.6-0.6c1-0.5,1.8-1.3,2.4-2.2c0.1-0.2,0.3-0.4,0.5-0.4    c0.2,0,0.3,0.1,0.3,0.3c0,0.1,0,0.2-0.1,0.4c0,0.1-0.1,0.2-0.1,0.5l-0.1,0.5l-0.1,0.4c0,0.1,0,0.1,0,0.2c0,0.2,0.2,0.3,0.5,0.3    h0.1l1.9-0.1c0.3,0,0.5,0.1,0.5,0.4c0,0.4-0.2,0.6-0.7,0.6l-1.6-0.1h-0.2c-0.3,0-0.4,0-0.5,0.1    C343.7,113.2,343.7,113.4,343.6,113.7z"/>
		<linearGradient id="SVGID_27_" gradientUnits="userSpaceOnUse" x1="346.5912" y1="108.8627" x2="353.5505" y2="120.9166">
			<stop offset="0" style="stop-color:#00418F"/>
			<stop offset="1" style="stop-color:#009B96"/>
		</linearGradient>
		<path class="st26" d="M348.7,117.5l0.6-3.4c0-0.2,0.1-0.5,0.1-0.7c0-0.4-0.3-0.5-0.8-0.5h-0.7c-0.4,0-0.6-0.1-0.6-0.3    c0-0.2,0.2-0.3,0.6-0.3c0.8,0,1.7-0.1,2.4-0.2c0.3-0.1,0.5-0.1,0.7-0.1c0.2,0,0.3,0.1,0.3,0.3l0,0.2l-0.8,3.8    c-0.4,1.9-0.6,3.3-0.6,4.3c0,0.5,0.1,0.8,0.4,0.9c0.4,0,0.8-0.4,1.2-1.1c0.1-0.2,0.2-0.3,0.3-0.3c0.1,0,0.2,0.1,0.2,0.3    c0,0.6-0.4,1.2-1.1,2c-0.7,0.7-1.3,1.1-1.8,1.1c-0.3,0-0.5-0.2-0.7-0.6c-0.2-0.4-0.3-0.9-0.3-1.6    C348.3,120.3,348.4,119.1,348.7,117.5z M351,106.3c0.1,0,0.2,0.1,0.2,0.2c0.1,0.3,0.2,0.4,0.3,0.5l0.3,0.5    c0.1,0.1,0.1,0.2,0.1,0.3c0,0.1-0.1,0.2-0.2,0.3c-0.2,0.2-0.4,0.5-0.7,0.8c-0.1,0.1-0.2,0.2-0.3,0.2c-0.1,0-0.2-0.1-0.3-0.3    c-0.2-0.4-0.4-0.7-0.5-0.9c-0.1-0.1-0.1-0.2-0.1-0.3c0-0.1,0-0.2,0.1-0.3l0.4-0.4c0,0,0.2-0.2,0.4-0.5    C350.8,106.4,350.9,106.3,351,106.3z"/>
		<linearGradient id="SVGID_28_" gradientUnits="userSpaceOnUse" x1="355.2462" y1="112.0416" x2="361.9054" y2="123.5756">
			<stop offset="0" style="stop-color:#00418F"/>
			<stop offset="1" style="stop-color:#009B96"/>
		</linearGradient>
		<path class="st27" d="M356.7,114.7c0.6-0.8,1.3-1.5,2.1-2c0.8-0.5,1.5-0.7,2.2-0.7c0.6,0,1,0.3,1.4,0.9c0.4,0.6,0.6,1.3,0.6,2.2    c0,0.5,0,1.2-0.1,2l-0.3,3.6c0,0.1,0,0.2,0,0.3c0,0.5,0.1,0.7,0.4,0.7c0.5,0,0.9-0.3,1.3-0.9c0.2-0.3,0.3-0.4,0.5-0.4    c0.2,0,0.2,0.1,0.2,0.3c0,0.5-0.4,1.1-1.2,1.7c-0.7,0.7-1.4,1-1.9,1c-0.6,0-1-0.6-1-1.8c0-0.3,0-0.6,0.1-1.1l0.3-4.2    c0-0.2,0-0.4,0-0.6c0-0.7-0.1-1.3-0.4-1.7c-0.3-0.4-0.6-0.6-1.1-0.6c-0.8,0-1.4,0.5-2,1.4c-0.6,0.9-1,2.2-1.1,3.8l-0.5,4.2    c0,0.3-0.1,0.5-0.2,0.5c-0.1,0.1-0.4,0.1-0.7,0.1c-0.5,0-0.7-0.1-0.7-0.4l0-0.2l0.4-3.6c0.1-0.5,0.1-1.1,0.2-1.6    c0.1-0.9,0.2-1.7,0.2-2.1c0-0.9-0.2-1.3-0.6-1.3c-0.2,0-0.3,0.1-0.6,0.3c-0.2,0.2-0.4,0.5-0.5,0.7c-0.1,0.3-0.2,0.5-0.4,0.5    c-0.2,0-0.3-0.1-0.3-0.4c0-0.6,0.3-1.3,0.8-2c0.5-0.7,1.1-1.1,1.6-1.1c0.3,0,0.6,0.2,0.8,0.6c0.2,0.4,0.3,0.9,0.3,1.5V114.7z"/>
		<linearGradient id="SVGID_29_" gradientUnits="userSpaceOnUse" x1="366.8269" y1="113.2473" x2="374.3761" y2="126.3229">
			<stop offset="0" style="stop-color:#00418F"/>
			<stop offset="1" style="stop-color:#009B96"/>
		</linearGradient>
		<path class="st28" d="M372.6,112.8c0.5,0.9,0.7,1.8,0.7,2.6c0,1.2-0.4,2.3-1.1,3.1c-0.7,0.9-1.6,1.3-2.6,1.3    c-0.4,0-0.8-0.1-1.2-0.2c-0.1,0-0.2-0.1-0.3-0.1c-0.4,0-0.6,0.3-0.6,0.8c0,0.7,0.6,1.2,1.7,1.5l2.2,0.7c1.7,0.5,2.6,1.4,2.6,2.7    c0,0.8-0.4,1.5-1.1,1.9c-0.8,0.5-1.8,0.7-3,0.7c-1.5,0-2.8-0.3-3.7-0.9c-0.9-0.6-1.4-1.4-1.4-2.3c0-0.7,0.2-1.3,0.6-1.7    c0.4-0.4,1-0.7,1.8-0.8c-0.3-0.4-0.4-0.9-0.4-1.4c0-0.5,0.2-1,0.7-1.4c0.1-0.1,0.1-0.1,0.1-0.2l-0.1-0.2c-0.7-0.8-1-1.8-1-2.9    c0-1.1,0.4-2.1,1.1-3c0.7-0.8,1.6-1.3,2.5-1.3c0.3,0,0.8,0.1,1.4,0.2c0.6,0.1,1,0.2,1.3,0.2c0.4,0,0.8-0.1,1.1-0.2l0.6-0.2    c0.1-0.1,0.3-0.1,0.4-0.1c0.1,0,0.2,0.1,0.4,0.2c0.1,0.1,0.2,0.3,0.2,0.4c0,0.2-0.1,0.4-0.3,0.6s-0.5,0.3-0.8,0.3    C373.9,113.2,373.3,113.1,372.6,112.8z M367.4,122.6c-0.5,0.1-0.9,0.3-1.1,0.7c-0.3,0.3-0.4,0.7-0.4,1.2c0,0.8,0.3,1.5,1,2.1    c0.7,0.5,1.6,0.8,2.6,0.8c0.9,0,1.6-0.1,2.2-0.4c0.5-0.3,0.8-0.7,0.8-1.2c0-0.7-0.6-1.3-1.9-1.7l-1.8-0.7    C368.3,123.1,367.8,122.9,367.4,122.6z M370,112.4c-0.6,0-1.1,0.4-1.5,1.1c-0.4,0.7-0.6,1.7-0.6,2.9c0,0.9,0.2,1.6,0.5,2.1    c0.3,0.5,0.7,0.8,1.3,0.8c0.6,0,1.2-0.4,1.6-1.1s0.6-1.7,0.6-2.8c0-0.9-0.2-1.6-0.5-2.1C371,112.7,370.6,112.4,370,112.4z"/>
		<linearGradient id="SVGID_30_" gradientUnits="userSpaceOnUse" x1="381.8243" y1="111.3709" x2="387.677" y2="121.5081">
			<stop offset="0" style="stop-color:#00418F"/>
			<stop offset="1" style="stop-color:#009B96"/>
		</linearGradient>
		<path class="st29" d="M384.6,113.7l-0.7,5.5c0,0.3,0,0.5,0,0.8c0,0.4,0.1,0.8,0.3,1.1c0.2,0.3,0.5,0.4,0.8,0.4    c0.6,0,1.2-0.3,1.8-1c0.2-0.2,0.3-0.3,0.4-0.3c0.1,0,0.2,0.1,0.2,0.2c0,0.5-0.4,1.1-1.3,1.7c-0.8,0.6-1.6,1-2.3,1    c-0.5,0-0.9-0.2-1.3-0.7c-0.3-0.5-0.5-1.1-0.5-1.9c0-0.4,0-0.8,0.1-1.4l0.6-5.2c0-0.2,0.1-0.4,0.1-0.5c0-0.1,0-0.1,0-0.2    c0-0.2-0.2-0.3-0.5-0.3h-0.8c-0.2,0-0.3-0.1-0.3-0.2c0-0.2,0.2-0.4,0.6-0.6c1-0.5,1.8-1.3,2.4-2.2c0.1-0.2,0.3-0.4,0.5-0.4    c0.2,0,0.3,0.1,0.3,0.3c0,0.1,0,0.2-0.1,0.4c0,0.1-0.1,0.2-0.1,0.5l-0.1,0.5l-0.1,0.4c0,0.1,0,0.1,0,0.2c0,0.2,0.2,0.3,0.5,0.3    h0.1l1.9-0.1c0.3,0,0.5,0.1,0.5,0.4c0,0.4-0.2,0.6-0.7,0.6l-1.6-0.1h-0.2c-0.3,0-0.4,0-0.5,0.1    C384.7,113.2,384.7,113.4,384.6,113.7z"/>
		<linearGradient id="SVGID_31_" gradientUnits="userSpaceOnUse" x1="386.1457" y1="105.6467" x2="396.5249" y2="123.6241">
			<stop offset="0" style="stop-color:#00418F"/>
			<stop offset="1" style="stop-color:#009B96"/>
		</linearGradient>
		<path class="st30" d="M391.3,114.3c1.4-1.6,2.7-2.4,3.9-2.4c0.7,0,1.2,0.3,1.6,0.8c0.4,0.5,0.6,1.2,0.6,2.1c0,0.4,0,0.7,0,0.9    l-0.4,3.5c0,0.4-0.1,0.8-0.1,1.2c0,0.8,0.2,1.2,0.6,1.2c0.6,0,1.2-0.5,1.7-1.4c0.1-0.2,0.2-0.3,0.4-0.3c0.1,0,0.2,0.1,0.2,0.2    c0,0.4-0.3,1-0.8,1.7c-0.7,1-1.6,1.5-2.5,1.5c-0.8,0-1.2-0.9-1.2-2.6c0-0.3,0-0.7,0-1.2l0.3-3.8c0-0.3,0-0.6,0-0.8    c0-1.1-0.4-1.6-1.3-1.6c-0.8,0-1.6,0.3-2.3,1c-0.6,0.6-1,1.5-1.2,2.8l-0.7,5.5l0,0.2c0,0.4-0.3,0.5-0.9,0.5    c-0.5,0-0.7-0.1-0.7-0.4v-0.1l0-0.2l2.1-16.8c0-0.4,0.1-0.6,0.1-0.8c0-0.3-0.2-0.5-0.8-0.5h-0.7c-0.4,0-0.6-0.1-0.5-0.3    c0-0.2,0.2-0.3,0.5-0.3c1-0.1,1.8-0.1,2.3-0.2c0.3-0.1,0.5-0.1,0.6-0.1c0.2,0,0.3,0.1,0.3,0.3c0,0,0,0.1,0,0.2L391.3,114.3z"/>
		<linearGradient id="SVGID_32_" gradientUnits="userSpaceOnUse" x1="401.9074" y1="113.454" x2="406.9553" y2="122.1972">
			<stop offset="0" style="stop-color:#00418F"/>
			<stop offset="1" style="stop-color:#009B96"/>
		</linearGradient>
		<path class="st31" d="M401.5,117.7c0,0.4-0.1,0.7-0.1,1c0,0.9,0.3,1.7,0.9,2.4c0.6,0.7,1.4,1,2.3,1c1.1,0,2-0.3,2.7-1    c0.2-0.2,0.4-0.3,0.4-0.3c0.1,0,0.2,0.1,0.2,0.3c0,0.3-0.3,0.7-1,1.2c-1,0.8-2.2,1.2-3.5,1.2c-1.1,0-2-0.3-2.7-1.1    c-0.7-0.7-1-1.7-1-2.9c0-1.8,0.6-3.6,1.8-5.2c1.2-1.6,2.6-2.4,4-2.4c0.7,0,1.3,0.2,1.7,0.6c0.4,0.4,0.7,0.9,0.7,1.5    c0,1.1-0.7,2-2.2,2.9C404.8,117.4,403.4,117.7,401.5,117.7z M401.6,117.2c1.4,0,2.5-0.3,3.5-1c0.9-0.6,1.4-1.4,1.4-2.4    c0-0.9-0.4-1.3-1.3-1.3c-0.8,0-1.5,0.5-2.3,1.4C402.3,114.7,401.8,115.8,401.6,117.2z"/>
		<linearGradient id="SVGID_33_" gradientUnits="userSpaceOnUse" x1="423.4532" y1="99.9191" x2="435.1604" y2="120.1966">
			<stop offset="0" style="stop-color:#00418F"/>
			<stop offset="1" style="stop-color:#009B96"/>
		</linearGradient>
		<path class="st32" d="M428.3,112.9l0.8,2.9c0.1,0.4,0.2,0.7,0.3,1.1l0.4,1.1l0.4,1.2c0.1,0.3,0.2,0.5,0.2,0.5    c0,0.1,0.1,0.2,0.2,0.2c0.1,0,0.8-1.2,2.1-3.5c1.3-2.4,2.4-4.6,3.3-6.6c0.5-1.2,0.9-1.9,1.1-2.2c0.4-0.8,0.6-1.4,0.6-1.8    c0-0.2-0.1-0.5-0.4-0.6c-0.2-0.2-0.5-0.3-0.9-0.3c-0.5,0-0.7-0.1-0.7-0.3c0-0.2,0.1-0.3,0.4-0.3c0.1,0,0.3,0,0.6,0.1    c0.4,0,1,0.1,1.6,0.1c0.6,0,1.1,0,1.6-0.1l0.4,0l0.2,0l0.2,0c0.3,0,0.4,0.1,0.4,0.3c0,0.2-0.1,0.3-0.4,0.3c-0.6,0.1-1,0.4-1.4,0.9    c-0.4,0.5-1.1,1.9-2.2,4.1c-2.1,4.3-3.8,7.7-5.1,10l-1.6,2.8c-0.3,0.5-0.5,0.8-0.7,0.8c-0.1,0-0.3-0.2-0.4-0.7    c-0.1-0.3-0.2-0.8-0.4-1.3c-0.4-1.4-0.8-2.5-1-3.4l-0.7-2.6l-2.4,4.4c-0.2,0.4-0.5,0.8-0.7,1.3c-0.3,0.6-0.5,0.9-0.6,1l-0.4,0.6    c-0.3,0.5-0.5,0.7-0.7,0.7c-0.2,0-0.3-0.3-0.4-0.8l-4.1-16c-0.1-0.6-0.3-1-0.5-1.2c-0.2-0.2-0.5-0.4-0.9-0.4    c-0.3,0-0.5-0.1-0.5-0.3c0-0.2,0.2-0.4,0.5-0.4h0.2l0.2,0l0.3,0l0.4,0c0.2,0,0.6,0,1.2,0c0.6,0,1.2,0,1.6-0.1l0.4,0l0.2,0    c0.1,0,0.1,0,0.2,0c0.2,0,0.3,0.1,0.3,0.3c0,0.2-0.2,0.3-0.5,0.3c-0.7,0.1-1,0.5-1,1.2c0,0.4,0.1,1.1,0.4,2.3l2.8,10.8l0.1,0.4    c0.1,0.3,0.1,0.4,0.2,0.4c0.1,0,0.2-0.2,0.4-0.5c0.1-0.1,0.1-0.2,0.2-0.3l0.3-0.5l2.5-4.6l-1.8-7.1c-0.3-1.3-0.9-2-1.6-2.1    c-0.4-0.1-0.7-0.2-0.7-0.4c0-0.2,0.1-0.3,0.4-0.3c0.1,0,0.2,0,0.4,0c0.6,0.1,1.2,0.1,1.9,0.1c0.6,0,1.1,0,1.5-0.1l0.4,0l0.2,0    l0.2,0c0.3,0,0.4,0.1,0.4,0.3c0,0.1-0.1,0.2-0.2,0.2c-0.7,0.1-1,0.6-1,1.2c0,0.4,0.1,1,0.3,1.7l0.3,1.1l0.7,2.7l1.6-3.2    c0.6-1.2,0.9-2.1,0.9-2.6c0-0.3-0.1-0.5-0.3-0.7c-0.2-0.2-0.5-0.3-0.8-0.3c-0.4,0-0.6-0.1-0.6-0.3c0-0.2,0.1-0.3,0.4-0.3    c0.1,0,0.2,0,0.4,0c0.5,0.1,1.1,0.1,1.8,0.1c0.6,0,1,0,1.4-0.1l0.3,0l0.2,0l0.2,0c0.2,0,0.3,0.1,0.3,0.3c0,0.1-0.2,0.3-0.6,0.3    c-0.3,0-0.5,0.2-0.8,0.5c-0.2,0.3-0.5,0.7-0.9,1.4l-0.6,1.2L428.3,112.9z"/>
		<linearGradient id="SVGID_34_" gradientUnits="userSpaceOnUse" x1="439.4058" y1="113.0373" x2="444.6167" y2="122.063">
			<stop offset="0" style="stop-color:#00418F"/>
			<stop offset="1" style="stop-color:#009B96"/>
		</linearGradient>
		<path class="st33" d="M442.7,111.9c1.2,0,2.2,0.4,2.9,1.2s1.1,1.9,1.1,3.3c0,1.9-0.5,3.6-1.6,4.9c-1.1,1.4-2.4,2-3.9,2    c-1.2,0-2.1-0.4-2.8-1.3c-0.7-0.9-1.1-2-1.1-3.4c0-1,0.2-2,0.6-3.1c0.4-1,1-1.9,1.6-2.5C440.4,112.3,441.5,111.9,442.7,111.9z     M442.8,112.5c-1,0-1.9,0.6-2.6,1.8c-0.7,1.2-1.1,2.6-1.1,4.4c0,2.6,0.8,3.8,2.3,3.8c0.9,0,1.8-0.6,2.4-1.9c0.7-1.3,1-2.8,1-4.5    C444.9,113.7,444.2,112.5,442.8,112.5z"/>
		<linearGradient id="SVGID_35_" gradientUnits="userSpaceOnUse" x1="449.0879" y1="112.1653" x2="454.1998" y2="121.0194">
			<stop offset="0" style="stop-color:#00418F"/>
			<stop offset="1" style="stop-color:#009B96"/>
		</linearGradient>
		<path class="st34" d="M451.1,114.8c1-1.9,2.1-2.8,3.2-2.8c0.6,0,1,0.2,1,0.7c0,0.1,0,0.3-0.1,0.4c-0.1,0.2-0.1,0.3-0.1,0.4    l-0.2,0.7c-0.1,0.3-0.2,0.5-0.4,0.5c-0.1,0-0.2-0.1-0.3-0.3c-0.2-0.5-0.5-0.8-1-0.8c-0.4,0-0.8,0.5-1.1,1.4    c-0.3,0.9-0.6,2.4-0.8,4.5l-0.4,3.2l0,0.2c0,0.4-0.3,0.5-0.9,0.5c-0.5,0-0.7-0.1-0.7-0.4c0-0.1,0-0.1,0-0.2l0.7-5.4    c0-0.3,0.1-0.7,0.1-1.1c0-1.4-0.3-2-0.9-2c-0.3,0-0.5,0.2-0.8,0.5c-0.2,0.3-0.4,0.7-0.4,1.1c0,0.4-0.2,0.5-0.3,0.5    c-0.2,0-0.3-0.2-0.3-0.7c0-0.9,0.2-1.7,0.7-2.3c0.2-0.3,0.5-0.5,0.8-0.8c0.3-0.2,0.6-0.3,0.8-0.3    C450.1,112,450.6,112.9,451.1,114.8z"/>
		<linearGradient id="SVGID_36_" gradientUnits="userSpaceOnUse" x1="453.4043" y1="105.4837" x2="462.1208" y2="120.5811">
			<stop offset="0" style="stop-color:#00418F"/>
			<stop offset="1" style="stop-color:#009B96"/>
		</linearGradient>
		<path class="st35" d="M456,119.7l1.7-14c0-0.4,0.1-0.6,0.1-0.7c0-0.3-0.2-0.5-0.8-0.5h-0.7c-0.4,0-0.6-0.1-0.5-0.3    c0-0.2,0.2-0.3,0.5-0.3c1.1-0.1,1.8-0.1,2.3-0.2c0.3-0.1,0.5-0.1,0.6-0.1c0.2,0,0.3,0.1,0.3,0.3l0,0.2l-1.9,15.9    c0,0.3-0.1,0.6-0.1,0.7c0,0.5,0.2,0.8,0.5,0.8c0.3,0,0.6-0.2,1-0.5c0.3-0.3,0.7-0.7,0.9-1.2c0.1-0.2,0.2-0.3,0.3-0.3    c0.2,0,0.3,0.1,0.3,0.3c0,0.1-0.1,0.4-0.3,0.8c-0.2,0.4-0.4,0.7-0.7,1c-0.3,0.4-0.8,0.8-1.2,1.1c-0.5,0.3-0.9,0.4-1.2,0.4    c-0.8,0-1.2-0.7-1.2-2.2C455.9,120.6,456,120.2,456,119.7z"/>
		<linearGradient id="SVGID_37_" gradientUnits="userSpaceOnUse" x1="462.4467" y1="106.8471" x2="471.2383" y2="122.0744">
			<stop offset="0" style="stop-color:#00418F"/>
			<stop offset="1" style="stop-color:#009B96"/>
		</linearGradient>
		<path class="st36" d="M467.2,120.5c-1,1.9-2.3,2.9-3.9,2.9c-0.9,0-1.6-0.3-2.1-0.9c-0.5-0.6-0.7-1.5-0.7-2.6c0-2,0.6-3.7,1.9-5.4    c1.2-1.6,2.6-2.4,4.1-2.4c0.5,0,1.1,0.2,1.7,0.5l0.8-6.7c0-0.4,0.1-0.6,0.1-0.8c0-0.3-0.2-0.5-0.7-0.5h-0.7    c-0.4,0-0.5-0.1-0.5-0.3c0-0.2,0.2-0.3,0.5-0.3c1-0.1,1.8-0.1,2.2-0.2c0.3-0.1,0.5-0.1,0.6-0.1c0.2,0,0.3,0.1,0.3,0.3    c0,0.1,0,0.1,0,0.2l-1.8,15c-0.1,0.6-0.1,1-0.1,1.4c0,0.8,0.2,1.2,0.7,1.2c0.5,0,1-0.4,1.5-1.2l0.2-0.4c0.1-0.1,0.2-0.2,0.3-0.2    c0.1,0,0.2,0.1,0.2,0.2c0,0.4-0.3,1-0.8,1.7c-0.7,0.9-1.4,1.4-2.2,1.4c-0.5,0-0.8-0.1-1-0.4c-0.2-0.3-0.4-0.8-0.5-1.6    C467.3,121,467.3,120.7,467.2,120.5z M467.6,117.6l0.4-3.5c0-0.2,0-0.3,0-0.4c0-0.7-0.6-1.1-1.7-1.1c-0.9,0-1.7,0.5-2.4,1.4    c-0.5,0.6-1,1.5-1.3,2.5c-0.4,1-0.5,2-0.5,2.8c0,0.8,0.2,1.5,0.6,2c0.4,0.5,0.9,0.7,1.5,0.7c0.9,0,1.6-0.4,2.3-1.2    C467.1,120,467.4,119,467.6,117.6z"/>
		<linearGradient id="SVGID_38_" gradientUnits="userSpaceOnUse" x1="473.2046" y1="120.6012" x2="474.5048" y2="122.8533">
			<stop offset="0" style="stop-color:#00418F"/>
			<stop offset="1" style="stop-color:#009B96"/>
		</linearGradient>
		<path class="st37" d="M473.9,120.2c0.1,0,0.3,0.1,0.4,0.2l0.4,0.5c0.1,0.1,0.3,0.3,0.5,0.4c0.1,0.1,0.2,0.2,0.2,0.3    c0,0.1-0.1,0.2-0.3,0.3c-0.5,0.4-0.9,0.8-1.1,1c-0.1,0.2-0.3,0.3-0.4,0.3c-0.1,0-0.2-0.1-0.3-0.3c-0.2-0.3-0.5-0.6-0.8-0.9    c-0.2-0.1-0.2-0.3-0.2-0.4c0-0.1,0.1-0.3,0.3-0.4c0.2-0.2,0.4-0.3,0.5-0.4l0.4-0.4C473.7,120.3,473.8,120.2,473.9,120.2z"/>
	</g>
</g>
</svg>