<?xml version="1.0" encoding="UTF-8"?>
<!-- Generator: Adobe Illustrator 21.0.2, SVG Export Plug-In . SVG Version: 6.00 Build 0)  -->
<svg version="1.1" id="圖層_1" xmlns="http://www.w3.org/2000/svg" xmlns:xlink="http://www.w3.org/1999/xlink" x="0px" y="0px" width="164.8px" height="26.8px" viewBox="0 0 164.8 26.8" style="enable-background:new 0 0 164.8 26.8;" xml:space="preserve">
<style type="text/css">
	.st0{fill:#FFFFFF;}
</style>
<g>
	<g>
		<path class="st0" d="M10.5,13.4v13.4H8v-1.8H2.5v1.8H0V13.4H10.5z M2.5,22.7H8v-7H2.5V22.7z M3,1.4h18.7V11H3V1.4z M19,8.5V3.8    H5.8v4.7H19z M24.3,13.4v13.4h-2.5v-1.8h-6.1v1.8h-2.5V13.4H24.3z M15.7,22.7h6.1v-7h-6.1V22.7z"/>
		<path class="st0" d="M43.2,22.4l1.4,1.8c-1.6,0.6-3,1-4.2,1.3c-1.4,0.3-3.2,0.7-5.4,1l-1.3-2.4c2.1-0.2,4-0.5,5.6-0.8    C40.7,23.1,42,22.8,43.2,22.4z M45.2,0.2l1.3,2.3c-2.5,0.2-5.2,0.4-8.3,0.4v0.9c0,0.2,0,0.4-0.1,0.6h8.8v2.2h-3.3v3.1h3.8    l-1.2-1.2c0.7-0.6,1.2-1.2,1.5-1.8C48,6,48.2,5.2,48.3,4.4V1c3.9,0,7.2-0.3,9.7-0.8l1.2,2.3c-2.6,0.3-5.4,0.5-8.6,0.5v1.4h9v2    h-3.9v3.2h1.2v12.4H37V9.6h4.2V6.5h-3.3c-0.1,0.5-0.2,1-0.3,1.5c-0.4,1.3-1,2.5-1.9,3.6l-1.8-1.9c0.7-0.8,1.2-1.7,1.5-2.6    c0.3-1,0.5-2.1,0.6-3.3V0.9C39.6,0.9,42.7,0.7,45.2,0.2z M39.4,13.3h15.2v-1.6H39.4V13.3z M39.4,16.7h15.2V15H39.4V16.7z M54.6,20    v-1.7H39.4V20H54.6z M48.7,9.6h4.7V6.4h-3c-0.1,0.4-0.2,0.8-0.4,1.1C49.7,8.3,49.2,9,48.7,9.6z M50.2,22.4c3.1,0.4,6.3,1.1,9.7,2    l-1,2.5c-3.1-1-6.4-1.8-9.9-2.3L50.2,22.4z"/>
		<path class="st0" d="M84.1,15.7h-4.4v-4.5h4.4V15.7z"/>
		<path class="st0" d="M103.5,5.7h3V0.2h2.5v5.5h2.2V8h-2.2v1.6c1.1,1.3,2.1,2.7,3.1,4.2l-0.5,0.7h2.4c0-0.7,0.1-1.3,0.1-2.1    c-0.6,0.1-1.3,0.2-1.9,0.2l-0.4-2c0.5,0,0.9,0,1.3-0.1c0.6-0.9,1.3-2,1.9-3.1c-1,0.2-2,0.4-3.1,0.6l-0.4-1.9    c0.4,0,0.7-0.1,1.1-0.1c0.9-1.7,1.6-3.5,2-5.5l2.1,0.2c-0.5,1.8-1.1,3.4-1.9,4.9c0.5-0.1,0.9-0.2,1.2-0.3c0.4-0.7,0.7-1.5,1-2.3    l2,0.7c-1.2,2.7-2.5,4.9-3.7,6.6c0.7-0.1,1.3-0.1,2-0.2c-0.1-0.5-0.3-1.1-0.5-1.6l1.5-0.3c0.6,1.6,1.1,3,1.5,4.3l-1.8,0.7    c-0.1-0.5-0.2-0.9-0.3-1.3c-0.4,0.1-0.8,0.1-1.2,0.2c0,0.8,0,1.6-0.1,2.4h3.7c-0.5-3-0.7-7.8-0.9-14.4h2.3    c0.2,6.8,0.5,11.6,0.8,14.4h2.7c-0.2-0.6-0.4-1.2-0.7-1.8c-0.5,0.1-1,0.1-1.6,0.2l-0.5-2c0.5,0,0.9,0,1.3,0    c0.6-0.9,1.3-2.1,1.9-3.4c-1,0.2-2,0.4-3.1,0.6l-0.5-1.9c0.4,0,0.7-0.1,1-0.1c0.8-1.7,1.4-3.5,1.8-5.5l2,0.2    c-0.4,1.8-0.9,3.5-1.7,5c0.5-0.1,0.9-0.1,1.3-0.2c0.3-0.6,0.6-1.2,0.8-1.9l1.9,0.7c-1.1,2.6-2.2,4.7-3.4,6.4    c0.7-0.1,1.3-0.2,1.8-0.4c-0.1-0.5-0.3-1-0.4-1.5l1.5-0.3c0.6,1.5,1.1,2.9,1.4,4.2l-1.8,0.7c-0.1-0.4-0.2-0.9-0.3-1.3    c-0.4,0.1-0.9,0.2-1.4,0.3c0.3,0.6,0.5,1.3,0.8,2.1h2.7v2.2h-7.2c0.3,1.2,0.6,2.3,0.9,3.3c0.6-0.8,1.3-1.6,1.9-2.6l2,1    c-0.8,1.5-1.8,2.7-2.8,3.8c0.9,1.5,1.7,2.3,2.4,2.3c0.2,0,0.3-0.1,0.3-0.3c0.1-0.3,0.2-1.5,0.3-3.8l2.3,1.2    c-0.3,2.2-0.7,3.6-1.1,4.3c-0.4,0.6-1,0.9-1.7,0.9c-1.2,0-2.5-1-4-3.1l0-0.1c-1.3,1.1-3.1,2-5.3,2.9l-1.2-2    c2.1-0.8,3.8-1.7,5.2-2.7c0.1-0.1,0.2-0.1,0.3-0.2c-0.6-1.4-1.2-3-1.6-4.9h-4.3c0,0.4-0.1,0.7-0.1,1c1.4,0.9,2.7,1.9,3.8,3l-1.4,2    c-1-1.1-1.9-2-2.9-2.7c-0.4,1.5-0.8,2.7-1.4,3.6c-0.6,1-1.5,2.1-2.6,3.2l-1.7-2.2c1.2-1.1,2.1-2.2,2.7-3.2    c0.5-0.8,0.9-2.2,1.2-4.1c0-0.2,0.1-0.4,0.1-0.6h-2.9v-1.4l-0.5,0.7c-0.7-1.3-1.2-2.4-1.7-3.2v14h-2.5V14.3    c-0.7,1.9-1.5,3.6-2.4,5.1l-1-2.8c1.3-2.3,2.5-4.9,3.4-7.8V8h-3V5.7z"/>
		<path class="st0" d="M142.9,0l2.8,0.9c-0.8,1.8-1.6,3.4-2.5,4.8c1.9-0.1,3.5-0.2,4.9-0.3c-0.5-0.7-1.1-1.4-1.7-2.1l1.8-1.1    c1.9,2,3.5,3.7,4.5,5.2l-2.2,1.4c-0.2-0.4-0.5-0.8-0.7-1.1c-2.5,0.4-6.3,0.7-11.3,0.9l-0.8-2.8c0.9,0,1.7,0,2.5,0    C141.3,4,142.2,2.1,142.9,0z M150.7,9.9v13.8c0,0.9-0.2,1.6-0.7,2.1c-0.4,0.4-1,0.7-1.7,0.7h-2.8l-0.5-2.5l2.5,0.1    c0.5,0,0.8-0.4,0.8-1v-1.5h-6.5v5.3h-2.5v-17H150.7z M141.7,14.7h6.5v-2.4h-6.5V14.7z M141.7,19.4h6.5v-2.5h-6.5V19.4z M153,0.3    h2.8v4.2c2.9-0.8,5.4-1.7,7.5-2.7l1.5,2c-2.6,1.3-5.6,2.4-8.9,3.2v1.7c0,0.6,0.3,0.9,1,0.9h4c0.4,0,0.6-0.1,0.8-0.3    c0.2-0.2,0.4-1.2,0.5-3l2.6,0.8c-0.2,2.4-0.6,3.9-1.1,4.3c-0.5,0.5-1.3,0.7-2.4,0.7h-5.3c-0.8,0-1.5-0.2-2-0.7    c-0.5-0.5-0.8-1.1-0.8-1.9V0.3z M153,13h2.8v4.4c2.9-0.8,5.4-1.8,7.5-2.9l1.6,2.3c-2.6,1.3-5.6,2.4-9,3.4v2.6c0,0.6,0.3,0.9,1,0.9    h4.5c0.2,0,0.4-0.1,0.5-0.3c0.1-0.2,0.2-1.2,0.3-2.9l2.6,0.8c-0.2,2.4-0.5,3.8-1,4.2c-0.4,0.4-1.1,0.6-2.1,0.6h-5.9    c-0.8,0-1.5-0.2-2-0.7c-0.5-0.5-0.8-1.1-0.8-1.8V13z"/>
	</g>
</g>
</svg>