<?xml version="1.0" encoding="UTF-8"?>
<!-- Generator: Adobe Illustrator 21.0.2, SVG Export Plug-In . SVG Version: 6.00 Build 0)  -->
<svg version="1.1" id="圖層_1" xmlns="http://www.w3.org/2000/svg" xmlns:xlink="http://www.w3.org/1999/xlink" x="0px" y="0px" width="284.6px" height="209.5px" viewBox="0 0 284.6 209.5" style="enable-background:new 0 0 284.6 209.5;" xml:space="preserve">
<style type="text/css">
	.st0{fill:#FFFFFF;}
</style>
<g>
	<path class="st0" d="M105.6,25.1H92.5v-2h3.4c-0.4-1.3-0.9-2.5-1.5-3.6l1.7-1h-3v-2.1h5.1c-0.3-0.7-0.6-1.4-1.1-2.1l2.3-0.6   c0.4,0.6,0.8,1.5,1.2,2.7h4.6v2.1h-2.6l1.6,0.9c-0.4,1-0.9,2.3-1.6,3.8h3C105.6,23.2,105.6,25.1,105.6,25.1z M104.3,36.4h-2.2v-1.5   h-5.8v1.5H94v-9.5h10.3V36.4z M102,32.9V29h-5.8v3.9H102z M102.1,18.4h-5.7c0.7,1.5,1.3,3.1,1.8,4.7h2   C101.2,21.1,101.8,19.6,102.1,18.4z M112.5,23.2c1.6,2.4,2.3,4.6,2.3,6.6c0,1-0.2,1.8-0.5,2.3c-0.3,0.6-0.8,1-1.3,1.2   c-0.5,0.2-1.5,0.3-3,0.2l-0.6-2.2c0.7,0.1,1.4,0.1,2.2,0.1c0.3,0,0.5-0.1,0.7-0.3c0.2-0.2,0.3-0.7,0.3-1.4c0-1.9-0.8-3.9-2.4-6   c0.8-2.1,1.5-4.5,2.2-7h-3.5v19.8h-2.2v-22h7.9v2.1C114,18.9,113.3,21.1,112.5,23.2z"/>
	<path class="st0" d="M128.4,25h-7.1v11.4H119v-22h9.4V25z M126.1,18.6v-2.1h-4.8v2.1H126.1z M126.1,22.9v-2.3h-4.8v2.3H126.1z    M139.9,34.4c0,0.7-0.3,1.2-0.8,1.5s-2,0.5-4.4,0.5l-0.8-2.3c1.7,0,2.7,0,3.1,0s0.5-0.2,0.5-0.5V25h-7.1V14.5h9.4v19.9H139.9z    M137.6,18.6v-2.1h-4.8v2.1H137.6z M137.6,22.9v-2.3h-4.8v2.3H137.6z"/>
	<path class="st0" d="M166.7,21.8l-1.2,2.1c-4.2-1.8-7.6-4.3-10.2-7.4c-2.5,2.9-5.9,5.3-10.2,7.2l-1.4-2c4.6-1.9,8.3-4.6,11-8.1   l2.3,0.6c-0.1,0.2-0.2,0.4-0.3,0.6C159.3,17.8,162.6,20.1,166.7,21.8z M151.7,23.3c0,2.5-0.1,4.5-0.3,5.8s-0.6,2.6-1.4,3.9   c-0.8,1.3-1.9,2.5-3.5,3.7l-1.8-1.7c1.5-1.1,2.5-2.1,3.2-3.2c0.7-1,1.1-2.2,1.3-3.3c0.2-1.2,0.3-2.9,0.3-5.2   C149.5,23.3,151.7,23.3,151.7,23.3z M161.2,36.5h-2.4V23.4h2.4V36.5z"/>
	<path class="st0" d="M173.2,30.5c-0.4,2.4-1,4.4-1.7,6.1l-1.9-1c0.6-1.5,1.1-3.3,1.5-5.6L173.2,30.5z M179.7,18.6   c-2,3.4-4,6.1-6.1,8.2c0.9-0.2,1.9-0.4,3-0.7c-0.1-0.4-0.3-0.8-0.5-1.1l1.9-0.8c0.7,1.2,1.2,2.6,1.6,4.2l-1.9,0.8l-0.3-1.2   c-2.2,0.6-4.6,1.1-7.1,1.5l-0.5-2c1.6-1.2,3.2-2.9,4.7-4.9l-4,0.5l-0.5-2c1.8-1.7,3.4-4.1,4.7-7.3l2.2,0.8c-1.1,2.4-2.5,4.4-4,6.1   c1-0.1,2-0.2,3.1-0.4c0.6-0.8,1.1-1.7,1.6-2.6L179.7,18.6z M176.5,35.5l-2,0.6c0-1.6-0.3-3.5-0.7-5.5l1.9-0.4   C176.1,31.7,176.3,33.5,176.5,35.5z M179.9,34.4l-1.8,0.7c-0.3-1.5-0.8-3.1-1.4-4.8l1.9-0.5C179.1,31.2,179.5,32.7,179.9,34.4z    M192,14.5c0,1.7-0.1,3.5-0.3,5.2s-0.3,2.7-0.4,3.1c-0.1,0.4-0.3,0.7-0.6,1s-0.8,0.5-1.4,0.6c-0.6,0.1-1.5,0.1-2.7,0.1l-0.8-2.3   c0.4,0,1.3,0,2.7,0c0.3,0,0.6-0.2,0.7-0.6c0.1-0.4,0.3-2,0.4-4.7h-3.7c-0.4,3.7-2.2,6.5-5.5,8.3l-1.6-1.6c1.3-0.6,2.4-1.5,3.3-2.7   c0.9-1.2,1.4-2.5,1.5-3.9h-4.3v-2.2H192V14.5z M191.3,36.5H189v-1.3h-6.2v1.3h-2.3V25.8h10.8V36.5z M189,33v-4.9h-6.2V33H189z"/>
</g>
<g>
	<path class="st0" d="M12.2,104.7l-0.6,1.1c-2.2-1-4-2.3-5.4-3.9c-1.3,1.5-3.1,2.8-5.4,3.8L0,104.6c2.4-1,4.4-2.4,5.8-4.3l1.2,0.3   c0,0.1-0.1,0.2-0.2,0.3C8.2,102.6,10,103.8,12.2,104.7z M4.2,105.5c0,1.3,0,2.4-0.1,3.1c-0.1,0.7-0.3,1.4-0.7,2   c-0.4,0.7-1,1.3-1.9,2l-1-0.9c0.8-0.6,1.3-1.1,1.7-1.7c0.3-0.6,0.6-1.1,0.7-1.8c0.1-0.6,0.1-1.5,0.1-2.7H4.2z M9.3,112.5H8v-6.9   h1.3V112.5z"/>
	<path class="st0" d="M15.6,109.3c-0.2,1.3-0.5,2.3-0.9,3.2l-1-0.5c0.3-0.8,0.6-1.8,0.8-2.9L15.6,109.3z M19.1,103   c-1.1,1.8-2.1,3.2-3.2,4.3c0.5-0.1,1-0.2,1.6-0.4c-0.1-0.2-0.2-0.4-0.3-0.6l1-0.4c0.4,0.7,0.6,1.4,0.8,2.2l-1,0.4l-0.2-0.6   c-1.2,0.3-2.4,0.6-3.8,0.8l-0.3-1.1c0.8-0.6,1.7-1.5,2.5-2.6l-2.1,0.3l-0.2-1.1c0.9-0.9,1.8-2.2,2.5-3.9l1.2,0.4   c-0.6,1.3-1.3,2.3-2.1,3.2c0.5,0,1.1-0.1,1.6-0.2c0.3-0.4,0.6-0.9,0.8-1.4L19.1,103z M17.4,111.9l-1.1,0.3c0-0.9-0.1-1.8-0.4-2.9   l1-0.2C17.1,109.9,17.3,110.9,17.4,111.9z M19.2,111.3l-0.9,0.4c-0.1-0.8-0.4-1.6-0.8-2.5l1-0.3C18.7,109.7,19,110.5,19.2,111.3z    M25.6,100.8c0,0.9,0,1.8-0.1,2.7c-0.1,0.9-0.2,1.4-0.2,1.6c-0.1,0.2-0.2,0.4-0.3,0.5c-0.2,0.2-0.4,0.3-0.7,0.3   c-0.3,0-0.8,0.1-1.4,0l-0.4-1.2c0.2,0,0.7,0,1.4,0c0.2,0,0.3-0.1,0.4-0.3c0.1-0.2,0.1-1,0.2-2.5h-2c-0.2,2-1.2,3.4-2.9,4.4   l-0.9-0.9c0.7-0.3,1.3-0.8,1.7-1.4c0.5-0.6,0.7-1.3,0.8-2.1h-2.2v-1.2H25.6z M25.2,112.5H24v-0.7h-3.3v0.7h-1.2v-5.7h5.7V112.5z    M24,110.6V108h-3.3v2.6H24z"/>
	<path class="st0" d="M38.1,112.4h-1.2v-0.7H30v0.7h-1.2v-11.5h9.4V112.4z M36.9,104.1V102H30v2.1H36.9z M36.9,107.3v-2.1H30v2.1   H36.9z M36.9,110.6v-2.2H30v2.2H36.9z"/>
	<path class="st0" d="M47.1,111.1c0,0.4-0.1,0.6-0.2,0.8c-0.1,0.2-0.3,0.3-0.5,0.4c-0.2,0.1-0.6,0.1-1.1,0.1c-0.3,0-0.5,0-0.7,0   l-0.4-1.2c0.2,0,0.4,0,0.6,0c0.5,0,0.9,0,1-0.1c0.2,0,0.2-0.1,0.2-0.3v-1.4h-2.6c-0.2,1.3-0.6,2.2-1.2,2.9l-1-0.6   c0.8-0.8,1.2-2.2,1.2-4.3V104h4.8V111.1z M53.1,103.2H41.2V102h11.9V103.2z M46.3,101.3l-1.3,0.6c-0.5-0.3-1.2-0.6-2-0.9l1.3-0.6   C45,100.6,45.7,100.9,46.3,101.3z M45.9,106.2v-1.1h-2.5v1.1H45.9z M45.9,108.5v-1.2h-2.5v1.2H45.9z M51.1,100.9   c-0.7,0.4-1.4,0.7-1.9,0.9l-1.3-0.6c0.7-0.3,1.4-0.6,1.9-1L51.1,100.9z M49.6,110.1h-1.2v-5.9h1.2V110.1z M52.1,111   c0,0.6-0.1,0.9-0.4,1.1c-0.3,0.2-0.7,0.3-1.5,0.3c-0.3,0-0.6,0-0.9,0l-0.4-1.2h1.7c0.1,0,0.1,0,0.2-0.1c0.1-0.1,0.1-0.1,0.1-0.2   v-6.9h1.2V111z"/>
	<path class="st0" d="M59.1,109.4c-1.2,0.7-2.5,1.4-4,2.2l-0.4-1.1l1.7-0.8v-3.4H55v-1.1h1.4v-2.6h-1.6v-1.2H59v1.2h-1.5v2.6H59v1.1   h-1.4v2.8c0.6-0.3,1.1-0.6,1.5-0.8L59.1,109.4z M66.8,110.1c0,0.9-0.2,1.5-0.4,1.8s-0.7,0.4-1.5,0.4c-0.6,0-1-0.1-1.3-0.3   c-0.2-0.2-0.3-0.6-0.3-1.2v-2.4h-1.1c0,2.2-1.3,3.6-3.7,4.1l-0.6-1.1c1.1-0.2,1.9-0.6,2.4-1c0.5-0.5,0.7-1.1,0.7-2h-1.2v-7.6h6.4   v7.6h-1.7v2.4c0,0.1,0,0.2,0.1,0.3c0.1,0,0.2,0,0.4,0c0.2,0,0.4-0.1,0.4-0.2c0.1-0.1,0.1-0.6,0.2-1.3L66.8,110.1z M64.9,103v-1h-4   v1H64.9z M64.9,105.2v-1.1h-4v1.1H64.9z M64.9,107.3v-1.1h-4v1.1H64.9z"/>
	<path class="st0" d="M80.4,103h-6.6c-0.2,0.4-0.4,0.8-0.7,1.2h6.4v7.3c0,0.3-0.1,0.5-0.2,0.7c-0.2,0.2-0.4,0.3-0.7,0.3   c-0.3,0-0.7,0-1,0c-0.5,0-0.9,0-1.3,0l-0.5-1.2c0.6,0,1.3,0,2.2,0c0.2,0,0.3-0.1,0.3-0.3v-1.3h-6.1c-0.2,1-0.7,1.9-1.4,2.8   l-1.2-0.7c1-1.1,1.5-2.1,1.5-3v-2.2c-0.6,0.6-1.2,1.1-1.8,1.5l-0.9-0.9c1.6-1.1,2.9-2.5,3.9-4.2h-3.8v-1.2h4.4   c0.3-0.5,0.5-1,0.6-1.4l1.3,0.2c-0.1,0.3-0.3,0.7-0.5,1.1h6V103z M78.2,106.4v-1.1h-5.9v1.1H78.2z M78.2,108.6v-1.1h-5.9v1.1H78.2z   "/>
	<path class="st0" d="M89.1,106.5h-7v-1.1h1.8c-0.2-0.7-0.5-1.3-0.8-1.9l0.9-0.5h-1.6v-1.1h2.7c-0.1-0.4-0.3-0.7-0.6-1.1l1.2-0.3   c0.2,0.3,0.4,0.8,0.7,1.4h2.5v1.1h-1.4l0.9,0.5c-0.2,0.5-0.5,1.2-0.8,2h1.6V106.5z M88.4,112.4h-1.2v-0.8h-3.1v0.8h-1.2v-5h5.5   V112.4z M87.2,110.6v-2h-3.1v2H87.2z M87.2,102.9h-3c0.4,0.8,0.7,1.6,1,2.5h1.1C86.7,104.4,87.1,103.5,87.2,102.9z M92.7,105.4   c0.8,1.3,1.2,2.4,1.2,3.5c0,0.5-0.1,0.9-0.3,1.2c-0.2,0.3-0.4,0.5-0.7,0.6c-0.3,0.1-0.8,0.1-1.6,0.1l-0.3-1.2   c0.4,0,0.8,0.1,1.1,0.1c0.2,0,0.3-0.1,0.4-0.2c0.1-0.1,0.2-0.4,0.2-0.8c0-1-0.4-2.1-1.3-3.2c0.4-1.1,0.8-2.4,1.1-3.7h-1.9v10.5   h-1.1v-11.6h4.2v1.1C93.5,103.1,93.1,104.3,92.7,105.4z"/>
	<path class="st0" d="M101.1,106.4h-3.7v6h-1.2v-11.6h5V106.4z M99.9,103v-1.1h-2.5v1.1H99.9z M99.9,105.3v-1.2h-2.5v1.2H99.9z    M107.2,111.4c0,0.4-0.1,0.6-0.4,0.8s-1,0.3-2.3,0.3l-0.4-1.2c0.9,0,1.4,0,1.6,0c0.2,0,0.3-0.1,0.3-0.3v-4.5h-3.8v-5.6h5V111.4z    M106,103v-1.1h-2.6v1.1H106z M106,105.3v-1.2h-2.6v1.2H106z"/>
	<path class="st0" d="M115,108c-0.4-0.1-0.6-0.4-0.6-0.9c0-0.2,0.1-0.5,0.3-0.6c0.2-0.2,0.4-0.2,0.6-0.2c0.3,0,0.5,0.1,0.6,0.3   c0.2,0.2,0.2,0.4,0.2,0.7c0,0.5-0.4,1.1-1.2,1.7l-0.4-0.3C114.8,108.4,114.9,108.2,115,108z"/>
	<path class="st0" d="M128.4,105c-0.2,1.6-0.4,2.7-0.8,3.5l-1-0.6c0.2-0.6,0.4-1.2,0.5-1.8h-0.9v5.3c0,0.3-0.1,0.5-0.4,0.8   c-0.2,0.2-0.9,0.3-2.1,0.3l-0.3-1.2c0.7,0,1.1,0,1.3,0s0.3-0.1,0.3-0.3v-4.8h-1.9V105h2.1c-0.4-0.6-1-1.3-1.6-2.1l1-0.6   c0.3,0.3,0.5,0.6,0.7,0.9c0.5-0.5,0.8-1,1.1-1.3h-3v-1.2h4.4v1.2c-0.5,0.8-1.1,1.6-1.7,2.3c0.2,0.3,0.4,0.6,0.5,0.8H128.4z    M135,101.9h-2.6c-0.1,0.3-0.2,0.7-0.4,1.1h2.6v6.8h-3.8l0.6,0.6c-1,0.9-2,1.6-3,2.1l-0.8-1c0.8-0.3,1.6-0.9,2.6-1.7h-1.5V103h1.9   c0.1-0.3,0.3-0.7,0.4-1.1h-2.7v-1.1h6.7V101.9z M133.3,104.9v-0.8h-3.4v0.8H133.3z M133.3,106.8V106h-3.4v0.8H133.3z M133.3,108.7   v-0.8h-3.4v0.8H133.3z M135.2,111.5l-0.8,0.9c-0.8-0.6-1.7-1-2.5-1.4l0.7-1C133.6,110.5,134.4,111,135.2,111.5z"/>
	<path class="st0" d="M142.4,102.9h-5.7v-1.1h2.3c-0.1-0.4-0.3-0.8-0.5-1.1l1.3-0.2c0.2,0.4,0.4,0.8,0.6,1.3h2.1V102.9z    M141.8,104.9h-4.5v-1.1h4.5V104.9z M141.8,106.9h-4.5v-1.1h4.5V106.9z M141.8,112.3h-1.2v-0.7h-2.1v0.9h-1.2v-4.7h4.5V112.3z    M140.6,110.5v-1.6h-2.1v1.6H140.6z M148.6,105.5h-2.5v6.9h-1.2v-6.9h-2.4v-1.2h2.4v-3.8h1.2v3.8h2.5V105.5z"/>
	<path class="st0" d="M162.5,111.1l-0.5,1.3l-3.5,0c-1.4,0-2.5-0.1-3.1-0.4s-1.2-0.6-1.5-1c-1,0.6-2,1.1-2.8,1.5l-0.7-1   c2.7-1.4,4.8-2.7,6.3-3.9c1.5-1.2,2.7-2.6,3.6-4H151v-1.2h4.9c-0.2-0.5-0.5-1-0.8-1.6l1.2-0.5c0.4,0.7,0.8,1.4,1,2h4.4v1.2   c-1.3,2.5-3.6,4.7-6.8,6.8c0.2,0.2,0.6,0.4,1.2,0.6c0.6,0.1,1.1,0.2,1.8,0.2h1.4C160.6,111.2,161.7,111.2,162.5,111.1z"/>
	<path class="st0" d="M168.1,103.7c-0.3,0.5-0.8,1.2-1.3,2v6.7h-1.2v-5.4c-0.5,0.5-0.8,0.8-1,0.9l-0.6-1.1c1-0.7,2.1-1.9,3.1-3.7   L168.1,103.7z M167.6,101c-0.9,1.3-1.9,2.3-2.9,3.1L164,103c0.9-0.6,1.7-1.5,2.5-2.6L167.6,101z M176.1,111.5l-0.5,1.1   c-1.8-0.4-3.1-0.8-4-1.3c-0.8,0.4-2.1,0.8-4,1.2l-0.5-1.1c1.3-0.2,2.4-0.5,3.3-0.9c-0.4-0.3-0.8-0.7-1.3-1.2   c-0.3,0.2-0.7,0.5-1.2,0.9l-0.8-0.8c0.5-0.4,1-0.7,1.3-0.9l-0.5-0.8l0.9-0.6c0.1,0.2,0.2,0.3,0.4,0.5c0.3-0.3,0.5-0.6,0.8-1   c-0.9,0-1.6,0-2.1,0.1l-0.2-1.1c0.9-0.2,1.9-0.7,3.1-1.5c-0.5,0-1.3,0.1-2.4,0.1l-0.2-1c1.1-0.6,2.1-1.5,3.1-2.8l1.2,0.5   c-0.8,0.9-1.6,1.7-2.6,2.2c0.8,0,1.6-0.1,2.5-0.2c0.8-0.8,1.3-1.2,1.4-1.4l1.1,0.5c-1.6,1.6-3.4,2.8-5.3,3.6c0.9,0,2.2-0.2,3.9-0.4   c-0.1-0.2-0.3-0.4-0.6-0.7l1-0.6c0.9,1,1.5,1.8,1.9,2.5l-1,0.5c-0.1-0.2-0.3-0.5-0.5-0.8c-1,0.1-1.9,0.2-2.9,0.3   c-0.1,0.2-0.3,0.5-0.6,1h4v1.1c-0.6,0.8-1.3,1.5-2.1,2C173.9,111,175.1,111.3,176.1,111.5z M173.4,108.6H170c0.4,0.5,0.9,1,1.5,1.4   C172,109.8,172.6,109.3,173.4,108.6z"/>
	<path class="st0" d="M189.8,102.9l-0.5,1.1c-1.1-0.3-2.2-0.6-3.4-1.1v0.5h-4.5v-0.5c-1.1,0.5-2.2,0.9-3.3,1.2l-0.6-1   c2.7-0.7,4.7-1.6,6-2.7l1.3,0.3c-0.1,0.1-0.2,0.2-0.2,0.3C185.8,101.8,187.6,102.4,189.8,102.9z M188.6,107.5h-9.7v-3.5h9.7V107.5z    M188,112.4h-1.2v-0.5h-6.1v0.5h-1.2v-4.4h8.6V112.4z M183.1,106.5v-1.6H180v1.6H183.1z M182.5,105.8l-0.9,0.5   c-0.3-0.3-0.7-0.5-1.1-0.8l0.8-0.6C181.6,105.2,182,105.4,182.5,105.8z M186.8,109.6V109h-6.1v0.6H186.8z M186.8,111v-0.6h-6.1v0.6   H186.8z M185,102.4c-0.7-0.4-1.2-0.7-1.3-0.8c-0.4,0.3-0.8,0.5-1.3,0.8H185z M187.4,106.5v-1.6h-3.1v1.6H187.4z M186.8,105.6   c-0.3,0.3-0.7,0.5-1.1,0.8l-0.8-0.6c0.5-0.3,0.9-0.6,1.1-0.7L186.8,105.6z"/>
	<path class="st0" d="M194.3,104.8c0.7,1.2,1,2.3,1,3.3c0,1.1-0.6,1.6-1.9,1.5l-0.3-1.2c0.2,0,0.4,0,0.6,0c0.2,0,0.4,0,0.4-0.1   c0.1-0.1,0.1-0.2,0.1-0.4c0-0.9-0.4-2-1.1-3.1c0.4-0.9,0.7-1.8,0.9-2.8h-1.1v10.5h-1.2v-11.6h3.5v1.2   C194.9,103,194.6,103.9,194.3,104.8z M203.2,112.2h-8.4v-1.1h3.9v-1.5h-2.8v-1h2.8v-1.3h1.2v1.3h2.9v1h-2.9v1.5h3.4V112.2z    M203.2,105.2h-2.3v1.1c0,0.1,0,0.1,0.1,0.2c0.1,0.1,0.1,0.1,0.2,0.1h1.8v1h-2.2c-0.3,0-0.6-0.1-0.8-0.3c-0.2-0.2-0.3-0.5-0.3-0.8   v-1.3h-1.4c0,0.7-0.3,1.3-0.7,1.8s-1,0.9-1.7,1l-0.6-1c1.2-0.3,1.8-0.9,1.8-1.8h-1.9v-1.1h3.3v-1.2h-2.8v-1.1h2.8v-1.2h1.2v1.2h2.9   v1.1h-2.9v1.2h3.4V105.2z"/>
	<path class="st0" d="M206.5,109.2c-0.1,1.1-0.3,2.1-0.7,3.1l-1-0.4c0.3-0.8,0.6-1.8,0.7-3L206.5,109.2z M209.5,108.3l-1,0.4   c0-0.3-0.1-0.5-0.1-0.6c-1.4,0.3-2.4,0.5-3.1,0.7l-0.3-1c0.7-0.5,1.4-1.5,2.1-2.8l-1.7,0.2l-0.3-1.1c0.6-0.5,1.3-1.7,1.9-3.6   l1.1,0.5c-0.5,1.3-1.1,2.3-1.6,3c0.2,0,0.4,0,0.7-0.1c0.3-0.1,0.5-0.1,0.5-0.1c0.2-0.4,0.5-1,0.7-1.6l1.1,0.5   c-0.9,2-1.9,3.6-2.9,4.8c0.3,0,0.8-0.2,1.4-0.3c0-0.2-0.1-0.5-0.2-0.7l1-0.3C209.1,106.7,209.3,107.5,209.5,108.3z M208,111.8   l-1,0.1c0-0.7,0-1.6-0.2-2.7l1-0.1C207.9,110.2,208,111.1,208,111.8z M209.4,110.9l-0.9,0.2c-0.1-0.6-0.2-1.2-0.4-1.9l0.9-0.2   C209.3,109.7,209.4,110.3,209.4,110.9z M216.3,110.9h-4.1l0.4,0.6c-0.7,0.4-1.8,0.7-3,1.1l-0.7-0.9c0.8-0.2,1.6-0.4,2.4-0.7h-1.3   v-4.3h6.4V110.9z M216.9,102h-3.2v0.5h2.8v0.8h-6.8v-0.8h2.8V102h-3.3v-0.9h3.3v-0.5h1.2v0.5h3.2V102z M216.7,106.1h-7.2v-2.3h7.2   V106.1z M211.5,105.3v-0.7h-0.9v0.7H211.5z M215.1,107.8v-0.5h-4v0.5H215.1z M215.1,109v-0.5h-4v0.5H215.1z M215.1,110.2v-0.5h-4   v0.5H215.1z M213.5,105.3v-0.7h-1v0.7H213.5z M217,111.7l-0.5,0.9c-1-0.3-2-0.5-2.8-0.6l0.5-0.9C215.4,111.2,216.3,111.4,217,111.7   z M215.6,105.3v-0.7h-1v0.7H215.6z"/>
	<path class="st0" d="M222.8,109.9c-1.2,0.7-2.5,1.2-3.9,1.7l-0.3-1.2c0.3-0.1,0.8-0.3,1.4-0.5v-4.7h-1.2V104h1.2v-3.4h1.2v3.4h1.1   v1.2h-1.1v4.2c0.3-0.1,0.8-0.4,1.5-0.7L222.8,109.9z M230.2,106.6h-7.4v-4.4h7.4V106.6z M229.7,112.4h-1.2V112h-3.9v0.5h-1.2v-5.1   h6.2V112.4z M225.8,101.5l-1,0.6c-0.4-0.4-0.8-0.8-1.3-1.1l1-0.6C225.1,100.7,225.5,101.1,225.8,101.5z M225.9,105.5v-2.3h-2v2.3   H225.9z M225.5,104.9l-0.9,0.4c-0.1-0.5-0.3-1-0.5-1.4l0.8-0.4C225.2,103.9,225.4,104.4,225.5,104.9z M228.5,109.1v-0.7h-3.9v0.7   H228.5z M228.5,110.9v-0.8h-3.9v0.8H228.5z M229.1,105.5v-2.3h-2v2.3H229.1z M229.5,101c-0.5,0.4-0.9,0.8-1.4,1l-0.9-0.6   c0.5-0.3,1-0.6,1.4-1L229.5,101z M228.8,103.9c-0.1,0.5-0.4,1-0.7,1.4l-0.8-0.4c0.2-0.4,0.5-0.8,0.7-1.4L228.8,103.9z"/>
	<path class="st0" d="M238.4,102.4c0,2-0.1,3.9-0.1,5.8c-0.1,1.9-0.2,3-0.3,3.3c-0.1,0.3-0.3,0.5-0.5,0.7c-0.3,0.2-0.7,0.3-1.3,0.3   c-0.3,0-0.6,0-0.9,0l-0.3-1.2c0.4,0,0.7,0,0.9,0c0.6,0,0.9-0.2,1-0.5s0.2-2.7,0.3-7.1h-1.6c-0.1,3.8-0.9,6.8-2.4,8.9l-1-0.7   c1.4-2.1,2.2-4.9,2.2-8.2h-1.9v-1.2h1.9l0.1-2h1.2l-0.1,2H238.4z M243.9,112.5h-1.2v-1h-2.2v0.9h-1.2v-10.9h4.6V112.5z    M242.7,110.3v-7.5h-2.2v7.5H242.7z"/>
	<path class="st0" d="M251.9,105c0.4,0,0.8,0.1,1.1,0.4c0.3,0.3,0.4,0.7,0.4,1.1c0,0.4-0.2,0.8-0.5,1.1c-0.3,0.3-0.7,0.4-1.1,0.4   c-0.4,0-0.7-0.1-1.1-0.4c-0.3-0.3-0.5-0.7-0.5-1.1c0-0.4,0.1-0.8,0.5-1.1C251.2,105.2,251.5,105,251.9,105z M252,107.4   c0.2,0,0.4-0.1,0.5-0.2s0.2-0.3,0.2-0.6c0-0.2-0.1-0.4-0.2-0.6c-0.1-0.2-0.3-0.2-0.6-0.2c-0.2,0-0.4,0.1-0.6,0.2   c-0.1,0.2-0.2,0.3-0.2,0.6c0,0.2,0.1,0.4,0.2,0.6C251.5,107.3,251.7,107.4,252,107.4z"/>
	<path class="st0" d="M271.3,107.1c0,1.9-0.1,3.1-0.2,3.8c-0.1,0.6-0.3,1.1-0.6,1.3s-0.8,0.3-1.4,0.3c-0.3,0-0.6,0-0.8,0l-0.3-1.2   c0.2,0,0.6,0,1.4,0c0.2,0,0.3-0.1,0.4-0.3c0.1-0.2,0.2-1.1,0.3-2.8h-7.7c-0.7,0.9-1.4,1.6-2,2l-0.8-1c1.7-1.2,3-3.1,3.8-5.8h-3.4   v-1.2h2.1c-0.3-0.4-0.7-0.8-1.3-1.2l0.9-0.7c0.5,0.3,0.9,0.7,1.3,1.3l-0.8,0.7h1.4c0.2-0.7,0.3-1.3,0.4-1.9l1.2,0.2   c-0.1,0.6-0.2,1.2-0.3,1.7h5.2c-0.1,0.8-0.3,1.6-0.5,2.3h1.1c-0.1,0.6-0.2,1.4-0.4,2.4H271.3z M263.4,109c-0.3,1.3-0.8,2.4-1.5,3.5   l-1-0.6c0.5-0.8,1-1.9,1.4-3.2L263.4,109z M269.3,105.8h-5.5c-0.2,0.4-0.4,0.8-0.7,1.3h5.9L269.3,105.8z M265.4,112l-1.2,0.2   c0-1.1-0.1-2.2-0.4-3.2l1.1-0.1C265.3,110,265.4,111.1,265.4,112z M268.5,103.5h-3.9c-0.2,0.6-0.3,1-0.4,1.2h4.1   C268.4,104.3,268.5,103.9,268.5,103.5z M267.6,111.5l-1.2,0.4c-0.1-0.7-0.3-1.6-0.7-2.8l1.1-0.2   C267.2,109.8,267.5,110.7,267.6,111.5z M269.4,110.6l-1.1,0.4c-0.2-0.9-0.5-1.6-0.7-2.1l1.1-0.3C269,109.3,269.3,109.9,269.4,110.6   z"/>
	<path class="st0" d="M284.6,102.1c-1.5,1.3-3,2.5-4.6,3.5v5.6c0,0.3-0.1,0.6-0.3,0.8s-0.4,0.3-0.6,0.4s-0.7,0.1-1.4,0.1   c-0.3,0-0.6,0-1,0l-0.5-1.3c1.2,0,1.9,0,2.1,0c0.2,0,0.3-0.1,0.3-0.3V105c1.6-1,2.9-2,3.9-2.9h-8.8v-1.2h10.8V102.1z"/>
	<path class="st0" d="M3.9,127.1H0.3V126h1.3l-0.4-1.1l1.2-0.3c0.2,0.5,0.4,0.9,0.5,1.4h1V127.1z M3.6,136.4H2.5v-0.6H1.6v0.9H0.5   V132h3V136.4z M3.6,129H0.5v-1h3.1V129z M3.6,131h-3V130h3V131z M2.5,134.7v-1.7H1.6v1.7H2.5z M12.1,133.1H7.9   c-0.4,0.4-0.9,0.8-1.4,1.2v1.2c0.4-0.1,0.9-0.2,1.7-0.5l0.1,1c-0.9,0.3-1.8,0.6-2.8,0.7L5,135.9c0.2-0.1,0.3-0.3,0.3-0.6V135   c-0.4,0.2-0.7,0.3-1,0.4l-0.6-1c1-0.3,1.9-0.8,2.5-1.3H4v-0.8H6v-0.6H4.3V131H6v-0.6H4.1v-0.8H6v-0.5h1.2v0.5h1.6v-0.5H10v0.5h1.9   v0.8H10v0.6h1.6v0.7H10v0.6h2.1V133.1z M12,126.4H4.2v-0.9h3.1c-0.1-0.2-0.2-0.4-0.3-0.6l1.3-0.2l0.3,0.8H12V126.4z M7.7,128.7H4.5   v-1.9h3.2V128.7z M6.7,128v-0.5H5.5v0.5H6.7z M8.8,131v-0.6H7.2v0.6H8.8z M8.8,132.3v-0.6H7.2v0.6H8.8z M12.3,135.8l-0.6,1   c-2.1-0.5-3.5-1.6-4-3.1l1-0.4c0.2,0.5,0.4,0.8,0.7,1.2c0.5-0.3,0.9-0.7,1.3-1.1l0.9,0.6c-0.5,0.5-1,0.8-1.3,1.1   C10.8,135.4,11.4,135.7,12.3,135.8z M11.6,128.7H8.3v-1.9h3.3V128.7z M10.6,128v-0.5H9.4v0.5H10.6z"/>
	<path class="st0" d="M23.9,125.9h-3v5h-1.2v-6.1h4.1V125.9z"/>
	<path class="st0" d="M39.4,132.9h-6c-0.7,0.6-1.3,1-1.8,1.2v1.4c0.8-0.1,1.7-0.3,2.6-0.5l0,1.1c-1.5,0.4-2.8,0.6-3.9,0.7l-0.2-1   c0.2-0.1,0.3-0.2,0.3-0.4v-0.6c-0.7,0.3-1.5,0.6-2.4,0.8l-0.7-1.1c1.8-0.4,3.2-0.9,4.3-1.6h-4.2v-1h5.4c-0.1-0.1-0.2-0.3-0.3-0.5   l1.3-0.2c0.1,0.2,0.3,0.5,0.4,0.7h5.1V132.9z M35.3,128H32v0.6h2.7v1.6c0,0.3-0.1,0.5-0.3,0.7c-0.2,0.2-0.8,0.2-1.7,0.2l-0.3-0.9   l1,0c0.1,0,0.2-0.1,0.2-0.2v-0.4H32v1.9h-1.1v-1.9h-1.6v1.5h-1.1v-2.4h2.7V128h-3.4v-0.9h3.4v-0.6h-2c-0.1,0.1-0.2,0.3-0.4,0.5   l-0.9-0.6c0.4-0.5,0.8-1,1.1-1.6l1.1,0.3c-0.1,0.2-0.2,0.3-0.2,0.4h1.4v-0.7H32v0.7h2.9v0.9H32v0.6h3.3V128z M39.6,135.8l-0.6,1   c-2.6-0.4-4.3-1.6-5.1-3.5l1.2-0.2c0.3,0.5,0.7,1,1.1,1.4c0.6-0.3,1.3-0.8,1.9-1.4l1,0.7c-0.4,0.4-1,0.9-1.8,1.3   C38.1,135.5,38.9,135.7,39.6,135.8z M37,129.3h-1.1v-3.9H37V129.3z M39.1,130.2c0,0.2-0.1,0.4-0.2,0.6s-0.3,0.3-0.5,0.4   c-0.2,0.1-0.6,0.1-1.2,0.1c-0.2,0-0.5,0-0.7,0l-0.3-1.1c0.1,0,0.3,0,0.5,0c0.6,0,0.9,0,1-0.1s0.1-0.1,0.1-0.2v-5.1h1.2V130.2z"/>
	<path class="st0" d="M53.1,135.4l-0.4,1.1c-0.5,0-1.1,0-1.8,0c-1.4,0-2.7,0-3.7,0c-1,0-1.9-0.2-2.5-0.4c-0.6-0.2-1.2-0.6-1.5-1   c-0.3,0.5-0.8,1.1-1.3,1.7l-0.9-0.8c1.2-1.2,1.9-2.5,2.2-3.9h-1.9v-1c0.7-0.7,1.3-1.5,1.8-2.4h-1.9v-1.1h3.3v1.1   c-0.6,0.9-1.2,1.7-1.7,2.4h1.7v1.1c-0.2,0.7-0.4,1.4-0.7,2c0.5,0.5,1.1,0.9,1.8,1s2.2,0.2,4.6,0.2   C51.1,135.4,52.1,135.4,53.1,135.4z M44.4,126.4l-0.8,0.8c-0.6-0.7-1.3-1.3-2.1-1.7l0.8-0.8C43.1,125.2,43.8,125.8,44.4,126.4z    M53,130.1h-8.1V129h3.6v-1.6h-1.8c-0.3,0.6-0.6,1-0.9,1.3l-1-0.7c0.6-0.8,1.2-1.8,1.7-3.1l1.1,0.2c-0.1,0.3-0.2,0.7-0.4,1.2h1.3   v-1.6h1.2v1.6h2.9v1.1h-2.9v1.6H53V130.1z M52.1,134.6h-6.3v-3.7h6.3V134.6z M50.9,133.5v-1.6H47v1.6H50.9z"/>
	<path class="st0" d="M60.7,136.8h-4.2v-1.1h3v-5h1.2V136.8z"/>
	<path class="st0" d="M76.1,131.3l-0.9,0.9c-0.7-0.8-1.4-1.5-2.3-2.1l0.9-0.9C74.5,129.8,75.3,130.5,76.1,131.3z"/>
	<path class="st0" d="M92.2,125.9h-3v5H88v-6.1h4.1V125.9z"/>
	<path class="st0" d="M100.6,131.7c-0.4,0.1-0.8,0.3-1.4,0.5v4.5H98v-4.1c-0.5,0.1-1.1,0.3-2.1,0.6l-0.3-1.2   c0.7-0.2,1.5-0.4,2.3-0.6v-2.7h-0.9c-0.1,0.5-0.2,1.2-0.4,1.9l-1-0.3c0.4-1.3,0.6-2.8,0.7-4.5l1.1,0.2c0,0.6-0.1,1.1-0.2,1.5H98   v-2.7h1.2v2.7h1.1l0,1.1h-1.1v2.3c0.8-0.3,1.2-0.4,1.3-0.5L100.6,131.7z M107.5,126.6c0,1.6-0.1,3.2-0.1,5.1   c-0.1,1.8-0.1,3-0.2,3.5c-0.1,0.5-0.2,0.9-0.4,1.1s-0.4,0.4-0.6,0.4s-0.8,0.1-1.6,0.1c-0.3,0-0.6,0-0.8,0l-0.4-1.1   c0.5,0,0.9,0,1.3,0c0.6,0,0.9,0,1-0.1s0.2-0.2,0.2-0.4c0.1-0.2,0.1-1,0.2-2.4s0.1-3.1,0.1-4.9h-0.4c-0.2,1.9-0.6,3.5-1.3,4.8   c-0.6,1.3-1.5,2.6-2.8,3.9l-1-0.8c1.2-1.2,2.1-2.4,2.7-3.6c0.6-1.2,1-2.7,1.2-4.3h-0.6c-0.5,2.5-1.5,4.5-3.1,6.1l-1-0.8   c1.5-1.4,2.5-3.2,2.9-5.3h-0.6c-0.4,0.9-0.8,1.7-1.3,2.4l-1-0.6c0.9-1,1.6-2.6,2.1-4.7l1.2,0.2c-0.1,0.6-0.3,1.1-0.5,1.6H107.5z"/>
	<path class="st0" d="M112.4,129.9l-0.7,1c-0.6-0.6-1.4-1.2-2.3-1.8l0.7-1C111.1,128.7,111.8,129.3,112.4,129.9z M112.3,132.1   c-0.4,1.6-1.1,3.2-2,4.7l-1-0.7c0.9-1.7,1.6-3.3,1.9-4.6L112.3,132.1z M112.4,126.6l-0.8,0.9c-0.4-0.6-1.1-1.3-2.1-2l0.9-0.9   C111.1,125.2,111.8,125.9,112.4,126.6z M114.8,131c0,0.2,0,0.4,0,0.6c0,1.4-0.2,2.5-0.5,3.3c-0.4,0.8-0.9,1.4-1.6,1.9l-0.9-0.9   c1.2-0.7,1.8-2.1,1.8-4.2c0-0.2,0-0.5,0-0.8H114.8z M121.3,130.3l-1.1,0.6c-0.2-0.3-0.4-0.5-0.6-0.8c-2.9,0.2-5.1,0.4-6.7,0.4   l-0.2-1c0.6-0.3,1.3-1.1,2.2-2.2h-2.2v-1.1h2.9c0.2-0.3,0.4-0.8,0.7-1.4l1.3,0.3c-0.2,0.4-0.3,0.7-0.6,1.1h4.2v1.1h-4.8   c-0.5,0.7-1,1.4-1.8,2c1.4,0,2.8-0.1,4.2-0.3c-0.2-0.3-0.5-0.6-0.9-0.9l1.1-0.5C119.9,128.4,120.7,129.3,121.3,130.3z M117.2,136.8   H116V131h1.2V136.8z M121.3,136.6h-1.8c-0.3,0-0.6-0.1-0.7-0.3c-0.2-0.2-0.3-0.4-0.3-0.7V131h1.2v4.2c0,0.1,0,0.1,0.1,0.2   s0.1,0.1,0.2,0.1h1.4V136.6z"/>
	<path class="st0" d="M129,136.8h-4.2v-1.1h3v-5h1.2V136.8z"/>
	<path class="st0" d="M144.3,131.3l-0.9,0.9c-0.7-0.8-1.4-1.5-2.3-2.1l0.9-0.9C142.8,129.8,143.6,130.5,144.3,131.3z"/>
	<path class="st0" d="M160.5,125.9h-3v5h-1.2v-6.1h4.1V125.9z"/>
	<path class="st0" d="M176.1,131.9l-0.4,1.1c-1.5-0.3-2.7-0.7-3.8-1.2v0.5h-3.8v-0.5c-1.2,0.5-2.5,0.9-3.7,1.2l-0.5-1.1   c2.6-0.5,4.6-1.3,5.8-2.4l1.2,0.3c-0.1,0.1-0.2,0.2-0.2,0.2C172.2,130.8,173.9,131.4,176.1,131.9z M175.6,129.8h-1.2v-2.2h-3.9v1.7   h-1.2v-1.7h-3.8v2.2h-1.2v-3.2h5V126h-4.6v-1h10.3v1h-4.5v0.6h5.1V129.8z M174.5,133.8c-1.1,0.7-2.2,1.2-3.1,1.6   c0.5,0.2,0.9,0.4,1.4,0.6l-0.6,0.9c-1.5-0.7-3.3-1.3-5.4-1.8l0.6-0.9c0.7,0.1,1.5,0.4,2.5,0.7c1-0.3,1.9-0.7,2.6-1.1h-7.2v-1h9.2   V133.8z M168.8,129.9c-1.1,0.2-1.9,0.4-2.6,0.4l-0.2-0.8c0.9-0.1,1.8-0.2,2.6-0.4L168.8,129.9z M168.9,128.1l-0.3,0.8   c-0.8-0.1-1.6-0.2-2.5-0.2l0.3-0.8C167.3,127.9,168.1,128,168.9,128.1z M171.1,131.3c-0.3-0.2-0.7-0.4-1.1-0.7   c-0.3,0.2-0.6,0.5-1.1,0.7H171.1z M173.9,128.5c-0.7,0.1-1.6,0.2-2.5,0.3l-0.3-0.8c0.9-0.1,1.8-0.2,2.5-0.3L173.9,128.5z    M174.1,129.5l-0.3,0.8c-0.8-0.2-1.7-0.3-2.6-0.4l0.3-0.8C172.3,129.2,173.2,129.3,174.1,129.5z"/>
	<path class="st0" d="M189.6,132.1h-10.2v-3.5c-0.3,0.4-0.6,0.7-1,1l-0.8-0.9c1.1-1.1,2-2.4,2.8-4l1.1,0.3c-0.1,0.3-0.3,0.6-0.5,1   h2.9c-0.2-0.4-0.4-0.7-0.5-0.9l1.2-0.4c0.3,0.5,0.5,0.9,0.7,1.3h4.2v1H185v0.7h3.9v0.9H185v0.7h3.9v0.9H185v0.8h4.6V132.1z    M188.6,136.7h-1.2v-0.6h-7.2v0.6H179v-4h9.6V136.7z M187.4,135.1v-1.2h-7.2v1.2H187.4z M183.8,127.7V127h-3.3v0.7H183.8z    M183.8,129.3v-0.7h-3.3v0.7H183.8z M183.8,131v-0.8h-3.3v0.8H183.8z"/>
	<path class="st0" d="M197.2,136.8h-4.2v-1.1h3v-5h1.2V136.8z"/>
	<path class="st0" d="M210.6,132.3c-0.4-0.1-0.6-0.4-0.6-0.9c0-0.2,0.1-0.5,0.3-0.6c0.2-0.2,0.4-0.2,0.6-0.2c0.3,0,0.5,0.1,0.6,0.3   c0.2,0.2,0.2,0.4,0.2,0.7c0,0.5-0.4,1.1-1.2,1.7l-0.4-0.3C210.4,132.7,210.5,132.5,210.6,132.3z"/>
	<path class="st0" d="M225.8,126.2c-0.5,1-1.1,1.8-1.6,2.4h1.5v1.1h-2.4c-0.5,0.5-0.9,0.9-1.3,1.2h2.9v5.8h-1.2V136h-2.6v0.7h-1.2   v-4.4c-0.2,0.1-0.5,0.3-0.8,0.4l-0.6-1c1.2-0.5,2.3-1.2,3.2-2h-3v-1.1h2.6v-1.5h-2v-1.1h2v-1.3h1.2v1.3h1.5v1   c0.3-0.4,0.6-0.9,0.9-1.4L225.8,126.2z M223.8,132.9V132h-2.6v0.9H223.8z M223.8,134.9v-1h-2.6v1H223.8z M223.9,127.2h-1.4v1.5h0.3   C223.2,128.3,223.5,127.8,223.9,127.2z M229.3,129.7c0.8,1.2,1.2,2.3,1.2,3.5c0,0.8-0.2,1.3-0.5,1.5c-0.3,0.3-0.8,0.4-1.3,0.4   c-0.2,0-0.4,0-0.8,0l-0.3-1.2c0.4,0,0.8,0,1.2,0c0.2,0,0.3-0.1,0.4-0.2c0.1-0.1,0.1-0.3,0.1-0.7c0-1.1-0.5-2.2-1.4-3.3   c0.4-1,0.8-2.2,1.1-3.5h-1.8v10.4h-1.2v-11.6h4.2v1.2C229.9,128,229.6,129.1,229.3,129.7z"/>
	<path class="st0" d="M243.1,136.7h-1.3V136h-7.2v0.7h-1.2v-10.4h3.3c0.3-0.4,0.5-0.9,0.7-1.5l1.3,0.2c-0.1,0.5-0.3,0.9-0.6,1.3h5   V136.7z M241.9,129.1v-1.6h-7.2v1.6H241.9z M241.9,131.9v-1.7h-7.2v1.7H241.9z M241.9,134.9V133h-7.2v1.8H241.9z"/>
	<path class="st0" d="M257.9,132.9c0,0.7-0.1,1.3-0.2,2c-0.1,0.6-0.4,1.1-0.8,1.3s-1,0.4-1.8,0.4c-1.8,0-3.5,0-5,0   c-1.5,0-2.4-0.1-2.5-0.1c-0.2-0.1-0.4-0.2-0.6-0.4c-0.2-0.2-0.3-0.5-0.3-0.8v-5.9h8.8v-3.1h-9.4v-1.2h10.6v5.4h-8.8v4.5   c0,0.1,0.1,0.2,0.2,0.2c0.1,0,0.6,0.1,1.4,0.1c0.8,0,1.7,0,2.7,0c2.1,0,3.2,0,3.6-0.1c0.3,0,0.5-0.3,0.6-0.9c0.1-0.5,0.1-1.2,0.1-2   L257.9,132.9z"/>
	<path class="st0" d="M271.5,131.1h-11.9v-1.2h11.9V131.1z"/>
	<path class="st0" d="M12.1,157.2h-5v2.5c0,0.3-0.1,0.6-0.3,0.8s-0.4,0.3-0.6,0.4c-0.2,0-0.7,0.1-1.5,0.1c-0.4,0-0.8,0-1.4,0   l-0.4-1.2c0.8,0,1.4,0,1.8,0c0.5,0,0.8,0,0.9,0c0.1,0,0.2-0.2,0.2-0.5v-2.1H0.2V156h5.6v-2H1v-1.2h4.9V151   c-1.3,0.1-2.9,0.2-4.7,0.3l-0.4-1.1c3.9-0.1,7.2-0.5,10-1.2l0.7,1c-1,0.3-2.4,0.5-4.3,0.8v1.9h4.2v1.2H7.1v2h5V157.2z"/>
	<path class="st0" d="M25.2,150.4c0,1.5,0,2.9-0.1,4.4s-0.1,2.3-0.2,2.5c-0.1,0.2-0.2,0.4-0.5,0.6c-0.2,0.1-0.6,0.2-1.1,0.2   c-0.2,0-0.5,0-0.8,0l-0.3-1.2l1.2,0c0.1,0,0.2,0,0.3-0.1c0.1-0.1,0.1-0.6,0.2-1.6c0-1,0.1-2.2,0.1-3.7h-7.1   c-0.7,0.8-1.4,1.6-2.2,2.2l-0.8-0.9c1.3-1,2.4-2.3,3.3-3.8l1.2,0.3l-0.6,1.1H25.2z M25.7,158.7c0,0.7-0.2,1.2-0.4,1.6   s-0.6,0.6-1.2,0.6c-0.6,0-1.6,0-3,0c-2.1,0-3.4,0-4-0.1s-1-0.2-1.2-0.4c-0.2-0.2-0.3-0.6-0.3-1.1V153h6.2v4h-5v2.4   c0,0.2,0.2,0.3,0.5,0.3c0.3,0,1.3,0,3,0c2.3,0,3.6,0,3.8,0c0.3,0,0.4-0.5,0.4-1.5L25.7,158.7z M20.5,155.9v-1.7h-3.7v1.7H20.5z"/>
	<path class="st0" d="M31.6,155.5h-1.3l-0.1,1.4h1.1v1.1H30c-0.3,1.1-0.8,2.2-1.5,3.1l-1-0.7c0.7-0.9,1.1-1.6,1.3-2.3h-1v-1.1H29   c0-0.4,0.1-0.9,0.1-1.4h-1.6v-1.1h0.8c0-0.4-0.2-1.2-0.5-2.3l0.6-0.3h-0.9v-1.1H29c-0.1-0.4-0.2-0.9-0.4-1.4l1.1-0.3   c0.2,0.6,0.4,1.1,0.5,1.7h1.5v1.1h-0.9l0.6,0.4c0,0.5-0.2,1.2-0.5,2.2h0.9V155.5z M30.3,151.8h-1.5c0.2,0.8,0.4,1.7,0.5,2.6h0.4   C30,153.5,30.2,152.6,30.3,151.8z M34.8,151.9c0,4.4,0,6.9-0.1,7.5c0,0.6-0.2,1-0.6,1.3s-0.8,0.3-1.5,0.3l-0.4-1.2   c0.2,0,0.4,0,0.5,0c0.2,0,0.4,0,0.5-0.1s0.2-0.1,0.2-0.2c0-0.1,0.1-1,0.1-2.7c0-1.3,0-2.5,0-3.8h-0.4c0,3-0.7,5.7-1.9,8.1l-1-0.5   c1.2-2.3,1.8-4.8,1.8-7.6h-0.5v-1.1h0.6c0-1.1,0-2.1,0-2.8h1c0,1.5,0,2.4,0,2.8H34.8z M39.4,155.5h-1.6v1.4h1.3v1.1h-1.3v3h-1.2v-3   h-1.3v-1.1h1.3v-1.4h-1.5v-1.1H36c-0.1-0.7-0.4-1.5-0.7-2.2l0.7-0.4h-0.8v-1.1h1.5c-0.1-0.4-0.2-0.8-0.4-1.4l1.1-0.3   c0.2,0.6,0.4,1.2,0.5,1.6h1.4v1.1h-1l0.8,0.4c-0.2,0.8-0.4,1.6-0.7,2.1h1V155.5z M38,151.7h-1.7c0.3,0.9,0.6,1.8,0.7,2.6h0.2   C37.6,153.5,37.8,152.7,38,151.7z"/>
	<path class="st0" d="M46.3,160.9h-1.2V160h-2.5v1h-1.2v-9.9h1.2c0.3-0.6,0.6-1.3,0.8-2.1l1.3,0.2c-0.1,0.4-0.3,1.1-0.6,1.9h2.2   V160.9z M45.1,154.8v-2.5h-2.5v2.5H45.1z M45.1,158.8v-2.9h-2.5v2.9H45.1z M52.9,151.2c0,1.3-0.1,3-0.1,5.1s-0.2,3.3-0.4,3.7   c-0.2,0.4-0.4,0.6-0.8,0.8c-0.3,0.2-1.2,0.3-2.5,0.3l-0.5-1.2l1.8,0c0.2,0,0.4-0.1,0.6-0.2c0.2-0.1,0.3-1.1,0.4-3   c0.1-1.8,0.1-3.3,0.1-4.3H49c-0.4,1.1-0.9,2-1.4,2.8l-0.9-0.8c1-1.6,1.7-3.3,2.1-5.3l1.2,0.3c-0.1,0.5-0.2,1.1-0.5,1.9H52.9z    M50.9,157.3l-1.1,0.7c-0.6-1.2-1.2-2.2-1.9-2.9l1.1-0.7C50,155.5,50.6,156.4,50.9,157.3z"/>
	<path class="st0" d="M66.7,160.8H54.8v-1.1h2v-7.1h7.8v7.1h2V160.8z M66.4,153.4h-1.2v-2.1h-8.8v2.1h-1.2v-3.2H60l-0.6-1l1.4-0.2   c0.2,0.3,0.4,0.7,0.6,1.3h5V153.4z M63.4,154.9v-1.3h-5.3v1.3H63.4z M63.4,157.2v-1.3h-5.3v1.3H63.4z M63.4,159.6v-1.3h-5.3v1.3   H63.4z"/>
	<path class="st0" d="M72.2,149.6c-1.1,1.4-2.2,2.4-3.3,3.1l-0.6-1.1c0.9-0.5,1.9-1.3,2.9-2.6L72.2,149.6z M72.4,152.3   c-0.3,0.6-0.6,1.2-1,1.7v6.9h-1.2v-5.3c-0.5,0.5-0.8,0.8-1.1,1l-0.6-1.1c1-0.8,1.9-2,2.9-3.7L72.4,152.3z M80.4,157.2h-1.6v2.5   c0,0.8-0.6,1.2-1.7,1.2c-0.3,0-0.6,0-0.9,0l-0.3-1.1c0.4,0,0.7,0,1,0c0.3,0,0.5,0,0.6-0.1c0.1-0.1,0.1-0.2,0.1-0.4v-2.2h-5.8v-1.1   h5.8v-0.8h-5.5v-1.1h7.9v1.1h-1.2v0.8h1.6V157.2z M79.5,153.6h-6.8v-4.3h6.8V153.6z M75.8,159l-0.9,0.8c-0.7-0.7-1.3-1.3-1.9-1.6   l0.8-0.8C74.3,157.7,75,158.2,75.8,159z M78.3,150.9v-0.6h-4.4v0.6H78.3z M78.3,152.5v-0.6h-4.4v0.6H78.3z"/>
	<path class="st0" d="M89.1,156.1l-0.6,1.1c-0.5-0.7-1.2-1.4-2.1-2.2v5.9h-1.2v-5.7c-0.7,1.5-1.6,2.6-2.5,3.6l-0.6-1.2   c1.3-1.1,2.3-2.6,3-4.3h-2.7v-1.2h2.8v-1.4c-0.6,0.1-1.3,0.1-2.1,0.1l-0.5-1.2c2.1,0,3.9-0.3,5.4-0.8l0.7,1   c-0.6,0.2-1.4,0.4-2.3,0.6v1.5h2.5v1.2h-2.5v0.4C87.2,154.4,88.2,155.2,89.1,156.1z M90.9,158.6h-1.2V150h1.2V158.6z M93.7,159.5   c0,1-0.5,1.5-1.6,1.5l-1.5,0l-0.4-1.3c0.4,0,1.1,0,2.1,0c0.2,0,0.3-0.1,0.3-0.3v-10.3h1.2V159.5z"/>
	<path class="st0" d="M99.8,149.3c-0.3,0.9-0.7,1.6-1.2,2.3c0.5,1.2,0.8,3,0.8,5.4c0,1-0.1,1.8-0.2,2.5s-0.3,1.1-0.6,1.3   s-0.9,0.3-2,0.3l-0.4-1.2c0.3,0,0.6,0,0.8,0c0.3,0,0.5,0,0.6-0.1s0.2-0.1,0.2-0.2c0.1-0.1,0.1-0.5,0.2-1.1c0.1-0.7,0.1-1.3,0.1-1.9   c0-0.3,0-0.6,0-0.9c-0.5,0.8-1.2,1.5-1.9,2.2l-0.6-1.1c1.2-1.1,2-2.1,2.4-2.9c-0.1-0.5-0.2-0.9-0.3-1.2c-0.6,0.6-1.2,1.1-1.6,1.4   l-0.5-1.1c0.7-0.5,1.2-1,1.7-1.5c-0.4-0.6-0.9-1.2-1.5-1.8l1-0.6c0.5,0.5,0.9,1,1.2,1.4c0.2-0.3,0.5-0.8,0.8-1.5L99.8,149.3z    M107.5,153.3c0,1.2,0,2.6-0.1,4.3s-0.1,2.5-0.2,2.7s-0.2,0.4-0.4,0.5c-0.2,0.2-0.7,0.3-1.4,0.3c-0.2,0-0.4,0-0.6,0l-0.2-1.1   c0.2,0,0.4,0,0.7,0c0.5,0,0.8,0,0.8-0.1c0.1-0.1,0.1-0.1,0.1-0.2s0.1-0.7,0.1-1.9c0-1.2,0-2.3,0-3.4h-4.7c-0.4,0.4-0.7,0.8-1,1.1   h1.8v-0.7h1.1v0.7h1.9v2.5h-1.9v0.8c0.2,0,0.4,0,0.6-0.1l-0.2-0.2l0.9-0.3c0.4,0.6,0.7,1.1,0.9,1.5l-1,0.3   c-0.1-0.1-0.1-0.2-0.1-0.3c-1.8,0.3-3.4,0.6-4.7,0.8l-0.2-1c1.2-0.1,2.1-0.2,2.7-0.3v-1h-1.9v-2.4c-0.2,0.2-0.4,0.3-0.5,0.4   l-0.5-1.1c0.9-0.8,1.5-1.6,1.9-2.4h-1.3v-3.1h7.2v3.1h-5.6l0.8,0.4c0,0.1-0.1,0.2-0.2,0.4H107.5z M102.2,151.5v-1.1h-0.9v1.1H102.2   z M102.4,157v-0.7h-0.8v0.7H102.4z M104.2,151.5v-1.1h-0.9v1.1H104.2z M104.5,157v-0.7h-0.9v0.7H104.5z M106.1,151.5v-1.1h-0.8v1.1   H106.1z"/>
	<path class="st0" d="M114,152.9H113v2.3c0.2-0.1,0.5-0.2,1-0.3l0,1.2l-1,0.3v4.5h-1.2v-4.1c-1,0.3-1.7,0.4-2.2,0.5l-0.2-1.2   c0.7-0.1,1.5-0.3,2.4-0.6v-2.7H111c-0.2,0.8-0.3,1.4-0.5,2l-1.1-0.5c0.4-1.1,0.7-2.5,0.8-4.3l1.1,0.2c0,0.3-0.1,0.8-0.1,1.4h0.6   v-2.6h1.2v2.6h1.1V152.9z M121.4,156.5h-1.3v3.3c0,0.3-0.1,0.6-0.2,0.7c-0.1,0.2-0.3,0.3-0.5,0.3s-0.5,0.1-1,0.1   c-0.3,0-0.7,0-1.1,0l-0.3-1.2c0.5,0,0.8,0,1.2,0c0.4,0,0.7,0,0.7-0.1c0.1,0,0.1-0.1,0.1-0.2v-3h-4.5v-1.1h4.5v-0.9h1.2v0.9h1.3   V156.5z M121.3,151.6h-2.8v1.4h2.5l0,1.1h-6.3V153h2.6v-1.4h-2.9v-1.1h2.9v-1.4h1.2v1.4h2.8V151.6z M117.6,158.8l-1.1,0.7   c-0.4-0.7-1-1.3-1.7-1.9l1.1-0.7C116.6,157.4,117.1,158.1,117.6,158.8z"/>
	<path class="st0" d="M135,151h-3.7l0.9,0.5c-0.1,0.3-0.4,0.7-0.6,1.1h2.8v7.2c0,0.3-0.1,0.5-0.2,0.7c-0.1,0.2-0.3,0.3-0.5,0.4   c-0.2,0.1-0.5,0.1-0.9,0.1c-0.2,0-0.5,0-0.8,0l-0.4-1.1c0.2,0,0.4,0,0.6,0c0.5,0,0.8,0,0.9-0.1c0.1,0,0.1-0.1,0.1-0.2v-5.9H131v0.9   c0,0,0,0.1,0.1,0.1c0,0.1,0.1,0.1,0.1,0.1h1.6v1h-2.1c-0.2,0-0.4-0.1-0.6-0.3c-0.2-0.2-0.3-0.4-0.3-0.6v-1.3h-1.6   c0,1.5-0.9,2.4-2.6,2.7l-0.6-1c1.3-0.2,2-0.8,2-1.7h-2.2v7.3h-1.2v-8.4h2.9c-0.3-0.5-0.6-0.9-0.8-1.1l0.9-0.5h-3.5V150h5.3   c-0.1-0.2-0.2-0.4-0.3-0.7l1.3-0.3c0.1,0.3,0.2,0.6,0.4,1h5.3V151z M132,159.5h-5.9v-3h5.9V159.5z M131.1,151H127   c0.4,0.5,0.7,1,1,1.6h2.3C130.4,152.3,130.7,151.7,131.1,151z M130.8,158.5v-0.9h-3.5v0.9H130.8z"/>
	<path class="st0" d="M148.6,157.7h-5.4v3.3h-1.2v-3.3h-5.3v-1h5.3V156h-4.7v-1h4.7v-0.7h-5v-1h3.1c-0.1-0.2-0.3-0.4-0.5-0.6   l0.9-0.5h-3.9v-1h4.2v-2h1.2v2h1.2v-2h1.2v2h4.1v1h-3.8l0.8,0.4c-0.2,0.3-0.3,0.5-0.5,0.7h3.1v1h-5.1v0.7h4.7v1h-4.7v0.7h5.4V157.7   z M141.1,158.9c-1.3,0.9-2.4,1.6-3.5,2.1l-0.8-1c1.1-0.4,2.2-1,3.4-1.9L141.1,158.9z M139.9,150.4l-0.9,0.7   c-0.4-0.5-0.8-0.9-1.2-1.2l0.9-0.7C139.2,149.6,139.6,150,139.9,150.4z M144.4,152.2h-3.6c0.3,0.3,0.5,0.7,0.8,1.1h2.1   C144,152.9,144.2,152.6,144.4,152.2z M148.9,159.9l-0.7,1c-1.3-0.8-2.6-1.4-3.9-1.9l0.7-1C146.3,158.5,147.5,159.2,148.9,159.9z    M147.6,149.7c-0.3,0.4-0.6,0.8-1.2,1.3l-1.1-0.6c0.4-0.3,0.8-0.7,1.2-1.2L147.6,149.7z"/>
	<path class="st0" d="M154.9,154.9l-0.8,0.9c-0.4-0.6-0.7-1.1-1-1.5v6.7h-1.2v-5.8c-0.4,0.9-0.7,1.7-1.1,2.4l-0.6-1.3   c0.8-1.4,1.4-2.6,1.7-3.7h-1.5v-1.2h1.5v-2.3h1.2v2.3h1.2v1.2h-1.2v0.2C153.9,153.6,154.5,154.3,154.9,154.9z M162.3,158.3h-3.8   c-0.5,1.4-1.8,2.4-4,2.9l-0.6-1.1c1.5-0.3,2.6-0.9,3.2-1.8h-3v-1.1h3.3c0-0.3,0.1-0.5,0.1-0.8h-2.3v-4.4h6.1v4.4h-2.6   c0,0.2,0,0.4-0.1,0.8h3.6V158.3z M158.1,151h-0.8v0.6h-1.2V151h-1.7v-1.1h1.7v-0.8h1.2v0.8h0.8V151z M160.2,153.7v-0.6h-3.8v0.6   H160.2z M160.2,155.4v-0.7h-3.8v0.7H160.2z M162.5,160.1l-0.7,1c-1-0.6-2.1-1-3.3-1.4l0.6-1C160.3,159,161.5,159.5,162.5,160.1z    M162.2,151h-1.5v0.6h-1.2V151h-0.8v-1.1h0.8v-0.8h1.2v0.8h1.5V151z"/>
	<path class="st0" d="M175.9,158.1c-0.2,2-0.7,3-1.7,3c-0.8,0-1.6-0.8-2.2-2.4c-0.6-1.6-1-3.7-1-6.2h-7v-1.1h7   c0-0.9-0.1-1.7-0.1-2.2h1.2c0,0.5,0,1.3,0.1,2.2h3.7v1.1h-3.6c0.1,2.6,0.3,4.4,0.8,5.6c0.5,1.2,0.9,1.8,1.1,1.8   c0.3,0,0.4-0.8,0.5-2.4L175.9,158.1z M170.9,158.9c-2.5,0.6-4.6,1.1-6.4,1.3l-0.3-1.1c0.8-0.1,1.7-0.2,2.7-0.4V155h-2.2v-1.2h5.8   v1.2h-2.3v3.3c1.1-0.2,2-0.5,2.7-0.6L170.9,158.9z M175.5,150.4l-0.9,0.8c-0.6-0.5-1.1-0.9-1.7-1.2l0.9-0.8   C174.6,149.5,175.1,149.9,175.5,150.4z"/>
	<path class="st0" d="M179.4,155.9c0,2-0.3,3.7-0.9,5.1l-1-0.7c0.5-1.3,0.7-2.7,0.7-4.4v-6.8h1.1V155.9z M181.1,160.1h-1v-10.4h1   V160.1z M182.8,161h-1.1v-11.9h1.1V161z M189.6,150.4h-2.6c-0.2,0.5-0.3,1-0.4,1.2h2.5v6.9h-3.5l0.7,0.5c-0.5,0.6-1.3,1.3-2.5,2.1   l-0.7-0.9c0.9-0.5,1.7-1.1,2.2-1.7h-1.5v-6.9h1.6c0.1-0.2,0.2-0.6,0.4-1.2h-2.5v-1.1h6.3V150.4z M188,153.5v-0.9h-3.1v0.9H188z    M188,155.5v-0.9h-3.1v0.9H188z M188,157.4v-1h-3.1v1H188z M189.6,160.2l-0.7,0.8c-0.6-0.5-1.4-1-2.3-1.6l0.7-0.8   C188.2,159.2,188.9,159.7,189.6,160.2z"/>
	<path class="st0" d="M198.3,156.1l-0.6,1.1c-0.5-0.7-1.2-1.4-2.1-2.2v5.9h-1.2v-5.7c-0.7,1.5-1.6,2.6-2.5,3.6l-0.6-1.2   c1.3-1.1,2.3-2.6,3-4.3h-2.7v-1.2h2.8v-1.4c-0.6,0.1-1.3,0.1-2.1,0.1l-0.5-1.2c2.1,0,3.9-0.3,5.4-0.8l0.7,1   c-0.6,0.2-1.4,0.4-2.3,0.6v1.5h2.5v1.2h-2.5v0.4C196.5,154.4,197.4,155.2,198.3,156.1z M200.1,158.6h-1.2V150h1.2V158.6z    M202.9,159.5c0,1-0.5,1.5-1.6,1.5l-1.5,0l-0.4-1.3c0.4,0,1.1,0,2.1,0c0.2,0,0.3-0.1,0.3-0.3v-10.3h1.2V159.5z"/>
	<path class="st0" d="M217.1,159.7l-0.3,1.1c-0.9,0-1.8,0.1-2.7,0.1c-2.4,0-4-0.1-4.8-0.3s-1.5-0.6-2.2-1.2   c-0.4,0.6-0.8,1.2-1.3,1.7l-1-0.7c1.2-1.4,2-2.7,2.3-3.9h-2v-1.1c0.8-0.8,1.3-1.5,1.8-2.3H205v-1.1h3.3v1.1   c-0.4,0.8-0.9,1.6-1.6,2.3h1.7v1.1c-0.2,0.7-0.4,1.4-0.7,2.1c0.3,0.4,0.8,0.7,1.4,0.9c0.6,0.2,1.3,0.3,2.2,0.4c0.9,0,1.8,0,2.8,0   C215.1,159.8,216.1,159.8,217.1,159.7z M208.3,150.7l-0.8,0.8c-0.6-0.7-1.4-1.2-2.2-1.7l0.9-0.8   C207.1,149.5,207.8,150.1,208.3,150.7z M216.9,158.4h-3.5v1h-1.2v-1h-3.6v-1h3.6v-0.6h-3v-4h3v-0.6h-1.7v-0.9h1.7v-0.5h1.2v0.5h1.7   v0.9h-1.7v0.6h2.9v4h-2.9v0.6h3.5V158.4z M216.7,151.6h-1.2v-1.3h-5.4v1.3h-1.2v-2.3h7.8V151.6z M212.2,154.3v-0.7h-1.8v0.7H212.2z    M212.2,155.8v-0.7h-1.8v0.7H212.2z M215.2,154.3v-0.7h-1.8v0.7H215.2z M215.2,155.8v-0.7h-1.8v0.7H215.2z"/>
	<path class="st0" d="M222.5,149.2c-0.2,0.6-0.4,1.1-0.6,1.5l-0.6,1.4v8.9h-1.2v-6.8c-0.4,0.5-0.7,0.9-0.9,1.1l-0.6-1.3   c1.1-1.4,2-3.1,2.6-5.1L222.5,149.2z M230.6,151.9h-4.2v2h3.9v1.1h-3.9v2h3.9v1.1h-3.9v2.8h-1.2v-9h-0.5c-0.7,1.3-1.3,2.3-2,3   l-0.9-0.8c1.2-1.4,2.1-3.1,2.7-5.1l1.2,0.3c-0.1,0.3-0.2,0.8-0.5,1.6h5.4V151.9z"/>
	<path class="st0" d="M237.9,156.6c-0.4-0.1-0.6-0.4-0.6-0.9c0-0.2,0.1-0.5,0.3-0.6c0.2-0.2,0.4-0.2,0.6-0.2c0.3,0,0.5,0.1,0.6,0.3   c0.2,0.2,0.2,0.4,0.2,0.7c0,0.5-0.4,1.1-1.2,1.7l-0.4-0.3C237.7,156.9,237.8,156.7,237.9,156.6z"/>
	<path class="st0" d="M250.7,159.5c-1.4,0.7-2.8,1.3-4.3,1.6l-0.6-1.2c1.4-0.3,2.7-0.7,3.9-1.3L250.7,159.5z M257.9,158.4H246v-1.1   h1.2v-8h9.3v8h1.3V158.4z M255.3,151.3v-0.9h-6.8v0.9H255.3z M255.3,153.3v-0.9h-6.8v0.9H255.3z M255.3,155.2v-0.9h-6.8v0.9H255.3z    M255.3,157.3v-1h-6.8v1H255.3z M258,160.1l-0.7,1c-1.3-0.7-2.7-1.2-4.1-1.5l0.7-1.1C255.4,159,256.8,159.5,258,160.1z"/>
	<path class="st0" d="M262.7,149.3l-0.8,2.8v8.9h-1.2v-6.4c-0.2,0.3-0.4,0.7-0.7,1l-0.6-1.3c1-1.6,1.7-3.4,2.1-5.4L262.7,149.3z    M271.5,153.4h-5.8c-0.1,0.3-0.3,0.6-0.4,0.9h5.8v5.8c0,0.3-0.1,0.5-0.3,0.7c-0.2,0.2-0.3,0.3-0.5,0.3c-0.2,0-0.6,0-1.3,0l-0.3-1   l1,0c0.1,0,0.1,0,0.2-0.1c0.1-0.1,0.1-0.2,0.1-0.2v-0.8h-1.8v2.2H267v-2.2H265c-0.2,0.8-0.7,1.6-1.5,2.3l-0.9-0.8   c1-0.8,1.5-2,1.5-3.6v-0.9c-0.4,0.4-0.9,0.8-1.4,1.3l-0.7-1c1-0.8,1.8-1.6,2.4-2.7h-2v-1.1h2.2v-1h-1.9v-1.1h1.9v-1.1h1.2v1.1h2.4   v-1.1h1.2v1.1h1.8v1.1h-1.8v1h2.1V153.4z M267,157.9v-0.8h-1.7l-0.1,0.8H267z M267,156.1v-0.8h-1.7v0.8H267z M268.2,152.3v-1h-2.4   v1H268.2z M270,156.1v-0.8h-1.8v0.8H270z M270,157.9v-0.8h-1.8v0.8H270z"/>
	<path class="st0" d="M12.2,179.2l-0.6,1.2c-2.2-0.5-4.1-1.1-5.5-1.9c-1.5,0.8-3.4,1.4-5.4,2l-0.6-1.1c1.8-0.4,3.4-0.9,4.8-1.6   c-0.7-0.6-1.3-1.1-1.8-1.6c-0.9,0.6-1.5,1.1-2,1.4l-0.9-0.9c1.9-1.1,3.3-2.3,4.2-3.4l1.3,0.5c-0.1,0.2-0.3,0.3-0.5,0.5h4.9v1.2   c-1,1-1.9,1.8-2.9,2.4C8.6,178.4,10.2,178.9,12.2,179.2z M10.4,185.3H9.1v-0.8H3.3v0.8H2v-4.7h8.4V185.3z M9.1,183.4v-1.7H3.3v1.7   H9.1z M8.4,175.4H4.1L4,175.5c0.7,0.7,1.4,1.2,2.1,1.6C7,176.5,7.7,176,8.4,175.4z"/>
	<path class="st0" d="M25.7,182.4c-0.2,2-0.7,3-1.7,3c-0.8,0-1.6-0.8-2.2-2.4c-0.6-1.6-1-3.7-1-6.2h-7v-1.1h7c0-0.9-0.1-1.7-0.1-2.2   H22c0,0.5,0,1.3,0.1,2.2h3.7v1.1h-3.6c0.1,2.6,0.3,4.4,0.8,5.6c0.5,1.2,0.9,1.8,1.1,1.8c0.3,0,0.4-0.8,0.5-2.4L25.7,182.4z    M20.7,183.2c-2.5,0.6-4.6,1.1-6.4,1.3l-0.3-1.1c0.8-0.1,1.7-0.2,2.7-0.4v-3.6h-2.2v-1.2h5.8v1.2H18v3.3c1.1-0.2,2-0.5,2.7-0.6   L20.7,183.2z M25.3,174.7l-0.9,0.8c-0.6-0.5-1.1-0.9-1.7-1.2l0.9-0.8C24.4,173.8,24.9,174.2,25.3,174.7z"/>
	<path class="st0" d="M39.5,179.2l-0.6,1.2c-2.2-0.5-4.1-1.1-5.5-1.9c-1.5,0.8-3.4,1.4-5.4,2l-0.6-1.1c1.8-0.4,3.4-0.9,4.8-1.6   c-0.7-0.6-1.3-1.1-1.8-1.6c-0.9,0.6-1.5,1.1-2,1.4l-0.9-0.9c1.9-1.1,3.3-2.3,4.2-3.4l1.3,0.5c-0.1,0.2-0.3,0.3-0.5,0.5h4.9v1.2   c-1,1-1.9,1.8-2.9,2.4C35.9,178.4,37.5,178.9,39.5,179.2z M37.7,185.3h-1.3v-0.8h-5.9v0.8h-1.2v-4.7h8.4V185.3z M36.4,183.4v-1.7   h-5.9v1.7H36.4z M35.7,175.4h-4.2l-0.1,0.1c0.7,0.7,1.4,1.2,2.1,1.6C34.3,176.5,35,176,35.7,175.4z"/>
	<path class="st0" d="M45.7,179.6l-0.9,0.9c-0.2-0.5-0.5-1-0.7-1.4v6.2H43v-5.7c-0.5,1-0.9,1.8-1.4,2.4l-0.6-1.4   c0.8-1,1.4-2.3,1.9-3.7h-1.8v-1.1H43v-2.4h1.2v2.4h1.1v1.1h-1.1v0.4C44.7,178,45.2,178.7,45.7,179.6z M48.3,182.8   c-0.7,1-1.6,1.8-2.7,2.4l-0.8-0.9c1-0.4,1.7-0.9,2.2-1.5h-1.6v-1h3V182.8z M53,178.5h-7.7v-0.9h3.2v-0.6h-2.7v-0.8h2.7v-0.5h-3   v-0.9h7.2v0.9h-3v0.5h2.7v0.8h-2.7v0.6H53V178.5z M53.3,184l-0.5,1c-1-0.5-2-1.2-2.8-2.1v1.4c0,0.2-0.1,0.4-0.2,0.6   c-0.1,0.2-0.3,0.3-0.5,0.4s-0.6,0.1-1.1,0.1c-0.2,0-0.3,0-0.5,0l-0.3-1c0.2,0,0.4,0,0.6,0c0.4,0,0.6,0,0.7-0.1   c0.1-0.1,0.1-0.1,0.1-0.3v-2.8h-3.2v-1H50v1.2c0.1,0.1,0.1,0.2,0.2,0.2c0.8-0.5,1.4-1,1.8-1.5l0.8,0.8c-0.5,0.5-1.1,1-1.9,1.5   C51.5,183,52.3,183.6,53.3,184z M48.8,174.2l-1.2,0.4c-0.4-0.4-0.7-0.7-1-0.9l1.2-0.4C48.2,173.5,48.5,173.8,48.8,174.2z    M51.5,179.2l-0.5,0.9c-1.1-0.3-2.5-0.5-4.1-0.6l0.4-0.9C49,178.8,50.4,179,51.5,179.2z M52,173.7c-0.3,0.3-0.6,0.6-1,0.9l-1.2-0.5   c0.4-0.2,0.8-0.5,1.1-0.9L52,173.7z"/>
	<path class="st0" d="M60.7,176.2l-0.7,1c-0.7-0.9-1.4-1.6-2-2.1c-0.4,0.6-0.8,1.3-1.4,1.9h3v1.1h-3.2v-0.9l-0.9,0.8l-0.8-0.9   c1.3-1.1,2.3-2.4,2.8-3.8l1.1,0.3c0,0.1-0.1,0.3-0.2,0.5C59.3,174.7,60,175.4,60.7,176.2z M60.2,180.1c0,0.1-0.2,0.4-0.5,1.1   c-0.3,0.7-0.7,1.4-1.2,2.1c0.4,0.5,0.8,0.9,1.1,1.3l-0.9,0.8c-0.9-1.1-1.9-2.2-3.2-3.2l0.8-0.7c0.4,0.3,0.8,0.6,1.3,1.1   c0.5-0.8,1-1.6,1.3-2.4h-4V179h5.2V180.1z M66.7,174.7h-2.4c-0.1,0.5-0.2,0.8-0.4,1.1h2.3v6.9h-3.6l0.7,0.6c-0.6,0.7-1.5,1.4-2.6,2   l-0.8-0.9c0.9-0.4,1.7-1,2.4-1.7H61v-6.9h1.7c0.2-0.4,0.3-0.7,0.4-1.1h-2.5v-1.1h6.2V174.7z M65,177.7v-0.9h-2.9v0.9H65z M65,179.7   v-0.9h-2.9v0.9H65z M65,181.6v-1h-2.9v1H65z M66.8,184.5l-0.7,0.9c-0.6-0.5-1.4-1-2.3-1.5l0.7-0.8C65.4,183.5,66.1,184,66.8,184.5z   "/>
	<path class="st0" d="M72.1,182.3c-0.9,0.6-2,1.2-3.4,1.8l-0.4-1.1c0.5-0.2,0.9-0.4,1.4-0.6v-4.4h-1.1v-1.1h1.1v-3.4h1.2v3.4h1v1.1   h-1v3.8c0.4-0.2,0.7-0.4,1.1-0.7L72.1,182.3z M76.3,182.5c-0.9,0.5-2.3,1-4.2,1.5l-0.2-1.2c1.7-0.4,3.1-0.9,4.3-1.5L76.3,182.5z    M80.5,182.7c-0.1,0.8-0.3,1.4-0.5,1.9c-0.2,0.5-0.6,0.7-0.9,0.7c-0.4,0-0.7-0.2-1-0.6c-0.3-0.4-0.5-0.9-0.7-1.4   c-0.6,0.7-1.2,1.4-1.9,2l-0.9-0.8c1-0.9,1.8-1.7,2.4-2.5c-0.3-1.8-0.5-3.7-0.5-5.7h-4.4v-1.1h4.3c0-0.5,0-0.9,0-1.1   c0-0.3,0-0.5,0-0.8l1.1,0c0,0.4,0,0.7,0,1.1c0,0.3,0,0.6,0,0.8h2.8v1.1h-2.8c0,1.1,0.1,2.5,0.3,4.2c0.5-1.1,0.9-2.1,1.2-3.3   l1.1,0.4c-0.6,1.9-1.2,3.4-2,4.5c0.1,0.5,0.3,0.9,0.4,1.2c0.2,0.3,0.3,0.5,0.4,0.5c0.1,0,0.1-0.1,0.2-0.4c0.1-0.3,0.2-0.7,0.2-1.3   L80.5,182.7z M75.8,181.1h-3.4v-3.9h3.4V181.1z M74.7,180v-1.8h-1.1v1.8H74.7z M79.9,174.3l-0.8,0.8c-0.4-0.4-0.8-0.7-1.2-1   l0.7-0.8C79.1,173.5,79.5,173.9,79.9,174.3z"/>
	<path class="st0" d="M87.3,185.2h-1.2v-0.9h-2.5v1h-1.2v-9.9h1.2c0.3-0.6,0.6-1.3,0.8-2.1l1.3,0.2c-0.1,0.4-0.3,1.1-0.6,1.9h2.2   V185.2z M86.1,179.1v-2.5h-2.5v2.5H86.1z M86.1,183.1v-2.9h-2.5v2.9H86.1z M93.9,175.4c0,1.3-0.1,3-0.1,5.1s-0.2,3.3-0.4,3.7   c-0.2,0.4-0.4,0.6-0.8,0.8c-0.3,0.2-1.2,0.3-2.5,0.3l-0.5-1.2l1.8,0c0.2,0,0.4-0.1,0.6-0.2c0.2-0.1,0.3-1.1,0.4-3   c0.1-1.8,0.1-3.3,0.1-4.3h-2.7c-0.4,1.1-0.9,2-1.4,2.8l-0.9-0.8c1-1.6,1.7-3.3,2.1-5.3l1.2,0.3c-0.1,0.5-0.2,1.1-0.5,1.9H93.9z    M91.9,181.5l-1.1,0.7c-0.6-1.2-1.2-2.2-1.9-2.9l1.1-0.7C90.9,179.7,91.5,180.7,91.9,181.5z"/>
	<path class="st0" d="M107.7,184.8H95.7v-1.2h5.3v-8.5h-4.7v-1.3h10.8v1.3h-4.7v8.5h5.3V184.8z"/>
	<path class="st0" d="M113.3,173.5c-0.2,0.6-0.4,1.1-0.6,1.5l-0.6,1.4v8.9h-1.2v-6.8c-0.4,0.5-0.7,0.9-0.9,1.1l-0.6-1.3   c1.1-1.4,2-3.1,2.6-5.1L113.3,173.5z M121.3,176.2h-4.2v2h3.9v1.1h-3.9v2h3.9v1.1h-3.9v2.8h-1.2v-9h-0.5c-0.7,1.3-1.3,2.3-2,3   l-0.9-0.8c1.2-1.4,2.1-3.1,2.7-5.1l1.2,0.3c-0.1,0.3-0.2,0.8-0.5,1.6h5.4V176.2z"/>
	<path class="st0" d="M135,184.3l-0.7,1c-1.3-0.6-2.5-1.2-3.4-1.9c-1.1,0.8-2.6,1.4-4.3,2l-0.7-1.1c1.6-0.5,2.9-1.1,3.9-1.7   c-0.9-0.9-1.7-2.1-2.6-3.6c-0.5,2.5-1.7,4.6-3.5,6.3l-0.8-1c1.2-1.1,2-2.2,2.5-3.4s0.9-3.2,1-6.1H124v-1.2h9.2   c-0.3,1.2-0.7,2.5-1.2,3.7h2.2c-0.4,2.4-1.2,4.2-2.4,5.4C132.7,183.2,133.7,183.8,135,184.3z M131.6,174.7h-3.8   c0,0.9-0.1,1.7-0.2,2.5h3.1C131,176.5,131.3,175.7,131.6,174.7z M132.7,178.4h-4.4c0.7,1.5,1.6,2.6,2.5,3.4   C131.7,181,132.3,179.9,132.7,178.4z"/>
	<path class="st0" d="M140.8,174.8h-0.5v10.5h-1.1v-2c-0.7,0.3-1.5,0.5-2.2,0.7l-0.4-1.1c0.1,0,0.4-0.1,0.7-0.2v-7.9h-0.6v-1.1h4   V174.8z M139.2,176.5v-1.7h-0.8v1.7H139.2z M139.2,179.4v-1.7h-0.8v1.7H139.2z M139.2,182.1v-1.6h-0.8v1.9   C138.7,182.3,138.9,182.2,139.2,182.1z M148.8,182.8c-0.1,1.1-0.3,1.8-0.5,2.1c-0.2,0.3-0.5,0.5-0.8,0.5c-0.3,0-0.5-0.1-0.7-0.3   c-0.2-0.2-0.4-0.6-0.6-1.2c-0.5,0.5-1,1.1-1.6,1.6l-0.8-0.7c0.8-0.7,1.5-1.4,2.1-2.2c-0.2-1.2-0.3-2.6-0.3-4.2h-4.7v-1.1h1   c-0.1-0.5-0.2-1-0.4-1.6h-0.4v-1.1h1.4c-0.1-0.3-0.2-0.6-0.4-1l1.1-0.2c0.2,0.4,0.3,0.8,0.4,1.2h1.4v1.1h-0.4   c-0.1,0.6-0.3,1.1-0.4,1.6h1.1c0-1.8,0-3.1,0-3.8h1.1c0,1.4,0,2.7,0,3.8h2v1.1h-2c0,0.9,0,1.8,0.1,2.7c0.4-0.8,0.6-1.5,0.7-2.2   l1,0.4c-0.4,1.4-0.9,2.5-1.5,3.5c0.1,0.4,0.2,0.7,0.3,1s0.2,0.4,0.2,0.4c0,0,0.1-0.2,0.1-0.5s0.1-0.8,0.1-1.4L148.8,182.8z    M144.8,183.7h-3.5v-4.9h3.5V183.7z M143.7,180.7v-0.8h-1.3v0.8H143.7z M143.7,182.7v-1h-1.3v1H143.7z M143.7,175.6h-1.1   c0.1,0.6,0.2,1.1,0.3,1.6h0.3C143.5,176.5,143.6,176,143.7,175.6z M148.6,176.3l-1,0.4c-0.1-0.7-0.3-1.5-0.7-2.5l1-0.4   C148.2,174.6,148.4,175.4,148.6,176.3z"/>
	<path class="st0" d="M154.8,180.2l-0.8,1c-0.2-0.4-0.5-0.9-0.7-1.2v5.4h-1.2v-4.8c-0.3,0.8-0.7,1.5-1,2.1l-0.8-1.2   c0.9-1.3,1.5-2.5,1.8-3.6h-1.7v-1.1h1.7V175c-0.6,0.1-1,0.2-1.3,0.2l-0.4-1.1c1.4-0.2,2.6-0.4,3.5-0.8l0.6,1   c-0.6,0.2-1,0.4-1.3,0.4v2h1.2v1.1h-1.2v0.2C153.7,178.7,154.2,179.4,154.8,180.2z M162.3,185.1h-7.9V184h3.4v-0.8h-3v-1h3v-0.8   h-2.7v-4.3h2.7v-0.8h-3.2v-1h3.2v-0.7c-0.7,0.1-1.6,0.1-2.7,0.1l-0.3-1c2.3,0.1,4.4-0.2,6.5-0.6l0.5,0.9c-0.9,0.2-1.8,0.3-2.9,0.5   v0.8h3.2v1H159v0.8h2.7v4.3H159v0.8h3v1h-3v0.8h3.3V185.1z M157.8,178.8v-0.8h-1.6v0.8H157.8z M157.8,180.5v-0.8h-1.6v0.8H157.8z    M160.5,178.8v-0.8H159v0.8H160.5z M160.5,180.5v-0.8H159v0.8H160.5z"/>
	<path class="st0" d="M169.6,180.9c-0.4-0.1-0.6-0.4-0.6-0.9c0-0.2,0.1-0.5,0.3-0.6c0.2-0.2,0.4-0.2,0.6-0.2c0.3,0,0.5,0.1,0.6,0.3   c0.2,0.2,0.2,0.4,0.2,0.7c0,0.5-0.4,1.1-1.2,1.7l-0.4-0.3C169.4,181.2,169.5,181,169.6,180.9z"/>
	<path class="st0" d="M189.7,184l-0.4,1.1c-0.9,0-1.6,0-2.2,0c-1.3,0-2.3,0-3.2-0.1c-0.9-0.1-1.6-0.2-2.2-0.5s-1.1-0.7-1.5-1.2   c-0.7,1-1.3,1.7-1.9,2.1l-0.8-1c1.1-0.7,1.9-1.9,2.6-3.6l1.2,0.3c-0.1,0.4-0.3,0.8-0.5,1.2c0.5,0.7,1.2,1.2,2.3,1.5v-3.5h-5.5v-1.1   h11.9v1.1h-5.2v1.2h4.5v1.1h-4.5v1.3C185.3,184,187,184,189.7,184z M188.1,178.4h-8.8v-4.8h8.8V178.4z M186.8,175.5v-0.8h-6.3v0.8   H186.8z M186.8,177.3v-0.8h-6.3v0.8H186.8z"/>
	<path class="st0" d="M203.2,185h-11.8v-1.1h2v-7.1h7.8v7.1h2V185z M203,177.7h-1.2v-2.1h-8.8v2.1h-1.2v-3.2h4.9l-0.6-1l1.4-0.2   c0.2,0.3,0.4,0.7,0.6,1.3h5V177.7z M200,179.2v-1.3h-5.3v1.3H200z M200,181.5v-1.3h-5.3v1.3H200z M200,183.9v-1.3h-5.3v1.3H200z"/>
	<path class="st0" d="M208.8,173.9c-1.1,1.4-2.2,2.4-3.3,3.1l-0.6-1.1c0.9-0.5,1.9-1.3,2.9-2.6L208.8,173.9z M208.9,176.6   c-0.3,0.6-0.6,1.2-1,1.7v6.9h-1.2v-5.3c-0.5,0.5-0.8,0.8-1.1,1l-0.6-1.1c1-0.8,1.9-2,2.9-3.7L208.9,176.6z M216.9,181.5h-1.6v2.5   c0,0.8-0.6,1.2-1.7,1.2c-0.3,0-0.6,0-0.9,0l-0.3-1.1c0.4,0,0.7,0,1,0c0.3,0,0.5,0,0.6-0.1c0.1-0.1,0.1-0.2,0.1-0.4v-2.2h-5.8v-1.1   h5.8v-0.8h-5.5v-1.1h7.9v1.1h-1.2v0.8h1.6V181.5z M216,177.8h-6.8v-4.3h6.8V177.8z M212.3,183.3l-0.9,0.8c-0.7-0.7-1.3-1.3-1.9-1.6   l0.8-0.8C210.9,182,211.6,182.5,212.3,183.3z M214.9,175.2v-0.6h-4.4v0.6H214.9z M214.9,176.8v-0.6h-4.4v0.6H214.9z"/>
	<path class="st0" d="M225.6,180.4l-0.6,1.1c-0.5-0.7-1.2-1.4-2.1-2.2v5.9h-1.2v-5.7c-0.7,1.5-1.6,2.6-2.5,3.6l-0.6-1.2   c1.3-1.1,2.3-2.6,3-4.3h-2.7v-1.2h2.8v-1.4c-0.6,0.1-1.3,0.1-2.1,0.1l-0.5-1.2c2.1,0,3.9-0.3,5.4-0.8l0.7,1   c-0.6,0.2-1.4,0.4-2.3,0.6v1.5h2.5v1.2h-2.5v0.4C223.8,178.6,224.7,179.4,225.6,180.4z M227.4,182.9h-1.2v-8.6h1.2V182.9z    M230.2,183.8c0,1-0.5,1.5-1.6,1.5l-1.5,0l-0.4-1.3c0.4,0,1.1,0,2.1,0c0.2,0,0.3-0.1,0.3-0.3v-10.3h1.2V183.8z"/>
	<path class="st0" d="M244.2,179.6h-11.9v-1.2h11.9V179.6z"/>
	<path class="st0" d="M257.9,184.4l-0.7,1c-2.7-1.7-4.5-4-5.3-6.9c-0.8,2.7-2.6,5-5.3,6.8l-0.7-1.1c2.8-1.8,4.5-4,5.1-6.7h-4.8   l0-1.2h5c0.1-1,0.2-1.9,0.2-2.9h1.2c0,1.2-0.1,2.2-0.1,2.9h5.3v1.2h-4.9C253.5,180.5,255.2,182.8,257.9,184.4z"/>
	<path class="st0" d="M264.2,177.2h-1.1v2.3c0.2-0.1,0.5-0.2,1-0.3l0,1.2l-1,0.3v4.5h-1.2v-4.1c-1,0.3-1.7,0.4-2.2,0.5l-0.2-1.2   c0.7-0.1,1.5-0.3,2.4-0.6v-2.7h-0.8c-0.2,0.8-0.3,1.4-0.5,2l-1.1-0.5c0.4-1.1,0.7-2.5,0.8-4.3l1.1,0.2c0,0.3-0.1,0.8-0.1,1.4h0.6   v-2.6h1.2v2.6h1.1V177.2z M271.6,180.8h-1.3v3.3c0,0.3-0.1,0.6-0.2,0.7c-0.1,0.2-0.3,0.3-0.5,0.3s-0.5,0.1-1,0.1   c-0.3,0-0.7,0-1.1,0l-0.3-1.2c0.5,0,0.8,0,1.2,0c0.4,0,0.7,0,0.7-0.1c0.1,0,0.1-0.1,0.1-0.2v-3h-4.5v-1.1h4.5v-0.9h1.2v0.9h1.3   V180.8z M271.5,175.9h-2.8v1.4h2.5l0,1.1h-6.3v-1.1h2.6v-1.4h-2.9v-1.1h2.9v-1.4h1.2v1.4h2.8V175.9z M267.8,183l-1.1,0.7   c-0.4-0.7-1-1.3-1.7-1.9l1.1-0.7C266.8,181.7,267.3,182.3,267.8,183z"/>
	<path class="st0" d="M12.1,206.6c0,0.7-0.1,1.4-0.4,1.9c-0.3,0.5-0.7,0.8-1.3,0.9c-0.6,0.1-1.9,0.1-3.8,0.1c-0.9,0-1.7,0-2.5,0   c-0.8,0-1.3-0.1-1.5-0.1c-0.2,0-0.4-0.1-0.5-0.3c-0.2-0.1-0.3-0.3-0.4-0.5c-0.1-0.2-0.1-0.5-0.1-0.9v-5.9c-0.2,0.1-0.5,0.3-0.8,0.5   L0,201.4c1.8-1,3.2-2.3,4.2-3.9l1.2,0.3c-0.1,0.2-0.3,0.5-0.4,0.7h4.6v1.2c-0.5,0.5-1,1-1.6,1.6h3.3v4.3H2.8v2.1   c0,0.1,0,0.2,0.1,0.3s0.1,0.2,0.2,0.2c0.1,0,0.5,0.1,1.3,0.1H7l3,0c0.3,0,0.5-0.1,0.7-0.4c0.2-0.2,0.3-0.8,0.3-1.7L12.1,206.6z    M7.8,199.7H4c-0.5,0.5-1.1,1.1-1.7,1.6h3.9C6.7,200.8,7.3,200.3,7.8,199.7z M5.8,204.4v-2h-3v2H5.8z M10,204.4v-2H7v2H10z"/>
	<path class="st0" d="M19.8,202.1c0.4,0,0.8,0.1,1.1,0.4c0.3,0.3,0.4,0.7,0.4,1.1c0,0.4-0.2,0.8-0.5,1.1c-0.3,0.3-0.7,0.4-1.1,0.4   c-0.4,0-0.7-0.1-1.1-0.4c-0.3-0.3-0.5-0.7-0.5-1.1c0-0.4,0.1-0.8,0.5-1.1C19,202.3,19.4,202.1,19.8,202.1z M19.8,204.5   c0.2,0,0.4-0.1,0.5-0.2s0.2-0.3,0.2-0.6c0-0.2-0.1-0.4-0.2-0.6c-0.1-0.2-0.3-0.2-0.6-0.2c-0.2,0-0.4,0.1-0.6,0.2   c-0.1,0.2-0.2,0.3-0.2,0.6c0,0.2,0.1,0.4,0.2,0.6C19.4,204.4,19.6,204.5,19.8,204.5z"/>
</g>
<rect x="4.8" class="st0" width="275" height="2"/>
<rect x="4.8" y="53.7" class="st0" width="275" height="2"/>
</svg>