<?xml version="1.0" encoding="utf-8"?>
<!-- Generator: Adobe Illustrator 24.0.1, SVG Export Plug-In . SVG Version: 6.00 Build 0)  -->
<svg version="1.1" id="圖層_1" xmlns="http://www.w3.org/2000/svg" xmlns:xlink="http://www.w3.org/1999/xlink" x="0px" y="0px"
	 width="313.6px" height="55.9px" viewBox="0 0 313.6 55.9" style="enable-background:new 0 0 313.6 55.9;" xml:space="preserve">
<g>
	<g>
		<path d="M103.9,0.7l3,0.8c-0.4,1.7-1,3.4-1.7,5V25h-2.9V12.5c-0.3,0.5-0.5,0.9-0.8,1.3l-1.6-3.1C101.8,7.5,103.2,4.2,103.9,0.7z
			 M106.3,4.7h7.6v2.6h-7.6V4.7z M106.8,8.3h6.6v2.6h-6.6V8.3z M113.6,15.9v8.7h-2.6v-0.9h-1.6V25h-2.6v-9.2L113.6,15.9L113.6,15.9z
			 M106.8,11.9h6.5v1.5c0.7-0.6,1.5-1.3,2.2-2h-1.9V8.7h2.8V6.1h-1.9V3.5h1.9V0.7h2.6v2.9h1.9v1.7c0.5-0.8,1-1.5,1.4-2.2l2.2,1.3
			c-0.8,1.5-1.7,2.9-2.8,4.4h2.8v2.7h-5.2c-0.5,0.6-1.1,1.1-1.6,1.6h6v12h-2.7V24h-3.5v1h-2.7v-9.5c-0.2,0.2-0.5,0.4-0.7,0.5
			l-1.1-1.5h-6.2V11.9z M107.3,1.1h5.9v2.6h-5.9V1.1z M109.3,21.1h1.6v-2.6h-1.6V21.1z M117.6,17.2h3.5v-1.6h-3.5V17.2z M117.6,21.5
			h3.5v-1.7h-3.5V21.5z M119.1,7.7c0.4-0.5,0.8-1,1.2-1.5h-1.2V7.7z"/>
		<path d="M134.6,0.6l2.9,0.9c-0.6,2.1-1.4,4.2-2.3,6.2v14.1c0.7-1.1,1.2-2.3,1.6-3.7c0.5-1.6,0.8-4.6,0.9-8.8h-1V6.9h4.5V5h-3.4
			V2.5h3.4V0.6h3v1.9h2.8V0.6h3v1.9h3.4V5h-3.4v1.9h4.2v2.4h-14c-0.2,4.9-0.5,8.3-1,10.2c-0.5,2-1.3,3.7-2.4,5.1l-1.7-1.3V25h-2.7
			V12.9c-0.4,0.7-0.8,1.3-1.3,1.8l-1.6-3C131.9,8.2,133.4,4.5,134.6,0.6z M153.3,10.4V22c0,2-1.1,3-3.3,3h-0.9l-0.5-2.7
			c0.5,0.2,1,0.2,1.5,0.2c0.4,0,0.6-0.4,0.6-1.2v-0.8h-2.2v4h-2.7v-4h-2.2v4.4h-2.7V10.4H153.3z M143.4,14.4h2.2v-1.6h-2.2V14.4z
			 M143.4,18.2h2.2v-1.5h-2.2V18.2z M144.1,6.9h2.9V5h-2.9V6.9z M148.4,12.8v1.6h2.2v-1.6H148.4z M148.4,16.7v1.5h2.2v-1.5H148.4z"
			/>
		<path d="M171.1,0.7h3.1v1.7h9.7v3h-19.4v8c0,2.2-0.2,4.4-0.6,6.5c-0.3,1.7-0.8,3.4-1.4,5.2l-3-1.8c0.7-2.2,1.2-4.1,1.4-5.6
			c0.3-2,0.4-3.9,0.4-5.9V2.4h9.8C171.2,2.4,171.2,0.7,171.1,0.7z M171.3,6h3.1v2.5h8.8v3h-8.8v2.7h8.1v11h-3.2v-1.1h-10.6v1.1h-3.2
			v-11h5.8V6z M168.6,21.2h10.8V17h-10.8V21.2z"/>
		<path d="M210.6,1.1v2.8h-15v1.2h14.3v2.7h-14.2V9h14.2v2.7h-14.2v1.1h17.7v3h-3.6l1.6,2.1c-1.3,0.9-2.7,1.7-4.2,2.3
			c0.2,0.1,0.3,0.2,0.5,0.2c1.5,0.7,3.4,1.3,5.9,1.9l-1.7,3.1c-2.4-0.6-4.7-1.6-7-2.8c-1.7-1-3.1-2.1-4.2-3.5c-0.8-1-1.5-2.1-2-3.3
			h-2.9V21c1.8-0.3,3.4-0.7,5-1l0.4,2.7c-3.1,0.9-6.6,1.7-10.3,2.4l-1.1-3.1c1-0.1,1.9-0.3,2.8-0.4v-5.8h-3.2v-3h3.2V1.1H210.6z
			 M204.1,18.3c1.6-0.6,3.2-1.5,4.7-2.5h-6.9c0.5,0.9,1.1,1.6,1.8,2.2C203.9,18.1,204.1,18.2,204.1,18.3z"/>
	</g>
</g>
<g>
	<path d="M65.8,55.6h-3.2c-1.1-1.8-1.9-3.9-2.5-6.2c-0.6-2.4-0.9-4.6-0.9-6.6s0.3-4.2,0.9-6.6c0.6-2.3,1.5-4.4,2.5-6.2h3.2
		c-2.4,4.9-3.6,9.2-3.6,12.8C62.2,46.4,63.3,50.7,65.8,55.6z"/>
	<path d="M71,33.3h7.1c0.4-0.9,0.8-1.8,1.1-2.8l3,0.7c-0.2,0.7-0.5,1.4-0.7,2.1h12.6v2.9H80.2c-0.4,0.7-0.8,1.4-1.2,2.1h13.3v12.9
		c0,2.6-1.2,3.9-3.5,3.9c-0.8,0-1.7-0.1-2.8-0.4l-0.6-3.3c1,0.4,1.9,0.6,2.8,0.6c0.6,0,1-0.7,1-2.1H78.5v5.2h-3.1v-12
		c-0.9,1.1-1.9,2-2.9,2.8l-2.3-2.2c1.9-1.7,3.6-3.6,5.1-5.7c0.4-0.6,0.8-1.2,1.1-1.8h-5.6v-2.9H71z M89.2,42.8v-1.5H78.5v1.5H89.2z
		 M89.2,47.1v-1.5H78.5v1.5H89.2z"/>
	<path d="M101.3,32.5h21.8v3.1h-9.3v15.2h10.4v3.1h-23.9v-3.1h10.2V35.5h-9.2V32.5z"/>
	<path d="M134.8,30.7l3,0.9c-0.5,1.9-1.2,3.7-2,5.4v17.9h-3.1V42.8c-0.5,0.7-0.9,1.4-1.4,2l-1.7-3.2C132,38.1,133.6,34.5,134.8,30.7
		z M140.8,30.8l3.1,0.8c-0.2,0.8-0.5,1.6-0.8,2.4h11v3h-9.1v2.9h7.7v3h-7.7V46h8v2.9h-8v6h-3.1v-18h-0.2c-0.1,0.2-0.1,0.3-0.2,0.5
		c-0.9,1.8-2,3.4-3.1,4.7l-2.1-2.3c1.1-1.4,2-2.8,2.7-4.2C139.6,33.9,140.3,32.3,140.8,30.8z"/>
	<path d="M160.4,45.4l2.7,0.7c-0.4,2.5-0.8,4.7-1.3,6.4l-2.7-0.8C159.5,49.6,160,47.5,160.4,45.4z M163.5,30.6l2.7,1.2
		c-0.9,1.9-1.8,3.5-2.6,4.8c0.3,0.3,0.6,0.5,0.9,0.8c0.7-1.2,1.4-2.5,1.9-3.7l2.7,1.2c-0.9,1.7-1.8,3.3-2.7,4.7l2.1-0.7
		c0.7,1.7,1.3,3.5,1.7,5.5l-2.9,0.9c-0.1-0.4-0.1-0.9-0.2-1.3c-0.4,0.1-0.7,0.1-1.1,0.2V55h-3V44.6c-1,0.2-2.1,0.3-3.1,0.4l-0.6-3.1
		c0.8-0.1,1.5-0.1,2.2-0.2c0.4-0.6,0.8-1.2,1.2-1.7c-1.2-1.1-2.4-2.2-3.6-3.4l1.8-2.2c0.2,0.1,0.3,0.2,0.4,0.3
		C162.1,33.4,162.9,32,163.5,30.6z M166.5,41.3c-0.1-0.5-0.3-0.9-0.4-1.3c-0.3,0.5-0.6,1-0.9,1.4C165.6,41.4,166,41.4,166.5,41.3z
		 M169,45.3c0.6,1.6,1,3.3,1.4,5.2l-2.9,0.9c-0.2-2-0.6-3.7-1.2-5.3L169,45.3z M171.5,34.5l2.7,0.8c-0.5,1.7-1.2,3.1-1.8,4.4
		c0.8,1.4,1.5,2.8,2.2,4.2l-3,1.1c-0.6-1.8-1.4-3.5-2.4-5.1C170.1,38.2,171,36.4,171.5,34.5z M170.5,45.3h12.3v2.9h-4.6v3.6h5.4v2.8
		h-14.1v-2.8h5.6v-3.6h-4.6V45.3L170.5,45.3z M170,31.3h13.3v2.8H170V31.3z M176.4,34.6l2.8,1.1c-0.7,1.5-1.4,2.9-2.2,4
		c0.9,1.2,1.6,2.5,2.3,3.9l-2.8,1.5c-0.7-1.9-1.6-3.6-2.7-5.2C174.8,38.2,175.5,36.5,176.4,34.6z M180.8,34.7l2.8,1.1
		c-0.7,1.5-1.4,2.8-2.1,3.9c0.8,1.2,1.6,2.5,2.2,3.9l-2.8,1.4c-0.7-1.9-1.6-3.6-2.7-5.2C179.1,38.3,180,36.5,180.8,34.7z"/>
	<path d="M189.5,47l2.1,0.5c0,0.1,0,0.1,0,0.2l1.5-0.4c0.3,1.4,0.5,2.8,0.6,4.1l-2,0.5c0-1.1-0.1-2.2-0.2-3.3
		c-0.1,1.4-0.4,2.8-0.7,4l-2-0.9C189.3,50.2,189.5,48.6,189.5,47z M206.6,30.4l2,1.7c-0.1,0.1-0.2,0.2-0.3,0.3
		c0.7,0.5,1.4,1,2.1,1.5c1.1,0.7,2.1,1.2,3.2,1.7l-1.5,2.7c-0.5-0.3-1.1-0.6-1.6-0.9v1.2h-7.8v-1.5c-0.8,0.5-1.6,0.9-2.3,1.3l-1.2-2
		v1.4h-2.4V39h2.4v2.6h-2.4v1.2h3.3c0,4.1-0.2,7.4-0.6,9.7c0.8-0.8,1.4-1.7,1.8-2.5c0.5-1,0.8-2,1-3.1h-1.8v-7.7h6.1v7.7h-3.8
		l2.2,0.5c-0.1,0.5-0.2,1.1-0.3,1.5c0.6,0.5,1.3,1,2,1.5l-1.6,2.4c-0.5-0.4-1-0.8-1.5-1.2c-0.6,1.1-1.3,2.2-2.2,3.1l-2-1.9
		c0,0.1,0,0.3-0.1,0.4c-0.1,0.5-0.4,1-0.9,1.3c-0.5,0.3-1,0.4-1.7,0.4c-0.6,0-1.2-0.1-1.9-0.2l-0.3-3.2c0.9,0.3,1.6,0.4,2.2,0.4
		c0.1,0,0.2-0.1,0.2-0.2c0.1-0.1,0.1-0.4,0.2-0.9c0-0.2,0-0.4,0-0.6l-0.9,0.3c-0.2-1.5-0.5-2.8-0.8-4l1.6-0.4
		c0.1,0.3,0.2,0.6,0.3,0.9c0-0.5,0.1-1,0.1-1.5h-5.1v0.6h-2.8V31h10.1v2.7h-2.8v1.4h2.4v0.6c1.1-0.5,2.4-1.3,3.8-2.2
		C204.4,32.5,205.6,31.4,206.6,30.4z M194,35.1v-1.4h-1.7v1.4H194z M194,39v-1.3h-1.7V39H194z M194,42.9v-1.2h-1.7v1.2H194z
		 M195.1,46.7c0.4,1.4,0.7,2.8,0.8,4.2l-1.8,0.4c-0.2-1.5-0.5-2.9-0.8-4.2L195.1,46.7z M203,44.2h1.1V42H203V44.2z M204.6,35.7h3.6
		c-0.7-0.5-1.2-1-1.8-1.6c-0.5,0.5-1.1,1-1.7,1.5C204.8,35.7,204.6,35.7,204.6,35.7z M207.1,39.2h6V47h-4.4l2.3,0.5
		c-0.1,0.8-0.3,1.5-0.4,2.1c0.4,0.4,0.7,0.7,1,1c0.6,0.5,1.2,0.9,1.8,1.2l-1.6,2.9c-0.6-0.5-1.2-1-1.8-1.7c-0.2-0.2-0.4-0.4-0.6-0.6
		c-0.5,0.9-1,1.7-1.7,2.5l-2.2-2.1c0.8-0.9,1.4-1.8,1.8-2.7c0.5-1,0.8-2,0.9-3.1H207L207.1,39.2L207.1,39.2z M209.6,44.3h0.9V42
		h-0.9V44.3z"/>
	<path d="M221.4,32.5h6.9v-1.9h3v1.9h6.5v2.3c1.2-0.8,2.3-1.7,3.3-2.6l2,2.2c-1.2,1.1-2.5,2-3.7,2.9h3.7v3h-8.4
		c-0.7,0.4-1.5,0.8-2.2,1.2c-0.7,0.4-1.4,0.7-2.1,1h10.3v12.3h-3.1v-0.7h-10.8v0.7h-3v-9.6c-1.4,0.6-2.9,1.1-4.4,1.6l-1.3-2.9
		c3.6-1.1,7-2.3,10-3.7h-9.2v-3h9.4v-2h-6.9V32.5z M226.8,47.1h10.8v-1.7h-10.8V47.1z M226.8,51.5h10.8v-1.7h-10.8V51.5z
		 M233.8,37.4c1.1-0.7,2.2-1.3,3.2-2h-5.7v2H233.8z"/>
	<path d="M254.5,42.8c0,2.1-0.3,4.3-0.9,6.6c-0.6,2.3-1.5,4.4-2.5,6.2h-3.3c2.4-4.9,3.6-9.2,3.6-12.8c0-3.6-1.2-7.9-3.6-12.8h3.3
		c1.1,1.8,1.9,3.9,2.5,6.2C254.1,38.5,254.5,40.7,254.5,42.8z"/>
</g>
</svg>
