<?xml version="1.0" encoding="UTF-8"?>
<!-- Generator: Adobe Illustrator 21.0.2, SVG Export Plug-In . SVG Version: 6.00 Build 0)  -->
<svg version="1.1" id="圖層_1" xmlns="http://www.w3.org/2000/svg" xmlns:xlink="http://www.w3.org/1999/xlink" x="0px" y="0px" width="486.5px" height="189.7px" viewBox="0 0 486.5 189.7" style="enable-background:new 0 0 486.5 189.7;" xml:space="preserve">
<style type="text/css">
	.st0{fill:#FFFFFF;}
	.st1{opacity:0.5;fill:none;stroke:#FFFFFF;stroke-miterlimit:10;}
</style>
<g>
	<g>
		<g>
			<path class="st0" d="M146.7,20.7h5.2v-8.2h5.4v8.2h4.4v5.4h-4.4v6.3c1.1-0.4,2.2-0.8,3.2-1.2l0.8,4.6c-1.3,0.7-2.6,1.3-4,2v11.8     c0,2.7-0.4,4.5-1.1,5.5c-0.9,1.1-2.5,1.7-4.8,1.7c-1.4,0-2.6-0.1-3.8-0.4l-1-5.6c1.3,0.4,2.7,0.5,4,0.5c0.6,0,0.9-0.2,1.1-0.6     c0.2-0.5,0.2-1.4,0.2-2.4V40c-1.2,0.5-2.5,0.9-3.8,1.3l-1.9-5.7c2-0.5,3.9-1,5.7-1.6v-8h-5.2V20.7z M162.2,34.5h10.3v-4.2h5.6     v4.2h11.4v5.2h-8.2c2.5,3.8,5.5,6.8,9,9.1l-3.1,5.4c-2-1.8-3.9-3.9-5.9-6.4c-1.1-1.5-2.2-3-3.3-4.6v13.5h-5.6V43.8     c-0.5,0.9-1.1,1.7-1.8,2.6c-2.2,3.1-4.8,5.6-7.8,7.8l-3.6-4.5c2.8-1.9,5.3-4,7.3-6.4c1.1-1.3,2-2.6,2.7-3.7h-7.2V34.5z      M187.1,12.5l2.5,4.8c-7.7,1.3-16.4,2.4-26,3.2l-1.9-5.1C170.9,14.7,179.4,13.7,187.1,12.5z M167.5,21.3c1.3,2.4,2.3,5.1,3,8     l-5.1,1.7c-0.6-3-1.6-5.8-2.9-8.2L167.5,21.3z M176.3,20.2c1.3,2.2,2.3,4.6,3,7.3l-5.1,1.7c-0.6-2.7-1.6-5.2-2.9-7.4L176.3,20.2z      M184.6,19l5.4,1.7c-1.5,4.5-3.1,8.3-5,11.3l-5.1-2.7C182,25.9,183.6,22.4,184.6,19z"/>
			<path class="st0" d="M205.5,14.2H240v34.3c0,4.9-2.2,7.4-6.5,7.4c-1.2,0-2.6-0.1-4.2-0.2l-1.4-6.3c1.6,0.5,3.2,0.8,4.6,0.8     c1.1,0,1.7-1.3,1.7-3.8V42h-10v13.4h-5.7V42h-10.6c-0.2,1.7-0.5,3.3-0.9,4.9c-0.7,3.2-1.9,6.4-3.6,9.7l-5.2-3.1     c1.8-4.1,3-7.6,3.6-10.6c0.7-3.7,1.1-7.3,1.1-11V14.2H205.5z M208.3,36.4h10.2v-5.8h-10.1v4C208.3,35.3,208.3,35.9,208.3,36.4z      M208.3,25.1h10.1v-5.3h-10.1V25.1z M224.2,19.8v5.3h10v-5.3H224.2z M224.2,30.6v5.8h10v-5.8H224.2z"/>
			<path class="st0" d="M250.1,21.3l4.4,1.1c-0.3,5.1-1,9.8-2.1,14.2l-4.4-2.2C249.1,29.9,249.8,25.6,250.1,21.3z M254.8,12.5h5.2v7     l3.2-1.6c1.2,2.5,2.2,5.2,3.1,8.2l-4.8,2.1c-0.4-1.8-0.9-3.6-1.5-5.3v33.8h-5.2V12.5z M265,14.9h10.9v-2.5h5.6v2.5H293v5h-11.5     v1.6h9.6v4.8h-9.6v1.3h12.1v5h-28.9v-5h11.2v-1.3h-8.9v-4.8h8.9v-1.6H265V14.9z M291.6,33.8v16.8c0,4.1-2.5,6.1-7.5,6.1h-3.2     l-1.2-5.4c1.6,0.3,3.1,0.4,4.4,0.4c1.1,0,1.8-0.5,2-1.5h-14.5v6.5h-5.3v-23H291.6z M271.7,39.9h14.5v-1.1h-14.5V39.9z      M271.7,45.6h14.5v-1.1h-14.5V45.6z"/>
			<path class="st0" d="M301.9,16.9h7v-4.2h5.4v4.2h7.3v5h-7.3v3.4h8.2v5h-2.4c-0.5,1.7-1,3.3-1.7,4.8h3.2v5h-7.3v3.1h8.2v5h-8.2     v8.4h-5.4v-8.4h-8v-5h8V40h-7v-5h2.9c-0.4-1.4-0.9-2.7-1.4-3.9l2-0.9h-4.7v-5h8.2v-3.4h-7V16.9z M307.9,35h5     c0.6-1.6,1.2-3.2,1.6-4.8h-6.1c0.7,1.2,1.2,2.5,1.7,3.9L307.9,35z M326,13.7h17.2v9.8c0,3.9-1.9,5.9-5.7,5.9h-3.6l-1.1-5.5     c1.3,0.3,2.4,0.4,3.3,0.4c1,0,1.5-0.6,1.5-1.8v-3.6h-8.8v11.7h15.5v3.9c-1.2,5.6-2.7,9.9-4.5,13c1.5,1.8,3.2,3.3,5,4.6l-3.8,4.8     c-1.6-1.3-3.1-2.9-4.5-4.6c-1.7,2-3.6,3.5-5.7,4.6l-2.1-4v4h-5.4V13.7H326z M328.7,51.2c1.8-1,3.3-2.3,4.5-3.8     c-0.1-0.1-0.1-0.3-0.2-0.4c-1.9-3.4-3.2-7.3-3.9-11.5h-0.4V51.2z M334.2,35.4c0.5,2.4,1.2,4.6,2.2,6.7c0.9-2,1.6-4.2,2.2-6.7     H334.2z"/>
		</g>
	</g>
	<g>
		<g>
			<path class="st0" d="M4.1,141.9l1.4,0.7c-0.6,1.2-1.2,2.2-1.8,2.9v8.7H2v-7c-0.5,0.4-1,0.8-1.5,1.3L0,146.6     c0.8-0.6,1.6-1.3,2.2-2C2.9,144,3.5,143.1,4.1,141.9z M4.2,137l1.5,0.9c-0.7,1-1.3,1.7-1.9,2.2c-0.7,0.6-1.6,1.3-2.7,1.9     l-0.9-1.6c0.8-0.3,1.6-0.8,2.3-1.5C3.1,138.4,3.7,137.8,4.2,137z M14,137l1.8,0.3c-0.3,1.1-0.5,2-0.8,2.7     c0.8,0.5,1.6,1.1,2.5,1.7l-1.1,1.6c-0.8-0.8-1.5-1.5-2-1.9c-0.4,0.8-1,1.5-1.7,2.4h0.1v2.7h3.9v1.7h-3.9v4.3     c0.6,0.1,1.2,0.1,1.9,0.1c1,0,2,0,3.1-0.1l-0.3,1.9c-3.6,0-5.8-0.2-6.8-0.5c-0.8-0.2-1.6-0.7-2.4-1.5c-0.4-0.3-0.7-0.8-1-1.3     c-0.5,1.1-1.1,2.2-1.8,3.3l-1.4-1.2c0.9-1.5,1.6-2.9,2-4.1c0.4-1,0.6-2.4,0.7-4l1.7,0.2c-0.2,1.6-0.4,2.9-0.6,3.8     c0.4,1.1,1,1.9,1.6,2.4c0.4,0.3,0.8,0.6,1.3,0.8v-8.2h1.3l-1.1-1.3c0.8-0.8,1.4-1.7,1.8-2.4C13.4,139.3,13.8,138.3,14,137z      M8.3,137.1l1.7,0.2c-0.2,1-0.5,1.7-0.8,2.4c0.7,0.5,1.5,1.1,2.2,1.7l-1.1,1.7c-0.8-0.9-1.4-1.5-1.8-1.9c-0.5,0.8-1.1,1.6-2,2.4     l-1.2-1.5c0.9-0.8,1.6-1.5,2-2.2C7.7,139.2,8,138.3,8.3,137.1z"/>
			<path class="st0" d="M19.1,140.2h3.2V137H24v3.2H28c0,6.6-0.1,10.5-0.2,11.7c-0.1,1-0.4,1.6-0.7,1.9c-0.4,0.4-1.1,0.6-2.2,0.6     c-0.4,0-0.9,0-1.5-0.1l-0.3-1.9c0.6,0.1,1.2,0.2,1.8,0.2c0.6,0,1-0.4,1-1.2c0.1-1,0.2-4.1,0.2-9.4H24c-0.1,2.4-0.3,4.4-0.7,6.1     c-0.5,2.1-1.4,4.2-2.8,6.4L19,153c1.2-1.7,2.1-3.6,2.6-5.6c0.4-1.3,0.6-3.1,0.6-5.5h-3.2V140.2z M36.1,139.3v15h-1.8V153h-3.7     v1.4h-1.8v-15.1H36.1z M30.6,151.3h3.7V141h-3.7V151.3z"/>
			<path class="st0" d="M46.2,140.3c-0.1-0.3-0.1-0.5-0.1-0.8H41v-1.7h7c0.3,3.7,1.1,6.5,2.4,8.6c1.2,2.1,3.1,4.1,5.4,6l-1.2,1.9     c-2.7-2.4-4.6-4.7-5.8-6.8c-0.7-1.2-1.2-2.6-1.7-4c-0.6,2-1.3,3.6-2,5c-1.1,1.8-2.9,3.7-5.5,5.8l-1.3-1.8     c2.4-1.8,4.2-3.7,5.3-5.6C44.6,145.2,45.5,143,46.2,140.3z"/>
			<path class="st0" d="M71.6,141.9v10.5h2.8v1.6H57.5v-1.6h2.7v-10.5H71.6z M66.4,137c0.2,0.5,0.5,1,0.7,1.6h7v4.3h-1.8v-2.7H59.6     v2.7h-1.8v-4.3h7.3c-0.2-0.5-0.5-0.9-0.7-1.3L66.4,137z M62,145.5h7.9v-1.9H62V145.5z M62,148.9h7.9v-1.8H62V148.9z M62,152.4     h7.9v-1.9H62V152.4z"/>
			<path class="st0" d="M81,137l1.3,1.1c-1.3,1.6-2.9,3.1-4.8,4.4l-1.2-1.6C78,139.9,79.6,138.6,81,137z M80.8,141.6l1.6,0.7     c-0.6,1.3-1.2,2.3-1.9,3.2v8.7h-1.8v-6.7c-0.6,0.6-1.2,1.1-1.8,1.7l-0.6-2.1c0.9-0.8,1.8-1.5,2.4-2.3     C79.5,144,80.2,143,80.8,141.6z M81.9,145.2h11.2v1.4h-2v1.1h2.4v1.5h-2.4v3.3c0,0.6-0.2,1.1-0.5,1.4c-0.3,0.3-0.8,0.4-1.5,0.4     H87l-0.4-1.8c0.9,0.1,1.6,0.1,2.2,0.1c0.4,0,0.7-0.2,0.7-0.5v-3h-8v-1.5h8v-1.1h-7.5V145.2z M82.7,137.7h10v6.4h-10V137.7z      M85,149.7c0.6,0.7,1.1,1.4,1.6,2.2l-1.6,0.7c-0.5-0.9-1-1.7-1.6-2.4L85,149.7z M84.4,140.3H91V139h-6.5V140.3z M91,142.7v-1.2     h-6.5v1.2H91z"/>
			<path class="st0" d="M103.5,137.1l0.6,1.7c-0.9,0.3-2,0.6-3.1,0.8v2.5h3.4v1.7H101v0.2c1.2,1.2,2.4,2.5,3.7,3.9l-1,1.6     c-1-1.5-1.9-2.7-2.6-3.5v8.4h-1.7v-8.2c-0.4,0.8-0.7,1.5-1,2c-0.6,1.1-1.4,2.1-2.3,3.1l-1-1.7c0.9-0.8,1.7-1.8,2.4-3     c0.5-0.8,0.9-1.7,1.3-2.8h-3.3v-1.7h3.9v-2.2c-1,0.2-2.1,0.3-3.3,0.4l-0.4-1.7C98.6,138.4,101.2,137.9,103.5,137.1z M105.6,138.5     h1.8v12.1h-1.8V138.5z M109.8,137h1.9v15.2c0,0.7-0.2,1.2-0.5,1.5c-0.3,0.3-0.8,0.5-1.6,0.5h-3l-0.4-1.9c1.2,0.1,2.1,0.1,2.9,0.1     c0.5,0,0.7-0.1,0.7-0.4V137z"/>
			<path class="st0" d="M118.2,137l1.7,0.2c-0.2,1-0.5,1.9-0.9,2.8h2.7v4c0.6-0.9,1-1.8,1.3-2.7c0.4-1.1,0.7-2.5,0.9-4.3l1.9,0.3     c-0.2,1-0.3,1.9-0.5,2.7h5.8c0,6.7-0.1,10.6-0.3,11.9c-0.2,1-0.5,1.6-1,1.9c-0.5,0.4-1.5,0.6-3,0.6c-0.4,0-0.9,0-1.4-0.1     l-0.3-1.9c0.6,0.1,1.1,0.2,1.7,0.2c1.2,0,1.9-0.4,2-1.2c0.2-1,0.4-4.2,0.4-9.6h-4.5c0,0.1-0.1,0.2-0.1,0.3     c-0.4,1.4-1.1,2.8-2.1,4.4l-0.9-1.1v7.8H120v-0.9h-3.5v1.4h-1.6V140h2.4C117.7,139.1,118,138.1,118.2,137z M116.5,145.3h3.5v-3.7     h-3.5V145.3z M116.5,150.5h3.5v-3.8h-3.5V150.5z M125.3,144.2c1.1,1.8,1.9,3.3,2.5,4.5l-1.8,1.2c-0.5-1.4-1.3-3-2.2-4.8     L125.3,144.2z"/>
			<path class="st0" d="M133.7,137.7h7.9c0,7.7-0.1,12.3-0.2,13.7c-0.1,1.1-0.3,1.8-0.6,2.2c-0.3,0.4-1,0.6-1.9,0.6     c-0.4,0-1,0-1.6-0.1l-0.3-2c0.6,0.1,1.2,0.1,1.8,0.1c0.5,0,0.7-0.5,0.8-1.4c0-0.5,0.1-1.5,0.1-3h-2.4c-0.1,0.6-0.2,1.1-0.4,1.6     c-0.4,1.5-1.3,3.1-2.6,4.7l-1.4-1.3c1.1-1.2,1.9-2.5,2.4-4c0.1-0.3,0.2-0.7,0.3-1.1h-2v-1.7h2.3c0.1-0.7,0.1-1.6,0.1-2.5v-0.2     h-2.4v-1.7h2.4v-2.5h-2.3V137.7z M137.8,143.6v0.2c0,0.9,0,1.7-0.1,2.5h2.2c0-0.8,0-1.7,0-2.7H137.8z M137.8,139.4v2.5h2.1v-2.5     H137.8z M143.2,137.7h7v1.4c-0.7,2.1-1.4,4-2.2,5.8c0.9,1.1,1.5,2,1.8,2.6c0.3,0.6,0.5,1.3,0.5,1.9c0,1.2-0.2,2.1-0.7,2.6     c-0.5,0.6-1.7,0.9-3.5,0.9l-0.5-1.9c0.5,0.1,1.1,0.1,1.6,0.1c0.5,0,0.8-0.2,1.1-0.5c0.2-0.2,0.2-0.7,0.2-1.3     c0-0.4-0.1-0.9-0.4-1.4c-0.3-0.6-0.9-1.6-1.9-3c0.9-2,1.6-3.8,2.1-5.5h-3.4v15.1h-1.7V137.7z"/>
			<path class="st0" d="M152.6,144.2h16.6v1.8h-16.6V144.2z"/>
			<path class="st0" d="M176.2,137c0.3,0.5,0.5,1.1,0.8,1.8h4.7v1.7H177c-0.4,1.1-1,2.1-1.9,3c1,0,1.9-0.1,2.7-0.1     c0.4-0.6,0.9-1.3,1.3-2l1.4,0.7c-1.1,2-2.3,3.6-3.7,4.9c-1.2,1.1-2.8,2-4.8,2.8l-0.9-1.4c1.9-0.7,3.4-1.6,4.7-2.7     c0.3-0.3,0.6-0.6,0.9-0.9c-1.3,0.1-2.9,0.2-4.9,0.3l-0.2-1.6c0.6,0,1.1,0,1.7,0c0.8-1,1.5-2,1.9-3.1h-3.8v-1.7h3.8     c-0.2-0.6-0.5-1.1-0.8-1.6L176.2,137z M180.2,144.9l1.5,0.9c-1.1,1.5-2.1,2.8-3.1,3.8c1.1,0.7,2,1.6,3,2.5l-1,1.6     c-1.1-1.2-2.1-2.2-3.2-3c-1.4,1.2-3.1,2.4-5.2,3.5l-0.9-1.6c1.8-0.8,3.6-1.9,5.2-3.4C177.7,148.2,178.9,146.7,180.2,144.9z      M182.4,138.3h1.8v12.3h-1.8V138.3z M186,137h1.8v15.1c0,0.7-0.2,1.2-0.5,1.5c-0.3,0.3-0.8,0.5-1.6,0.5h-2.4l-0.4-2     c0.9,0.1,1.7,0.1,2.3,0.1c0.5,0,0.7-0.1,0.7-0.4V137z"/>
			<path class="st0" d="M191,139.3h3.3V137h1.7v2.2h2.8v1.7H196v2h2.8v1.7H196v2.2h2.8v1.7H196v3.2c0.3,0.1,0.6,0.2,0.9,0.3     c1,0.2,3,0.3,6,0.4c2.2,0,3.8,0,4.8-0.1l-0.2,1.7c-5.7,0-9.2-0.1-10.5-0.3c-1.1-0.2-2.1-0.5-2.7-0.9c-0.6-0.3-1.2-1-1.9-1.9     c-0.3,1.2-0.6,2.4-1.1,3.5l-1.3-1.1c0.4-1.4,0.8-2.6,1-3.7c0.2-0.9,0.3-2.1,0.4-3.6l1.6,0.1c-0.1,1.1-0.1,2.1-0.3,2.9     c0.6,0.8,1,1.4,1.4,1.9v-6h-3.9v-1.7h3.9v-2H191V139.3z M206.6,137.9v6.8h-5.5v3.6c0,0.4,0.2,0.6,0.7,0.6h3     c0.2,0,0.4-0.1,0.5-0.3c0.1-0.2,0.2-1.1,0.2-2.6l1.6,0.5c-0.1,2-0.4,3.1-0.7,3.5c-0.3,0.4-0.8,0.5-1.5,0.5h-3.9     c-0.5,0-1-0.2-1.3-0.5c-0.3-0.3-0.4-0.7-0.4-1.2v-10.9H206.6z M201.1,139.6v3.5h3.8v-3.5H201.1z"/>
			<path class="st0" d="M219.1,145.9c0,0.7-0.2,1.3-0.5,1.8c-0.3,0.4-0.8,0.8-1.5,1.2l-0.6-0.9c0.9-0.4,1.4-1,1.6-1.7h-1.2V144h2.3     V145.9z"/>
			<path class="st0" d="M229.7,147.3l1.6,0.4c-0.4,1.7-0.9,3.3-1.5,4.7l-1.6-0.6C228.8,150.6,229.3,149.1,229.7,147.3z M233,137.1     c0.3,0.5,0.6,1.1,0.8,1.8h3.3v1.6h-8.8v-1.6h3.7c-0.3-0.5-0.5-1.1-0.9-1.6L233,137.1z M229.1,141.6h7.3v5h-2.6v5.7     c0,0.7-0.1,1.1-0.4,1.4c-0.3,0.3-0.8,0.4-1.5,0.4h-1.1l-0.4-1.8c0.4,0.1,0.7,0.2,1,0.2c0.5,0,0.7-0.2,0.7-0.5v-5.4h-3V141.6z      M234.7,145.2v-2.1h-3.9v2.1H234.7z M236,147.4c0.4,1.2,0.7,2.2,0.9,3.2l-1.6,0.6c-0.2-1.2-0.4-2.3-0.7-3.4L236,147.4z      M236.9,141.3h2.3V137h1.7v4.3h4.5v1.7h-4.6c-0.1,2.1-0.4,4-0.8,5.5c-0.6,2-1.6,4-3.2,6l-1.4-1.3c1.4-1.6,2.4-3.4,3-5.3     c0.4-1.2,0.7-2.9,0.7-5h-2.3V141.3z M241,144.8h1.7v7.1c0,0.3,0.2,0.5,0.5,0.5c0.5,0,0.7-0.2,0.7-0.6v-2.9l1.6,0.7     c0,2.1-0.2,3.4-0.6,3.9c-0.3,0.4-0.9,0.6-1.7,0.6c-0.8,0-1.3-0.1-1.7-0.4c-0.4-0.3-0.5-0.7-0.5-1.3V144.8z M243.1,137.7     c0.9,0.8,1.6,1.5,2.1,2.2l-1.5,1c-0.5-0.7-1.1-1.5-1.9-2.4L243.1,137.7z"/>
			<path class="st0" d="M255.1,137.6v6.4h-5.8v10.5h-1.7v-16.8H255.1z M249.4,140.1h4.1V139h-4.1V140.1z M249.4,142.5h4.1v-1.3h-4.1     V142.5z M250.9,144.8h9.8v1.4h-2.2v2h2.7v1.4h-2.7v4h-1.6v-4h-2.2c-0.1,0.8-0.3,1.4-0.6,2c-0.4,0.7-1.2,1.4-2.4,2.2l-1.4-1.2     c1.1-0.5,1.8-1,2.2-1.6c0.3-0.3,0.5-0.8,0.5-1.4h-2.8v-1.4h2.8v-2h-2.2V144.8z M256.9,148.2v-2h-2.1v2H256.9z M257.3,137.6h6.7     v14.8c0,0.6-0.2,1.1-0.5,1.4c-0.3,0.3-0.8,0.4-1.5,0.4h-1.8l-0.4-1.7l1.8,0.1c0.4,0,0.7-0.3,0.7-0.7v-7.9h-5.8v-6.4H257.3z      M258.1,140.1h4.2V139h-4.2V140.1z M262.3,142.5v-1.3h-4.2v1.3H262.3z"/>
			<path class="st0" d="M266.1,140.4h2.4c0.2-1.1,0.4-2.3,0.5-3.5l1.7,0.1c-0.2,1.2-0.4,2.3-0.6,3.3h2.9v1.6c-0.2,2-0.5,3.8-0.9,5.3     c-0.2,0.7-0.5,1.4-0.7,2.1c0.8,0.7,1.5,1.3,2.1,1.9l-1.1,1.3c-0.5-0.6-1.1-1.1-1.8-1.7c-0.7,1.1-1.7,2.2-3.1,3.4l-1.4-1.4     c1.3-1,2.3-2.1,3.1-3.2c-0.9-0.7-1.9-1.4-2.9-2.2c0.7-1.6,1.3-3.4,1.8-5.5h-2.1V140.4z M269.9,142c-0.4,2.1-0.9,3.7-1.4,5     c0.6,0.4,1.2,0.8,1.7,1.2c0.6-1.3,1.1-3.4,1.3-6.2H269.9z M276.5,137l1.9,0.2c-0.5,2.1-1.3,4-2.3,5.7c1.6-0.1,3.1-0.2,4.4-0.3     c-0.5-1-1.1-1.9-1.6-2.7l1.6-0.5c1.2,1.7,2.2,3.5,3.1,5.4l-1.6,0.7c-0.2-0.5-0.4-1-0.6-1.4c-1.7,0.3-4.3,0.5-7.8,0.7l-0.3-1.9     c0.4,0,0.7,0,1.1,0C275.3,141.2,276.1,139.2,276.5,137z M282.5,146.3v8.1h-1.7v-1h-5.1v1h-1.7v-8.2H282.5z M275.6,151.8h5.1V148     h-5.1V151.8z"/>
			<path class="st0" d="M287.7,137.2h1.9v11.9c1.3-0.5,2.7-1.1,4-1.7l0.4,1.8c-2.2,1.2-4.9,2.3-8.1,3.3l-0.8-1.9     c0.9-0.2,1.7-0.5,2.6-0.7V137.2z M297.9,137.2h1.9c0,3.9-0.5,7.1-1.2,9.5c1.5,1.8,2.8,3.6,3.9,5.5l-1.6,1.6     c-0.8-1.5-1.8-3.2-3.1-4.9c-1,2-2.9,3.8-5.7,5.6l-1.3-1.6c2.6-1.5,4.4-3.2,5.3-4.9C297.2,145.6,297.8,142.1,297.9,137.2z      M292.8,139c1.3,2,2.2,3.7,3,5.2l-1.8,1.3c-0.7-1.6-1.5-3.4-2.7-5.5L292.8,139z"/>
			<path class="st0" d="M304.2,141.4h1.9V138h1.9v3.4h2.7v-4.2h1.9v4.2h3.6v-4.2h1.9v4.2h3.1v1.7h-3.1v6.6h-7.4v-6.6h-2.7v8.8h13     v1.7h-13v0.9h-1.9v-11.3h-1.9V141.4z M312.7,143.1v4.9h3.6v-4.9H312.7z"/>
			<path class="st0" d="M325.1,137.6h13.7v8.2h-3.3c0.6,0.6,1.2,1,1.7,1.3c0.8,0.5,2,1,3.5,1.4l-0.7,1.6c-2-0.7-3.4-1.4-4.4-2.1v6.3     h-1.8v-6.9h1c-0.5-0.5-1-1-1.6-1.7h-2.9c-0.5,0.7-1.1,1.2-1.7,1.7h1.3c0,1.9-0.4,3.3-1.2,4.3c-0.6,0.9-2,1.8-4.1,2.6l-1.2-1.5     c1.8-0.5,3-1.1,3.6-1.7c0.7-0.7,1.1-1.8,1.2-3.4c-1.2,0.9-2.6,1.6-4.3,2.2l-1-1.6c1.6-0.5,2.9-1.1,3.8-1.7c0.5-0.3,0.9-0.6,1.3-1     h-2.9V137.6z M326.9,141h4.2v-1.9h-4.2V141z M331,144.2v-1.8h-4.2v1.8H331z M332.7,141h4.4v-1.9h-4.4V141z M337.1,144.2v-1.8     h-4.4v1.8H337.1z"/>
			<path class="st0" d="M342.3,141.6h4.8v1.2c-0.6,1-1.4,2.1-2.4,3.3h2.3v1.1c-0.3,1.2-0.6,2.1-0.9,2.8c0.7,0.8,1.3,1.3,1.8,1.4     c0.4,0.2,1,0.4,1.8,0.5c0.9,0.1,2.7,0.2,5.4,0.2c2,0,3.5,0,4.5-0.1l-0.3,1.8c-5.2,0-8.4-0.1-9.6-0.2c-1-0.1-1.9-0.4-2.5-0.7     c-0.5-0.2-1.1-0.7-1.8-1.5c-0.5,0.9-1.2,1.8-2.1,2.8l-1.2-1.4c1-1,1.7-1.9,2.1-2.6c0.3-0.4,0.7-1.4,1.2-2.7h-2.7v-1.4     c0.8-0.8,1.6-1.8,2.4-3.1h-2.7V141.6z M344.4,137.2c0.8,0.9,1.5,1.8,2.1,2.7l-1.2,1.2c-0.5-0.9-1.2-1.8-2-2.8L344.4,137.2z      M347.8,137.6h10.3v1.3c-0.9,0.7-2,1.3-3.2,1.8c0.3,0.1,0.5,0.2,0.7,0.3l-0.3,0.3h3.1v8.3c0,0.6-0.2,1-0.5,1.3     c-0.2,0.3-0.6,0.4-1.1,0.4h-1.3l-0.4-1.6l1,0.1c0.3,0,0.5-0.2,0.5-0.7v-1h-2.6v3h-1.6v-3h-2.5v3.2h-1.7v-10h4.3     c-0.9-0.3-1.9-0.7-3.1-1l1.1-0.9c0.8,0.2,1.6,0.5,2.4,0.7c0.7-0.2,1.5-0.6,2.3-0.9h-7.5V137.6z M350.1,144.2h2.5v-1.4h-2.5V144.2     z M350.1,146.8h2.5v-1.3h-2.5V146.8z M354.2,142.7v1.4h2.6v-1.4H354.2z M354.2,145.5v1.3h2.6v-1.3H354.2z"/>
			<path class="st0" d="M361.1,140.2h9.9V137h1.9v3.2h5.6v1.8h-5.6v10.4c0,0.7-0.2,1.2-0.5,1.4c-0.3,0.3-0.9,0.4-1.7,0.4h-3     l-0.4-1.9c1.2,0.1,2.1,0.2,2.9,0.2c0.5,0,0.8-0.2,0.8-0.5V142h-0.3c-0.7,1.9-1.6,3.5-2.6,4.8c-1.4,1.7-3.3,3.4-5.9,5.1l-1.1-1.9     c2.6-1.7,4.5-3.2,5.6-4.6c0.8-0.9,1.4-2,2.1-3.4h-7.6V140.2z"/>
			<path class="st0" d="M381.1,139.6h2.1c-0.2-0.7-0.5-1.3-0.8-1.9l1.7-0.2c0.2,0.6,0.5,1.4,0.7,2.1h1.3c0.2-0.8,0.4-1.7,0.5-2.6     l1.6,0.2c-0.2,0.8-0.3,1.6-0.5,2.4h7.4c-0.1,1.3-0.3,2.4-0.5,3.4h1.8c-0.1,1.3-0.3,2.4-0.5,3.3h1.5c0,4.3-0.4,6.7-1.1,7.3     c-0.4,0.5-1.7,0.8-3.9,0.8l-0.4-1.9c0.6,0.1,1,0.1,1.4,0.1c0.7,0,1.3-0.2,1.7-0.5c0.3-0.3,0.5-1.8,0.6-4.4h-11.5     c-0.8,1.2-1.7,2.3-2.7,3.1l-1.5-1.1c2.6-2.3,4.4-5.2,5.5-8.6h-4.6V139.6z M384,149.1l1.6,0.3c-0.5,1.8-1.2,3.4-2.1,4.8l-1.5-1     C383,151.9,383.6,150.5,384,149.1z M386.1,144.5c-0.3,0.6-0.6,1.2-0.9,1.8h9c0.1-0.5,0.2-1.1,0.3-1.8H386.1z M387.9,149.2     c0.3,1.2,0.5,2.7,0.7,4.6l-1.8,0.2c0-2-0.2-3.6-0.4-4.7L387.9,149.2z M387.3,141.3c-0.2,0.6-0.4,1.2-0.6,1.7h6.2     c0.1-0.5,0.2-1,0.3-1.7H387.3z M390.5,148.8c0.5,1.1,0.9,2.4,1.2,3.8l-1.7,0.4c-0.3-1.3-0.6-2.5-1-3.7L390.5,148.8z M393.2,148.5     c0.5,1.1,1,2,1.3,2.9l-1.5,0.5c-0.3-1.1-0.6-2.1-1-3.1L393.2,148.5z"/>
			<path class="st0" d="M414.6,138.1v16h-1.8V153H403v1.1h-1.8v-16H414.6z M403,142.4h9.8v-2.6H403V142.4z M403,146.9h9.8V144H403     V146.9z M403,151.3h9.8v-2.7H403V151.3z"/>
			<path class="st0" d="M418.3,140.6h2.2V137h1.7v3.6h1.9v1.5h-1.9v0.7c0.7,0.9,1.4,1.9,2.1,2.9l-0.9,1.4c-0.5-0.9-0.9-1.7-1.2-2.3     v9.6h-1.7v-8.7c-0.5,1.5-1.1,2.8-1.8,3.9l-0.7-1.9c1-1.6,1.8-3.5,2.4-5.6h-2.2V140.6z M425.9,149.9l1.3,0.6     c-0.9,1.2-1.9,2.2-3.1,3.1l-1.4-1C423.9,151.8,425,150.9,425.9,149.9z M423.7,148h11.9v1.4h-5.1v3.2c0,0.6-0.1,1-0.4,1.2     c-0.3,0.3-0.7,0.4-1.4,0.4h-1.4l-0.3-1.6c0.5,0.1,0.9,0.1,1.3,0.1c0.4,0,0.6-0.1,0.6-0.4v-3h-5.1V148z M424.2,137.3h11.3v1.4     h-3.6v1.5h3v4.8h-10.3v-4.8h3v-1.5h-3.3V137.3z M424.7,145.7h10v1.4h-10V145.7z M427.5,143.6v-2.1h-1.4v2.1H427.5z M430.4,140.2     v-1.5H429v1.5H430.4z M430.4,143.6v-2.1H429v2.1H430.4z M432.7,149.9c1.3,1.1,2.3,2,3,2.8l-1.5,1c-0.7-0.9-1.6-1.9-2.8-3     L432.7,149.9z M433.3,143.6v-2.1h-1.4v2.1H433.3z"/>
			<path class="st0" d="M454.1,139.6v1.7h-5.3c0.2,2.7,0.5,4.9,1.1,6.4c0.9-1.3,1.7-3,2.4-5.1l1.6,0.7c-1.1,2.8-2.1,4.9-3.2,6.3     c0.8,1.7,1.4,2.5,1.8,2.5c0.2,0,0.5-0.9,0.7-2.7l1.5,1c-0.4,1.8-0.8,2.9-1.2,3.3c-0.2,0.3-0.5,0.5-0.8,0.5     c-0.8,0-1.6-0.5-2.4-1.4c-0.4-0.5-0.8-1-1.1-1.7c-1.2,1.1-2.7,2.1-4.5,3l-1-1.6c2-0.9,3.6-1.9,4.8-3.1c-0.2-0.6-0.5-1.3-0.7-2     c-0.4-1.6-0.6-3.7-0.8-6.1h-6.3v2.3h5.2c0,3.4-0.2,5.6-0.5,6.5c-0.3,1.1-0.9,1.6-1.9,1.6H441l-0.3-1.8c1.3,0.1,2.2,0.2,2.9,0.2     c0.2,0,0.3-0.3,0.4-0.8c0.1-0.7,0.1-2,0.1-3.9h-3.5c0,1.3-0.1,2.7-0.4,4.2c-0.3,1.7-0.9,3.5-1.7,5.2l-1.6-1.3     c0.7-1.4,1.2-2.9,1.5-4.4c0.2-1.6,0.3-3,0.3-4.3v-5.1h8.1c0-0.8,0-1.7,0-2.7h1.8c0,0.9,0,1.8,0.1,2.7h2.7c-0.5-0.5-1.1-1-1.9-1.6     l1.2-1.1c0.9,0.6,1.6,1.1,2.2,1.7l-1,1H454.1z"/>
			<path class="st0" d="M472.2,137.6v1.7H461v1.1h10.5v1.5H461v1.2h10.5v1.5H461v1.3h12.5v1.7h-8.6c0.5,0.9,1.1,1.7,1.9,2.3     c1.3-0.5,2.5-1.2,3.7-2.2l1.4,1.3c-1,0.8-2.1,1.5-3.3,1.9c1.4,0.8,3.2,1.5,5.3,2l-1,1.8c-3-1-5.3-2.1-6.8-3.3     c-1.3-1.1-2.3-2.3-2.9-3.8h-2.6v4.6c1.3-0.2,2.7-0.6,4-1v1.8c-2.3,0.6-4.8,1.2-7.6,1.6l-0.2-1.9c0.7,0,1.3-0.1,2-0.2v-4.9h-2.3     v-1.7h2.8v-8.2H472.2z"/>
			<path class="st0" d="M486.5,145.7c0,0.7-0.3,1.3-0.8,1.8c-0.5,0.5-1.1,0.7-1.9,0.7c-0.7,0-1.3-0.2-1.9-0.7     c-0.5-0.5-0.8-1.1-0.8-1.8s0.3-1.3,0.8-1.8c0.5-0.5,1.1-0.7,1.9-0.7c0.7,0,1.3,0.2,1.9,0.7C486.3,144.4,486.5,145,486.5,145.7z      M485.2,145.7c0-0.3-0.1-0.6-0.4-0.9c-0.2-0.3-0.6-0.4-0.9-0.4c-0.4,0-0.7,0.1-0.9,0.4c-0.3,0.2-0.4,0.5-0.4,0.9     c0,0.3,0.1,0.6,0.4,0.9c0.2,0.3,0.5,0.4,0.9,0.4c0.4,0,0.7-0.1,0.9-0.4C485.1,146.4,485.2,146.1,485.2,145.7z"/>
			<path class="st0" d="M97.7,172.2h1.9v11.9c1.3-0.5,2.7-1.1,4-1.7l0.4,1.8c-2.2,1.2-4.9,2.3-8.1,3.3l-0.8-1.9     c0.9-0.2,1.7-0.5,2.6-0.7V172.2z M107.9,172.2h1.9c0,3.9-0.5,7.1-1.2,9.5c1.5,1.8,2.8,3.6,3.9,5.5l-1.6,1.6     c-0.8-1.5-1.8-3.2-3.1-4.9c-1,2-2.9,3.8-5.7,5.6l-1.3-1.6c2.6-1.5,4.4-3.2,5.3-4.9C107.2,180.6,107.8,177.1,107.9,172.2z      M102.8,174c1.3,2,2.2,3.7,3,5.2l-1.8,1.3c-0.7-1.6-1.5-3.4-2.7-5.5L102.8,174z"/>
			<path class="st0" d="M114.4,172.9h17.1v1.7h-8.6v3.1c2.2,1.3,4.4,2.7,6.7,4.3l-1.2,1.8c-2.2-1.7-4.1-3-5.5-4v9.4h-1.9v-14.6h-6.5     V172.9z"/>
			<path class="st0" d="M141.8,172h0.9c1.3,1.6,2.6,2.8,3.8,3.7c1.1,0.7,2.5,1.4,4.2,1.9l-1.2,1.8c-1.8-0.6-3.2-1.3-4.1-2     c-1.2-0.8-2.4-2.1-3.7-3.8c-0.9,1.2-1.8,2.3-2.8,3.1c-1.4,1-3,1.9-4.9,2.7l-1.1-1.8c2.2-0.8,3.9-1.7,5.1-2.6c1-0.8,2-1.7,2.8-2.9     H141.8z M137.8,178.9h1.9v1.2c0,2-0.2,3.7-0.7,5.1c-0.4,1.3-1.3,2.7-2.6,4.1l-1.6-1.4c1.1-1,1.9-2.1,2.4-3.3     c0.4-1,0.6-2.4,0.6-4.4V178.9z M144.1,178.9h1.9v10.3h-1.9V178.9z"/>
			<path class="st0" d="M155.6,172l1.6,0.5c-0.6,1.7-1.3,3.2-2.1,4.5c0.6-0.1,1.1-0.2,1.7-0.3c0.4-0.8,0.8-1.6,1.2-2.5l1.6,0.6     c-1.4,3-2.8,5.5-4.2,7.4c1-0.1,1.8-0.2,2.5-0.4c-0.2-0.7-0.3-1.3-0.6-1.9l1.3-0.5c0.5,1.2,0.9,2.6,1.2,4.2l-1.5,0.4     c0-0.2-0.1-0.5-0.1-0.7c-1.3,0.3-3.1,0.6-5.4,0.7l-0.5-1.6c0.5,0,0.9,0,1.3,0c0.8-1.1,1.6-2.4,2.4-4c-1.1,0.2-2.2,0.4-3.5,0.6     l-0.4-1.6c0.4,0,0.8-0.1,1.2-0.1C154.2,175.6,155,173.9,155.6,172z M153,184.6l1.4,0.1c-0.1,1.8-0.3,3.4-0.7,4.6l-1.6-0.5     C152.6,187.5,152.9,186.1,153,184.6z M156.5,184.6c0.3,1,0.4,2.3,0.5,3.9l-1.6,0.1c0-1.7-0.1-3-0.3-3.9L156.5,184.6z      M158.5,184.1c0.5,1.3,0.8,2.4,1.1,3.5l-1.5,0.5c-0.2-1.2-0.6-2.5-0.9-3.7L158.5,184.1z M159.9,172.7h9.3c-0.2,3.9-0.3,6-0.6,6.4     c-0.2,0.5-0.4,0.8-0.8,1c-0.3,0.2-0.8,0.4-1.7,0.4c-0.6,0-1.1,0-1.5-0.1l-0.3-1.8c0.9,0.1,1.4,0.2,1.6,0.2c0.5,0,0.8-0.1,0.9-0.4     c0.3-0.2,0.5-1.6,0.6-4.2h-3.6c-0.1,1.5-0.4,2.7-1,3.6c-0.5,1-1.5,1.9-2.8,2.7l-1-1.6c1-0.6,1.8-1.2,2.3-2     c0.4-0.7,0.7-1.6,0.8-2.8h-2.3V172.7z M168.9,181.3v7.9h-1.7v-0.9h-5.4v0.9h-1.7v-7.9H168.9z M161.9,186.7h5.4V183h-5.4V186.7z"/>
			<path class="st0" d="M171.3,174.6h7.5V172h1.9v2.6h7.8v1.7h-7.8v2.6h5.8v1.3c-0.8,2.2-2.2,4-4.2,5.6c1.7,0.8,3.9,1.5,6.6,2     l-1.1,1.6c-3.1-0.8-5.5-1.7-7.2-2.6c-2,1-4.8,1.9-8.3,2.7l-1.1-1.7c3.2-0.6,5.7-1.3,7.6-2.2c-1.7-1.2-3.1-2.6-4.2-4.1l1.6-0.9     c1.2,1.7,2.6,3,4.5,4.1c0.1-0.1,0.3-0.2,0.4-0.3c1.5-1.1,2.7-2.4,3.4-4h-11.5v-1.7h5.9v-2.6h-7.5V174.6z"/>
			<path class="st0" d="M190.2,175.4h2.2V172h1.7v3.5h1.8v1.6h-1.8v3.6c0.6-0.3,1.1-0.6,1.7-1v1.8c-0.5,0.4-1.1,0.7-1.7,1v5.1     c0,0.7-0.2,1.2-0.5,1.4c-0.3,0.3-0.8,0.4-1.5,0.4h-1.2l-0.4-1.9c0.5,0.1,0.9,0.2,1.2,0.2c0.4,0,0.7-0.2,0.7-0.5v-4     c-0.6,0.3-1.3,0.5-1.9,0.7l-0.2-1.9c0.7-0.1,1.4-0.3,2.2-0.6V177h-2.2V175.4z M196.5,177.5h10.8v1.5h-6.7     c-0.1,0.4-0.1,0.8-0.2,1.2h7.1v1.5h-7.4c-0.1,0.4-0.2,0.7-0.3,1.1h6.7v1.3c-0.7,1.2-1.5,2.1-2.3,2.8c1,0.4,2.2,0.7,3.6,1     l-0.7,1.6c-1.6-0.4-3.1-0.9-4.3-1.6c-1.2,0.6-2.7,1.2-4.6,1.6l-0.6-1.6c1.5-0.2,2.7-0.6,3.7-1c-0.8-0.6-1.4-1.3-2-2.2     c0,0.1-0.1,0.2-0.1,0.2c-0.8,1.6-2,3-3.7,4.2l-1-1.3c1.4-1.1,2.5-2.3,3.3-3.7c0.4-0.7,0.7-1.5,0.9-2.4h-2.3v-1.5h2.7     c0.1-0.4,0.1-0.8,0.2-1.2h-2.6V177.5z M206.5,172l0.8,1.5c-2.7,0.7-6.2,1.1-10.7,1.1l-0.5-1.6C200.1,173,203.6,172.7,206.5,172z      M198,174.7c0.6,0.8,1,1.5,1.3,2.1l-1.7,0.6c-0.3-0.8-0.6-1.6-1-2.3L198,174.7z M201.9,174.7c0.3,0.6,0.6,1.4,0.9,2.2l-1.7,0.2     c-0.2-0.8-0.5-1.6-0.8-2.2L201.9,174.7z M200.7,184.1c0.6,0.8,1.2,1.4,2,1.9c0.7-0.4,1.3-1.1,1.8-1.9H200.7z M205.1,174.2     l1.6,0.4c-0.3,1-0.8,1.9-1.3,2.8l-1.6-0.6C204.3,176.1,204.8,175.2,205.1,174.2z"/>
			<path class="st0" d="M216.8,171.9h2.1v4.5c0.6,2.8,1.6,5,2.8,6.8c1,1.5,2.7,3,5,4.5l-1.3,1.7c-1.9-1.2-3.3-2.5-4.3-3.7     c-1.3-1.4-2.3-3.2-3-5.3c-0.6,2.2-1.5,3.9-2.6,5.1c-1.1,1.3-2.8,2.6-5.2,3.9l-1.2-1.7c2.9-1.7,4.8-3.6,5.9-5.6     c1.1-2,1.7-3.9,1.7-5.7V171.9z"/>
			<path class="st0" d="M233.9,186.4l1.1,1.3c-2,0.8-4.1,1.4-6.1,1.8l-0.8-1.7C230.4,187.4,232.3,187,233.9,186.4z M229.8,177.6     h14.3v8.6h-14.3V177.6z M230.3,172.6h13.4v4.1h-13.4V172.6z M231.5,180h10.8v-1.1h-10.8V180z M231.5,182.5h10.8v-1.2h-10.8V182.5     z M242.3,184.9v-1.1h-10.8v1.1H242.3z M241.9,175.3V174h-9.8v1.2H241.9z M239.4,186.4c2.3,0.4,4.4,0.9,6.2,1.4l-1,1.6     c-2-0.7-4-1.2-6.1-1.6L239.4,186.4z"/>
			<path class="st0" d="M264.1,174.6v1.7h-5.3c0.2,2.7,0.5,4.9,1.1,6.4c0.9-1.3,1.7-3,2.4-5.1l1.6,0.7c-1.1,2.8-2.1,4.9-3.2,6.3     c0.8,1.7,1.4,2.5,1.8,2.5c0.2,0,0.5-0.9,0.7-2.7l1.5,1c-0.4,1.8-0.8,2.9-1.2,3.3c-0.2,0.3-0.5,0.5-0.8,0.5     c-0.8,0-1.6-0.5-2.4-1.4c-0.4-0.5-0.8-1-1.1-1.7c-1.2,1.1-2.7,2.1-4.5,3l-1-1.6c2-0.9,3.6-1.9,4.8-3.1c-0.2-0.6-0.5-1.3-0.7-2     c-0.4-1.6-0.6-3.7-0.8-6.1h-6.3v2.3h5.2c0,3.4-0.2,5.6-0.5,6.5c-0.3,1.1-0.9,1.6-1.9,1.6H251l-0.3-1.8c1.3,0.1,2.2,0.2,2.9,0.2     c0.2,0,0.3-0.3,0.4-0.8c0.1-0.7,0.1-2,0.1-3.9h-3.5c0,1.3-0.1,2.7-0.4,4.2c-0.3,1.7-0.9,3.5-1.7,5.2l-1.6-1.3     c0.7-1.4,1.2-2.9,1.5-4.4c0.2-1.6,0.3-3,0.3-4.3v-5.1h8.1c0-0.8,0-1.7,0-2.7h1.8c0,0.9,0,1.8,0.1,2.7h2.7c-0.5-0.5-1.1-1-1.9-1.6     l1.2-1.1c0.9,0.6,1.6,1.1,2.2,1.7l-1,1H264.1z"/>
			<path class="st0" d="M282.2,172.6v1.7H271v1.1h10.5v1.5H271v1.2h10.5v1.5H271v1.3h12.5v1.7h-8.6c0.5,0.9,1.1,1.7,1.9,2.3     c1.3-0.5,2.5-1.2,3.7-2.2l1.4,1.3c-1,0.8-2.1,1.5-3.3,1.9c1.4,0.8,3.2,1.5,5.3,2l-1,1.8c-3-1-5.3-2.1-6.8-3.3     c-1.3-1.1-2.3-2.3-2.9-3.8h-2.6v4.6c1.3-0.2,2.7-0.6,4-1v1.8c-2.3,0.6-4.8,1.2-7.6,1.6l-0.2-1.9c0.7,0,1.3-0.1,2-0.2v-4.9h-2.3     v-1.7h2.8v-8.2H282.2z"/>
			<path class="st0" d="M289.2,172l1.7,0.2c-0.2,1-0.5,1.9-0.9,2.8h2.7v4c0.6-0.9,1-1.8,1.3-2.7c0.4-1.1,0.7-2.5,0.9-4.3l1.9,0.3     c-0.2,1-0.3,1.9-0.5,2.7h5.8c0,6.7-0.1,10.6-0.3,11.9c-0.2,1-0.5,1.6-1,1.9c-0.5,0.4-1.5,0.6-3,0.6c-0.4,0-0.9,0-1.4-0.1     l-0.3-1.9c0.6,0.1,1.1,0.2,1.7,0.2c1.2,0,1.9-0.4,2-1.2c0.2-1,0.4-4.2,0.4-9.6h-4.5c0,0.1-0.1,0.2-0.1,0.3     c-0.4,1.4-1.1,2.8-2.1,4.4l-0.9-1.1v7.8H291v-0.9h-3.5v1.4h-1.6V175h2.4C288.7,174.1,289,173.1,289.2,172z M287.5,180.3h3.5v-3.7     h-3.5V180.3z M287.5,185.5h3.5v-3.8h-3.5V185.5z M296.3,179.2c1.1,1.8,1.9,3.3,2.5,4.5l-1.8,1.2c-0.5-1.4-1.3-3-2.2-4.8     L296.3,179.2z"/>
			<path class="st0" d="M308.6,176.3l1.2,1.1c-0.4,0.7-0.9,1.4-1.4,2.1v9.8h-1.7v-7.8c-0.5,0.5-1,1-1.6,1.5l-1.2-1.6     C305.7,180.2,307.2,178.4,308.6,176.3z M308.4,171.9l1.2,1c-1.2,1.5-2.6,2.9-4.3,4.2l-1.1-1.5     C305.8,174.6,307.2,173.4,308.4,171.9z M310.2,177.9h11.4v1.7h-2.8v8c0,0.6-0.2,1.1-0.5,1.4c-0.3,0.3-0.8,0.4-1.6,0.4h-3.2     l-0.4-1.8c1.2,0.1,2.3,0.1,3,0.1c0.5,0,0.7-0.2,0.7-0.5v-7.6h-6.7V177.9z M311.2,172.9h9.4v1.7h-9.4V172.9z"/>
			<path class="st0" d="M331.7,172.4l0.7,1.3c-1,0.2-2.2,0.3-3.5,0.4v1.2h3.9v1.4h-3.9v1h3.7v5.9h-3.7v1.1h3.3v1.3h-3.3v1.4     c1.2-0.1,2.3-0.2,3.3-0.4v0.6c1.2-1.7,2-3.5,2.4-5.4c0.3-1.2,0.5-3,0.6-5.2h-2v-1.6h2.1c0-0.3,0-0.6,0-0.9v-2.5h1.6v2.5     c0,0.3,0,0.6,0,0.9h3.4c0,6.4-0.1,10.3-0.2,11.4c-0.1,0.9-0.3,1.5-0.6,1.8c-0.3,0.4-1,0.6-1.9,0.6c-0.4,0-0.9,0-1.4-0.1l-0.3-1.9     c0.6,0.1,1.1,0.2,1.7,0.2c0.5,0,0.8-0.4,0.9-1.2c0.1-1,0.2-4.1,0.2-9.3H337c-0.1,2.2-0.3,4.1-0.7,5.7c-0.5,2.1-1.4,4.3-2.8,6.5     l-1.2-1v0.2c-1.7,0.3-4.6,0.6-8.8,0.8l-0.2-1.6c1.5,0,2.9-0.1,4.2-0.1V186H324v-1.3h3.3v-1.1h-3.5v-5.9h3.5v-1h-4.3v-1.4h4.3     v-1.2c-1,0-2.2,0.1-3.3,0.1l-0.4-1.4C326.8,172.8,329.5,172.7,331.7,172.4z M325.5,180.2h1.8v-1.2h-1.8V180.2z M327.4,182.4v-1.2     h-1.8v1.2H327.4z M328.9,178.9v1.2h2.1v-1.2H328.9z M331,182.4v-1.2h-2.1v1.2H331z"/>
			<path class="st0" d="M349.6,171.9c1.2,0.7,2.2,1.5,3,2.2l-0.7,0.6h7.5v1.8h-10.6v1.5c0,0.4,0,0.8,0,1.2h8.4     c0,5.3-0.5,8.3-1.3,9.1c-0.4,0.7-2,1-4.6,1l-0.4-1.9c0.6,0.1,1.1,0.2,1.5,0.2c0.9,0,1.6-0.2,2.1-0.6c0.4-0.4,0.7-2.4,0.8-5.9     h-6.6c-0.1,1.3-0.4,2.5-0.8,3.5c-0.6,1.7-1.9,3.4-3.7,5.1l-1.6-1.3c1.6-1.3,2.8-2.8,3.5-4.3c0.6-1.3,0.9-3.2,0.9-5.8v-1.5h-4.7     v-1.8h8.2c-0.6-0.5-1.4-1.1-2.2-1.7L349.6,171.9z"/>
			<path class="st0" d="M365.8,172.1h0.7c1.5,1.2,2.8,2.4,3.9,3.7l-1.3,1.2c-1.3-1.5-2.5-2.6-3.3-3.3c-0.7,1-1.5,2-2.4,3h5.1v1.6     h-2.1v1.6h3.1v1.6h-3.1v5.3c1.1-0.2,2.3-0.5,3.5-0.9v1.6c-2.5,0.7-5.3,1.3-8.3,1.7l-0.2-1.7c1.1-0.1,2.2-0.2,3.4-0.4v-5.7h-3.3     v-1.6h3.3v-1.6h-2v-0.9c-0.3,0.3-0.7,0.7-1,1l-0.6-1.9c1.3-1.2,2.6-2.7,3.7-4.4H365.8z M363.2,182.3c0.3,0.9,0.5,2.2,0.6,3.7     l-1.6,0.1c0-1.6-0.2-2.8-0.4-3.7L363.2,182.3z M368.1,182.2l1.4,0.1c-0.1,1.3-0.3,2.4-0.6,3.3l-1.6-0.4     C367.7,184.3,367.9,183.3,368.1,182.2z M369.8,177.7h3.5V172h1.9v5.8h3.5v1.7h-3.5v10h-1.9v-10h-3.5V177.7z"/>
			<path class="st0" d="M391.5,180.7c0,0.7-0.3,1.3-0.8,1.8c-0.5,0.5-1.1,0.7-1.9,0.7c-0.7,0-1.3-0.2-1.9-0.7     c-0.5-0.5-0.8-1.1-0.8-1.8s0.3-1.3,0.8-1.8c0.5-0.5,1.1-0.7,1.9-0.7c0.7,0,1.3,0.2,1.9,0.7C391.3,179.4,391.5,180,391.5,180.7z      M390.2,180.7c0-0.3-0.1-0.6-0.4-0.9c-0.2-0.3-0.6-0.4-0.9-0.4c-0.4,0-0.7,0.1-0.9,0.4c-0.3,0.2-0.4,0.5-0.4,0.9     c0,0.3,0.1,0.6,0.4,0.9c0.2,0.3,0.5,0.4,0.9,0.4c0.4,0,0.7-0.1,0.9-0.4C390.1,181.4,390.2,181.1,390.2,180.7z"/>
		</g>
	</g>
	<line class="st1" x1="37.4" y1="0" x2="455.4" y2="0"/>
	<line class="st1" x1="37.4" y1="79.1" x2="455.4" y2="79.1"/>
</g>
</svg>