<?xml version="1.0" encoding="UTF-8"?>
<!-- Generator: Adobe Illustrator 21.0.2, SVG Export Plug-In . SVG Version: 6.00 Build 0)  -->
<svg version="1.1" id="圖層_1" xmlns="http://www.w3.org/2000/svg" xmlns:xlink="http://www.w3.org/1999/xlink" x="0px" y="0px" width="420.3px" height="69.4px" viewBox="0 0 420.3 69.4" style="enable-background:new 0 0 420.3 69.4;" xml:space="preserve">
<style type="text/css">
	.st0{fill:#009D95;}
</style>
<g>
	<g>
		<path d="M2.3,27.1l2.2,0.4c1.5,0.3,2.8,0.2,3.7-0.4c1.5-1,2.8-4.4,3.7-10.2H1.9l-0.4,2.3c-1,1-1.5,1.1-1.5,0.1L1.5,8.6l1.8,0.9H11    V3.4H0.4V2.6h10.1l0.8-1.3l2.3,1.5c0.7,0.5,0.4,0.9-0.9,1v8c-1.1,1-1.7,1.1-1.7,0.1v-1.7H2.8l-0.8,5.8h9.4l1.2-1.2l1.9,1.9    c0.6,0.7,0.3,0.9-0.8,0.6c-1,6.7-2.9,10.7-5.5,11.9c-0.9,0.5-1.8,0.7-2.6,0.6c-0.5-0.1-0.8-0.3-0.8-0.8c-0.1-0.3-0.3-0.6-0.8-0.9    l-1.9-0.8C2,27.4,2.1,27.2,2.3,27.1z M21.8,28.9V1L24,1.4c0.7,0.4,0.5,0.7-0.5,0.9v26.4C22.3,29.8,21.8,29.8,21.8,28.9z"/>
		<path d="M54.6,19.5h-7.1c-3.3,0-6.1-1.1-8.6-3.2l-3,3c0.1,0.9-0.1,1.2-0.6,0.8L34,18l4.3-1.8v-5.7h-4.4V9.8h4l0.8-1l1.8,1.3    c0.5,0.4,0.3,0.7-0.5,0.9v5.2c1.9,1.4,4.3,2.1,7.2,2.1h14.8c-0.7,0.4-1.2,0.9-1.4,1.3h-4.3v3h3.4l1.7-1.7l2.1,1.5    c0.5,0.4,0.5,0.7,0,0.9h-7.1v4.3c0,0.9-0.3,1.7-0.9,2.2c-0.3,0.3-0.8,0.5-1.3,0.5c-0.3,0-0.5-0.2-0.5-0.6c0-0.4-0.3-0.7-0.8-0.9    l-1.7-0.3c-0.3-0.2-0.3-0.3,0-0.5h2.6c0.6,0,0.9-0.3,0.9-0.9v-3.7H42.8c1.7,1.5,2.6,2.8,2.6,3.9c0,0.9-0.3,1.3-0.8,1.3    c-0.3,0-0.6-0.3-0.9-0.8c-0.4-2-1.1-3.4-2.1-4.4h-7.3v-0.8h20.2V19.5z M39.5,4.9c0,0.6-0.3,0.9-0.9,0.9c-0.3,0-0.6-0.4-0.9-1.3    c-0.5-1.1-1.5-2.2-3-3.2c-0.3-0.3-0.2-0.5,0.3-0.4C38,2,39.5,3.4,39.5,4.9z M48.4,3.2c0,0.5-0.1,0.9-0.3,1.2h4.6l1.7-4.3L56.5,1    c0.7,0.3,0.4,0.6-0.9,0.8l-1.9,2.6h5l1.7-1.7l2.1,1.5C63,4.7,63,5,62.4,5.2H51.4l-1.5,2.6h7.3l0.6-1.2l1.8,1.5    c0.5,0.4,0.3,0.7-0.5,0.9v7.2c-1.1,1-1.7,1.1-1.7,0.1v-0.6H45.9v0.4c-1.1,1-1.7,1.1-1.7,0.1V6.8l1.9,0.9h2.7l0.6-2.6h-8.1V4.4h6.1    C47,4,46.7,3.5,46.6,3c-0.3-1-0.9-1.8-1.7-2.4C44.7,0.2,44.7,0,45.2,0C47.3,1.1,48.4,2.2,48.4,3.2z M45.9,10.1h11.5V8.5H45.9V10.1    z M45.9,10.8v1.5h11.5v-1.5H45.9z M45.9,13.1v1.8h11.5v-1.8H45.9z"/>
		<path d="M93.8,14.4v-1.5h-8.9v13h10.2v-9.7l2.2,0.4c0.7,0.4,0.5,0.7-0.5,0.9V29c-1.1,1-1.7,1.1-1.7,0.1v-2.4H73.3v2.2    c-1.1,1-1.7,1.1-1.7,0.1V16.1l2.2,0.4c0.7,0.4,0.5,0.7-0.5,0.9v8.5h9.9v-13h-8.4v1.3c-1.1,1-1.7,1.1-1.7,0.1V3.1l2.2,0.4    c0.7,0.4,0.5,0.7-0.5,0.9v7.7h8.4V1.3l2.2,0.4c0.7,0.4,0.5,0.7-0.5,0.9v9.5h8.9v-9L96,3.5c0.7,0.4,0.5,0.7-0.5,0.9v9.9    C94.4,15.3,93.8,15.4,93.8,14.4z"/>
		<path d="M109.9,8.8c1.3,0.3,1.4,0.6,0.4,1.2v19.5c-1.1,1-1.7,1.1-1.7,0.1V11.3c-1.1,2-2.4,3.6-3.7,4.9c-0.3,0.1-0.5,0-0.4-0.4    c2.8-4.1,5-9.4,6.6-15.9l2.3,1c0.7,0.5,0.4,0.9-0.9,1C111.7,4.4,110.8,6.6,109.9,8.8z M115.4,26.4v2.2c-1.1,1-1.7,1.1-1.7,0.1V2.2    l1.9,1h14.9l0.8-1l1.8,1.3c0.5,0.4,0.3,0.7-0.5,0.9v23.7c-1.1,1-1.7,1.1-1.7,0.1v-1.8H115.4z M123.8,14.9h2.1l0.8-1l1.8,1.3    c0.5,0.4,0.3,0.7-0.5,0.9v6.3c-1.1,1-1.7,1.1-1.7,0.1v-0.9h-6.4v1.8c-1.1,1-1.7,1.1-1.7,0.1v-9.8l1.9,1.2h2.1v-4.3h-5V9.9h5V4    h-6.7v21.7H131V4h-7.2v5.9h2.4l1.4-1.4l1.8,1.3c0.5,0.4,0.5,0.7,0,0.9h-5.7V14.9z M126.2,15.7h-6.4v5.2h6.4V15.7z"/>
		<path d="M153.7,1.9l2.6,0.4c0.9,0.3,0.7,0.7-0.6,1V5c1.1,11.2,6.1,18.4,14.8,21.8c-1.2,0-2.4,0.5-3.6,1.5    c-6.5-4.1-10.4-11.2-11.7-21.3c-0.3,5.9-1.5,10.6-3.6,14c-2.1,3.4-5.7,6.2-10.6,8.4c-0.5,0.1-0.6-0.1-0.3-0.5    c4.6-2.6,7.7-5.5,9.5-8.9c2.1-3.9,3.2-8.5,3.5-13.9V1.9z"/>
		<path d="M199.7,15.9l0.9-0.9l2.1,1.4c0.3,0.4-0.1,0.7-1.4,0.9c-0.9,2.4-2.1,4.7-3.9,6.8c1.8,1.6,4.4,2.9,7.9,3.7    c-1,0.6-1.9,1.2-2.6,1.9c-2.5-1.3-4.6-2.8-6.3-4.6c-2,1.8-3.9,3.1-5.8,4c-0.6,0.1-0.7-0.1-0.3-0.5c2.3-1.6,4.1-3.1,5.3-4.5    c-1.4-1.6-2.5-4.1-3.4-7.5h-2.6v12.8c-1.1,1-1.7,1.1-1.7,0.1v-6.6l-10.1,3.9c0.3,1.4,0,1.6-0.6,0.8l-1.5-1.9l4.5-1.3V13.1h-4v-0.8    h25.6l1.7-1.7l2.1,1.5c0.5,0.4,0.5,0.7,0,0.9h-16v2.7H199.7z M181.9,15.9h6.1v-2.7h-6.1V15.9z M181.9,19.5h6.1v-2.8h-6.1V19.5z     M181.9,24l6.1-1.7v-2.1h-6.1V24z M196.3,1.2l0.8-1l1.8,1.3c0.5,0.4,0.3,0.7-0.5,0.9v8c-1.1,1-1.7,1.1-1.7,0.1V9.5h-13v1.2    c-1.1,1-1.7,1.1-1.7,0.1V0.1l1.9,1H196.3z M183.7,1.9v3h13v-3H183.7z M196.7,5.7h-13v3.1h13V5.7z M199.7,16.6H193    c0.9,2.8,2,4.9,3.4,6.4C197.6,21.4,198.7,19.2,199.7,16.6z"/>
		<path d="M226.8,10.4h-0.6c0.1,8.9-4.4,15.1-13.5,18.4c-0.6,0.1-0.7-0.1-0.3-0.6c7.9-3.5,11.9-9.5,12.1-17.8h-11.9V9.7h11.9V0.4    l2.2,0.4c0.7,0.4,0.5,0.7-0.5,0.9v8h10.3l1.9-1.9l2.4,1.8c0.5,0.4,0.5,0.7,0,0.9h-13.3c1.5,7.6,6.1,13.1,13.9,16.5    c-1.4,0.3-2.4,0.7-3.1,1.4C231.8,24.4,227.9,18.4,226.8,10.4z"/>
		<path d="M249.4,19.8l5-13.9c0.3-0.3,0.3-0.3,0.3,0.1l-0.6,2.4h2.4V4.6H255V3.9h5.3V0.6l1.9,0.4c0.9,0.2,0.8,0.5-0.3,1v1.8h0.6l1-1    l1.5,0.9c0.5,0.4,0.5,0.7,0,0.9h-3.4c0,1.7-0.1,3-0.4,3.9h1.4l1.2-1.2l1.7,1.2h1.3V4.6H266V3.9h4.5v-3l1.9,0.4    c0.9,0.2,0.8,0.5-0.3,1v1.5h0.9l1.2-1.2l1.7,1c0.5,0.4,0.5,0.7,0,0.9h-3.9c0,1.4-0.2,2.7-0.5,3.9h2.1l1.2-1.3l1.8,1.2    c0.5,0.4,0.5,0.7,0,0.9h-3.9v4.3c0,0.3,0.2,0.6,0.5,0.6h1.5c0.4,0,0.7-0.3,0.9-1l0.5-2.2c0.2-0.2,0.3-0.2,0.4,0v2.4    c0,0.3,0.2,0.6,0.5,0.9c0.3,0.3,0.3,0.6,0,0.9c-0.3,0.3-0.8,0.5-1.4,0.5h-3.5c-0.6,0-1-0.3-1.2-0.9v-5c-1.1,2.9-3.4,5.2-6.8,6.8    c-0.6,0.2-0.7,0-0.3-0.4c3.1-2.1,5-4.5,5.8-7h-7.1v4.5l3.5-1c1-0.3,1.1-0.2,0.1,0.5l-5.5,2.6c-0.2,1.3-0.5,1.5-0.9,0.8l-1-1.7    l2.2-0.6V9.5c-1.4,3.4-3.8,6-7.2,7.9c-0.3,0.1-0.4,0-0.1-0.4c3.2-2.8,5.2-5.4,5.9-7.7h-5.7l-2.4,9.3c-0.5,2-0.4,4.5,0.3,7.5    c0.3,2,0,3-1,3.1c-0.9,0.1-1.4-0.6-1.3-2.1c0.1-1.3,0.2-2.2,0.3-2.7c0.2-1,0.2-1.8,0.1-2.3c-0.1-0.7-0.6-1.2-1.7-1.4l-1.5-0.4    v-0.4H249.4z M251.2,10.7c0.3,0.9,0.1,1.4-0.4,1.7c-0.6,0.3-1.1,0-1.5-0.9c-0.3-1.2-1.2-2.2-2.4-3c-0.3-0.3-0.3-0.4,0.1-0.4    C249.2,8.5,250.6,9.3,251.2,10.7z M253.2,3.7c0.3,0.8,0.2,1.3-0.3,1.7c-0.6,0.3-1.1,0-1.4-0.6c-0.7-1.5-1.5-2.6-2.6-3.1    c-0.3-0.3-0.2-0.4,0.1-0.4C251.1,1.5,252.5,2.4,253.2,3.7z M270.9,17.9l0.9-0.9l1.7,1c0.8,0.3,0.6,0.7-0.6,1.2v9.4    c-1.1,1-1.7,1.1-1.7,0.1v-1h-11.9v1.7c-1.1,1-1.7,1.1-1.7,0.1V17l1.9,0.9H270.9z M258.2,8.5h1.7c0.3-0.9,0.4-2.2,0.4-3.9h-2.1V8.5    z M271.2,22.3v-3.6h-11.9v3.6H271.2z M271.2,23.1h-11.9v3.9h11.9V23.1z M268.6,8.5h1.4c0.3-1.2,0.5-2.5,0.5-3.9h-1.9V8.5z"/>
		<path d="M308.4,9h-10.3c-0.9,9.7-5.8,16.4-14.7,20c-0.8,0.2-0.9,0-0.3-0.4c7.8-4.3,12.2-10.8,13.1-19.6h-10.6V8.2h10.6    c0.2-1.4,0.3-2.4,0.3-3.1V0.9l2.3,0.3c1.7,0.5,1.6,1-0.4,1.4V5c0,0.9-0.1,1.9-0.3,3.2h9.7l0.8-1l1.8,1.3c0.6,0.4,0.4,0.7-0.5,0.9    c-0.2,8.3-0.9,13.8-2.1,16.5c-0.5,1.1-1.4,2-2.7,2.6c-0.9,0.4-1.7,0.6-2.2,0.6c-0.5,0-0.8-0.3-0.8-0.8c0-0.5-0.3-0.9-1-1.3    l-1.4-0.6c-0.3-0.3-0.2-0.5,0.4-0.4l2.3,0.6c0.6,0.2,1.1,0.3,1.4,0.3c0.4,0,0.9-0.2,1.5-0.6c0.9-0.6,1.5-2.4,2.1-5.5    C308.1,17.1,308.4,13.2,308.4,9z"/>
		<path d="M329.1,25.8v-1.9h-7.5v3.1c-1.1,1-1.7,1.1-1.7,0.1V6.3l1.9,1h1.8l1.3-7.2l1.9,0.5c1.5,0.3,1.4,0.9-0.4,1.5l-2.1,5.2h4.3    l0.8-1l1.8,1.3c0.5,0.4,0.3,0.7-0.5,0.9v17.1C329.6,26.7,329.1,26.7,329.1,25.8z M329.1,8.1h-7.5v6.7h7.5V8.1z M321.6,15.6v7.5    h7.5v-7.5H321.6z M336.8,0.1l2.4,0.8c1.2,0.3,1,0.7-0.5,1.2l-2.2,5.3h8.4l0.8-1l1.8,1.3c0.5,0.4,0.3,0.7-0.5,0.9v10.1    c0,4.1-0.6,6.9-1.8,8.4c-0.7,0.9-1.7,1.5-3,2.1c-1.2,0.5-1.8,0.4-1.8-0.3c0-0.7-0.2-1.1-0.6-1.2l-2.3-0.6    c-0.4-0.3-0.4-0.4,0.1-0.5l3.1,0.3c0.9,0.1,1.7-0.1,2.6-0.6c1.4-0.9,2.1-3.5,2.1-7.7V8.1h-9.1c-1.3,2.8-2.7,4.9-4.1,6.6    c-0.4,0.3-0.6,0.2-0.5-0.3C333.9,10.7,335.7,5.9,336.8,0.1z M335,13.9c-0.3-0.3-0.2-0.5,0.3-0.4c3,1.3,4.5,2.8,4.5,4.6    c0,0.8-0.3,1.2-0.9,1.2c-0.3,0-0.6-0.4-0.9-1.2C337.4,16.7,336.4,15.3,335,13.9z"/>
		<path d="M357.7,20.4c-0.9,3.5-2.1,6.1-3.7,7.9c-0.3,0.3-0.5,0.2-0.5-0.3c1.3-2.3,2.2-5.5,2.8-9.5l2.3,0.9    C359.3,19.8,359,20.2,357.7,20.4z M364,4.6l1.8,1c0.7,0.5,0.4,0.9-0.9,1l-5.4,8.1l5-0.3c-0.4-0.8-1-1.5-1.8-2.1    c-0.3-0.3-0.2-0.5,0.3-0.4c2.7,1.2,4.1,2.6,4.1,4.1c0,0.8-0.3,1.2-0.8,1.2c-0.3,0-0.6-0.2-0.6-0.6c-0.3-0.6-0.6-1.1-0.9-1.5    l-3.2,0.4v13.3c-1.1,1-1.7,1.1-1.7,0.1V15.9l-3.5,0.9c-0.3,0.9-0.7,1-1,0.5l-1.4-2.3h4.6L364,4.6z M354.4,6.6    c-0.3-0.3-0.2-0.5,0.3-0.5c1.1,0.3,2.1,0.7,3,1.3l3-6.7l1.9,1.3c0.7,0.5,0.3,0.7-1,0.6l-3.4,5.2c1,0.8,1.5,1.6,1.5,2.4    c0,0.8-0.3,1.2-0.8,1.2c-0.3,0-0.7-0.4-1.2-1.3C357.2,8.9,356.1,7.8,354.4,6.6z M366.9,22.9c0,0.7-0.3,1-0.8,1    c-0.4,0-0.7-0.5-0.9-1.4c-0.3-1.2-1.2-2.4-2.4-3.6c-0.3-0.3-0.2-0.5,0.3-0.5C365.6,19.5,366.9,21.1,366.9,22.9z M380.2,26.2h0.6    l1.7-1.7l2.1,1.5c0.5,0.4,0.5,0.7,0,0.9h-20v-0.8h4.8V2.6l1.9,1.2h6.8l0.8-1l1.8,1.3c0.5,0.4,0.3,0.7-0.5,0.9V26.2z M371,11h7.5    V4.5H371V11z M371,11.7v6.1h7.5v-6.1H371z M371,18.6v7.6h7.5v-7.6H371z"/>
		<path d="M391.7,6.8l3.2-6.1l1.4,0.9c1.1,0.5,0.9,0.9-0.8,1l-3.4,4.4c1,0.7,1.5,1.4,1.5,2.2c0,0.7-0.2,1-0.6,1    c-0.4,0-0.7-0.2-0.8-0.5c-0.4-1.2-1.3-2.3-2.7-3.2c-0.3-0.2-0.3-0.3,0-0.4C390.1,6.2,390.8,6.4,391.7,6.8z M390.9,18.3l1.8,0.5    c0.9,0.3,0.9,0.7-0.3,1c-0.5,3.6-1.4,6.5-2.6,8.6c-0.3,0.3-0.5,0.2-0.4-0.3C390.4,25.2,390.9,21.9,390.9,18.3z M399.3,16.4    c0,0.6-0.2,0.9-0.6,0.9c-0.3,0-0.6-0.2-0.6-0.6c-0.2-0.7-0.3-1.2-0.5-1.4l-1.7,0.4v13.9c-0.9,0.7-1.3,0.7-1.4,0V15.7l-3,0.8    c-0.1,1.2-0.5,1.2-1.2,0.1l-0.8-1.7h2.6l4.6-9.3l2.1,1.5c0.3,0.5-0.2,0.7-1.3,0.5l-4.9,7.1l4.8-0.3c-0.2-0.5-0.6-1.2-1.2-1.9    c-0.3-0.4-0.1-0.5,0.4-0.3c0.8,0.5,1.4,1.2,1.9,1.9S399.3,15.8,399.3,16.4z M399.7,22.6c0,1-0.3,1.5-0.8,1.5c-0.4,0-0.6-0.3-0.6-1    c-0.2-1.8-0.6-3.1-1.2-3.9c-0.2-0.3-0.1-0.4,0.3-0.3C398.9,20,399.7,21.2,399.7,22.6z M406.4,29.4c2.5-2.4,4.5-4.9,5.9-7.3    c-0.9-2.9-1.3-6.1-1.4-9.7H398v-0.8h4.3c-0.3-0.6-0.5-1.2-0.5-1.7c-0.1-1-0.4-2-0.9-3c-0.3-0.5-0.2-0.6,0.3-0.4    c1.5,1.2,2.3,2.5,2.3,3.9c0,0.6-0.1,1-0.4,1.2h2.6l1.5-5.4l1.8,0.6c0.6,0.3,0.4,0.5-0.6,0.8l-2.1,4h4.6V0.5l2.2,0.4    c0.7,0.4,0.5,0.7-0.5,0.9v9.8h3l1.9-1.9l2.4,1.8c0.5,0.4,0.5,0.7,0,0.9h-7.3c0.1,3.3,0.4,5.9,0.9,7.9c1.1-2.1,2-4,2.7-5.8l2.4,1.7    c0.3,0.5-0.2,0.7-1.3,0.5c-1,1.9-2.1,3.7-3.2,5.4c1.1,2.1,2.1,3.3,3,3.7c0.4,0.1,0.7-0.1,0.9-0.5l1-2.6c0.3-0.2,0.4-0.1,0.4,0.1    l-0.6,3.1c-0.1,0.5,0,1,0.4,1.4c0.3,0.3,0.4,0.7,0.4,1c0,0.3-0.2,0.5-0.6,0.5c-0.8,0-1.8-0.6-3.1-1.7c-0.8-0.8-1.7-2-2.7-3.7    c-2.2,2.8-4.3,4.9-6.3,6.3C406.3,29.9,406.1,29.8,406.4,29.4z M405.1,1.5v3.4h1.7l1.4-1.4l1.8,1.3c0.5,0.4,0.5,0.7,0,0.9h-11V4.9    h4.4V0.3l2.2,0.4C406.3,1.1,406.1,1.4,405.1,1.5z M406.5,15.5l0.8-1l1.8,1.3c0.5,0.4,0.3,0.7-0.5,0.9v9.7c-1.1,1-1.7,1.1-1.7,0.1    v-0.8h-4.5v1.8c-1.1,1-1.7,1.1-1.7,0.1v-13l1.9,0.9H406.5z M402.4,16.2V20h4.5v-3.7H402.4z M402.4,20.7v4.1h4.5v-4.1H402.4z     M418.2,7.1c0,0.7-0.3,1-0.8,1c-0.3,0-0.6-0.4-1-1.2c-0.6-1.1-1.5-2-2.6-2.7c-0.3-0.3-0.2-0.4,0.3-0.4    C416.9,4.8,418.2,5.9,418.2,7.1z"/>
	</g>
	<g>
		<path class="st0" d="M116.2,55.3h-0.6v13.8h-1.5v-2.6c-0.9,0.4-1.9,0.7-2.9,1l-0.5-1.4c0.2,0,0.5-0.1,0.9-0.3V55.3h-0.8v-1.5h5.3    V55.3z M114.1,57.6v-2.2h-1v2.2H114.1z M114.1,61.3V59h-1v2.3H114.1z M114.1,64.9v-2.1h-1v2.5C113.4,65.2,113.7,65.1,114.1,64.9z     M126.8,65.9c-0.2,1.5-0.4,2.4-0.7,2.8c-0.3,0.4-0.6,0.6-1.1,0.6c-0.3,0-0.6-0.1-0.9-0.4c-0.2-0.3-0.5-0.8-0.8-1.6    c-0.6,0.7-1.3,1.4-2.1,2.1l-1.1-1c1.1-0.9,2-1.8,2.7-2.9c-0.2-1.6-0.4-3.4-0.4-5.6h-6.3v-1.4h1.4c-0.1-0.6-0.2-1.3-0.5-2.1h-0.5    v-1.4h1.9c-0.1-0.4-0.3-0.8-0.5-1.3l1.5-0.3c0.2,0.5,0.4,1.1,0.5,1.6h1.9v1.4h-0.5c-0.2,0.7-0.3,1.4-0.5,2.1h1.4c0-2.4,0-4,0-5    h1.5c0,1.9,0,3.6,0,5h2.7v1.4h-2.6c0,1.1,0,2.3,0.1,3.6c0.5-1,0.8-2,0.9-2.9l1.3,0.6c-0.5,1.8-1.1,3.3-1.9,4.7    c0.1,0.5,0.2,1,0.4,1.3c0.2,0.4,0.2,0.5,0.3,0.5s0.1-0.2,0.2-0.6c0.1-0.4,0.2-1,0.2-1.8L126.8,65.9z M121.5,67.1h-4.7v-6.5h4.7    V67.1z M120.1,63v-1h-1.8v1H120.1z M120.1,65.7v-1.3h-1.8v1.3H120.1z M120,56.3h-1.4c0.2,0.8,0.3,1.5,0.4,2.1h0.4    C119.7,57.6,119.9,56.9,120,56.3z M126.5,57.3l-1.3,0.5c-0.1-0.9-0.4-2-0.9-3.3l1.3-0.5C125.9,55,126.3,56.1,126.5,57.3z"/>
		<path class="st0" d="M136,62.4l-1,1.3c-0.3-0.6-0.6-1.1-1-1.6v7.1h-1.5v-6.4c-0.4,1-0.9,2-1.4,2.8l-1-1.5c1.2-1.7,2-3.2,2.4-4.7    h-2.2v-1.5h2.3v-2.3c-0.8,0.1-1.3,0.2-1.7,0.3l-0.6-1.4c1.9-0.2,3.4-0.6,4.7-1.1l0.8,1.3c-0.7,0.3-1.3,0.5-1.7,0.6v2.7h1.5v1.5    H134v0.3C134.7,60.4,135.4,61.3,136,62.4z M146,68.8h-10.4v-1.4h4.5v-1.1h-4v-1.3h4v-1h-3.6v-5.7h3.6v-1h-4.3v-1.3h4.3v-0.9    c-1,0.1-2.1,0.1-3.5,0.1l-0.4-1.3c3,0.1,5.8-0.2,8.6-0.8l0.6,1.2c-1.1,0.3-2.4,0.5-3.8,0.6v1h4.3v1.3h-4.3v1h3.6v5.7h-3.6v1h4v1.3    h-4v1.1h4.4V68.8z M140.1,60.6v-1H138v1H140.1z M140.1,62.8v-1H138v1H140.1z M143.7,60.6v-1h-2.1v1H143.7z M143.7,62.8v-1h-2.1v1    H143.7z"/>
		<path class="st0" d="M157.7,68.7l-1.5,0.6c-0.2-0.6-0.3-1.1-0.4-1.4c-1.8,0.5-3.7,0.8-5.7,1.1l-0.5-1.5c1.2-0.1,2.3-0.3,3.3-0.5    v-2.3h-2.6v-5h2.6v-1.3h-2.2v-4.6h5.7v4.6h-2.1v1.3h2.6v5h-2.6v2c0.4-0.1,0.7-0.1,0.9-0.2c-0.1-0.2-0.2-0.5-0.4-0.8l1.3-0.6    C156.9,66.3,157.4,67.5,157.7,68.7z M152.9,63.3v-2.3h-1.2v2.3H152.9z M154.9,57v-1.8h-2.7V57H154.9z M155.5,63.3v-2.3h-1.2v2.3    H155.5z M165.5,68.3h-5.8v0.8h-1.5v-9.3c-0.2,0.3-0.3,0.5-0.4,0.6l-1.1-1.3c1.3-1.9,2.1-3.8,2.6-5.9l1.5,0.3    c-0.2,0.9-0.5,1.8-0.8,2.7h1.6c-0.1-0.8-0.3-1.5-0.6-2.2l1.5-0.4c0.3,0.9,0.6,1.8,0.7,2.6h2.1v1.5h-2.4v2.1h2.1v1.4h-2.1v2.1h2.1    v1.4h-2.1v2.1h2.6V68.3z M161.3,59.9v-2.1h-1.6v2.1H161.3z M161.3,63.3v-2.1h-1.6v2.1H161.3z M161.3,66.9v-2.1h-1.6v2.1H161.3z"/>
		<path class="st0" d="M182.7,56.1c-2.9,3.1-7.2,5.1-12.8,6.2l-0.8-1.4c2.7-0.4,4.8-1,6.4-1.7c-0.5-0.6-1.4-1.3-2.5-2.1    c-1.1,0.6-2,1-2.8,1.3l-0.9-1.2c2.6-1,4.6-2.3,6.3-3.9l1.5,0.6c-0.2,0.2-0.5,0.5-0.8,0.8h6.4V56.1z M184.7,62.5    c0,0.2-0.4,0.7-1.1,1.6c-0.7,0.8-1.5,1.6-2.3,2.1c-0.8,0.6-1.8,1.1-2.9,1.5c-1.1,0.4-2.3,0.8-3.6,1.1c-1.3,0.3-2.8,0.4-4.2,0.4    l-0.7-1.5c3,0.1,5.6-0.4,7.9-1.4c-0.5-0.7-1.4-1.4-2.5-2.3c-1.3,0.6-2.6,1.1-3.8,1.5l-1-1.3c3.4-0.9,6.2-2.5,8.5-4.7l1.5,0.6    c-0.3,0.3-0.6,0.7-1,1h5.2V62.5z M180.5,56.1h-5.8c-0.1,0.1-0.2,0.1-0.3,0.2c1,0.7,1.9,1.5,2.7,2.2    C178.4,57.8,179.6,56.9,180.5,56.1z M183,62.5h-5.2c-0.1,0.1-0.5,0.4-1.2,0.8c0.9,0.7,1.8,1.4,2.6,2.4    C180.9,64.8,182.2,63.7,183,62.5z"/>
		<path class="st0" d="M193.5,53.8c-0.2,0.6-0.5,1.3-0.8,2.2l-0.6,1.3v11.8h-1.6v-9c-0.3,0.5-0.7,1-1.1,1.5l-1-1.7    c1.5-1.9,2.7-4.1,3.5-6.7L193.5,53.8z M204.4,68.7h-11.3v-1.5h11.3V68.7z M203.2,65.2h-8.9V53.9h8.9V65.2z M201.5,58.7v-3.3h-5.6    v3.3H201.5z M201.5,63.6v-3.4h-5.6v3.4H201.5z"/>
		<path class="st0" d="M214.3,63.9c-1.2,2-2.9,3.8-5.1,5.3L208,68c2.1-1.4,3.7-3,4.8-4.8L214.3,63.9z M222.3,62.4h-12.8v-8.5h12.8    V62.4z M220.7,60.9v-5.4h-9.5v5.4H220.7z M223.9,68.1l-1.3,1.2c-1.2-1.7-2.9-3.4-5-5.1l1.3-1.2C221.2,64.9,222.8,66.6,223.9,68.1z    "/>
		<path class="st0" d="M243.2,56.6h-8.8c-0.2,0.5-0.5,1-0.9,1.5h8.5v9.7c0,0.4-0.1,0.7-0.3,0.9c-0.2,0.2-0.5,0.3-1,0.3s-0.9,0-1.3,0    c-0.7,0-1.2,0-1.7,0l-0.7-1.6c0.8,0,1.7,0.1,2.9,0.1c0.3,0,0.4-0.1,0.4-0.4v-1.7h-8c-0.3,1.3-0.9,2.5-1.9,3.6l-1.5-0.9    c1.3-1.4,1.9-2.7,1.9-4v-2.9c-0.8,0.8-1.6,1.5-2.4,2l-1.2-1.2c2.2-1.5,3.9-3.3,5.2-5.5h-5v-1.6h5.9c0.4-0.7,0.7-1.3,0.8-1.8    l1.7,0.3c-0.2,0.5-0.4,1-0.6,1.5h8V56.6z M240.4,61.1v-1.4h-7.8v1.4H240.4z M240.4,64v-1.4h-7.8V64H240.4z"/>
		<path class="st0" d="M247.1,65.7c0.9,0.7,2,1.1,3.2,1.1c0.9,0,1.6-0.2,2.1-0.6c0.5-0.4,0.8-1,0.8-1.7c0-1.6-1.2-2.4-3.5-2.4h-1.2    v-1.7h1.1c2.1,0,3.1-0.7,3.1-2.2c0-1.4-0.8-2.1-2.4-2.1c-0.9,0-1.8,0.3-2.7,0.9v-1.8c0.9-0.5,2-0.8,3.2-0.8c1.2,0,2.1,0.3,2.9,0.9    s1.1,1.4,1.1,2.4c0,1.8-0.9,2.9-2.7,3.4v0c1,0.1,1.7,0.4,2.3,1c0.6,0.6,0.9,1.3,0.9,2.2c0,1.3-0.5,2.3-1.4,3    c-0.9,0.7-2.1,1.1-3.6,1.1c-1.3,0-2.4-0.2-3.2-0.7V65.7z"/>
		<path class="st0" d="M263.3,58.9c1,1.5,1.5,2.9,1.5,4.2c0,0.7-0.2,1.3-0.5,1.7c-0.3,0.4-0.9,0.6-1.9,0.6c-0.2,0-0.4,0-0.6,0    l-0.4-1.5c0.4,0,0.8,0,1.1,0c0.4,0,0.7-0.2,0.7-0.7c0-1.5-0.5-2.8-1.5-4.1c0.4-1,0.8-2.3,1.3-3.9h-1.8v13.9h-1.6V53.7h5v1.5    C264.2,56.3,263.8,57.5,263.3,58.9z M269.2,59.5c-1.2,0.5-2.4,0.9-3.7,1.2l-0.4-1.3c0.1-0.2,0.1-0.4,0.1-0.6v-5.4h1.5v1.8h2.4v1.4    h-2.4v2.2c0.7-0.2,1.5-0.5,2.5-0.8L269.2,59.5z M274.1,69.1h-1.6v-0.8h-5.4v0.8h-1.6v-7.5h2.4c0.2-0.4,0.3-0.8,0.5-1.4l1.5,0.4    c-0.1,0.3-0.2,0.7-0.4,1h4.6V69.1z M272.5,64.3V63h-5.4v1.2H272.5z M272.5,66.9v-1.3h-5.4v1.3H272.5z M275,57.8    c0,0.9-0.1,1.5-0.4,1.9c-0.2,0.4-0.5,0.6-0.8,0.6c-0.3,0.1-1.1,0.1-2.5,0.1c-1,0-1.6-0.5-1.6-1.5v-5.5h1.6v1.8h2.9v1.4h-2.9v2.1    c0,0.2,0.1,0.3,0.3,0.3c0.8,0,1.4,0,1.6-0.1s0.3-0.6,0.3-1.6L275,57.8z"/>
		<path class="st0" d="M293.6,57.3h-12.4v4.1c0,0.7,0,1.3-0.1,2s-0.1,1.3-0.3,2c-0.1,0.6-0.3,1.4-0.5,2.2c-0.2,0.8-0.4,1.3-0.6,1.4    l-1.3-0.9c0.8-1.8,1.2-4,1.2-6.4v-8h13.9V57.3z M292,56v-1h-10.8v1H292z M293.4,63.1h-11.5v-4.1h11.5V63.1z M293,69.1h-1.6v-0.6    H284v0.6h-1.5v-5.3H293V69.1z M286.9,61.9v-1.8h-3.5v1.8H286.9z M286.3,61.3l-1.4,0.4c-0.4-0.5-0.8-0.8-1.1-1.1l1.4-0.4    C285.5,60.6,285.9,60.9,286.3,61.3z M286.5,58.4l-1.4,0.5c-0.5-0.4-0.9-0.7-1.3-1l1.4-0.5C285.7,57.6,286.1,58,286.5,58.4z     M291.4,65.6v-0.7H284v0.7H291.4z M291.4,67.4v-0.7H284v0.7H291.4z M291.9,61.9v-1.8h-3.5v1.8H291.9z M291.6,58.1    c-0.4,0.3-0.9,0.5-1.6,0.8l-1.4-0.7c0.5-0.1,1-0.4,1.6-0.7L291.6,58.1z M291.6,60.7c-0.4,0.4-0.8,0.8-1.2,1l-1.4-0.5    c0.5-0.3,0.9-0.7,1.2-1L291.6,60.7z"/>
		<path class="st0" d="M305.9,59.3c0.6,0,1,0.2,1.4,0.6c0.4,0.4,0.6,0.9,0.6,1.4c0,0.6-0.2,1.1-0.6,1.5c-0.4,0.4-0.9,0.6-1.4,0.6    c-0.5,0-1-0.2-1.4-0.6c-0.4-0.4-0.6-0.9-0.6-1.5c0-0.6,0.2-1,0.6-1.4C304.9,59.5,305.4,59.3,305.9,59.3z M306,62.4    c0.3,0,0.5-0.1,0.7-0.3s0.3-0.5,0.3-0.7s-0.1-0.5-0.3-0.7s-0.4-0.3-0.8-0.3c-0.3,0-0.6,0.1-0.7,0.3s-0.3,0.5-0.3,0.7    c0,0.3,0.1,0.5,0.3,0.7S305.7,62.4,306,62.4z"/>
	</g>
</g>
</svg>