<?xml version="1.0" encoding="UTF-8"?>
<!-- Generator: Adobe Illustrator 21.0.2, SVG Export Plug-In . SVG Version: 6.00 Build 0)  -->
<svg version="1.1" id="圖層_1" xmlns="http://www.w3.org/2000/svg" xmlns:xlink="http://www.w3.org/1999/xlink" x="0px" y="0px" width="191.2px" height="83.1px" viewBox="0 0 191.2 83.1" style="enable-background:new 0 0 191.2 83.1;" xml:space="preserve">
<style type="text/css">
	.st0{fill:#009D95;}
</style>
<g>
	<g>
		<path d="M31.6,21.2l1.7,0.3c1.2,0.3,2.2,0.2,2.9-0.3c1.2-0.8,2.2-3.5,2.9-8h-7.9L31,15c-0.8,0.8-1.2,0.8-1.2,0.1L31,6.8l1.4,0.7    h5.9V2.6h-8.3V2h7.9l0.6-1l1.8,1.2c0.5,0.4,0.3,0.7-0.7,0.8v6.2c-0.9,0.8-1.3,0.8-1.3,0.1V8.1H32l-0.6,4.5h7.4l0.9-0.9l1.5,1.5    c0.5,0.5,0.3,0.7-0.6,0.5c-0.8,5.2-2.3,8.3-4.3,9.3c-0.7,0.4-1.4,0.6-2,0.5c-0.4-0.1-0.6-0.3-0.6-0.6c-0.1-0.3-0.3-0.5-0.6-0.7    l-1.5-0.6C31.3,21.4,31.4,21.3,31.6,21.2z M46.8,22.6V0.8l1.7,0.3c0.5,0.3,0.4,0.6-0.4,0.7v20.7C47.2,23.3,46.8,23.3,46.8,22.6z"/>
		<path d="M72.4,15.2h-5.5c-2.6,0-4.8-0.8-6.8-2.5L57.8,15c0.1,0.7-0.1,0.9-0.5,0.6l-1-1.5l3.3-1.4V8.3h-3.4V7.7h3.1l0.6-0.8l1.4,1    c0.4,0.3,0.3,0.6-0.4,0.7v4c1.5,1.1,3.4,1.6,5.6,1.6h11.6c-0.5,0.3-0.9,0.7-1.1,1h-3.3v2.3h2.6l1.3-1.3l1.6,1.2    c0.4,0.3,0.4,0.6,0,0.7h-5.5v3.3c0,0.7-0.2,1.3-0.7,1.7c-0.3,0.3-0.6,0.4-1,0.4c-0.3,0-0.4-0.2-0.4-0.5c0-0.3-0.2-0.6-0.6-0.7    l-1.3-0.2c-0.3-0.1-0.3-0.3,0-0.4h2c0.5,0,0.7-0.2,0.7-0.7v-2.9h-9.2c1.3,1.1,2,2.2,2,3c0,0.7-0.2,1-0.6,1c-0.3,0-0.5-0.2-0.7-0.6    c-0.3-1.5-0.9-2.7-1.6-3.4h-5.7v-0.6h15.8V15.2z M60.6,3.8c0,0.5-0.2,0.7-0.7,0.7c-0.2,0-0.4-0.3-0.7-1c-0.4-0.9-1.2-1.7-2.3-2.5    c-0.2-0.3-0.1-0.4,0.2-0.3C59.5,1.6,60.6,2.6,60.6,3.8z M67.6,2.5c0,0.4-0.1,0.7-0.2,0.9H71l1.3-3.3l1.6,0.7    c0.5,0.3,0.3,0.5-0.7,0.6l-1.5,2h3.9L77,2.1l1.6,1.2C79,3.7,79,3.9,78.6,4h-8.7l-1.2,2h5.7L75,5.1l1.4,1.2    c0.4,0.3,0.3,0.6-0.4,0.7v5.6c-0.9,0.8-1.3,0.8-1.3,0.1v-0.5h-9v0.3c-0.9,0.8-1.3,0.8-1.3,0.1V5.3L65.9,6H68l0.5-2h-6.3V3.4h4.7    c-0.4-0.3-0.6-0.7-0.7-1.1c-0.3-0.8-0.7-1.4-1.3-1.9C64.7,0.1,64.7,0,65.1,0C66.8,0.9,67.6,1.7,67.6,2.5z M65.7,7.9h9V6.6h-9V7.9z     M65.7,8.5v1.2h9V8.5H65.7z M65.7,10.3v1.4h9v-1.4H65.7z"/>
		<path d="M103.1,11.3v-1.2h-7v10.2h8v-7.6l1.7,0.3c0.5,0.3,0.4,0.6-0.4,0.7v9c-0.9,0.8-1.3,0.8-1.3,0.1v-1.9h-17v1.7    c-0.9,0.8-1.3,0.8-1.3,0.1V12.6l1.7,0.3c0.5,0.3,0.4,0.6-0.4,0.7v6.6h7.8V10.1h-6.5v1c-0.9,0.8-1.3,0.8-1.3,0.1V2.4l1.7,0.3    c0.5,0.3,0.4,0.6-0.4,0.7v6h6.5V1l1.7,0.3C97.1,1.6,97,1.9,96.2,2v7.5h7V2.4l1.7,0.3c0.5,0.3,0.4,0.6-0.4,0.7v7.8    C103.5,12,103.1,12,103.1,11.3z"/>
		<path d="M115.7,6.9c1,0.2,1.1,0.5,0.3,0.9V23c-0.9,0.8-1.3,0.8-1.3,0.1V8.9c-0.9,1.5-1.8,2.8-2.9,3.8c-0.3,0.1-0.4,0-0.3-0.3    c2.2-3.2,3.9-7.4,5.1-12.4l1.8,0.8c0.5,0.4,0.3,0.7-0.7,0.8C117.1,3.4,116.4,5.2,115.7,6.9z M120,20.7v1.7    c-0.9,0.8-1.3,0.8-1.3,0.1V1.7l1.5,0.8h11.7l0.6-0.8l1.4,1c0.4,0.3,0.3,0.6-0.4,0.7V22c-0.9,0.8-1.3,0.8-1.3,0.1v-1.4H120z     M126.5,11.7h1.6l0.6-0.8l1.4,1c0.4,0.3,0.3,0.6-0.4,0.7v4.9c-0.9,0.8-1.3,0.8-1.3,0.1v-0.7h-5v1.4c-0.9,0.8-1.3,0.8-1.3,0.1v-7.7    l1.5,0.9h1.6V8.4h-3.9V7.8h3.9V3.1H120V20h12.2V3.1h-5.6v4.6h1.9l1.1-1.1l1.4,1c0.4,0.3,0.4,0.6,0,0.7h-4.4V11.7z M128.5,12.3h-5    v4h5V12.3z"/>
		<path d="M150,1.5l2,0.3c0.7,0.3,0.6,0.5-0.5,0.8v1.3c0.9,8.7,4.7,14.4,11.6,17c-0.9,0-1.9,0.4-2.8,1.2c-5.1-3.2-8.2-8.8-9.2-16.6    c-0.2,4.6-1.1,8.3-2.8,11c-1.7,2.7-4.4,4.9-8.3,6.5c-0.4,0.1-0.5-0.1-0.2-0.4c3.6-2,6-4.3,7.5-7c1.6-3,2.5-6.6,2.7-10.9V1.5z"/>
		<path d="M18.7,44.3l0.7-0.7l1.6,1.1c0.3,0.3-0.1,0.6-1.1,0.7c-0.7,1.9-1.7,3.7-3,5.3c1.4,1.3,3.5,2.2,6.1,2.9    c-0.8,0.5-1.5,1-2,1.5c-1.9-1-3.6-2.2-4.9-3.6c-1.5,1.4-3.1,2.5-4.5,3.1c-0.5,0.1-0.5-0.1-0.2-0.4c1.8-1.3,3.2-2.5,4.1-3.5    c-1.1-1.3-1.9-3.2-2.6-5.8h-2v10c-0.9,0.8-1.3,0.8-1.3,0.1v-5.1l-7.9,3c0.2,1.1,0,1.3-0.5,0.6L0,51.9l3.5-1v-8.8H0.4v-0.6h20    l1.3-1.3l1.6,1.2c0.4,0.3,0.4,0.6,0,0.7H10.9v2.1H18.7z M4.8,44.3h4.7v-2.1H4.8V44.3z M4.8,47.1h4.7v-2.2H4.8V47.1z M4.8,50.6    l4.7-1.3v-1.6H4.8V50.6z M16.1,32.8l0.6-0.8l1.4,1c0.4,0.3,0.3,0.6-0.4,0.7v6.2c-0.9,0.8-1.3,0.8-1.3,0.1v-0.7H6.2v0.9    c-0.9,0.8-1.3,0.8-1.3,0.1V32l1.5,0.8H16.1z M6.2,33.4v2.3h10.2v-2.3H6.2z M16.4,36.3H6.2v2.4h10.2V36.3z M18.7,44.9h-5.2    c0.7,2.2,1.5,3.8,2.6,5C17.1,48.6,18,46.9,18.7,44.9z"/>
		<path d="M39.9,40h-0.5c0.1,7-3.5,11.8-10.6,14.4c-0.5,0.1-0.5-0.1-0.2-0.5c6.2-2.8,9.3-7.4,9.5-13.9h-9.3v-0.6h9.3v-7.3l1.7,0.3    c0.5,0.3,0.4,0.6-0.4,0.7v6.2h8.1l1.5-1.5l1.9,1.4c0.4,0.3,0.4,0.6,0,0.7H40.6c1.1,5.9,4.8,10.2,10.9,12.9    c-1.1,0.2-1.9,0.6-2.4,1.1C43.8,50.9,40.8,46.3,39.9,40z"/>
		<path d="M57.6,47.4l3.9-10.9c0.2-0.3,0.3-0.2,0.2,0.1l-0.5,1.9h1.9v-3H62v-0.6h4.1v-2.5l1.5,0.3c0.7,0.1,0.6,0.4-0.2,0.8v1.4h0.5    l0.8-0.8l1.2,0.7c0.4,0.3,0.4,0.6,0,0.7h-2.6c0,1.3-0.1,2.4-0.3,3h1.1l0.9-0.9l1.3,0.9h1v-3h-0.7v-0.6h3.5v-2.3l1.5,0.3    c0.7,0.1,0.6,0.4-0.2,0.8v1.2h0.7l0.9-0.9l1.3,0.8c0.4,0.3,0.4,0.6,0,0.7h-3c0,1.1-0.1,2.1-0.4,3h1.6l0.9-1l1.4,0.9    c0.4,0.3,0.4,0.6,0,0.7h-3v3.3c0,0.3,0.1,0.4,0.4,0.5h1.2c0.3,0,0.6-0.3,0.7-0.8l0.4-1.7c0.1-0.1,0.2-0.1,0.3,0v1.9    c0,0.3,0.1,0.5,0.4,0.7c0.3,0.2,0.3,0.4,0,0.7c-0.3,0.3-0.6,0.4-1.1,0.4h-2.7c-0.5,0-0.8-0.2-0.9-0.7v-3.9    c-0.9,2.3-2.7,4.1-5.3,5.3c-0.5,0.1-0.5,0-0.2-0.3c2.4-1.7,3.9-3.5,4.5-5.4H68v3.5l2.7-0.8c0.8-0.3,0.8-0.1,0.1,0.4l-4.3,2    c-0.1,1-0.4,1.2-0.7,0.6L65,43.5l1.7-0.5v-3.7c-1.1,2.6-3,4.7-5.6,6.1c-0.3,0.1-0.3,0-0.1-0.3c2.5-2.2,4-4.2,4.6-6h-4.4l-1.9,7.3    c-0.4,1.5-0.3,3.5,0.2,5.8c0.3,1.5,0,2.4-0.8,2.4c-0.7,0.1-1.1-0.5-1-1.6c0.1-1,0.1-1.7,0.2-2.1c0.1-0.8,0.2-1.4,0.1-1.8    c-0.1-0.5-0.5-0.9-1.3-1.1l-1.2-0.3v-0.3H57.6z M59,40.2c0.2,0.7,0.1,1.1-0.3,1.3c-0.5,0.2-0.9,0-1.2-0.7    c-0.3-0.9-0.9-1.7-1.9-2.3c-0.3-0.2-0.2-0.3,0.1-0.3C57.5,38.5,58.6,39.1,59,40.2z M60.5,34.8c0.2,0.6,0.1,1-0.2,1.3    c-0.5,0.2-0.8,0-1.1-0.5c-0.5-1.2-1.2-2-2-2.4c-0.2-0.2-0.2-0.3,0.1-0.3C58.9,33.1,60,33.7,60.5,34.8z M74.5,45.9l0.7-0.7l1.3,0.8    c0.6,0.3,0.4,0.6-0.5,0.9v7.4c-0.9,0.8-1.3,0.8-1.3,0.1v-0.8h-9.3v1.3c-0.9,0.8-1.3,0.8-1.3,0.1v-9.8l1.5,0.7H74.5z M64.5,38.5    h1.3c0.2-0.7,0.3-1.7,0.3-3h-1.6V38.5z M74.7,49.3v-2.8h-9.3v2.8H74.7z M74.7,49.9h-9.3v3h9.3V49.9z M72.6,38.5h1.1    c0.3-0.9,0.4-1.9,0.4-3h-1.5V38.5z"/>
		<path d="M103.7,38.9h-8.1c-0.7,7.6-4.6,12.8-11.5,15.6c-0.6,0.1-0.7,0-0.2-0.3c6.1-3.4,9.5-8.5,10.3-15.3H86v-0.6h8.3    c0.1-1.1,0.2-1.9,0.2-2.4v-3.3l1.8,0.2c1.3,0.4,1.2,0.8-0.3,1.1v1.9c0,0.7-0.1,1.5-0.2,2.5h7.6l0.6-0.8l1.4,1    c0.5,0.3,0.3,0.6-0.4,0.7c-0.1,6.5-0.7,10.8-1.6,12.9c-0.4,0.9-1.1,1.5-2.1,2c-0.7,0.3-1.3,0.5-1.7,0.5s-0.6-0.2-0.6-0.6    c0-0.4-0.3-0.7-0.8-1L97,52.5c-0.3-0.3-0.2-0.4,0.3-0.3l1.8,0.5c0.5,0.1,0.8,0.2,1.1,0.2c0.3,0,0.7-0.2,1.2-0.5    c0.7-0.5,1.2-1.9,1.6-4.3C103.5,45.3,103.7,42.2,103.7,38.9z"/>
		<path d="M119.9,52v-1.5H114v2.4c-0.9,0.8-1.3,0.8-1.3,0.1V36.8l1.5,0.8h1.4l1-5.6l1.5,0.4c1.2,0.3,1.1,0.7-0.3,1.2l-1.6,4h3.3    l0.6-0.8l1.4,1c0.4,0.3,0.3,0.6-0.4,0.7v13.4C120.3,52.7,119.9,52.8,119.9,52z M119.9,38.2H114v5.2h5.8V38.2z M114,44.1v5.8h5.8    v-5.8H114z M125.9,32l1.9,0.6c0.9,0.3,0.8,0.6-0.4,0.9l-1.7,4.1h6.5l0.6-0.8l1.4,1c0.4,0.3,0.3,0.6-0.4,0.7v7.9    c0,3.2-0.5,5.4-1.4,6.5c-0.5,0.7-1.3,1.2-2.3,1.6c-0.9,0.4-1.4,0.3-1.4-0.2c0-0.5-0.2-0.8-0.5-0.9l-1.8-0.5    c-0.3-0.2-0.3-0.3,0.1-0.4l2.4,0.2c0.7,0.1,1.3-0.1,2-0.5c1.1-0.7,1.6-2.8,1.6-6v-8h-7.2c-1,2.2-2.1,3.9-3.2,5.1    c-0.3,0.2-0.5,0.1-0.4-0.2C123.7,40.2,125.1,36.5,125.9,32z M124.5,42.7c-0.2-0.3-0.1-0.4,0.2-0.3c2.4,1,3.5,2.2,3.5,3.6    c0,0.6-0.2,0.9-0.7,0.9c-0.3,0-0.5-0.3-0.7-0.9C126.4,44.9,125.7,43.8,124.5,42.7z"/>
		<path d="M142.3,47.8c-0.7,2.8-1.6,4.8-2.9,6.1c-0.3,0.2-0.4,0.1-0.4-0.2c1-1.8,1.7-4.3,2.2-7.5L143,47    C143.5,47.4,143.3,47.6,142.3,47.8z M147.2,35.5l1.4,0.8c0.5,0.4,0.3,0.7-0.7,0.8l-4.2,6.3l3.9-0.2c-0.3-0.6-0.8-1.1-1.4-1.6    c-0.2-0.3-0.1-0.4,0.2-0.3c2.1,0.9,3.2,2,3.2,3.2c0,0.6-0.2,0.9-0.6,0.9c-0.3,0-0.4-0.2-0.5-0.5c-0.2-0.5-0.4-0.9-0.7-1.2    l-2.5,0.3v10.4c-0.9,0.8-1.3,0.8-1.3,0.1V44.3l-2.7,0.7c-0.3,0.7-0.5,0.8-0.8,0.4l-1.1-1.8h3.6L147.2,35.5z M139.7,37    c-0.2-0.3-0.1-0.4,0.2-0.4c0.9,0.2,1.6,0.5,2.3,1l2.3-5.2l1.5,1c0.5,0.4,0.3,0.6-0.8,0.5l-2.6,4c0.8,0.6,1.2,1.2,1.2,1.9    c0,0.6-0.2,0.9-0.6,0.9c-0.3,0-0.6-0.3-0.9-1C141.9,38.8,141,37.9,139.7,37z M149.5,49.8c0,0.5-0.2,0.8-0.6,0.8    c-0.3,0-0.6-0.4-0.7-1.1c-0.3-0.9-0.9-1.9-1.9-2.8c-0.2-0.3-0.1-0.4,0.2-0.4C148.4,47.1,149.5,48.3,149.5,49.8z M159.8,52.3h0.5    l1.3-1.3l1.6,1.2c0.4,0.3,0.4,0.6,0,0.7h-15.6v-0.6h3.7V33.9l1.5,0.9h5.3l0.6-0.8l1.4,1c0.4,0.3,0.3,0.6-0.4,0.7V52.3z     M152.7,40.4h5.8v-5h-5.8V40.4z M152.7,41v4.7h5.8V41H152.7z M152.7,46.4v5.9h5.8v-5.9H152.7z"/>
		<path d="M168.8,37.2l2.5-4.7l1.1,0.7c0.9,0.4,0.7,0.7-0.6,0.8l-2.6,3.4c0.8,0.5,1.2,1.1,1.2,1.7c0,0.5-0.2,0.8-0.5,0.8    c-0.3,0-0.5-0.1-0.6-0.4c-0.3-0.9-1-1.8-2.1-2.5c-0.2-0.1-0.2-0.2,0-0.3C167.6,36.7,168.2,36.9,168.8,37.2z M168.2,46.2l1.4,0.4    c0.7,0.3,0.7,0.5-0.2,0.8c-0.4,2.8-1.1,5.1-2,6.8c-0.3,0.2-0.4,0.1-0.3-0.2C167.9,51.6,168.2,49,168.2,46.2z M174.8,44.7    c0,0.5-0.2,0.7-0.5,0.7c-0.3,0-0.4-0.2-0.5-0.5c-0.1-0.5-0.3-0.9-0.4-1.1l-1.3,0.3v10.9c-0.7,0.5-1,0.5-1.1,0V44.2l-2.3,0.6    c-0.1,0.9-0.4,1-0.9,0.1l-0.6-1.3h2l3.6-7.3l1.6,1.2c0.2,0.4-0.1,0.5-1,0.4l-3.8,5.5l3.7-0.2c-0.1-0.4-0.4-0.9-0.9-1.5    c-0.2-0.3-0.1-0.4,0.3-0.2c0.6,0.4,1.1,0.9,1.5,1.5C174.6,43.6,174.8,44.2,174.8,44.7z M175.1,49.5c0,0.8-0.2,1.2-0.6,1.2    c-0.3,0-0.5-0.3-0.5-0.8c-0.1-1.4-0.4-2.4-0.9-3c-0.1-0.3-0.1-0.3,0.2-0.2C174.5,47.5,175.1,48.4,175.1,49.5z M180.3,54.8    c1.9-1.9,3.5-3.8,4.6-5.7c-0.7-2.3-1-4.8-1.1-7.6h-10.1v-0.6h3.3c-0.3-0.5-0.4-0.9-0.4-1.3c-0.1-0.8-0.3-1.6-0.7-2.3    c-0.2-0.4-0.1-0.5,0.2-0.3c1.2,0.9,1.8,1.9,1.8,3c0,0.5-0.1,0.8-0.3,0.9h2l1.2-4.2l1.4,0.5c0.5,0.2,0.3,0.4-0.5,0.6l-1.6,3.1h3.6    v-8.7l1.7,0.3c0.5,0.3,0.4,0.6-0.4,0.7v7.7h2.3l1.5-1.5l1.9,1.4c0.4,0.3,0.4,0.6,0,0.7h-5.7c0.1,2.6,0.3,4.6,0.7,6.1    c0.9-1.6,1.6-3.1,2.1-4.5l1.9,1.3c0.2,0.4-0.1,0.5-1,0.4c-0.8,1.5-1.6,2.9-2.5,4.2c0.9,1.6,1.6,2.6,2.3,2.9    c0.3,0.1,0.6-0.1,0.7-0.4l0.8-2c0.2-0.1,0.3-0.1,0.3,0.1l-0.5,2.4c-0.1,0.4,0,0.8,0.3,1.1c0.2,0.3,0.3,0.5,0.3,0.8    c0,0.3-0.2,0.4-0.5,0.4c-0.6,0-1.4-0.4-2.4-1.3c-0.6-0.6-1.3-1.6-2.1-2.9c-1.7,2.2-3.4,3.9-4.9,4.9    C180.2,55.3,180.1,55.2,180.3,54.8z M179.3,33.1v2.6h1.3l1.1-1.1l1.4,1c0.4,0.3,0.4,0.6,0,0.7h-8.6v-0.6h3.4v-3.6l1.7,0.3    C180.3,32.7,180.1,32.9,179.3,33.1z M180.4,44l0.6-0.8l1.4,1c0.4,0.3,0.3,0.6-0.4,0.7v7.6c-0.9,0.8-1.3,0.8-1.3,0.1v-0.6h-3.5v1.4    c-0.9,0.8-1.3,0.8-1.3,0.1V43.2l1.5,0.7H180.4z M177.2,44.6v2.9h3.5v-2.9H177.2z M177.2,48.1v3.2h3.5v-3.2H177.2z M189.6,37.4    c0,0.5-0.2,0.8-0.6,0.8c-0.2,0-0.5-0.3-0.8-0.9c-0.5-0.9-1.1-1.6-2-2.1c-0.2-0.2-0.1-0.3,0.2-0.3    C188.5,35.6,189.6,36.5,189.6,37.4z"/>
	</g>
	<g>
		<path class="st0" d="M11.5,70.1h-0.6v12.8H9.5v-2.4c-0.9,0.4-1.8,0.7-2.7,0.9L6.4,80c0.1,0,0.4-0.1,0.9-0.2v-9.7H6.5v-1.4h4.9    V70.1z M9.5,72.1v-2.1h-1v2.1H9.5z M9.5,75.6v-2.1h-1v2.1H9.5z M9.5,79V77h-1v2.3C8.8,79.3,9.2,79.1,9.5,79z M21.2,79.9    c-0.2,1.4-0.4,2.2-0.6,2.6c-0.2,0.4-0.6,0.6-1,0.6c-0.3,0-0.6-0.1-0.8-0.4c-0.2-0.3-0.5-0.8-0.8-1.5c-0.6,0.6-1.2,1.3-1.9,1.9    l-1-0.9c1-0.8,1.8-1.7,2.5-2.7c-0.2-1.5-0.4-3.2-0.4-5.2h-5.8v-1.3h1.3c-0.1-0.6-0.2-1.2-0.4-2h-0.4v-1.3h1.8    c-0.1-0.4-0.2-0.8-0.4-1.2l1.4-0.3c0.2,0.5,0.4,1,0.5,1.5h1.8V71h-0.5c-0.1,0.7-0.3,1.3-0.5,2h1.3c0-2.2,0-3.8,0-4.6h1.4    c0,1.8,0,3.3,0,4.6H21v1.3h-2.4c0,1.1,0,2.2,0.1,3.3c0.4-1,0.7-1.9,0.9-2.7l1.2,0.5c-0.5,1.7-1.1,3.1-1.8,4.3    c0.1,0.5,0.2,0.9,0.4,1.2c0.1,0.3,0.2,0.5,0.3,0.5s0.1-0.2,0.2-0.6c0.1-0.4,0.1-0.9,0.2-1.7L21.2,79.9z M16.4,81h-4.3v-6h4.3V81z     M15,77.2v-1h-1.6v1H15z M15,79.7v-1.2h-1.6v1.2H15z M15,71h-1.3c0.2,0.7,0.3,1.4,0.4,2h0.4C14.7,72.2,14.9,71.5,15,71z M21,71.9    l-1.2,0.5c-0.1-0.8-0.4-1.8-0.9-3l1.2-0.5C20.5,69.8,20.8,70.8,21,71.9z"/>
		<path class="st0" d="M29.8,76.6l-1,1.2c-0.3-0.5-0.6-1.1-0.9-1.5v6.6h-1.4V77c-0.4,1-0.8,1.8-1.3,2.6l-1-1.4    c1.1-1.5,1.8-3,2.2-4.4h-2.1v-1.4h2.1v-2.1c-0.7,0.1-1.2,0.2-1.5,0.2l-0.5-1.3c1.7-0.2,3.2-0.5,4.3-1l0.8,1.2    c-0.7,0.3-1.2,0.4-1.6,0.5v2.5h1.4v1.4H28V74C28.6,74.8,29.2,75.6,29.8,76.6z M39.1,82.6h-9.6v-1.3h4.2v-1h-3.7v-1.2h3.7v-0.9    h-3.3v-5.3h3.3V72h-4v-1.2h4V70c-0.9,0.1-2,0.1-3.3,0.1l-0.4-1.2c2.8,0.1,5.4-0.2,8-0.8l0.6,1.1c-1.1,0.2-2.2,0.4-3.5,0.6v1h4V72    h-4v0.9h3.3v5.3H35v0.9h3.7v1.2H35v1h4.1V82.6z M33.6,75v-1h-1.9v1H33.6z M33.6,77v-1h-1.9v1H33.6z M36.9,75v-1H35v1H36.9z     M36.9,77v-1H35v1H36.9z"/>
		<path class="st0" d="M49.9,82.4L48.5,83c-0.1-0.6-0.3-1-0.4-1.3c-1.6,0.4-3.4,0.8-5.3,1.1l-0.5-1.4c1.1-0.1,2.1-0.2,3.1-0.4v-2.1    H43v-4.6h2.4v-1.2h-2v-4.2h5.3v4.2h-2v1.2h2.4v4.6h-2.4v1.8c0.4-0.1,0.7-0.1,0.8-0.2c-0.1-0.2-0.2-0.5-0.4-0.8l1.2-0.5    C49.1,80.2,49.6,81.3,49.9,82.4z M45.4,77.5v-2.1h-1.1v2.1H45.4z M47.3,71.6V70h-2.5v1.6H47.3z M47.9,77.5v-2.1h-1.1v2.1H47.9z     M57.1,82.1h-5.3v0.8h-1.4v-8.6c-0.2,0.3-0.3,0.5-0.4,0.5l-1-1.2c1.2-1.7,2-3.5,2.4-5.4l1.4,0.3c-0.2,0.9-0.4,1.7-0.7,2.5h1.5    c-0.1-0.7-0.3-1.4-0.6-2l1.4-0.4c0.3,0.8,0.5,1.7,0.7,2.5h2v1.4h-2.2v1.9h2v1.3h-2v1.9h2v1.3h-2v2h2.4V82.1z M53.2,74.3v-1.9h-1.5    v1.9H53.2z M53.2,77.5v-1.9h-1.5v1.9H53.2z M53.2,80.8v-2h-1.5v2H53.2z"/>
		<path class="st0" d="M73.1,70.8c-2.7,2.8-6.6,4.8-11.8,5.8l-0.7-1.3c2.5-0.4,4.5-0.9,5.9-1.5c-0.5-0.6-1.3-1.2-2.3-2    c-1,0.5-1.9,1-2.6,1.2l-0.9-1.1c2.4-0.9,4.3-2.2,5.8-3.6l1.4,0.5c-0.2,0.2-0.4,0.5-0.7,0.8h5.9V70.8z M75,76.7    c0,0.2-0.3,0.7-1,1.4s-1.4,1.4-2.2,2c-0.8,0.5-1.7,1-2.7,1.4c-1,0.4-2.1,0.7-3.4,1s-2.6,0.4-3.9,0.4l-0.6-1.4    c2.8,0.1,5.2-0.4,7.3-1.3c-0.5-0.6-1.3-1.3-2.3-2.1c-1.2,0.6-2.4,1-3.5,1.4l-0.9-1.2c3.1-0.8,5.8-2.3,7.9-4.4l1.4,0.5    c-0.2,0.3-0.5,0.6-0.9,0.9H75V76.7z M71.1,70.8h-5.4c-0.1,0-0.1,0.1-0.3,0.2c0.9,0.7,1.8,1.4,2.5,2.1    C69.1,72.3,70.2,71.6,71.1,70.8z M73.4,76.7h-4.8c-0.1,0.1-0.5,0.4-1.1,0.8c0.8,0.6,1.6,1.3,2.4,2.2    C71.4,78.8,72.6,77.8,73.4,76.7z"/>
		<path class="st0" d="M83.1,68.6c-0.2,0.6-0.4,1.2-0.8,2.1l-0.5,1.2v11h-1.5v-8.4c-0.3,0.5-0.6,0.9-1,1.4l-0.9-1.5    c1.4-1.7,2.5-3.8,3.2-6.2L83.1,68.6z M93.1,82.5H82.7V81h10.5V82.5z M92,79.2h-8.2V68.7H92V79.2z M90.5,73.2v-3.1h-5.2v3.1H90.5z     M90.5,77.8v-3.2h-5.2v3.2H90.5z"/>
		<path class="st0" d="M102.3,78c-1.1,1.9-2.7,3.5-4.7,4.9l-1.1-1.1c2-1.3,3.4-2.8,4.4-4.5L102.3,78z M109.8,76.6H97.9v-7.9h11.8    V76.6z M108.3,75.2v-5h-8.8v5H108.3z M111.2,81.9l-1.2,1.1c-1.1-1.6-2.7-3.2-4.7-4.7l1.2-1.1C108.7,79,110.3,80.6,111.2,81.9z"/>
		<path class="st0" d="M129.2,71.3h-8.1c-0.2,0.4-0.5,0.9-0.9,1.4h7.8v8.9c0,0.4-0.1,0.7-0.3,0.9c-0.2,0.2-0.5,0.3-0.9,0.3    c-0.4,0-0.8,0-1.2,0c-0.6,0-1.1,0-1.5,0l-0.6-1.5c0.7,0,1.6,0,2.7,0c0.2,0,0.4-0.1,0.4-0.4v-1.5h-7.4c-0.3,1.2-0.9,2.3-1.7,3.4    l-1.4-0.8c1.2-1.3,1.8-2.5,1.8-3.7v-2.7c-0.7,0.8-1.5,1.4-2.2,1.8l-1.1-1.1c2-1.3,3.6-3.1,4.8-5.1h-4.6v-1.5h5.4    c0.4-0.6,0.6-1.2,0.8-1.7l1.5,0.3c-0.1,0.4-0.3,0.9-0.6,1.4h7.4V71.3z M126.5,75.5v-1.3h-7.3v1.3H126.5z M126.5,78.1v-1.3h-7.3    v1.3H126.5z"/>
		<path class="st0" d="M132.7,79.7c0.9,0.7,1.8,1,2.9,1c0.8,0,1.5-0.2,1.9-0.6c0.5-0.4,0.7-0.9,0.7-1.6c0-1.5-1.1-2.2-3.2-2.2H134    v-1.5h1c1.9,0,2.9-0.7,2.9-2.1c0-1.3-0.7-1.9-2.2-1.9c-0.9,0-1.7,0.3-2.5,0.9v-1.7c0.8-0.5,1.8-0.7,2.9-0.7c1.1,0,2,0.3,2.7,0.8    c0.7,0.6,1,1.3,1,2.2c0,1.7-0.8,2.7-2.5,3.2v0c0.9,0.1,1.6,0.4,2.1,1c0.5,0.6,0.8,1.2,0.8,2c0,1.2-0.4,2.1-1.3,2.8    c-0.9,0.7-2,1-3.3,1c-1.2,0-2.2-0.2-3-0.7V79.7z"/>
		<path class="st0" d="M147.8,73.3c0.9,1.4,1.4,2.7,1.4,3.9c0,0.7-0.2,1.2-0.5,1.6c-0.3,0.4-0.9,0.6-1.7,0.6c-0.2,0-0.4,0-0.5,0    l-0.4-1.4c0.4,0,0.8,0,1,0c0.4,0,0.6-0.2,0.6-0.7c0-1.4-0.5-2.6-1.4-3.8c0.4-0.9,0.8-2.1,1.2-3.6h-1.7v12.9h-1.5V68.5h4.7v1.4    C148.6,71,148.2,72.1,147.8,73.3z M153.2,73.9c-1.1,0.5-2.2,0.8-3.5,1.1l-0.4-1.2c0.1-0.2,0.1-0.4,0.1-0.6v-5h1.4V70h2.3v1.3h-2.3    v2c0.7-0.2,1.4-0.4,2.3-0.8L153.2,73.9z M157.7,82.9h-1.5v-0.8h-5v0.8h-1.5v-6.9h2.3c0.2-0.3,0.3-0.8,0.4-1.3l1.4,0.4    c-0.1,0.3-0.2,0.6-0.4,0.9h4.3V82.9z M156.3,78.3v-1.1h-5v1.1H156.3z M156.3,80.8v-1.2h-5v1.2H156.3z M158.6,72.4    c0,0.8-0.1,1.4-0.3,1.7c-0.2,0.3-0.5,0.5-0.8,0.6s-1,0.1-2.3,0.1c-1,0-1.4-0.5-1.4-1.4v-5.1h1.4V70h2.7v1.3h-2.7v1.9    c0,0.2,0.1,0.3,0.3,0.3c0.8,0,1.3,0,1.5-0.1s0.3-0.6,0.3-1.5L158.6,72.4z"/>
		<path class="st0" d="M175.8,71.9h-11.5v3.8c0,0.6,0,1.2-0.1,1.8c-0.1,0.6-0.1,1.2-0.2,1.8s-0.3,1.3-0.5,2.1    c-0.2,0.8-0.4,1.2-0.5,1.3l-1.2-0.9c0.7-1.7,1.1-3.7,1.1-5.9v-7.4h12.9V71.9z M174.4,70.7v-0.9h-10v0.9H174.4z M175.7,77.2H165    v-3.8h10.7V77.2z M175.2,82.8h-1.5v-0.6H167v0.6h-1.4v-5h9.7V82.8z M169.7,76.2v-1.7h-3.3v1.7H169.7z M169.1,75.6l-1.3,0.4    c-0.4-0.5-0.7-0.8-1.1-1l1.3-0.4C168.3,74.9,168.7,75.2,169.1,75.6z M169.3,72.9l-1.3,0.5c-0.5-0.4-0.9-0.7-1.2-0.9l1.3-0.5    C168.5,72.2,168.9,72.5,169.3,72.9z M173.8,79.5v-0.6H167v0.6H173.8z M173.8,81.2v-0.7H167v0.7H173.8z M174.3,76.2v-1.7H171v1.7    H174.3z M174,72.6c-0.3,0.2-0.8,0.5-1.5,0.7l-1.3-0.7c0.5-0.1,0.9-0.4,1.5-0.7L174,72.6z M173.9,75.1c-0.4,0.4-0.7,0.7-1.1,0.9    l-1.3-0.5c0.5-0.3,0.9-0.6,1.1-0.9L173.9,75.1z"/>
		<path class="st0" d="M187.3,73.8c0.5,0,0.9,0.2,1.3,0.5c0.4,0.4,0.5,0.8,0.5,1.3c0,0.5-0.2,1-0.6,1.4c-0.4,0.4-0.8,0.5-1.3,0.5    c-0.5,0-0.9-0.2-1.3-0.5c-0.4-0.4-0.6-0.8-0.6-1.4c0-0.5,0.2-1,0.6-1.3S186.7,73.8,187.3,73.8z M187.3,76.6c0.2,0,0.5-0.1,0.6-0.3    c0.2-0.2,0.3-0.4,0.3-0.7s-0.1-0.5-0.3-0.7s-0.4-0.3-0.7-0.3c-0.3,0-0.5,0.1-0.7,0.3s-0.3,0.4-0.3,0.7c0,0.3,0.1,0.5,0.3,0.7    C186.8,76.5,187,76.6,187.3,76.6z"/>
	</g>
</g>
</svg>