<?xml version="1.0" encoding="UTF-8"?>
<!-- Generator: Adobe Illustrator 23.0.6, SVG Export Plug-In . SVG Version: 6.00 Build 0)  -->
<svg version="1.1" id="圖層_1" xmlns="http://www.w3.org/2000/svg" xmlns:xlink="http://www.w3.org/1999/xlink" x="0px" y="0px" width="770.3px" height="225.1px" viewBox="0 0 770.3 225.1" style="enable-background:new 0 0 770.3 225.1;" xml:space="preserve">
<style type="text/css">
	.st0{fill:none;stroke:#FFFFFF;stroke-width:2;stroke-miterlimit:10;}
	.st1{fill:#FFFFFF;}
</style>
<g>
	<line class="st0" x1="162.1" y1="1" x2="607.5" y2="1"/>
	<line class="st0" x1="162.9" y1="73" x2="608.2" y2="73"/>
	<g>
		<path class="st1" d="M327.3,34h-19.1v-2.9h5c-0.6-1.8-1.3-3.6-2.3-5.3l2.5-1.5H309v-3h7.4c-0.4-1-0.9-2-1.6-3l3.3-0.9    c0.6,0.9,1.2,2.2,1.8,3.9h6.8v3h-3.8l2.4,1.3c-0.5,1.5-1.3,3.3-2.3,5.5h4.4V34H327.3z M325.3,50.4h-3.2v-2.1h-8.4v2.1h-3.3V36.6    h15v13.8C325.4,50.4,325.3,50.4,325.3,50.4z M322.1,45.3v-5.6h-8.4v5.6H322.1z M322.2,24.3h-8.3c1.1,2.2,1.9,4.5,2.7,6.8h2.9    C320.8,28.3,321.7,26,322.2,24.3z M337.3,31.2c2.3,3.5,3.4,6.7,3.4,9.6c0,1.4-0.3,2.6-0.8,3.4s-1.1,1.4-1.8,1.7s-2.2,0.4-4.4,0.3    l-0.9-3.2c1,0.1,2.1,0.1,3.1,0.1c0.4,0,0.8-0.1,1.1-0.4c0.3-0.3,0.4-1,0.4-2.1c0-2.8-1.2-5.7-3.5-8.8c1.2-3.1,2.2-6.5,3.1-10.2    h-5.1v28.8h-3.1V18.6h11.4v3C339.4,24.9,338.4,28.1,337.3,31.2z"/>
		<path class="st1" d="M360.4,33.9h-10.3v16.6h-3.4v-32h13.7L360.4,33.9L360.4,33.9z M357.1,24.6v-3h-7v3H357.1z M357.1,30.8v-3.3    h-7v3.3H357.1z M377.1,47.6c0,1-0.4,1.7-1.1,2.2c-0.8,0.5-2.9,0.7-6.3,0.7l-1.1-3.3c2.5,0,4,0,4.5,0s0.8-0.3,0.8-0.8V33.9h-10.4    V18.6h13.7v29H377.1z M373.7,24.6v-3h-7v3H373.7z M373.7,30.8v-3.3h-7v3.3H373.7z"/>
		<path class="st1" d="M416,29.2l-1.8,3c-6.2-2.7-11.1-6.3-14.8-10.8c-3.6,4.2-8.6,7.7-14.8,10.5l-2-2.9c6.7-2.7,12-6.6,15.9-11.8    l3.4,0.9c-0.1,0.3-0.2,0.5-0.5,0.9C405.2,23.4,410.1,26.8,416,29.2z M394.3,31.4c0,3.7-0.1,6.5-0.4,8.4s-0.9,3.8-2,5.6    s-2.8,3.6-5.1,5.4l-2.7-2.4c2.1-1.5,3.7-3.1,4.6-4.6c1-1.5,1.6-3.1,1.8-4.9s0.4-4.2,0.4-7.5C390.9,31.4,394.3,31.4,394.3,31.4z     M408,50.5h-3.5v-19h3.5V50.5z"/>
		<path class="st1" d="M425.5,41.9c-0.6,3.5-1.4,6.4-2.4,8.9l-2.8-1.5c0.9-2.1,1.6-4.8,2.2-8.1L425.5,41.9z M435,24.6    c-2.9,4.9-5.9,8.9-8.9,11.9c1.2-0.2,2.7-0.5,4.4-1c-0.2-0.6-0.4-1.1-0.8-1.6l2.8-1.1c1,1.8,1.8,3.8,2.3,6.1l-2.7,1.1l-0.4-1.7    c-3.3,0.8-6.7,1.5-10.4,2.2l-0.7-2.9c2.3-1.7,4.6-4.1,6.8-7.2l-5.8,0.8l-0.7-3c2.6-2.5,4.9-6,6.8-10.7l3.2,1.1    c-1.6,3.4-3.6,6.4-5.8,8.9c1.4-0.1,2.9-0.3,4.5-0.6c0.9-1.2,1.7-2.5,2.3-3.8L435,24.6z M430.4,49.1l-3,0.9c-0.1-2.4-0.4-5.1-1-8    l2.7-0.6C429.6,43.6,430.1,46.1,430.4,49.1z M435.2,47.5l-2.6,1c-0.4-2.1-1.1-4.5-2.1-7l2.7-0.7C434,42.8,434.7,45.1,435.2,47.5z     M452.8,18.6c0,2.5-0.1,5-0.4,7.5s-0.5,3.9-0.6,4.5c-0.2,0.5-0.5,1-0.9,1.5c-0.4,0.4-1.1,0.7-2,0.8s-2.2,0.2-3.9,0.1l-1.2-3.4    c0.6,0,1.9,0,4,0c0.5,0,0.8-0.3,1-0.9s0.4-2.9,0.6-6.9h-5.5c-0.6,5.4-3.2,9.4-7.9,12.1l-2.4-2.4c1.9-0.8,3.5-2.2,4.7-3.9    c1.3-1.8,2-3.7,2.2-5.7h-6v-3.3C434.5,18.6,452.8,18.6,452.8,18.6z M451.9,50.6h-3.4v-1.8h-9.1v1.9h-3.3V35.1h15.8V50.6z     M448.5,45.5v-7.2h-9.1v7.2H448.5z"/>
	</g>
</g>
<g>
	<path class="st1" d="M222,141.8l-0.9,1.6c-3.2-1.4-5.8-3.3-7.7-5.6c-1.9,2.2-4.5,4-7.7,5.4l-1-1.5c3.5-1.4,6.3-3.4,8.3-6.1l1.8,0.5   c0,0.1-0.1,0.3-0.2,0.4C216.4,138.7,218.9,140.5,222,141.8z M210.7,142.9c0,1.9-0.1,3.4-0.2,4.4c-0.1,1-0.5,2-1.1,2.9   s-1.5,1.9-2.7,2.8l-1.4-1.3c1.1-0.8,1.9-1.6,2.4-2.4c0.5-0.8,0.8-1.6,0.9-2.5c0.1-0.9,0.2-2.2,0.2-3.9H210.7z M217.8,152.9H216V143   h1.8V152.9z"/>
	<path class="st1" d="M226.9,148.4c-0.3,1.8-0.7,3.4-1.3,4.6l-1.4-0.8c0.5-1.1,0.8-2.5,1.2-4.2L226.9,148.4z M231.8,139.4   c-1.5,2.6-3,4.6-4.6,6.2c0.6-0.1,1.4-0.3,2.3-0.5c-0.1-0.3-0.2-0.6-0.4-0.9l1.5-0.6c0.5,0.9,0.9,2,1.2,3.2l-1.4,0.6l-0.2-0.9   c-1.7,0.4-3.5,0.8-5.4,1.1l-0.4-1.5c1.2-0.9,2.4-2.2,3.5-3.7l-3,0.4l-0.4-1.5c1.3-1.3,2.5-3.1,3.6-5.5l1.7,0.6   c-0.9,1.8-1.9,3.3-3,4.6c0.7,0,1.5-0.1,2.3-0.3c0.5-0.6,0.9-1.3,1.2-2L231.8,139.4z M229.4,152.1l-1.5,0.5c0-1.2-0.2-2.6-0.5-4.2   l1.4-0.3C229.1,149.2,229.3,150.6,229.4,152.1z M231.9,151.3l-1.3,0.5c-0.2-1.1-0.6-2.3-1.1-3.6l1.4-0.4   C231.3,148.9,231.7,150,231.9,151.3z M241.1,136.2c0,1.3-0.1,2.6-0.2,3.9c-0.1,1.3-0.2,2.1-0.3,2.3s-0.2,0.5-0.5,0.8   c-0.2,0.2-0.6,0.4-1.1,0.4c-0.5,0.1-1.2,0.1-2,0l-0.6-1.8c0.3,0,1,0,2.1,0c0.2,0,0.4-0.2,0.5-0.5s0.2-1.5,0.3-3.6h-2.8   c-0.3,2.8-1.7,4.9-4.1,6.3l-1.2-1.2c1-0.4,1.8-1.1,2.5-2s1-1.9,1.1-3h-3.1v-1.7h9.4L241.1,136.2L241.1,136.2z M240.6,152.9h-1.8v-1   h-4.7v1h-1.7v-8.1h8.2V152.9z M238.9,150.2v-3.7h-4.7v3.7H238.9z"/>
	<path class="st1" d="M259,152.7h-1.8v-1h-9.8v1h-1.8v-16.4H259V152.7z M257.3,140.9V138h-9.8v2.9H257.3z M257.3,145.5v-3h-9.8v3   H257.3z M257.3,150.1V147h-9.8v3.1H257.3z"/>
	<path class="st1" d="M271.8,150.9c0,0.5-0.1,0.9-0.3,1.1c-0.2,0.3-0.5,0.4-0.8,0.5s-0.8,0.1-1.6,0.1c-0.4,0-0.7,0-1,0l-0.6-1.7   c0.3,0,0.6,0,0.9,0c0.7,0,1.2,0,1.5-0.1c0.2-0.1,0.3-0.2,0.3-0.4v-2h-3.7c-0.3,1.8-0.9,3.2-1.8,4.2l-1.4-0.9   c1.2-1.2,1.7-3.2,1.7-6.1v-5h6.8V150.9z M280.4,139.6h-17V138h17V139.6z M270.7,136.9l-1.8,0.8c-0.8-0.5-1.7-0.9-2.8-1.3l1.8-0.9   C268.9,135.9,269.9,136.4,270.7,136.9z M270.2,144v-1.6h-3.6v1.6H270.2z M270.2,147.1v-1.7h-3.6v1.7H270.2z M277.5,136.4   c-1,0.6-2,1.1-2.8,1.3l-1.8-0.8c1-0.4,1.9-0.9,2.8-1.4L277.5,136.4z M275.5,149.5h-1.7v-8.4h1.7V149.5z M279,150.7   c0,0.8-0.2,1.4-0.6,1.6c-0.4,0.3-1.1,0.4-2.1,0.4c-0.4,0-0.8,0-1.3,0l-0.5-1.7h2.4c0.1,0,0.2-0.1,0.3-0.2c0.1-0.1,0.1-0.2,0.1-0.3   v-9.9h1.7V150.7z"/>
	<path class="st1" d="M289,148.5c-1.7,1-3.6,2-5.7,3.1l-0.6-1.6l2.4-1.2v-4.9h-1.9v-1.6h1.9v-3.8h-2.3v-1.7h6.1v1.7h-2.1v3.8h2v1.6   h-2v3.9c0.9-0.4,1.6-0.8,2.1-1.1L289,148.5z M300,149.4c-0.1,1.3-0.3,2.2-0.6,2.6c-0.3,0.4-1.1,0.6-2.2,0.6c-0.9,0-1.5-0.1-1.8-0.4   c-0.3-0.3-0.5-0.9-0.5-1.7v-3.4h-1.6c0,3.2-1.8,5.1-5.3,5.8l-0.8-1.5c1.6-0.3,2.7-0.8,3.4-1.5c0.7-0.7,1-1.6,1-2.8h-1.8v-10.8h9.2   v10.8h-2.4v3.5c0,0.2,0.1,0.3,0.2,0.4c0.1,0,0.3,0,0.6,0c0.3,0,0.5-0.1,0.6-0.2c0.1-0.2,0.2-0.8,0.3-1.9L300,149.4z M297.3,139.3   v-1.4h-5.7v1.4H297.3z M297.3,142.4v-1.6h-5.7v1.6H297.3z M297.3,145.5v-1.6h-5.7v1.6H297.3z"/>
	<path class="st1" d="M319.3,139.3h-9.5c-0.3,0.5-0.6,1.1-1,1.7h9.1v10.5c0,0.4-0.1,0.8-0.3,1c-0.2,0.2-0.6,0.4-1.1,0.4   s-0.9,0-1.4,0c-0.7,0-1.3,0-1.8,0l-0.8-1.7c0.8,0,1.9,0.1,3.2,0.1c0.3,0,0.4-0.1,0.4-0.4v-1.8h-8.7c-0.3,1.4-1,2.7-2,3.9l-1.7-0.9   c1.4-1.5,2.1-3,2.1-4.3v-3.1c-0.9,0.9-1.7,1.6-2.6,2.2l-1.2-1.3c2.3-1.6,4.2-3.6,5.6-6h-5.4v-1.7h6.3c0.4-0.7,0.7-1.4,0.9-1.9   l1.8,0.3c-0.2,0.5-0.4,1-0.7,1.6h8.6v1.4H319.3z M316.2,144.2v-1.5h-8.5v1.5H316.2z M316.2,147.3v-1.5h-8.5v1.5H316.2z"/>
	<path class="st1" d="M331.8,144.3h-9.9v-1.5h2.6c-0.3-1-0.7-1.9-1.2-2.8l1.3-0.8h-2.3v-1.6h3.9c-0.2-0.5-0.5-1-0.8-1.6l1.7-0.4   c0.3,0.5,0.6,1.2,0.9,2h3.5v1.6h-2l1.2,0.7c-0.3,0.8-0.7,1.7-1.2,2.8h2.3V144.3z M330.8,152.8h-1.7v-1.1h-4.4v1.1H323v-7.2h7.8   V152.8z M329.1,150.1v-2.9h-4.4v2.9H329.1z M329.2,139.2h-4.3c0.6,1.1,1,2.3,1.4,3.5h1.5C328.5,141.3,328.9,140.1,329.2,139.2z    M337,142.8c1.2,1.8,1.8,3.5,1.8,5c0,0.7-0.1,1.3-0.4,1.8c-0.3,0.4-0.6,0.7-1,0.9c-0.4,0.1-1.1,0.2-2.3,0.2l-0.5-1.7   c0.5,0.1,1.1,0.1,1.6,0.1c0.2,0,0.4-0.1,0.6-0.2c0.1-0.2,0.2-0.5,0.2-1.1c0-1.4-0.6-3-1.8-4.6c0.6-1.6,1.2-3.4,1.6-5.3h-2.6v15   h-1.6v-16.6h5.9v1.6C338.1,139.5,337.6,141.2,337,142.8z"/>
	<path class="st1" d="M349,144.2h-5.3v8.6h-1.8v-16.6h7.1L349,144.2L349,144.2z M347.3,139.4v-1.6h-3.6v1.6H347.3z M347.3,142.6   v-1.7h-3.6v1.7H347.3z M357.7,151.3c0,0.5-0.2,0.9-0.6,1.1c-0.4,0.2-1.5,0.4-3.3,0.4l-0.6-1.7c1.3,0,2.1,0,2.3,0s0.4-0.2,0.4-0.4   v-6.5h-5.4v-8h7.1v15.1L357.7,151.3L357.7,151.3z M356,139.4v-1.6h-3.6v1.6H356z M356,142.6v-1.7h-3.6v1.7H356z"/>
	<path class="st1" d="M368.8,146.5c-0.5-0.2-0.8-0.6-0.8-1.2c0-0.4,0.1-0.6,0.4-0.9c0.3-0.2,0.6-0.3,0.9-0.3c0.4,0,0.7,0.1,0.9,0.4   s0.4,0.6,0.4,1c0,0.7-0.6,1.5-1.7,2.4l-0.6-0.5C368.5,147,368.7,146.7,368.8,146.5z"/>
	<path class="st1" d="M387.9,142.2c-0.2,2.2-0.6,3.9-1.1,5l-1.4-0.8c0.3-0.8,0.5-1.7,0.7-2.5h-1.3v7.6c0,0.4-0.2,0.8-0.5,1.1   s-1.3,0.4-3,0.4l-0.5-1.7c1,0,1.6,0,1.9,0s0.4-0.2,0.4-0.4V144h-2.7v-1.6h3c-0.6-0.9-1.4-1.9-2.3-2.9l1.4-0.8   c0.4,0.4,0.7,0.8,1,1.3c0.7-0.7,1.2-1.4,1.5-1.8h-4.3v-1.7h6.3v1.7c-0.7,1.2-1.5,2.2-2.5,3.2c0.3,0.5,0.6,0.8,0.7,1.1h2.7   L387.9,142.2L387.9,142.2z M397.4,137.8h-3.8c-0.1,0.4-0.3,1-0.5,1.6h3.7v9.7h-5.4l0.9,0.9c-1.4,1.3-2.8,2.3-4.2,3l-1.1-1.4   c1.1-0.4,2.4-1.3,3.7-2.5h-2.2v-9.7h2.7c0.2-0.5,0.4-1,0.6-1.6h-3.9v-1.6h9.6v1.6H397.4z M395,142.1V141h-4.9v1.1H395z M395,144.8   v-1.2h-4.9v1.2H395z M395,147.5v-1.2h-4.9v1.2H395z M397.6,151.5l-1.1,1.3c-1.2-0.8-2.4-1.5-3.6-1.9l1-1.4   C395.3,150.1,396.5,150.8,397.6,151.5z"/>
	<path class="st1" d="M407.9,139.1h-8.1v-1.5h3.2c-0.2-0.5-0.5-1.1-0.7-1.6l1.8-0.3c0.3,0.5,0.6,1.2,0.9,1.9h2.9L407.9,139.1   L407.9,139.1z M407,142h-6.5v-1.6h6.5V142z M407,144.8h-6.5v-1.5h6.5V144.8z M407.1,152.6h-1.7v-1h-3v1.2h-1.7v-6.7h6.4   L407.1,152.6L407.1,152.6z M405.4,150.1v-2.3h-3v2.3H405.4z M416.9,142.9h-3.6v9.9h-1.8v-9.9H408v-1.7h3.5v-5.4h1.8v5.4h3.6V142.9z   "/>
	<path class="st1" d="M436.6,151l-0.7,1.8h-5c-2,0-3.5-0.2-4.5-0.5c-0.9-0.4-1.7-0.8-2.2-1.4c-1.5,0.9-2.8,1.6-4,2.2l-1-1.5   c3.9-1.9,6.9-3.8,9-5.5s3.9-3.7,5.1-5.8h-13.2v-1.7h7c-0.3-0.7-0.7-1.5-1.2-2.2l1.7-0.7c0.6,1,1.1,2,1.4,2.9h6.3v1.7   c-1.9,3.6-5.1,6.8-9.7,9.7c0.3,0.4,0.9,0.6,1.7,0.8c0.8,0.2,1.6,0.3,2.5,0.3h2C433.9,151,435.4,151,436.6,151z"/>
	<path class="st1" d="M444.6,140.4c-0.5,0.8-1.1,1.7-1.9,2.8v9.6H441v-7.7c-0.7,0.7-1.1,1.1-1.4,1.3l-0.9-1.6c1.4-1,2.9-2.7,4.5-5.2   L444.6,140.4z M443.9,136.4c-1.3,1.8-2.7,3.3-4.2,4.5l-0.9-1.5c1.3-0.9,2.5-2.1,3.6-3.7L443.9,136.4z M456.1,151.4l-0.7,1.6   c-2.5-0.5-4.4-1.1-5.7-1.8c-1.1,0.6-3,1.2-5.7,1.7l-0.7-1.5c1.9-0.3,3.5-0.7,4.8-1.3c-0.6-0.5-1.2-1-1.8-1.8   c-0.4,0.3-1,0.8-1.7,1.3l-1.1-1.2c0.8-0.5,1.4-1,1.8-1.4l-0.7-1.1l1.3-0.8c0.1,0.2,0.3,0.5,0.6,0.8c0.4-0.4,0.8-0.9,1.2-1.5   c-1.3,0-2.3,0.1-3,0.1l-0.4-1.6c1.2-0.3,2.7-1.1,4.5-2.1c-0.8,0.1-1.9,0.1-3.5,0.2l-0.3-1.4c1.6-0.9,3.1-2.2,4.5-4l1.7,0.7   c-1.1,1.3-2.3,2.4-3.7,3.1c1.1-0.1,2.3-0.1,3.6-0.3c1.1-1.1,1.8-1.7,2.1-2l1.6,0.8c-2.4,2.4-4.9,4.1-7.5,5.1   c1.3-0.1,3.2-0.3,5.5-0.6c-0.2-0.3-0.5-0.6-0.8-1l1.4-0.8c1.2,1.4,2.1,2.6,2.7,3.6l-1.5,0.8c-0.2-0.3-0.4-0.7-0.8-1.2   c-1.4,0.2-2.8,0.3-4.1,0.4c-0.1,0.2-0.4,0.7-0.9,1.4h5.7v1.6c-0.9,1.2-1.9,2.1-3,2.8C453,150.8,454.6,151.2,456.1,151.4z    M452.2,147.4h-4.8c0.6,0.7,1.3,1.4,2.2,2C450.2,149,451.1,148.4,452.2,147.4z"/>
	<path class="st1" d="M475.6,139.2l-0.7,1.5c-1.6-0.4-3.2-0.9-4.8-1.6v0.7h-6.4V139c-1.5,0.7-3.1,1.2-4.8,1.7l-0.9-1.4   c3.8-1,6.7-2.3,8.5-3.8l1.9,0.5c-0.1,0.2-0.3,0.3-0.4,0.4C470,137.6,472.5,138.5,475.6,139.2z M473.9,145.7H460v-5h13.9V145.7z    M473,152.8h-1.7v-0.7h-8.7v0.7h-1.8v-6.2H473V152.8z M466,144.4v-2.3h-4.4v2.3H466z M465.2,143.4l-1.2,0.8c-0.5-0.4-1-0.8-1.6-1.2   l1.2-0.8C463.9,142.4,464.5,142.8,465.2,143.4z M471.3,148.7v-0.8h-8.7v0.8H471.3z M471.3,150.8v-0.9h-8.7v0.9H471.3z M468.8,138.5   c-1-0.6-1.7-0.9-1.9-1.1c-0.5,0.4-1.1,0.8-1.8,1.1H468.8z M472.1,144.4v-2.3h-4.4v2.3H472.1z M471.4,143c-0.4,0.4-1,0.7-1.6,1.1   l-1.2-0.8c0.8-0.5,1.3-0.8,1.6-1.1L471.4,143z"/>
	<path class="st1" d="M482.1,141.9c1,1.7,1.5,3.3,1.5,4.7c0,1.6-0.9,2.3-2.8,2.2l-0.5-1.7c0.3,0,0.6,0.1,0.9,0.1s0.5-0.1,0.6-0.2   c0.1-0.1,0.1-0.3,0.1-0.6c0-1.3-0.5-2.8-1.6-4.5c0.5-1.3,1-2.6,1.3-4H480v14.9h-1.7v-16.5h5v1.7C483,139.4,482.6,140.7,482.1,141.9   z M494.8,152.5h-12.1v-1.6h5.5v-2.2h-4.1v-1.4h4.1v-1.8h1.7v1.8h4.2v1.5h-4.2v2.2h4.8v1.5H494.8z M494.8,142.4h-3.2v1.5   c0,0.1,0,0.2,0.1,0.3s0.2,0.1,0.3,0.1h2.6v1.5h-3.2c-0.5,0-0.8-0.1-1.1-0.4c-0.3-0.3-0.4-0.7-0.4-1.1v-1.9H488c0,1-0.4,1.8-1,2.6   c-0.6,0.7-1.4,1.2-2.4,1.5l-0.9-1.5c1.6-0.4,2.5-1.3,2.6-2.6h-2.7v-1.6h4.6v-1.7h-4v-1.5h4v-1.8h1.7v1.8h4.2v1.5h-4.2v1.7h4.8   L494.8,142.4L494.8,142.4z"/>
	<path class="st1" d="M499.5,148.2c-0.1,1.5-0.4,3-1,4.5l-1.5-0.6c0.5-1.2,0.8-2.6,1-4.3L499.5,148.2z M503.7,146.9l-1.4,0.5   c0-0.4-0.1-0.7-0.2-0.9c-2,0.5-3.4,0.8-4.4,0.9l-0.5-1.4c1-0.8,2-2.1,3.1-4l-2.4,0.4l-0.4-1.5c0.9-0.7,1.8-2.4,2.8-5.2l1.6,0.7   c-0.8,1.8-1.5,3.2-2.3,4.3c0.3,0,0.6-0.1,1-0.2c0.4-0.1,0.7-0.2,0.8-0.2c0.3-0.6,0.7-1.4,1-2.3l1.5,0.6c-1.3,2.9-2.7,5.2-4.1,6.8   c0.5-0.1,1.2-0.2,2-0.5c-0.1-0.3-0.2-0.6-0.4-1l1.4-0.4C503.1,144.6,503.5,145.7,503.7,146.9z M501.6,152l-1.4,0.2   c0-1.1-0.1-2.3-0.3-3.8l1.4-0.2C501.5,149.6,501.7,150.9,501.6,152z M503.7,150.6l-1.3,0.3c-0.1-0.8-0.3-1.7-0.6-2.7l1.3-0.3   C503.4,148.9,503.6,149.8,503.7,150.6z M513.4,150.7h-5.9l0.6,0.8c-1.1,0.5-2.5,1-4.4,1.5l-0.9-1.3c1.2-0.2,2.3-0.6,3.4-1h-1.9   v-6.2h9.1V150.7z M514.3,137.9h-4.6v0.8h4v1.2H504v-1.2h4v-0.8h-4.6v-1.3h4.6v-0.7h1.7v0.7h4.6V137.9L514.3,137.9z M514,143.7   h-10.3v-3.3H514V143.7z M506.6,142.6v-1h-1.3v1H506.6z M511.7,146.2v-0.7H506v0.7H511.7z M511.7,147.9v-0.7H506v0.7H511.7z    M511.7,149.6v-0.7H506v0.7H511.7z M509.5,142.6v-1h-1.4v1H509.5z M514.5,151.7l-0.8,1.3c-1.5-0.4-2.8-0.7-4-0.8l0.8-1.3   C512.2,151.1,513.5,151.4,514.5,151.7z M512.5,142.6v-1h-1.4v1H512.5z"/>
	<path class="st1" d="M522.7,149.2c-1.7,1-3.6,1.8-5.6,2.4l-0.4-1.7c0.5-0.2,1.2-0.4,2-0.8v-6.8H517v-1.7h1.7v-4.9h1.7v4.9h1.5v1.7   h-1.5v5.9c0.5-0.2,1.2-0.5,2.1-1L522.7,149.2z M533.4,144.5h-10.6v-6.2h10.6V144.5z M532.6,152.8h-1.7v-0.7h-5.5v0.7h-1.7v-7.3h8.9   V152.8z M527.1,137.2l-1.4,0.8c-0.5-0.6-1.1-1.1-1.8-1.6l1.4-0.8C526,136.1,526.6,136.6,527.1,137.2z M527.3,143v-3.2h-2.9v3.2   H527.3z M526.7,142.1l-1.2,0.5c-0.2-0.8-0.4-1.4-0.7-2l1.2-0.5C526.2,140.7,526.5,141.3,526.7,142.1z M530.9,148.1V147h-5.5v1.1   H530.9z M530.9,150.6v-1.1h-5.5v1.1H530.9z M531.8,143v-3.2h-2.9v3.2H531.8z M532.3,136.5c-0.7,0.6-1.4,1.1-2,1.5l-1.3-0.9   c0.7-0.4,1.4-0.9,2-1.5L532.3,136.5z M531.4,140.6c-0.2,0.7-0.5,1.4-1,2l-1.2-0.5c0.3-0.5,0.7-1.2,1-2L531.4,140.6z"/>
	<path class="st1" d="M545,138.5c0,2.8-0.1,5.6-0.2,8.3c-0.1,2.7-0.3,4.3-0.4,4.7s-0.4,0.7-0.8,1c-0.4,0.2-1,0.4-1.8,0.4   c-0.4,0-0.8,0-1.2,0l-0.5-1.7c0.5,0,1,0.1,1.3,0.1c0.8,0,1.3-0.2,1.4-0.7c0.1-0.5,0.3-3.9,0.4-10.2H541c-0.2,5.5-1.3,9.7-3.4,12.7   l-1.5-1c2.1-3,3.1-6.9,3.1-11.7h-2.6v-1.7h2.7l0.1-2.8h1.7l-0.1,2.8h4V138.5z M552.9,152.9h-1.7v-1.4H548v1.3h-1.7v-15.5h6.6   L552.9,152.9L552.9,152.9z M551.2,149.8v-10.7H548v10.7H551.2z"/>
	<path class="st1" d="M564.4,142.2c0.6,0,1.1,0.2,1.5,0.6c0.4,0.4,0.6,0.9,0.6,1.5s-0.2,1.2-0.7,1.6c-0.4,0.4-0.9,0.6-1.5,0.6   s-1.1-0.2-1.5-0.6c-0.4-0.4-0.7-1-0.7-1.6s0.2-1.1,0.6-1.5C563.2,142.5,563.8,142.2,564.4,142.2z M564.4,145.6   c0.3,0,0.5-0.1,0.7-0.4c0.2-0.2,0.3-0.5,0.3-0.8s-0.1-0.6-0.3-0.8s-0.5-0.3-0.8-0.3s-0.6,0.1-0.8,0.3s-0.3,0.5-0.3,0.8   s0.1,0.6,0.3,0.8C563.8,145.5,564.1,145.6,564.4,145.6z"/>
	<path class="st1" d="M16.7,181.1c-0.1,2.7-0.2,4.5-0.3,5.4c-0.2,0.9-0.4,1.5-0.8,1.8s-1.1,0.4-2,0.4c-0.4,0-0.8,0-1.1,0L12,187   c0.2,0,0.9,0,2,0c0.3,0,0.5-0.1,0.6-0.4c0.1-0.2,0.2-1.6,0.4-4H4c-1,1.4-2,2.3-2.9,2.9L0,184.1c2.5-1.7,4.3-4.5,5.5-8.2H0.6v-1.7h3   c-0.4-0.5-1-1.1-1.8-1.7l1.4-1.1c0.7,0.5,1.3,1.1,1.9,1.8l-1.2,1h2c0.2-1,0.4-1.9,0.6-2.8l1.7,0.3c-0.1,0.9-0.3,1.7-0.5,2.5H15   c-0.2,1.2-0.4,2.3-0.7,3.4h1.6c-0.1,0.9-0.3,2-0.6,3.4h1.4V181.1z M5.5,183.9c-0.5,1.8-1.2,3.5-2.1,4.9L2,188   c0.7-1.2,1.4-2.7,2-4.5L5.5,183.9z M13.9,179.3H6.1c-0.3,0.6-0.6,1.1-0.9,1.8h8.4L13.9,179.3z M8.4,188.2l-1.7,0.3   c0-1.6-0.2-3.1-0.5-4.6l1.6-0.2C8.2,185.4,8.4,186.9,8.4,188.2z M12.8,176H7.2c-0.2,0.8-0.4,1.4-0.5,1.7h5.8   C12.6,177.2,12.7,176.7,12.8,176z M11.5,187.4l-1.7,0.5c-0.1-1-0.4-2.3-1-4l1.6-0.3C11,185.1,11.3,186.3,11.5,187.4z M14.1,186.3   l-1.6,0.6c-0.3-1.3-0.7-2.3-1-3l1.5-0.5C13.5,184.3,13.9,185.2,14.1,186.3z"/>
	<path class="st1" d="M35.7,174c-2.1,1.9-4.3,3.6-6.6,5v8c0,0.4-0.1,0.8-0.4,1.1s-0.6,0.5-0.9,0.5c-0.4,0.1-1,0.1-1.9,0.1   c-0.5,0-0.9,0-1.4,0l-0.7-1.9c1.7,0,2.7,0,3.1,0c0.3,0,0.5-0.1,0.5-0.4V178c2.3-1.4,4.1-2.8,5.6-4.1H20.3v-1.6h15.4   C35.7,172.3,35.7,174,35.7,174z"/>
	<path class="st1" d="M44.4,175h-5.1v-1.5h1.9l-0.6-1.5l1.8-0.4c0.3,0.7,0.5,1.4,0.7,1.9h1.4v1.5H44.4z M43.9,188.4h-1.6v-0.8h-1.2   v1.2h-1.5v-6.7H44L43.9,188.4L43.9,188.4z M44,177.8h-4.4v-1.5H44V177.8z M43.9,180.7h-4.4v-1.5h4.4V180.7z M42.4,186v-2.4h-1.2   v2.4H42.4z M56.1,183.7h-6c-0.6,0.6-1.3,1.2-2.1,1.7v1.7c0.5-0.1,1.3-0.3,2.4-0.7l0.1,1.4c-1.3,0.5-2.6,0.8-4,1.1l-0.5-1.2   c0.3-0.2,0.4-0.5,0.4-0.8v-0.6c-0.6,0.2-1,0.4-1.5,0.6l-0.8-1.4c1.5-0.5,2.7-1.1,3.6-1.8h-3.3v-1.2h2.9v-0.8H45v-1.1h2.4v-0.8h-2.7   v-1.2h2.7v-0.7h1.7v0.7h2.3v-0.7h1.7v0.7h2.6v1.2h-2.6v0.8h2.3v1.1h-2.3v0.8h3C56.1,182.5,56.1,183.7,56.1,183.7z M56,174.1H44.8   v-1.3h4.5c-0.1-0.3-0.2-0.6-0.4-0.9l1.9-0.3l0.5,1.2H56V174.1z M49.9,177.4h-4.6v-2.7h4.6V177.4z M48.3,176.4v-0.7h-1.6v0.7H48.3z    M51.4,180.6v-0.8h-2.3v0.8H51.4z M51.4,182.5v-0.8h-2.3v0.8H51.4z M56.4,187.6l-0.9,1.4c-3.1-0.8-5-2.3-5.7-4.5l1.5-0.5   c0.3,0.7,0.6,1.2,1,1.6c0.7-0.5,1.3-1,1.9-1.5l1.3,0.9c-0.8,0.7-1.4,1.2-1.9,1.5C54.2,187,55.1,187.3,56.4,187.6z M55.4,177.4h-4.7   v-2.7h4.7V177.4z M53.9,176.4v-0.7h-1.7v0.7H53.9z"/>
	<path class="st1" d="M73,173.4h-4.2v7.1h-1.7v-8.8H73V173.4z"/>
	<path class="st1" d="M95.2,183.4h-8.6c-1,0.9-1.9,1.4-2.6,1.8v2c1.1-0.2,2.4-0.4,3.7-0.8v1.5c-2.2,0.5-4,0.9-5.6,1l-0.3-1.4   c0.3-0.1,0.5-0.3,0.5-0.6V186c-1,0.4-2.1,0.8-3.4,1.2l-1-1.5c2.5-0.6,4.6-1.3,6.1-2.3h-5.9v-1.5h7.7c-0.1-0.2-0.2-0.5-0.4-0.8   l1.9-0.3c0.2,0.3,0.4,0.7,0.6,1h7.4L95.2,183.4L95.2,183.4z M89.3,176.4h-4.7v0.8h3.8v2.2c0,0.4-0.1,0.7-0.4,0.9s-1.1,0.3-2.4,0.3   l-0.4-1.3h1.4c0.1,0,0.2-0.1,0.2-0.3v-0.6h-2.3v2.7h-1.6v-2.7h-2.3v2.1H79v-3.4h3.9v-0.8H78V175h4.9v-0.9h-2.8   c-0.1,0.1-0.3,0.4-0.6,0.7l-1.3-0.9c0.6-0.7,1.1-1.4,1.6-2.2l1.5,0.5c-0.1,0.2-0.2,0.4-0.3,0.6h1.9v-1.1h1.6v1.1h4.1v1.3h-4.1v0.9   h4.7v1.4L89.3,176.4L89.3,176.4z M95.3,187.5l-0.9,1.5c-3.7-0.6-6.1-2.3-7.2-5l1.7-0.3c0.4,0.7,0.9,1.4,1.5,1.9   c0.9-0.5,1.8-1.1,2.7-1.9l1.4,1c-0.6,0.6-1.4,1.3-2.5,1.9C93.3,187.1,94.4,187.4,95.3,187.5z M91.7,178.3H90v-5.6h1.6L91.7,178.3   L91.7,178.3z M94.7,179.4c0,0.3-0.1,0.6-0.3,0.9s-0.4,0.4-0.7,0.5c-0.3,0.1-0.8,0.1-1.7,0.1c-0.3,0-0.7,0-1,0l-0.5-1.6   c0.2,0,0.5,0,0.8,0c0.8,0,1.3,0,1.4-0.1s0.2-0.2,0.2-0.3v-7.2h1.7L94.7,179.4L94.7,179.4z"/>
	<path class="st1" d="M114.7,186.9l-0.5,1.6c-0.8,0-1.6,0-2.6,0c-2,0-3.8,0-5.3-0.1c-1.5,0-2.7-0.2-3.6-0.6   c-0.9-0.4-1.6-0.8-2.2-1.4c-0.5,0.8-1.1,1.6-1.9,2.5l-1.3-1.1c1.7-1.7,2.7-3.5,3.2-5.5h-2.8v-1.5c1-1,1.8-2.2,2.6-3.5h-2.8v-1.5   h4.7v1.5c-0.8,1.3-1.6,2.4-2.5,3.4h2.4v1.5c-0.3,1.1-0.6,2-1.1,2.9c0.7,0.7,1.5,1.2,2.5,1.4s3.2,0.3,6.6,0.3   C111.8,187,113.3,187,114.7,186.9z M102.2,174.1l-1.2,1.2c-0.9-1-1.9-1.8-3-2.4l1.2-1.2C100.4,172.4,101.4,173.2,102.2,174.1z    M114.5,179.3h-11.6v-1.5h5.1v-2.2h-2.5c-0.4,0.8-0.8,1.4-1.2,1.8l-1.4-0.9c0.9-1.1,1.7-2.6,2.4-4.4l1.5,0.4   c-0.1,0.5-0.3,1-0.6,1.7h1.8V172h1.7v2.2h4.1v1.5h-4.1v2.2h4.8C114.5,177.9,114.5,179.3,114.5,179.3z M113.2,185.8h-9v-5.3h9V185.8   z M111.5,184.3V182H106v2.3H111.5z"/>
	<path class="st1" d="M125.5,189h-5.9v-1.6h4.2v-7.2h1.7C125.5,180.2,125.5,189,125.5,189z"/>
	<path class="st1" d="M147.4,181.1l-1.3,1.3c-1-1.1-2.1-2.1-3.3-2.9l1.3-1.3C145.3,178.9,146.4,179.9,147.4,181.1z"/>
	<path class="st1" d="M170.5,173.4h-4.2v7.1h-1.7v-8.8h5.9V173.4z"/>
	<path class="st1" d="M182.5,181.7c-0.5,0.2-1.2,0.5-2,0.7v6.4h-1.7v-5.9c-0.7,0.2-1.6,0.5-2.9,0.9l-0.4-1.7c1-0.3,2.1-0.6,3.3-0.9   v-3.8h-1.3c-0.1,0.8-0.3,1.7-0.6,2.7l-1.5-0.4c0.5-1.9,0.8-4,1-6.4l1.5,0.3c-0.1,0.9-0.1,1.6-0.2,2.2h1.1v-3.9h1.7v3.9h1.6v1.6   h-1.6v3.3c1.1-0.4,1.8-0.6,1.9-0.7L182.5,181.7z M192.3,174.3c0,2.2-0.1,4.6-0.2,7.2c-0.1,2.6-0.2,4.3-0.3,5s-0.3,1.2-0.5,1.6   c-0.3,0.3-0.5,0.5-0.9,0.6c-0.3,0.1-1.1,0.2-2.3,0.2c-0.4,0-0.8,0-1.1,0l-0.5-1.6c0.7,0,1.4,0.1,1.8,0.1c0.8,0,1.3-0.1,1.5-0.2   s0.3-0.3,0.4-0.6c0.1-0.3,0.2-1.4,0.3-3.5s0.2-4.4,0.2-7.1h-0.5c-0.3,2.7-0.9,5-1.8,6.9c-0.9,1.9-2.2,3.8-4,5.6l-1.4-1.1   c1.7-1.7,3-3.4,3.9-5.1c0.9-1.7,1.4-3.8,1.7-6.2h-0.9c-0.7,3.5-2.2,6.4-4.4,8.7l-1.4-1.1c2.1-2,3.5-4.5,4.2-7.6h-0.8   c-0.5,1.3-1.2,2.4-1.9,3.4l-1.5-0.9c1.2-1.5,2.2-3.7,3-6.7l1.7,0.3c-0.2,0.8-0.4,1.5-0.7,2.2L192.3,174.3L192.3,174.3z"/>
	<path class="st1" d="M199.3,179.1l-1.1,1.4c-0.9-0.9-2-1.7-3.3-2.6l1-1.4C197.4,177.4,198.5,178.3,199.3,179.1z M199.2,182.2   c-0.6,2.3-1.6,4.6-2.8,6.8l-1.5-1c1.3-2.5,2.3-4.7,2.8-6.6L199.2,182.2z M199.4,174.4l-1.2,1.3c-0.6-0.8-1.6-1.8-3-2.8l1.2-1.3   C197.5,172.4,198.5,173.4,199.4,174.4z M202.7,180.7c0,0.3,0,0.6,0,0.9c0,2-0.3,3.6-0.8,4.8s-1.3,2.1-2.3,2.8l-1.2-1.2   c1.7-1,2.5-3,2.5-6.1c0-0.3,0-0.7,0-1.1L202.7,180.7L202.7,180.7z M212.1,179.6l-1.6,0.8c-0.2-0.4-0.5-0.8-0.8-1.2   c-4.1,0.3-7.3,0.5-9.6,0.6l-0.3-1.4c0.9-0.5,1.9-1.5,3.1-3.1h-3.1v-1.6h4.2c0.3-0.5,0.6-1.1,1-2l1.8,0.4c-0.2,0.5-0.5,1.1-0.8,1.6   h5.9v1.6H205c-0.7,1-1.5,2-2.5,2.9c2,0,4-0.1,6-0.4c-0.3-0.4-0.7-0.8-1.2-1.3l1.6-0.8C210.1,176.9,211.2,178.2,212.1,179.6z    M206.2,188.9h-1.7v-8.2h1.7V188.9z M212,188.7h-2.6c-0.5,0-0.8-0.1-1.1-0.4c-0.3-0.3-0.4-0.6-0.4-1v-6.6h1.7v6   c0,0.1,0,0.2,0.1,0.3s0.2,0.1,0.2,0.1h2v1.6L212,188.7L212,188.7z"/>
	<path class="st1" d="M223,189h-5.9v-1.6h4.2v-7.2h1.7V189z"/>
	<path class="st1" d="M244.9,181.1l-1.3,1.3c-1-1.1-2.1-2.1-3.3-2.9l1.3-1.3C242.8,178.9,243.9,179.9,244.9,181.1z"/>
	<path class="st1" d="M268,173.4h-4.2v7.1h-1.7v-8.8h5.9L268,173.4L268,173.4z"/>
	<path class="st1" d="M290.3,181.9l-0.6,1.5c-2.1-0.4-3.9-1-5.4-1.7v0.7h-5.4v-0.7c-1.8,0.7-3.5,1.3-5.2,1.7l-0.7-1.5   c3.8-0.7,6.5-1.8,8.3-3.5l1.8,0.5c-0.1,0.1-0.2,0.2-0.3,0.3C284.7,180.4,287.2,181.3,290.3,181.9z M289.7,179H288v-3.2h-5.5v2.4   h-1.7v-2.4h-5.5v3.2h-1.7v-4.6h7.2v-0.8h-6.6v-1.4h14.7v1.4h-6.5v0.8h7.2v4.6H289.7z M288.1,184.6c-1.6,1-3.1,1.8-4.5,2.3   c0.7,0.3,1.4,0.5,2.1,0.9l-0.9,1.3c-2.2-1-4.7-1.9-7.7-2.6l0.9-1.2c1,0.2,2.2,0.5,3.6,1c1.4-0.5,2.6-1,3.7-1.5H275v-1.4h13.1V184.6   z M279.9,179.1c-1.5,0.3-2.7,0.5-3.7,0.6l-0.4-1.2c1.3-0.1,2.5-0.3,3.7-0.5L279.9,179.1z M280,176.5l-0.4,1.1   c-1.1-0.2-2.3-0.3-3.5-0.4l0.4-1.1C277.7,176.2,278.9,176.3,280,176.5z M283.2,181.1c-0.4-0.2-1-0.6-1.6-1c-0.4,0.3-0.9,0.7-1.5,1   H283.2z M287.2,177.1c-1,0.2-2.2,0.4-3.6,0.5l-0.4-1.1c1.3-0.1,2.5-0.3,3.6-0.5L287.2,177.1z M287.4,178.5l-0.4,1.2   c-1.2-0.3-2.4-0.5-3.7-0.6l0.4-1.1C284.9,178.1,286.1,178.3,287.4,178.5z"/>
	<path class="st1" d="M309.5,182.2h-14.6v-5c-0.4,0.5-0.9,1-1.4,1.5l-1.1-1.3c1.5-1.5,2.9-3.4,4-5.7l1.6,0.4   c-0.2,0.4-0.5,0.9-0.8,1.4h4.1c-0.2-0.5-0.5-1-0.8-1.4l1.7-0.5c0.4,0.7,0.8,1.3,1.1,1.9h6v1.5H303v1h5.5v1.3H303v1.1h5.5v1.3H303   v1.1h6.6v1.4H309.5z M308.2,188.8h-1.7V188h-10.3v0.8h-1.7v-5.7h13.7V188.8z M306.5,186.5v-1.8h-10.3v1.8H306.5z M301.3,176v-1   h-4.7v1H301.3z M301.3,178.3v-1h-4.7v1H301.3z M301.3,180.7v-1.1h-4.7v1.1H301.3z"/>
	<path class="st1" d="M320.5,189h-5.9v-1.6h4.2v-7.2h1.7L320.5,189L320.5,189z"/>
	<path class="st1" d="M339.5,182.5c-0.5-0.2-0.8-0.6-0.8-1.2c0-0.4,0.1-0.6,0.4-0.9c0.3-0.2,0.6-0.3,0.9-0.3c0.4,0,0.7,0.1,0.9,0.4   s0.4,0.6,0.4,1c0,0.7-0.6,1.5-1.7,2.4l-0.6-0.5C339.3,183,339.4,182.7,339.5,182.5z"/>
	<path class="st1" d="M361.3,173.8c-0.8,1.4-1.5,2.5-2.3,3.5h2.2v1.5h-3.5c-0.7,0.7-1.4,1.3-1.9,1.7h4.2v8.3h-1.7v-1h-3.8v1h-1.7   v-6.3c-0.3,0.2-0.7,0.4-1.2,0.6l-0.9-1.4c1.7-0.7,3.3-1.7,4.6-2.8h-4.4v-1.6h3.7v-2.1H352v-1.5h2.9v-1.9h1.7v1.9h2.2v1.4   c0.4-0.6,0.8-1.3,1.2-2L361.3,173.8z M358.4,183.4v-1.3h-3.8v1.3H358.4z M358.4,186.3v-1.4h-3.8v1.4H358.4z M358.6,175.2h-2.1v2.1   h0.5C357.5,176.8,358.1,176.1,358.6,175.2z M366.3,178.9c1.2,1.7,1.8,3.3,1.8,5c0,1.1-0.2,1.8-0.7,2.2s-1.1,0.6-1.9,0.6   c-0.3,0-0.6,0-1.1,0l-0.5-1.7c0.6,0,1.1,0,1.7,0c0.2,0,0.4-0.1,0.6-0.2c0.1-0.2,0.2-0.5,0.2-1c0-1.5-0.7-3.1-2-4.7   c0.6-1.5,1.1-3.2,1.6-5h-2.5V189h-1.7v-16.7h6v1.7C367.2,176.3,366.7,177.9,366.3,178.9z"/>
	<path class="st1" d="M386,188.8h-1.8v-1H374v1h-1.8v-14.9h4.7c0.4-0.6,0.7-1.3,1-2.2l1.9,0.3c-0.2,0.7-0.5,1.3-0.9,1.9h7.1   L386,188.8L386,188.8z M384.2,177.9v-2.3H374v2.3H384.2z M384.2,181.9v-2.4H374v2.4H384.2z M384.2,186.2v-2.6H374v2.6H384.2z"/>
	<path class="st1" d="M407.1,183.4c0,1-0.1,1.9-0.3,2.8c-0.2,0.9-0.5,1.5-1.1,1.9c-0.5,0.3-1.4,0.5-2.5,0.5c-2.6,0-5,0-7.1,0   c-2.2,0-3.4-0.1-3.6-0.2s-0.5-0.3-0.8-0.6s-0.4-0.7-0.4-1.1v-8.4h12.5v-4.4h-13.4v-1.6h15.2v7.8h-12.5v6.4c0,0.2,0.1,0.3,0.3,0.3   c0.2,0.1,0.9,0.1,2,0.1c1.2,0,2.5,0,3.9,0c2.9,0,4.6,0,5.1-0.1c0.4-0.1,0.7-0.5,0.8-1.3s0.2-1.7,0.2-2.8L407.1,183.4z"/>
	<path class="st1" d="M426.6,180.8h-17v-1.7h17V180.8z"/>
	<path class="st1" d="M446.1,183.4H439v3.6c0,0.5-0.1,0.8-0.4,1.1s-0.6,0.5-0.9,0.6s-1,0.1-2.2,0.1c-0.5,0-1.2,0-2,0l-0.5-1.7   c1.1,0,1.9,0.1,2.6,0.1s1.1,0,1.3,0c0.2,0,0.3-0.2,0.3-0.6v-3h-8v-1.7h8V179h-7v-1.7h7v-2.5c-1.8,0.2-4.1,0.3-6.7,0.4l-0.6-1.6   c5.6-0.1,10.3-0.7,14.3-1.7l1,1.5c-1.4,0.4-3.5,0.8-6.2,1.1v2.8h6v1.7h-6v2.9h7.1L446.1,183.4L446.1,183.4z"/>
	<path class="st1" d="M464.8,173.7c0,2.1,0,4.2-0.1,6.3s-0.2,3.3-0.3,3.6c-0.1,0.3-0.3,0.6-0.7,0.8c-0.3,0.2-0.9,0.3-1.5,0.3   c-0.3,0-0.7,0-1.1,0l-0.5-1.7h1.7c0.1,0,0.3-0.1,0.4-0.2s0.2-0.9,0.3-2.3c0.1-1.4,0.1-3.1,0.2-5.2H453c-1,1.2-2,2.2-3.1,3.1   l-1.2-1.3c1.9-1.4,3.5-3.3,4.7-5.5l1.7,0.5l-0.9,1.5L464.8,173.7L464.8,173.7z M465.6,185.5c-0.1,1-0.2,1.7-0.5,2.3   s-0.9,0.9-1.8,0.9s-2.3,0.1-4.3,0.1c-3,0-4.9,0-5.7-0.1s-1.4-0.2-1.7-0.6c-0.3-0.3-0.5-0.9-0.5-1.6v-9.1h8.8v5.7h-7.1v3.4   c0,0.2,0.2,0.4,0.7,0.4c0.4,0,1.8,0,4.2,0c3.3,0,5.1,0,5.5-0.1c0.4,0,0.6-0.8,0.6-2.2L465.6,185.5z M458.2,181.5v-2.4h-5.3v2.4   H458.2z"/>
	<path class="st1" d="M474,180.9h-1.9L472,183h1.6v1.6h-1.8c-0.4,1.6-1.1,3.1-2.1,4.4l-1.5-1.1c1-1.2,1.6-2.3,1.8-3.3h-1.4V183h1.7   c0.1-0.6,0.1-1.3,0.1-2.1h-2.2v-1.6h1.1c0-0.6-0.3-1.7-0.7-3.3l0.9-0.4h-1.2V174h2c-0.1-0.5-0.3-1.2-0.6-2l1.5-0.4   c0.3,0.8,0.5,1.6,0.7,2.4h2.1v1.6h-1.3l0.9,0.5c-0.1,0.7-0.3,1.8-0.8,3.2h1.2L474,180.9L474,180.9z M472.1,175.6H470   c0.3,1.2,0.6,2.5,0.7,3.7h0.6C471.6,178.1,471.9,176.9,472.1,175.6z M478.5,175.9c0,6.2,0,9.8-0.1,10.7s-0.3,1.5-0.8,1.8   s-1.2,0.5-2.1,0.4l-0.6-1.7c0.3,0,0.6,0,0.8,0c0.3,0,0.6,0,0.8-0.1c0.2-0.1,0.3-0.2,0.3-0.4c0.1-0.2,0.1-1.5,0.2-3.9   c0-1.8,0.1-3.6,0-5.4h-0.6c-0.1,4.3-1,8.2-2.7,11.5l-1.4-0.7c1.7-3.2,2.6-6.8,2.6-10.8h-0.8v-1.6h0.8c0-1.6,0-3,0-4.1h1.5   c0,2.1,0,3.4,0,4.1h2.1L478.5,175.9L478.5,175.9z M485,180.9h-2.2v2h1.8v1.6h-1.8v4.2h-1.7v-4.2h-1.8v-1.6h1.8v-2H479v-1.6h1.2   c-0.2-1-0.5-2.1-1-3.2l1-0.5H479V174h2.1c-0.1-0.5-0.3-1.1-0.6-1.9l1.5-0.4c0.3,0.9,0.5,1.7,0.7,2.3h2v1.6h-1.4l1.1,0.6   c-0.3,1.2-0.6,2.2-0.9,3.1h1.5L485,180.9L485,180.9z M483.1,175.6h-2.4c0.5,1.3,0.8,2.6,1,3.7h0.3   C482.5,178.2,482.9,176.9,483.1,175.6z"/>
	<path class="st1" d="M495,188.7h-1.7v-1.3h-3.5v1.5h-1.7v-14.2h1.7c0.5-0.9,0.9-1.9,1.1-3l1.8,0.3c-0.1,0.6-0.4,1.5-0.9,2.7h3.2   V188.7z M493.3,180v-3.6h-3.5v3.6H493.3z M493.3,185.7v-4.1h-3.5v4.1H493.3z M504.4,174.8c0,1.9-0.1,4.3-0.2,7.3s-0.3,4.7-0.5,5.3   s-0.6,0.9-1.1,1.2s-1.6,0.4-3.5,0.4l-0.6-1.7h2.6c0.2,0,0.5-0.1,0.8-0.3s0.5-1.6,0.6-4.2c0.1-2.6,0.2-4.7,0.2-6.1h-3.9   c-0.6,1.5-1.3,2.9-2.1,4l-1.3-1.2c1.4-2.3,2.4-4.8,3-7.6l1.7,0.4c-0.1,0.7-0.4,1.6-0.7,2.7h5V174.8z M501.6,183.5l-1.5,1   c-0.8-1.7-1.7-3.1-2.7-4.2l1.5-1C500.2,180.9,501.1,182.3,501.6,183.5z"/>
	<path class="st1" d="M524.1,188.5h-16.9v-1.6h2.9v-10.1h11.1v10.1h2.9V188.5z M523.7,178h-1.8v-2.9h-12.6v2.9h-1.7v-4.5h7l-0.9-1.5   l1.9-0.4c0.3,0.4,0.6,1,0.9,1.8h7.2V178z M519.4,180.1v-1.8h-7.6v1.8H519.4z M519.4,183.4v-1.8h-7.6v1.8H519.4z M519.4,186.9V185   h-7.6v1.9H519.4z"/>
	<path class="st1" d="M532,172.6c-1.5,2-3.1,3.5-4.7,4.4l-0.9-1.5c1.3-0.7,2.7-1.9,4.1-3.8L532,172.6z M532.2,176.4   c-0.4,0.9-0.9,1.7-1.4,2.5v9.9H529v-7.6c-0.7,0.7-1.2,1.2-1.6,1.5l-0.8-1.6c1.4-1.1,2.8-2.9,4.2-5.3L532.2,176.4z M543.6,183.4   h-2.3v3.6c0,1.2-0.8,1.8-2.4,1.8c-0.4,0-0.9,0-1.3,0l-0.5-1.6c0.6,0,1,0,1.4,0c0.5,0,0.8-0.1,0.9-0.2s0.2-0.3,0.2-0.5v-3.1h-8.2   v-1.6h8.2v-1.2h-7.8v-1.5H543v1.5h-1.8v1.2h2.3L543.6,183.4L543.6,183.4z M542.4,178.2h-9.7v-6.1h9.7V178.2z M537,186l-1.2,1.2   c-1-1-1.9-1.8-2.8-2.3l1.1-1.2C535,184.1,535.9,184.9,537,186z M540.7,174.4v-0.8h-6.3v0.8H540.7z M540.7,176.7v-0.9h-6.3v0.9   H540.7z"/>
	<path class="st1" d="M556.1,181.8l-0.9,1.6c-0.8-1-1.8-2.1-3-3.1v8.4h-1.7v-8.2c-1,2.1-2.2,3.8-3.6,5.1l-0.9-1.7   c1.8-1.6,3.2-3.7,4.3-6.1h-3.9v-1.5h4v-2c-0.8,0.1-1.8,0.2-3,0.2l-0.7-1.7c3.1,0,5.6-0.4,7.8-1.1l1,1.5c-0.9,0.3-2,0.6-3.4,0.8v2.2   h3.6v1.7h-3.6v0.5C553.4,179.4,554.7,180.5,556.1,181.8z M558.6,185.4h-1.7v-12.2h1.7V185.4z M562.6,186.7c0,1.4-0.8,2.1-2.2,2.1   h-2.2l-0.6-1.8c0.6,0,1.6,0.1,2.9,0.1c0.2,0,0.4-0.1,0.4-0.4v-14.8h1.8v14.8L562.6,186.7L562.6,186.7z"/>
	<path class="st1" d="M571.4,172.1c-0.4,1.2-1,2.3-1.7,3.3c0.7,1.7,1.1,4.2,1.1,7.7c0,1.4-0.1,2.5-0.3,3.5s-0.5,1.6-0.9,1.9   c-0.4,0.3-1.4,0.4-2.8,0.4l-0.5-1.7c0.5,0,0.9,0.1,1.2,0.1c0.5,0,0.8,0,0.9-0.1c0.1-0.1,0.2-0.2,0.4-0.3s0.2-0.7,0.3-1.6   c0.1-0.9,0.1-1.8,0.1-2.7c0-0.5,0-0.9,0-1.2c-0.7,1.1-1.6,2.1-2.8,3.2l-0.9-1.5c1.7-1.6,2.9-3,3.5-4.2c-0.1-0.7-0.2-1.3-0.4-1.8   c-0.9,0.9-1.7,1.6-2.3,2l-0.7-1.5c1-0.7,1.8-1.4,2.4-2.1c-0.5-0.9-1.2-1.8-2.1-2.6l1.4-0.9c0.7,0.7,1.3,1.4,1.7,2   c0.3-0.5,0.7-1.2,1.1-2.2L571.4,172.1z M582.3,177.8c0,1.7,0,3.7-0.1,6.1s-0.1,3.6-0.3,3.9c-0.1,0.3-0.3,0.5-0.6,0.8s-1,0.4-2,0.4   c-0.3,0-0.6,0-0.8,0l-0.4-1.6c0.3,0,0.6,0,1,0c0.7,0,1.1,0,1.2-0.1c0.1-0.1,0.2-0.2,0.2-0.3s0.1-1.1,0.1-2.8s0-3.3,0-4.9h-6.7   c-0.5,0.6-1,1.1-1.4,1.6h2.6v-1h1.6v1h2.8v3.6h-2.8v1.1c0.3,0,0.6-0.1,0.9-0.2l-0.2-0.4l1.4-0.5c0.6,0.9,1,1.6,1.2,2.1l-1.4,0.4   c-0.1-0.2-0.1-0.3-0.2-0.4c-2.6,0.5-4.8,0.9-6.8,1.1l-0.4-1.5c1.7-0.2,2.9-0.3,3.8-0.5v-1.4h-2.8v-3.4c-0.3,0.3-0.5,0.5-0.7,0.6   l-0.8-1.6c1.3-1.2,2.2-2.3,2.7-3.4h-1.8V172H582v4.5h-8l1.2,0.6c0,0.2-0.1,0.4-0.3,0.6L582.3,177.8L582.3,177.8z M574.8,175.2v-1.6   h-1.3v1.6H574.8z M575.1,183.1v-1h-1.2v1H575.1z M577.6,175.2v-1.6h-1.3v1.6H577.6z M578,183.1v-1h-1.2v1H578z M580.3,175.2v-1.6   h-1.2v1.6H580.3z"/>
	<path class="st1" d="M591.7,177.3h-1.5v3.3c0.3-0.1,0.8-0.2,1.4-0.4v1.8l-1.4,0.5v6.4h-1.7V183c-1.4,0.4-2.4,0.6-3.1,0.7l-0.3-1.7   c1-0.2,2.1-0.5,3.4-0.8v-3.9h-1.1c-0.2,1.1-0.5,2-0.8,2.8l-1.5-0.7c0.6-1.6,0.9-3.6,1.2-6.1l1.6,0.2c0,0.5-0.1,1.2-0.2,2.1h0.8   v-3.7h1.7v3.7h1.5L591.7,177.3L591.7,177.3z M602.1,182.5h-1.8v4.7c0,0.5-0.1,0.8-0.3,1s-0.4,0.4-0.7,0.5s-0.8,0.1-1.5,0.1   c-0.4,0-1,0-1.6,0l-0.5-1.7c0.6,0,1.2,0.1,1.7,0.1c0.6,0,0.9,0,1-0.1s0.1-0.2,0.1-0.3v-4.2H592V181h6.5v-1.3h1.7v1.3h1.8   L602.1,182.5L602.1,182.5z M602.1,175.4H598v2h3.6v1.6h-9v-1.6h3.7v-2h-4.1v-1.6h4.1v-1.9h1.7v1.9h4.1V175.4z M596.8,185.6l-1.6,1   c-0.6-1-1.4-1.9-2.4-2.7l1.6-1C595.3,183.7,596.1,184.6,596.8,185.6z"/>
	<path class="st1" d="M621.6,174.6h-5.2l1.3,0.7c-0.2,0.5-0.5,1-0.9,1.6h4v10.3c0,0.4-0.1,0.7-0.3,1s-0.4,0.5-0.7,0.6   s-0.7,0.2-1.3,0.2c-0.3,0-0.7,0-1.2,0l-0.5-1.6c0.3,0,0.6,0,0.9,0c0.8,0,1.2,0,1.3-0.1s0.2-0.2,0.2-0.3v-8.4H616v1.3   c0,0.1,0,0.1,0.1,0.2s0.1,0.1,0.2,0.1h2.3v1.5h-3c-0.3,0-0.6-0.1-0.8-0.4c-0.3-0.3-0.4-0.5-0.4-0.8v-1.8H612c0,2.1-1.2,3.4-3.6,3.9   l-0.8-1.5c1.9-0.3,2.8-1.1,2.8-2.4h-3.2v10.4h-1.7v-12h4.1c-0.5-0.7-0.8-1.3-1.1-1.6l1.3-0.7h-5.1v-1.5h7.6c-0.1-0.2-0.2-0.6-0.4-1   l1.8-0.4c0.2,0.4,0.3,0.8,0.5,1.4h7.5L621.6,174.6L621.6,174.6z M617.4,186.7H609v-4.2h8.4V186.7z M616,174.6h-5.9   c0.5,0.7,1,1.5,1.4,2.3h3.2C615.1,176.3,615.5,175.6,616,174.6z M615.7,185.2v-1.3h-5v1.3H615.7z"/>
	<path class="st1" d="M641.1,184.2h-7.6v4.7h-1.7v-4.7h-7.6v-1.5h7.6v-1H625v-1.5h6.7v-1h-7.2v-1.5h4.4c-0.2-0.3-0.4-0.6-0.7-0.8   l1.3-0.7H624v-1.5h6v-2.9h1.7v2.9h1.8v-2.9h1.7v2.9h5.9v1.5h-5.4l1.2,0.6c-0.3,0.4-0.5,0.7-0.6,1h4.5v1.5h-7.2v1h6.8v1.5h-6.8v1   h7.6v1.4H641.1z M630.3,185.8c-1.8,1.3-3.5,2.3-5.1,2.9l-1.1-1.4c1.5-0.6,3.1-1.5,4.8-2.7L630.3,185.8z M628.6,173.7l-1.3,0.9   c-0.6-0.7-1.1-1.2-1.7-1.7l1.3-1C627.6,172.5,628.2,173.1,628.6,173.7z M635.1,176.3H630c0.4,0.5,0.7,1,1.1,1.6h3   C634.4,177.3,634.8,176.8,635.1,176.3z M641.5,187.3l-1,1.4c-1.9-1.1-3.7-2-5.6-2.6l1-1.4C637.7,185.3,639.5,186.2,641.5,187.3z    M639.6,172.7c-0.4,0.5-0.9,1.1-1.7,1.8l-1.5-0.9c0.6-0.5,1.2-1.1,1.7-1.7L639.6,172.7z"/>
	<path class="st1" d="M650.1,180.1l-1.2,1.3c-0.5-0.9-1-1.6-1.4-2.1v9.6h-1.7v-8.3c-0.5,1.3-1,2.5-1.5,3.4l-0.9-1.8   c1.2-2,2-3.7,2.4-5.3h-2.1v-1.7h2.2V172h1.7v3.2h1.8v1.7h-1.8v0.3C648.7,178.3,649.5,179.3,650.1,180.1z M660.6,184.9h-5.4   c-0.8,2-2.6,3.4-5.7,4.1l-0.8-1.5c2.2-0.4,3.7-1.3,4.6-2.6H649v-1.5h4.7c0.1-0.4,0.1-0.7,0.1-1.1h-3.3V176h8.8v6.3h-3.7   c0,0.3,0,0.6-0.1,1.1h5.1V184.9z M654.6,174.5h-1.1v0.9h-1.7v-0.9h-2.4V173h2.4v-1.2h1.7v1.2h1.1V174.5z M657.6,178.5v-0.9h-5.4   v0.9H657.6z M657.6,180.9v-1h-5.4v1H657.6z M660.8,187.5l-0.9,1.4c-1.4-0.8-2.9-1.5-4.7-2l0.8-1.5   C657.8,186,659.4,186.7,660.8,187.5z M660.4,174.5h-2.1v0.9h-1.7v-0.9h-1.2V173h1.2v-1.2h1.7v1.2h2.1V174.5z"/>
	<path class="st1" d="M680.1,184.7c-0.2,2.8-1,4.3-2.4,4.3c-1.2,0-2.2-1.1-3.1-3.4c-0.9-2.3-1.4-5.2-1.5-8.9h-10v-1.6h9.9   c-0.1-1.3-0.1-2.4-0.1-3.2h1.7c0,0.7,0,1.8,0.1,3.2h5.3v1.6h-5.2c0.1,3.7,0.5,6.3,1.2,8s1.2,2.5,1.6,2.5c0.4,0,0.6-1.1,0.7-3.4   L680.1,184.7z M672.9,185.8c-3.6,0.9-6.6,1.5-9.1,1.8l-0.4-1.6c1.1-0.1,2.4-0.3,3.8-0.6v-5.2h-3.1v-1.7h8.2v1.7H669v4.8   c1.6-0.3,2.9-0.6,3.8-0.9L672.9,185.8z M679.5,173.7l-1.3,1.1c-0.8-0.7-1.6-1.3-2.4-1.7l1.3-1.2C678.1,172.4,678.9,173,679.5,173.7   z"/>
	<path class="st1" d="M685,181.5c0,2.8-0.4,5.2-1.2,7.3l-1.4-1c0.7-1.8,1.1-3.9,1.1-6.3v-9.7h1.5L685,181.5L685,181.5z M687.5,187.5   H686v-14.8h1.5V187.5z M690,188.8h-1.5v-17h1.5V188.8z M699.6,173.7H696c-0.2,0.8-0.4,1.4-0.6,1.7h3.5v9.8h-5l0.9,0.7   c-0.7,0.9-1.8,1.9-3.5,2.9l-1.1-1.2c1.3-0.8,2.4-1.6,3.2-2.4h-2.1v-9.8h2.3c0.2-0.3,0.3-0.9,0.6-1.7h-3.5v-1.6h9v1.6H699.6z    M697.4,178.1v-1.3H693v1.3H697.4z M697.4,180.9v-1.3H693v1.3H697.4z M697.4,183.7v-1.4H693v1.4H697.4z M699.6,187.8l-1,1.2   c-0.8-0.7-1.9-1.5-3.3-2.2l0.9-1.2C697.5,186.2,698.7,186.9,699.6,187.8z"/>
	<path class="st1" d="M712.1,181.8l-0.9,1.6c-0.8-1-1.8-2.1-3-3.1v8.4h-1.7v-8.2c-1,2.1-2.2,3.8-3.6,5.1l-0.9-1.7   c1.8-1.6,3.2-3.7,4.3-6.1h-3.9v-1.5h4v-2c-0.8,0.1-1.8,0.2-3,0.2l-0.7-1.7c3.1,0,5.6-0.4,7.8-1.1l1,1.5c-0.9,0.3-2,0.6-3.4,0.8v2.2   h3.6v1.7h-3.6v0.5C709.4,179.4,710.7,180.5,712.1,181.8z M714.6,185.4h-1.7v-12.2h1.7V185.4z M718.6,186.7c0,1.4-0.8,2.1-2.2,2.1   h-2.2l-0.6-1.8c0.6,0,1.6,0.1,2.9,0.1c0.2,0,0.4-0.1,0.4-0.4v-14.8h1.8v14.8L718.6,186.7L718.6,186.7z"/>
	<path class="st1" d="M738.8,187l-0.5,1.6c-1.3,0.1-2.6,0.1-3.8,0.1c-3.4,0-5.7-0.1-6.8-0.4c-1.1-0.3-2.2-0.8-3.1-1.6   c-0.6,0.9-1.2,1.7-1.8,2.4l-1.4-1.1c1.7-1.9,2.8-3.8,3.2-5.6h-2.9v-1.6c1.1-1.1,1.9-2.2,2.5-3.3h-2.8v-1.6h4.7v1.6   c-0.6,1.2-1.3,2.3-2.3,3.3h2.5v1.6c-0.2,1-0.6,2-1.1,3c0.5,0.5,1.1,0.9,2,1.3c0.8,0.3,1.9,0.5,3.1,0.5c1.3,0,2.6,0.1,4,0.1   C736,187.1,737.4,187.1,738.8,187z M726.3,174.1l-1.2,1.2c-0.9-0.9-2-1.8-3.1-2.5l1.2-1.2C724.5,172.4,725.6,173.2,726.3,174.1z    M738.6,185h-5v1.5h-1.7V185h-5.1v-1.4h5.1v-0.9h-4.2V177h4.2v-0.9h-2.4v-1.3h2.4V174h1.7v0.8h2.5v1.3h-2.5v0.9h4.2v5.7h-4.2v0.9h5   V185z M738.3,175.4h-1.7v-1.8h-7.7v1.8h-1.7v-3.3h11.1L738.3,175.4L738.3,175.4z M731.9,179.3v-0.9h-2.6v0.9H731.9z M731.9,181.4   v-0.9h-2.6v0.9H731.9z M736.1,179.3v-0.9h-2.5v0.9H736.1z M736.1,181.4v-0.9h-2.5v0.9H736.1z"/>
	<path class="st1" d="M746.6,172c-0.3,0.8-0.5,1.5-0.8,2.1L745,176v12.7h-1.8V179c-0.5,0.7-0.9,1.2-1.3,1.6l-0.8-1.8   c1.6-2,2.9-4.4,3.8-7.2L746.6,172z M758.1,175.9H752v2.9h5.6v1.6H752v2.8h5.6v1.6H752v4h-1.8v-12.9h-0.7c-0.9,1.8-1.9,3.3-2.8,4.3   l-1.3-1.2c1.7-2,3-4.5,3.8-7.3l1.7,0.4c-0.1,0.4-0.3,1.1-0.8,2.2h7.8v1.6L758.1,175.9L758.1,175.9z"/>
	<path class="st1" d="M768.5,182.5c-0.5-0.2-0.8-0.6-0.8-1.2c0-0.4,0.1-0.6,0.4-0.9c0.3-0.2,0.6-0.3,0.9-0.3c0.4,0,0.7,0.1,0.9,0.4   s0.4,0.6,0.4,1c0,0.7-0.6,1.5-1.7,2.4l-0.6-0.5C768.3,183,768.4,182.7,768.5,182.5z"/>
	<path class="st1" d="M162.8,222.7c-2,1-4,1.8-6.1,2.2l-0.8-1.7c2-0.4,3.9-1,5.5-1.9L162.8,222.7z M173.1,221h-16.9v-1.5h1.8v-11.4   h13.3v11.4h1.9v1.5H173.1z M169.4,211v-1.3h-9.7v1.3H169.4z M169.4,213.8v-1.3h-9.7v1.3H169.4z M169.4,216.5v-1.3h-9.7v1.3H169.4z    M169.4,219.5V218h-9.7v1.5H169.4z M173.3,223.6l-1,1.4c-1.9-0.9-3.9-1.7-5.9-2.2l1-1.5C169.6,221.9,171.5,222.7,173.3,223.6z"/>
	<path class="st1" d="M180,208.1l-1.2,4v12.8h-1.7v-9.1c-0.3,0.5-0.6,1-0.9,1.5l-0.9-1.8c1.4-2.3,2.4-4.9,3-7.7L180,208.1z    M192.6,214h-8.3c-0.2,0.5-0.4,0.9-0.6,1.2h8.2v8.3c0,0.4-0.1,0.7-0.4,1c-0.2,0.3-0.5,0.4-0.8,0.4s-0.9,0.1-1.8,0.1l-0.4-1.5h1.4   c0.1,0,0.2-0.1,0.3-0.2c0.1-0.1,0.1-0.2,0.1-0.3v-1.1h-2.6v3.1H186v-3.1h-2.8c-0.3,1.2-1,2.3-2.1,3.2l-1.3-1.1   c1.4-1.1,2.1-2.8,2.1-5.1v-1.4c-0.6,0.6-1.2,1.2-2,1.8l-1-1.4c1.5-1.1,2.6-2.3,3.4-3.8h-2.9v-1.6h3.1v-1.4H180v-1.5h2.7V208h1.7   v1.6h3.4V208h1.7v1.6h2.6v1.5h-2.6v1.4h3v1.5H192.6z M186.1,220.4v-1.2h-2.4l-0.1,1.2H186.1z M186.1,217.8v-1.1h-2.4v1.1H186.1z    M187.8,212.4V211h-3.4v1.4H187.8z M190.4,217.8v-1.1h-2.6v1.1H190.4z M190.4,220.4v-1.2h-2.6v1.2H190.4z"/>
	<path class="st1" d="M212.3,216.2l-0.8,1.7c-3.2-0.7-5.8-1.6-7.9-2.7c-2.2,1.1-4.8,2.1-7.8,2.8l-0.8-1.6c2.5-0.6,4.8-1.3,6.9-2.3   c-1.1-0.8-1.9-1.6-2.6-2.2c-1.2,0.9-2.2,1.6-2.8,2l-1.3-1.3c2.7-1.6,4.7-3.3,6-4.9l1.8,0.6c-0.2,0.3-0.4,0.5-0.7,0.7h7v1.6   c-1.4,1.4-2.8,2.5-4.1,3.4C207.1,214.9,209.5,215.7,212.3,216.2z M209.7,224.8h-1.8v-1.1h-8.4v1.1h-1.8V218h11.9v6.8H209.7z    M207.9,222.1v-2.4h-8.4v2.4H207.9z M206.8,210.6h-6l-0.2,0.2c1,0.9,2,1.7,3,2.3C204.8,212.3,205.9,211.5,206.8,210.6z"/>
	<path class="st1" d="M231.6,220.6c-0.2,2.8-1,4.3-2.4,4.3c-1.2,0-2.2-1.1-3.1-3.4c-0.9-2.3-1.4-5.2-1.5-8.9h-10V211h9.9   c-0.1-1.3-0.1-2.4-0.1-3.2h1.7c0,0.7,0,1.8,0.1,3.2h5.3v1.6h-5.2c0.1,3.7,0.5,6.3,1.2,8s1.2,2.5,1.6,2.5c0.4,0,0.6-1.1,0.7-3.4   L231.6,220.6z M224.4,221.8c-3.6,0.9-6.6,1.5-9.1,1.8l-0.4-1.6c1.1-0.1,2.4-0.3,3.8-0.6v-5.2h-3.1v-1.7h8.2v1.7h-3.3v4.8   c1.6-0.3,2.9-0.6,3.8-0.9L224.4,221.8z M231,209.6l-1.3,1.1c-0.8-0.7-1.6-1.3-2.4-1.7l1.3-1.2C229.6,208.4,230.4,209,231,209.6z"/>
	<path class="st1" d="M251.3,216.2l-0.8,1.7c-3.2-0.7-5.8-1.6-7.9-2.7c-2.2,1.1-4.8,2.1-7.8,2.8l-0.8-1.6c2.5-0.6,4.8-1.3,6.9-2.3   c-1.1-0.8-1.9-1.6-2.6-2.2c-1.2,0.9-2.2,1.6-2.8,2l-1.3-1.3c2.7-1.6,4.7-3.3,6-4.9l1.8,0.6c-0.2,0.3-0.4,0.5-0.7,0.7h7v1.6   c-1.4,1.4-2.8,2.5-4.1,3.4C246.1,214.9,248.5,215.7,251.3,216.2z M248.7,224.8h-1.8v-1.1h-8.4v1.1h-1.8V218h11.9v6.8H248.7z    M246.9,222.1v-2.4h-8.4v2.4H246.9z M245.8,210.6h-6l-0.2,0.2c1,0.9,2,1.7,3,2.3C243.8,212.3,244.9,211.5,245.8,210.6z"/>
	<path class="st1" d="M260.1,216.7l-1.2,1.2c-0.3-0.8-0.6-1.4-1-1.9v8.8h-1.7v-8.1c-0.7,1.4-1.3,2.5-2,3.4l-0.8-1.9   c1.1-1.5,2.1-3.2,2.8-5.2h-2.5v-1.7h2.6v-3.4h1.7v3.4h1.5v1.6H258v0.5C258.7,214.4,259.4,215.5,260.1,216.7z M263.9,221.2   c-0.9,1.4-2.2,2.6-3.9,3.4l-1.2-1.2c1.4-0.6,2.4-1.3,3.1-2.1h-2.3v-1.4h4.3V221.2z M270.6,215.1h-11v-1.3h4.6v-0.9h-3.8v-1.2h3.8   V211h-4.3v-1.3h10.3v1.3h-4.3v0.7h3.9v1.2h-3.9v0.9h4.7L270.6,215.1L270.6,215.1z M270.9,223.1l-0.7,1.4c-1.5-0.8-2.8-1.8-3.9-3   v1.9c0,0.3-0.1,0.6-0.3,0.8c-0.2,0.3-0.4,0.4-0.7,0.5c-0.3,0.1-0.8,0.1-1.6,0.1c-0.2,0-0.5,0-0.7,0l-0.4-1.5c0.3,0,0.6,0,0.9,0   c0.5,0,0.8,0,0.9-0.1s0.2-0.2,0.2-0.4v-3.9H260v-1.4h6.3v1.8c0.1,0.2,0.2,0.3,0.3,0.4c1.1-0.8,2-1.5,2.6-2.2l1.1,1.1   c-0.7,0.7-1.6,1.5-2.7,2.1C268.4,221.6,269.5,222.4,270.9,223.1z M264.5,208.9l-1.7,0.6c-0.5-0.6-1-1-1.4-1.3l1.8-0.6   C263.6,208,264.1,208.5,264.5,208.9z M268.3,216.2l-0.7,1.3c-1.6-0.5-3.5-0.8-5.8-0.9l0.5-1.2C264.8,215.5,266.8,215.8,268.3,216.2   z M269.1,208.3c-0.4,0.4-0.9,0.8-1.4,1.2l-1.7-0.6c0.6-0.3,1.1-0.8,1.6-1.2L269.1,208.3z"/>
	<path class="st1" d="M281.5,211.8l-1,1.4c-1-1.2-2-2.2-2.9-3c-0.5,0.9-1.2,1.8-2,2.7h4.3v1.6h-4.6v-1.2l-1.2,1.1l-1.1-1.3   c1.9-1.6,3.3-3.4,4.1-5.4l1.6,0.5c-0.1,0.2-0.1,0.4-0.3,0.7C279.5,209.7,280.6,210.7,281.5,211.8z M280.9,217.4   c0,0.1-0.2,0.6-0.7,1.6s-1.1,2-1.7,3c0.6,0.7,1.1,1.3,1.6,1.8l-1.3,1.1c-1.3-1.6-2.8-3.1-4.6-4.6l1.2-1c0.5,0.4,1.1,0.9,1.8,1.5   c0.7-1.2,1.4-2.3,1.9-3.4h-5.7v-1.6h7.5L280.9,217.4L280.9,217.4z M290.1,209.7h-3.4c-0.2,0.6-0.3,1.2-0.5,1.6h3.3v9.9h-5.2l1,0.9   c-0.9,1-2.1,2-3.7,2.9l-1.1-1.3c1.3-0.6,2.4-1.5,3.4-2.5h-2v-9.9h2.4c0.2-0.5,0.4-1.1,0.5-1.6h-3.6v-1.6h8.8v1.6L290.1,209.7   L290.1,209.7z M287.7,214.1v-1.2h-4.1v1.2H287.7z M287.7,216.8v-1.3h-4.1v1.3H287.7z M287.7,219.6v-1.3h-4.1v1.4L287.7,219.6   L287.7,219.6z M290.2,223.7l-1,1.3c-0.9-0.7-2-1.5-3.3-2.2l1-1.2C288.2,222.2,289.3,222.9,290.2,223.7z"/>
	<path class="st1" d="M297.9,220.5c-1.3,0.9-2.9,1.7-4.8,2.6l-0.6-1.6c0.6-0.2,1.3-0.5,2-0.9v-6.3h-1.6v-1.6h1.6v-4.9h1.7v4.9h1.5   v1.6h-1.5v5.4c0.5-0.3,1-0.6,1.5-1L297.9,220.5z M303.8,220.8c-1.3,0.7-3.3,1.4-6,2.2l-0.3-1.7c2.4-0.6,4.4-1.3,6.2-2.1   L303.8,220.8z M309.8,221.1c-0.1,1.1-0.4,2-0.7,2.7c-0.3,0.7-0.8,1.1-1.3,1.1s-1-0.3-1.4-0.8s-0.7-1.2-1-2c-0.8,1-1.7,1.9-2.8,2.9   l-1.2-1.1c1.5-1.3,2.6-2.5,3.4-3.6c-0.5-2.6-0.8-5.3-0.8-8.1h-6.3v-1.6h6.2c0-0.7,0-1.2,0-1.6c0-0.4,0-0.8,0-1.1l1.6,0.1   c0,0.6,0,1.1,0,1.5c0,0.5,0,0.8,0,1.1h4v1.6h-3.9c0,1.6,0.1,3.6,0.4,6c0.7-1.5,1.3-3.1,1.7-4.7l1.6,0.6c-0.8,2.8-1.8,4.9-2.8,6.5   c0.2,0.7,0.4,1.2,0.6,1.7s0.4,0.7,0.6,0.7c0.1,0,0.2-0.2,0.3-0.6c0.1-0.4,0.2-1,0.3-1.8L309.8,221.1z M303.1,218.8h-4.9v-5.5h4.9   V218.8z M301.5,217.3v-2.5h-1.6v2.5H301.5z M309,209.2l-1.1,1.1c-0.5-0.5-1.1-1-1.7-1.4l1-1.1C307.8,208.1,308.4,208.5,309,209.2z"/>
	<path class="st1" d="M319.5,224.7h-1.7v-1.3h-3.5v1.5h-1.7v-14.2h1.7c0.5-0.9,0.9-1.9,1.1-3l1.8,0.3c-0.1,0.6-0.4,1.5-0.9,2.7h3.2   V224.7z M317.8,216v-3.6h-3.5v3.6H317.8z M317.8,221.7v-4.1h-3.5v4.1H317.8z M328.9,210.8c0,1.9-0.1,4.3-0.2,7.3s-0.3,4.7-0.5,5.3   s-0.6,0.9-1.1,1.2s-1.6,0.4-3.5,0.4l-0.6-1.7h2.6c0.2,0,0.5-0.1,0.8-0.3s0.5-1.6,0.6-4.2c0.1-2.6,0.2-4.7,0.2-6.1h-3.9   c-0.6,1.5-1.3,2.9-2.1,4l-1.3-1.2c1.4-2.3,2.4-4.8,3-7.6l1.7,0.4c-0.1,0.7-0.4,1.6-0.7,2.7h5V210.8z M326.1,219.5l-1.5,1   c-0.8-1.7-1.7-3.1-2.7-4.2l1.5-1C324.7,216.9,325.6,218.3,326.1,219.5z"/>
	<path class="st1" d="M348.6,224.2h-17v-1.8h7.6v-12.1h-6.8v-1.8h15.4v1.8H341v12.1h7.6V224.2z"/>
	<path class="st1" d="M356.6,208c-0.3,0.8-0.5,1.5-0.8,2.1L355,212v12.7h-1.8V215c-0.5,0.7-0.9,1.2-1.3,1.6l-0.8-1.8   c1.6-2,2.9-4.4,3.8-7.2L356.6,208z M368.1,211.9H362v2.9h5.6v1.6H362v2.8h5.6v1.6H362v4h-1.8v-12.9h-0.7c-0.9,1.8-1.9,3.3-2.8,4.3   l-1.3-1.2c1.7-2,3-4.5,3.8-7.3l1.7,0.4c-0.1,0.4-0.3,1.1-0.8,2.2h7.8v1.6L368.1,211.9L368.1,211.9z"/>
	<path class="st1" d="M387.6,223.4l-1,1.5c-1.9-0.8-3.5-1.8-4.9-2.8c-1.6,1.1-3.7,2.1-6.1,2.8l-1-1.5c2.2-0.7,4.1-1.5,5.6-2.5   c-1.3-1.3-2.5-3-3.6-5.2c-0.7,3.6-2.4,6.6-5,8.9l-1.2-1.4c1.7-1.6,2.8-3.2,3.6-4.9c0.7-1.7,1.2-4.6,1.5-8.7H372v-1.7h13.1   c-0.4,1.8-1,3.5-1.7,5.2h3.1c-0.6,3.4-1.7,5.9-3.4,7.7C384.3,221.9,385.8,222.7,387.6,223.4z M382.7,209.8h-5.4   c0,1.3-0.1,2.4-0.3,3.5h4.5C381.9,212.3,382.3,211.1,382.7,209.8z M384.4,215h-6.2c1.1,2.1,2.2,3.7,3.5,4.9   C382.9,218.7,383.8,217.1,384.4,215z"/>
	<path class="st1" d="M395.9,209.9h-0.7v14.9h-1.6V222c-1,0.4-2.1,0.8-3.2,1.1l-0.5-1.6c0.2,0,0.5-0.1,1-0.3v-11.3h-0.8v-1.6h5.8   L395.9,209.9L395.9,209.9z M393.7,212.3v-2.4h-1.1v2.4H393.7z M393.7,216.4v-2.5h-1.1v2.5H393.7z M393.7,220.3V218h-1.1v2.7   C392.9,220.6,393.2,220.5,393.7,220.3z M407.3,221.3c-0.2,1.6-0.4,2.6-0.7,3.1s-0.7,0.7-1.1,0.7s-0.7-0.2-1-0.5s-0.6-0.9-0.9-1.8   c-0.7,0.7-1.4,1.5-2.2,2.3l-1.2-1.1c1.2-0.9,2.2-2,2.9-3.2c-0.3-1.7-0.4-3.7-0.5-6.1h-6.8v-1.5h1.5c-0.1-0.7-0.2-1.4-0.5-2.3h-0.5   v-1.6h2.1c-0.1-0.5-0.3-0.9-0.5-1.4l1.6-0.4c0.2,0.6,0.4,1.2,0.6,1.7h2.1v1.6h-0.5c-0.2,0.8-0.4,1.6-0.6,2.3h1.5   c0-2.6-0.1-4.4,0-5.4h1.6c0,2.1,0,3.9,0,5.4h2.9v1.5h-2.8c0,1.2,0.1,2.5,0.2,3.9c0.5-1.1,0.8-2.2,1-3.2l1.4,0.6   c-0.5,1.9-1.2,3.6-2.1,5c0.1,0.6,0.2,1.1,0.4,1.5c0.2,0.4,0.3,0.6,0.3,0.6s0.1-0.2,0.2-0.7s0.2-1.1,0.2-1.9L407.3,221.3z    M401.7,222.6h-5v-7h5V222.6z M400.1,218.2v-1.1h-1.9v1.1H400.1z M400.1,221.1v-1.4h-1.9v1.4H400.1z M400,210.9h-1.5   c0.2,0.8,0.3,1.6,0.4,2.3h0.4C399.7,212.3,399.9,211.6,400,210.9z M407.1,212l-1.4,0.6c-0.2-0.9-0.5-2.1-1-3.5l1.4-0.5   C406.5,209.6,406.8,210.7,407.1,212z"/>
	<path class="st1" d="M415.8,217.5l-1.1,1.4c-0.3-0.6-0.7-1.2-1-1.8v7.7H412v-6.9c-0.5,1.1-0.9,2.1-1.5,3l-1.1-1.7   c1.3-1.8,2.1-3.5,2.6-5.1h-2.4v-1.6h2.4V210c-0.8,0.2-1.4,0.3-1.8,0.3l-0.6-1.6c2-0.2,3.7-0.6,5-1.2l0.9,1.4   c-0.8,0.3-1.4,0.5-1.9,0.6v2.9h1.7v1.6h-1.7v0.3C414.4,215.4,415.1,216.4,415.8,217.5z M426.6,224.5h-11.3V223h4.9v-1.2h-4.3v-1.4   h4.3v-1.1h-3.9v-6.2h3.9V212h-4.6v-1.4h4.6v-1c-1,0.1-2.3,0.1-3.8,0.2l-0.5-1.4c3.2,0.1,6.3-0.2,9.3-0.9l0.7,1.3   c-1.2,0.3-2.6,0.5-4.1,0.6v1.1h4.6v1.4h-4.6v1.1h3.8v6.2h-3.8v1.1h4.3v1.4h-4.3v1.2h4.8V224.5z M420.2,215.6v-1.1H418v1.1H420.2z    M420.2,218v-1.1H418v1.1H420.2z M424.1,215.6v-1.1h-2.3v1.1H424.1z M424.1,218v-1.1h-2.3v1.1H424.1z"/>
	<path class="st1" d="M437,218.5c-0.5-0.2-0.8-0.6-0.8-1.2c0-0.4,0.1-0.6,0.4-0.9c0.3-0.2,0.6-0.3,0.9-0.3c0.4,0,0.7,0.1,0.9,0.4   s0.4,0.6,0.4,1c0,0.7-0.6,1.5-1.7,2.4l-0.6-0.5C436.8,219,436.9,218.7,437,218.5z"/>
	<path class="st1" d="M465.8,223l-0.6,1.6c-1.2,0-2.3,0-3.1,0c-1.8,0-3.3,0-4.5-0.1s-2.3-0.3-3.1-0.7c-0.8-0.4-1.6-1-2.1-1.7   c-1,1.4-1.9,2.4-2.7,3l-1.2-1.4c1.5-1,2.8-2.7,3.7-5.1l1.7,0.4c-0.2,0.5-0.4,1.1-0.7,1.7c0.7,1,1.8,1.7,3.3,2.2v-5h-7.8v-1.6h17   v1.6h-7.4v1.8h6.4v1.5h-6.4v1.8C459.4,222.9,462,223,465.8,223z M463.4,215h-12.5v-6.9h12.5V215z M461.6,210.9v-1.2h-9v1.2H461.6z    M461.6,213.5v-1.2h-9v1.2H461.6z"/>
	<path class="st1" d="M485.1,224.5h-16.9v-1.6h2.9v-10.1h11.1v10.1h2.9V224.5z M484.7,214h-1.8v-2.9h-12.6v2.9h-1.7v-4.5h7l-0.9-1.5   l1.9-0.4c0.3,0.4,0.6,1,0.9,1.8h7.2V214z M480.4,216.1v-1.8h-7.6v1.8H480.4z M480.4,219.4v-1.8h-7.6v1.8H480.4z M480.4,222.9V221   h-7.6v1.9H480.4z"/>
	<path class="st1" d="M493,208.6c-1.5,2-3.1,3.5-4.7,4.4l-0.9-1.5c1.3-0.7,2.7-1.9,4.1-3.8L493,208.6z M493.2,212.4   c-0.4,0.9-0.9,1.7-1.4,2.5v9.9H490v-7.6c-0.7,0.7-1.2,1.2-1.6,1.5l-0.8-1.6c1.4-1.1,2.8-2.9,4.2-5.3L493.2,212.4z M504.6,219.4   h-2.3v3.6c0,1.2-0.8,1.8-2.4,1.8c-0.4,0-0.9,0-1.3,0l-0.5-1.6c0.6,0,1,0,1.4,0c0.5,0,0.8-0.1,0.9-0.2s0.2-0.3,0.2-0.5v-3.1h-8.2   v-1.6h8.2v-1.2h-7.8v-1.5H504v1.5h-1.8v1.2h2.3L504.6,219.4L504.6,219.4z M503.4,214.2h-9.7v-6.1h9.7V214.2z M498,221.9l-1.2,1.2   c-1-1-1.9-1.8-2.8-2.3l1.1-1.2C496,220.1,496.9,220.9,498,221.9z M501.7,210.4v-0.8h-6.3v0.8H501.7z M501.7,212.7v-0.9h-6.3v0.9   H501.7z"/>
	<path class="st1" d="M517.1,217.8l-0.9,1.6c-0.8-1-1.8-2.1-3-3.1v8.4h-1.7v-8.2c-1,2.1-2.2,3.8-3.6,5.1l-0.9-1.7   c1.8-1.6,3.2-3.7,4.3-6.1h-3.9v-1.5h4v-2c-0.8,0.1-1.8,0.2-3,0.2l-0.7-1.7c3.1,0,5.6-0.4,7.8-1.1l1,1.5c-0.9,0.3-2,0.6-3.4,0.8v2.2   h3.6v1.7h-3.6v0.5C514.4,215.4,515.7,216.5,517.1,217.8z M519.6,221.4h-1.7v-12.2h1.7V221.4z M523.6,222.7c0,1.4-0.8,2.1-2.2,2.1   h-2.2l-0.6-1.8c0.6,0,1.6,0.1,2.9,0.1c0.2,0,0.4-0.1,0.4-0.4v-14.8h1.8v14.8L523.6,222.7L523.6,222.7z"/>
	<path class="st1" d="M543.6,216.7h-17V215h17V216.7z"/>
	<path class="st1" d="M563.2,223.6l-1,1.4c-3.9-2.5-6.4-5.7-7.5-9.8c-1.2,3.9-3.7,7.1-7.6,9.7l-1-1.5c4-2.6,6.4-5.8,7.3-9.5h-6.9   v-1.8h7.1c0.1-1.4,0.2-2.8,0.2-4.2h1.8c0,1.7-0.1,3.1-0.2,4.2h7.6v1.8h-7.1C556.8,218,559.3,221.2,563.2,223.6z"/>
	<path class="st1" d="M572.2,213.3h-1.5v3.3c0.3-0.1,0.8-0.2,1.4-0.4v1.8l-1.4,0.5v6.4H569V219c-1.4,0.4-2.4,0.6-3.1,0.7l-0.3-1.7   c1-0.2,2.1-0.5,3.4-0.8v-3.9h-1.1c-0.2,1.1-0.5,2-0.8,2.8l-1.5-0.7c0.6-1.6,0.9-3.6,1.2-6.1l1.6,0.2c0,0.5-0.1,1.2-0.2,2.1h0.8   v-3.7h1.7v3.7h1.5L572.2,213.3L572.2,213.3z M582.6,218.5h-1.8v4.7c0,0.5-0.1,0.8-0.3,1s-0.4,0.4-0.7,0.5s-0.8,0.1-1.5,0.1   c-0.4,0-1,0-1.6,0l-0.5-1.7c0.6,0,1.2,0.1,1.7,0.1c0.6,0,0.9,0,1-0.1s0.1-0.2,0.1-0.3v-4.2h-6.5V217h6.5v-1.3h1.7v1.3h1.8   L582.6,218.5L582.6,218.5z M582.6,211.4h-4.1v2h3.6v1.6h-9v-1.6h3.7v-2h-4.1v-1.6h4.1v-1.9h1.7v1.9h4.1V211.4z M577.3,221.6l-1.6,1   c-0.6-1-1.4-1.9-2.4-2.7l1.6-1C575.8,219.7,576.6,220.6,577.3,221.6z"/>
	<path class="st1" d="M602.2,220.7c0,1.1-0.2,2-0.6,2.7c-0.4,0.7-1,1.1-1.9,1.2c-0.8,0.1-2.7,0.1-5.4,0.1c-1.2,0-2.4,0-3.6,0   c-1.1,0-1.8-0.1-2.1-0.1c-0.3-0.1-0.5-0.2-0.7-0.4s-0.4-0.4-0.6-0.8c-0.1-0.3-0.2-0.8-0.2-1.3v-8.4c-0.3,0.2-0.7,0.5-1.2,0.8   l-1.1-1.3c2.5-1.5,4.5-3.3,6-5.5l1.7,0.5c-0.2,0.3-0.4,0.7-0.6,1h6.5v1.7c-0.7,0.7-1.4,1.5-2.3,2.2h4.7v6.1h-12v3.1   c0,0.1,0,0.2,0.1,0.4c0.1,0.1,0.2,0.2,0.3,0.3s0.7,0.1,1.8,0.1h3.7h4.3c0.4,0,0.7-0.2,0.9-0.5c0.2-0.4,0.4-1.2,0.4-2.4L602.2,220.7   z M595.9,210.8h-5.4c-0.7,0.8-1.5,1.5-2.5,2.2h5.5C594.5,212.3,595.2,211.5,595.9,210.8z M593.1,217.4v-2.8h-4.3v2.8H593.1z    M599.1,217.4v-2.8h-4.2v2.8H599.1z"/>
	<path class="st1" d="M613.1,214.2c0.6,0,1.1,0.2,1.5,0.6c0.4,0.4,0.6,0.9,0.6,1.5s-0.2,1.2-0.7,1.6c-0.4,0.4-0.9,0.6-1.5,0.6   s-1.1-0.2-1.5-0.6c-0.4-0.4-0.7-1-0.7-1.6s0.2-1.1,0.6-1.5C612,214.4,612.5,214.2,613.1,214.2z M613.2,217.5c0.3,0,0.5-0.1,0.7-0.4   c0.2-0.2,0.3-0.5,0.3-0.8s-0.1-0.6-0.3-0.8s-0.5-0.3-0.8-0.3s-0.6,0.1-0.8,0.3s-0.3,0.5-0.3,0.8s0.1,0.6,0.3,0.8   C612.5,217.4,612.8,217.5,613.2,217.5z"/>
</g>
</svg>