<?xml version="1.0" encoding="UTF-8"?>
<!-- Generator: Adobe Illustrator 21.0.2, SVG Export Plug-In . SVG Version: 6.00 Build 0)  -->
<svg version="1.1" id="圖層_1" xmlns="http://www.w3.org/2000/svg" xmlns:xlink="http://www.w3.org/1999/xlink" x="0px" y="0px" width="293px" height="153px" viewBox="0 0 293 153" style="enable-background:new 0 0 293 153;" xml:space="preserve">
<style type="text/css">
	.st0{opacity:0.5;fill:none;stroke:#FFFFFF;stroke-miterlimit:10;enable-background:new    ;}
	.st1{fill:#FFFFFF;}
</style>
<g>
	<line class="st0" x1="9.8" y1="58.1" x2="282.1" y2="58.1"/>
	<line class="st0" x1="9.8" y1="0" x2="282.1" y2="0"/>
	<g>
		<path class="st1" d="M91.4,11.5c0.5,1.5,0.9,3.2,1.2,5.1h3.2v2.6c-0.5,1.7-1.4,3.4-2.5,5.1c2.1,1.5,3.7,2.8,4.8,3.9l-2.3,3.5    c-0.9-1.4-2-2.7-3.2-4v13.2h-3.9V30.1c-1,1.1-2.1,2.1-3.2,3.2l-2-4.5c3.9-2.6,6.6-5.6,8-9h-7.2v-3.2h4.3c-0.3-1.4-0.6-2.8-1.1-4.2    L91.4,11.5z M96.5,19.9h5.5v-8.5h4.3v8.5h5.5v4h-5.5V36h6.5v3.9H95.4V36h6.6V23.9h-5.5C96.5,23.9,96.5,19.9,96.5,19.9z"/>
		<path class="st1" d="M117.5,20.8h25.1v14.6h-6.2c2.5,0.4,5.3,1.1,8.5,1.8l-1.7,3.5c-4-1.4-7.7-2.4-11.2-3.1l1.8-2.2h-7.9l2,2.2    c-3.5,1.5-7.1,2.6-10.6,3.2l-1.8-3.8c2.9-0.3,5.8-0.8,8.8-1.7h-6.7V20.8H117.5z M118.7,12.1h22.6v7.7h-22.6V12.1z M121.9,24.9    h16.3v-1.1h-16.3V24.9z M121.9,28.7h16.3v-1.2h-16.3V28.7z M138.2,32.5v-1.3h-16.3v1.3H138.2z M137,16.8v-1.7h-13.8v1.7H137z"/>
		<path class="st1" d="M162,11.8h2.2c3.8,4.4,8.1,7.5,12.7,9.5l-2.2,4.3c-4.4-2.3-8.7-5.6-12.7-9.9c-3.4,4.2-7.7,7.5-12.9,9.9    l-1.6-4.4c5-2,9-5.1,12.2-9.4C159.7,11.8,162,11.8,162,11.8z M158.6,23.6v5c0.1,4.6-2.1,8.7-6.3,12.2l-3.8-3.3    c2-1.2,3.5-2.7,4.6-4.5c0.8-1.4,1.2-3.4,1.2-5.8v-3.6H158.6z M165.3,23.6h4.5v16.9h-4.5V23.6z"/>
		<path class="st1" d="M184.4,11.6l4,1.2c-1.3,2.9-2.4,5.2-3.5,6.8c0,0,0,0.1-0.1,0.1c0.9-0.1,1.7-0.2,2.4-0.3    c0.8-1.3,1.6-2.6,2.3-4l3.2,2c-2.2,3.7-4.6,7-7.2,9.9c1.1-0.2,2.3-0.4,3.4-0.6c-0.2-0.9-0.5-1.7-0.7-2.4l2.8-0.7    c0.7,1.5,1.4,3.6,2.1,6.4l-3.2,1.1c-0.1-0.5-0.2-1-0.2-1.5c-3.1,0.7-6.2,1.4-9.2,1.9l-0.7-3.8c0.5,0,1,0,1.5,0    c1.3-1.5,2.4-3,3.5-4.5c-1.4,0.2-2.9,0.4-4.5,0.5l-0.7-3.5c0.4,0,0.8,0,1.2-0.1C182.3,17.7,183.5,14.9,184.4,11.6z M180.7,31.9    l3,0.1c0,2.6-0.2,5.3-0.5,8.1l-3.5-0.4C180.2,37.5,180.6,34.8,180.7,31.9z M187.5,31.9c0.4,2,0.7,4.4,0.9,7.2l-3.4,0.5    c0-2.3-0.1-4.8-0.3-7.4L187.5,31.9z M191.1,31.2c0.6,1.5,1.3,3.6,2,6.4l-3.2,1.1c-0.4-2.6-0.9-4.9-1.5-6.8L191.1,31.2z     M192.8,12.7h15.1v3.4c0,5-0.4,8-1.2,8.8c-0.8,0.8-2.3,1.2-4.5,1.2h-2l-0.8-4c1.6,0.1,2.6,0.1,2.8,0.1c0.6,0,1.1-0.1,1.3-0.3    c0.2-0.2,0.3-2.1,0.4-5.6H200c-0.2,2.2-0.7,4.1-1.5,5.6c-1,1.9-2.6,3.6-4.9,5.2l-2.2-3.4c1.5-0.9,2.7-1.9,3.5-3.2    c0.7-1.1,1.1-2.5,1.2-4.1h-3.5v-3.7H192.8z M207.7,27.2v13.4h-3.9v-1.5h-6.5v1.5h-3.8V27.2H207.7z M197.3,35.8h6.5v-5.4h-6.5V35.8    z"/>
	</g>
	<g>
		
			<image style="overflow:visible;opacity:0.6;enable-background:new    ;" width="299" height="58" xlink:href="7B8C4D91C508A4F5.png" transform="matrix(1 0 0 1 -1.9192 94.6667)">
		</image>
		<g>
			<g>
				<path class="st1" d="M6.9,105.2h4.8c0.3-0.6,0.6-1.3,0.8-2l1.5,0.2c-0.2,0.7-0.4,1.3-0.7,1.8h7v1.3h-7.7c-0.3,0.6-0.7,1.1-1,1.6      c-0.4,0.5-0.8,1.1-1.3,1.6v7.3H8.9v-6c-0.3,0.3-0.7,0.6-1,0.8l-1-1.2c1.4-1.1,2.6-2.2,3.5-3.4c0.2-0.2,0.4-0.5,0.5-0.7h-4V105.2      z M11.4,110.2H15v-3h1.5v3h3.4v1.3h-3.5v3.6h3.9v1.3h-9.6v-1.3h4.2v-3.6h-3.5V110.2z"/>
				<path class="st1" d="M26,103.1l1.4,0.3c-0.2,0.4-0.4,0.7-0.6,1h6.5v1.1c-1.2,1.3-2.3,2.4-3.5,3.1c1.4,0.6,3.2,1.2,5.6,1.6      l-0.9,1.3c-2.8-0.6-4.8-1.3-6.1-2.1c-1.5,0.8-3.6,1.6-6.2,2.2l-0.7-1.3c2.3-0.4,4.1-1,5.6-1.7c-0.8-0.5-1.5-1.1-2.1-1.8      c-0.5,0.6-1.1,1.2-1.7,1.7l-1-1.2C24,106.1,25.2,104.7,26,103.1z M33.1,111.4v5.6h-1.4v-0.8h-6.4v0.8h-1.5v-5.6H33.1z M25.2,115      h6.5v-2.3h-6.4v2.3H25.2z M25.9,105.9c0.7,0.8,1.6,1.5,2.6,2.1c0.9-0.6,1.8-1.3,2.8-2.2L25.9,105.9      C25.9,105.8,25.9,105.8,25.9,105.9z"/>
				<path class="st1" d="M42.3,103.3l1.5,0.2c-0.1,0.5-0.3,0.9-0.6,1.3h5.5v12h-1.4V116h-8.5v0.8h-1.4v-12h4.4      C42.1,104.3,42.2,103.8,42.3,103.3z M38.8,107.8h8.5v-1.7h-8.5V107.8z M38.8,111.2h8.5v-2h-8.5V111.2z M38.8,114.7h8.5v-2.2      h-8.5V114.7z"/>
				<path class="st1" d="M54.2,103.3l1.3,0.2c-0.2,0.8-0.4,1.5-0.7,2.2H57v3.1c0.4-0.7,0.8-1.5,1-2.2c0.3-0.8,0.5-2,0.7-3.4l1.5,0.2      c-0.1,0.8-0.3,1.5-0.4,2.1h4.6c0,5.3-0.1,8.4-0.2,9.4c-0.1,0.8-0.4,1.2-0.8,1.5c-0.4,0.3-1.2,0.5-2.3,0.5c-0.3,0-0.7,0-1.1-0.1      l-0.2-1.5c0.4,0.1,0.9,0.1,1.3,0.1c0.9,0,1.5-0.3,1.6-1c0.2-0.8,0.3-3.3,0.3-7.6h-3.6c0,0.1-0.1,0.2-0.1,0.2      c-0.3,1.1-0.9,2.2-1.7,3.4l-0.7-0.9v6.1h-1.3v-0.7h-2.7v1.1h-1.3v-10.7h1.9C53.8,104.9,54,104.1,54.2,103.3z M52.9,109.8h2.7      v-2.9h-2.7V109.8z M52.9,114h2.7v-3h-2.7V114z M59.9,108.9c0.8,1.4,1.5,2.6,2,3.6l-1.4,0.9c-0.4-1.1-1-2.3-1.8-3.8L59.9,108.9z"/>
				<path class="st1" d="M68.4,103.1l1.2,0.2c-0.2,0.3-0.4,0.6-0.6,0.9h10.1v1.2h-1.6v1.3h1.9v1.1h-1.9v1.5h1.9v1H66.2v-1h2.1v-1.5      h-2.1v-1.1h2.1v-1.3h-0.2c-0.4,0.4-0.8,0.8-1.2,1.1l-0.9-1.1C67.1,104.7,67.9,103.9,68.4,103.1z M68.7,110.5l1.2,0.2      c-0.1,0.2-0.3,0.4-0.4,0.6h3.1v0.9c-0.4,1.2-1,2.2-1.9,3.1c-0.8,0.7-2,1.3-3.8,1.7l-0.7-1.1c1.3-0.3,2.3-0.7,3-1.1      c-0.6-0.6-1.1-1.1-1.7-1.5c-0.2,0.2-0.5,0.4-0.7,0.5l-0.8-1C67.2,112.2,68.1,111.4,68.7,110.5z M68.3,112.7      c0.7,0.4,1.3,0.9,1.9,1.5c0.5-0.5,0.9-1.1,1.1-1.7h-2.7C68.5,112.5,68.4,112.6,68.3,112.7z M70.9,106.7v-1.3h-1.4v1.3H70.9z       M69.5,109.3h1.4v-1.5h-1.4C69.5,107.8,69.5,109.3,69.5,109.3z M73.6,106.7v-1.3h-1.5v1.3H73.6z M72.2,109.3h1.5v-1.5h-1.5      V109.3z M79.1,111.6v1.2h-1.6v1.5h1.9v1.2h-1.9v1.5h-1.3v-1.5h-3.5l0.4-3.9h3.2v-0.9h1.3v0.9C77.6,111.6,79.1,111.6,79.1,111.6z       M76.2,114.3v-1.5h-2l-0.2,1.5H76.2z M76.3,106.7v-1.3h-1.5v1.3H76.3z M74.9,109.3h1.5v-1.5h-1.5V109.3z"/>
				<path class="st1" d="M85.5,103.2l1.4,0.5c-1,1.8-1.9,3.3-3,4.5c0.3,0,0.6,0,0.7,0c2.3,0,4.5-0.2,6.7-0.5      c-0.5-0.8-1.2-1.5-1.9-2.3l1.1-1c1.4,1.6,2.6,3.1,3.6,4.7l-1.1,1.1c-0.2-0.4-0.5-0.9-0.8-1.3c-3,0.4-6.6,0.7-10.9,0.7L81,108      c0.5,0,1,0.1,1.4,0.1C83.5,106.9,84.5,105.3,85.5,103.2z M93,110.7v6.4h-1.5v-0.9h-8v0.9H82v-6.3L93,110.7L93,110.7z       M83.6,114.8h8V112h-8V114.8z"/>
				<path class="st1" d="M97.9,103.3l1.2,0.5c-0.3,1.2-0.7,2.2-1.1,3V117h-1.3v-7.9c-0.3,0.5-0.7,1-1.1,1.5l-0.5-1.7      c0.5-0.8,1-1.6,1.4-2.4C97.1,105.8,97.5,104.7,97.9,103.3z M99.4,103.7h1.3v3.8h1.9v1.2h-1.9v4.6c0.6-0.2,1.2-0.5,1.7-0.7v1.3      c-1.1,0.5-2.3,1-3.7,1.5l-0.4-1.3c0.3-0.1,0.7-0.2,1-0.3L99.4,103.7L99.4,103.7z M102.1,103.8h7v1.2h-2.7      c-0.1,0.4-0.2,0.8-0.3,1.2h2.4v8h-1.2c0.8,0.8,1.4,1.5,1.9,2.1l-1.1,0.8c-0.4-0.7-1.1-1.5-1.9-2.4l0.7-0.4h-2.3l0.8,0.4      c-0.7,0.9-1.5,1.8-2.4,2.5l-1.1-0.8c0.9-0.6,1.7-1.3,2.3-2H103v-8h1.7c0.1-0.4,0.3-0.8,0.4-1.2h-3V103.8z M104.1,108.5h3v-1.2      h-3V108.5z M104.1,110.8h3v-1.3h-3V110.8z M107.1,113v-1.2h-3v1.2H107.1z"/>
				<path class="st1" d="M112.1,110.5l0.9,0.8c-0.6,0.7-1.3,1.3-2.1,1.9l-0.8-1.1C110.8,111.6,111.5,111.1,112.1,110.5z M111,104      h5.2v-0.7h1.3v0.7h4.9v1.8h1.3v1.1h-1.3v1.7h-4.9v0.8h6.2v1.1h-13.5v-1.1h6v-0.8H111v-1h5.2v-0.7h-6v-1.1h6v-0.7H111V104z       M122.2,112.7v2.6h1.6v1.2h-13.5v-1.2h1.3v-2.6H122.2z M112.9,115.4h1.9v-1.5h-1.9V115.4z M115.6,110.7c0.3,0.4,0.6,1,0.7,1.7      l-1.5,0.2c0-0.8-0.2-1.4-0.5-1.8L115.6,110.7z M116,115.4h1.9v-1.5H116V115.4z M117.6,105.1v0.7h3.6v-0.7H117.6z M117.6,106.8      v0.7h3.6v-0.7H117.6z M119,110.7c0.3,0.5,0.5,1.1,0.7,1.8l-1.4,0.1c-0.1-0.7-0.3-1.3-0.5-1.8L119,110.7z M119.1,115.4h1.8v-1.5      h-1.8V115.4z M121.8,110.5c0.8,0.6,1.5,1.2,2.1,1.7l-1,1c-0.5-0.6-1.2-1.2-2.1-1.9L121.8,110.5z"/>
				<path class="st1" d="M130.2,104.6h-2.9v-1.2h5.3c1,1.6,3,3,6.2,4.4l-0.9,1.3c-0.4-0.2-0.8-0.4-1.2-0.6v0.9h-4.2v2.3h4v1.2h-4      v2.6h5.7v1.2h-12.9v-1.2h5.7V113h-3.9v-1.2h3.9v-2.3h-4.1v-0.9c-0.4,0.2-0.8,0.4-1.2,0.6l-0.8-1.4c1.6-0.6,2.8-1.2,3.6-1.8      C129.2,105.6,129.7,105.1,130.2,104.6z M127.6,108.2h8.5c-0.7-0.4-1.2-0.7-1.7-1.1c-1-0.8-1.9-1.6-2.5-2.5      c-0.5,0.7-1,1.3-1.5,1.8C129.7,107,128.8,107.6,127.6,108.2z"/>
				<path class="st1" d="M140.4,106.2h5.2v-3h1.5v3h5.8c-0.1,5.2-0.3,8.2-0.7,9.1c-0.3,0.9-1.1,1.3-2.3,1.3c-1,0-1.7,0-2.2-0.1      l-0.4-1.6c0.8,0.1,1.7,0.2,2.6,0.2c0.6,0,0.9-0.4,1.1-1.2c0.2-0.6,0.2-2.6,0.3-6.2H147c-0.2,2.3-0.7,4.1-1.5,5.6      c-0.9,1.6-2.5,2.8-4.6,3.7l-0.8-1.3c2.1-0.9,3.5-2.1,4.3-3.5c0.6-1.2,1-2.7,1.1-4.5h-5.2L140.4,106.2L140.4,106.2z"/>
				<path class="st1" d="M162.3,110.3c0,0.6-0.1,1.1-0.4,1.4c-0.2,0.3-0.6,0.6-1.2,1l-0.5-0.7c0.7-0.4,1.1-0.8,1.2-1.3h-1v-1.8h1.8      L162.3,110.3L162.3,110.3z"/>
				<path class="st1" d="M169.3,109.9H183v1.3h-5.9v1.4h5.1v1.2h-5.1v1.5c0.7,0.1,1.6,0.1,2.6,0.1c1.4,0,2.6,0,3.5-0.1l-0.4,1.5      c-4.6,0-7.3-0.2-8.2-0.5s-1.6-0.9-2.3-1.8c-0.4,0.8-1.1,1.7-2.1,2.6l-1.1-1.3c0.8-0.7,1.4-1.3,1.8-2c0.4-0.6,0.7-1.4,1-2.4      l1.5,0.2c-0.2,0.7-0.4,1.2-0.5,1.7c0.6,0.9,1.3,1.4,2.2,1.7c0.2,0.1,0.4,0.1,0.6,0.1v-4h-6.4L169.3,109.9L169.3,109.9z       M170.8,103.6h10.7v5.4h-10.7V103.6z M172.3,105.8h7.8v-1h-7.8V105.8z M180.1,107.8v-1h-7.8v1H180.1z"/>
				<path class="st1" d="M195.4,107.2v8.3h2.2v1.2h-13.3v-1.2h2.1v-8.3H195.4z M191.3,103.3c0.2,0.4,0.4,0.8,0.5,1.2h5.5v3.4h-1.4      v-2.1h-10v2.1h-1.4v-3.4h5.8c-0.2-0.4-0.4-0.7-0.6-1L191.3,103.3z M187.8,110h6.2v-1.5h-6.2V110z M187.8,112.7h6.2v-1.5h-6.2      V112.7z M187.8,115.4h6.2v-1.5h-6.2V115.4z"/>
				<path class="st1" d="M202.6,103.3l1,0.9c-1,1.3-2.3,2.4-3.8,3.5l-1-1.2C200.3,105.6,201.5,104.5,202.6,103.3z M202.5,106.9      l1.2,0.6c-0.5,1-1,1.8-1.5,2.5v6.8h-1.4v-5.3c-0.4,0.4-0.9,0.9-1.5,1.3l-0.5-1.7c0.7-0.6,1.4-1.2,1.9-1.8      C201.4,108.8,201.9,108,202.5,106.9z M203.3,109.7h8.8v1.1h-1.6v0.9h1.9v1.2h-1.9v2.6c0,0.5-0.1,0.9-0.4,1.1      c-0.2,0.2-0.6,0.3-1.2,0.3h-1.7l-0.3-1.4c0.7,0.1,1.3,0.1,1.7,0.1s0.5-0.1,0.5-0.4V113h-6.3v-1.2h6.3v-0.9h-5.9L203.3,109.7      L203.3,109.7z M204,103.8h7.9v5H204V103.8z M205.7,113.3c0.5,0.5,0.9,1.1,1.2,1.8l-1.3,0.6c-0.4-0.7-0.8-1.4-1.2-1.9      L205.7,113.3z M205.3,105.9h5.2v-1h-5.2V105.9z M210.5,107.8v-0.9h-5.2v0.9H210.5z"/>
				<path class="st1" d="M220.2,103.4l0.5,1.3c-0.7,0.2-1.6,0.5-2.5,0.6v2h2.7v1.4h-2.7v0.1c1,0.9,1.9,1.9,2.9,3.1l-0.8,1.2      c-0.8-1.2-1.5-2.1-2.1-2.8v6.7h-1.3v-6.5c-0.3,0.7-0.5,1.2-0.8,1.6c-0.5,0.8-1.1,1.6-1.8,2.4l-0.8-1.3c0.7-0.7,1.3-1.4,1.9-2.3      c0.4-0.6,0.7-1.4,1-2.2h-2.7v-1.4h3.1v-1.8c-0.8,0.1-1.7,0.2-2.6,0.3l-0.3-1.3C216.3,104.3,218.4,104,220.2,103.4z M221.8,104.4      h1.4v9.5h-1.4V104.4z M225.1,103.3h1.5v12c0,0.6-0.1,1-0.4,1.2c-0.2,0.2-0.6,0.4-1.3,0.4h-2.4l-0.3-1.5c0.9,0.1,1.7,0.1,2.3,0.1      c0.4,0,0.6-0.1,0.6-0.3L225.1,103.3L225.1,103.3z"/>
				<path class="st1" d="M231.5,103.3c0.2,0.7,0.5,1.4,0.7,2.2h2.1v1.3c-0.6,1.2-1.2,2.1-1.8,2.9c0.9,0.6,1.7,1.2,2.5,2l-0.8,1.2      c-0.6-0.7-1.3-1.3-1.9-1.8v5.9h-1.4v-5.4c-0.6,0.6-1.3,1.2-2.1,1.8l-0.5-1.6c1.1-0.8,1.9-1.5,2.4-2.1c0.6-0.5,1.3-1.5,2-2.8      h-4.3v-1.3h2.5c-0.2-0.7-0.5-1.4-0.7-2.1L231.5,103.3z M234.6,106.9h2.8v-3.5h1.5v3.5h3v1.4h-3v6.9h3.3v1.4h-8.5v-1.4h3.7v-6.9      h-2.8V106.9z"/>
				<path class="st1" d="M247.7,114.6l0.9,1c-1.6,0.6-3.2,1.1-4.8,1.4l-0.6-1.3C244.8,115.4,246.4,115.1,247.7,114.6z M244.4,107.7      h11.3v6.8h-11.3V107.7z M244.8,103.8h10.6v3.2h-10.6V103.8z M245.8,109.6h8.5v-0.9h-8.5V109.6z M245.8,111.6h8.5v-0.9h-8.5      V111.6z M254.3,113.4v-0.9h-8.5v0.9H254.3z M254,105.9v-1h-7.8v1H254z M252,114.7c1.8,0.3,3.4,0.7,4.9,1.1l-0.8,1.2      c-1.6-0.5-3.2-1-4.8-1.3L252,114.7z"/>
				<path class="st1" d="M261,103.3l1.3,0.2c-0.2,0.8-0.4,1.5-0.7,2.2h2.2v3.1c0.4-0.7,0.8-1.5,1-2.2c0.3-0.8,0.5-2,0.7-3.4l1.5,0.2      c-0.1,0.8-0.3,1.5-0.4,2.1h4.6c0,5.3-0.1,8.4-0.2,9.4c-0.1,0.8-0.4,1.2-0.8,1.5s-1.2,0.5-2.3,0.5c-0.3,0-0.7,0-1.1-0.1l-0.2-1.5      c0.4,0.1,0.9,0.1,1.3,0.1c0.9,0,1.5-0.3,1.6-1c0.2-0.8,0.3-3.3,0.3-7.6h-3.6c0,0.1-0.1,0.2-0.1,0.2c-0.3,1.1-0.9,2.2-1.7,3.4      l-0.7-0.9v6.1h-1.3v-0.7h-2.7v1.1h-1.3v-10.7h1.9C260.6,104.9,260.9,104.1,261,103.3z M259.7,109.8h2.7v-2.9h-2.7V109.8z       M259.7,114h2.7v-3h-2.7V114z M266.7,108.9c0.8,1.4,1.5,2.6,2,3.6l-1.4,0.9c-0.4-1.1-1-2.3-1.8-3.8L266.7,108.9z"/>
				<path class="st1" d="M274.2,107l1.4,0.2c-0.3,2.4-0.7,4.4-1.4,6.1l-1.5-0.5C273.4,111,273.9,109.1,274.2,107z M276.5,106.5h1.5      v5.7c0.5-0.4,1-0.8,1.4-1.3c1.3-1.5,2.6-3.7,3.7-6.6l1.3,0.5c-1.3,3.2-2.6,5.6-4,7.1c-0.7,0.8-1.4,1.5-2.3,2.2v0.8      c0,0.3,0.2,0.5,0.5,0.5h3c0.2,0,0.4-0.1,0.4-0.3c0.1-0.2,0.2-1.1,0.2-2.7l1.4,0.4c-0.1,1.9-0.3,3-0.6,3.4      c-0.2,0.3-0.7,0.5-1.3,0.5H278c-0.4,0-0.8-0.1-1.1-0.4c-0.3-0.3-0.4-0.6-0.4-1v-0.2c-0.9,0.6-1.9,1.1-3,1.6l-0.8-1.3      c1.5-0.6,2.7-1.3,3.9-2v-6.9H276.5z M278.3,103.4c1.1,1,2.1,2,2.8,2.9l-1.1,1.1c-0.6-0.9-1.6-2-2.8-3L278.3,103.4z M284.6,108.1      c0.7,1.9,1.4,3.8,1.9,6l-1.3,0.6c-0.6-2.3-1.2-4.4-1.9-6.2L284.6,108.1z"/>
				<path class="st1" d="M9.6,128.3l1.2,0.5c-0.4,1.2-0.7,2.3-1.2,3.1v10H8.3v-7.7c-0.3,0.5-0.7,1-1.1,1.5L6.7,134      c0.6-0.8,1.1-1.6,1.5-2.4C8.7,130.8,9.2,129.7,9.6,128.3z M10.9,129.5h1.9v-1.2h1.3v1.2h2.5v-1.2h1.3v1.2h2.3v1.2h-2.3v1.3h2.6      v1.2h-8.1v0.7c0,1.7-0.1,3.1-0.3,4.2c-0.2,1.1-0.6,2.2-1.2,3.3l-1.1-1c0.5-0.9,0.8-1.8,1-2.8c0.2-0.8,0.3-2,0.3-3.7v-0.7h-1V132      h2.7v-1.3h-1.9V129.5z M19.8,134v6.7c0,0.4-0.1,0.8-0.4,1c-0.2,0.2-0.5,0.3-0.8,0.3h-1l-0.3-1.2H18c0.3,0,0.4-0.2,0.4-0.5v-0.8      h-1.6v2.4h-1.1v-2.4h-1.6v2.4h-1.3V134H19.8z M16.5,132v-1.3h-2.4v1.3H16.5z M14.1,136.3h1.6v-1.1h-1.6V136.3z M14.1,138.5h1.6      v-1.2h-1.6V138.5z M16.9,135.2v1.1h1.6v-1.1H16.9z M16.9,137.3v1.2h1.6v-1.2H16.9z"/>
				<path class="st1" d="M23.8,128.2l1.2,0.5c-0.3,0.9-0.5,1.7-0.8,2.4V142H23v-8.3c-0.3,0.6-0.7,1.2-1.1,1.7l-0.5-1.6      c0.5-0.8,0.9-1.6,1.3-2.4C23.1,130.7,23.5,129.6,23.8,128.2z M25,130.5h1.2v9.3H25V130.5z M26.7,136h3.6v-1.3h1.4v1.3h3.4v1.2      H33c0.2,0.5,0.5,1,0.8,1.4c0.4,0.5,0.9,1.1,1.6,1.7l-0.8,1.1c-0.8-0.7-1.4-1.5-1.8-2.2c-0.4-0.5-0.7-1.2-0.9-1.9h-0.2v4.8h-1.3      v-4.8h-0.1c-0.3,0.7-0.5,1.2-0.8,1.6c-0.5,0.8-1.3,1.7-2.4,2.6l-0.6-1.1c0.8-0.6,1.4-1.2,1.8-1.8c0.3-0.4,0.6-0.8,0.8-1.3h-2.4      V136z M28.7,127.9l1.1,0.6c-0.1,0.3-0.2,0.6-0.3,0.8h5.4v1.1h-1.2c-0.4,1-1,1.8-1.7,2.4c0.9,0.4,1.9,0.7,3.2,0.9l-0.5,1.3      c-1.8-0.5-3.1-1-3.9-1.4c-1,0.6-2.2,1.1-3.8,1.4l-0.5-1.2c1.3-0.2,2.4-0.5,3.2-0.9c-0.5-0.4-1-1-1.4-1.6      c-0.3,0.5-0.7,0.9-1.1,1.4l-0.7-1.2c0.4-0.4,0.8-0.9,1.2-1.6C28.1,129.5,28.4,128.8,28.7,127.9z M29.2,130.5      c0.4,0.8,1,1.4,1.7,1.8c0.5-0.5,1-1.1,1.3-1.8H29.2z"/>
				<path class="st1" d="M39.4,128.3l1.2,0.5c-0.4,1.2-0.8,2.2-1.2,3v10.1h-1.3V134c-0.4,0.6-0.9,1.2-1.3,1.8l-0.5-1.7      c0.6-0.8,1.2-1.6,1.7-2.5C38.4,130.8,38.9,129.7,39.4,128.3z M42.5,128.4l1.3,0.5c-0.3,1-0.6,1.8-0.8,2.3h1.9v-2.8h1.4v2.8h3.2      v1.3h-3.2v3.4h3.6v1.3h-3.6v4.6h-1.4v-4.6h-4.7V136h4.7v-3.4h-2.5c-0.3,0.5-0.7,1-1.2,1.6l-1.1-1c0.6-0.7,1.2-1.5,1.6-2.2      C41.9,130.3,42.3,129.4,42.5,128.4z"/>
				<path class="st1" d="M60,135.2c0,0.6-0.2,1-0.6,1.4c-0.4,0.4-0.9,0.6-1.5,0.6s-1.1-0.2-1.5-0.6c-0.4-0.4-0.6-0.9-0.6-1.4      s0.2-1,0.6-1.4c0.4-0.4,0.9-0.6,1.5-0.6s1.1,0.2,1.5,0.6C59.8,134.1,60,134.6,60,135.2z M59,135.2c0-0.3-0.1-0.5-0.3-0.7      s-0.4-0.3-0.7-0.3s-0.5,0.1-0.7,0.3s-0.3,0.4-0.3,0.7s0.1,0.5,0.3,0.7s0.4,0.3,0.7,0.3s0.5-0.1,0.7-0.3S59,135.4,59,135.2z"/>
				<path class="st1" d="M65.8,131.9h3.9v1c-0.5,0.8-1.1,1.7-1.8,2.6h1.8v0.8c-0.2,1-0.5,1.8-0.7,2.4c0.6,0.6,1,1.1,1.4,1.2      c0.3,0.2,0.8,0.3,1.4,0.4c0.7,0.1,2.2,0.2,4.3,0.2c1.6,0,2.7,0,3.5-0.1l-0.2,1.4c-4.1,0-6.7-0.1-7.6-0.2c-0.8-0.1-1.5-0.3-2-0.6      c-0.4-0.2-0.9-0.6-1.5-1.3c-0.4,0.7-1,1.4-1.6,2.2l-1-1.1c0.8-0.8,1.3-1.5,1.6-2.1c0.3-0.4,0.6-1.1,0.9-2.2h-2v-1.1      c0.6-0.6,1.2-1.4,1.9-2.5h-2.3L65.8,131.9L65.8,131.9z M67.7,128.3c0.6,0.7,1.2,1.4,1.6,2.1l-1,1c-0.4-0.7-0.9-1.4-1.6-2.2      L67.7,128.3z M73.8,128.1l1.4,0.2c-0.1,0.4-0.3,0.9-0.5,1.2h3.8v4.1H72v1.2h6.9v4.4h-8.2v-9.6h2.6      C73.5,129.1,73.7,128.6,73.8,128.1z M72,132.3h5.1v-1.5H72V132.3z M72,137.8h5.6v-1.7H72V137.8z"/>
				<path class="st1" d="M80.7,130.9h6.1v-2.5h1.5v2.5h5.9v1.3h-5.9v8.1c0,0.6-0.1,1-0.4,1.2c-0.2,0.2-0.7,0.4-1.3,0.4h-1.8      l-0.3-1.5c0.7,0.1,1.3,0.1,1.7,0.1c0.4,0,0.6-0.1,0.6-0.4v-7.9h-6.1V130.9z M85.4,136.3l0.9,1c-1.2,1.2-2.7,2.3-4.5,3.4l-1-1.2      C82.5,138.5,84.1,137.5,85.4,136.3z M82.7,132.5c1.1,0.8,2.1,1.6,2.9,2.3l-1.1,1c-0.6-0.8-1.6-1.6-2.8-2.5L82.7,132.5z       M90.2,136.3c1.6,1.1,2.9,2.2,4,3.3l-1.1,1.1c-0.9-1.1-2.2-2.2-3.9-3.5L90.2,136.3z M92.4,132.6l1,0.9c-0.7,0.8-1.7,1.6-2.8,2.3      l-1-1.2C90.6,134,91.5,133.4,92.4,132.6z M90.8,128.4c0.7,0.4,1.4,0.9,1.9,1.3l-1,1c-0.4-0.5-1-0.9-1.8-1.5L90.8,128.4z"/>
				<path class="st1" d="M95.5,130.2h4.8c0.3-0.6,0.6-1.3,0.8-2l1.5,0.2c-0.2,0.7-0.4,1.3-0.7,1.8h7v1.3h-7.7      c-0.3,0.6-0.7,1.1-1,1.6c-0.4,0.5-0.8,1.1-1.3,1.6v7.3h-1.5v-6c-0.3,0.3-0.7,0.6-1,0.8l-1-1.2c1.4-1.1,2.6-2.2,3.5-3.4      c0.2-0.2,0.4-0.5,0.5-0.7h-4.1v-1.3H95.5z M100,135.2h3.6v-3h1.5v3h3.4v1.3h-3.4v3.6h3.9v1.3h-9.6v-1.3h4.2v-3.6H100V135.2z"/>
				<path class="st1" d="M110.9,129.5h12.3v1.4h-5.4v8.8h6v1.4h-13.5v-1.4h5.9v-8.8h-5.3V129.5z"/>
				<path class="st1" d="M128.1,128.2l1.2,0.5c-0.4,1.2-0.8,2.2-1.2,3.1v10.1h-1.4V134c-0.4,0.6-0.9,1.2-1.3,1.7l-0.5-1.7      c0.6-0.8,1.2-1.7,1.7-2.5C127.1,130.8,127.6,129.7,128.1,128.2z M131.6,128.2l1.5,0.3c-0.2,0.7-0.5,1.3-0.7,1.9h6.2v1.3h-5.2      v2.1h4.9v1.3h-4.9v2.3h4.9v1.3h-4.9v3.2H132v-10.2h-0.1c-0.6,1.3-1.3,2.4-1.9,3.3l-1.1-1.2C130,132.1,131,130.2,131.6,128.2z"/>
				<path class="st1" d="M145.1,128.4h1.5v4.4h5.9v1.3h-5.9v6.1h6.7v1.4h-13.5v-1.4h5.3V128.4z"/>
				<path class="st1" d="M157.6,128.3l1.3,0.2c-0.2,0.8-0.4,1.5-0.7,2.2h2.2v3.1c0.4-0.7,0.8-1.5,1-2.2c0.3-0.8,0.5-2,0.7-3.4      l1.5,0.2c-0.1,0.8-0.3,1.5-0.4,2.1h4.6c0,5.3-0.1,8.4-0.2,9.4c-0.1,0.8-0.4,1.2-0.8,1.5c-0.4,0.3-1.2,0.5-2.3,0.5      c-0.3,0-0.7,0-1.1-0.1l-0.2-1.5c0.4,0.1,0.9,0.1,1.3,0.1c0.9,0,1.5-0.3,1.6-1c0.2-0.8,0.3-3.3,0.3-7.6h-3.6      c0,0.1-0.1,0.2-0.1,0.2c-0.3,1.1-0.9,2.2-1.7,3.4l-0.7-0.9v6.1H159v-0.7h-2.7v1.1H155v-10.7h1.9      C157.2,129.9,157.5,129.1,157.6,128.3z M156.3,134.8h2.7v-2.9h-2.7V134.8z M156.3,139h2.7v-3h-2.7V139z M163.3,133.9      c0.8,1.4,1.5,2.6,2,3.6l-1.4,0.9c-0.4-1.1-1-2.3-1.8-3.8L163.3,133.9z"/>
				<path class="st1" d="M169.4,129.2h5v1.4h-1.9v3h1.6v1.4h-1.6v3.3c0.7-0.2,1.3-0.5,1.9-0.7v1.5c-1.4,0.7-3,1.3-4.9,1.8l-0.4-1.5      c0.7-0.2,1.4-0.4,2-0.6V135h-1.6v-1.4h1.6v-3h-1.8L169.4,129.2L169.4,129.2z M174.7,128.8h7.6v7.3h-3.2v1.5h3.2v1.2h-3.2v1.7      h3.9v1.2h-9.5v-1.2h4.2v-1.7h-2.9v-1.2h2.9V136h-3V128.8z M176.1,131.8h1.7V130h-1.7V131.8z M177.8,134.9V133h-1.7v1.9H177.8z       M179.2,130v1.8h1.8V130H179.2z M181,134.9V133h-1.8v1.9H181z"/>
				<path class="st1" d="M184.1,130h2.6v-1.7h1.3v1.7h2.1v1.2H188v0.3c0.8,0.5,1.6,1.2,2.3,1.9l-0.7,1.2c-0.6-0.6-1.2-1.2-1.6-1.6      v3.7h-1.3V133c0,0.1-0.1,0.2-0.1,0.2c-0.6,1-1.3,1.9-2.1,2.7l-0.5-1.5c1.1-1,2-2.1,2.7-3.3h-2.6L184.1,130L184.1,130z       M185.8,137.3l1.1,0.5c-0.5,1.4-1.1,2.6-1.7,3.6l-1.2-0.8C184.6,139.7,185.2,138.6,185.8,137.3z M187.8,137.3h1.3v2.9      c0,0.3,0.2,0.4,0.5,0.4h3c0.3,0,0.5-0.1,0.6-0.2c0.2-0.1,0.3-0.8,0.3-1.8l1.3,0.4c-0.1,1.4-0.3,2.2-0.6,2.4      c-0.2,0.3-0.7,0.4-1.4,0.4h-3.7c-0.4,0-0.7-0.1-1-0.3s-0.4-0.5-0.4-0.9L187.8,137.3L187.8,137.3z M190.7,136.3      c0.9,0.8,1.6,1.5,2.1,2l-1.2,0.8c-0.5-0.7-1.1-1.4-1.9-2.3L190.7,136.3z M190.5,128.8h6.5v7.4h-6.5V128.8z M191.9,130.9h3.8V130      h-3.8V130.9z M191.9,132.9h3.8V132h-3.8V132.9z M195.7,135v-1h-3.8v1H195.7z M195.9,136.9c0.8,1.2,1.5,2.3,1.9,3.2l-1.3,0.9      c-0.4-1-1-2.1-1.7-3.4L195.9,136.9z"/>
				<path class="st1" d="M202.7,128.4l0.5,1.3c-0.5,0.3-1.4,0.5-2.5,0.8v1.1h2.2v1.2h-2.2v1.8h2v1.2h-2v1.7h2.7v-4h1.3v4h1.3v-4.6      h-2.6v-4.6h1.3v1h2.7v1.2h-2.7v1.3h2.7v5.8h2.9V136h-2.2v-1.2h2.2V133H208v-1.2h2.3v-1.5H208v-1.2h3.6l-0.1,8.6h0.7v1.3h-13.5      v-1.3h0.9l-0.2-8.1C200.5,129.3,201.6,128.9,202.7,128.4z M203.3,139l1,0.9c-1.2,0.8-2.7,1.5-4.5,2.1l-1-1.2      C200.5,140.3,202,139.7,203.3,139z M207.9,139c1.6,0.5,3.1,1.1,4.5,1.8l-0.9,1.3c-1.4-0.9-2.8-1.5-4.3-2L207.9,139z"/>
				<path class="st1" d="M226.9,130.3v1.3h-4.2c0.1,2.1,0.4,3.8,0.8,5.1c0.7-1,1.3-2.4,1.9-4l1.3,0.5c-0.8,2.2-1.7,3.9-2.5,5      c0.7,1.3,1.1,2,1.4,2c0.2,0,0.4-0.7,0.6-2.1l1.2,0.8c-0.3,1.4-0.7,2.3-0.9,2.6c-0.2,0.2-0.4,0.4-0.6,0.4c-0.6,0-1.3-0.4-1.9-1.1      c-0.3-0.4-0.6-0.8-0.9-1.3c-0.9,0.9-2.1,1.7-3.6,2.3l-0.8-1.3c1.6-0.7,2.8-1.5,3.8-2.5c-0.2-0.5-0.4-1-0.5-1.6      c-0.3-1.3-0.5-2.9-0.6-4.8h-5v1.8h4.1c0,2.7-0.2,4.4-0.4,5.1c-0.2,0.8-0.7,1.3-1.5,1.3h-2l-0.2-1.4c1,0.1,1.8,0.1,2.3,0.1      c0.1,0,0.2-0.2,0.3-0.7s0.1-1.5,0.1-3.1h-2.7c0,1.1-0.1,2.2-0.3,3.3c-0.3,1.4-0.7,2.7-1.3,4.1l-1.2-1c0.6-1.1,1-2.3,1.2-3.4      c0.2-1.2,0.2-2.4,0.2-3.4v-4h6.4c0-0.7,0-1.4,0-2.1h1.4c0,0.7,0,1.4,0,2.1h2.1c-0.4-0.4-0.9-0.8-1.5-1.2l0.9-0.9      c0.7,0.4,1.3,0.9,1.8,1.3l-0.8,0.8L226.9,130.3L226.9,130.3z"/>
				<path class="st1" d="M229.6,136.4l1.3,0.3c-0.3,1.3-0.7,2.6-1.2,3.7l-1.3-0.5C228.8,139,229.2,137.8,229.6,136.4z M232.2,128.4      c0.2,0.4,0.5,0.9,0.7,1.4h2.6v1.2h-7v-1.2h2.9c-0.2-0.4-0.4-0.8-0.7-1.2L232.2,128.4z M229.1,131.9h5.8v4h-2.1v4.5      c0,0.5-0.1,0.9-0.4,1.1c-0.2,0.2-0.6,0.3-1.2,0.3h-0.9l-0.3-1.4c0.3,0.1,0.6,0.1,0.8,0.1c0.4,0,0.6-0.1,0.6-0.4v-4.3H229      L229.1,131.9L229.1,131.9z M233.5,134.7v-1.6h-3.1v1.6H233.5z M234.5,136.5c0.3,0.9,0.6,1.8,0.7,2.5l-1.3,0.5      c-0.1-0.9-0.3-1.8-0.5-2.7L234.5,136.5z M235.2,131.6h1.8v-3.4h1.3v3.4h3.6v1.3h-3.6c-0.1,1.7-0.3,3.1-0.6,4.3      c-0.4,1.6-1.3,3.1-2.5,4.8l-1.1-1c1.1-1.3,1.9-2.7,2.4-4.1c0.3-0.9,0.5-2.3,0.6-3.9h-1.8L235.2,131.6L235.2,131.6z M238.4,134.5      h1.3v5.6c0,0.2,0.1,0.4,0.4,0.4c0.4,0,0.6-0.2,0.6-0.5v-2.3l1.2,0.5c0,1.7-0.1,2.7-0.4,3.1c-0.2,0.3-0.7,0.5-1.4,0.5      c-0.6,0-1-0.1-1.3-0.4c-0.3-0.2-0.4-0.5-0.4-1L238.4,134.5L238.4,134.5z M240.2,128.8c0.7,0.7,1.2,1.2,1.6,1.7l-1.2,0.8      c-0.4-0.6-0.9-1.2-1.5-1.9L240.2,128.8z"/>
				<path class="st1" d="M256.4,129.7v1.2H253c0.1,0.7,0.1,1.3,0.3,1.8c0.1,0.4,0.2,0.8,0.4,1.1c0.5-0.7,0.9-1.5,1.4-2.4l1.1,0.6      c-0.7,1.3-1.3,2.4-1.9,3.1c0.1,0.1,0.1,0.2,0.2,0.3c0.3,0.4,0.6,0.6,0.8,0.6c0.1,0,0.2-0.7,0.4-2l1.2,1c-0.3,1.2-0.6,2-0.8,2.2      c-0.2,0.3-0.4,0.4-0.7,0.4c-0.5,0-1-0.3-1.5-0.8c-0.2-0.2-0.4-0.4-0.5-0.7c-0.5,0.6-1.2,1.1-1.8,1.7l-0.6-1h-4.6v-3.4h4.7v3      c0.6-0.4,1.1-0.9,1.6-1.5c-0.2-0.4-0.4-0.9-0.6-1.5c-0.2-0.7-0.4-1.6-0.5-2.7h-6.2v1.3c0,0.9-0.1,1.8-0.3,2.8s-0.5,2-1,3l-1.2-1      c0.4-0.8,0.7-1.5,0.9-2.4c0.1-0.8,0.2-1.6,0.2-2.3v-2.5h7.5c0-0.5,0-0.9,0-1.5h1.4c0,0.5,0,1,0,1.5h1.9c-0.2-0.3-0.5-0.6-0.8-1      l1-0.6c0.5,0.4,0.8,0.8,1.1,1.1l-0.7,0.5L256.4,129.7L256.4,129.7z M245,137.7l1.1,0.5c-0.4,1.3-1,2.4-1.6,3.3l-1.2-0.8      C243.9,139.8,244.5,138.8,245,137.7z M246.3,131.6h4.9v1.1h-4.9V131.6z M246.9,137.7h1.3v2.4c0,0.3,0.2,0.4,0.5,0.4h3.3      c0.1,0,0.3-0.1,0.3-0.2c0.1-0.1,0.1-0.6,0.1-1.6l1.3,0.4c-0.1,1.2-0.3,2-0.5,2.2s-0.5,0.3-1.1,0.3h-4c-0.4,0-0.7-0.1-1-0.3      s-0.4-0.5-0.4-0.9v-2.7H246.9z M249.8,135.8v-1.2h-2.2v1.2H249.8z M250.1,137.3c0.6,0.7,1.1,1.3,1.5,1.8l-1.2,0.8      c-0.3-0.6-0.7-1.3-1.3-2L250.1,137.3z M254.5,137.7c1,1,1.8,1.9,2.4,2.6l-1.2,0.8c-0.5-0.8-1.2-1.7-2.1-2.8L254.5,137.7z"/>
				<path class="st1" d="M266.9,135.2c0,0.6-0.2,1-0.6,1.4s-0.9,0.6-1.5,0.6s-1.1-0.2-1.5-0.6c-0.4-0.4-0.6-0.9-0.6-1.4      s0.2-1,0.6-1.4s0.9-0.6,1.5-0.6s1.1,0.2,1.5,0.6C266.7,134.1,266.9,134.6,266.9,135.2z M265.8,135.2c0-0.3-0.1-0.5-0.3-0.7      c-0.2-0.2-0.4-0.3-0.7-0.3s-0.5,0.1-0.7,0.3s-0.3,0.4-0.3,0.7s0.1,0.5,0.3,0.7c0.2,0.2,0.4,0.3,0.7,0.3s0.5-0.1,0.7-0.3      C265.7,135.7,265.8,135.4,265.8,135.2z"/>
			</g>
		</g>
	</g>
</g>
</svg>