<?xml version="1.0" encoding="UTF-8"?>
<!-- Generator: Adobe Illustrator 21.0.2, SVG Export Plug-In . SVG Version: 6.00 Build 0)  -->
<svg version="1.1" id="圖層_1" xmlns="http://www.w3.org/2000/svg" xmlns:xlink="http://www.w3.org/1999/xlink" x="0px" y="0px" width="140.4px" height="15.6px" viewBox="0 0 140.4 15.6" style="enable-background:new 0 0 140.4 15.6;" xml:space="preserve">
<style type="text/css">
	.st0{fill:#FFFFFF;}
</style>
<g>
	<g>
		<path class="st0" d="M40,2.7l0.8,1.5c-1.7,0.1-3.6,0.2-5.6,0.2v0.4H42v1.5h-6.8v0.3h5.6v5h-5.6v0.3h5.9v1.5h-5.9v0.3H42v1.6h-15    v-1.6h6.4v-0.3h-5.6v-1.5h5.6v-0.3h-5.3v-5h5.3V6.2H27V4.7h6.4V4.4c-1.6,0-3.4,0.1-5.2,0.1L27.7,3C31.8,3,35.9,2.9,40,2.7z     M27.1,0.7h3.6V0.1h1.8v0.6h3.7V0.1h1.8v0.6h3.7v1.6h-3.7v0.3h-1.8V2.3h-3.7v0.5h-1.8V2.3h-3.6V0.7z M29.9,8.4h3.4V8h-3.4V8.4z     M29.9,10.1h3.4V9.7h-3.4V10.1z M35.2,8v0.4h3.7V8H35.2z M35.2,9.7v0.4h3.7V9.7H35.2z"/>
		<path class="st0" d="M44.8,0.7h6.3V0H53v0.7h6.7v1.7H53v0.5h5.7v3.6H53v0.5h5.8v2.2H60v1.7h-1.1v2.6H57V13h-4    c0,0.9-0.1,1.5-0.4,1.8c-0.3,0.4-0.9,0.6-1.7,0.6c-0.9,0-1.7-0.1-2.4-0.2l-0.3-1.9c0.9,0.2,1.7,0.2,2.5,0.2c0.2,0,0.3-0.1,0.4-0.2    c0-0.1,0.1-0.2,0.1-0.4h-5.8v-1.7h5.8v-0.5h-6.5V9.1h6.5V8.6h-5.8V6.9h5.8V6.4h-5.6V2.9h5.6V2.3h-6.3V0.7z M47.4,4.9h3.7V4.4h-3.7    V4.9z M53,4.4v0.5h3.9V4.4H53z M53,8.6v0.5h4V8.6H53z M53,10.8v0.5h4v-0.5H53z"/>
		<path class="st0" d="M76,0.3v1.8h-9.4v0.7h9v1.7h-9v0.7h9v1.7h-9v0.7h11.2v1.9h-2.3l1,1.3c-0.8,0.6-1.7,1.1-2.7,1.5    c0.1,0.1,0.2,0.1,0.3,0.1c0.9,0.4,2.1,0.8,3.7,1.2l-1.1,1.9c-1.5-0.4-2.9-1-4.4-1.8c-1.1-0.6-1.9-1.3-2.6-2.2    c-0.5-0.6-1-1.3-1.3-2.1h-1.8v3.3c1.1-0.2,2.1-0.4,3.1-0.6l0.3,1.7c-2,0.6-4.1,1.1-6.5,1.5l-0.7-1.9c0.6-0.1,1.2-0.2,1.8-0.3V9.6    h-2V7.7h2V0.3H76z M71.9,11.2c1-0.4,2-0.9,3-1.6h-4.4c0.3,0.6,0.7,1,1.2,1.4C71.7,11,71.8,11.1,71.9,11.2z"/>
		<path class="st0" d="M82.6,3.4h4.6c0-0.2,0.1-0.4,0.1-0.7H89c0,0.2,0,0.5,0,0.7h4.4V5H90c0.5,0.3,1,0.5,1.7,0.6    c0.8,0.2,1.5,0.2,2.2,0.3l-0.8,1.5h2.5v1.7h-2.2V13c0,1-0.2,1.6-0.5,1.9c-0.4,0.4-1,0.5-1.9,0.5c-0.6,0-1.1-0.1-1.7-0.2l-0.2-1.5    h-5.4v0.8H82V9.6h7.6v3.7c0.5,0.1,1,0.2,1.5,0.2c0.3,0,0.4-0.3,0.4-0.9V9.1H80.4V7.5h2.4l-0.8-1.3c1.7-0.3,3-0.6,3.9-1    C85.9,5.1,86,5,86.1,5h-3.5V3.4z M86.9,0.1H89v0.8h6.5v3.2h-1.9V2.5H82.4v1.5h-1.9V0.9h6.3V0.1z M83.8,12.2h4v-0.9h-4V12.2z     M84.1,7.5h7.8c-0.3-0.1-0.6-0.2-1-0.2c-0.8-0.2-1.4-0.5-1.9-0.9c-0.3-0.2-0.6-0.4-0.8-0.7c-0.2,0.3-0.5,0.5-0.8,0.6    C86.5,6.7,85.5,7.1,84.1,7.5z"/>
		<path class="st0" d="M98.2,2.5h6.3v1.9h-6.3V2.5z M104,9.6v5.7h-1.8v-0.7h-1.7v0.7h-1.8V9.6H104z M98.7,7.3h5v1.8h-5V7.3z M98.7,5    h5v1.8h-5V5z M99.1,0.3h4.7v1.9h-4.7V0.3z M100.4,12.9h1.7v-1.5h-1.7V12.9z M104.6,0.4h8.6v1.8h-4.1l-0.3,1.1h3.8l-0.5,3.5h1.3    v1.8h-9.1V6.8h1.8l0.4-1.7h-1.5V3.3h1.8l0.3-1.1h-2.5V0.4z M112.9,9.4v6.1H111v-0.6h-4.2v0.6h-1.9V9.4H112.9z M106.8,13h4.2v-1.8    h-4.2V13z M108.1,6.8h2.2l0.3-1.7h-2.2L108.1,6.8z"/>
	</g>
</g>
</svg>