<?xml version="1.0" encoding="UTF-8"?>
<!-- Generator: Adobe Illustrator 23.0.6, SVG Export Plug-In . SVG Version: 6.00 Build 0)  -->
<svg version="1.1" id="圖層_1" xmlns="http://www.w3.org/2000/svg" xmlns:xlink="http://www.w3.org/1999/xlink" x="0px" y="0px" width="107.7px" height="32.1px" viewBox="0 0 107.7 32.1" style="enable-background:new 0 0 107.7 32.1;" xml:space="preserve">
<style type="text/css">
	.st0{stroke:#000000;stroke-width:0.7285;stroke-miterlimit:10;}
</style>
<g>
	<g>
		<path d="M28.1,25.2l-14.7-20c-0.4-0.6-0.8-1.1-1-1.6h-0.1l0,1.2v20.4h-1.8V0.4H12l14.6,19.8l1.1,1.6h0.1c-0.1-0.8-0.1-1.5-0.1-2.2    V0.4h1.8v24.8H28.1z"/>
		<path d="M35.8,25.2V0.4h11.6V2h-9.9v9.8h9.1v1.6h-9.1v10.1H48v1.6H35.8z"/>
		<path d="M74.4,25.2h-1.5L67.5,6.6C67.2,5.7,67,4.9,67,4.2h-0.1c0,0.5-0.2,1.3-0.5,2.3l-5.8,18.6H59L51.7,0.4h2l5.6,19.8    c0.2,0.9,0.4,1.6,0.5,2.2h0.1c0-0.1,0.1-0.3,0.1-0.5c0-0.2,2.2-7.4,6.6-21.5h1l5.6,19.8c0.3,1,0.4,1.8,0.5,2.2h0.1    c0-0.2,0.1-0.6,0.3-1.2l5.8-20.8h1.9L74.4,25.2z"/>
		<path d="M84.9,22.3c1.8,1.2,3.6,1.7,5.5,1.7c1.9,0,3.4-0.4,4.4-1.2c1-0.8,1.5-2,1.5-3.5c0-0.7-0.1-1.4-0.4-1.9    c-0.3-0.5-0.7-1.1-1.3-1.6c-0.6-0.5-1.8-1.3-3.8-2.5c-1.8-1.1-3-1.9-3.7-2.5c-0.7-0.6-1.2-1.3-1.5-2s-0.5-1.6-0.5-2.5    c0-1.2,0.3-2.3,1-3.2c0.6-1,1.5-1.7,2.7-2.3C89.9,0.3,91.2,0,92.6,0c1.6,0,3,0.3,4.5,0.8v1.9c-1.5-0.7-3-1-4.7-1    c-1.7,0-3,0.4-4,1.2c-1,0.8-1.5,1.9-1.5,3.2c0,0.9,0.1,1.6,0.4,2.1c0.3,0.5,0.7,1.1,1.4,1.6c0.7,0.5,1.8,1.3,3.5,2.3    c1.5,0.9,2.7,1.7,3.5,2.4c0.8,0.7,1.4,1.4,1.8,2.1c0.4,0.7,0.5,1.6,0.5,2.5c0,2-0.7,3.6-2.1,4.7c-1.4,1.2-3.2,1.7-5.6,1.7    c-0.9,0-1.9-0.1-3-0.4c-1.1-0.3-2-0.6-2.5-0.9V22.3z"/>
	</g>
	<line class="st0" x1="0" y1="32.1" x2="107.7" y2="32.1"/>
</g>
</svg>