<?xml version="1.0" encoding="utf-8"?>
<!-- Generator: Adobe Illustrator 21.0.2, SVG Export Plug-In . SVG Version: 6.00 Build 0)  -->
<svg version="1.1" id="圖層_1" xmlns="http://www.w3.org/2000/svg" xmlns:xlink="http://www.w3.org/1999/xlink" x="0px" y="0px"
	 width="449px" height="200px" viewBox="0 0 449 200" style="enable-background:new 0 0 449 200;" xml:space="preserve">
<style type="text/css">
	.st0{opacity:0.5;fill:none;stroke:#FFFFFF;stroke-miterlimit:10;enable-background:new    ;}
	.st1{fill:#FFFFFF;}
</style>
<g>
	<line class="st0" x1="18.4" y1="0" x2="436.6" y2="0"/>
	<line class="st0" x1="18.4" y1="79" x2="436.6" y2="79"/>
	<g>
		
			<image style="overflow:visible;opacity:0.6;enable-background:new    ;" width="448" height="73" xlink:href="A3F50BCAE6733007.png"  transform="matrix(1 0 0 1 1.8938 127.1942)">
		</image>
		<g>
			<g>
				<path class="st1" d="M10,138.2h6.1c0.4-0.8,0.7-1.6,1-2.5l1.9,0.2c-0.3,0.8-0.6,1.6-0.9,2.3H27v1.7h-9.7c-0.4,0.7-0.8,1.4-1.3,2
					c-0.5,0.7-1,1.3-1.6,2v9.2h-1.9v-7.4c-0.4,0.4-0.9,0.7-1.3,1.1l-1.2-1.6c1.8-1.3,3.3-2.8,4.5-4.4c0.2-0.3,0.4-0.6,0.7-0.9H10
					V138.2z M15.7,144.6h4.5v-3.8h1.9v3.8h4.2v1.7h-4.2v4.6h5v1.7H14.9v-1.7h5.3v-4.6h-4.5V144.6z"/>
				<path class="st1" d="M34.5,135.7l1.8,0.4c-0.2,0.4-0.5,0.9-0.7,1.3h8.3v1.4c-1.5,1.7-3,3-4.5,4c1.8,0.8,4.1,1.5,7,2l-1.1,1.6
					c-3.5-0.8-6.1-1.6-7.7-2.6c-1.9,1.1-4.5,2-7.9,2.7l-0.9-1.6c2.9-0.6,5.2-1.3,7.1-2.1c-1-0.7-1.9-1.4-2.6-2.2
					c-0.7,0.8-1.4,1.5-2.1,2.1l-1.3-1.6C31.9,139.4,33.5,137.6,34.5,135.7z M43.6,146.1v7.1h-1.9v-1h-8.1v1h-1.9v-7.1H43.6z
					 M33.5,150.7h8.1v-2.9h-8.1V150.7z M34.3,139.1c0.9,1.1,2,2,3.3,2.7c1.1-0.7,2.3-1.7,3.6-2.8h-6.8
					C34.4,139.1,34.4,139.1,34.3,139.1z"/>
				<path class="st1" d="M55.5,135.8l1.9,0.2c-0.2,0.6-0.4,1.2-0.7,1.7h6.8V153h-1.8v-1H51v1h-1.8v-15.2h5.6
					C55.1,137.1,55.4,136.5,55.5,135.8z M51,141.6h10.7v-2.1H51V141.6z M51,145.8h10.7v-2.5H51V145.8z M51,150.3h10.7v-2.7H51V150.3
					z"/>
				<path class="st1" d="M70.8,135.9l1.7,0.2c-0.2,1-0.5,1.9-0.9,2.8h2.7v4c0.6-0.9,1-1.8,1.3-2.7c0.4-1.1,0.7-2.5,0.9-4.3l1.9,0.3
					c-0.2,1-0.3,1.9-0.5,2.7h5.8c0,6.7-0.1,10.6-0.3,11.9c-0.2,1-0.5,1.6-1,1.9c-0.5,0.4-1.5,0.6-3,0.6c-0.4,0-0.9,0-1.4-0.1
					l-0.3-1.9c0.6,0.1,1.1,0.2,1.7,0.2c1.2,0,1.9-0.4,2-1.2c0.2-1,0.4-4.2,0.4-9.6h-4.5c0,0.1-0.1,0.2-0.1,0.3
					c-0.4,1.4-1.1,2.8-2.1,4.4l-0.9-1.1v7.8h-1.6v-0.9h-3.5v1.4h-1.6v-13.5h2.4C70.3,137.9,70.6,136.9,70.8,135.9z M69.2,144.1h3.5
					v-3.7h-3.5V144.1z M69.2,149.4h3.5v-3.8h-3.5V149.4z M78,143c1.1,1.8,1.9,3.3,2.5,4.5l-1.8,1.2c-0.5-1.4-1.3-3-2.2-4.8L78,143z"
					/>
				<path class="st1" d="M89.1,135.6l1.6,0.3c-0.2,0.4-0.5,0.8-0.7,1.1h12.8v1.5h-2.1v1.7h2.4v1.4h-2.4v1.9h2.4v1.3H86.3v-1.3H89
					v-1.9h-2.7v-1.4H89v-1.7h-0.2c-0.5,0.6-1,1-1.5,1.4l-1.1-1.3C87.4,137.7,88.4,136.7,89.1,135.6z M89.5,145l1.5,0.3
					c-0.2,0.3-0.3,0.5-0.5,0.7h4v1.2c-0.4,1.5-1.2,2.8-2.4,3.9c-1,0.9-2.6,1.6-4.8,2.2l-0.9-1.3c1.6-0.4,2.9-0.9,3.8-1.4
					c-0.7-0.8-1.4-1.4-2.2-1.9c-0.3,0.3-0.6,0.5-0.9,0.7l-1.1-1.3C87.6,147.2,88.7,146.2,89.5,145z M89,147.8
					c0.9,0.6,1.6,1.2,2.4,1.9c0.6-0.6,1.1-1.4,1.4-2.2h-3.5C89.2,147.6,89,147.7,89,147.8z M92.3,140.2v-1.7h-1.8v1.7H92.3z
					 M90.5,143.5h1.8v-1.9h-1.8V143.5z M95.7,140.2v-1.7h-1.9v1.7H95.7z M93.9,143.5h1.9v-1.9h-1.9V143.5z M102.7,146.3v1.6h-2.1
					v1.9h2.4v1.6h-2.4v1.9H99v-1.9h-4.5l0.5-5h4v-1.2h1.6v1.2h2.1V146.3z M99,149.8v-1.9h-2.6l-0.2,1.9H99z M99.2,140.2v-1.7h-1.9
					v1.7H99.2z M97.3,143.5h1.9v-1.9h-1.9V143.5z"/>
				<path class="st1" d="M111,135.7l1.8,0.7c-1.2,2.3-2.5,4.2-3.7,5.7c0.4,0,0.7,0,0.9,0c2.9,0,5.7-0.2,8.5-0.7
					c-0.7-1-1.5-1.9-2.4-2.9l1.4-1.2c1.8,2,3.3,4,4.5,5.9l-1.4,1.4c-0.3-0.5-0.6-1.1-1-1.6c-3.8,0.6-8.4,0.9-13.8,0.9l-0.4-2.1
					c0.7,0.1,1.2,0.1,1.8,0.1C108.5,140.5,109.7,138.4,111,135.7z M120.5,145.2v8.1h-1.9v-1.2h-10v1.1h-1.9v-8L120.5,145.2
					L120.5,145.2z M108.6,150.5h10.1v-3.6h-10.1V150.5z"/>
				<path class="st1" d="M127,135.9l1.6,0.7c-0.4,1.5-0.9,2.8-1.4,3.8v12.9h-1.6v-10c-0.4,0.6-0.9,1.3-1.3,1.9l-0.6-2.1
					c0.7-1,1.3-2,1.8-3.1C126,139.1,126.5,137.7,127,135.9z M128.9,136.3h1.7v4.8h2.4v1.6h-2.4v5.8c0.8-0.3,1.5-0.6,2.2-0.9v1.7
					c-1.4,0.7-2.9,1.3-4.7,1.8l-0.5-1.7c0.4-0.1,0.8-0.2,1.2-0.4v-12.7H128.9z M132.3,136.6h8.9v1.5h-3.5c-0.1,0.5-0.3,1-0.4,1.5h3
					v10.1h-1.5c1,1,1.8,1.9,2.4,2.6l-1.4,1c-0.6-0.9-1.4-1.9-2.4-3.1l0.8-0.5h-2.9l1,0.5c-0.9,1.2-1.9,2.2-3,3.1l-1.4-1
					c1.1-0.7,2.1-1.6,3-2.5h-1.5v-10.1h2.4c0.2-0.5,0.3-1,0.4-1.5h-3.8L132.3,136.6L132.3,136.6z M134.9,142.5h3.8v-1.6h-3.8
					C134.9,140.9,134.9,142.5,134.9,142.5z M134.9,145.4h3.8v-1.6h-3.8C134.9,143.8,134.9,145.4,134.9,145.4z M138.7,148.2v-1.6
					h-3.8v1.6H138.7z"/>
				<path class="st1" d="M145.3,145l1.1,1c-0.7,0.9-1.6,1.7-2.7,2.4l-1-1.4C143.7,146.4,144.5,145.8,145.3,145z M144,136.8h6.6v-0.9
					h1.7v0.9h6.2v2.2h1.7v1.3h-1.7v2.2h-6.2v1h7.9v1.4H143v-1.4h7.6v-1H144v-1.3h6.6v-0.9H143V139h7.6v-0.9H144V136.8z M158.1,147.8
					v3.3h2v1.5H143v-1.5h1.6v-3.3H158.1z M146.3,151.2h2.4v-1.8h-2.4V151.2z M149.7,145.2c0.4,0.5,0.7,1.2,0.9,2.2l-1.9,0.2
					c-0.1-1-0.3-1.7-0.6-2.2L149.7,145.2z M150.3,151.2h2.4v-1.8h-2.4V151.2z M152.3,138.1v0.9h4.5v-0.9H152.3z M152.3,140.3v0.9
					h4.5v-0.9H152.3z M154,145.2c0.3,0.7,0.6,1.4,0.9,2.2l-1.8,0.1c-0.2-0.9-0.4-1.6-0.6-2.2L154,145.2z M154.2,151.2h2.3v-1.8h-2.3
					V151.2z M157.6,145c1.1,0.7,1.9,1.5,2.7,2.2l-1.3,1.3c-0.6-0.7-1.5-1.5-2.6-2.4L157.6,145z"/>
				<path class="st1" d="M168.5,137.5h-3.6V136h6.7c1.2,2,3.8,3.8,7.8,5.6l-1.2,1.7c-0.6-0.2-1.1-0.5-1.6-0.8v1.2h-5.3v2.9h5v1.5h-5
					v3.3h7.3v1.6h-16.4v-1.6h7.2v-3.3h-4.9v-1.5h4.9v-2.9h-5.1v-1.1c-0.5,0.2-1,0.5-1.5,0.7l-1-1.8c2-0.8,3.5-1.5,4.6-2.3
					C167.2,138.8,167.9,138.2,168.5,137.5z M165.2,142.1h10.7c-0.9-0.5-1.6-0.9-2.2-1.4c-1.3-1-2.4-2-3.2-3.2
					c-0.6,0.9-1.2,1.7-1.9,2.2C167.8,140.5,166.7,141.3,165.2,142.1z"/>
				<path class="st1" d="M181.7,139.6h6.6v-3.8h1.9v3.8h7.3c-0.1,6.6-0.4,10.4-0.8,11.5c-0.4,1.1-1.4,1.7-2.9,1.7
					c-1.3,0-2.2,0-2.8-0.1l-0.5-2.1c1.1,0.1,2.2,0.2,3.3,0.2c0.7,0,1.2-0.5,1.4-1.6c0.2-0.7,0.3-3.3,0.4-7.9h-5.4
					c-0.2,2.9-0.9,5.2-1.9,7.1c-1.2,2-3.1,3.6-5.8,4.7l-1-1.7c2.7-1.2,4.5-2.6,5.4-4.4c0.8-1.5,1.3-3.4,1.4-5.7h-6.5L181.7,139.6
					L181.7,139.6z"/>
				<path class="st1" d="M209.7,144.7c0,0.7-0.2,1.3-0.5,1.8c-0.3,0.4-0.8,0.8-1.5,1.2l-0.6-0.9c0.9-0.4,1.4-1,1.6-1.7h-1.2v-2.3
					h2.3v1.9H209.7z"/>
				<path class="st1" d="M218.9,144.2h17.3v1.7h-7.4v1.8h6.5v1.6h-6.5v1.9c0.9,0.1,2,0.1,3.3,0.1c1.8,0,3.2,0,4.4-0.1l-0.5,1.9
					c-5.8,0-9.3-0.2-10.4-0.6c-1.1-0.4-2.1-1.1-2.9-2.3c-0.5,1-1.4,2.1-2.6,3.3l-1.3-1.6c1-0.9,1.8-1.7,2.3-2.5s0.9-1.8,1.2-3.1
					l1.9,0.3c-0.2,0.8-0.5,1.5-0.7,2.1c0.8,1.1,1.7,1.8,2.8,2.2c0.2,0.1,0.5,0.1,0.7,0.2v-5h-8.1V144.2z M220.8,136.2h13.6v6.9
					h-13.6V136.2z M222.7,139h9.9v-1.2h-9.9V139z M232.5,141.6v-1.2h-9.9v1.2H232.5z"/>
				<path class="st1" d="M252.2,140.8v10.5h2.8v1.6h-16.9v-1.6h2.7v-10.5H252.2z M247,135.8c0.2,0.5,0.5,1,0.7,1.6h7v4.3h-1.8V139
					h-12.7v2.7h-1.8v-4.3h7.3c-0.2-0.5-0.5-0.9-0.7-1.3L247,135.8z M242.6,144.3h7.9v-1.9h-7.9V144.3z M242.6,147.7h7.9v-1.8h-7.9
					V147.7z M242.6,151.2h7.9v-1.9h-7.9V151.2z"/>
				<path class="st1" d="M261.7,135.9l1.3,1.1c-1.3,1.6-2.9,3.1-4.8,4.4l-1.2-1.6C258.7,138.8,260.3,137.4,261.7,135.9z
					 M261.5,140.5l1.6,0.7c-0.6,1.3-1.2,2.3-1.9,3.2v8.7h-1.8v-6.7c-0.6,0.6-1.2,1.1-1.8,1.7L257,146c0.9-0.8,1.8-1.5,2.4-2.3
					C260.1,142.9,260.8,141.8,261.5,140.5z M262.6,144h11.2v1.4h-2v1.1h2.4v1.5h-2.4v3.3c0,0.6-0.2,1.1-0.5,1.4
					c-0.3,0.3-0.8,0.4-1.5,0.4h-2.2l-0.4-1.8c0.9,0.1,1.6,0.1,2.2,0.1c0.4,0,0.7-0.2,0.7-0.5v-3h-8v-1.5h8v-1.1h-7.5L262.6,144
					L262.6,144z M263.4,136.6h10v6.4h-10V136.6z M265.6,148.5c0.6,0.7,1.1,1.4,1.6,2.2l-1.6,0.7c-0.5-0.9-1-1.7-1.6-2.4L265.6,148.5
					z M265.1,139.1h6.5v-1.2h-6.5V139.1z M271.6,141.6v-1.2h-6.5v1.2H271.6z"/>
				<path class="st1" d="M284.2,135.9l0.6,1.7c-0.9,0.3-2,0.6-3.1,0.8v2.5h3.4v1.7h-3.4v0.2c1.2,1.2,2.4,2.5,3.7,3.9l-1,1.6
					c-1-1.5-1.9-2.7-2.6-3.5v8.4h-1.7V145c-0.4,0.8-0.7,1.5-1,2c-0.6,1.1-1.4,2.1-2.3,3.1l-1-1.7c0.9-0.8,1.7-1.8,2.4-3
					c0.5-0.8,0.9-1.7,1.3-2.8H276V141h3.9v-2.2c-1,0.2-2.1,0.3-3.3,0.4l-0.4-1.7C279.3,137.2,281.9,136.7,284.2,135.9z M286.2,137.3
					h1.8v12.1h-1.8V137.3z M290.5,135.9h1.9v15.2c0,0.7-0.2,1.2-0.5,1.5s-0.8,0.5-1.6,0.5h-3l-0.4-1.9c1.2,0.1,2.1,0.1,2.9,0.1
					c0.5,0,0.7-0.1,0.7-0.4V135.9z"/>
				<path class="st1" d="M298.8,135.9c0.3,0.8,0.6,1.8,0.9,2.8h2.7v1.6c-0.8,1.5-1.5,2.7-2.2,3.6c1.1,0.7,2.2,1.6,3.1,2.5l-1.1,1.6
					c-0.8-0.9-1.6-1.7-2.4-2.3v7.5H298v-6.9c-0.8,0.7-1.6,1.5-2.6,2.3l-0.6-2c1.3-1,2.3-1.8,3-2.6c0.8-0.7,1.6-1.9,2.5-3.6h-5.5
					v-1.7h3.1c-0.3-0.9-0.6-1.8-0.9-2.6L298.8,135.9z M302.7,140.4h3.5V136h1.9v4.4h3.8v1.8h-3.8v8.7h4.1v1.8h-10.7v-1.8h4.7v-8.7
					h-3.5V140.4z"/>
				<path class="st1" d="M319.6,150.2l1.1,1.3c-2,0.8-4.1,1.4-6.1,1.8l-0.8-1.7C316,151.2,317.9,150.8,319.6,150.2z M315.4,141.4
					h14.3v8.6h-14.3V141.4z M315.9,136.5h13.4v4.1h-13.4V136.5z M317.2,143.9H328v-1.1h-10.8V143.9z M317.2,146.3H328v-1.2h-10.8
					V146.3z M328,148.7v-1.1h-10.8v1.1H328z M327.6,139.1v-1.2h-9.8v1.2H327.6z M325.1,150.3c2.3,0.4,4.4,0.9,6.2,1.4l-1,1.6
					c-2-0.7-4-1.2-6.1-1.6L325.1,150.3z"/>
				<path class="st1" d="M336.8,135.9l1.7,0.2c-0.2,1-0.5,1.9-0.9,2.8h2.7v4c0.6-0.9,1-1.8,1.3-2.7c0.4-1.1,0.7-2.5,0.9-4.3l1.9,0.3
					c-0.2,1-0.3,1.9-0.5,2.7h5.8c0,6.7-0.1,10.6-0.3,11.9c-0.2,1-0.5,1.6-1,1.9c-0.5,0.4-1.5,0.6-3,0.6c-0.4,0-0.9,0-1.4-0.1
					l-0.3-1.9c0.6,0.1,1.1,0.2,1.7,0.2c1.2,0,1.9-0.4,2-1.2c0.2-1,0.4-4.2,0.4-9.6h-4.5c0,0.1-0.1,0.2-0.1,0.3
					c-0.4,1.4-1.1,2.8-2.1,4.4l-0.9-1.1v7.8h-1.6v-0.9h-3.5v1.4h-1.6v-13.5h2.4C336.3,137.9,336.6,136.9,336.8,135.9z M335.2,144.1
					h3.5v-3.7h-3.5V144.1z M335.2,149.4h3.5v-3.8h-3.5V149.4z M344,143c1.1,1.8,1.9,3.3,2.5,4.5l-1.8,1.2c-0.5-1.4-1.3-3-2.2-4.8
					L344,143z"/>
				<path class="st1" d="M353.7,140.6l1.7,0.2c-0.3,3.1-0.9,5.6-1.8,7.7l-1.9-0.6C352.7,145.6,353.4,143.2,353.7,140.6z
					 M356.7,139.9h1.9v7.3c0.6-0.5,1.2-1.1,1.7-1.6c1.7-1.9,3.3-4.7,4.7-8.4l1.6,0.6c-1.7,4.1-3.3,7.1-5.1,9c-0.8,1-1.8,1.9-3,2.7
					v1.1c0,0.4,0.2,0.6,0.7,0.6h3.8c0.3,0,0.4-0.1,0.6-0.4c0.1-0.2,0.2-1.4,0.3-3.4l1.8,0.5c-0.1,2.4-0.4,3.8-0.7,4.3
					c-0.3,0.4-0.8,0.7-1.6,0.7h-4.7c-0.6,0-1-0.2-1.3-0.5s-0.5-0.8-0.5-1.3v-0.3c-1.2,0.7-2.4,1.4-3.9,2l-1-1.7
					c1.8-0.8,3.5-1.6,4.9-2.5v-8.7H356.7z M359,135.9c1.4,1.2,2.6,2.5,3.6,3.7l-1.4,1.4c-0.8-1.2-2-2.5-3.5-3.9L359,135.9z
					 M366.9,141.9c0.9,2.4,1.7,4.9,2.4,7.6l-1.7,0.7c-0.7-2.9-1.5-5.5-2.4-7.8L366.9,141.9z"/>
				<path class="st1" d="M374.4,135.9l1.5,0.7c-0.5,1.5-0.9,2.9-1.5,3.9v12.6h-1.7v-9.8c-0.4,0.6-0.9,1.3-1.4,1.9l-0.6-2.1
					c0.7-1,1.4-2,1.9-3.1C373.3,139.1,373.9,137.7,374.4,135.9z M376.1,137.4h2.4v-1.6h1.6v1.6h3.1v-1.6h1.6v1.6h2.9v1.5h-2.9v1.7
					h3.3v1.6H378v0.9c0,2.1-0.1,3.9-0.4,5.3c-0.3,1.4-0.8,2.8-1.5,4.2l-1.4-1.2c0.6-1.1,1-2.3,1.3-3.6c0.2-1,0.4-2.6,0.4-4.7v-0.9
					h-1.2v-1.6h3.4v-1.7h-2.4L376.1,137.4L376.1,137.4z M387.3,143.1v8.5c0,0.6-0.2,1-0.5,1.3c-0.2,0.3-0.6,0.4-1.1,0.4h-1.2
					l-0.4-1.6l0.9,0.1c0.4,0,0.5-0.2,0.5-0.7v-1h-2v3h-1.6v-3h-2v3h-1.6v-10H387.3z M383.3,140.6v-1.7h-3.1v1.7H383.3z M380.1,146h2
					v-1.4h-2V146z M380.1,148.8h2v-1.5h-2V148.8z M383.7,144.6v1.4h2v-1.4H383.7z M383.7,147.3v1.5h2v-1.5H383.7z"/>
				<path class="st1" d="M392.8,135.7l1.5,0.7c-0.3,1.2-0.6,2.2-1,3.1v13.7h-1.6v-10.5c-0.4,0.7-0.9,1.5-1.4,2.2l-0.6-2
					c0.6-1,1.2-2,1.7-3.1C391.9,138.9,392.3,137.5,392.8,135.7z M394.2,138.6h1.6v11.7h-1.6V138.6z M396.4,145.7h4.6V144h1.7v1.6
					h4.3v1.6h-2.6c0.3,0.6,0.7,1.2,1.1,1.8c0.5,0.7,1.2,1.4,2,2.1l-1,1.3c-1-0.9-1.7-1.9-2.3-2.8c-0.4-0.7-0.8-1.5-1.2-2.4h-0.3v6
					H401v-6h-0.1c-0.3,0.8-0.6,1.5-1,2c-0.6,1.1-1.6,2.2-3,3.3l-0.8-1.4c1-0.8,1.8-1.5,2.3-2.3c0.4-0.5,0.7-1,1-1.7h-3V145.7z
					 M398.9,135.4l1.4,0.8c-0.1,0.4-0.3,0.7-0.4,1.1h6.9v1.4h-1.5c-0.6,1.3-1.3,2.3-2.1,3c1.1,0.4,2.5,0.8,4.1,1.2l-0.6,1.7
					c-2.3-0.7-3.9-1.3-4.9-1.8c-1.2,0.8-2.8,1.3-4.8,1.8l-0.7-1.6c1.7-0.3,3-0.7,4.1-1.2c-0.7-0.6-1.3-1.3-1.8-2.1
					c-0.4,0.6-0.9,1.2-1.4,1.7l-0.9-1.5c0.5-0.5,1.1-1.1,1.6-2C398.2,137.4,398.5,136.5,398.9,135.4z M399.5,138.7
					c0.5,1,1.2,1.8,2.2,2.3c0.7-0.6,1.3-1.4,1.7-2.3H399.5z"/>
				<path class="st1" d="M412.7,135.8l1.6,0.7c-0.5,1.5-1,2.8-1.5,3.8v12.8h-1.7v-10c-0.5,0.8-1.1,1.5-1.7,2.2l-0.6-2.1
					c0.8-1,1.5-2.1,2.1-3.2C411.5,139.1,412.1,137.7,412.7,135.8z M416.8,136l1.6,0.6c-0.4,1.2-0.7,2.2-1,3h2.4V136h1.8v3.6h4.1v1.7
					h-4.1v4.3h4.6v1.7h-4.6v5.8h-1.8v-5.8h-6v-1.7h6v-4.3h-3.2c-0.4,0.6-0.9,1.3-1.5,2.1l-1.4-1.2c0.8-0.9,1.5-1.9,2-2.8
					C416,138.4,416.4,137.3,416.8,136z"/>
				<path class="st1" d="M439.2,144.6c0,0.7-0.3,1.3-0.8,1.8s-1.1,0.7-1.9,0.7c-0.7,0-1.3-0.2-1.9-0.7c-0.5-0.5-0.8-1.1-0.8-1.8
					s0.3-1.3,0.8-1.8s1.1-0.7,1.9-0.7c0.7,0,1.3,0.2,1.9,0.7C438.9,143.3,439.2,143.9,439.2,144.6z M437.9,144.6
					c0-0.3-0.1-0.6-0.4-0.9c-0.2-0.3-0.6-0.4-0.9-0.4c-0.4,0-0.7,0.1-0.9,0.4c-0.3,0.2-0.4,0.5-0.4,0.9c0,0.3,0.1,0.6,0.4,0.9
					c0.2,0.3,0.5,0.4,0.9,0.4s0.7-0.1,0.9-0.4C437.7,145.2,437.9,144.9,437.9,144.6z"/>
				<path class="st1" d="M95.4,176.4h4.8v1.2c-0.6,1-1.3,2.1-2.3,3.3h2.3v1.1c-0.3,1.3-0.6,2.3-0.9,3c0.7,0.8,1.3,1.3,1.7,1.6
					c0.4,0.2,1,0.4,1.8,0.5c0.9,0.1,2.7,0.2,5.5,0.3c2,0,3.5-0.1,4.5-0.2l-0.2,1.8c-5.2,0-8.5-0.1-9.6-0.2c-1-0.1-1.9-0.4-2.5-0.7
					c-0.6-0.2-1.2-0.8-1.9-1.6c-0.5,0.9-1.2,1.8-2.1,2.8l-1.2-1.4c1-1,1.7-1.9,2.1-2.6c0.3-0.5,0.7-1.4,1.2-2.8H96V181
					c0.8-0.8,1.5-1.8,2.4-3.1h-2.9v-1.5H95.4z M97.7,171.9c0.8,0.9,1.5,1.7,2.1,2.6l-1.3,1.3c-0.5-0.9-1.2-1.8-2-2.8L97.7,171.9z
					 M105.4,171.7l1.8,0.2c-0.1,0.6-0.4,1.1-0.6,1.6h4.8v5.2h-8.2v1.5h8.8v5.5h-10.5v-12.2h3.3C105,172.9,105.2,172.3,105.4,171.7z
					 M103.2,177h6.5v-1.9h-6.5V177z M103.2,184h7.1v-2.2h-7.1V184z"/>
				<path class="st1" d="M114.5,175.1h7.7V172h1.9v3.1h7.4v1.7h-7.4v10.3c0,0.7-0.2,1.2-0.5,1.5s-0.9,0.5-1.7,0.5h-2.3l-0.4-1.9
					c0.9,0.1,1.6,0.2,2.2,0.2c0.5,0,0.8-0.1,0.8-0.4v-10h-7.7V175.1z M120.4,182l1.1,1.3c-1.5,1.5-3.4,2.9-5.7,4.2l-1.3-1.5
					C116.8,184.8,118.7,183.5,120.4,182z M116.9,177.2c1.4,1,2.7,2,3.7,3l-1.4,1.3c-0.8-1-2-2-3.5-3.1L116.9,177.2z M126.5,182.1
					c2,1.4,3.7,2.8,5.1,4.2l-1.4,1.4c-1.2-1.4-2.8-2.8-5-4.4L126.5,182.1z M129.2,177.3l1.2,1.1c-0.9,1.1-2.1,2-3.5,2.9l-1.2-1.6
					C127,179.1,128.2,178.3,129.2,177.3z M127.3,172c0.9,0.6,1.7,1.1,2.4,1.7l-1.2,1.3c-0.5-0.6-1.3-1.2-2.3-1.9L127.3,172z"/>
				<path class="st1" d="M133.5,174.2h6.1c0.4-0.8,0.7-1.6,1-2.5l1.9,0.2c-0.3,0.8-0.6,1.6-0.9,2.3h8.9v1.7h-9.8
					c-0.4,0.7-0.8,1.4-1.3,2c-0.5,0.7-1,1.3-1.6,2v9.2H136v-7.4c-0.4,0.4-0.9,0.7-1.3,1.1l-1.2-1.5c1.8-1.3,3.3-2.8,4.5-4.4
					c0.2-0.3,0.4-0.6,0.7-0.9h-5.2V174.2z M139.2,180.6h4.5v-3.8h1.9v3.8h4.2v1.7h-4.2v4.6h5v1.7h-12.2v-1.7h5.3v-4.6h-4.5V180.6z"
					/>
				<path class="st1" d="M153.2,173.4h15.6v1.8H162v11.2h7.6v1.8h-17.1v-1.8h7.5v-11.2h-6.8V173.4z"/>
				<path class="st1" d="M175.3,171.7l1.6,0.7c-0.5,1.5-1,2.8-1.6,3.9v12.8h-1.7v-10c-0.5,0.7-1.1,1.5-1.7,2.2l-0.6-2.1
					c0.8-1,1.5-2.1,2.2-3.2C174.1,175,174.7,173.6,175.3,171.7z M179.8,171.7l1.8,0.4c-0.3,0.9-0.6,1.6-0.9,2.4h7.8v1.7H182v2.6h6.2
					v1.7H182v2.9h6.2v1.7H182v4h-1.8v-12.9H180c-0.8,1.7-1.6,3.1-2.5,4.2l-1.4-1.6C177.8,176.7,179,174.3,179.8,171.7z"/>
				<path class="st1" d="M197.2,172h1.9v5.6h7.5v1.7h-7.5v7.7h8.5v1.8h-17.1V187h6.7L197.2,172L197.2,172z"/>
				<path class="st1" d="M213.3,171.9l1.7,0.2c-0.2,1-0.5,1.9-0.9,2.8h2.7v4c0.6-0.9,1-1.8,1.3-2.7c0.4-1.1,0.7-2.5,0.9-4.3l1.9,0.3
					c-0.2,1-0.3,1.9-0.5,2.7h5.8c0,6.7-0.1,10.6-0.3,11.9c-0.2,1-0.5,1.6-1,1.9c-0.5,0.4-1.5,0.6-3,0.6c-0.4,0-0.9,0-1.4-0.1
					l-0.3-1.9c0.6,0.1,1.1,0.2,1.7,0.2c1.2,0,1.9-0.4,2-1.2c0.2-1,0.4-4.2,0.4-9.6h-4.5c0,0.1-0.1,0.2-0.1,0.3
					c-0.4,1.4-1.1,2.8-2.1,4.4l-0.9-1.1v7.8h-1.6v-0.9h-3.5v1.4H210v-13.5h2.4C212.8,173.9,213.1,172.9,213.3,171.9z M211.7,180.1
					h3.5v-3.7h-3.5V180.1z M211.7,185.4h3.5v-3.8h-3.5V185.4z M220.5,179c1.1,1.8,1.9,3.3,2.5,4.5l-1.8,1.2c-0.5-1.4-1.3-3-2.2-4.8
					L220.5,179z"/>
				<path class="st1" d="M228.5,173h6.4v1.7h-2.4v3.8h2v1.7h-2v4.2c0.8-0.3,1.6-0.6,2.4-0.9v1.9c-1.8,0.8-3.8,1.6-6.2,2.3l-0.5-1.9
					c0.9-0.2,1.8-0.5,2.6-0.8v-4.8h-2.1v-1.7h2.1v-3.8h-2.2V173H228.5z M235.3,172.5h9.6v9.2h-4v1.9h4.1v1.6h-4.1v2.1h4.9v1.6h-12
					v-1.6h5.3v-2.1h-3.7v-1.6h3.7v-1.9h-3.9L235.3,172.5L235.3,172.5z M237,176.3h2.2V174H237V176.3z M239.1,180.2v-2.5H237v2.5
					H239.1z M240.9,174v2.3h2.3V174H240.9z M243.2,180.2v-2.5h-2.3v2.5H243.2z"/>
				<path class="st1" d="M247.4,174h3.3v-2.1h1.7v2.1h2.7v1.5h-2.7v0.4c1,0.7,2,1.5,3,2.4l-0.9,1.5c-0.8-0.8-1.5-1.5-2-2v4.7h-1.7
					V178c0,0.1-0.1,0.2-0.1,0.3c-0.7,1.3-1.6,2.5-2.7,3.4l-0.7-1.8c1.4-1.2,2.6-2.6,3.5-4.2h-3.2V174H247.4z M249.5,183.3l1.4,0.7
					c-0.6,1.8-1.3,3.3-2.2,4.6l-1.5-1C248.1,186.3,248.8,184.9,249.5,183.3z M252.1,183.3h1.7v3.7c0,0.4,0.2,0.5,0.7,0.5h3.8
					c0.3,0,0.6-0.1,0.8-0.3s0.3-1,0.4-2.3l1.6,0.5c-0.2,1.7-0.4,2.8-0.8,3.1c-0.3,0.3-0.9,0.5-1.8,0.5h-4.7c-0.5,0-0.9-0.1-1.2-0.4
					c-0.3-0.3-0.5-0.7-0.5-1.1V183.3z M255.8,182.1c1.1,1,2,1.9,2.7,2.6l-1.5,1c-0.6-0.8-1.4-1.8-2.4-2.9L255.8,182.1z M255.6,172.5
					h8.2v9.4h-8.2V172.5z M257.3,175.1h4.8V174h-4.8V175.1z M257.3,177.7h4.8v-1.2h-4.8V177.7z M262.1,180.4v-1.3h-4.8v1.3H262.1z
					 M262.4,182.7c1.1,1.5,1.9,2.9,2.4,4l-1.6,1.1c-0.5-1.2-1.2-2.7-2.2-4.3L262.4,182.7z"/>
				<path class="st1" d="M271.3,171.9l0.7,1.7c-0.7,0.3-1.7,0.7-3.2,1.1v1.4h2.8v1.6h-2.8v2.2h2.6v1.5h-2.5l0.1,2.1h3.5v-5.1h1.7
					v5.1h1.6v-5.9h-3.3v-5.8h1.6v1.3h3.4v1.5h-3.4v1.6h3.4v7.4h3.7v-2h-2.8V180h2.8v-2.2h-2.9v-1.6h2.9v-1.9h-2.9v-1.6h4.6
					l-0.2,10.9h0.9v1.7h-17.5v-1.7h1.2l-0.2-10.2C268.5,173.1,269.9,172.7,271.3,171.9z M272,185.4l1.3,1.1c-1.5,1-3.4,1.9-5.7,2.7
					l-1.2-1.6C268.5,187.1,270.3,186.3,272,185.4z M277.9,185.4c2,0.6,3.9,1.4,5.6,2.3l-1.1,1.7c-1.8-1.1-3.6-2-5.5-2.6L277.9,185.4
					z"/>
				<path class="st1" d="M302.2,174.5v1.7h-5.3c0.2,2.7,0.5,4.9,1.1,6.4c0.9-1.3,1.7-3,2.4-5.1l1.6,0.7c-1.1,2.8-2.1,4.9-3.2,6.3
					c0.8,1.7,1.4,2.5,1.8,2.5c0.2,0,0.5-0.9,0.7-2.7l1.5,1c-0.4,1.8-0.8,2.9-1.2,3.3c-0.2,0.3-0.5,0.5-0.8,0.5
					c-0.8,0-1.6-0.5-2.4-1.4c-0.4-0.5-0.8-1-1.1-1.7c-1.2,1.1-2.7,2.1-4.5,3l-1-1.6c2-0.9,3.6-1.9,4.8-3.1c-0.2-0.6-0.5-1.3-0.7-2
					c-0.4-1.6-0.6-3.7-0.8-6.1h-6.3v2.3h5.2c0,3.4-0.2,5.6-0.5,6.5c-0.3,1.1-0.9,1.6-1.9,1.6h-2.5l-0.3-1.8c1.3,0.1,2.2,0.2,2.9,0.2
					c0.2,0,0.3-0.3,0.4-0.8c0.1-0.7,0.1-2,0.1-3.9h-3.5c0,1.3-0.1,2.7-0.4,4.2c-0.3,1.7-0.9,3.5-1.7,5.2l-1.6-1.3
					c0.7-1.4,1.2-2.9,1.5-4.4c0.2-1.6,0.3-3,0.3-4.3v-5.1h8.1c0-0.8,0-1.7,0-2.7h1.8c0,0.9,0,1.8,0.1,2.7h2.7
					c-0.5-0.5-1.1-1-1.9-1.6l1.2-1.1c0.9,0.6,1.6,1.1,2.2,1.7l-1,1L302.2,174.5L302.2,174.5z"/>
				<path class="st1" d="M305.9,182.1l1.6,0.4c-0.4,1.7-0.9,3.3-1.5,4.7l-1.6-0.6C304.9,185.4,305.4,183.9,305.9,182.1z
					 M309.2,171.9c0.3,0.5,0.6,1.1,0.8,1.8h3.3v1.6h-8.8v-1.6h3.7c-0.3-0.5-0.5-1.1-0.9-1.6L309.2,171.9z M305.2,176.5h7.3v5H310
					v5.7c0,0.7-0.1,1.1-0.4,1.4c-0.3,0.3-0.8,0.4-1.5,0.4H307l-0.4-1.8c0.4,0.1,0.7,0.2,1,0.2c0.5,0,0.7-0.2,0.7-0.5v-5.4h-3v-5
					H305.2z M310.9,180v-2H307v2.1h3.9V180z M312.2,182.3c0.4,1.2,0.7,2.2,0.9,3.2l-1.6,0.6c-0.2-1.2-0.4-2.3-0.7-3.4L312.2,182.3z
					 M313.1,176.1h2.3v-4.3h1.7v4.3h4.5v1.7H317c-0.1,2.1-0.4,4-0.8,5.5c-0.6,2-1.6,4-3.2,6l-1.4-1.3c1.4-1.6,2.4-3.4,3-5.3
					c0.4-1.2,0.7-2.9,0.7-5H313L313.1,176.1L313.1,176.1z M317.1,179.7h1.7v7.1c0,0.3,0.2,0.5,0.5,0.5c0.5,0,0.7-0.2,0.7-0.6v-2.9
					l1.6,0.7c0,2.1-0.2,3.4-0.6,3.9c-0.3,0.4-0.9,0.6-1.7,0.6c-0.8,0-1.3-0.1-1.7-0.4c-0.4-0.3-0.5-0.7-0.5-1.3V179.7z M319.3,172.6
					c0.9,0.8,1.6,1.5,2.1,2.2l-1.5,1c-0.5-0.7-1.1-1.5-1.9-2.4L319.3,172.6z"/>
				<path class="st1" d="M340.1,173.6v1.6h-4.3c0.1,0.9,0.2,1.7,0.3,2.3c0.1,0.5,0.3,1,0.4,1.4c0.6-0.9,1.2-1.9,1.8-3.1l1.4,0.8
					c-0.8,1.7-1.6,3-2.4,4c0.1,0.1,0.2,0.2,0.2,0.4c0.4,0.5,0.7,0.8,1.1,0.8c0.1,0,0.3-0.8,0.5-2.5l1.6,1.2c-0.4,1.6-0.8,2.5-1,2.8
					s-0.6,0.5-0.9,0.5c-0.7,0-1.3-0.3-1.9-1c-0.2-0.3-0.5-0.6-0.7-0.8c-0.7,0.7-1.5,1.4-2.3,2.1l-0.8-1.2h-5.8v-4.2h6v3.8
					c0.7-0.5,1.4-1.1,2-1.9c-0.3-0.6-0.5-1.2-0.7-1.9c-0.3-0.9-0.5-2-0.6-3.4h-7.8v1.6c0,1.1-0.1,2.3-0.3,3.5
					c-0.3,1.3-0.7,2.5-1.3,3.7l-1.6-1.3c0.6-1,0.9-1.9,1.2-3c0.2-1.1,0.3-2.1,0.3-3v-3.2h9.5c0-0.6-0.1-1.2-0.1-1.8h1.7
					c0,0.7,0,1.3,0,1.8h2.4c-0.3-0.4-0.6-0.8-1-1.2l1.2-0.7c0.6,0.5,1.1,1,1.4,1.4l-0.9,0.6h1.4V173.6z M325.7,183.7l1.4,0.7
					c-0.6,1.6-1.2,3-2,4.1l-1.5-1C324.3,186.5,325,185.2,325.7,183.7z M327.3,176.1h6.2v1.4h-6.2V176.1z M328.1,183.8h1.7v3.1
					c0,0.3,0.2,0.5,0.7,0.5h4.2c0.2,0,0.3-0.1,0.4-0.2c0.1-0.1,0.2-0.8,0.2-2l1.6,0.5c-0.1,1.6-0.3,2.5-0.6,2.8
					c-0.2,0.3-0.7,0.4-1.4,0.4h-5.1c-0.5,0-0.9-0.1-1.2-0.4c-0.3-0.3-0.5-0.7-0.5-1.2L328.1,183.8L328.1,183.8z M331.8,181.4v-1.6
					H329v1.6H331.8z M332.2,183.3c0.8,0.9,1.4,1.6,1.9,2.2l-1.5,1.1c-0.4-0.7-0.9-1.6-1.6-2.5L332.2,183.3z M337.8,183.8
					c1.3,1.3,2.3,2.4,3,3.3l-1.6,1.1c-0.7-1-1.5-2.2-2.7-3.5L337.8,183.8z"/>
				<path class="st1" d="M353.7,180.6c0,0.7-0.3,1.3-0.8,1.8s-1.1,0.7-1.9,0.7c-0.7,0-1.3-0.2-1.9-0.7c-0.5-0.5-0.8-1.1-0.8-1.8
					s0.3-1.3,0.8-1.8s1.1-0.7,1.9-0.7c0.7,0,1.3,0.2,1.9,0.7C353.4,179.3,353.7,179.9,353.7,180.6z M352.4,180.6
					c0-0.3-0.1-0.6-0.4-0.9c-0.2-0.3-0.6-0.4-0.9-0.4c-0.4,0-0.7,0.1-0.9,0.4c-0.3,0.2-0.4,0.5-0.4,0.9c0,0.3,0.1,0.6,0.4,0.9
					c0.2,0.3,0.5,0.4,0.9,0.4s0.7-0.1,0.9-0.4C352.2,181.2,352.4,180.9,352.4,180.6z"/>
			</g>
		</g>
	</g>
	<g>
		<path class="st1" d="M150.7,13.4c0.7,2.1,1.2,4.5,1.6,7.2h4.5v3.7c-0.8,2.4-1.9,4.7-3.5,7.1c3,2.1,5.2,3.9,6.7,5.5l-3.2,4.9
			c-1.3-1.9-2.8-3.8-4.5-5.7v18.5h-5.5v-15c-1.4,1.5-2.9,3-4.6,4.4l-2.9-6.3c5.5-3.7,9.3-7.9,11.2-12.7h-10.1v-4.5h6.1
			c-0.4-2-0.9-4-1.5-6L150.7,13.4z M157.8,25.3h7.7V13.4h6.1v11.9h7.7V31h-7.7v17h9.1v5.4h-24.6V48h9.3V31h-7.7L157.8,25.3
			L157.8,25.3z"/>
		<path class="st1" d="M187.3,26.6h35.3v20.6h-8.7c3.5,0.6,7.5,1.5,11.9,2.6l-2.4,5c-5.6-1.9-10.9-3.4-15.7-4.4l2.5-3.2H199l2.8,3.2
			c-5,2.2-10,3.7-14.9,4.5l-2.6-5.3c4.1-0.4,8.2-1.2,12.4-2.4h-9.4V26.6z M189,14.3h31.8v10.9H189V14.3z M193.5,32.4h23v-1.6h-23
			V32.4z M193.5,37.7h23v-1.8h-23V37.7z M216.4,43v-1.8h-23V43H216.4z M214.7,21v-2.5h-19.5V21H214.7z"/>
		<path class="st1" d="M249.9,13.9h3.2c5.4,6.2,11.4,10.6,17.9,13.4l-3.2,6c-6.2-3.2-12.2-7.8-17.9-13.9
			c-4.8,5.9-10.9,10.5-18.1,13.9l-2.3-6.2c7-2.8,12.7-7.2,17.2-13.2C246.7,13.9,249.9,13.9,249.9,13.9z M245.1,30.4v7
			c0.1,6.5-2.9,12.2-8.9,17.1l-5.3-4.6c2.8-1.7,4.9-3.8,6.4-6.3c1.2-2,1.7-4.7,1.6-8.1v-5.1H245.1z M254.6,30.4h6.4v23.8h-6.4V30.4z
			"/>
		<path class="st1" d="M281.3,13.6l5.6,1.6c-1.8,4.1-3.4,7.3-5,9.5c0,0.1-0.1,0.1-0.1,0.1c1.2-0.1,2.3-0.3,3.4-0.5
			c1.1-1.8,2.2-3.7,3.2-5.6l4.6,2.8c-3,5.2-6.4,9.8-10.2,13.9c1.6-0.2,3.2-0.5,4.8-0.8c-0.3-1.3-0.7-2.4-1-3.4l3.9-1
			c0.9,2.1,1.9,5.1,2.9,9l-4.5,1.5c-0.1-0.7-0.2-1.4-0.4-2.1c-4.4,1-8.7,1.9-13,2.6l-0.9-5.3c0.7,0,1.5,0,2.2,0
			c1.8-2.1,3.4-4.2,5-6.3c-2,0.3-4.1,0.5-6.4,0.7l-0.9-5c0.6,0,1.1-0.1,1.6-0.1C278.4,22.2,280.1,18.3,281.3,13.6z M276.2,42.2
			l4.2,0.2c0,3.7-0.2,7.5-0.7,11.4l-5-0.5C275.6,50,276,46.3,276.2,42.2z M285.7,42.2c0.5,2.8,0.9,6.2,1.3,10.1l-4.8,0.7
			c0-3.2-0.2-6.7-0.5-10.4L285.7,42.2z M290.8,41.2c0.9,2.1,1.8,5.1,2.8,9l-4.5,1.5c-0.6-3.7-1.3-6.9-2.1-9.5L290.8,41.2z
			 M293.3,15.2h21.3V20c0,7.1-0.5,11.2-1.6,12.4s-3.2,1.8-6.3,1.8h-2.8l-1.1-5.6c2.3,0.1,3.6,0.1,3.9,0.1c0.9,0,1.5-0.2,1.9-0.5
			c0.3-0.4,0.5-3,0.6-7.9h-5.5c-0.3,3.1-1,5.7-2.1,7.9c-1.4,2.6-3.7,5.1-6.9,7.3l-3-4.8c2.1-1.2,3.8-2.7,4.9-4.5
			c1-1.6,1.6-3.5,1.8-5.8h-4.9v-5.2H293.3z M314.2,35.6v18.8h-5.5v-2.1h-9.1v2.1h-5.4V35.6H314.2z M299.6,47.7h9.1v-7.6h-9.1V47.7z"
			/>
	</g>
</g>
</svg>
