<?xml version="1.0" encoding="UTF-8"?>
<!-- Generator: Adobe Illustrator 21.0.2, SVG Export Plug-In . SVG Version: 6.00 Build 0)  -->
<svg version="1.1" id="圖層_1" xmlns="http://www.w3.org/2000/svg" xmlns:xlink="http://www.w3.org/1999/xlink" x="0px" y="0px" width="227.6px" height="86.6px" viewBox="0 0 227.6 86.6" style="enable-background:new 0 0 227.6 86.6;" xml:space="preserve">
<style type="text/css">
	.st0{fill:#333333;}
	.st1{fill:#009EA1;}
</style>
<g>
	<path class="st0" d="M28.1,0.2h2.5V20h-2.5v-7.4h-1.2c0,2.1-0.2,3.6-0.6,4.4c-0.4,1.1-1,2-1.8,2.8L22.9,18c0.5-0.6,1-1.3,1.2-2.1   c0.2-0.6,0.3-1.7,0.4-3.3h-1.4v-2.4h5v-2h-4.6V1.1H26v4.7h2.1V0.2z M35,0l2.5,0.8C37.3,1,37.2,1.2,37,1.5h5.6v2.3   c-0.9,1.8-2.1,3.3-3.8,4.4c-1.5,1.1-3.4,2-5.6,2.8h5.4V8.5h2.5v2.4H43v2.4h-1.9v3.3c0,1.3-0.2,2.2-0.6,2.7   c-0.4,0.5-1.2,0.8-2.4,0.8c-0.8,0-1.5-0.1-2.2-0.3l-0.4-2.6c0.7,0.2,1.5,0.3,2.2,0.3c0.3,0,0.5-0.1,0.6-0.3   c0.1-0.3,0.1-0.7,0.1-1.2v-2.7h-7.4v-2.4h0.9L31.2,9c0.9-0.3,1.8-0.6,2.6-0.9c-0.4-0.4-0.8-0.7-1.2-0.9L34,5.6   C34.7,6,35.4,6.5,36,7c0.2-0.1,0.4-0.2,0.6-0.3c-0.5-0.4-1-0.8-1.6-1.2l1.5-1.6c0.7,0.4,1.3,0.9,1.9,1.4c0.5-0.5,1-1,1.3-1.6h-4.4   c-0.1,0.1-0.1,0.1-0.2,0.2c-0.9,1-2,1.9-3.1,2.7l-1.2-2.2C32.8,3,34.1,1.5,35,0z M34.3,13.7c0.7,0.8,1.3,1.7,1.8,2.7l-2.2,1.3   c-0.4-0.9-1-1.7-1.7-2.6L34.3,13.7z"/>
	<path class="st0" d="M54.6,0.2h2.6v5c0,0.2,0,0.5,0,0.7c0.7,2.2,1.5,4.1,2.4,5.7c1.3,2.4,3.5,4.5,6.5,6.3l-2.3,2.1   c-2.3-1.6-4.1-3.3-5.3-5.2c-0.9-1.2-1.6-2.7-2.3-4.4c-0.5,1.3-1.1,2.5-1.9,3.6c-1.8,2.4-4,4.4-6.6,6l-1.5-2.3   c2.9-1.8,5.1-3.7,6.5-5.9c1.3-2.1,1.9-4.3,1.9-6.6V0.2z"/>
	<path class="st0" d="M71.2,15.5l2.2,1.1c-0.6,1.5-1.3,2.7-2.1,3.5l-2.1-1.8C70,17.5,70.7,16.5,71.2,15.5z M69.8,0.9h8.4v14.2h-8.4   V0.9z M72.1,4.8h3.6V3.2h-3.6V4.8z M72.1,8.9h3.6V7h-3.6V8.9z M72.1,12.8h3.6v-1.7h-3.6V12.8z M76.5,15.3c0.6,1,1.4,1.8,2.3,2.6   L77,20.1c-1-1-1.9-2.2-2.5-3.5L76.5,15.3z M78.7,4.4h5.9v-4H87v4h2.3v2.3H87v10.1c0,1.2-0.2,2-0.6,2.4C86,19.8,85.2,20,84.1,20   c-0.8,0-1.6-0.2-2.4-0.5l-0.5-2.5c0.8,0.3,1.7,0.5,2.5,0.5c0.3,0,0.5-0.1,0.6-0.3c0.1-0.2,0.2-0.6,0.2-1.1v-5.7   c-0.2,0.5-0.5,0.9-0.7,1.4c-1.1,2.1-2.4,3.8-3.8,5.2l-1.7-2c1.4-1.4,2.6-3,3.6-4.8c0.7-1.3,1.2-2.5,1.7-3.7h-5V4.4z"/>
	<path class="st0" d="M101,0.2h2.6v1.4h8.4v2.2H109c0.8,0.8,1.6,1.7,2.4,2.7l-2.1,1.7c-0.3-0.4-0.6-0.8-0.9-1.2   c-4.1,0.5-8.9,0.8-14.2,1l-0.5-2.4c0.9,0,1.9,0,2.8,0c0.4-0.6,0.8-1.2,1.2-1.8h-5V1.6h8.4V0.2z M109.9,8.4v8.9   c0,1.9-1.1,2.8-3.3,2.8c-0.8,0-1.7-0.1-2.8-0.3l-0.5-2.5c1.2,0.3,2.3,0.4,3.3,0.4c0.5,0,0.8-0.3,0.9-0.9H97.2v3.3h-2.5V8.4H109.9z    M97.2,11.6h10.2v-0.9H97.2V11.6z M97.2,14.7h10.2v-0.9H97.2V14.7z M106.7,5.2c-0.3-0.3-0.5-0.6-0.8-0.8l0.7-0.5h-6.1   c-0.4,0.6-0.7,1.2-1.1,1.7C101.9,5.5,104.3,5.4,106.7,5.2z"/>
	<path class="st0" d="M132.1,6.8l2.3,1.2c-1.1,2.9-2.3,5.2-3.6,7c0.1,0.2,0.2,0.5,0.3,0.7c0.5,0.9,0.8,1.4,1,1.4   c0.2,0,0.4-0.1,0.5-0.2c0.2-0.4,0.2-1.4,0.2-3l2.7,0.8c-0.3,2.7-0.8,4.3-1.5,4.9c-0.4,0.4-1.1,0.6-1.9,0.6c-0.8,0-1.6-0.5-2.3-1.5   c-0.3-0.4-0.6-0.9-0.8-1.4c-1.2,1.2-2.6,2.1-4,3l-1.1-2.1c1.7-1.1,3.1-2.2,4.2-3.5c-0.2-0.6-0.3-1.2-0.5-1.8   c-0.4-1.9-0.7-4.4-1-7.4h-6.8v2.5h5.7c-0.1,5.1-0.4,8.2-1.1,9.1c-0.5,0.6-1.1,0.9-2,0.9c-0.6,0-1.2-0.1-1.8-0.4l-0.5-2.5   c0.6,0.3,1.3,0.5,1.9,0.5c0.3,0,0.5-0.1,0.5-0.4c0.2-0.7,0.3-2.2,0.4-4.7h-3.1v1.1c0,1.7-0.2,3.3-0.6,4.9c-0.3,1.3-0.8,2.6-1.5,3.9   l-2.3-1.3c0.7-1.6,1.2-3.1,1.5-4.3c0.3-1.5,0.4-3,0.4-4.4V2.9h9c-0.1-0.9-0.1-1.7-0.2-2.7h2.7c0,0.9,0.1,1.8,0.1,2.7h2.3   c-0.5-0.5-1-0.9-1.5-1.2l1.6-1.7c0.9,0.5,1.7,1,2.4,1.6l-1,1.3h2.2v2.4h-5.8c0.2,2.4,0.4,4.3,0.7,5.7c0,0.2,0.1,0.4,0.1,0.6   C130.7,10.2,131.5,8.6,132.1,6.8z"/>
	<path class="st0" d="M146.6,0.4v5.5h0.8v3.3h-1v8c0,1.8-0.8,2.8-2.5,2.8c-0.3,0-0.7,0-1-0.1l-0.5-2.4c0.6,0.2,1.1,0.2,1.6,0.2   c0.2,0,0.2-0.4,0.2-1.1v-0.2h-2.5V20h-2.2V9.2h-1V5.9h0.7V0.4H146.6z M140.6,8.9h4.6V8.1h-4.6V8.9z M141.3,5.9h0.6V3.1h2.5V2.6   h-3.1V5.9z M141.6,11.8h2.5V11h-2.5V11.8z M141.6,14.4h2.5v-0.8h-2.5V14.4z M143.7,5.9h0.7V5h-0.7V5.9z M148.1,11.9h9.6v4.6h-2.4   l1,0.3c-0.1,0.3-0.1,0.6-0.2,0.9h2.5v2.2h-11.3v-2.2h2.2c-0.1-0.3-0.2-0.6-0.3-0.9l1.4-0.4h-2.4V11.9z M147.5,9.3h10.7v2.1h-10.7   V9.3z M147.7,1.4h2.9V0.2h1.9v1.1h0.7V0.2h1.9v1.1h2.9v7.5h-10.3V1.4z M149.9,4.2h0.8V3.4h-0.8V4.2z M149.9,6.9h0.8V6h-0.8V6.9z    M150.4,14.5h5v-0.7h-5V14.5z M151.9,17.8h1.6c0-0.1,0.1-0.2,0.1-0.3c0.1-0.4,0.2-0.7,0.3-1h-2.4C151.7,16.9,151.8,17.4,151.9,17.8   z M152.5,3.4v0.9h0.7V3.4H152.5z M152.5,6v0.9h0.7V6H152.5z M155.1,3.4v0.9h0.8V3.4H155.1z M155.1,6v0.9h0.8V6H155.1z"/>
	<path class="st0" d="M163.9,0.3l2.3,0.7c-0.1,0.5-0.3,1-0.4,1.5h1V0.2h2.4v2.3h4.1v2.4h-4.1v1.6h4.9v2.3h-4.9v1.3h4.6v5.6   c0,1.9-0.9,2.8-2.8,2.8c-0.3,0-0.6-0.1-1-0.2l-0.5-2.5c0.6,0.2,1.1,0.4,1.5,0.4c0.3,0,0.5-0.4,0.5-1.1v-2.8h-2.3v7.8h-2.4v-7.8   h-2.1v6h-2.4v-8.3h4.5V8.9H162V6.5h1.5l-1.8-1.4c0.5-0.7,0.9-1.5,1.3-2.3C163.4,1.9,163.7,1.1,163.9,0.3z M166.8,6.5V4.9h-1.9   c-0.3,0.6-0.6,1.1-0.8,1.6H166.8z M174.9,2.3h2.4V15h-2.4V2.3z M178.6,0.2h2.4v16.6c0,1.2-0.2,2-0.5,2.4c-0.4,0.5-1.1,0.8-2.1,0.8   c-1,0-1.9-0.1-2.8-0.3l-0.4-2.5c0.9,0.2,1.9,0.3,2.8,0.3c0.2,0,0.4-0.1,0.4-0.3c0.1-0.2,0.1-0.6,0.1-1.1V0.2z"/>
	<path class="st0" d="M189.3,0.2l2.5,0.8c-0.5,1.4-1,2.8-1.7,4.1v15h-2.5V9.4c-0.5,0.7-1,1.3-1.4,1.8l-1.3-2.5   C186.9,6.1,188.4,3.2,189.3,0.2z M193.6,0.2h2.5v7c2.2-1.1,4.2-2.3,6.1-3.8l1.7,2.4c-2.4,1.6-5,2.9-7.8,4.1v6.4   c0,0.5,0.2,0.8,0.7,0.8c0.3,0.1,1,0.1,2.2,0.1c1.3,0,2-0.1,2.2-0.3c0.3-0.2,0.6-0.6,0.7-1.1c0.1-0.4,0.3-1,0.4-1.8l2.4,1.4   c-0.4,2.1-1,3.4-1.7,3.8c-0.2,0.2-0.7,0.4-1.5,0.4c-0.4,0.1-1.2,0.1-2.5,0.1c-1.2,0-2.2-0.1-2.9-0.2c-1.6-0.1-2.4-1-2.4-2.7V0.2z"/>
	<path class="st1" d="M16.5,38.8v11.5h3.4v2.4H0v-2.4h3.4V38.8H16.5z M8.4,33.2h2.8v1.5h8.3v4.6H17v-2.2H2.8v2.3H0.3v-4.7h8.2V33.2z    M5.9,42.8H14v-1.5H5.9V42.8z M5.9,46.6H14v-1.5H5.9V46.6z M5.9,50.4H14v-1.5H5.9V50.4z"/>
	<path class="st1" d="M27.5,38.5l2.1,1.2c-0.4,1-1,2-1.7,3V53h-2.5v-7.5c-0.3,0.3-0.6,0.6-0.9,0.8L23,44.2c0.8-0.7,1.7-1.6,2.6-2.8   C26.4,40.5,27,39.5,27.5,38.5z M27.3,33.1l2.1,1.2c-0.5,0.9-1.1,1.9-1.9,2.9c-1.1,1.2-2,2-2.7,2.5l-1.5-2c0.8-0.6,1.5-1.3,2.3-2.2   C26.3,34.6,26.9,33.9,27.3,33.1z M29.5,42.3h12.9v2.2h-2v0.9h2.4v2.2h-2.4V50c0,1.2-0.2,2-0.6,2.4c-0.4,0.4-1.1,0.7-2.2,0.7   c-0.8,0-1.6-0.1-2.3-0.3L35,50.3c0.9,0.3,1.8,0.4,2.8,0.4c0.2,0,0.3-0.3,0.3-1v-2h-4.6c0.5,0.7,1,1.4,1.4,2.1l-2.5,1.5   c-0.4-1-1-1.9-1.7-2.8l1.4-0.9h-3v-2.2H38v-0.9h-8.4V42.3z M30.2,33.7h11.6v8H30.2V33.7z M32.6,36.6h6.8v-0.7h-6.8V36.6z    M32.6,39.4h6.8v-0.8h-6.8V39.4z"/>
	<path class="st1" d="M56.1,33.2l1.1,2.3c-1.2,0.2-2.5,0.4-3.8,0.6v2.6h3.9v2.4h-3.9v1.1c1.5,1.1,2.8,2.2,3.9,3.2l-1.5,2.2   c-0.8-0.9-1.6-1.7-2.3-2.5v7.8h-2.5v-7.9c-0.2,0.3-0.4,0.7-0.6,0.9c-1,1.4-1.9,2.4-2.9,3.1l-1.2-2.4c1-0.8,2-1.9,2.8-3.1   c0.6-0.8,1.1-1.6,1.5-2.5h-3.9v-2.4h4.3v-2.3c-1,0.1-2,0.2-3.1,0.3L47,34.4C50.3,34.1,53.3,33.7,56.1,33.2z M58.3,35.7h2.5v12.9   h-2.5V35.7z M63.1,33.2h2.5v16.3c0,1.3-0.2,2.1-0.5,2.6c-0.4,0.5-1.1,0.8-2.1,0.8c-0.9,0-1.8-0.1-2.6-0.3L60,50.1   c0.9,0.2,1.8,0.3,2.7,0.3c0.2,0,0.3-0.1,0.3-0.3c0.1-0.3,0.1-0.7,0.1-1.2V33.2z"/>
	<path class="st1" d="M71,33.2c0.7,0.6,1.3,1.3,1.8,2.1c0.4-0.5,0.7-1,0.9-1.5l2.2,1.3c-0.4,0.9-1,1.8-1.7,2.6   c0.1,0.3,0.2,0.5,0.3,0.8c0.3,1,0.6,2,0.8,3c1-0.6,1.9-1.3,2.6-2h-1.7v-6.1h12.3v6.1h-7.9c-0.1,0.3-0.3,0.5-0.5,0.7h8.8   c0,6.4-0.2,10.1-0.6,11.1c-0.3,1.1-1.1,1.7-2.3,1.7c-0.9,0-1.8-0.1-2.6-0.4l-0.4-2c-2.1,0.4-4.2,0.6-6.3,0.7l-0.7-2   c1.3,0,2.6-0.1,4-0.2v-1h-1.4v0.5h-2.1v-5.3h0.2l-1.2-1.2c0.2,1.2,0.3,2.4,0.3,3.7c0,2.7-0.3,4.6-0.9,5.7c-0.5,0.9-1.4,1.4-2.5,1.4   c-0.7,0-1.4-0.2-2.1-0.5L69.8,50c0.9,0.3,1.8,0.5,2.6,0.5c0.3,0,0.5-0.2,0.6-0.6c0.2-0.7,0.3-2,0.3-3.9c0-0.3,0-0.6,0-0.9   c-0.2,0.4-0.4,0.7-0.6,0.9c-0.6,0.9-1.3,1.6-2.1,2.1l-1.2-2.4c0.8-0.6,1.6-1.3,2.3-2.2c0.5-0.6,0.9-1.2,1.4-2   c-0.1-0.6-0.3-1.2-0.4-1.7c-0.7,0.6-1.2,1.1-1.7,1.5l-1.6-2.1c0.7-0.5,1.4-1.2,2.1-2c-0.6-0.9-1.2-1.7-2-2.3L71,33.2z M80,43.4v-1   h-1.7c-0.4,0.4-0.8,0.7-1.2,1H80z M78.5,37.5h1.1v-1.8h-1.1V37.5z M78.6,46.2H80v-0.9h-1.4V46.2z M81.8,35.7v1.8h1v-1.8H81.8z    M85.1,48.2c0.4,0.7,0.8,1.4,1.2,2.1L84.9,51c0.5,0.1,0.9,0.1,1.2,0.1c0.2,0,0.3-0.3,0.3-0.8c0.1-0.9,0.1-3.5,0.1-7.9h-4.3v1h3.5   v4.8H85.1z M82.2,45.4v0.9h1.4v-0.9H82.2z M82.2,48.9c0.3,0,0.6-0.1,0.9-0.1c-0.1-0.1-0.1-0.2-0.2-0.3l0.8-0.3h-1.5V48.9z    M84.1,50.8c0-0.1-0.1-0.2-0.1-0.2c-0.2,0-0.4,0.1-0.6,0.1C83.7,50.7,83.9,50.8,84.1,50.8z M85,35.7v1.8h1.1v-1.8H85z"/>
	<path class="st1" d="M98.1,33.1l2.3,0.7c-0.1,0.1-0.2,0.3-0.3,0.4c1.9,0.7,3.6,1.6,5.2,2.5l-1.5,1.9c-0.6-0.4-1.2-0.8-1.8-1.1v1.1   h-5.2v-0.9c-0.7,0.5-1.4,1-2.3,1.4h9.5v7.2h-8.1c0,0.2,0,0.4,0,0.6h8.4v6.4h-2.2v-0.9h-4.2v0.9h-2.2v-4c0,0.2-0.1,0.3-0.1,0.5   c-0.2,1-0.6,2-1.2,3.1l-2-1.2c0.6-1.3,0.9-2.4,1.1-3.4c0.2-1.2,0.3-2.4,0.3-3.5v-5.7h0.3l-1.5-1.5c1.3-0.7,2.4-1.3,3.3-2   C96.7,34.6,97.5,33.9,98.1,33.1z M101.7,41h-5.8v0.6h5.8V41z M101.7,43.5h-5.8v0.6h5.8V43.5z M97.7,50h4.2v-1.1h-4.2V50z M98,36.5   h2.4c-0.5-0.3-1.1-0.6-1.6-0.8C98.5,36,98.3,36.3,98,36.5z M105.6,35.8h2.4v12.5h-2.4V35.8z M109.4,33.4h2.4v16.4   c0,1.2-0.2,2-0.5,2.4c-0.4,0.5-1.2,0.8-2.3,0.8c-0.8,0-1.5-0.1-2.2-0.3l-0.5-2.5c0.8,0.2,1.6,0.3,2.3,0.3c0.3,0,0.5-0.1,0.6-0.3   c0.1-0.2,0.2-0.6,0.2-1.1V33.4z"/>
	<path class="st1" d="M118.3,50.4v2h-2.5V36.4h2c0.3-1.1,0.5-2.1,0.7-3.2l2.6,0.6c-0.2,0.9-0.4,1.8-0.6,2.6h3.3v3.9   c0.6-0.9,1-1.9,1.5-3.1c0.6-1.4,1.1-2.8,1.4-4.1l2.6,0.8c-0.2,0.8-0.4,1.6-0.7,2.4h6.2c0,8.4-0.3,13.3-0.8,14.7   c-0.4,1.5-1.4,2.2-3,2.2c-0.8,0-1.7-0.1-2.5-0.3l-0.5-2.7c1.2,0.3,2.2,0.4,3,0.4c0.5,0,0.8-0.4,0.9-1.1c0.2-1.2,0.4-4.8,0.4-10.8   h-4.5c-0.6,1.6-1.3,2.9-2,4.1l-1.8-1.4v10.2h-2.5v-1.2H118.3z M118.3,42.4h2.9v-3.7h-2.9V42.4z M121.3,48.1v-3.3h-2.9v3.3H121.3z    M128.8,41.9c0.7,1.5,1.3,3.1,1.7,4.9l-2.7,0.9c-0.3-1.8-0.8-3.5-1.5-5L128.8,41.9z"/>
	<path class="st1" d="M139.5,34.6h2.8v-1.5h2.4v1.5h2.1v1.3c0.4-0.5,0.7-0.9,1-1.4l2.1,1.1c-0.5,0.8-1.1,1.6-1.7,2.3h1.3v1.3   c0.2-0.5,0.5-1,0.6-1.5c0.7-1.6,1.2-3.1,1.5-4.6l2.4,0.7c-0.2,1-0.5,1.9-0.8,2.8h4.9v2.5h-1.1c-0.2,1.8-0.7,3.6-1.3,5.3   c-0.3,0.9-0.6,1.7-1,2.4c1,1.5,2.2,2.7,3.6,3.7l-1.6,2.4c-1.4-1.2-2.6-2.4-3.5-3.7c-0.1,0.1-0.1,0.2-0.2,0.3   c-1.1,1.5-2.3,2.5-3.5,3.2l-1.4-2.2c1.2-0.7,2.2-1.6,3.1-2.9c0.2-0.3,0.4-0.5,0.6-0.8c-0.6-1.1-1.1-2.4-1.5-3.9   c-0.1,0.2-0.2,0.4-0.3,0.5l-1.6-1.2v0.6c-0.9,1.1-2.1,2.1-3.3,3v0.4c1.4-0.2,2.6-0.4,3.7-0.6l0.3,2.3c-1.3,0.3-2.6,0.5-4,0.7v1.6   c0,1.1-0.2,1.7-0.6,2c-0.4,0.4-1.2,0.6-2.2,0.6c-0.6,0-1.1,0-1.5-0.1l-0.5-2.5c0.7,0.2,1.3,0.3,2,0.3c0.1,0,0.2,0,0.3-0.1   c0.1-0.1,0.1-0.4,0.1-0.7v-0.7c-1.2,0.2-2.5,0.3-3.9,0.5l-0.5-2.5c1.5-0.1,3-0.3,4.3-0.4v-2.5l1.1,0.1c0.6-0.3,1.1-0.7,1.6-1.1   h-2.5c-1.1,0.9-2.2,1.7-3.4,2.5l-1.4-2.1c1.6-0.9,3.1-2.1,4.6-3.5h-4.4V38h3.8v-1.1h-2.8V34.6z M145.2,38c0.4-0.4,0.7-0.7,1-1.1   h-1.4V38H145.2z M148.6,41.2c0.2-0.4,0.4-0.7,0.6-1.1h-2.8c-0.3,0.4-0.7,0.7-1,1.1H148.6z M152.1,40.2c0.4,1.5,0.8,2.9,1.4,4.1   c0.1-0.2,0.2-0.5,0.3-0.8c0.4-1.3,0.8-2.7,1-4.2h-2.3C152.3,39.6,152.2,39.9,152.1,40.2z"/>
	<path class="st1" d="M170.3,33.2h2.6v1.4h8.4v2.2h-3.1c0.8,0.8,1.6,1.7,2.4,2.7l-2.1,1.7c-0.3-0.4-0.6-0.8-0.9-1.2   c-4.1,0.5-8.9,0.8-14.2,1l-0.5-2.4c0.9,0,1.9,0,2.8,0c0.4-0.6,0.8-1.2,1.2-1.8h-5v-2.2h8.4V33.2z M179.2,41.4v8.9   c0,1.9-1.1,2.8-3.3,2.8c-0.8,0-1.7-0.1-2.8-0.3l-0.5-2.5c1.2,0.3,2.3,0.4,3.3,0.4c0.5,0,0.8-0.3,0.9-0.9h-10.2v3.3H164V41.4H179.2z    M166.5,44.6h10.2v-0.9h-10.2V44.6z M166.5,47.7h10.2v-0.9h-10.2V47.7z M176,38.2c-0.3-0.3-0.5-0.6-0.8-0.8l0.7-0.5h-6.1   c-0.4,0.6-0.7,1.2-1.1,1.7C171.2,38.5,173.6,38.4,176,38.2z"/>
	<path class="st1" d="M184.8,36.4h7.9v2.5h-7.9V36.4z M192,45.6v4.5c0.8-0.5,1.7-1.3,2.6-2.3c0.6-0.6,1.1-1.2,1.5-1.8h-3.4v-2.2h4.7   v-1.2h-4v-8.9h10.5v8.9h-4v1.2h4.4v2.2h-2.9c0.4,0.6,0.8,1.2,1.2,1.7c0.6,0.8,1.4,1.4,2.3,1.9l-1.3,2.5c-1-0.7-1.8-1.7-2.6-2.8   c-0.4-0.6-0.8-1.2-1.1-1.9v5.6h-2.4v-5.2c-0.4,0.5-0.7,1-1.1,1.5c-1.3,1.3-2.4,2.3-3.3,2.8l-1-1.9v2.1h-4.4v0.7h-2.4v-7.5H192z    M185.4,42.5h6.3v2.4h-6.3V42.5z M185.5,39.5h6.3v2.4h-6.3V39.5z M185.7,33.6h6v2.3h-6V33.6z M187.6,50.1h2v-2.2h-2V50.1z    M195.8,37.1h1.7v-1.3h-1.7V37.1z M195.8,40.5h1.7v-1.3h-1.7V40.5z M199.9,35.8v1.3h1.6v-1.3H199.9z M199.9,39.2v1.3h1.6v-1.3   H199.9z"/>
	<path class="st1" d="M215,33.2l1.4,2c-0.9,0.4-1.8,0.8-2.8,1.1v2.9h2.7v2.4h-2.7v0.2c1.2,1,2.2,2,3,3.1l-1.6,2.1   c-0.5-0.7-1-1.4-1.5-2V53h-2.5v-7.2c-0.6,1.2-1.3,2.3-2.1,3.3l-1.5-1.8c0.7-0.8,1.4-1.8,2.1-3.2c0.5-0.8,0.9-1.6,1.2-2.5h-2.8v-2.4   h3V37c-0.7,0.2-1.3,0.4-2,0.5l-1.2-2.3C210.3,34.9,212.6,34.1,215,33.2z M226.3,41.2l1.1,2.2c-1.3,0.2-2.7,0.4-4.1,0.6v2h3.8v2.3   h-3.8v2.1h4.3v2.3H216v-2.3h4.8v-2.1h-4V46h4v-1.8c-1.2,0.1-2.4,0.2-3.7,0.3l-0.9-2.3C219.9,42,223.2,41.7,226.3,41.2z M216.9,33.6   h10.2v6.9h-10.2V33.6z M219.4,38.2h5.2v-2.3h-5.2V38.2z"/>
	<path class="st1" d="M51.5,68.4h-4.3v7.7h-2.6V65.7h6.9V68.4z"/>
	<path class="st1" d="M74.2,71.8v11.5h3.4v2.4H57.8v-2.4h3.4V71.8H74.2z M66.2,66.2h2.8v1.5h8.3v4.6h-2.5v-2.2H60.5v2.3H58v-4.7h8.2   V66.2z M63.6,75.8h8.1v-1.5h-8.1V75.8z M63.6,79.6h8.1v-1.5h-8.1V79.6z M63.6,83.4h8.1v-1.5h-8.1V83.4z"/>
	<path class="st1" d="M85.3,71.5l2.1,1.2c-0.4,1-1,2-1.7,3V86h-2.5v-7.5c-0.3,0.3-0.6,0.6-0.9,0.8l-1.6-2.1c0.8-0.7,1.7-1.6,2.6-2.8   C84.2,73.5,84.8,72.5,85.3,71.5z M85.1,66.1l2.1,1.2c-0.5,0.9-1.1,1.9-1.9,2.9c-1.1,1.2-2,2-2.7,2.5l-1.5-2   c0.8-0.6,1.5-1.3,2.3-2.2C84.1,67.6,84.7,66.9,85.1,66.1z M87.3,75.3h12.9v2.2h-2v0.9h2.4v2.2h-2.4V83c0,1.2-0.2,2-0.6,2.4   c-0.4,0.4-1.1,0.7-2.2,0.7c-0.8,0-1.6-0.1-2.3-0.3l-0.5-2.5c0.9,0.3,1.8,0.4,2.8,0.4c0.2,0,0.3-0.3,0.3-1v-2h-4.6   c0.5,0.7,1,1.4,1.4,2.1L90,84.3c-0.4-1-1-1.9-1.7-2.8l1.4-0.9h-3v-2.2h9.1v-0.9h-8.4V75.3z M87.9,66.7h11.6v8H87.9V66.7z    M90.3,69.6h6.8v-0.7h-6.8V69.6z M90.3,72.4h6.8v-0.8h-6.8V72.4z"/>
	<path class="st1" d="M113.9,66.2l1.1,2.3c-1.2,0.2-2.5,0.4-3.8,0.6v2.6h3.9v2.4h-3.9v1.1c1.5,1.1,2.8,2.2,3.9,3.2l-1.5,2.2   c-0.8-0.9-1.6-1.7-2.3-2.5v7.8h-2.5v-7.9c-0.2,0.3-0.4,0.7-0.6,0.9c-1,1.4-1.9,2.4-2.9,3.1l-1.2-2.4c1-0.8,2-1.9,2.8-3.1   c0.6-0.8,1.1-1.6,1.5-2.5h-3.9v-2.4h4.3v-2.3c-1,0.1-2,0.2-3.1,0.3l-0.9-2.4C108,67.1,111.1,66.7,113.9,66.2z M116.1,68.7h2.5v12.9   h-2.5V68.7z M120.8,66.2h2.5v16.3c0,1.3-0.2,2.1-0.5,2.6c-0.4,0.5-1.1,0.8-2.1,0.8c-0.9,0-1.8-0.1-2.6-0.3l-0.5-2.6   c0.9,0.2,1.8,0.3,2.7,0.3c0.2,0,0.3-0.1,0.3-0.3c0.1-0.3,0.1-0.7,0.1-1.2V66.2z"/>
	<path class="st1" d="M127.6,71h7.9v-4.7h2.7V71h8v2.5h-7.3c0.6,2.2,1.6,4.1,2.8,5.7c1.3,1.8,3.1,3.3,5.3,4.3l-1.4,2.7   c-2.3-1.1-4.3-2.8-6-5c-0.9-1.2-1.7-2.6-2.4-4.2c-0.5,1.2-1.1,2.3-1.9,3.4c-1.8,2.3-4,4.3-6.7,5.8l-1.5-2.3   c2.9-1.7,5.1-3.6,6.5-5.7c1-1.5,1.6-3,1.8-4.6h-7.8V71z"/>
	<path class="st1" d="M155.8,66.1l1.1,2c-0.9,0.3-1.9,0.5-2.9,0.6l0,0.7h3v1.8h-2.9v0.6h2.9v1.8h-2.9l0,0.7h3.9l-0.8-1.3   c0.5-0.2,0.9-0.4,1.3-0.7c-0.4-0.3-0.8-0.5-1.2-0.7l1-1.2c-0.1,0.1-0.2,0.1-0.3,0.2l-0.9-1.7c0.4-0.1,0.8-0.3,1.2-0.5   c-0.4-0.2-0.8-0.5-1.1-0.6l1.2-1.5c0.6,0.3,1.2,0.7,1.8,1c0.5-0.3,0.9-0.7,1.2-1l1.5,1.2c-0.3,0.3-0.6,0.6-1,0.9   c0.4,0.3,0.7,0.5,1,0.8l-0.9,1.1l0.9,1.1c-0.3,0.3-0.6,0.6-0.9,0.9c0.3,0.2,0.6,0.5,0.9,0.7l-1.2,1.3h4l0-0.7h-2.5v-1.8h2.6l0-0.7   h-2.7v-1.8h2.8l0-0.7h-2.7v-2.1h5l-0.3,7.8h1.7v3.9h-2.3v-1.9h-14.6v1.9h-2.3v-3.9h1.5l-0.3-7.4C153.1,66.7,154.5,66.5,155.8,66.1z    M153.7,77.1h12.8v1.8c-1.2,0.7-2.3,1.3-3.4,1.8h6.6v2h-8.3v0.8c0,1.1-0.2,1.7-0.6,2c-0.4,0.4-1.1,0.6-2.1,0.6   c-0.8,0-1.5-0.1-2.2-0.2l-0.4-2.5c0.9,0.3,1.8,0.4,2.6,0.4c0.1,0,0.2,0,0.2-0.1c0-0.1,0.1-0.4,0.1-0.7v-0.3h-8.4v-2h8.4v-1.2   l2.1,0.2c0.5-0.2,1-0.5,1.5-0.7h-8.9V77.1z M158.8,74.2h2.3c-0.3-0.3-0.6-0.5-0.9-0.8C159.8,73.8,159.4,74,158.8,74.2z M158.9,70.2   c0.5,0.3,1.1,0.6,1.5,0.9c0.3-0.2,0.6-0.5,0.8-0.7c-0.4-0.3-0.7-0.6-1.1-0.9C159.7,69.8,159.2,70,158.9,70.2z"/>
	<path class="st1" d="M183.2,86.6h-6.9v-2.7h4.3v-7.7h2.6V86.6z"/>
</g>
</svg>