<?xml version="1.0" encoding="UTF-8"?>
<!-- Generator: Adobe Illustrator 21.0.2, SVG Export Plug-In . SVG Version: 6.00 Build 0)  -->
<svg version="1.1" id="圖層_1" xmlns="http://www.w3.org/2000/svg" xmlns:xlink="http://www.w3.org/1999/xlink" x="0px" y="0px" width="517.5px" height="79.1px" viewBox="0 0 517.5 79.1" style="enable-background:new 0 0 517.5 79.1;" xml:space="preserve">
<style type="text/css">
	.st0{fill:#333333;}
	.st1{fill:#009EA1;}
</style>
<g>
	<path class="st0" d="M148.6,0.3h3.4v27h-3.4V17.2h-1.7c-0.1,2.9-0.3,4.9-0.8,6c-0.5,1.5-1.3,2.7-2.5,3.8l-2.2-2.5   c0.7-0.8,1.3-1.7,1.7-2.9c0.3-0.8,0.5-2.3,0.5-4.5h-1.9v-3.3h6.8v-2.7h-6.2V1.5h3.4v6.4h2.8V0.3z M157.9,0l3.4,1.1   c-0.2,0.3-0.4,0.6-0.6,0.9h7.6v3.1c-1.2,2.5-2.9,4.4-5.2,5.9c-2.1,1.5-4.6,2.8-7.7,3.8h7.3v-3.3h3.4v3.3h2.6v3.3h-2.6v4.5   c0,1.8-0.3,3-0.8,3.6c-0.6,0.7-1.7,1.1-3.2,1.1c-1.1,0-2-0.1-3-0.4l-0.6-3.6c1,0.3,2,0.5,3,0.5c0.4,0,0.7-0.1,0.9-0.4   c0.1-0.4,0.2-0.9,0.2-1.6v-3.6h-10.1v-3.3h1.2l-1.2-2.6c1.3-0.4,2.5-0.8,3.5-1.3c-0.5-0.5-1.1-0.9-1.6-1.3l2-2.1   c1,0.6,1.8,1.2,2.7,2c0.3-0.2,0.5-0.3,0.8-0.5c-0.7-0.6-1.4-1.1-2.1-1.6l2-2.1c0.9,0.6,1.8,1.2,2.6,1.8c0.7-0.7,1.3-1.4,1.8-2.2   h-5.9c-0.1,0.1-0.2,0.2-0.3,0.3C156.9,6.7,155.5,8,154,9l-1.6-3C154.9,4.1,156.8,2.1,157.9,0z M157,18.6c1,1.1,1.8,2.3,2.5,3.6   l-3,1.7c-0.6-1.2-1.4-2.4-2.4-3.5L157,18.6z"/>
	<path class="st0" d="M184.7,0.3h3.5v6.8c0,0.3,0,0.6,0,0.9c0.9,3,2,5.6,3.3,7.8c1.8,3.2,4.8,6.1,8.9,8.6l-3.1,2.9   c-3.1-2.2-5.5-4.6-7.2-7.1c-1.2-1.7-2.2-3.7-3.1-6c-0.6,1.7-1.5,3.4-2.6,4.9c-2.4,3.3-5.4,6-9.1,8.2l-2-3.2c4-2.4,6.9-5.1,8.8-8.1   c1.8-2.9,2.6-5.9,2.6-9V0.3z"/>
	<path class="st0" d="M207.3,21.1l3,1.5c-0.9,2.1-1.8,3.7-2.8,4.8l-2.8-2.5C205.7,23.8,206.6,22.5,207.3,21.1z M205.4,1.2h11.5v19.4   h-11.5V1.2z M208.6,6.5h4.9V4.3h-4.9V6.5z M208.6,12.1h4.9V9.6h-4.9V12.1z M208.6,17.5h4.9v-2.3h-4.9V17.5z M214.6,20.9   c0.8,1.3,1.8,2.5,3.1,3.5l-2.5,3.1c-1.4-1.4-2.6-2.9-3.4-4.7L214.6,20.9z M217.5,6h8V0.6h3.4V6h3.1v3.1h-3.1v13.8   c0,1.6-0.3,2.8-0.8,3.3c-0.6,0.7-1.7,1-3.3,1c-1.2,0-2.2-0.2-3.3-0.6l-0.6-3.4c1.2,0.4,2.3,0.7,3.4,0.7c0.4,0,0.7-0.1,0.8-0.4   c0.1-0.3,0.2-0.8,0.2-1.5v-7.8c-0.3,0.6-0.6,1.3-0.9,1.8c-1.5,2.8-3.3,5.2-5.2,7.1l-2.3-2.7c1.9-2,3.5-4.1,4.9-6.5   c0.9-1.8,1.7-3.4,2.3-5h-6.8V6z"/>
	<path class="st0" d="M248,0.3h3.6v1.9H263v3h-4.2c1.1,1.1,2.2,2.3,3.3,3.6l-2.9,2.4c-0.4-0.6-0.8-1.1-1.2-1.6   c-5.6,0.7-12.1,1.2-19.4,1.3l-0.7-3.3c1.3,0,2.5,0,3.8,0c0.6-0.8,1.1-1.6,1.6-2.4h-6.8v-3H248V0.3z M260.2,11.5v12.1   c0,2.6-1.5,3.9-4.5,3.9c-1.1,0-2.3-0.1-3.8-0.4l-0.7-3.4c1.6,0.4,3.1,0.6,4.5,0.6c0.7,0,1.1-0.4,1.2-1.3h-14v4.5h-3.4v-16H260.2z    M242.8,15.8h14v-1.2h-14V15.8z M242.8,20h14v-1.3h-14V20z M255.8,7.1c-0.4-0.4-0.7-0.8-1.1-1.1l1-0.7h-8.4c-0.5,0.8-1,1.6-1.5,2.3   C249.2,7.5,252.5,7.4,255.8,7.1z"/>
	<path class="st0" d="M290.4,9.2l3.2,1.7c-1.5,3.9-3.1,7.1-4.9,9.5c0.1,0.3,0.2,0.6,0.4,0.9c0.7,1.2,1.1,1.8,1.4,1.8   c0.3,0,0.5-0.1,0.6-0.3c0.2-0.5,0.3-1.9,0.3-4.1l3.7,1.1c-0.4,3.6-1.1,5.8-2.1,6.6c-0.6,0.6-1.5,0.9-2.5,0.9c-1.1,0-2.1-0.7-3.2-2   c-0.4-0.6-0.8-1.2-1.1-1.9c-1.7,1.6-3.5,2.9-5.5,4l-1.5-2.8c2.3-1.5,4.2-3,5.7-4.7c-0.2-0.8-0.4-1.6-0.6-2.5   c-0.5-2.6-0.9-5.9-1.3-10.1h-9.2v3.4h7.7c-0.1,7-0.6,11.1-1.5,12.4c-0.6,0.8-1.5,1.2-2.7,1.2c-0.8,0-1.6-0.2-2.5-0.6l-0.7-3.4   c0.9,0.4,1.7,0.6,2.6,0.6c0.4,0,0.7-0.2,0.7-0.6c0.2-0.9,0.4-3,0.6-6.4h-4.2v1.5c0,2.3-0.3,4.5-0.8,6.7c-0.4,1.7-1.1,3.5-2,5.3   l-3.1-1.8c1-2.2,1.7-4.2,2.1-5.8c0.4-2,0.5-4.1,0.5-6.1V4h12.3c-0.1-1.2-0.1-2.4-0.2-3.6h3.6c0,1.3,0.1,2.5,0.1,3.6h3.2   c-0.7-0.6-1.4-1.2-2.1-1.6l2.2-2.3c1.2,0.6,2.3,1.4,3.3,2.2L291.2,4h3v3.3h-8c0.2,3.3,0.6,5.9,1,7.8c0.1,0.3,0.1,0.6,0.1,0.8   C288.5,13.9,289.5,11.7,290.4,9.2z"/>
	<path class="st0" d="M310.2,0.6v7.5h1.1v4.5h-1.4v10.9c0,2.5-1.1,3.8-3.4,3.8c-0.4,0-0.9,0-1.4-0.1l-0.7-3.3   c0.8,0.2,1.5,0.3,2.1,0.3c0.2,0,0.3-0.5,0.3-1.5v-0.3h-3.4v5h-3V12.5h-1.4V8.1h0.9V0.6H310.2z M301.9,12.1h6.2V11h-6.2V12.1z    M302.9,8.1h0.8V4.2h3.4V3.5h-4.2V8.1z M303.4,16.1h3.4V15h-3.4V16.1z M303.4,19.7h3.4v-1.1h-3.4V19.7z M306.2,8.1h0.9V6.8h-0.9   V8.1z M312.2,16.2h13.1v6.3H322l1.4,0.4c-0.1,0.4-0.2,0.9-0.3,1.3h3.4v3H311v-3h3c-0.1-0.4-0.2-0.8-0.4-1.2l1.9-0.6h-3.3V16.2z    M311.3,12.7H326v2.8h-14.6V12.7z M311.7,1.8h4V0.3h2.6v1.5h0.9V0.3h2.6v1.5h4v10.2h-14.1V1.8z M314.6,5.7h1.1V4.6h-1.1V5.7z    M314.6,9.3h1.1V8.2h-1.1V9.3z M315.3,19.8h6.8v-1h-6.8V19.8z M317.4,24.2h2.2c0.1-0.1,0.1-0.3,0.1-0.4c0.1-0.5,0.3-0.9,0.4-1.4   h-3.3C317.1,23.1,317.3,23.7,317.4,24.2z M318.2,4.6v1.2h0.9V4.6H318.2z M318.2,8.2v1.2h0.9V8.2H318.2z M321.8,4.6v1.2h1.1V4.6   H321.8z M321.8,8.2v1.2h1.1V8.2H321.8z"/>
	<path class="st0" d="M333.7,0.4l3.1,0.9c-0.2,0.7-0.3,1.4-0.6,2h1.4V0.3h3.3v3.1h5.5v3.3h-5.5v2.2h6.7v3.2h-6.7v1.8h6.3v7.6   c0,2.6-1.3,3.9-3.9,3.9c-0.4,0-0.9-0.1-1.4-0.2l-0.7-3.4c0.8,0.3,1.5,0.5,2.1,0.5c0.4,0,0.6-0.5,0.6-1.6v-3.8h-3.1v10.6h-3.3V16.9   h-2.8v8.2h-3.3V13.8h6.1v-1.8h-6.6V8.9h2.1L330.8,7c0.7-0.9,1.2-2,1.7-3.2C333,2.6,333.4,1.5,333.7,0.4z M337.7,8.9V6.7h-2.6   c-0.4,0.8-0.8,1.6-1.1,2.2H337.7z M348.7,3.1h3.3v17.3h-3.3V3.1z M353.7,0.3h3.3v22.6c0,1.6-0.2,2.8-0.6,3.3c-0.5,0.7-1.5,1-2.9,1   c-1.3,0-2.6-0.1-3.8-0.4l-0.6-3.4c1.3,0.3,2.5,0.4,3.8,0.4c0.3,0,0.5-0.1,0.6-0.4c0.1-0.3,0.2-0.8,0.2-1.5V0.3z"/>
	<path class="st0" d="M368.3,0.3l3.4,1.1c-0.6,1.9-1.4,3.8-2.3,5.7v20.4H366V12.8c-0.6,0.9-1.3,1.8-2,2.5l-1.8-3.4   C365.1,8.3,367.1,4.4,368.3,0.3z M374.2,0.3h3.4v9.5c3-1.5,5.8-3.2,8.3-5.1l2.3,3.3c-3.3,2.1-6.8,4-10.7,5.5v8.7c0,0.7,0.3,1,1,1.1   c0.4,0.1,1.4,0.2,3,0.2c1.7,0,2.7-0.2,3-0.5c0.4-0.3,0.8-0.8,1-1.6c0.2-0.5,0.4-1.3,0.5-2.5l3.3,1.9c-0.6,2.9-1.4,4.6-2.4,5.2   c-0.3,0.3-0.9,0.5-2,0.6c-0.5,0.1-1.6,0.2-3.4,0.2c-1.7,0-3-0.1-4-0.3c-2.2-0.2-3.3-1.4-3.3-3.7V0.3z"/>
	<path class="st1" d="M22.5,58.9v15.7h4.6v3.3H0v-3.3h4.6V58.9H22.5z M11.5,51.3h3.8v2h11.4v6.2h-3.4v-3H3.8v3.2H0.4v-6.4h11.1V51.3   z M8,64.4h11.1v-2.1H8V64.4z M8,69.5h11.1v-2H8V69.5z M8,74.7h11.1v-2H8V74.7z"/>
	<path class="st1" d="M37.5,58.5l2.9,1.6c-0.6,1.3-1.4,2.7-2.3,4v14.2h-3.4V68.1c-0.4,0.4-0.8,0.8-1.2,1l-2.1-2.8   c1.1-1,2.3-2.2,3.5-3.8C36,61.2,36.9,59.8,37.5,58.5z M37.3,51.1l2.9,1.6c-0.6,1.3-1.5,2.6-2.6,4c-1.5,1.6-2.7,2.8-3.7,3.4   l-2.1-2.8c1-0.8,2.1-1.8,3.2-3C35.9,53.2,36.7,52.2,37.3,51.1z M40.3,63.7h17.6v3h-2.7V68h3.3v3h-3.3v3.1c0,1.7-0.3,2.7-0.8,3.2   c-0.6,0.6-1.6,0.9-3,0.9c-1.1,0-2.2-0.1-3.1-0.4l-0.6-3.4c1.3,0.4,2.5,0.6,3.8,0.6c0.2,0,0.4-0.5,0.4-1.4V71h-6.3   c0.7,0.9,1.4,1.9,1.9,2.9l-3.4,2c-0.6-1.3-1.3-2.6-2.3-3.8l1.9-1.2h-4.1v-3h12.4v-1.2H40.3V63.7z M41.1,51.9H57v10.9H41.1V51.9z    M44.4,55.9h9.3V55h-9.3V55.9z M44.4,59.8h9.3v-1.1h-9.3V59.8z"/>
	<path class="st1" d="M76.5,51.3l1.5,3.1c-1.6,0.3-3.4,0.6-5.2,0.8v3.6h5.3v3.3h-5.3v1.6c2.1,1.5,3.8,3,5.3,4.4l-2.1,3   c-1.1-1.2-2.1-2.4-3.2-3.4v10.7h-3.4V67.6c-0.3,0.5-0.6,0.9-0.9,1.3c-1.3,1.9-2.6,3.3-3.9,4.2L63,69.8c1.4-1.1,2.7-2.5,3.8-4.2   c0.8-1.1,1.5-2.2,2.1-3.4h-5.3v-3.3h5.8v-3.1c-1.3,0.2-2.7,0.3-4.2,0.4l-1.2-3.3C68.5,52.5,72.7,52,76.5,51.3z M79.5,54.6h3.4v17.6   h-3.4V54.6z M86,51.3h3.4v22.3c0,1.7-0.2,2.9-0.6,3.5c-0.5,0.7-1.5,1.1-2.9,1.1c-1.2,0-2.4-0.1-3.5-0.4l-0.6-3.5   c1.2,0.3,2.4,0.5,3.6,0.5c0.2,0,0.4-0.1,0.5-0.4c0.1-0.4,0.1-0.9,0.1-1.6V51.3z"/>
	<path class="st1" d="M96.8,51.3c0.9,0.8,1.7,1.8,2.5,2.8c0.5-0.7,0.9-1.3,1.3-2l3,1.7c-0.6,1.2-1.4,2.4-2.3,3.6   c0.2,0.4,0.3,0.7,0.5,1.1c0.5,1.3,0.8,2.7,1.1,4.1c1.4-0.8,2.6-1.7,3.5-2.7h-2.4v-8.3h16.7V60h-10.8c-0.2,0.4-0.4,0.7-0.6,1h12   c0,8.7-0.3,13.8-0.8,15.2c-0.4,1.5-1.4,2.3-3.1,2.3c-1.2,0-2.4-0.2-3.6-0.5l-0.6-2.7c-2.8,0.5-5.7,0.8-8.6,1l-0.9-2.8   c1.8-0.1,3.6-0.2,5.4-0.3v-1.3h-1.9v0.7h-2.9v-7.3h0.3l-1.7-1.7c0.3,1.6,0.4,3.3,0.4,5.1c0,3.7-0.4,6.3-1.3,7.8   c-0.7,1.3-1.9,1.9-3.4,1.9c-0.9,0-1.9-0.2-2.9-0.6l-0.6-3.5c1.2,0.4,2.4,0.6,3.5,0.6c0.4,0,0.6-0.3,0.8-0.9c0.3-1,0.4-2.8,0.4-5.3   c0-0.4,0-0.9,0-1.3c-0.3,0.5-0.6,0.9-0.9,1.3C98,69.8,97,70.7,96,71.5l-1.6-3.3c1.2-0.8,2.2-1.8,3.1-3c0.6-0.8,1.3-1.7,1.8-2.7   c-0.2-0.9-0.3-1.7-0.6-2.4c-0.9,0.9-1.7,1.5-2.3,2l-2.1-2.8c1-0.7,1.9-1.6,2.9-2.7c-0.8-1.2-1.7-2.3-2.8-3.2L96.8,51.3z M109,65.2   v-1.4h-2.3c-0.5,0.5-1.1,1-1.7,1.4H109z M107,57.1h1.4v-2.5H107V57.1z M107.2,69h1.9v-1.2h-1.9V69z M111.5,54.6v2.5h1.4v-2.5H111.5   z M116,71.7c0.6,0.9,1.1,1.9,1.6,2.9l-1.9,0.8c0.6,0.1,1.2,0.1,1.6,0.1c0.2,0,0.4-0.4,0.4-1.1c0.1-1.2,0.2-4.8,0.2-10.8h-5.9v1.4   h4.8v6.6H116z M112.1,67.8V69h1.9v-1.2H112.1z M112.1,72.7c0.4,0,0.9-0.1,1.3-0.1c-0.1-0.2-0.2-0.3-0.2-0.4l1-0.5h-2.1V72.7z    M114.7,75.3c0-0.1-0.1-0.2-0.1-0.3c-0.3,0.1-0.6,0.1-0.8,0.1C114.1,75.2,114.4,75.2,114.7,75.3z M115.9,54.6v2.5h1.6v-2.5H115.9z"/>
	<path class="st1" d="M133.7,51.1l3.2,1c-0.1,0.2-0.3,0.4-0.4,0.5c2.6,1,4.9,2.1,7,3.5l-2.1,2.5c-0.8-0.6-1.6-1.1-2.5-1.6v1.5h-7.1   v-1.3c-0.9,0.7-1.9,1.3-3.1,1.8h12.9v9.8h-11c0,0.3,0,0.6,0,0.8h11.4v8.7h-3v-1.3h-5.7v1.3h-3V73c0,0.2-0.1,0.4-0.2,0.6   c-0.3,1.4-0.8,2.8-1.6,4.2l-2.8-1.6c0.8-1.8,1.3-3.3,1.5-4.6c0.3-1.6,0.5-3.2,0.5-4.8v-7.7h0.4L126,57c1.8-0.9,3.3-1.8,4.5-2.7   C131.8,53.2,132.9,52.2,133.7,51.1z M138.7,61.9h-8v0.8h8V61.9z M138.7,65.3h-8v0.8h8V65.3z M133.3,74.2h5.7v-1.5h-5.7V74.2z    M133.6,55.8h3.3c-0.7-0.4-1.5-0.8-2.2-1.1C134.4,55.1,134,55.4,133.6,55.8z M144,54.8h3.3v17H144V54.8z M149.2,51.6h3.3v22.4   c0,1.6-0.2,2.8-0.7,3.3c-0.6,0.7-1.7,1-3.2,1c-1.1,0-2.1-0.1-3-0.4l-0.6-3.4c1.1,0.3,2.1,0.4,3.2,0.4c0.4,0,0.7-0.1,0.8-0.4   c0.1-0.3,0.2-0.8,0.2-1.5V51.6z"/>
	<path class="st1" d="M161.4,74.8v2.8H158v-22h2.7c0.4-1.4,0.7-2.9,0.9-4.4l3.5,0.8c-0.2,1.2-0.5,2.4-0.8,3.5h4.5v5.4   c0.8-1.3,1.4-2.7,2-4.2c0.8-2,1.5-3.8,1.9-5.6l3.5,1.1c-0.3,1.1-0.6,2.2-0.9,3.3h8.4c0,11.5-0.4,18.1-1.1,20c-0.5,2-1.9,3-4.1,3   c-1.1,0-2.3-0.2-3.4-0.5l-0.7-3.6c1.7,0.4,3.1,0.6,4.1,0.6c0.6,0,1.1-0.5,1.2-1.4c0.3-1.7,0.5-6.6,0.5-14.7H174   c-0.8,2.1-1.7,4-2.8,5.5l-2.5-1.8v13.9h-3.4v-1.6H161.4z M161.4,63.9h4v-5h-4V63.9z M165.4,71.6v-4.5h-4v4.5H165.4z M175.6,63.1   c1,2,1.8,4.2,2.3,6.7l-3.6,1.2c-0.4-2.5-1.1-4.8-2-6.8L175.6,63.1z"/>
	<path class="st1" d="M190.3,53.2h3.9v-2h3.3v2h2.9V55c0.5-0.6,1-1.3,1.4-1.9l2.8,1.5c-0.7,1.1-1.5,2.1-2.3,3.1h1.7v1.8   c0.3-0.7,0.6-1.4,0.8-2.1c0.9-2.2,1.6-4.3,2.1-6.2l3.3,1c-0.3,1.3-0.7,2.6-1.1,3.8h6.7v3.4h-1.5c-0.3,2.4-0.9,4.8-1.7,7.2   c-0.4,1.2-0.9,2.3-1.4,3.3c1.3,2,3,3.7,4.9,5l-2.1,3.3c-2-1.6-3.6-3.2-4.8-5c-0.1,0.1-0.2,0.3-0.3,0.4c-1.5,2-3.1,3.5-4.8,4.4   l-1.8-3c1.6-0.9,3.1-2.2,4.3-3.9c0.3-0.4,0.5-0.7,0.8-1.1c-0.8-1.6-1.5-3.3-2.1-5.3c-0.1,0.3-0.3,0.5-0.4,0.7l-2.1-1.6v0.8   c-1.3,1.5-2.8,2.9-4.5,4v0.6c1.9-0.3,3.5-0.5,5-0.8l0.5,3.1c-1.8,0.4-3.6,0.7-5.5,0.9v2.2c0,1.4-0.3,2.4-0.8,2.8   c-0.6,0.5-1.6,0.8-3,0.8c-0.8,0-1.5,0-2.1-0.1l-0.6-3.4c0.9,0.3,1.8,0.5,2.7,0.5c0.1,0,0.2-0.1,0.4-0.2c0.1-0.2,0.1-0.5,0.1-1v-1   c-1.7,0.2-3.5,0.4-5.3,0.6l-0.6-3.4c2.1-0.2,4.1-0.4,5.9-0.6v-3.4l1.5,0.1c0.8-0.4,1.5-1,2.1-1.5h-3.4c-1.5,1.2-3,2.4-4.6,3.4   l-1.8-2.9c2.2-1.3,4.3-2.8,6.3-4.7h-6v-3h5.2v-1.5h-3.9V53.2z M198,57.8c0.5-0.5,0.9-1,1.3-1.5h-1.9v1.5H198z M202.6,62.2   c0.3-0.5,0.5-1,0.8-1.4h-3.8c-0.4,0.5-0.9,1-1.3,1.4H202.6z M207.4,60.8c0.5,2.1,1.2,3.9,1.9,5.5c0.2-0.3,0.3-0.7,0.4-1   c0.6-1.8,1.1-3.7,1.3-5.7h-3.1C207.7,60,207.5,60.4,207.4,60.8z"/>
	<path class="st1" d="M232.2,51.3h3.6v1.9h11.4v3h-4.2c1.1,1.1,2.2,2.3,3.3,3.6l-2.9,2.4c-0.4-0.6-0.8-1.1-1.2-1.6   c-5.6,0.7-12.1,1.2-19.4,1.3l-0.7-3.3c1.3,0,2.5,0,3.8,0c0.6-0.8,1.1-1.6,1.6-2.4h-6.8v-3h11.5V51.3z M244.4,62.5v12.1   c0,2.6-1.5,3.9-4.5,3.9c-1.1,0-2.3-0.1-3.8-0.4l-0.7-3.4c1.6,0.4,3.1,0.6,4.5,0.6c0.7,0,1.1-0.4,1.2-1.3h-14v4.5h-3.4v-16H244.4z    M227.1,66.8h14v-1.2h-14V66.8z M227.1,71h14v-1.3h-14V71z M240,58.1c-0.4-0.4-0.7-0.8-1.1-1.1l1-0.7h-8.4c-0.5,0.8-1,1.6-1.5,2.3   C233.4,58.5,236.8,58.4,240,58.1z"/>
	<path class="st1" d="M252,55.7h10.8v3.4H252V55.7z M261.8,68.2v6.2c1.1-0.7,2.3-1.7,3.6-3.1c0.8-0.8,1.5-1.7,2-2.5h-4.6v-3h6.4   v-1.7h-5.5V51.9H278v12.2h-5.5v1.7h6.1v3h-3.9c0.5,0.9,1.1,1.7,1.7,2.4c0.9,1.1,1.9,2,3.1,2.7l-1.7,3.4c-1.3-1-2.5-2.3-3.6-3.9   c-0.6-0.8-1.1-1.7-1.6-2.6v7.6h-3.3v-7c-0.5,0.7-1,1.4-1.5,2c-1.8,1.8-3.3,3.1-4.5,3.9l-1.4-2.6v2.8h-6v1h-3.3V68.2H261.8z    M252.8,64h8.6v3.3h-8.6V64z M253,59.9h8.6v3.3H253V59.9z M253.3,51.8h8.1V55h-8.1V51.8z M255.9,74.3h2.7v-3h-2.7V74.3z M267,56.6   h2.3v-1.8H267V56.6z M267,61.2h2.3v-1.7H267V61.2z M272.5,54.8v1.8h2.2v-1.8H272.5z M272.5,59.4v1.7h2.2v-1.7H272.5z"/>
	<path class="st1" d="M293.1,51.2l2,2.7c-1.2,0.6-2.4,1.1-3.8,1.5v4h3.6v3.3h-3.6v0.2c1.6,1.4,3,2.8,4.1,4.2l-2.1,2.9   c-0.7-1-1.3-1.9-2-2.8v11.1H288v-9.9c-0.8,1.6-1.7,3.1-2.8,4.5l-2-2.5c0.9-1,1.9-2.5,2.9-4.4c0.6-1.1,1.2-2.2,1.6-3.4h-3.8v-3.3   h4.1v-2.9c-0.9,0.3-1.8,0.5-2.7,0.7l-1.7-3.1C286.8,53.5,290,52.6,293.1,51.2z M308.6,62.2l1.5,3c-1.8,0.3-3.7,0.5-5.6,0.8v2.8h5.1   V72h-5.1v2.8h5.9v3.1h-15.8v-3.1h6.6V72h-5.5v-3.2h5.5v-2.4c-1.6,0.2-3.3,0.3-5,0.4l-1.2-3.2C299.8,63.3,304.4,62.9,308.6,62.2z    M295.7,51.8h13.9v9.5h-13.9V51.8z M299.1,58.1h7.1V55h-7.1V58.1z"/>
	<path class="st1" d="M337.9,54.3h-5.8v10.5h-3.6V50.6h9.4V54.3z"/>
	<path class="st1" d="M369,58.9v15.7h4.6v3.3h-27.1v-3.3h4.6V58.9H369z M358,51.3h3.8v2h11.4v6.2h-3.4v-3h-19.5v3.2h-3.4v-6.4H358   V51.3z M354.5,64.4h11.1v-2.1h-11.1V64.4z M354.5,69.5h11.1v-2h-11.1V69.5z M354.5,74.7h11.1v-2h-11.1V74.7z"/>
	<path class="st1" d="M384,58.5l2.9,1.6c-0.6,1.3-1.4,2.7-2.3,4v14.2h-3.4V68.1c-0.4,0.4-0.8,0.8-1.2,1l-2.1-2.8   c1.1-1,2.3-2.2,3.5-3.8C382.5,61.2,383.4,59.8,384,58.5z M383.8,51.1l2.9,1.6c-0.6,1.3-1.5,2.6-2.6,4c-1.5,1.6-2.7,2.8-3.7,3.4   l-2.1-2.8c1-0.8,2.1-1.8,3.2-3C382.4,53.2,383.2,52.2,383.8,51.1z M386.8,63.7h17.6v3h-2.7V68h3.3v3h-3.3v3.1   c0,1.7-0.3,2.7-0.8,3.2c-0.6,0.6-1.6,0.9-3,0.9c-1.1,0-2.2-0.1-3.1-0.4l-0.6-3.4c1.3,0.4,2.5,0.6,3.8,0.6c0.2,0,0.4-0.5,0.4-1.4V71   h-6.3c0.7,0.9,1.4,1.9,1.9,2.9l-3.4,2c-0.6-1.3-1.3-2.6-2.3-3.8L390,71h-4.1v-3h12.4v-1.2h-11.5V63.7z M387.6,51.9h15.8v10.9h-15.8   V51.9z M390.9,55.9h9.3V55h-9.3V55.9z M390.9,59.8h9.3v-1.1h-9.3V59.8z"/>
	<path class="st1" d="M423,51.3l1.5,3.1c-1.6,0.3-3.4,0.6-5.2,0.8v3.6h5.3v3.3h-5.3v1.6c2.1,1.5,3.8,3,5.3,4.4l-2.1,3   c-1.1-1.2-2.1-2.4-3.2-3.4v10.7h-3.4V67.6c-0.3,0.5-0.6,0.9-0.9,1.3c-1.3,1.9-2.6,3.3-3.9,4.2l-1.7-3.3c1.4-1.1,2.7-2.5,3.8-4.2   c0.8-1.1,1.5-2.2,2.1-3.4h-5.3v-3.3h5.8v-3.1c-1.3,0.2-2.7,0.3-4.2,0.4l-1.2-3.3C415,52.5,419.2,52,423,51.3z M426,54.6h3.4v17.6   H426V54.6z M432.5,51.3h3.4v22.3c0,1.7-0.2,2.9-0.6,3.5c-0.5,0.7-1.5,1.1-2.9,1.1c-1.2,0-2.4-0.1-3.5-0.4l-0.6-3.5   c1.2,0.3,2.4,0.5,3.6,0.5c0.2,0,0.4-0.1,0.5-0.4c0.1-0.4,0.1-0.9,0.1-1.6V51.3z"/>
	<path class="st1" d="M441.7,57.8h10.8v-6.4h3.6v6.4H467v3.4h-10c0.9,3,2.1,5.6,3.8,7.8c1.8,2.5,4.2,4.5,7.3,5.9l-1.9,3.6   c-3.2-1.5-5.9-3.8-8.2-6.9c-1.2-1.7-2.3-3.6-3.3-5.7c-0.6,1.6-1.5,3.2-2.6,4.7c-2.4,3.2-5.5,5.8-9.1,7.9l-2-3.2   c4-2.3,6.9-4.9,8.8-7.8c1.3-2,2.1-4.1,2.5-6.3h-10.6V57.8z"/>
	<path class="st1" d="M480.2,51.1l1.6,2.7c-1.2,0.4-2.6,0.7-4,0.9l0,0.9h4.1V58h-4v0.8h4v2.5H478l0,1h5.3l-1.1-1.8   c0.6-0.3,1.2-0.6,1.8-0.9c-0.5-0.4-1.1-0.7-1.6-1l1.3-1.6c-0.2,0.1-0.3,0.1-0.5,0.2L482,55c0.5-0.2,1.1-0.4,1.7-0.7   c-0.5-0.3-1-0.6-1.6-0.9l1.6-2c0.8,0.4,1.6,0.9,2.4,1.4c0.6-0.4,1.2-0.9,1.7-1.4l2,1.7c-0.4,0.4-0.9,0.8-1.4,1.3   c0.5,0.4,1,0.7,1.4,1.1l-1.3,1.5l1.3,1.5c-0.4,0.4-0.8,0.9-1.3,1.3c0.4,0.3,0.8,0.6,1.2,1l-1.6,1.8h5.5l0.1-1h-3.4v-2.5h3.5l0-0.9   h-3.7v-2.5h3.8l0-0.9h-3.7v-2.8h6.8l-0.4,10.6h2.4v5.4H496V65h-20v2.6h-3.2v-5.4h2.1l-0.4-10.1C476.6,52,478.5,51.6,480.2,51.1z    M477.3,66.1h17.5v2.5c-1.6,1-3.2,1.8-4.6,2.5h8.9v2.8h-11.4v1.1c0,1.4-0.3,2.4-0.8,2.8c-0.5,0.5-1.5,0.8-2.9,0.8   c-1.1,0-2.1-0.1-3-0.2l-0.6-3.4c1.2,0.4,2.4,0.6,3.6,0.6c0.1,0,0.2-0.1,0.3-0.2c0.1-0.2,0.1-0.5,0.1-1v-0.4H473V71h11.5v-1.6   l2.9,0.2c0.7-0.3,1.4-0.6,2-0.9h-12.1V66.1z M484.3,62.2h3.2c-0.4-0.4-0.8-0.7-1.2-1.1C485.7,61.6,485,61.9,484.3,62.2z    M484.4,56.8c0.7,0.4,1.4,0.8,2.1,1.3c0.4-0.3,0.8-0.6,1.1-1c-0.5-0.5-1-0.9-1.5-1.2C485.5,56.2,484.9,56.5,484.4,56.8z"/>
	<path class="st1" d="M517.5,79.1h-9.4v-3.7h5.8V64.9h3.6V79.1z"/>
</g>
</svg>