<?xml version="1.0" encoding="UTF-8"?>
<!-- Generator: Adobe Illustrator 21.0.2, SVG Export Plug-In . SVG Version: 6.00 Build 0)  -->
<svg version="1.1" id="圖層_1" xmlns="http://www.w3.org/2000/svg" xmlns:xlink="http://www.w3.org/1999/xlink" x="0px" y="0px" width="524.3px" height="179.6px" viewBox="0 0 524.3 179.6" style="enable-background:new 0 0 524.3 179.6;" xml:space="preserve">
<style type="text/css">
	.st0{fill:#FFFFFF;}
	.st1{fill:#A69F96;}
</style>
<g>
	<g>
		<path class="st0" d="M191.4,16.5h13.1v3.9h-5.1c-0.5,2.5-1.1,4.9-1.9,7.2h6.9v17.1h-6.7v2.9h-3.9V36c-0.1,0.2-0.3,0.5-0.4,0.7    l-2.7-3.2c1.2-2.2,2.3-4.7,3.2-7.4c0.6-1.9,1.1-3.8,1.5-5.6h-3.9V16.5z M197.6,40.9h2.8v-9.4h-2.8V40.9z M205.9,16.4h16.7v3.9    h-2.2V29h3.2v4h-3.2v15.2h-4.1V33h-3.6v0.3c0,3.2-0.5,6.2-1.5,8.9c-0.9,2.4-2,4.4-3.4,6l-3.4-2.7c1.5-1.7,2.6-3.6,3.2-5.8    c0.7-2.1,1-4.2,1-6.4V33h-3.2v-4h3.2v-8.7h-2.7V16.4z M216.3,29v-8.7h-3.6V29H216.3z"/>
		<path class="st0" d="M234.5,15.1l3.8,1.1c-0.8,2.7-1.8,5.3-3,7.9V48h-3.9V31.3c-0.3,0.5-0.7,0.9-1,1.4l-2.1-3.9    C231.2,24.5,233.3,19.9,234.5,15.1z M237,22.5h3.8v20.8H237V22.5z M245.1,15.7l3.8,1.3c-0.2,0.4-0.3,0.9-0.5,1.3h11.3v3.7h-2    c-0.9,1.6-1.9,3-3.2,4.2c0.1,0,0.2,0,0.2,0.1c1.3,0.7,3.5,1.3,6.7,1.9l-1.8,3.8c-2.4-0.5-4.5-1.2-6.4-1.9c0,0,0,0,0,0l1.9,2.2    c-1.5,1.2-3.2,2.2-5,3.1c-1.5,0.8-3.5,1.5-5.9,2.2l-2.3-3.6c2.2-0.6,4.3-1.3,6-2c1.6-0.8,3-1.5,4.1-2.4c-0.4-0.2-0.7-0.3-1.1-0.5    c-2.3,1.5-5,2.6-8.1,3.4l-1.8-3.6c2.4-0.6,4.5-1.3,6.3-2.2c-0.8-0.6-1.4-1.2-2-1.8c-0.4,0.6-0.8,1.2-1.2,1.8l-3.3-2.4    c0.9-1.3,1.6-2.6,2.2-3.9C244.1,18.6,244.7,17.1,245.1,15.7z M258.6,37.8l2.7,3c-2.2,2.1-4.7,3.6-7.5,4.7    c-3.3,1.3-6.7,2.2-10.1,2.7l-2.1-3.5c4.1-0.7,7.4-1.6,10.2-2.7C254.2,41,256.5,39.6,258.6,37.8z M255.9,33.4l2.7,3.1    c-2,1.5-4.1,2.8-6.5,3.8c-2,1-4.6,1.9-7.7,2.7l-2.4-3.8c3-0.8,5.6-1.7,7.9-2.6C252.2,35.6,254.2,34.5,255.9,33.4z M248.4,21.9    c0.7,0.7,1.3,1.3,2.1,1.8c0.2,0.1,0.4,0.3,0.5,0.4c0.7-0.7,1.4-1.4,2-2.2H248.4z"/>
		<path class="st0" d="M270.1,15.8l3.8,1.1c-0.2,0.8-0.4,1.7-0.7,2.4h1.7v-3.7h3.9v3.7h6.6v3.9h-6.6v2.7h8.1v3.8h-8.1v2.1h7.6V41    c0,3.1-1.5,4.6-4.6,4.6c-0.5,0-1-0.1-1.7-0.2l-0.8-4.1c0.9,0.4,1.7,0.6,2.5,0.6c0.5,0,0.7-0.6,0.7-1.9v-4.5h-3.7v12.7h-3.9V35.5    h-3.4v9.9h-3.9V31.9h7.3v-2.1H267v-3.8h2.5l-3-2.2c0.8-1.1,1.5-2.4,2.1-3.8C269.3,18.5,269.8,17.1,270.1,15.8z M274.9,25.9v-2.7    h-3.2c-0.4,1-0.9,1.9-1.4,2.7H274.9z M288.1,19h3.9v20.8h-3.9V19z M294.2,15.7h3.9v27.1c0,2-0.3,3.3-0.8,4    c-0.7,0.8-1.8,1.2-3.4,1.2c-1.6,0-3.1-0.2-4.5-0.5l-0.7-4c1.5,0.4,3.1,0.5,4.6,0.5c0.4,0,0.6-0.1,0.7-0.4c0.1-0.4,0.2-1,0.2-1.8    V15.7z"/>
		<path class="st0" d="M319.9,15.7h4.2V18h12.8v4h-6v2.7h4.6v3.7h-4.6v5.5h-14.9v-5.5H311v4.3c0,3-0.3,5.9-0.8,8.6    c-0.4,2.3-1,4.6-1.9,6.9l-4-2.4c0.9-2.9,1.6-5.4,1.9-7.5c0.4-2.6,0.6-5.2,0.6-7.8V18h13.1V15.7z M315.2,38.6h-2.5v-3.7h21.1v2.8    c-1.5,2-3.2,3.6-5.2,4.9c2.4,0.6,5.1,1.1,8.3,1.4l-1.5,4.1c-4.5-0.5-8.4-1.5-11.7-3c-3.3,1.3-7,2.3-11.2,3l-2.1-4    c3.4-0.4,6.4-0.9,8.9-1.6C317.7,41.5,316.4,40.1,315.2,38.6z M315.9,24.7V22H311v2.7H315.9z M326.9,24.7V22h-7v2.7H326.9z     M319.9,28.3v1.9h7v-1.9H319.9z M323.8,41c1.7-0.8,3.1-1.6,4.2-2.5H320C321.2,39.5,322.4,40.4,323.8,41z"/>
	</g>
	<g>
		<g>
			<path class="st0" d="M86.7,128c0.4,0.9,0.7,1.8,1,2.8l-1.4,0.6c-0.3-1.1-0.6-2-0.9-2.9L86.7,128z M88,127.3h1.6v4.5h1.2v-4.5h1.6     v4.5h2.2v1.7h-1.4l-0.7,2.1h1.6v1.5H91v1.7h3.1v1.5H91v2c1.3-0.1,2.5-0.3,3.5-0.6v1.5c-1.6,0.4-4.5,0.8-8.7,1.2l-0.2-1.8     c1.3,0,2.5-0.1,3.7-0.2v-2.2H86v-1.5h3.3V137H86v-1.5h1.6l-0.7-2.1h-1.3v-1.7H88V127.3z M89.2,135.5h1.7l0.7-2.1h-3L89.2,135.5z      M94,127.8l1.2,0.6c-0.4,1.1-0.9,2-1.4,2.8l-1.3-0.9C93,129.6,93.5,128.8,94,127.8z M96.5,134.8c0.8,1.4,1.4,2.8,2,4.4l-1.6,0.7     c-0.6-1.7-1.3-3.3-2-4.6L96.5,134.8z M94.9,131.1h4.3v-3.9h1.9v3.9h1.6v1.6h-1.6v9.8c0,0.7-0.2,1.2-0.5,1.4     c-0.3,0.3-0.8,0.4-1.6,0.4h-2.7l-0.4-1.9c1.1,0.1,1.9,0.2,2.6,0.2c0.5,0,0.7-0.2,0.7-0.5v-9.5h-4.3V131.1z"/>
			<path class="st0" d="M113.3,127.5h1c1.2,1.6,2.5,2.9,3.7,3.7c1.1,0.8,2.5,1.4,4.2,1.9L121,135c-1.8-0.6-3.1-1.3-4-2     c-1.2-0.8-2.4-2.1-3.7-3.8c-0.8,1.3-1.8,2.3-2.8,3.1c-1.4,1-3,1.9-4.9,2.7l-1.1-1.9c2.2-0.8,3.9-1.7,5.1-2.7c1-0.7,2-1.7,2.8-2.9     H113.3z M112.9,132.3h1.9v4h5.2v1.7h-5.2v4h6.6v1.7h-16.5V142h2.9V135h1.8v7.1h3.4V132.3z"/>
			<path class="st0" d="M129.5,127.1h1.7v3h1.7v-3h1.7v3h1.3c0.4-0.7,0.8-1.6,1.3-2.6l1.8,0.7c-0.4,0.8-0.7,1.4-1.1,1.9h2.8v1.6     h-5.3l1.3,0.4c-0.3,0.4-0.6,0.8-0.9,1.2h4.1v1.5H133v1h6.7v1.4H133v1h7.7v1.5h-6.1c0.9,0.8,1.6,1.3,2.3,1.6     c0.9,0.4,2.2,0.8,3.8,1.2l-1,1.6c-1.9-0.6-3.3-1.1-4.2-1.7c-0.8-0.6-1.7-1.3-2.5-2.3v4.4h-1.8V140c-0.5,0.6-1.1,1.2-1.7,1.6     c-1.1,0.8-2.7,1.6-4.8,2.4l-0.9-1.5c2.2-0.7,3.7-1.3,4.6-1.9c0.5-0.3,0.9-0.6,1.3-1h-6.1v-1.5h7.6v-1h-6.5v-1.4h6.5v-1h-7v-1.5     h4.2c-0.2-0.4-0.4-0.8-0.7-1.2l1.2-0.4h-5.4v-1.6h2.7c-0.2-0.6-0.5-1.3-0.9-2l1.7-0.6c0.3,0.7,0.7,1.6,1,2.6h1.3V127.1z      M130.3,133.2h3.7c0.4-0.5,0.7-1.1,1-1.6h-5.4C129.8,132.1,130.1,132.6,130.3,133.2z"/>
			<path class="st0" d="M159.3,129.7v1.7h-5.3c0.2,2.7,0.5,4.9,1.1,6.4c0.9-1.3,1.7-3,2.4-5.1l1.6,0.7c-1.1,2.8-2.1,4.9-3.2,6.3     c0.8,1.7,1.4,2.5,1.8,2.5c0.2,0,0.5-0.9,0.7-2.7l1.5,1c-0.4,1.8-0.8,2.9-1.2,3.3c-0.2,0.3-0.5,0.5-0.8,0.5     c-0.8,0-1.6-0.5-2.4-1.4c-0.4-0.5-0.8-1-1.1-1.7c-1.2,1.1-2.7,2.1-4.5,3l-1-1.6c2-0.9,3.6-1.9,4.8-3.1c-0.2-0.6-0.5-1.3-0.7-2     c-0.4-1.6-0.6-3.7-0.8-6.1h-6.3v2.3h5.2c0,3.4-0.2,5.6-0.5,6.5c-0.3,1.1-0.9,1.6-1.9,1.6h-2.5l-0.3-1.8c1.3,0.1,2.2,0.2,2.9,0.2     c0.2,0,0.3-0.3,0.4-0.8c0.1-0.7,0.1-2,0.1-3.9h-3.5c0,1.3-0.1,2.7-0.4,4.2c-0.3,1.7-0.9,3.5-1.7,5.2l-1.6-1.3     c0.7-1.4,1.2-2.9,1.5-4.4c0.2-1.6,0.3-3,0.3-4.3v-5.1h8.1c0-0.8,0-1.7,0-2.7h1.8c0,0.9,0,1.8,0.1,2.7h2.7c-0.5-0.5-1.1-1-1.9-1.6     l1.2-1.1c0.9,0.6,1.6,1.1,2.2,1.7l-1,1H159.3z"/>
			<path class="st0" d="M177.5,127.7v1.7h-11.2v1.1h10.5v1.5h-10.5v1.2h10.5v1.5h-10.5v1.3h12.5v1.7h-8.6c0.5,0.9,1.1,1.7,1.9,2.3     c1.3-0.5,2.5-1.2,3.7-2.2l1.4,1.3c-1,0.8-2.1,1.5-3.3,1.9c1.4,0.8,3.2,1.5,5.3,2l-1,1.8c-3-1-5.3-2.1-6.8-3.3     c-1.3-1.1-2.3-2.3-2.9-3.8h-2.6v4.6c1.3-0.2,2.7-0.6,4-1v1.8c-2.3,0.6-4.8,1.2-7.6,1.6l-0.2-1.9c0.7,0,1.3-0.1,2-0.2v-4.9h-2.3     v-1.7h2.8v-8.2H177.5z"/>
			<path class="st0" d="M181.3,129.1h6.9v-1.8h1.8v1.8h7.1v1.7h-7.1v4.2c0.7,1.4,1.6,2.7,2.7,3.8c1.1,1.2,2.8,2.4,5.2,3.6l-1.3,1.5     c-1.7-1.1-3.1-2.1-4.2-3.1c-0.9-0.8-1.7-1.8-2.4-2.8v6.3h-1.8v-6.4c-0.7,1-1.4,1.8-2,2.4c-1.2,1.2-2.8,2.5-4.6,3.7l-1-1.7     c1.8-1,3.4-2.2,4.8-3.5c1-1.1,2-2.3,2.8-3.7v-4.3h-6.9V129.1z M184.2,131.1l1.6,0.2c-0.2,0.9-0.4,1.7-0.7,2.4     c0.7,0.6,1.4,1.3,2,2l-1,1.5c-0.5-0.8-1.1-1.5-1.6-2c-0.5,1.1-1.2,2.1-2.3,3.3l-1.1-1.4c0.9-0.9,1.5-1.8,2-2.7     C183.5,133.6,183.9,132.5,184.2,131.1z M193.2,131.2l1.7,0.2c-0.2,0.9-0.4,1.7-0.7,2.3c1.1,0.8,2.1,1.8,3,2.9l-0.9,1.5     c-0.9-1.2-1.8-2.2-2.7-3c-0.4,0.7-1,1.4-1.7,2.2l-1.2-1.5c0.7-0.7,1.2-1.4,1.6-2.1C192.7,133.1,193,132.3,193.2,131.2z"/>
			<path class="st0" d="M203.1,127.1c0.3,0.6,0.6,1.3,0.9,2.1h2.7v1.6h-7.3v-1.6h2.8c-0.3-0.7-0.6-1.3-0.9-1.9L203.1,127.1z      M200,131.9h5.9v1.5H200V131.9z M200,134.6h5.9v1.5H200V134.6z M205.9,137.4v5.4h-4.2v1.2H200v-6.7H205.9z M201.7,141.3h2.5V139     h-2.5V141.3z M208.6,127.3c0.8,0.9,1.5,1.8,2.1,2.8l-1,0.4h3.7l-1.2-0.8c0.7-0.7,1.4-1.6,2-2.6l1.4,0.7c-0.5,1.1-1.1,2-1.7,2.7h2     v6.5h-2.3v5.1c0,0.3,0.2,0.4,0.6,0.4c0.8,0,1.2-0.2,1.2-0.5v-2.5l1.6,0.7c0,1.8-0.2,2.9-0.6,3.4c-0.4,0.3-1.1,0.5-2.1,0.5     c-0.8,0-1.4-0.1-1.8-0.4c-0.3-0.2-0.5-0.6-0.5-1.2V137h-1.1c-0.1,2-0.4,3.5-0.9,4.5c-0.6,1.2-1.5,2.2-2.8,3l-1.2-1.5     c1.2-0.7,2-1.4,2.4-2.3c0.4-0.7,0.7-2,0.8-3.7h-2v-6.5h1.9c-0.6-1-1.2-1.9-1.9-2.7L208.6,127.3z M214.1,135.5V132h-5.4v3.4H214.1     z"/>
			<path class="st0" d="M228.4,136c0,0.7-0.2,1.3-0.5,1.8c-0.3,0.4-0.8,0.8-1.5,1.2l-0.6-0.9c0.9-0.4,1.4-1,1.6-1.7h-1.2v-2.3h2.3     V136z"/>
			<path class="st0" d="M237.4,134.1h17.4v1.5h-8.6v9.1h-1.7v-1.9c-2,0.2-4.2,0.5-6.8,0.7l-0.4-1.6c0.5,0,1.1-0.1,1.6-0.1v-6.2h-1.6     V134.1z M239.5,127.5h13.6v5.8h-13.6V127.5z M240.8,136.7h3.8v-1.2h-3.8V136.7z M240.8,139.1h3.8V138h-3.8V139.1z M240.8,141.7     c1.3-0.1,2.6-0.2,3.8-0.3v-1h-3.8V141.7z M241.4,129.8h9.9v-1h-9.9V129.8z M251.2,132v-1h-9.9v1H251.2z M246.9,136.5h7.3v1.2     c-0.4,1.7-1.2,3.1-2.2,4.3c0.8,0.5,1.8,0.9,3,1.2l-0.9,1.4c-1.4-0.5-2.5-1-3.3-1.6c-0.9,0.6-2.1,1.1-3.5,1.6l-0.9-1.4     c1.2-0.4,2.2-0.8,3-1.2c-0.9-0.8-1.6-1.8-2.1-2.9l1.3-0.7c0.5,1.1,1.2,2,2.1,2.7c0.1-0.1,0.2-0.2,0.3-0.3     c0.7-0.8,1.2-1.7,1.5-2.8h-5.6V136.5z"/>
			<path class="st0" d="M272.3,127.1l0.7,1.3c-2,0.3-4.4,0.5-7.1,0.7v1.2h7.6v1.5h-7.6v1.1h6.2v6.2h-6.2v1h7.1v1.5h-7.1v1h7.8v1.5     h-17.1v-1.5h7.6v-1h-6.9V140h6.9v-1H258v-6.2h6.2v-1.1h-7.4v-1.5h7.4v-1.1c-2,0.1-4.1,0.1-6.5,0.1l-0.5-1.4     C263.2,127.9,268.2,127.6,272.3,127.1z M259.7,135.2h4.5v-1.1h-4.5V135.2z M264.2,137.8v-1.2h-4.5v1.2H264.2z M265.9,134.1v1.1     h4.5v-1.1H265.9z M270.5,137.8v-1.2h-4.5v1.2H270.5z"/>
			<path class="st0" d="M275.6,127.8h17.2v1.6h-5.7v1.5h4.8v4.9h-7.6c-0.3,0.4-0.6,0.9-0.9,1.2h9.6v1.6h-3.6     c-0.6,1.1-1.2,1.9-1.9,2.7c1.9,0.6,3.7,1.2,5.5,1.9l-1.4,1.4c-1.6-0.8-3.5-1.5-5.6-2.1c-1.7,1-4.8,1.7-9.4,2.3l-0.7-1.7     c3.5-0.2,6.1-0.6,7.8-1.2c-1.6-0.4-3.4-0.8-5.5-1.1c0.7-0.7,1.4-1.4,1.9-2.1h-4.6v-1.6h5.8c0.3-0.4,0.6-0.8,0.9-1.2h-5.7v-4.9     h4.6v-1.5h-5.4V127.8z M281.1,134.2v-1.9h-2.8v1.9H281.1z M285.5,140.6c0.7-0.6,1.4-1.3,1.9-2.2h-5.4c-0.4,0.4-0.7,0.8-1.1,1.2     C282.8,140.1,284.3,140.4,285.5,140.6z M285.4,130.8v-1.5h-2.6v1.5H285.4z M285.4,134.2v-1.9h-2.6v1.9H285.4z M290,134.2v-1.9     h-2.9v1.9H290z"/>
			<path class="st0" d="M298.5,127.1l1.7,0.2c-0.2,1-0.5,1.9-0.9,2.8h2.7v4c0.6-0.9,1-1.8,1.3-2.7c0.4-1.1,0.7-2.5,0.9-4.3l1.9,0.3     c-0.2,1-0.3,1.9-0.5,2.7h5.8c0,6.7-0.1,10.6-0.3,11.9c-0.2,1-0.5,1.6-1,1.9c-0.5,0.4-1.5,0.6-3,0.6c-0.4,0-0.9,0-1.4-0.1     l-0.3-1.9c0.6,0.1,1.1,0.2,1.7,0.2c1.2,0,1.9-0.4,2-1.2c0.2-1,0.4-4.2,0.4-9.6H305c0,0.1-0.1,0.2-0.1,0.3     c-0.4,1.4-1.1,2.8-2.1,4.4l-0.9-1.1v7.8h-1.6v-0.9h-3.5v1.4h-1.6v-13.5h2.4C298,129.2,298.3,128.2,298.5,127.1z M296.8,135.4h3.5     v-3.7h-3.5V135.4z M296.8,140.6h3.5v-3.8h-3.5V140.6z M305.6,134.3c1.1,1.8,1.9,3.3,2.5,4.5l-1.8,1.2c-0.5-1.4-1.3-3-2.2-4.8     L305.6,134.3z"/>
			<path class="st0" d="M313.5,135.5h17.3v1.7h-7.4v1.8h6.5v1.6h-6.5v1.9c0.9,0.1,2,0.1,3.3,0.1c1.8,0,3.2,0,4.4-0.1l-0.5,1.9     c-5.8,0-9.3-0.2-10.4-0.6c-1.1-0.4-2.1-1.1-2.9-2.3c-0.5,1-1.4,2.1-2.6,3.3l-1.3-1.6c1-0.9,1.8-1.7,2.3-2.5     c0.5-0.8,0.9-1.8,1.2-3.1l1.9,0.3c-0.2,0.8-0.5,1.5-0.7,2.1c0.8,1.1,1.7,1.8,2.8,2.2c0.2,0.1,0.5,0.1,0.7,0.2v-5h-8.1V135.5z      M315.4,127.5H329v6.9h-13.6V127.5z M317.3,130.3h9.9v-1.2h-9.9V130.3z M327.2,132.9v-1.2h-9.9v1.2H327.2z"/>
			<path class="st0" d="M336,127.1c0.1,0.6,0.2,1.3,0.3,2.1h2.2v1.6h-6v-1.6h2.1c-0.1-0.7-0.2-1.3-0.4-1.9L336,127.1z M332.9,132     h5.1v1.5h-5.1V132z M332.9,134.8h5.1v1.5h-5.1V134.8z M338.1,137.8v5.4h-3.4v1.3H333v-6.7H338.1z M334.7,141.6h1.7v-2.3h-1.7     V141.6z M339.3,130.3h4.6v3h-1.2v0.9h2.9v-0.9h-1v-3h4.6v3h-2.1v0.9h2.5v1.2h-2.5v0.9h2.2v1.2h-2.2v1h2.7v1.3h-4.3     c0.4,0.7,0.8,1.2,1.2,1.6c0.2-0.1,0.4-0.3,0.6-0.5c0.2-0.2,0.5-0.6,0.8-1l1.2,0.8c-0.3,0.5-0.6,0.9-0.9,1.2     c-0.1,0.2-0.3,0.3-0.5,0.4c0.6,0.4,1.3,0.7,2.1,1l-0.8,1.3c-1.4-0.6-2.5-1.2-3.2-1.9c-0.7-0.7-1.4-1.7-2-2.9     c-0.4,0.3-0.8,0.7-1.2,0.9v1.8c0.8-0.1,1.6-0.3,2.4-0.5v1.4c-1.5,0.4-3.2,0.8-5.2,1.1l-0.4-1.5c0.6-0.1,1.1-0.2,1.7-0.3v-1.2     c-0.6,0.3-1.4,0.5-2.3,0.8l-0.6-1.4c1.2-0.3,2.2-0.6,2.9-0.9c0.2-0.1,0.4-0.2,0.6-0.3h-3.3v-1.3h2.6v-1h-1.9v-1.2h1.9v-0.9h-2.2     v-1.2h2.2v-0.9h-1.8V130.3z M344.7,127.1c0.2,0.4,0.3,0.7,0.4,1.2h4.7v1.3h-11.1v-1.3h4.7c-0.1-0.3-0.3-0.7-0.4-1L344.7,127.1z      M342.5,132.3v-1h-1.8v1H342.5z M345.6,136.3v-0.9h-2.9v0.9H345.6z M345.6,138.4v-1h-2.9v1H345.6z M347.8,132.3v-1H346v1H347.8z"/>
			<path class="st0" d="M357.2,141.5l1.1,1.3c-2,0.8-4.1,1.4-6.1,1.8l-0.8-1.7C353.6,142.5,355.6,142.1,357.2,141.5z M353.1,132.7     h14.3v8.6h-14.3V132.7z M353.6,127.8H367v4.1h-13.4V127.8z M354.8,135.2h10.8v-1.1h-10.8V135.2z M354.8,137.6h10.8v-1.2h-10.8     V137.6z M365.6,140v-1.1h-10.8v1.1H365.6z M365.2,130.4v-1.2h-9.8v1.2H365.2z M362.7,141.5c2.3,0.4,4.4,0.9,6.2,1.4l-1,1.6     c-2-0.7-4-1.2-6.1-1.6L362.7,141.5z"/>
			<path class="st0" d="M371.4,128.7H387v1.8h-6.8v11.2h7.6v1.8h-17.1v-1.8h7.5v-11.2h-6.8V128.7z"/>
			<path class="st0" d="M406.3,129.7v1.7h-5.3c0.2,2.7,0.5,4.9,1.1,6.4c0.9-1.3,1.7-3,2.4-5.1l1.6,0.7c-1.1,2.8-2.1,4.9-3.2,6.3     c0.8,1.7,1.4,2.5,1.8,2.5c0.2,0,0.5-0.9,0.7-2.7l1.5,1c-0.4,1.8-0.8,2.9-1.2,3.3c-0.2,0.3-0.5,0.5-0.8,0.5     c-0.8,0-1.6-0.5-2.4-1.4c-0.4-0.5-0.8-1-1.1-1.7c-1.2,1.1-2.7,2.1-4.5,3l-1-1.6c2-0.9,3.6-1.9,4.8-3.1c-0.2-0.6-0.5-1.3-0.7-2     c-0.4-1.6-0.6-3.7-0.8-6.1h-6.3v2.3h5.2c0,3.4-0.2,5.6-0.5,6.5c-0.3,1.1-0.9,1.6-1.9,1.6h-2.5l-0.3-1.8c1.3,0.1,2.2,0.2,2.9,0.2     c0.2,0,0.3-0.3,0.4-0.8c0.1-0.7,0.1-2,0.1-3.9h-3.5c0,1.3-0.1,2.7-0.4,4.2c-0.3,1.7-0.9,3.5-1.7,5.2l-1.6-1.3     c0.7-1.4,1.2-2.9,1.5-4.4c0.2-1.6,0.3-3,0.3-4.3v-5.1h8.1c0-0.8,0-1.7,0-2.7h1.8c0,0.9,0,1.8,0.1,2.7h2.7c-0.5-0.5-1.1-1-1.9-1.6     l1.2-1.1c0.9,0.6,1.6,1.1,2.2,1.7l-1,1H406.3z"/>
			<path class="st0" d="M424.5,127.7v1.7h-11.2v1.1h10.5v1.5h-10.5v1.2h10.5v1.5h-10.5v1.3h12.5v1.7h-8.6c0.5,0.9,1.1,1.7,1.9,2.3     c1.3-0.5,2.5-1.2,3.7-2.2l1.4,1.3c-1,0.8-2.1,1.5-3.3,1.9c1.4,0.8,3.2,1.5,5.3,2l-1,1.8c-3-1-5.3-2.1-6.8-3.3     c-1.3-1.1-2.3-2.3-2.9-3.8h-2.6v4.6c1.3-0.2,2.7-0.6,4-1v1.8c-2.3,0.6-4.8,1.2-7.6,1.6l-0.2-1.9c0.7,0,1.3-0.1,2-0.2v-4.9h-2.3     v-1.7h2.8v-8.2H424.5z"/>
			<path class="st0" d="M437.4,136c0,0.7-0.2,1.3-0.5,1.8c-0.3,0.4-0.8,0.8-1.5,1.2l-0.6-0.9c0.9-0.4,1.4-1,1.6-1.7h-1.2v-2.3h2.3     V136z"/>
			<path class="st0" d="M0.1,165.5h2.2v-3.4h1.8v3.4h2.2v1.7H4.1v3.6c0.6-0.3,1.3-0.7,1.9-1.1v1.9c-0.6,0.4-1.3,0.7-1.9,1.1v5     c0,0.7-0.1,1.2-0.4,1.4c-0.3,0.3-0.8,0.4-1.5,0.4H0.7l-0.4-1.9c0.5,0.1,0.9,0.2,1.3,0.2c0.5,0,0.7-0.2,0.7-0.5v-3.9     c-0.7,0.3-1.4,0.5-2.1,0.7L0,172.1c0.7-0.1,1.5-0.3,2.3-0.6v-4.4H0.1V165.5z M6.4,170.2h10.9v1.6h-4.9v1.7h4.3v1.5h-4.3v2.4     c0.6,0.1,1.2,0.1,2,0.1c1.2,0,2.3,0,3.1-0.1l-0.5,1.8c-4,0-6.4-0.2-7.1-0.6c-0.7-0.4-1.4-1-1.9-2c-0.6,1-1.3,1.9-2.2,2.9     l-1.3-1.2c0.9-1,1.6-1.9,2.1-2.7c0.4-0.7,0.6-1.6,0.8-2.7L9,173c-0.1,0.8-0.2,1.4-0.4,1.9c0.5,1,1.2,1.7,1.9,2     c0.1,0,0.1,0.1,0.2,0.1v-5.3H6.4V170.2z M7.3,162.8h8.9v6.4H7.3V162.8z M9,165.3h5.5v-1.1H9V165.3z M14.5,167.8v-1.1H9v1.1H14.5z     "/>
			<path class="st0" d="M22.8,162.1l1.6,0.7c-0.5,1.6-1,2.9-1.6,4v12.5h-1.7v-9.7c-0.5,0.7-1,1.3-1.5,1.9l-0.6-2.2     c0.8-1,1.5-2.1,2.1-3.2C21.7,165.3,22.2,163.9,22.8,162.1z M24,165.8h2.7v-3.5h1.8v3.5h3v-3.6h1.8v3.6h2.7v1.7h-2.7v4.3h3.3v1.7     H23.6v-1.7h3v-4.3H24V165.8z M27.4,174l1.5,0.7c-0.9,1.9-2,3.5-3.3,4.9l-1.6-1.2C25.2,177.1,26.4,175.7,27.4,174z M28.4,171.7h3     v-4.3h-3V171.7z M32.4,174c1.6,1.6,2.9,3,3.9,4.2l-1.7,1.2c-0.9-1.3-2.1-2.9-3.6-4.5L32.4,174z"/>
			<path class="st0" d="M38.3,164.2h6.3c0.3-0.6,0.6-1.3,0.9-2l1.9,0.2c-0.2,0.7-0.5,1.3-0.7,1.8h8.6v1.7h-9.5     c-0.3,0.6-0.7,1.1-1.1,1.6h9v10.1c0,0.6-0.1,1-0.4,1.3c-0.3,0.3-0.8,0.5-1.4,0.5h-3l-0.4-1.6l2.9,0.1c0.3,0,0.5-0.2,0.5-0.5v-1.8     h-8.3v3.9h-1.8v-8.6c-0.9,0.7-1.8,1.4-2.8,2.1l-1.2-1.5c1.9-1.3,3.5-2.7,4.8-4.3c0.3-0.4,0.7-0.8,1-1.3h-5.3V164.2z M43.6,170.7     h8.3v-1.5h-8.3V170.7z M43.6,174h8.3v-1.8h-8.3V174z"/>
			<path class="st0" d="M62.3,162.2l0.6,1.4c-0.7,0.1-1.7,0.2-3.2,0.4v1h3v1.2h-3v1h3v1.3h-3v1.1h11.9v-1.1h-2.8v-1.3h2.8v-0.9h-2.8     v-1.2h2.8V164h-3v-1.5h4.7l-0.1,7.1h0.8v3.7h-1.7v-2.2H59v2.2h-1.7v-3.7H58v-6.9C59.4,162.7,60.8,162.5,62.3,162.2z M60.4,172.2     h10.8v1.3c-1.3,0.6-2.7,1.1-4.4,1.6h7.1v1.5h-7.2v1.6c0,0.4-0.1,0.7-0.3,0.9c-0.3,0.3-0.6,0.4-1,0.4h-2.8l-0.3-1.5     c0.7,0,1.4,0.1,2.1,0.1c0.3,0,0.5-0.1,0.5-0.4v-1.2h-7.3v-1.5h7.3v-0.6c1.1-0.2,2.2-0.6,3.4-1h-7.9V172.2z M67.2,162.2l1.1,0.7     c-0.4,0.4-0.8,0.8-1.2,1c0.3,0.3,0.6,0.5,0.9,0.7l-1,1c-0.3-0.3-0.7-0.6-1-0.9c-0.6,0.4-1.4,0.7-2.3,1.1l-0.7-1.2     c0.7-0.2,1.3-0.4,1.9-0.7c-0.4-0.3-0.9-0.6-1.3-0.9l0.9-0.8c0.6,0.3,1.1,0.7,1.6,1C66.4,162.9,66.8,162.6,67.2,162.2z      M67.4,165.7l1.1,0.6c-0.5,0.5-0.9,0.9-1.4,1.3c0.4,0.3,0.8,0.6,1.1,0.9l-0.9,1c-0.4-0.4-0.8-0.7-1.2-1.1c-0.6,0.4-1.3,0.7-2.1,1     l-0.7-1.2c0.6-0.2,1.2-0.4,1.7-0.7c-0.4-0.3-0.8-0.5-1.2-0.8l0.9-0.8c0.5,0.3,1,0.6,1.4,0.9C66.5,166.5,67,166.2,67.4,165.7z"/>
			<path class="st0" d="M76.3,162.6h7.9v7.4l1.7,0.2c-0.1,0.4-0.3,0.8-0.4,1.1h6.3v8.2H90v-0.8H79.7v0.8h-1.8v-8.2h5.8     c0.1-0.3,0.3-0.7,0.4-1.1h-1.5v-6h-6.2V162.6z M81.9,166.8l0.4,1.6c-1.4,1.1-3.2,2.1-5.3,2.9l-0.7-1.7     C78.1,169,80,168.1,81.9,166.8z M77.8,164.5c1.1,0.5,2,1.1,2.9,1.8l-1,1.5c-0.9-0.8-1.8-1.5-2.8-2L77.8,164.5z M79.7,174.2H90     v-1.4H79.7V174.2z M79.7,177.1H90v-1.5H79.7V177.1z M84.9,162.6h7.9v8.1h-1.8v-6.5h-6.2V162.6z M90.5,166.7l0.4,1.5     c-1.4,0.7-3.1,1.3-5.2,1.9l-0.7-1.6C86.8,168.1,88.7,167.5,90.5,166.7z M86.4,164.4c1,0.4,1.9,1,2.8,1.6l-1,1.5     c-0.8-0.8-1.7-1.4-2.6-1.8L86.4,164.4z"/>
			<path class="st0" d="M97.3,174.9l1.4,0.7c-0.7,1.2-1.5,2.3-2.4,3.2l-1.5-1C95.8,177,96.6,176,97.3,174.9z M103.7,162.1     c0.2,0.4,0.4,0.8,0.7,1.3h7v1.4h-3.3l-0.7,1.3h4.7v1.3H95.3v-1.3h4.6l-0.7-1.3h-3.1v-1.4h6.3c-0.2-0.4-0.4-0.7-0.7-1.1     L103.7,162.1z M97,168.3h13.2v5.8H97V168.3z M98.7,170.6h9.8v-1.1h-9.8V170.6z M108.5,172.9v-1.2h-9.8v1.2H108.5z M99.7,174.8     h1.7v2.4c0,0.3,0.2,0.5,0.7,0.5h3.7c0.3,0,0.5-0.1,0.7-0.2c0.2-0.1,0.3-0.7,0.4-1.7l1.6,0.5c-0.2,1.4-0.4,2.3-0.8,2.5     c-0.3,0.3-0.9,0.4-1.7,0.4h-4.6c-0.5,0-0.9-0.1-1.2-0.4c-0.3-0.3-0.5-0.7-0.5-1.2V174.8z M101.8,166.1h3.8l0.6-1.3h-5.1     L101.8,166.1z M103.9,174.3c0.8,0.8,1.5,1.5,1.9,2l-1.5,1c-0.4-0.7-1-1.4-1.7-2.3L103.9,174.3z M110,174.8c1,1.1,1.8,2.1,2.4,3     l-1.6,1c-0.5-0.9-1.2-2-2.1-3.2L110,174.8z"/>
			<path class="st0" d="M118.8,166.2h0.8c1.4,1.5,2.8,3.2,4.1,5l-0.7,1.9c-0.2-0.4-0.5-0.8-0.7-1.2v6.1c1.1-1.2,2-2.8,2.7-4.6     c0.6-1.6,0.9-2.9,0.9-3.8v-2.3h1.8v2.3c0,1.1,0.3,2.3,0.8,3.7c0.6,1.6,1.7,3.2,3.1,4.7l-1,1.4c-0.9-0.9-1.7-1.7-2.2-2.6     c-0.6-1-1.2-2.2-1.5-3.7c-0.4,1.3-0.7,2.4-1.2,3.2c-0.5,1-1.2,2.1-2.2,3.3l-1.1-1.2v1h-1.7v-1.1h-3.2v1.4h-1.7v-6.9     c-0.3,0.3-0.5,0.6-0.8,0.9l-0.8-1.7c1.6-1.5,3-3.4,4.1-5.6H118.8z M117.3,162.3l1.1,1c-0.9,1.5-1.9,2.8-3.2,4l-1.1-1.4     C115.3,164.9,116.4,163.7,117.3,162.3z M116.6,171.4h5.1c-0.9-1.3-1.8-2.5-2.8-3.5C118.2,169,117.5,170.2,116.6,171.4z      M117.2,176.5h3.2v-3.6h-3.2V176.5z M120.4,162.3c1.2,1.2,2.1,2.3,2.9,3.5L122,167c-0.6-1.1-1.6-2.3-2.8-3.6L120.4,162.3z      M125.6,166.1c-0.4,1.6-1,2.8-1.7,3.7l-1.5-1.1c1.2-1.7,1.9-3.9,2.2-6.7l1.6,0.2c-0.1,0.8-0.2,1.5-0.4,2.2h5.2v1.4     c-0.4,2.2-0.9,4.2-1.5,6l-1.4-1.2c0.3-1,0.7-2.5,1.1-4.6H125.6z"/>
			<path class="st0" d="M137,162.1l1.7,0.2c-0.2,1-0.5,1.9-0.9,2.8h2.7v4c0.6-0.9,1-1.8,1.3-2.7c0.4-1.1,0.7-2.5,0.9-4.3l1.9,0.3     c-0.2,1-0.3,1.9-0.5,2.7h5.8c0,6.7-0.1,10.6-0.3,11.9c-0.2,1-0.5,1.6-1,1.9c-0.5,0.4-1.5,0.6-3,0.6c-0.4,0-0.9,0-1.4-0.1     l-0.3-1.9c0.6,0.1,1.1,0.2,1.7,0.2c1.2,0,1.9-0.4,2-1.2c0.2-1,0.4-4.2,0.4-9.6h-4.5c0,0.1-0.1,0.2-0.1,0.3     c-0.4,1.4-1.1,2.8-2.1,4.4l-0.9-1.1v7.8h-1.6v-0.9h-3.5v1.4h-1.6v-13.5h2.4C136.5,164.2,136.8,163.2,137,162.1z M135.3,170.4h3.5     v-3.7h-3.5V170.4z M135.3,175.6h3.5v-3.8h-3.5V175.6z M144.1,169.3c1.1,1.8,1.9,3.3,2.5,4.5l-1.8,1.2c-0.5-1.4-1.3-3-2.2-4.8     L144.1,169.3z"/>
			<path class="st0" d="M158.7,163.8h-3.6v-1.5h6.7c1.2,2,3.8,3.8,7.8,5.6l-1.2,1.7c-0.6-0.2-1.1-0.5-1.6-0.8v1.2h-5.3v2.9h5v1.5h-5     v3.3h7.3v1.6h-16.4v-1.6h7.2v-3.3h-4.9v-1.5h4.9V170h-5.1v-1.1c-0.5,0.2-1,0.5-1.5,0.7l-1-1.8c2-0.8,3.5-1.5,4.6-2.3     C157.4,165,158.1,164.5,158.7,163.8z M155.4,168.4h10.7c-0.9-0.5-1.6-0.9-2.2-1.4c-1.3-1-2.4-2-3.2-3.2c-0.6,0.9-1.2,1.7-1.9,2.2     C158,166.8,156.8,167.6,155.4,168.4z"/>
			<path class="st0" d="M177.8,162.5v4.8h0.5v3.4h-0.9v7c0,0.6-0.1,1-0.4,1.3c-0.2,0.3-0.5,0.4-0.9,0.4h-1l-0.4-1.6l0.8,0.1     c0.3,0,0.4-0.3,0.4-0.7v-1h-2.5v3.2h-1.5v-8.8H171v-3.3h0.6v-4.8H177.8z M172.6,169.9h4.1v-1.1h-4.1V169.9z M173,167.4h1V165h2.4     v-1H173V167.4z M173.3,172.5h2.5v-1.2h-2.5V172.5z M173.3,175h2.5v-1.2h-2.5V175z M175.2,167.4h1.1v-1.2h-1.1V167.4z      M178.4,170.2h10v1.5h-10V170.2z M179.2,172.5h8.3v3.7h-1l-0.7,1.6h2.4v1.4h-9.7v-1.4h2.6l-0.7-1.6h-1.2V172.5z M178.8,163.3h2.6     v-1.3h1.4v1.3h1.2v-1.3h1.3v1.3h2.7v6.1h-9.2V163.3z M180.2,165.8h1.2v-1.1h-1.2V165.8z M181.4,168.1v-1.2h-1.2v1.2H181.4z      M185.9,174.9v-1.1h-5.2v1.1H185.9z M182.7,177.7h1.4l0.7-1.6H182L182.7,177.7z M182.7,164.7v1.1h1.2v-1.1H182.7z M184,168.1     v-1.2h-1.2v1.2H184z M185.3,164.7v1.1h1.3v-1.1H185.3z M186.6,168.1v-1.2h-1.3v1.2H186.6z"/>
			<path class="st0" d="M195.7,176.5l1.1,1.3c-2,0.8-4.1,1.4-6.1,1.8l-0.8-1.7C192.1,177.5,194.1,177.1,195.7,176.5z M191.6,167.7     h14.3v8.6h-14.3V167.7z M192.1,162.8h13.4v4.1h-13.4V162.8z M193.3,170.2h10.8v-1.1h-10.8V170.2z M193.3,172.6h10.8v-1.2h-10.8     V172.6z M204.1,175v-1.1h-10.8v1.1H204.1z M203.7,165.4v-1.2h-9.8v1.2H203.7z M201.2,176.5c2.3,0.4,4.4,0.9,6.2,1.4l-1,1.6     c-2-0.7-4-1.2-6.1-1.6L201.2,176.5z"/>
			<path class="st0" d="M209.9,163.7h15.6v1.8h-6.8v11.2h7.6v1.8h-17.1v-1.8h7.5v-11.2h-6.8V163.7z"/>
			<path class="st0" d="M228.5,163.8h2.8v-1.6h1.7v1.6h2.4v1.5H233v1.6h1.2c1-1,2-2.2,3-3.6l1.4,0.8c-0.8,1.1-1.5,2-2.2,2.8h1.2v1.1     c0.2-0.5,0.5-1,0.6-1.4c0.4-1.1,0.8-2.6,1-4.5l1.7,0.2c-0.2,1.1-0.4,2-0.5,2.8h4.9v1.6h-1.1c-0.1,3.2-0.7,5.7-1.7,7.7     c-0.1,0.2-0.2,0.3-0.2,0.5c0.8,1.2,1.9,2.3,3.1,3.1l-1,1.6c-1.3-1-2.3-2-3.1-3.2c-0.9,1.1-2.1,2.2-3.5,3.2l-1-1.6     c1.5-0.9,2.7-2,3.6-3.2c-0.7-1.4-1.4-2.9-1.9-4.7c-0.3,0.5-0.6,1-0.9,1.5l-1.2-1.5c0.4-0.6,0.7-1.1,1-1.7h-2.5     c-0.1,0.1-0.3,0.2-0.4,0.3c-0.5,0.4-1,0.9-1.6,1.3h3.3v1.5c-0.7,0.6-1.4,1.2-2.2,1.8v0.3c1.2-0.1,2.3-0.3,3.3-0.4v1.5     c-0.8,0.2-1.9,0.3-3.3,0.5v2.5c0,0.5-0.1,0.8-0.3,1.1c-0.3,0.4-0.6,0.6-1,0.6h-2.5l-0.4-1.8c0.6,0,1.3,0.1,2,0.1     c0.3,0,0.5-0.2,0.5-0.5v-1.8c-1.2,0.1-2.6,0.2-4.1,0.3l-0.2-1.8c1.5,0,3-0.1,4.3-0.2v-1.1c0.6-0.3,1.2-0.7,1.8-1.2h-3.4     c-0.7,0.4-1.4,0.9-2.1,1.3l-0.9-1.5c1.7-0.7,3.3-1.7,4.8-2.9h-4.6v-1.6h3.5v-1.6h-2.8V163.8z M239.5,167.9     c0.5,2.1,1.1,3.8,1.8,5.2c0.7-1.6,1.1-3.8,1.2-6.5h-2.6c0,0.2-0.1,0.4-0.2,0.5C239.7,167.4,239.6,167.7,239.5,167.9z"/>
			<path class="st0" d="M255.8,161.9c0.3,0.4,0.6,0.9,0.8,1.5h7.8v1.7h-4.5c1.7,1.1,3.1,2.1,4.1,3l-1.6,1.1     c-0.4-0.4-0.9-0.9-1.4-1.4c-2.9,0.4-7.2,0.7-13,0.9l-0.4-1.7c1.1,0,2.1,0,3.1,0c0.6-0.6,1.1-1.2,1.5-1.9h-5.1v-1.7h7.8     c-0.3-0.4-0.5-0.8-0.9-1.2L255.8,161.9z M262.3,169.1v8.3c0,0.6-0.2,1.1-0.5,1.4c-0.3,0.3-0.7,0.4-1.2,0.4h-2.7l-0.4-1.8l2.4,0.2     c0.4,0,0.6-0.3,0.6-0.7v-0.6H251v3h-1.9v-10.2H262.3z M251,172.1h9.5v-1.4H251V172.1z M251,174.8h9.5v-1.3H251V174.8z      M259.4,166.4c-0.4-0.3-0.8-0.6-1.2-0.9l1-0.6h-5c-0.4,0.6-0.9,1.3-1.4,1.9C255.3,166.8,257.6,166.6,259.4,166.4z"/>
			<path class="st0" d="M266.1,165.7h1.9v-3.6h1.6v3.6h1.5v1.5h-1.5v1c0.7,0.8,1.4,1.7,2.1,2.7l-0.3,0.5h1.6c0-0.4,0-0.9,0-1.4     c-0.4,0-0.8,0.1-1.3,0.1l-0.3-1.3c0.3,0,0.6,0,0.9-0.1c0.4-0.6,0.8-1.3,1.3-2.1c-0.6,0.1-1.3,0.3-2.1,0.4l-0.3-1.2     c0.2,0,0.5,0,0.7-0.1c0.6-1.1,1.1-2.3,1.3-3.6l1.4,0.1c-0.3,1.2-0.7,2.2-1.3,3.2c0.3-0.1,0.6-0.1,0.8-0.2c0.2-0.5,0.5-1,0.7-1.5     l1.3,0.4c-0.8,1.8-1.6,3.2-2.4,4.3c0.4,0,0.9-0.1,1.3-0.1c-0.1-0.4-0.2-0.7-0.3-1.1l1-0.2c0.4,1,0.7,2,1,2.8l-1.2,0.5     c0-0.3-0.1-0.6-0.2-0.8c-0.3,0-0.5,0.1-0.8,0.1c0,0.6,0,1.1,0,1.5h2.4c-0.3-2-0.5-5.1-0.6-9.4h1.5c0.1,4.4,0.3,7.6,0.6,9.4h1.8     c-0.1-0.4-0.3-0.8-0.5-1.2c-0.3,0-0.7,0.1-1,0.1l-0.4-1.3c0.3,0,0.6,0,0.9,0c0.4-0.6,0.8-1.4,1.3-2.2c-0.6,0.1-1.3,0.2-2,0.4     l-0.3-1.2c0.2,0,0.5,0,0.7-0.1c0.5-1.1,0.9-2.3,1.2-3.6l1.3,0.1c-0.2,1.2-0.6,2.3-1.1,3.3c0.3,0,0.6-0.1,0.9-0.1     c0.2-0.4,0.4-0.8,0.6-1.2l1.2,0.4c-0.7,1.7-1.5,3.1-2.2,4.2c0.4-0.1,0.8-0.1,1.2-0.2c-0.1-0.3-0.2-0.7-0.3-1l1-0.2     c0.4,1,0.7,1.9,0.9,2.7l-1.2,0.5c-0.1-0.3-0.1-0.6-0.2-0.9c-0.3,0.1-0.6,0.1-0.9,0.2c0.2,0.4,0.4,0.9,0.5,1.4h1.7v1.4h-4.7     c0.2,0.8,0.4,1.5,0.6,2.1c0.4-0.5,0.8-1.1,1.2-1.7l1.3,0.7c-0.6,1-1.2,1.8-1.8,2.5c0.6,1,1.1,1.5,1.5,1.5c0.1,0,0.2-0.1,0.2-0.2     c0.1-0.2,0.1-1,0.2-2.5l1.5,0.8c-0.2,1.4-0.4,2.4-0.7,2.8c-0.2,0.4-0.6,0.6-1.1,0.6c-0.8,0-1.7-0.7-2.6-2.1l0,0     c-0.9,0.7-2,1.3-3.5,1.9l-0.8-1.3c1.4-0.5,2.5-1.1,3.4-1.8c0.1,0,0.1-0.1,0.2-0.1c-0.4-0.9-0.8-2-1-3.2h-2.8c0,0.2,0,0.4-0.1,0.6     c0.9,0.6,1.7,1.2,2.5,2l-0.9,1.3c-0.6-0.7-1.3-1.3-1.9-1.8c-0.2,1-0.5,1.8-0.9,2.4c-0.4,0.7-1,1.4-1.7,2.1l-1.1-1.4     c0.8-0.7,1.4-1.4,1.8-2.1c0.3-0.5,0.6-1.4,0.8-2.7c0-0.1,0-0.3,0.1-0.4H271V172l-0.3,0.4c-0.4-0.9-0.8-1.6-1.1-2.1v9.2H268v-8.2     c-0.4,1.2-1,2.4-1.6,3.3l-0.7-1.9c0.9-1.5,1.6-3.2,2.2-5.1v-0.4h-1.9V165.7z"/>
			<path class="st0" d="M293.6,162.1h0.9c2.3,1.4,4.9,2.7,7.9,3.8l-0.7,1.7c-0.2-0.1-0.4-0.2-0.6-0.3v4.9h-14.8v-4.9     c-0.2,0.1-0.5,0.2-0.7,0.3l-0.7-1.6c2.7-1,5.3-2.3,7.8-3.9H293.6z M300.3,173.1v6.5h-1.8v-0.6H289v0.7h-1.8v-6.5H300.3z      M287.3,167h12.9c-1.1-0.5-2.2-1-3.1-1.5v0.8h-6.7v-0.8C289.3,166,288.3,166.5,287.3,167z M292.8,170.9v-2.6H288v2.6h2.4     c-0.3-0.5-0.7-1.1-1.1-1.8l1.1-0.7c0.6,0.7,1.1,1.2,1.4,1.7l-1,0.7H292.8z M289,175.4h9.6v-1.1H289V175.4z M289,177.7h9.6v-1.1     H289V177.7z M291.2,165h5c-1-0.5-1.8-1-2.5-1.5C292.8,164,292,164.5,291.2,165z M299.5,170.9v-2.6h-5v2.6h2.4l-1.1-0.8     c0.4-0.5,0.8-1,1.2-1.6l1.2,0.5c-0.3,0.7-0.7,1.4-1.1,1.9H299.5z"/>
			<path class="st0" d="M313.9,171c0,0.7-0.2,1.3-0.5,1.8c-0.3,0.4-0.8,0.8-1.5,1.2l-0.6-0.9c0.9-0.4,1.4-1,1.6-1.7h-1.2v-2.3h2.3     V171z"/>
			<path class="st0" d="M323.1,164.5h6.1c0.4-0.8,0.7-1.6,1-2.5l1.9,0.2c-0.3,0.8-0.6,1.6-0.9,2.3h8.9v1.7h-9.8     c-0.4,0.7-0.8,1.4-1.3,2c-0.5,0.7-1,1.3-1.6,2v9.2h-1.9v-7.4c-0.4,0.4-0.9,0.7-1.3,1.1l-1.2-1.5c1.8-1.3,3.3-2.8,4.5-4.4     c0.2-0.3,0.4-0.6,0.7-0.9h-5.2V164.5z M328.9,170.9h4.5v-3.8h1.9v3.8h4.2v1.7h-4.2v4.6h5v1.7H328v-1.7h5.3v-4.6h-4.5V170.9z"/>
			<path class="st0" d="M347.7,176.5l1.1,1.3c-2,0.8-4.1,1.4-6.1,1.8l-0.8-1.7C344.1,177.5,346.1,177.1,347.7,176.5z M343.6,167.7     h14.3v8.6h-14.3V167.7z M344.1,162.8h13.4v4.1h-13.4V162.8z M345.3,170.2h10.8v-1.1h-10.8V170.2z M345.3,172.6h10.8v-1.2h-10.8     V172.6z M356.1,175v-1.1h-10.8v1.1H356.1z M355.7,165.4v-1.2h-9.8v1.2H355.7z M353.2,176.5c2.3,0.4,4.4,0.9,6.2,1.4l-1,1.6     c-2-0.7-4-1.2-6.1-1.6L353.2,176.5z"/>
			<path class="st0" d="M361.9,163.7h15.6v1.8h-6.8v11.2h7.6v1.8h-17.1v-1.8h7.5v-11.2h-6.8V163.7z"/>
			<path class="st0" d="M380.5,163.8h2.8v-1.6h1.7v1.6h2.4v1.5H385v1.6h1.2c1-1,2-2.2,3-3.6l1.4,0.8c-0.8,1.1-1.5,2-2.2,2.8h1.2v1.1     c0.2-0.5,0.5-1,0.6-1.4c0.4-1.1,0.8-2.6,1-4.5l1.7,0.2c-0.2,1.1-0.4,2-0.5,2.8h4.9v1.6h-1.1c-0.1,3.2-0.7,5.7-1.7,7.7     c-0.1,0.2-0.2,0.3-0.2,0.5c0.8,1.2,1.9,2.3,3.1,3.1l-1,1.6c-1.3-1-2.3-2-3.1-3.2c-0.9,1.1-2.1,2.2-3.5,3.2l-1-1.6     c1.5-0.9,2.7-2,3.6-3.2c-0.7-1.4-1.4-2.9-1.9-4.7c-0.3,0.5-0.6,1-0.9,1.5l-1.2-1.5c0.4-0.6,0.7-1.1,1-1.7h-2.5     c-0.1,0.1-0.3,0.2-0.4,0.3c-0.5,0.4-1,0.9-1.6,1.3h3.3v1.5c-0.7,0.6-1.4,1.2-2.2,1.8v0.3c1.2-0.1,2.3-0.3,3.3-0.4v1.5     c-0.8,0.2-1.9,0.3-3.3,0.5v2.5c0,0.5-0.1,0.8-0.3,1.1c-0.3,0.4-0.6,0.6-1,0.6h-2.5l-0.4-1.8c0.6,0,1.3,0.1,2,0.1     c0.3,0,0.5-0.2,0.5-0.5v-1.8c-1.2,0.1-2.6,0.2-4.1,0.3l-0.2-1.8c1.5,0,3-0.1,4.3-0.2v-1.1c0.6-0.3,1.2-0.7,1.8-1.2h-3.4     c-0.7,0.4-1.4,0.9-2.1,1.3l-0.9-1.5c1.7-0.7,3.3-1.7,4.8-2.9h-4.6v-1.6h3.5v-1.6h-2.8V163.8z M391.5,167.9     c0.5,2.1,1.1,3.8,1.8,5.2c0.7-1.6,1.1-3.8,1.2-6.5h-2.6c0,0.2-0.1,0.4-0.2,0.5C391.7,167.4,391.6,167.7,391.5,167.9z"/>
			<path class="st0" d="M407.8,161.9c0.3,0.4,0.6,0.9,0.8,1.5h7.8v1.7h-4.5c1.7,1.1,3.1,2.1,4.1,3l-1.6,1.1     c-0.4-0.4-0.9-0.9-1.4-1.4c-2.9,0.4-7.2,0.7-13,0.9l-0.4-1.7c1.1,0,2.1,0,3.1,0c0.6-0.6,1.1-1.2,1.5-1.9h-5.1v-1.7h7.8     c-0.3-0.4-0.5-0.8-0.9-1.2L407.8,161.9z M414.3,169.1v8.3c0,0.6-0.2,1.1-0.5,1.4c-0.3,0.3-0.7,0.4-1.2,0.4h-2.7l-0.4-1.8l2.4,0.2     c0.4,0,0.6-0.3,0.6-0.7v-0.6H403v3h-1.9v-10.2H414.3z M403,172.1h9.5v-1.4H403V172.1z M403,174.8h9.5v-1.3H403V174.8z      M411.4,166.4c-0.4-0.3-0.8-0.6-1.2-0.9l1-0.6h-5c-0.4,0.6-0.9,1.3-1.4,1.9C407.3,166.8,409.6,166.6,411.4,166.4z"/>
			<path class="st0" d="M424.8,162.3h1.9v5.6h7.5v1.7h-7.5v7.7h8.5v1.8h-17.1v-1.8h6.7V162.3z"/>
			<path class="st0" d="M437.5,163.2h16.5v1.7h-5.8c-0.4,0.8-0.8,1.6-1.3,2.3v12.4h-1.9v-9.9c-0.1,0.1-0.3,0.3-0.4,0.4     c-1.6,1.7-3.7,3.3-6.2,4.7l-1.1-1.5c2.4-1.3,4.3-2.7,5.9-4.2c1.1-1,2.1-2.4,3-4.2h-8.7V163.2z M449.2,168.4     c1.9,1.6,3.5,3.2,4.8,4.8l-1.4,1.4c-1.1-1.5-2.6-3.2-4.7-5L449.2,168.4z"/>
			<path class="st0" d="M456,166.6h4.5v1.2c-0.6,1.1-1.3,2.2-2.2,3.3h2.4v1.1c-0.3,1.5-0.7,2.6-1,3.3c0.7,0.7,1.2,1.1,1.7,1.3     c0.4,0.2,1,0.4,1.9,0.5c1,0.1,2.8,0.2,5.6,0.2c2,0,3.5-0.1,4.5-0.2l-0.2,1.6c-5.3,0-8.5-0.1-9.7-0.2c-1.1-0.1-1.9-0.3-2.5-0.6     c-0.5-0.2-1.2-0.7-1.8-1.4c-0.5,0.9-1.2,1.8-2,2.8l-1.2-1.3c1-1,1.6-1.9,2-2.7c0.3-0.5,0.7-1.4,1.1-2.9h-2.6v-1.4     c0.7-0.8,1.5-1.8,2.3-3.1H456V166.6z M458.1,162.2c0.8,0.9,1.6,1.7,2.1,2.5L459,166c-0.5-0.8-1.2-1.7-2.1-2.7L458.1,162.2z      M461.8,162.8h4.5v-0.7h1.6v0.7h4.5v3h-4.5v0.7h5.6v1.2h-12.5v-1.2h5.4v-0.7h-4.5V162.8z M465.9,175l0.8,1.1     c-0.8,0.2-1.5,0.4-2.1,0.4c-0.7,0.1-1.6,0.2-2.6,0.4l-0.8-1.4c1-0.1,1.9-0.2,2.7-0.2C464.7,175.2,465.3,175.1,465.9,175z      M461.7,168.4h10.6v6.4h-10.6V168.4z M466.3,164.7v-0.7h-2.9v0.7H466.3z M463.3,170.2h7.4v-0.7h-7.4V170.2z M463.3,171.9h7.4     v-0.7h-7.4V171.9z M470.7,173.7v-0.7h-7.4v0.7H470.7z M470.9,164.7v-0.7h-3v0.7H470.9z M468.6,175c1.5,0.1,3.1,0.3,4.8,0.6     l-0.5,1.4c-1.5-0.3-3.1-0.6-4.8-0.7L468.6,175z"/>
			<path class="st0" d="M479.4,162.1h0.6c1.2,1,2.2,2,3.1,3.1l-1.1,1c-1-1.2-1.9-2.1-2.5-2.7c-1.2,1.3-2.6,2.6-4.2,3.9l-0.5-1.6     c1.4-1,2.7-2.3,3.9-3.8H479.4z M479.8,165.2c0.2,0.6,0.5,1.2,0.6,1.9h1.6v6.9h-4.5v3.1c0.8-0.2,1.6-0.4,2.3-0.6     c-0.2-0.6-0.4-1.1-0.7-1.6l1.5-0.4c0.6,1.2,1.1,2.5,1.6,3.9l-1.5,0.7c-0.1-0.4-0.2-0.8-0.4-1.2c-1.5,0.5-3.2,1-5.1,1.5l-0.4-1.7     c0.4-0.1,0.7-0.1,1.1-0.2v-10.3h2.9c-0.2-0.6-0.4-1.2-0.7-1.7L479.8,165.2z M477.6,169.9h2.9v-1.4h-2.9V169.9z M477.6,172.7h2.9     v-1.6h-2.9V172.7z M484.4,172.9l1.3,0.6c-0.6,1.7-1.4,3.2-2.2,4.5l-1.4-1C483,175.8,483.8,174.4,484.4,172.9z M487.4,162.2h0.9     c0.6,1.1,1.3,2,1.9,2.7c0.5,0.5,1.3,1.2,2.4,1.9l-1,1.6c-0.4-0.2-0.7-0.5-1.1-0.7v1.2h-2.4v1.7h3.9v1.7h-3.9v5.7     c0,0.6-0.1,1-0.4,1.3c-0.2,0.3-0.7,0.4-1.4,0.4H485l-0.4-1.7c0.5,0.1,0.9,0.1,1.3,0.1c0.4,0,0.7-0.2,0.7-0.5v-5.4h-3.7v-1.7h3.7     v-1.7h-2.4v-1.1c-0.3,0.3-0.7,0.6-1.1,0.8l-0.8-1.6c1.2-0.7,2.1-1.5,2.7-2.2c0.5-0.6,1-1.4,1.6-2.5H487.4z M484.8,167.1h5.2     c-0.8-0.7-1.7-1.8-2.6-3.3c-0.6,1-1.3,1.9-1.9,2.5C485.3,166.6,485.1,166.9,484.8,167.1z M490.3,172.8c0.9,1.7,1.6,3.1,2.2,4.4     l-1.5,1c-0.5-1.4-1.1-2.9-1.9-4.7L490.3,172.8z"/>
			<path class="st0" d="M494.9,165.9h6.6v-3.8h1.9v3.8h7.3c-0.1,6.6-0.4,10.4-0.8,11.5c-0.4,1.1-1.4,1.7-2.9,1.7     c-1.3,0-2.2,0-2.8-0.1l-0.5-2.1c1.1,0.1,2.2,0.2,3.3,0.2c0.7,0,1.2-0.5,1.4-1.6c0.2-0.7,0.3-3.3,0.4-7.9h-5.4     c-0.2,2.9-0.9,5.2-1.9,7.1c-1.2,2-3.1,3.6-5.8,4.7l-1-1.7c2.7-1.2,4.5-2.6,5.4-4.4c0.8-1.5,1.3-3.4,1.4-5.7h-6.5V165.9z"/>
			<path class="st0" d="M524.3,170.8c0,0.7-0.3,1.3-0.8,1.8c-0.5,0.5-1.1,0.7-1.9,0.7c-0.7,0-1.3-0.2-1.9-0.7     c-0.5-0.5-0.8-1.1-0.8-1.8s0.3-1.3,0.8-1.8c0.5-0.5,1.1-0.7,1.9-0.7c0.7,0,1.3,0.2,1.9,0.7C524.1,169.5,524.3,170.1,524.3,170.8z      M523,170.8c0-0.3-0.1-0.6-0.4-0.9c-0.2-0.3-0.6-0.4-0.9-0.4c-0.4,0-0.7,0.1-0.9,0.4c-0.3,0.2-0.4,0.5-0.4,0.9     c0,0.3,0.1,0.6,0.4,0.9c0.2,0.3,0.5,0.4,0.9,0.4c0.4,0,0.7-0.1,0.9-0.4C522.9,171.5,523,171.2,523,170.8z"/>
		</g>
	</g>
	<rect x="59.2" y="68" class="st1" width="418.3" height="1.2"/>
	<rect x="59.2" class="st1" width="418.3" height="1.2"/>
</g>
</svg>