<?xml version="1.0" encoding="UTF-8"?>
<!-- Generator: Adobe Illustrator 21.0.2, SVG Export Plug-In . SVG Version: 6.00 Build 0)  -->
<svg version="1.1" id="圖層_1" xmlns="http://www.w3.org/2000/svg" xmlns:xlink="http://www.w3.org/1999/xlink" x="0px" y="0px" width="279.4px" height="160.3px" viewBox="0 0 279.4 160.3" style="enable-background:new 0 0 279.4 160.3;" xml:space="preserve">
<style type="text/css">
	.st0{fill:#FFFFFF;}
	.st1{fill:#A69F96;}
</style>
<g>
	<g>
		<path class="st0" d="M86.8,13.2h9.4V16h-3.7c-0.4,1.8-0.8,3.5-1.3,5.2h5v12.3h-4.8v2.1h-2.8v-8.4c-0.1,0.2-0.2,0.3-0.3,0.5    l-1.9-2.3c0.9-1.6,1.7-3.4,2.3-5.3c0.4-1.4,0.8-2.7,1.1-4h-2.8V13.2z M91.3,30.7h2v-6.8h-2V30.7z M97.2,13.1h12.1v2.8h-1.6v6.3    h2.3v2.9h-2.3v11h-3v-11h-2.6v0.2c0,2.3-0.4,4.5-1.1,6.4c-0.6,1.8-1.5,3.2-2.5,4.3l-2.4-2c1.1-1.2,1.8-2.6,2.3-4.2    c0.5-1.5,0.7-3.1,0.7-4.6v-0.2h-2.3v-2.9h2.3v-6.3h-2V13.1z M104.7,22.2v-6.3h-2.6v6.3H104.7z"/>
		<path class="st0" d="M117.9,12.2l2.8,0.8c-0.6,1.9-1.3,3.8-2.1,5.7v17.2h-2.8V23.9c-0.2,0.3-0.5,0.7-0.7,1l-1.5-2.8    C115.5,18.9,117,15.6,117.9,12.2z M119.7,17.4h2.7v15h-2.7V17.4z M125.5,12.5l2.8,0.9c-0.1,0.3-0.2,0.6-0.3,0.9h8.2V17h-1.4    c-0.6,1.2-1.4,2.2-2.3,3c0.1,0,0.1,0,0.2,0.1c0.9,0.5,2.6,0.9,4.8,1.4l-1.3,2.8c-1.7-0.4-3.3-0.9-4.6-1.4c0,0,0,0,0,0l1.4,1.6    c-1.1,0.9-2.3,1.6-3.6,2.2c-1.1,0.6-2.5,1.1-4.2,1.6l-1.7-2.6c1.6-0.4,3.1-0.9,4.3-1.5c1.2-0.5,2.2-1.1,3-1.7    c-0.3-0.1-0.5-0.2-0.8-0.4c-1.7,1-3.6,1.9-5.8,2.4l-1.3-2.6c1.7-0.4,3.2-1,4.5-1.6c-0.6-0.4-1-0.9-1.4-1.3    c-0.3,0.5-0.6,0.9-0.8,1.3l-2.4-1.7c0.6-0.9,1.2-1.8,1.6-2.8C124.8,14.7,125.2,13.6,125.5,12.5z M135.3,28.5l2,2.1    c-1.6,1.5-3.4,2.6-5.4,3.4c-2.4,0.9-4.8,1.6-7.3,2l-1.5-2.5c2.9-0.5,5.4-1.2,7.3-2C132.1,30.8,133.8,29.8,135.3,28.5z M133.4,25.3    l1.9,2.2c-1.4,1.1-3,2-4.7,2.7c-1.5,0.7-3.3,1.3-5.6,1.9l-1.8-2.7c2.1-0.6,4.1-1.2,5.7-1.9C130.7,26.9,132.2,26.2,133.4,25.3z     M128,17c0.5,0.5,1,0.9,1.5,1.3c0.1,0.1,0.3,0.2,0.4,0.3c0.5-0.5,1-1,1.4-1.6H128z"/>
		<path class="st0" d="M143.6,12.6l2.7,0.8c-0.1,0.6-0.3,1.2-0.5,1.8h1.2v-2.7h2.8v2.7h4.8V18h-4.8V20h5.8v2.8h-5.8v1.5h5.5v6.6    c0,2.2-1.1,3.4-3.4,3.4c-0.3,0-0.7-0.1-1.2-0.2l-0.6-3c0.7,0.3,1.3,0.4,1.8,0.4c0.4,0,0.5-0.4,0.5-1.3v-3.2h-2.7v9.2h-2.8v-9.2    h-2.5V34h-2.8v-9.8h5.3v-1.5h-5.7V20h1.8l-2.1-1.6c0.6-0.8,1.1-1.7,1.5-2.8C143,14.6,143.4,13.6,143.6,12.6z M147.1,20V18h-2.3    c-0.3,0.7-0.7,1.4-1,1.9H147.1z M156.6,15h2.8v15h-2.8V15z M161,12.5h2.8v19.6c0,1.4-0.2,2.4-0.6,2.9c-0.5,0.6-1.3,0.9-2.5,0.9    c-1.1,0-2.2-0.1-3.2-0.3l-0.5-2.9c1.1,0.3,2.2,0.4,3.3,0.4c0.3,0,0.4-0.1,0.5-0.3c0.1-0.3,0.2-0.7,0.2-1.3V12.5z"/>
		<path class="st0" d="M179.5,12.5h3v1.7h9.3v2.9h-4.4V19h3.4v2.6h-3.4v4h-10.8v-4h-3.6v3.1c0,2.2-0.2,4.2-0.6,6.2    c-0.3,1.6-0.7,3.3-1.4,5l-2.9-1.8c0.7-2.1,1.1-3.9,1.3-5.4c0.3-1.9,0.4-3.8,0.4-5.7v-9h9.4V12.5z M176.1,29.1h-1.8v-2.6h15.2v2.1    c-1.1,1.4-2.3,2.6-3.8,3.6c1.7,0.4,3.7,0.8,6,1l-1.1,3c-3.3-0.4-6.1-1.1-8.5-2.1c-2.4,1-5.1,1.7-8.1,2.1l-1.5-2.9    c2.5-0.3,4.6-0.7,6.4-1.1C178,31.2,177,30.2,176.1,29.1z M176.7,19v-1.9h-3.6V19H176.7z M184.6,19v-1.9h-5.1V19H184.6z     M179.5,21.7V23h5.1v-1.3H179.5z M182.4,30.9c1.2-0.5,2.2-1.1,3-1.8h-5.7C180.5,29.8,181.4,30.4,182.4,30.9z"/>
	</g>
	<g>
		<path class="st0" d="M1,100c0.3,0.6,0.5,1.3,0.7,2l-1,0.4c-0.2-0.8-0.5-1.5-0.7-2.1L1,100z M2,99.5h1.1v3.3H4v-3.3h1.1v3.3h1.6    v1.2h-1l-0.5,1.5h1.2v1.1H4.2v1.3h2.3v1.1H4.2v1.5c1-0.1,1.8-0.3,2.6-0.4v1.1c-1.2,0.3-3.3,0.6-6.4,0.9l-0.2-1.3    c1,0,1.9-0.1,2.7-0.1v-1.6H0.5V108h2.4v-1.3H0.5v-1.1h1.2L1.2,104h-1v-1.2H2V99.5z M2.8,105.6h1.2l0.5-1.5H2.3L2.8,105.6z     M6.3,99.9l0.9,0.4c-0.3,0.8-0.6,1.5-1,2.1l-1-0.7C5.7,101.2,6,100.6,6.3,99.9z M8.2,105.1c0.6,1,1,2.1,1.5,3.2l-1.2,0.5    c-0.4-1.3-0.9-2.4-1.5-3.4L8.2,105.1z M7.1,102.4h3.2v-2.8h1.4v2.8h1.2v1.1h-1.2v7.2c0,0.5-0.1,0.9-0.4,1.1    c-0.2,0.2-0.6,0.3-1.2,0.3H8l-0.3-1.4c0.8,0.1,1.4,0.1,1.9,0.1c0.4,0,0.5-0.1,0.5-0.3v-7H7.1V102.4z"/>
		<path class="st0" d="M21.4,99.7h0.7c0.9,1.2,1.8,2.1,2.8,2.7c0.8,0.6,1.8,1,3.1,1.4l-0.9,1.4c-1.3-0.5-2.3-1-3-1.5    c-0.8-0.6-1.8-1.5-2.7-2.8c-0.6,0.9-1.3,1.7-2.1,2.3c-1,0.8-2.2,1.4-3.6,2l-0.8-1.4c1.6-0.6,2.8-1.2,3.7-2    c0.8-0.5,1.4-1.3,2.1-2.2H21.4z M21.1,103.2h1.4v3h3.8v1.3h-3.8v3h4.9v1.3H15.2v-1.3h2.1v-5.2h1.3v5.2h2.5V103.2z"/>
		<path class="st0" d="M34.2,99.4h1.3v2.2h1.3v-2.2h1.2v2.2h1c0.3-0.5,0.6-1.1,0.9-1.9l1.3,0.5c-0.3,0.6-0.5,1-0.8,1.4h2.1v1.1h-3.9    l1,0.3c-0.2,0.3-0.4,0.6-0.6,0.9h3v1.1h-5.2v0.8h4.9v1h-4.9v0.8h5.7v1.1h-4.5c0.6,0.6,1.2,0.9,1.7,1.2c0.7,0.3,1.6,0.6,2.8,0.9    l-0.7,1.1c-1.4-0.4-2.4-0.8-3.1-1.3c-0.6-0.4-1.2-1-1.8-1.7v3.2h-1.3v-3.2c-0.4,0.5-0.8,0.9-1.2,1.2c-0.8,0.6-2,1.2-3.6,1.8    l-0.7-1.1c1.6-0.5,2.7-1,3.4-1.4c0.4-0.2,0.7-0.4,1-0.7h-4.5v-1.1h5.6v-0.8h-4.8v-1h4.8V105h-5.1v-1.1h3.1    c-0.1-0.3-0.3-0.6-0.5-0.9l0.9-0.3h-4v-1.1h2c-0.2-0.5-0.4-1-0.6-1.5l1.3-0.4c0.3,0.5,0.5,1.2,0.7,1.9h1V99.4z M34.7,103.9h2.7    c0.3-0.4,0.5-0.8,0.7-1.2h-4C34.4,103.1,34.6,103.5,34.7,103.9z"/>
		<path class="st0" d="M56.9,101.3v1.3H53c0.1,2,0.4,3.6,0.8,4.7c0.7-1,1.3-2.2,1.8-3.8l1.2,0.5c-0.8,2.1-1.6,3.6-2.4,4.6    c0.6,1.2,1.1,1.8,1.3,1.8c0.2,0,0.3-0.7,0.5-2l1.1,0.8c-0.3,1.3-0.6,2.1-0.9,2.4c-0.2,0.2-0.4,0.3-0.6,0.3c-0.6,0-1.2-0.3-1.8-1    c-0.3-0.4-0.6-0.8-0.8-1.2c-0.9,0.8-2,1.5-3.3,2.2l-0.8-1.2c1.4-0.7,2.6-1.4,3.5-2.3c-0.2-0.5-0.3-1-0.5-1.5    c-0.3-1.2-0.5-2.7-0.6-4.5H47v1.7h3.8c0,2.5-0.2,4.1-0.3,4.8c-0.2,0.8-0.7,1.2-1.4,1.2h-1.8l-0.2-1.3c0.9,0.1,1.6,0.1,2.1,0.1    c0.1,0,0.2-0.2,0.3-0.6c0.1-0.5,0.1-1.4,0.1-2.9H47c0,1-0.1,2-0.3,3.1c-0.3,1.3-0.7,2.6-1.2,3.8l-1.1-1c0.5-1,0.9-2.1,1.1-3.2    c0.2-1.1,0.2-2.2,0.2-3.2v-3.7h5.9c0-0.6,0-1.3,0-2h1.3c0,0.7,0,1.3,0,2h2c-0.4-0.4-0.8-0.8-1.4-1.1l0.9-0.8    c0.7,0.4,1.2,0.8,1.7,1.2l-0.7,0.7H56.9z"/>
		<path class="st0" d="M71.1,99.8v1.2h-8.3v0.8h7.8v1.1h-7.8v0.9h7.8v1.1h-7.8v0.9h9.2v1.2h-6.3c0.4,0.7,0.8,1.2,1.4,1.7    c1-0.3,1.9-0.9,2.7-1.6l1,0.9c-0.7,0.6-1.6,1.1-2.5,1.4c1,0.6,2.3,1.1,3.9,1.5l-0.8,1.3c-2.2-0.7-3.9-1.6-5-2.5    c-1-0.8-1.7-1.7-2.1-2.8h-1.9v3.4c1-0.2,2-0.4,3-0.7v1.3c-1.7,0.5-3.5,0.9-5.6,1.1l-0.2-1.4c0.5,0,1-0.1,1.5-0.2v-3.6h-1.7v-1.2    h2.1v-6H71.1z"/>
		<path class="st0" d="M74.7,100.8h5.1v-1.3h1.3v1.3h5.2v1.3h-5.2v3.1c0.5,1.1,1.2,2,2,2.8c0.8,0.9,2.1,1.8,3.8,2.7l-0.9,1.1    c-1.3-0.8-2.3-1.6-3.1-2.3c-0.7-0.6-1.2-1.3-1.7-2.1v4.7h-1.3v-4.7c-0.5,0.7-1,1.3-1.5,1.8c-0.9,0.9-2,1.8-3.4,2.7l-0.7-1.3    c1.3-0.7,2.5-1.6,3.5-2.6c0.8-0.8,1.4-1.7,2.1-2.7v-3.2h-5.1V100.8z M76.8,102.4l1.2,0.2c-0.2,0.7-0.3,1.3-0.5,1.8    c0.5,0.4,1,0.9,1.5,1.5l-0.7,1.1c-0.4-0.6-0.8-1.1-1.2-1.5c-0.4,0.8-0.9,1.6-1.7,2.4l-0.8-1c0.6-0.7,1.1-1.3,1.4-2    C76.3,104.2,76.6,103.4,76.8,102.4z M83.5,102.4l1.3,0.2c-0.2,0.7-0.3,1.2-0.5,1.7c0.8,0.6,1.5,1.3,2.2,2.1l-0.7,1.1    c-0.7-0.9-1.3-1.6-2-2.2c-0.3,0.5-0.7,1-1.2,1.6l-0.9-1.1c0.5-0.5,0.9-1,1.2-1.5C83.1,103.8,83.3,103.2,83.5,102.4z"/>
		<path class="st0" d="M91.6,99.4c0.2,0.4,0.4,1,0.6,1.5h2v1.1h-5.3v-1.1h2.1c-0.2-0.5-0.4-1-0.7-1.4L91.6,99.4z M89.3,102.9h4.3    v1.1h-4.3V102.9z M89.3,104.9h4.4v1.1h-4.4V104.9z M93.6,107v4h-3.1v0.9h-1.3V107H93.6z M90.5,109.8h1.9v-1.7h-1.9V109.8z     M95.6,99.5c0.6,0.6,1.1,1.3,1.5,2l-0.8,0.3h2.7l-0.8-0.6c0.5-0.5,1-1.2,1.5-1.9l1,0.5c-0.4,0.8-0.8,1.5-1.3,2h1.5v4.8h-1.7v3.7    c0,0.2,0.1,0.3,0.4,0.3c0.6,0,0.9-0.1,0.9-0.4v-1.8l1.1,0.5c0,1.3-0.2,2.2-0.5,2.5c-0.3,0.2-0.8,0.4-1.6,0.4c-0.6,0-1-0.1-1.3-0.3    c-0.3-0.2-0.4-0.5-0.4-0.9v-4h-0.8c-0.1,1.5-0.3,2.6-0.6,3.3c-0.4,0.8-1.1,1.6-2.1,2.2l-0.9-1.1c0.9-0.5,1.4-1,1.8-1.7    c0.3-0.5,0.5-1.5,0.6-2.8h-1.5v-4.8h1.4c-0.4-0.7-0.9-1.4-1.4-2L95.6,99.5z M99.7,105.6V103h-4v2.5H99.7z"/>
		<path class="st0" d="M111,105.9c0,0.5-0.1,1-0.4,1.3c-0.2,0.3-0.6,0.6-1.1,0.9l-0.5-0.7c0.7-0.3,1-0.7,1.1-1.2h-0.9v-1.7h1.7    V105.9z"/>
		<path class="st0" d="M118.5,104.5h12.9v1.1H125v6.7h-1.2v-1.4c-1.5,0.2-3.1,0.4-5,0.5l-0.3-1.2c0.4,0,0.8,0,1.2-0.1v-4.6h-1.2    V104.5z M120,99.7h10v4.3h-10V99.7z M120.9,106.5h2.8v-0.9h-2.8V106.5z M120.9,108.2h2.8v-0.8h-2.8V108.2z M120.9,110.1    c1-0.1,1.9-0.1,2.8-0.2v-0.7h-2.8V110.1z M121.4,101.4h7.3v-0.7h-7.3V101.4z M128.7,103v-0.8h-7.3v0.8H128.7z M125.4,106.3h5.4    v0.9c-0.3,1.2-0.9,2.3-1.6,3.2c0.6,0.3,1.3,0.6,2.2,0.9l-0.6,1c-1-0.4-1.8-0.7-2.4-1.1c-0.7,0.4-1.5,0.8-2.6,1.1l-0.7-1.1    c0.9-0.3,1.6-0.6,2.2-0.9c-0.6-0.6-1.2-1.3-1.6-2.1l0.9-0.5c0.4,0.8,0.9,1.5,1.5,2c0.1-0.1,0.2-0.2,0.2-0.2    c0.5-0.6,0.9-1.2,1.1-2.1h-4.2V106.3z"/>
		<path class="st0" d="M145,99.4l0.5,1c-1.5,0.2-3.2,0.4-5.2,0.5v0.8h5.6v1.1h-5.6v0.8h4.6v4.5h-4.6v0.7h5.2v1.1h-5.2v0.8h5.7v1.1    h-12.6v-1.1h5.6V110h-5.1v-1.1h5.1v-0.7h-4.6v-4.5h4.6v-0.8h-5.5v-1.1h5.5v-0.8c-1.5,0.1-3.1,0.1-4.8,0.1l-0.3-1    C138.3,100,141.9,99.8,145,99.4z M135.7,105.4h3.3v-0.8h-3.3V105.4z M139,107.2v-0.9h-3.3v0.9H139z M140.3,104.6v0.8h3.3v-0.8    H140.3z M143.6,107.2v-0.9h-3.3v0.9H143.6z"/>
		<path class="st0" d="M148.3,99.9h12.6v1.1h-4.2v1.1h3.5v3.6h-5.6c-0.2,0.3-0.5,0.6-0.7,0.9h7.1v1.1h-2.7c-0.4,0.8-0.9,1.4-1.4,2    c1.4,0.4,2.8,0.9,4,1.4l-1.1,1.1c-1.2-0.6-2.6-1.1-4.1-1.6c-1.3,0.7-3.6,1.3-6.9,1.7l-0.5-1.2c2.6-0.2,4.5-0.5,5.7-0.9    c-1.2-0.3-2.5-0.6-4-0.8c0.5-0.5,1-1,1.4-1.5h-3.4v-1.1h4.3c0.2-0.3,0.5-0.6,0.7-0.9h-4.2v-3.6h3.4V101h-4V99.9z M152.3,104.6    v-1.4h-2.1v1.4H152.3z M155.5,109.4c0.5-0.4,1-0.9,1.4-1.6h-4c-0.3,0.3-0.5,0.6-0.8,0.9C153.6,108.9,154.7,109.2,155.5,109.4z     M155.4,102.1V101h-1.9v1.1H155.4z M155.4,104.6v-1.4h-1.9v1.4H155.4z M158.9,104.6v-1.4h-2.2v1.4H158.9z"/>
		<path class="st0" d="M165.9,99.4l1.2,0.2c-0.2,0.7-0.4,1.4-0.7,2h2v2.9c0.4-0.7,0.7-1.4,1-2c0.3-0.8,0.5-1.8,0.7-3.1l1.4,0.2    c-0.1,0.8-0.3,1.4-0.4,2h4.3c0,4.9-0.1,7.8-0.2,8.7c-0.1,0.7-0.4,1.2-0.7,1.4c-0.4,0.3-1.1,0.4-2.2,0.4c-0.3,0-0.7,0-1.1-0.1    l-0.2-1.4c0.4,0.1,0.8,0.1,1.3,0.1c0.9,0,1.4-0.3,1.5-0.9c0.2-0.7,0.3-3.1,0.3-7.1h-3.3c0,0.1-0.1,0.2-0.1,0.2    c-0.3,1-0.8,2.1-1.5,3.2l-0.7-0.8v5.7h-1.2v-0.7h-2.6v1.1h-1.2v-10h1.7C165.5,100.9,165.7,100.2,165.9,99.4z M164.7,105.5h2.6    v-2.7h-2.6V105.5z M164.7,109.4h2.6v-2.8h-2.6V109.4z M171.2,104.7c0.8,1.3,1.4,2.4,1.9,3.3l-1.3,0.9c-0.4-1-0.9-2.2-1.6-3.5    L171.2,104.7z"/>
		<path class="st0" d="M177.8,105.6h12.8v1.2H185v1.3h4.8v1.1H185v1.4c0.7,0.1,1.5,0.1,2.4,0.1c1.3,0,2.4,0,3.3-0.1l-0.4,1.4    c-4.3,0-6.8-0.2-7.7-0.5c-0.8-0.3-1.5-0.8-2.1-1.7c-0.4,0.8-1,1.6-1.9,2.4l-1-1.2c0.7-0.6,1.3-1.2,1.7-1.8    c0.4-0.6,0.7-1.3,0.9-2.3l1.4,0.2c-0.2,0.6-0.3,1.1-0.5,1.5c0.6,0.8,1.3,1.3,2.1,1.6c0.2,0.1,0.3,0.1,0.5,0.1v-3.7h-6V105.6z     M179.2,99.7h10v5.1h-10V99.7z M180.6,101.7h7.3v-0.9h-7.3V101.7z M187.8,103.6v-0.9h-7.3v0.9H187.8z"/>
		<path class="st0" d="M195.1,99.4c0.1,0.4,0.2,1,0.2,1.5h1.6v1.1h-4.4v-1.1h1.5c-0.1-0.5-0.2-1-0.3-1.4L195.1,99.4z M192.8,103h3.7    v1.1h-3.7V103z M192.8,105.1h3.8v1.1h-3.8V105.1z M196.7,107.2v4h-2.5v0.9h-1.3v-4.9H196.7z M194.2,110.1h1.3v-1.7h-1.3V110.1z     M197.6,101.7h3.4v2.2h-0.9v0.7h2.1v-0.7h-0.7v-2.2h3.4v2.2h-1.5v0.7h1.9v0.9h-1.9v0.7h1.6v0.9h-1.6v0.7h2v0.9h-3.1    c0.3,0.5,0.6,0.9,0.9,1.2c0.1-0.1,0.3-0.2,0.4-0.4c0.2-0.2,0.4-0.4,0.6-0.7l0.9,0.6c-0.2,0.4-0.5,0.7-0.7,0.9    c-0.1,0.1-0.2,0.2-0.4,0.3c0.4,0.3,1,0.5,1.6,0.8l-0.6,1c-1-0.4-1.8-0.9-2.3-1.4c-0.5-0.5-1-1.2-1.5-2.1c-0.3,0.3-0.6,0.5-0.9,0.7    v1.3c0.6-0.1,1.2-0.2,1.8-0.4v1c-1.1,0.3-2.4,0.6-3.8,0.8l-0.3-1.1c0.4-0.1,0.8-0.1,1.2-0.2v-0.9c-0.5,0.2-1,0.4-1.7,0.6l-0.4-1    c0.9-0.2,1.6-0.4,2.1-0.7c0.2-0.1,0.3-0.2,0.5-0.2H197v-0.9h1.9V107h-1.4v-0.9h1.4v-0.7h-1.7v-0.9h1.7v-0.7h-1.3V101.7z     M201.5,99.4c0.1,0.3,0.2,0.6,0.3,0.9h3.4v1h-8.1v-1h3.4c-0.1-0.2-0.2-0.5-0.3-0.7L201.5,99.4z M200,103.2v-0.8h-1.3v0.8H200z     M202.2,106.2v-0.7h-2.1v0.7H202.2z M202.2,107.7V107h-2.1v0.7H202.2z M203.8,103.2v-0.8h-1.3v0.8H203.8z"/>
		<path class="st0" d="M211.6,110l0.8,0.9c-1.5,0.6-3,1-4.5,1.3l-0.6-1.3C209,110.8,210.4,110.4,211.6,110z M208.5,103.5h10.5v6.4    h-10.5V103.5z M208.9,99.9h9.9v3h-9.9V99.9z M209.8,105.3h7.9v-0.8h-7.9V105.3z M209.8,107.1h7.9v-0.9h-7.9V107.1z M217.8,108.9    v-0.8h-7.9v0.8H217.8z M217.5,101.8v-0.9h-7.2v0.9H217.5z M215.6,110c1.7,0.3,3.2,0.7,4.6,1.1l-0.8,1.1c-1.5-0.5-3-0.9-4.5-1.2    L215.6,110z"/>
		<path class="st0" d="M222.8,100.6h11.5v1.3h-5v8.3h5.6v1.3h-12.6v-1.3h5.5v-8.3h-5V100.6z"/>
		<path class="st0" d="M249.4,101.3v1.3h-3.9c0.1,2,0.4,3.6,0.8,4.7c0.7-1,1.3-2.2,1.8-3.8l1.2,0.5c-0.8,2.1-1.6,3.6-2.4,4.6    c0.6,1.2,1.1,1.8,1.3,1.8c0.2,0,0.3-0.7,0.5-2l1.1,0.8c-0.3,1.3-0.6,2.1-0.9,2.4c-0.2,0.2-0.4,0.3-0.6,0.3c-0.6,0-1.2-0.3-1.8-1    c-0.3-0.4-0.6-0.8-0.8-1.2c-0.9,0.8-2,1.5-3.3,2.2l-0.8-1.2c1.4-0.7,2.6-1.4,3.5-2.3c-0.2-0.5-0.3-1-0.5-1.5    c-0.3-1.2-0.5-2.7-0.6-4.5h-4.7v1.7h3.8c0,2.5-0.2,4.1-0.3,4.8c-0.2,0.8-0.7,1.2-1.4,1.2h-1.8l-0.2-1.3c0.9,0.1,1.6,0.1,2.1,0.1    c0.1,0,0.2-0.2,0.3-0.6c0.1-0.5,0.1-1.4,0.1-2.9h-2.5c0,1-0.1,2-0.3,3.1c-0.3,1.3-0.7,2.6-1.2,3.8l-1.1-1c0.5-1,0.9-2.1,1.1-3.2    c0.2-1.1,0.2-2.2,0.2-3.2v-3.7h5.9c0-0.6,0-1.3,0-2h1.3c0,0.7,0,1.3,0,2h2c-0.4-0.4-0.8-0.8-1.4-1.1l0.9-0.8    c0.7,0.4,1.2,0.8,1.7,1.2l-0.7,0.7H249.4z"/>
		<path class="st0" d="M263.6,99.8v1.2h-8.3v0.8h7.8v1.1h-7.8v0.9h7.8v1.1h-7.8v0.9h9.2v1.2h-6.3c0.4,0.7,0.8,1.2,1.4,1.7    c1-0.3,1.9-0.9,2.7-1.6l1,0.9c-0.7,0.6-1.6,1.1-2.5,1.4c1,0.6,2.3,1.1,3.9,1.5l-0.8,1.3c-2.2-0.7-3.9-1.6-5-2.5    c-1-0.8-1.7-1.7-2.1-2.8H255v3.4c1-0.2,2-0.4,3-0.7v1.3c-1.7,0.5-3.5,0.9-5.6,1.1l-0.2-1.4c0.5,0,1-0.1,1.5-0.2v-3.6H252v-1.2h2.1    v-6H263.6z"/>
		<path class="st0" d="M273.9,105.9c0,0.5-0.1,1-0.4,1.3c-0.2,0.3-0.6,0.6-1.1,0.9l-0.5-0.7c0.7-0.3,1-0.7,1.1-1.2h-0.9v-1.7h1.7    V105.9z"/>
		<path class="st0" d="M0.2,125.9h1.7v-2.5h1.3v2.5h1.6v1.2H3.1v2.6c0.5-0.2,0.9-0.5,1.4-0.8v1.4c-0.5,0.3-1,0.5-1.4,0.8v3.7    c0,0.5-0.1,0.9-0.3,1.1c-0.2,0.2-0.6,0.3-1.1,0.3h-1l-0.3-1.4c0.4,0.1,0.7,0.1,0.9,0.1c0.4,0,0.5-0.1,0.5-0.3v-2.9    c-0.5,0.2-1,0.4-1.5,0.5l-0.2-1.4c0.5-0.1,1.1-0.2,1.7-0.5v-3.2H0.2V125.9z M4.8,129.4h8.1v1.1H9.2v1.3h3.2v1.1H9.2v1.8    c0.4,0,0.9,0.1,1.5,0.1c0.9,0,1.7,0,2.3-0.1l-0.4,1.3c-2.9,0-4.7-0.1-5.3-0.4c-0.5-0.3-1-0.8-1.4-1.5c-0.4,0.7-1,1.4-1.6,2.1    l-1-0.9c0.7-0.7,1.2-1.4,1.6-2c0.3-0.5,0.5-1.2,0.6-2l1.3,0.2c-0.1,0.6-0.2,1-0.3,1.4c0.4,0.8,0.9,1.3,1.4,1.5c0,0,0.1,0,0.2,0.1    v-3.9H4.8V129.4z M5.5,123.9H12v4.7H5.5V123.9z M6.7,125.8h4V125h-4V125.8z M10.8,127.6v-0.8h-4v0.8H10.8z"/>
		<path class="st0" d="M17.7,123.4l1.1,0.5c-0.4,1.2-0.7,2.2-1.1,3v9.2h-1.3V129c-0.3,0.5-0.7,1-1.1,1.4l-0.5-1.6    c0.6-0.8,1.1-1.5,1.5-2.3C16.9,125.8,17.3,124.7,17.7,123.4z M18.6,126.1h2v-2.6h1.3v2.6H24v-2.6h1.3v2.6h2v1.2h-2v3.1h2.4v1.3    h-9.5v-1.3h2.2v-3.1h-2V126.1z M21.1,132.2l1.1,0.5c-0.7,1.4-1.5,2.6-2.4,3.6l-1.2-0.9C19.5,134.5,20.3,133.4,21.1,132.2z     M21.9,130.5H24v-3.1h-2.2V130.5z M24.8,132.1c1.2,1.2,2.2,2.2,2.8,3.1l-1.3,0.9c-0.6-1-1.5-2.1-2.6-3.3L24.8,132.1z"/>
		<path class="st0" d="M29.9,124.9h4.6c0.2-0.5,0.4-1,0.7-1.5l1.4,0.2c-0.2,0.5-0.3,0.9-0.5,1.3h6.3v1.3h-7    c-0.3,0.4-0.5,0.8-0.8,1.2h6.6v7.4c0,0.4-0.1,0.7-0.3,1c-0.2,0.2-0.6,0.4-1,0.4h-2.2l-0.3-1.2l2.1,0.1c0.3,0,0.4-0.1,0.4-0.4v-1.3    h-6.1v2.9h-1.3v-6.4c-0.6,0.5-1.3,1.1-2,1.6l-0.9-1.1c1.4-1,2.6-2,3.6-3.1c0.3-0.3,0.5-0.6,0.7-1h-3.9V124.9z M33.8,129.7h6.1    v-1.1h-6.1V129.7z M33.8,132.1h6.1v-1.3h-6.1V132.1z"/>
		<path class="st0" d="M48.4,123.5l0.4,1.1c-0.5,0.1-1.3,0.2-2.4,0.3v0.7h2.2v0.9h-2.2v0.7h2.2v1h-2.2v0.8h8.8v-0.8h-2.1v-1h2.1    v-0.7h-2.1v-0.9h2.1v-0.8h-2.2v-1.1h3.4l-0.1,5.2h0.6v2.7h-1.3V130H46v1.6h-1.3v-2.7h0.5v-5.1C46.3,123.8,47.3,123.7,48.4,123.5z     M47,130.8H55v1c-0.9,0.4-2,0.8-3.2,1.2H57v1.1h-5.3v1.2c0,0.3-0.1,0.5-0.2,0.7c-0.2,0.2-0.5,0.3-0.7,0.3h-2.1l-0.2-1.1    c0.5,0,1,0.1,1.6,0.1c0.3,0,0.4-0.1,0.4-0.3v-0.9H45V133h5.4v-0.5c0.8-0.2,1.6-0.4,2.5-0.7H47V130.8z M52,123.5l0.8,0.5    c-0.3,0.3-0.6,0.6-0.9,0.8c0.2,0.2,0.4,0.4,0.7,0.5l-0.7,0.7c-0.2-0.2-0.5-0.5-0.8-0.7c-0.5,0.3-1,0.5-1.7,0.8l-0.5-0.9    c0.5-0.1,1-0.3,1.4-0.5c-0.3-0.2-0.6-0.4-1-0.7l0.7-0.6c0.4,0.3,0.8,0.5,1.2,0.8C51.5,124,51.7,123.7,52,123.5z M52.2,126.1    l0.8,0.5c-0.4,0.4-0.7,0.7-1,0.9c0.3,0.2,0.6,0.4,0.8,0.6l-0.7,0.7c-0.3-0.3-0.6-0.5-0.9-0.8c-0.4,0.3-1,0.5-1.5,0.8l-0.5-0.9    c0.4-0.1,0.9-0.3,1.3-0.5c-0.3-0.2-0.6-0.4-0.9-0.6l0.7-0.6c0.4,0.2,0.7,0.5,1.1,0.7C51.5,126.7,51.8,126.4,52.2,126.1z"/>
		<path class="st0" d="M59.5,123.8h5.9v5.4l1.3,0.1c-0.1,0.3-0.2,0.6-0.3,0.8H71v6.1h-1.3v-0.6H62v0.6h-1.3v-6.1H65    c0.1-0.3,0.2-0.5,0.3-0.8h-1.1V125h-4.6V123.8z M63.6,126.9l0.3,1.1c-1,0.8-2.3,1.5-3.9,2.1l-0.5-1.2    C60.9,128.5,62.2,127.8,63.6,126.9z M60.6,125.2c0.8,0.4,1.5,0.8,2.1,1.3l-0.7,1.1c-0.7-0.6-1.3-1.1-2-1.5L60.6,125.2z M62,132.3    h7.7v-1H62V132.3z M62,134.5h7.7v-1.1H62V134.5z M65.9,123.8h5.9v6h-1.3V125h-4.5V123.8z M70,126.8l0.3,1.1c-1,0.5-2.3,1-3.8,1.4    l-0.5-1.1C67.3,127.8,68.7,127.4,70,126.8z M67,125.1c0.7,0.3,1.4,0.7,2,1.1l-0.7,1.1c-0.6-0.6-1.2-1-1.9-1.3L67,125.1z"/>
		<path class="st0" d="M75.8,132.8l1,0.5c-0.5,0.9-1.1,1.7-1.8,2.4L74,135C74.7,134.4,75.3,133.6,75.8,132.8z M80.5,123.4    c0.2,0.3,0.3,0.6,0.5,1h5.1v1h-2.4l-0.5,0.9h3.4v0.9H74.3v-0.9h3.4l-0.5-0.9h-2.3v-1h4.7c-0.1-0.3-0.3-0.5-0.5-0.8L80.5,123.4z     M75.6,128h9.7v4.3h-9.7V128z M76.9,129.7h7.2v-0.8h-7.2V129.7z M84.1,131.4v-0.9h-7.2v0.9H84.1z M77.6,132.7h1.2v1.8    c0,0.3,0.2,0.4,0.5,0.4h2.7c0.2,0,0.4-0.1,0.5-0.2c0.1-0.1,0.2-0.5,0.3-1.3l1.2,0.4c-0.1,1-0.3,1.7-0.6,1.8    c-0.2,0.2-0.6,0.3-1.2,0.3h-3.4c-0.4,0-0.7-0.1-0.9-0.3c-0.2-0.2-0.3-0.5-0.3-0.8V132.7z M79.1,126.3h2.8l0.5-0.9h-3.8L79.1,126.3    z M80.7,132.4c0.6,0.6,1.1,1.1,1.4,1.5l-1.1,0.8c-0.3-0.5-0.7-1.1-1.3-1.7L80.7,132.4z M85.2,132.7c0.7,0.8,1.3,1.6,1.8,2.2    l-1.1,0.8c-0.4-0.7-0.9-1.5-1.5-2.3L85.2,132.7z"/>
		<path class="st0" d="M92.4,126.4H93c1,1.1,2,2.3,3,3.7l-0.5,1.4c-0.2-0.3-0.4-0.6-0.5-0.8v4.5c0.8-0.9,1.5-2,2-3.4    c0.4-1.2,0.7-2.2,0.7-2.8v-1.7h1.3v1.7c0,0.8,0.2,1.7,0.6,2.7c0.5,1.2,1.2,2.3,2.3,3.5l-0.8,1c-0.7-0.6-1.2-1.3-1.7-1.9    c-0.5-0.7-0.9-1.6-1.1-2.7c-0.3,1-0.6,1.8-0.9,2.4c-0.4,0.8-0.9,1.6-1.7,2.4l-0.8-0.9v0.7h-1.3v-0.8h-2.4v1H90v-5.1    c-0.2,0.2-0.4,0.5-0.6,0.7l-0.6-1.3c1.2-1.1,2.2-2.5,3-4.2H92.4z M91.3,123.5l0.8,0.7c-0.6,1.1-1.4,2.1-2.4,3l-0.8-1    C89.9,125.5,90.7,124.6,91.3,123.5z M90.8,130.2h3.8c-0.7-1-1.4-1.8-2.1-2.6C92.1,128.5,91.5,129.4,90.8,130.2z M91.3,134h2.4    v-2.7h-2.4V134z M93.6,123.5c0.8,0.9,1.6,1.7,2.1,2.6l-0.9,0.9c-0.5-0.8-1.2-1.7-2.1-2.7L93.6,123.5z M97.5,126.4    c-0.3,1.2-0.7,2.1-1.2,2.7l-1.1-0.8c0.9-1.3,1.4-2.9,1.6-4.9l1.2,0.2c-0.1,0.6-0.2,1.1-0.3,1.6h3.8v1.1c-0.3,1.6-0.7,3.1-1.1,4.4    l-1.1-0.9c0.2-0.7,0.5-1.8,0.8-3.4H97.5z"/>
		<path class="st0" d="M106.6,123.4l1.2,0.2c-0.2,0.7-0.4,1.4-0.7,2h2v2.9c0.4-0.7,0.7-1.4,1-2c0.3-0.8,0.5-1.8,0.7-3.1l1.4,0.2    c-0.1,0.8-0.3,1.4-0.4,2h4.3c0,4.9-0.1,7.8-0.2,8.7c-0.1,0.7-0.4,1.2-0.7,1.4c-0.4,0.3-1.1,0.4-2.2,0.4c-0.3,0-0.7,0-1.1-0.1    l-0.2-1.4c0.4,0.1,0.8,0.1,1.3,0.1c0.9,0,1.4-0.3,1.5-0.9c0.2-0.7,0.3-3.1,0.3-7.1h-3.3c0,0.1-0.1,0.2-0.1,0.2    c-0.3,1-0.8,2.1-1.5,3.2l-0.7-0.8v5.7H108v-0.7h-2.6v1.1h-1.2v-10h1.7C106.3,124.9,106.5,124.2,106.6,123.4z M105.4,129.5h2.6    v-2.7h-2.6V129.5z M105.4,133.4h2.6v-2.8h-2.6V133.4z M111.9,128.7c0.8,1.3,1.4,2.4,1.9,3.3l-1.3,0.9c-0.4-1-0.9-2.2-1.6-3.5    L111.9,128.7z"/>
		<path class="st0" d="M123.5,124.6h-2.7v-1.1h5c0.9,1.5,2.8,2.8,5.7,4.1l-0.9,1.3c-0.4-0.2-0.8-0.4-1.1-0.6v0.8h-3.9v2.1h3.7v1.1    h-3.7v2.4h5.4v1.1h-12.1v-1.1h5.3v-2.4h-3.6v-1.1h3.6v-2.1h-3.8v-0.8c-0.3,0.2-0.7,0.4-1.1,0.5l-0.8-1.3c1.5-0.6,2.6-1.1,3.4-1.7    C122.5,125.6,123,125.1,123.5,124.6z M121,128h7.9c-0.6-0.3-1.2-0.7-1.6-1.1c-1-0.7-1.8-1.5-2.4-2.4c-0.4,0.7-0.9,1.2-1.4,1.7    C122.9,126.8,122.1,127.4,121,128z"/>
		<path class="st0" d="M138.3,123.7v3.6h0.4v2.5H138v5.1c0,0.4-0.1,0.7-0.3,1c-0.2,0.2-0.4,0.3-0.7,0.3h-0.8L136,135l0.6,0.1    c0.2,0,0.3-0.2,0.3-0.5v-0.8h-1.8v2.4h-1.1v-6.5h-0.6v-2.4h0.5v-3.6H138.3z M134.5,129.1h3v-0.8h-3V129.1z M134.8,127.3h0.7v-1.8    h1.8v-0.7h-2.5V127.3z M135.1,131h1.8v-0.9h-1.8V131z M135.1,132.9h1.8V132h-1.8V132.9z M136.5,127.3h0.8v-0.9h-0.8V127.3z     M138.8,129.4h7.3v1.1h-7.3V129.4z M139.4,131.1h6.1v2.7h-0.7l-0.5,1.1h1.8v1h-7.2v-1h1.9l-0.5-1.1h-0.9V131.1z M139.1,124.3h1.9    v-0.9h1v0.9h0.9v-0.9h1v0.9h2v4.5h-6.8V124.3z M140.1,126.1h0.9v-0.8h-0.9V126.1z M141,127.8v-0.9h-0.9v0.9H141z M144.4,132.8V132    h-3.8v0.8H144.4z M142,134.9h1.1l0.5-1.1h-2.1L142,134.9z M142,125.3v0.8h0.9v-0.8H142z M142.9,127.8v-0.9H142v0.9H142.9z     M143.9,125.3v0.8h0.9v-0.8H143.9z M144.8,127.8v-0.9h-0.9v0.9H144.8z"/>
		<path class="st0" d="M152.4,134l0.8,0.9c-1.5,0.6-3,1-4.5,1.3l-0.6-1.3C149.7,134.8,151.2,134.4,152.4,134z M149.3,127.5h10.5v6.4    h-10.5V127.5z M149.7,123.9h9.9v3h-9.9V123.9z M150.6,129.3h7.9v-0.8h-7.9V129.3z M150.6,131.1h7.9v-0.9h-7.9V131.1z M158.6,132.9    v-0.8h-7.9v0.8H158.6z M158.3,125.8v-0.9H151v0.9H158.3z M156.4,134c1.7,0.3,3.2,0.7,4.6,1.1l-0.8,1.1c-1.5-0.5-3-0.9-4.5-1.2    L156.4,134z"/>
		<path class="st0" d="M163.6,124.6h11.5v1.3h-5v8.3h5.6v1.3h-12.6v-1.3h5.5v-8.3h-5V124.6z"/>
		<path class="st0" d="M178.2,124.6h2.1v-1.1h1.3v1.1h1.8v1.1h-1.8v1.2h0.8c0.7-0.7,1.5-1.6,2.2-2.7l1,0.6c-0.6,0.8-1.1,1.5-1.6,2.1    h0.9v0.8c0.2-0.4,0.3-0.7,0.5-1.1c0.3-0.8,0.6-1.9,0.7-3.3l1.3,0.2c-0.1,0.8-0.3,1.5-0.4,2h3.6v1.1h-0.8c-0.1,2.3-0.5,4.2-1.2,5.7    c-0.1,0.1-0.1,0.2-0.2,0.3c0.6,0.9,1.4,1.7,2.3,2.3l-0.8,1.1c-0.9-0.7-1.7-1.5-2.3-2.3c-0.7,0.8-1.5,1.6-2.6,2.4l-0.7-1.1    c1.1-0.7,2-1.5,2.6-2.4c-0.5-1-1-2.2-1.4-3.4c-0.2,0.4-0.4,0.7-0.7,1.1l-0.9-1.1c0.3-0.4,0.5-0.8,0.8-1.2h-1.8    c-0.1,0.1-0.2,0.2-0.3,0.2c-0.4,0.3-0.7,0.6-1.2,1h2.4v1.1c-0.5,0.5-1,0.9-1.6,1.3v0.2c0.9-0.1,1.7-0.2,2.4-0.3v1.1    c-0.6,0.1-1.4,0.3-2.4,0.4v1.9c0,0.3-0.1,0.6-0.2,0.8c-0.2,0.3-0.5,0.4-0.7,0.4h-1.9l-0.3-1.3c0.5,0,1,0.1,1.5,0.1    c0.2,0,0.4-0.1,0.4-0.3v-1.3c-0.9,0.1-1.9,0.2-3,0.2l-0.2-1.3c1.1,0,2.2-0.1,3.2-0.1v-0.8c0.4-0.2,0.9-0.5,1.3-0.9h-2.5    c-0.5,0.3-1,0.6-1.6,0.9l-0.7-1.1c1.2-0.5,2.4-1.2,3.5-2.1h-3.4v-1.2h2.6v-1.2h-2.1V124.6z M186.3,127.7c0.3,1.5,0.8,2.8,1.3,3.8    c0.5-1.2,0.8-2.8,0.9-4.8h-1.9c0,0.1-0.1,0.3-0.1,0.4C186.4,127.3,186.3,127.5,186.3,127.7z"/>
		<path class="st0" d="M199.1,123.2c0.2,0.3,0.4,0.7,0.6,1.1h5.7v1.2h-3.3c1.3,0.8,2.3,1.6,3,2.2l-1.2,0.8c-0.3-0.3-0.7-0.7-1.1-1    c-2.1,0.3-5.3,0.5-9.6,0.7l-0.3-1.3c0.8,0,1.6,0,2.3,0c0.5-0.4,0.8-0.9,1.1-1.4h-3.8v-1.2h5.7c-0.2-0.3-0.4-0.6-0.6-0.9    L199.1,123.2z M203.8,128.6v6.1c0,0.5-0.1,0.8-0.4,1.1c-0.2,0.2-0.5,0.3-0.9,0.3h-2l-0.3-1.3l1.8,0.1c0.3,0,0.5-0.2,0.5-0.5v-0.4    h-7v2.2h-1.4v-7.5H203.8z M195.5,130.8h7v-1h-7V130.8z M195.5,132.8h7v-0.9h-7V132.8z M201.7,126.6c-0.3-0.2-0.6-0.4-0.8-0.6    l0.7-0.4h-3.7c-0.3,0.5-0.6,0.9-1.1,1.4C198.7,126.8,200.3,126.7,201.7,126.6z"/>
		<path class="st0" d="M207.4,126.1h1.4v-2.6h1.2v2.6h1.1v1.1h-1.1v0.8c0.5,0.6,1,1.3,1.5,2l-0.2,0.3h1.2c0-0.3,0-0.7,0-1    c-0.3,0-0.6,0.1-0.9,0.1l-0.2-1c0.2,0,0.4,0,0.6,0c0.3-0.4,0.6-0.9,0.9-1.5c-0.5,0.1-1,0.2-1.5,0.3l-0.2-0.9c0.2,0,0.4,0,0.5-0.1    c0.5-0.8,0.8-1.7,1-2.6l1,0.1c-0.2,0.9-0.5,1.6-0.9,2.4c0.2,0,0.4-0.1,0.6-0.1c0.2-0.4,0.3-0.7,0.5-1.1l0.9,0.3    c-0.6,1.3-1.2,2.4-1.8,3.2c0.3,0,0.6-0.1,0.9-0.1c-0.1-0.3-0.1-0.5-0.2-0.8l0.7-0.2c0.3,0.8,0.6,1.4,0.7,2.1l-0.9,0.3    c0-0.2-0.1-0.4-0.1-0.6c-0.2,0-0.4,0.1-0.6,0.1c0,0.4,0,0.8,0,1.1h1.8c-0.2-1.5-0.4-3.8-0.4-6.9h1.1c0.1,3.3,0.2,5.6,0.4,6.9h1.3    c-0.1-0.3-0.2-0.6-0.4-0.9c-0.2,0-0.5,0.1-0.8,0.1l-0.3-1c0.2,0,0.4,0,0.6,0c0.3-0.5,0.6-1,0.9-1.6c-0.5,0.1-1,0.2-1.5,0.3    l-0.2-0.9c0.2,0,0.4,0,0.5-0.1c0.4-0.8,0.7-1.7,0.9-2.6l1,0.1c-0.2,0.9-0.5,1.7-0.8,2.4c0.2,0,0.4-0.1,0.6-0.1    c0.1-0.3,0.3-0.6,0.4-0.9l0.9,0.3c-0.5,1.3-1.1,2.3-1.6,3.1c0.3,0,0.6-0.1,0.9-0.2c-0.1-0.2-0.1-0.5-0.2-0.7l0.7-0.2    c0.3,0.7,0.5,1.4,0.7,2l-0.9,0.3c0-0.2-0.1-0.4-0.2-0.6c-0.2,0.1-0.4,0.1-0.7,0.2c0.1,0.3,0.3,0.6,0.4,1h1.3v1h-3.5    c0.1,0.6,0.3,1.1,0.5,1.6c0.3-0.4,0.6-0.8,0.9-1.3l0.9,0.5c-0.4,0.7-0.9,1.3-1.4,1.8c0.4,0.7,0.8,1.1,1.1,1.1    c0.1,0,0.1-0.1,0.2-0.2c0.1-0.1,0.1-0.7,0.2-1.8l1.1,0.6c-0.1,1-0.3,1.7-0.5,2.1c-0.2,0.3-0.5,0.4-0.8,0.4c-0.6,0-1.2-0.5-1.9-1.5    l0,0c-0.6,0.5-1.5,1-2.6,1.4l-0.6-0.9c1-0.4,1.9-0.8,2.5-1.3c0,0,0.1-0.1,0.1-0.1c-0.3-0.7-0.6-1.4-0.8-2.4h-2.1    c0,0.2,0,0.3-0.1,0.5c0.7,0.4,1.3,0.9,1.8,1.4l-0.7,1c-0.5-0.5-0.9-1-1.4-1.3c-0.2,0.7-0.4,1.3-0.7,1.7c-0.3,0.5-0.7,1-1.3,1.6    l-0.8-1.1c0.6-0.5,1-1,1.3-1.5c0.2-0.4,0.4-1.1,0.6-2c0-0.1,0-0.2,0-0.3h-1.4v-0.7l-0.2,0.3c-0.3-0.6-0.6-1.1-0.8-1.6v6.8h-1.2v-6    c-0.3,0.9-0.7,1.7-1.1,2.5l-0.5-1.4c0.6-1.1,1.2-2.4,1.6-3.8v-0.3h-1.4V126.1z"/>
		<path class="st0" d="M228.5,123.4h0.6c1.7,1,3.6,2,5.9,2.8l-0.5,1.3c-0.1-0.1-0.3-0.1-0.4-0.2v3.6h-10.9v-3.6    c-0.2,0.1-0.3,0.1-0.5,0.2l-0.5-1.2c2-0.7,3.9-1.7,5.7-2.9H228.5z M233.4,131.5v4.8h-1.3v-0.5h-7v0.5h-1.3v-4.8H233.4z M223.9,127    h9.5c-0.8-0.4-1.6-0.8-2.3-1.1v0.6h-5v-0.6C225.3,126.3,224.6,126.7,223.9,127z M227.9,129.9V128h-3.6v1.9h1.8    c-0.2-0.4-0.5-0.8-0.8-1.3l0.8-0.5c0.4,0.5,0.8,0.9,1,1.2l-0.8,0.5H227.9z M225.1,133.2h7v-0.8h-7V133.2z M225.1,134.9h7V134h-7    V134.9z M226.7,125.5h3.7c-0.7-0.4-1.3-0.7-1.9-1.1C227.9,124.8,227.3,125.2,226.7,125.5z M232.8,129.9V128h-3.7v1.9h1.8l-0.8-0.6    c0.3-0.3,0.6-0.7,0.9-1.2l0.9,0.4c-0.2,0.5-0.5,1-0.8,1.4H232.8z"/>
		<path class="st0" d="M244.2,129.9c0,0.5-0.1,1-0.4,1.3c-0.2,0.3-0.6,0.6-1.1,0.9l-0.5-0.7c0.7-0.3,1-0.7,1.1-1.2h-0.9v-1.7h1.7    V129.9z"/>
		<path class="st0" d="M251.9,125.2h4.5c0.3-0.6,0.5-1.2,0.8-1.8l1.4,0.2c-0.2,0.6-0.4,1.2-0.6,1.7h6.5v1.3h-7.2    c-0.3,0.5-0.6,1-1,1.5c-0.4,0.5-0.8,1-1.2,1.4v6.8h-1.4v-5.5c-0.3,0.3-0.6,0.5-1,0.8l-0.9-1.1c1.3-1,2.4-2.1,3.3-3.2    c0.2-0.2,0.3-0.4,0.5-0.7h-3.8V125.2z M256.1,129.9h3.3v-2.8h1.4v2.8h3.1v1.2h-3.1v3.4h3.7v1.2h-9v-1.2h3.9v-3.4h-3.3V129.9z"/>
		<path class="st0" d="M270.8,134l0.8,0.9c-1.5,0.6-3,1-4.5,1.3l-0.6-1.3C268.2,134.8,269.6,134.4,270.8,134z M267.8,127.5h10.5v6.4    h-10.5V127.5z M268.1,123.9h9.9v3h-9.9V123.9z M269.1,129.3h7.9v-0.8h-7.9V129.3z M269.1,131.1h7.9v-0.9h-7.9V131.1z M277,132.9    v-0.8h-7.9v0.8H277z M276.7,125.8v-0.9h-7.2v0.9H276.7z M274.9,134c1.7,0.3,3.2,0.7,4.6,1.1l-0.8,1.1c-1.5-0.5-3-0.9-4.5-1.2    L274.9,134z"/>
		<path class="st0" d="M0.8,148.6h11.5v1.3h-5v8.3h5.6v1.3H0.2v-1.3h5.5v-8.3h-5V148.6z"/>
		<path class="st0" d="M14.6,148.6h2.1v-1.1H18v1.1h1.8v1.1H18v1.2h0.8c0.7-0.7,1.5-1.6,2.2-2.7l1,0.6c-0.6,0.8-1.1,1.5-1.6,2.1h0.9    v0.8c0.2-0.4,0.3-0.7,0.5-1.1c0.3-0.8,0.6-1.9,0.7-3.3l1.3,0.2c-0.1,0.8-0.3,1.5-0.4,2h3.6v1.1h-0.8c-0.1,2.3-0.5,4.2-1.2,5.7    c-0.1,0.1-0.1,0.2-0.2,0.3c0.6,0.9,1.4,1.7,2.3,2.3l-0.8,1.1c-0.9-0.7-1.7-1.5-2.3-2.3c-0.7,0.8-1.5,1.6-2.6,2.4l-0.7-1.1    c1.1-0.7,2-1.5,2.6-2.4c-0.5-1-1-2.2-1.4-3.4c-0.2,0.4-0.4,0.7-0.7,1.1l-0.9-1.1c0.3-0.4,0.5-0.8,0.8-1.2h-1.8    c-0.1,0.1-0.2,0.2-0.3,0.2c-0.4,0.3-0.7,0.6-1.2,1h2.4v1.1c-0.5,0.5-1,0.9-1.6,1.3v0.2c0.9-0.1,1.7-0.2,2.4-0.3v1.1    c-0.6,0.1-1.4,0.3-2.4,0.4v1.9c0,0.3-0.1,0.6-0.2,0.8c-0.2,0.3-0.5,0.4-0.7,0.4h-1.9l-0.3-1.3c0.5,0,1,0.1,1.5,0.1    c0.2,0,0.4-0.1,0.4-0.3v-1.3c-0.9,0.1-1.9,0.2-3,0.2l-0.2-1.3c1.1,0,2.2-0.1,3.2-0.1v-0.8c0.4-0.2,0.9-0.5,1.3-0.9h-2.5    c-0.5,0.3-1,0.6-1.6,0.9l-0.7-1.1c1.2-0.5,2.4-1.2,3.5-2.1h-3.4v-1.2h2.6v-1.2h-2.1V148.6z M22.7,151.7c0.3,1.5,0.8,2.8,1.3,3.8    c0.5-1.2,0.8-2.8,0.9-4.8H23c0,0.1-0.1,0.3-0.1,0.4C22.9,151.3,22.8,151.5,22.7,151.7z"/>
		<path class="st0" d="M34.9,147.2c0.2,0.3,0.4,0.7,0.6,1.1h5.7v1.2h-3.3c1.3,0.8,2.3,1.6,3,2.2l-1.2,0.8c-0.3-0.3-0.7-0.7-1.1-1    c-2.1,0.3-5.3,0.5-9.6,0.7l-0.3-1.3c0.8,0,1.6,0,2.3,0c0.5-0.4,0.8-0.9,1.1-1.4h-3.8v-1.2H34c-0.2-0.3-0.4-0.6-0.6-0.9L34.9,147.2    z M39.6,152.6v6.1c0,0.5-0.1,0.8-0.4,1.1c-0.2,0.2-0.5,0.3-0.9,0.3h-2l-0.3-1.3l1.8,0.1c0.3,0,0.5-0.2,0.5-0.5v-0.4h-7v2.2h-1.4    v-7.5H39.6z M31.3,154.8h7v-1h-7V154.8z M31.3,156.8h7v-0.9h-7V156.8z M37.5,150.6c-0.3-0.2-0.6-0.4-0.8-0.6l0.7-0.4h-3.7    c-0.3,0.5-0.6,0.9-1.1,1.4C34.5,150.8,36.2,150.7,37.5,150.6z"/>
		<path class="st0" d="M47.6,147.5H49v4.1h5.5v1.3H49v5.7h6.2v1.3H42.6v-1.3h4.9V147.5z"/>
		<path class="st0" d="M57,148.2h12.1v1.3h-4.3c-0.3,0.6-0.6,1.2-0.9,1.7v9.1h-1.4V153c-0.1,0.1-0.2,0.2-0.3,0.3    c-1.2,1.3-2.7,2.4-4.6,3.4l-0.8-1.1c1.7-1,3.2-2,4.3-3.1c0.8-0.7,1.5-1.8,2.2-3.1H57V148.2z M65.6,152c1.4,1.2,2.6,2.4,3.5,3.6    l-1,1c-0.8-1.1-2-2.4-3.4-3.7L65.6,152z"/>
		<path class="st0" d="M70.8,150.7h3.3v0.9c-0.4,0.8-1,1.6-1.7,2.5h1.8v0.8c-0.2,1.1-0.5,1.9-0.7,2.4c0.5,0.5,0.9,0.8,1.2,1    c0.3,0.2,0.8,0.3,1.4,0.4c0.7,0.1,2.1,0.2,4.2,0.2c1.5,0,2.6,0,3.3-0.1l-0.2,1.1c-3.9,0-6.3,0-7.2-0.1c-0.8-0.1-1.4-0.2-1.9-0.5    c-0.4-0.2-0.8-0.5-1.3-1c-0.4,0.7-0.8,1.3-1.4,2.1l-0.9-1c0.7-0.7,1.2-1.4,1.5-2c0.2-0.3,0.5-1.1,0.8-2.1h-1.9v-1    c0.5-0.6,1.1-1.4,1.7-2.3h-1.9V150.7z M72.3,147.5c0.6,0.6,1.1,1.2,1.6,1.9l-0.9,0.9c-0.4-0.6-0.9-1.3-1.5-2L72.3,147.5z     M75.1,147.9h3.3v-0.5h1.2v0.5h3.3v2.2h-3.3v0.5h4.1v0.9h-9.2v-0.9h4v-0.5h-3.3V147.9z M78.1,156.9l0.6,0.8    c-0.6,0.2-1.1,0.3-1.5,0.3c-0.5,0.1-1.2,0.2-1.9,0.3l-0.6-1c0.8-0.1,1.4-0.1,2-0.2C77.2,157,77.7,157,78.1,156.9z M75,152h7.8v4.7    H75V152z M78.4,149.3v-0.5h-2.1v0.5H78.4z M76.2,153.4h5.4v-0.5h-5.4V153.4z M76.2,154.6h5.4v-0.5h-5.4V154.6z M81.6,155.9v-0.5    h-5.4v0.5H81.6z M81.7,149.3v-0.5h-2.2v0.5H81.7z M80.1,156.9c1.1,0.1,2.3,0.2,3.5,0.5l-0.4,1c-1.1-0.3-2.3-0.4-3.6-0.5    L80.1,156.9z"/>
		<path class="st0" d="M88.2,147.4h0.4c0.9,0.7,1.6,1.5,2.3,2.3l-0.8,0.8c-0.7-0.9-1.4-1.5-1.9-2c-0.9,1-1.9,1.9-3.1,2.8l-0.4-1.1    c1-0.8,2-1.7,2.9-2.8H88.2z M88.5,149.7c0.2,0.4,0.3,0.9,0.5,1.4h1.2v5.1h-3.3v2.3c0.6-0.1,1.2-0.3,1.7-0.5    c-0.2-0.4-0.3-0.8-0.5-1.2l1.1-0.3c0.4,0.9,0.8,1.9,1.1,2.9l-1.1,0.5c-0.1-0.3-0.2-0.6-0.3-0.9c-1.1,0.4-2.4,0.7-3.8,1.1l-0.3-1.3    c0.3,0,0.6-0.1,0.8-0.2v-7.6h2.1c-0.1-0.4-0.3-0.9-0.5-1.3L88.5,149.7z M86.8,153.1H89v-1h-2.1V153.1z M86.8,155.2H89V154h-2.1    V155.2z M91.9,155.4l1,0.4c-0.5,1.3-1,2.4-1.6,3.3l-1.1-0.8C90.8,157.5,91.4,156.5,91.9,155.4z M94.1,147.4h0.7    c0.5,0.8,0.9,1.5,1.4,2c0.4,0.4,1,0.9,1.8,1.4l-0.8,1.1c-0.3-0.2-0.6-0.3-0.8-0.5v0.9h-1.8v1.3h2.9v1.2h-2.9v4.2    c0,0.5-0.1,0.8-0.3,0.9c-0.2,0.2-0.5,0.3-1.1,0.3h-1L92,159c0.4,0.1,0.7,0.1,0.9,0.1c0.3,0,0.5-0.1,0.5-0.3v-4h-2.7v-1.2h2.7v-1.3    h-1.8v-0.8c-0.3,0.2-0.5,0.4-0.8,0.6l-0.6-1.2c0.9-0.5,1.5-1.1,2-1.7c0.4-0.4,0.8-1.1,1.2-1.8H94.1z M92.2,151.1H96    c-0.6-0.5-1.2-1.3-1.9-2.4c-0.5,0.7-0.9,1.4-1.4,1.9C92.6,150.7,92.4,150.9,92.2,151.1z M96.2,155.3c0.7,1.2,1.2,2.3,1.6,3.2    l-1.1,0.8c-0.3-1-0.8-2.2-1.4-3.4L96.2,155.3z"/>
		<path class="st0" d="M99.7,150.2h4.9v-2.8h1.4v2.8h5.4c-0.1,4.8-0.3,7.7-0.6,8.5c-0.3,0.8-1,1.2-2.1,1.2c-0.9,0-1.6,0-2-0.1    l-0.4-1.5c0.8,0.1,1.6,0.2,2.4,0.2c0.5,0,0.9-0.4,1-1.1c0.1-0.5,0.2-2.5,0.3-5.8h-4c-0.2,2.1-0.6,3.9-1.4,5.2    c-0.9,1.5-2.3,2.6-4.3,3.4l-0.8-1.3c2-0.9,3.3-1.9,4-3.2c0.6-1.1,0.9-2.5,1-4.2h-4.8V150.2z"/>
		<path class="st0" d="M121.6,153.8c0,0.5-0.2,1-0.6,1.3c-0.4,0.4-0.8,0.5-1.4,0.5s-1-0.2-1.4-0.5c-0.4-0.4-0.6-0.8-0.6-1.3    s0.2-1,0.6-1.3c0.4-0.4,0.8-0.5,1.4-0.5s1,0.2,1.4,0.5C121.4,152.9,121.6,153.3,121.6,153.8z M120.6,153.8c0-0.3-0.1-0.5-0.3-0.6    c-0.2-0.2-0.4-0.3-0.7-0.3s-0.5,0.1-0.7,0.3c-0.2,0.2-0.3,0.4-0.3,0.6c0,0.3,0.1,0.5,0.3,0.6c0.2,0.2,0.4,0.3,0.7,0.3    s0.5-0.1,0.7-0.3C120.5,154.3,120.6,154.1,120.6,153.8z"/>
	</g>
	<rect x="3.8" class="st1" width="272" height="1.3"/>
	<rect x="3.8" y="52.2" class="st1" width="272" height="1.3"/>
</g>
</svg>