<?xml version="1.0" encoding="UTF-8"?>
<!-- Generator: Adobe Illustrator 23.0.6, SVG Export Plug-In . SVG Version: 6.00 Build 0)  -->
<svg version="1.1" id="圖層_1" xmlns="http://www.w3.org/2000/svg" xmlns:xlink="http://www.w3.org/1999/xlink" x="0px" y="0px" width="803.6px" height="58.6px" viewBox="0 0 803.6 58.6" style="enable-background:new 0 0 803.6 58.6;" xml:space="preserve">
<style type="text/css">
	.st0{fill:none;stroke:#FFFFFF;stroke-width:3;stroke-miterlimit:10;}
	.st1{fill:#FFFFFF;}
</style>
<g>
	<path class="st0" d="M30.4,57.1c-16,0-28.9-9.8-28.9-27.8S14.4,1.5,30.4,1.5c12.1,0,18,5.1,18,5.1l-4.7,14.8c0,0-5.5-4.7-12.1-4.7   s-12.3,3.9-12.3,12.3c0,8.4,6.1,12.1,12.3,12.1s10.5-2.6,12.9-4.9l5.1,14.1C47.6,52.3,42.1,57.1,30.4,57.1z"/>
	<path class="st0" d="M87.4,56.2V36.3H72.7v19.9H55V2.3h17.7v19.5h14.7V2.3H105v53.9H87.4z"/>
	<path class="st0" d="M147.6,56.2l-2.1-7.6h-15.4l-2,7.6h-18.4l18.8-53.9H148l18.8,53.9H147.6z M137.8,20.6l-4,14.5h8L137.8,20.6z"/>
	<path class="st0" d="M171.4,56.2V2.3H189v39.5h18.4v14.5H171.4z"/>
	<path class="st0" d="M213.6,56.2V2.3h17.6v39.5h18.4v14.5H213.6z"/>
	<path class="st0" d="M255.8,56.2V2.3h38.3v13.9h-20.7V22h19.5v13.8h-19.5v6.2h21.5v14.1H255.8z"/>
	<path class="st0" d="M335.9,56.2l-16.4-30.1c0,0,0.4,5.9,0.4,9.8v20.3h-17.2V2.3h19.1l15.6,30.1c0,0-0.4-5.9-0.4-9.8V2.3h17.2v53.9   H335.9z"/>
	<path class="st0" d="M389.8,57c-14.5,0-28.5-8.7-28.5-27.8s14.1-27.7,28.9-27.7s21.1,7.8,22.7,9.4l-11.7,9.8   c-1.2-1.2-4.7-4.7-10.9-4.7S379,20.6,379,29.2s4.9,13.3,11.2,13.3s7.4-2,7.4-2v-3.9h-8.2v-13h25.4v23.6   C410.5,51.1,404.2,57,389.8,57z"/>
	<path class="st0" d="M422.6,56.2V2.3h38.3v13.9h-20.7V22h19.5v13.8h-19.5v6.2h21.5v14.1H422.6z"/>
	<path class="st0" d="M498,56.2l-8.6-18h-2.3v18h-17.7V2.3h23.4c6.6,0,11.7,1.2,15.6,3.9s6.6,7.4,6.6,13.3c0,10.9-6.6,14.8-9,16.2   l12.1,20.5H498z M495.4,16.6c-0.8-0.6-2-1-3.9-1H487v9.4h4.5c3,0,5.9-1.2,5.9-4.7C497.3,17.9,496.2,17.1,495.4,16.6z"/>
	<path class="st1" d="M572.6,56.2l-16.4-30.1c0,0,0.4,5.9,0.4,9.8v20.3h-17.2V2.3h19.1l15.6,30.1c0,0-0.4-5.9-0.4-9.8V2.3h17.2v53.9   H572.6z"/>
	<path class="st1" d="M600.3,56.2V2.3H618v53.9H600.3z"/>
	<path class="st1" d="M653.7,16v40.2h-17.7V16h-12.7V2.3h43V16H653.7z"/>
	<path class="st1" d="M696.5,57.1c-16.8,0-29.3-10.2-29.3-27.8s12.5-27.9,29.3-27.9s29.3,10.3,29.3,27.9S713.3,57.1,696.5,57.1z    M696.5,16.3c-7,0-11.6,5.2-11.6,12.6s4.5,12.6,11.6,12.6S708,36.3,708,28.9S703.6,16.3,696.5,16.3z"/>
	<path class="st1" d="M761.4,56.2l-8.6-18h-2.3v18h-17.7V2.3h23.4c6.6,0,11.7,1.2,15.6,3.9s6.6,7.4,6.6,13.3c0,10.9-6.6,14.8-9,16.2   l12.1,20.5H761.4z M758.8,16.6c-0.8-0.6-2-1-3.9-1h-4.5v9.4h4.5c3,0,5.9-1.2,5.9-4.7C760.8,17.9,759.6,17.1,758.8,16.6z"/>
	<path class="st1" d="M786,56.2V2.3h17.7v53.9H786z"/>
</g>
</svg>