<?xml version="1.0" encoding="UTF-8"?>
<!-- Generator: Adobe Illustrator 23.0.6, SVG Export Plug-In . SVG Version: 6.00 Build 0)  -->
<svg version="1.1" id="圖層_1" xmlns="http://www.w3.org/2000/svg" xmlns:xlink="http://www.w3.org/1999/xlink" x="0px" y="0px" width="534px" height="56.9px" viewBox="0 0 534 56.9" style="enable-background:new 0 0 534 56.9;" xml:space="preserve">
<style type="text/css">
	.st0{fill:none;stroke:#FFFFFF;stroke-width:3;stroke-miterlimit:10;}
	.st1{fill:#FFFFFF;}
</style>
<g>
	<path class="st0" d="M40,55.4l-2.1-7.6H22.5l-2,7.6H2.1L20.9,1.5h19.5l18.8,53.9H40z M30.2,19.9l-4,14.5h8L30.2,19.9z"/>
	<path class="st0" d="M63.8,55.4V1.5h17.6V41h18.4v14.5H63.8z"/>
	<path class="st0" d="M106,55.4V1.5h17.6V41h18.4v14.5H106z"/>
	<path class="st0" d="M165,55.4V1.5h17.7v53.9H165z"/>
	<path class="st0" d="M225.2,55.4l-16.4-30.1c0,0,0.4,5.9,0.4,9.8v20.3H192V1.5h19.1l15.6,30.1c0,0-0.4-5.9-0.4-9.8V1.5h17.2v53.9   H225.2z"/>
	<path class="st1" d="M303,55.4l-16.4-30.1c0,0,0.4,5.9,0.4,9.8v20.3h-17.2V1.5h19.1l15.6,30.1c0,0-0.4-5.9-0.4-9.8V1.5h17.2v53.9   H303z"/>
	<path class="st1" d="M330.7,55.4V1.5h17.7v53.9H330.7z"/>
	<path class="st1" d="M384.1,15.2v40.2h-17.7V15.2h-12.7V1.5h43v13.8H384.1z"/>
	<path class="st1" d="M426.9,56.3c-16.8,0-29.3-10.2-29.3-27.8s12.5-27.9,29.3-27.9s29.3,10.3,29.3,27.9S443.7,56.3,426.9,56.3z    M426.9,15.6c-7,0-11.6,5.2-11.6,12.6s4.5,12.6,11.6,12.6s11.5-5.2,11.5-12.6S434,15.6,426.9,15.6z"/>
	<path class="st1" d="M491.8,55.4l-8.6-18h-2.3v18h-17.7V1.5h23.4c6.6,0,11.7,1.2,15.6,3.9s6.6,7.4,6.6,13.3c0,10.9-6.6,14.8-9,16.2   l12.1,20.5H491.8z M489.2,15.8c-0.8-0.6-2-1-3.9-1h-4.5v9.4h4.5c3,0,5.9-1.2,5.9-4.7C491.1,17.1,490,16.3,489.2,15.8z"/>
	<path class="st1" d="M516.4,55.4V1.5H534v53.9H516.4z"/>
</g>
</svg>