<?xml version="1.0" encoding="UTF-8"?>
<!-- Generator: Adobe Illustrator 23.0.6, SVG Export Plug-In . SVG Version: 6.00 Build 0)  -->
<svg version="1.1" id="圖層_1" xmlns="http://www.w3.org/2000/svg" xmlns:xlink="http://www.w3.org/1999/xlink" x="0px" y="0px" width="758.9px" height="57.8px" viewBox="0 0 758.9 57.8" style="enable-background:new 0 0 758.9 57.8;" xml:space="preserve">
<style type="text/css">
	.st0{fill:none;stroke:#FFFFFF;stroke-width:3;stroke-miterlimit:10;}
	.st1{fill:#FFFFFF;}
</style>
<g>
	<path class="st0" d="M31.8,15.2v40.2H14.2V15.2H1.5V1.5h43v13.8H31.8z"/>
	<path class="st0" d="M82.4,55.4V35.5H67.7v19.9H50V1.5h17.7V21h14.7V1.5H100v53.9H82.4z"/>
	<path class="st0" d="M109.4,55.4V1.5h38.3v13.9H127v5.9h19.5v13.8H127v6.2h21.5v14.1H109.4z"/>
	<path class="st0" d="M190.6,15.4v8.4h18.8v13.9h-18.8v17.7h-17.6V1.5h37.5v13.9H190.6z"/>
	<path class="st0" d="M260.6,49.9c-3.9,3.9-10.2,6.3-18.8,6.3s-14.8-2.4-18.8-6.3s-5.9-9-5.9-17.6V1.5h17.7v31.6   c0,4.6,1.9,7.8,6.9,7.8s6.8-3.2,6.8-7.8V1.5h17.8v30.9C266.4,41,264.5,46,260.6,49.9z"/>
	<path class="st0" d="M301.8,15.2v40.2h-17.7V15.2h-12.7V1.5h43v13.8H301.8z"/>
	<path class="st0" d="M363,49.9c-3.9,3.9-10.2,6.3-18.8,6.3s-14.8-2.4-18.8-6.3s-5.9-9-5.9-17.6V1.5h17.7v31.6   c0,4.6,1.9,7.8,6.9,7.8s6.8-3.2,6.8-7.8V1.5h17.8v30.9C368.8,41,366.9,46,363,49.9z"/>
	<path class="st0" d="M406.3,55.4l-8.6-18h-2.3v18h-17.7V1.5h23.4c6.6,0,11.7,1.2,15.6,3.9s6.6,7.4,6.6,13.3c0,10.9-6.6,14.8-9,16.2   l12.1,20.5H406.3z M403.7,15.8c-0.8-0.6-2-1-3.9-1h-4.5v9.4h4.5c3,0,5.9-1.2,5.9-4.7C405.7,17.1,404.5,16.3,403.7,15.8z"/>
	<path class="st0" d="M430.9,55.4V1.5h38.3v13.9h-20.7v5.9H468v13.8h-19.5v6.2H470v14.1H430.9z"/>
	<path class="st1" d="M527.8,55.4l-16.4-30.1c0,0,0.4,5.9,0.4,9.8v20.3h-17.2V1.5h19.1l15.6,30.1c0,0-0.4-5.9-0.4-9.8V1.5h17.2v53.9   H527.8z"/>
	<path class="st1" d="M555.5,55.4V1.5h17.7v53.9H555.5z"/>
	<path class="st1" d="M609,15.2v40.2h-17.7V15.2h-12.7V1.5h43v13.8H609z"/>
	<path class="st1" d="M651.8,56.3c-16.8,0-29.3-10.2-29.3-27.8S635,0.6,651.8,0.6s29.3,10.3,29.3,27.9S668.6,56.3,651.8,56.3z    M651.8,15.6c-7,0-11.6,5.2-11.6,12.6s4.5,12.6,11.6,12.6s11.5-5.2,11.5-12.6S658.8,15.6,651.8,15.6z"/>
	<path class="st1" d="M716.6,55.4l-8.6-18h-2.3v18h-17.7V1.5h23.4c6.6,0,11.7,1.2,15.6,3.9s6.6,7.4,6.6,13.3c0,10.9-6.6,14.8-9,16.2   l12.1,20.5H716.6z M714,15.8c-0.8-0.6-2-1-3.9-1h-4.5v9.4h4.5c3,0,5.9-1.2,5.9-4.7C716,17.1,714.8,16.3,714,15.8z"/>
	<path class="st1" d="M741.2,55.4V1.5h17.7v53.9H741.2z"/>
</g>
</svg>