<?xml version="1.0" encoding="UTF-8"?>
<!-- Generator: Adobe Illustrator 21.0.2, SVG Export Plug-In . SVG Version: 6.00 Build 0)  -->
<svg version="1.1" id="圖層_1" xmlns="http://www.w3.org/2000/svg" xmlns:xlink="http://www.w3.org/1999/xlink" x="0px" y="0px" width="462.5px" height="33.9px" viewBox="0 0 462.5 33.9" style="enable-background:new 0 0 462.5 33.9;" xml:space="preserve">
<style type="text/css">
	.st0{fill:#009EA2;}
</style>
<g>
	<path class="st0" d="M7.9,1.5L10.5,3c-1.1,2.1-2.2,3.7-3.3,5c0.6,1.5,1.1,3.1,1.4,4.8c0.4,2.7,0.6,5.5,0.6,8.5   c0,5.2-0.5,8.3-1.4,9.3c-1,1.1-3,1.7-5.9,1.7l-0.6-3.1c0.8,0.1,1.5,0.1,2.2,0.1c0.7,0,1.3-0.3,1.8-0.8c0.5-0.4,0.7-2.8,0.8-7.2   c0-1.3,0-2.6-0.1-3.8c-1.2,2.5-2.6,4.7-4.3,6.4L0,21.3c2.4-2.2,4.3-4.9,5.6-8c-0.2-0.8-0.3-1.6-0.5-2.3C5,10.8,5,10.6,4.9,10.4   c-1,0.9-2,1.7-3.2,2.5l-1.6-2.7c1.2-0.6,2.3-1.5,3.4-2.6c-0.8-1.4-1.8-2.7-3.1-4l2.2-2c1.2,1.4,2.2,2.6,2.9,3.7   C6.4,4.1,7.1,2.9,7.9,1.5z M11,2.2h20v8.4H17.2c-0.3,0.6-0.6,1.2-0.9,1.7h14.8c0,9.3-0.2,14.8-0.5,16.5c-0.2,1.4-0.7,2.2-1.4,2.6   c-0.8,0.5-2.2,0.8-4.3,0.8c-0.6,0-1.2,0-2-0.1l-0.4-2.5c0.8,0.2,1.6,0.2,2.4,0.2c1.7,0,2.6-0.5,2.8-1.6c0.3-1.4,0.5-5.9,0.6-13.4   H14.6c-0.5,0.7-1.1,1.5-1.8,2.2H17v-1.7H20v1.7h5.8v7H20v2.5c1-0.1,2-0.2,2.8-0.4c-0.2-0.4-0.4-0.8-0.6-1.2l2.2-0.7   c0.8,1.3,1.5,2.9,2.1,4.6l-2.4,0.6c-0.1-0.4-0.3-0.7-0.4-1c-2.7,0.6-7,1.2-12.8,1.6l-0.4-2.8c2.3-0.1,4.5-0.2,6.5-0.3v-2.9h-5.6   v-5.6c-0.4,0.3-0.7,0.7-1.1,1l-0.7-3.2c2-1.6,3.5-3.5,4.6-5.6H11V2.2z M16.9,8.1V4.7h-3.1v3.4H16.9z M17,21.9v-2.4h-3v2.4H17z    M22.5,8.1V4.7h-3.1v3.4H22.5z M23.1,21.9v-2.4H20v2.4H23.1z M28.1,8.1V4.7H25v3.4H28.1z"/>
	<path class="st0" d="M36.7,3.8l2.7,0.3c-0.1,1.6-0.2,3-0.4,4.4h2.1V1.1h3.3v7.3h3.2v2.9h7.3V7.9h-6.3v-3h6.3V1.1h3.2v3.8h7v3h-7   v3.6h8.1v3h-3.4v3.4h3.4v3h-3.4v8.1c0,1.3-0.3,2.1-0.8,2.6c-0.5,0.5-1.4,0.8-2.8,0.8h-4.8l-0.7-3.4c1.9,0.2,3.4,0.3,4.6,0.3   c0.9,0,1.3-0.3,1.3-0.8v-7.6H48.2v-3h11.4v-3.4H47.3v-2.8h-2.9v6.6c1.2-0.4,2.3-0.8,3.3-1.2V20c-1.1,0.4-2.2,0.9-3.3,1.2v11.4h-3.3   V22.4c-1.7,0.6-3.5,1.2-5.5,1.7l-0.8-3.5c2.2-0.4,4.3-0.8,6.3-1.4v-7.6h-2.5c-0.3,1.8-0.6,3.5-1,5l-3.1-1   C35.6,11.9,36.3,8,36.7,3.8z M51.5,21.4c1.7,2,3.1,3.7,4.2,5.1l-3.1,2.1c-0.9-1.6-2.1-3.5-3.6-5.6L51.5,21.4z"/>
	<path class="st0" d="M76.3,1.2l3.1,0.4c-0.4,1.8-1,3.5-1.7,5h4.9v7.2c1-1.7,1.8-3.3,2.3-5c0.7-1.9,1.3-4.5,1.7-7.7L90,1.6   c-0.3,1.9-0.6,3.5-0.9,4.9h10.6c0,12-0.2,19.2-0.5,21.4c-0.3,1.7-0.9,2.9-1.7,3.4c-1,0.7-2.7,1-5.3,1c-0.8,0-1.6,0-2.6-0.1   l-0.5-3.4c1,0.2,2,0.3,3.1,0.3c2.2,0,3.4-0.7,3.7-2.2c0.4-1.8,0.7-7.6,0.7-17.4h-8.2C88.1,9.8,88,10,88,10.2   c-0.7,2.5-2,5.1-3.8,7.9l-1.6-2v14h-3v-1.6h-6.3V31h-2.9V6.6h4.3C75.4,5,75.9,3.2,76.3,1.2z M73.4,16.1h6.3V9.5h-6.3V16.1z    M73.4,25.6h6.3v-6.8h-6.3V25.6z M89.3,14.1c1.9,3.2,3.5,5.9,4.6,8.2l-3.2,2.1c-1-2.5-2.3-5.3-4-8.6L89.3,14.1z"/>
	<path class="st0" d="M130,2.6h-8.2V17h-2.6V0H130V2.6z"/>
	<path class="st0" d="M141.5,1.1l2.6,0.5c-0.2,0.6-0.5,1.1-0.8,1.6h2.8V1.1h3.1v2.1h7.1v2.2h-7.1V7h7.9v2.3h-7.9v1.7h7.2v3.7   c0,0.8-0.3,1.5-0.8,1.9c-0.4,0.4-1.1,0.5-2,0.5h-2.4l-0.5-2.2l1.9,0.1c0.6,0,1-0.4,1-1v-0.8h-4.3v5.4h-3.1v-5.4h-3.8v4.3h-2.9v-6.5   h6.7V9.3h-7.7V7h1.3l-2-1.3C139.6,4.3,140.8,2.7,141.5,1.1z M154.6,17.6c0.4,0.6,0.8,1.4,1.2,2.2H169v2.7h-11.5   c1.1,1.3,2,2.3,2.9,3.1c0.6-0.3,1.1-0.6,1.6-0.9c0.7-0.4,1.4-1.1,2-1.8l2.3,1.3c-0.8,1-1.6,1.8-2.3,2.3c-0.4,0.3-0.7,0.5-1.2,0.8   c1.7,0.9,3.9,1.8,6.6,2.6l-1.6,2.7c-3.6-1.3-6.3-2.6-8-3.9c-1.9-1.4-3.7-3.5-5.4-6.3h-1.6c-1,0.9-2,1.7-3.1,2.4v4.3   c2.6-0.3,4.9-0.6,7-1.1v2.5c-2.5,0.7-6.9,1.4-13.2,2l-0.4-3.1c1.3,0,2.4-0.1,3.6-0.2v-2.9c-2,0.9-4.2,1.6-6.5,2.3l-1.6-2.7   c3.4-0.8,6-1.6,7.8-2.4c0.9-0.4,1.7-0.8,2.4-1.2h-10.4v-2.7h14.4c-0.4-0.6-0.7-1.2-1.1-1.7L154.6,17.6z M146.2,7V5.4h-4.2   C141.5,6,141,6.5,140.5,7H146.2z M158.9,2.8h3.1v10.1h-3.1V2.8z M164.5,1.1h3.1v14.2c0,1.1-0.3,1.8-0.8,2.2   c-0.5,0.5-1.4,0.7-2.7,0.7h-3.6l-0.6-2.9c1.4,0.2,2.5,0.2,3.4,0.2c0.8,0,1.2-0.2,1.2-0.6V1.1z"/>
	<path class="st0" d="M172.1,9.5h8.9v2.2c-1.1,1.9-2.5,3.8-4.2,5.9h4.4v2c-0.4,1.9-0.9,3.5-1.4,4.6c1.5,1.8,3.2,3,5.2,3.6   c2,0.6,5.5,0.9,10.6,0.9c3.2,0,6-0.1,8.1-0.3l-0.9,3.4c-10.6,0-17-0.3-19-1c-2.1-0.6-3.8-1.9-5.3-3.9c-1,1.7-2.4,3.6-4.2,5.6   l-2.2-2.4c1.9-1.8,3.2-3.4,4-4.7c0.6-0.8,1.3-2.5,2.1-5h-5v-2.5c1.4-1.5,2.8-3.3,4.3-5.6h-5.1V9.5z M175.9,1.6   c1.6,1.4,3,2.8,4.2,4.2L177.9,8c-0.9-1.4-2.3-2.9-4-4.4L175.9,1.6z M186.1,1.5l3.1,0.6c-0.3,1-0.7,1.9-1.1,2.8h3V1.1h3.1v3.8h7.5   v2.8h-7.5v3.4h9v2.8h-9V16h-3.1v-2.1H182v-2.8h9.1V7.7h-4.5c-0.7,1.1-1.4,2.1-2.2,3.1L181.6,9C183.7,6.7,185.3,4.2,186.1,1.5z    M184.1,16.8h17.2v9.1h-17.2V16.8z M198.2,23.2v-3.7h-11v3.7H198.2z"/>
	<path class="st0" d="M226.8,19.8l-2.3,1.9c-0.7-1.1-1.7-2.4-3.2-4c-0.8-0.9-2.1-2.1-4-3.5l2.2-1.8c1.2,0.8,2.5,1.9,4.1,3.4   C224.6,16.8,225.7,18.1,226.8,19.8z"/>
	<path class="st0" d="M242.5,3.8l2.7,0.3c-0.1,1.5-0.2,3-0.3,4.3h2.1V1.1h3.3v7.2h3.1v2.4c0.9-1.2,1.5-2.3,2-3.5   c0.7-1.5,1.3-3.6,1.7-6.2l3.3,0.5c-0.3,1.5-0.6,2.9-1,4h12.4c0,12.4-0.2,19.7-0.5,22c-0.3,1.8-0.8,3-1.5,3.6c-0.9,0.7-2.5,1-4.8,1   c-0.8,0-1.7,0-2.7-0.1l-0.5-3.5c1,0.2,2.1,0.3,3.2,0.3c1.9,0,2.9-0.7,3.1-2.2c0.4-1.9,0.6-7.9,0.6-18.2h-0.8   c-0.8,5.7-2.1,10.1-3.6,13.4c-1.8,3.6-4.4,6.7-8,9.5l-2.2-2.7c3.1-2.5,5.6-5.3,7.3-8.4c1.5-2.9,2.6-6.9,3.4-11.8h-1.4   c-0.9,3.2-1.8,5.8-2.7,7.6c-1.2,2.5-3.1,5.2-5.9,8l-2.2-2.7c2.3-2.2,4-4.3,5.2-6.4c1-1.7,1.8-3.9,2.4-6.6h-1.7c0,0.1,0,0.2-0.1,0.2   c-0.8,2-2.1,4.2-3.9,6.5l-2.2-2.8c0.3-0.3,0.5-0.7,0.7-1h-2.6v6.7c1.1-0.4,2.2-0.8,3.2-1.2V20c-1.1,0.4-2.1,0.9-3.2,1.2v11.4h-3.3   V22.4c-1.7,0.6-3.5,1.1-5.3,1.7l-0.8-3.5c2.1-0.4,4.1-0.8,6.2-1.4v-7.7h-2.4c-0.3,1.9-0.6,3.6-1,5.1l-3.1-1   C241.5,11.9,242.2,8,242.5,3.8z"/>
	<path class="st0" d="M276.6,9.8c2.2,0.9,4.2,2.1,6,3.4l-2,3.1c-1.9-1.7-3.8-3-5.8-3.9L276.6,9.8z M280.1,18l2.7,2   c-1.4,4.8-3.1,9-4.9,12.6l-2.6-2.8C276.8,27,278.4,23.1,280.1,18z M277.9,1.6c2,0.8,3.8,1.7,5.5,2.8l-2,3.1   c-1.7-1.4-3.4-2.5-5.2-3.4L277.9,1.6z M286,17.1h3.1c-0.2,4.5-0.7,7.8-1.5,9.9c-0.9,2.2-2.4,4.1-4.5,5.8l-2.2-2.7   c1.9-1.3,3.1-2.8,3.9-4.4C285.5,24.1,285.9,21.2,286,17.1z M293.8,1.1c1,1,1.9,2.1,2.8,3.5h10v2.8h-13.3c-0.7,1.8-1.7,3.6-3.1,5.3   c4.2-0.1,7.7-0.4,10.5-0.7c-0.6-0.8-1.2-1.6-1.8-2.4l2.1-2c1.9,2.3,3.5,4.7,4.8,7l-2.2,2.3c-0.4-0.8-0.8-1.6-1.3-2.4   c-4,0.6-9.9,1.1-17.7,1.4l-0.8-3.1h2.7c1.4-1.7,2.4-3.5,3.2-5.4h-6V4.6h9.6c-0.6-0.7-1.4-1.5-2.3-2.4L293.8,1.1z M291.9,17.1h3.1   v15.3h-3.1V17.1z M298.2,17.1h3.1v11.7c0,0.5,0.3,0.8,1,0.8c1,0,1.5-0.4,1.5-1.1V23l2.8,1.2c0,3.8-0.3,6.1-1,7   c-0.5,0.7-1.6,1-3.3,1c-1.4,0-2.4-0.2-3.1-0.7c-0.6-0.4-1-1.1-1-2V17.1z"/>
	<path class="st0" d="M329.8,19.8l-2.3,1.9c-0.7-1.1-1.7-2.4-3.2-4c-0.8-0.9-2.1-2.1-4-3.5l2.2-1.8c1.2,0.8,2.5,1.9,4.1,3.4   C327.6,16.8,328.7,18.1,329.8,19.8z"/>
	<path class="st0" d="M345.8,2.1H373v2.5H361v1.6h13.8v7.5h-3.3v-5H361v6.2c2.1,1,4.2,1.8,6.4,2.4c1.6,0.5,4.4,1.1,8.2,1.7l-1.8,2.8   c-1.9-0.3-3.8-0.8-5.6-1.3c-2.8-0.8-5.7-2-8.6-3.6c-2.1,1.1-4.2,1.9-6.2,2.6c-2.1,0.7-5,1.5-8.6,2.3l-1.5-3c4.1-0.6,7.2-1.3,9.5-2   c1.6-0.4,3.4-1.1,5.2-1.9V8.8h-10.5V14h-3.2V6.2h13.7V4.6h-12V2.1z M359,18.3c1.1,0.9,2.1,2,3,3.3h9.1v2.4   c-1.2,1.2-2.6,2.3-4.3,3.2c-1.1,0.6-2.4,1.2-3.9,1.7c0.8,0.5,1.6,1,2.3,1.4l-1.7,2.7c-3.4-2.5-7-4.5-10.6-6l1.5-2.2   c2.1,0.8,4.1,1.7,5.9,2.7c1.8-0.6,3.4-1.3,4.9-2c0.6-0.3,1.3-0.7,1.9-1.2h-19.6v-2.7h11.3c-0.7-0.7-1.6-1.5-2.6-2.2L359,18.3z    M348.5,10h8.1v2h-8.1V10z M348.5,13.2h8.1v2h-8.1V13.2z M362.2,9.8h8.3v2h-8.3V9.8z M362.2,13.2h8.3v2h-8.3V13.2z"/>
	<path class="st0" d="M385,1.1l3.1,0.6c-0.5,1-0.9,1.9-1.4,2.7h7.7c-0.5-0.9-1.1-1.8-1.7-2.7l3.4-0.4c0.6,0.9,1.1,2,1.6,3.1h11.1V7   h-11.2v1.9h10.1v2.4h-10.1v2h10.1v2.4h-10.1v2.2h11.8v2.5h-26.9v-9.6c-0.8,1.1-1.7,2-2.5,2.8l-2.1-2.7C381,8,383.4,4.7,385,1.1z    M407.5,22.3v10.3h-3.1v-1.5h-19.3v1.5H382V22.3H407.5z M385.1,28.4h19.3v-3.2h-19.3V28.4z M394.5,8.9V7h-8.9v1.9H394.5z    M394.5,13.3v-2h-8.9v2H394.5z M394.5,17.9v-2.2h-8.9v2.2H394.5z"/>
	<path class="st0" d="M423.3,1.1h3.1v5.4h3.1V1.1h3.1v5.4h2.4c0.8-1.2,1.5-2.8,2.3-4.7l3.3,1.2c-0.6,1.4-1.3,2.6-2,3.5h5.1v2.8h-9.5   l2.4,0.8c-0.5,0.8-1,1.5-1.5,2.2h7.4V15h-12.8v1.9h12.1v2.5h-12.1v1.9h14v2.7h-11.1c1.5,1.4,2.9,2.3,4.2,2.9   c1.6,0.8,3.9,1.5,6.8,2.2l-1.8,2.8c-3.4-1-6-2-7.6-3.1c-1.5-1-3-2.4-4.5-4.2v7.9h-3.2v-7.9c-0.9,1.2-1.9,2.1-3,3   c-2,1.5-4.9,3-8.8,4.4l-1.6-2.6c3.9-1.3,6.7-2.4,8.3-3.4c0.9-0.5,1.7-1.1,2.4-1.8h-11v-2.7h13.7v-1.9h-11.8v-2.5h11.8V15h-12.6   v-2.7h7.7c-0.4-0.7-0.8-1.4-1.3-2.2l2.2-0.8h-9.7V6.5h5c-0.4-1.1-1-2.3-1.6-3.7l3.1-1.1c0.6,1.3,1.2,2.9,1.7,4.7h2.4V1.1z    M424.8,12.3h6.6c0.7-0.9,1.2-1.9,1.7-3h-9.7C423.9,10.2,424.3,11.2,424.8,12.3z"/>
	<path class="st0" d="M462.5,33.9h-10.8v-2.6h8.2V17h2.6V33.9z"/>
</g>
</svg>