<?xml version="1.0" encoding="UTF-8"?>
<!-- Generator: Adobe Illustrator 21.0.2, SVG Export Plug-In . SVG Version: 6.00 Build 0)  -->
<svg version="1.1" id="圖層_1" xmlns="http://www.w3.org/2000/svg" xmlns:xlink="http://www.w3.org/1999/xlink" x="0px" y="0px" width="140.4px" height="15.6px" viewBox="0 0 140.4 15.6" style="enable-background:new 0 0 140.4 15.6;" xml:space="preserve">
<style type="text/css">
	.st0{fill:#FFFFFF;}
</style>
<g>
	<g>
		<path class="st0" d="M12.8,4.5v8.9h2.6v1.8H0v-1.8h2.6V4.5H12.8z M6.5,0.2h2.1v1.1h6.4v3.5h-1.9V3.1h-11V5H0.2V1.3h6.3V0.2z     M4.5,7.5h6.3V6.4H4.5V7.5z M4.5,10.5h6.3V9.3H4.5V10.5z M4.5,13.4h6.3v-1.1H4.5V13.4z"/>
		<path class="st0" d="M21.3,4.2l1.6,0.9c-0.3,0.8-0.8,1.5-1.3,2.3v8h-1.9V9.7c-0.3,0.2-0.5,0.4-0.7,0.6l-1.2-1.6    c0.6-0.5,1.3-1.3,2-2.1C20.4,5.8,20.9,5,21.3,4.2z M21.1,0L22.8,1c-0.4,0.7-0.9,1.5-1.5,2.2c-0.8,0.9-1.5,1.6-2.1,1.9L18,3.6    c0.6-0.4,1.2-1,1.8-1.7C20.3,1.2,20.8,0.6,21.1,0z M22.8,7.2h10v1.7h-1.5v0.7h1.9v1.7h-1.9v1.8c0,0.9-0.1,1.5-0.4,1.8    c-0.3,0.3-0.9,0.5-1.7,0.5c-0.6,0-1.2-0.1-1.8-0.2L27,13.3c0.7,0.2,1.4,0.3,2.1,0.3c0.1,0,0.2-0.3,0.2-0.8v-1.5h-3.6    c0.4,0.5,0.8,1.1,1.1,1.6l-1.9,1.1c-0.3-0.8-0.8-1.5-1.3-2.1l1.1-0.7h-2.3V9.6h7V8.9h-6.5V7.2z M23.3,0.5h9v6.2h-9V0.5z M25.2,2.8    h5.2V2.2h-5.2V2.8z M25.2,5h5.2V4.3h-5.2V5z"/>
		<path class="st0" d="M43.4,0.2l0.8,1.7c-0.9,0.2-1.9,0.3-2.9,0.5v2h3v1.9h-3v0.9c1.2,0.9,2.2,1.7,3,2.5l-1.2,1.7    c-0.6-0.7-1.2-1.3-1.8-1.9v6h-1.9V9.4c-0.2,0.3-0.3,0.5-0.5,0.7c-0.8,1.1-1.5,1.8-2.2,2.4l-0.9-1.9c0.8-0.6,1.5-1.4,2.2-2.4    c0.5-0.6,0.9-1.3,1.2-1.9h-3V4.4h3.3V2.6c-0.8,0.1-1.6,0.2-2.4,0.2L36.3,1C38.8,0.8,41.2,0.5,43.4,0.2z M45.1,2H47v10h-1.9V2z     M48.7,0.2h1.9v12.6c0,1-0.1,1.6-0.4,2c-0.3,0.4-0.9,0.6-1.6,0.6c-0.7,0-1.4-0.1-2-0.2l-0.3-2c0.7,0.2,1.4,0.3,2.1,0.3    c0.1,0,0.2-0.1,0.3-0.2c0.1-0.2,0.1-0.5,0.1-0.9V0.2z"/>
		<path class="st0" d="M55.7,13.5V15h-1.9V2.6h1.5c0.2-0.8,0.4-1.6,0.5-2.5l2,0.5c-0.1,0.7-0.3,1.4-0.5,2h2.5v3    c0.4-0.7,0.8-1.5,1.1-2.4c0.5-1.1,0.8-2.2,1.1-3.2l2,0.6c-0.2,0.6-0.3,1.2-0.5,1.9h4.8c0,6.5-0.2,10.3-0.6,11.3    c-0.3,1.1-1.1,1.7-2.3,1.7c-0.6,0-1.3-0.1-1.9-0.3l-0.4-2.1c1,0.2,1.7,0.3,2.3,0.3c0.4,0,0.6-0.3,0.7-0.8c0.2-1,0.3-3.7,0.3-8.4    h-3.5c-0.5,1.2-1,2.3-1.6,3.1l-1.4-1v7.9H58v-0.9H55.7z M55.7,7.3H58V4.4h-2.3V7.3z M58,11.6V9.1h-2.3v2.6H58z M63.8,6.8    c0.6,1.1,1,2.4,1.3,3.8l-2.1,0.7c-0.2-1.4-0.6-2.7-1.1-3.9L63.8,6.8z"/>
		<path class="st0" d="M76.3,5.1h8.8v3.8h-2.7c0.5,0.3,1,0.5,1.4,0.8c0.6-0.3,1.2-0.6,1.7-1l1.1,1.3c-0.5,0.3-0.9,0.5-1.3,0.7    c0.5,0.3,0.9,0.7,1.3,1L85.5,13c-1.4-1.2-2.8-2.2-4.4-3l0.8-1.1h-1.5v2.3c0.7-0.1,1.4-0.2,2-0.3l0.1,1.5c-1.4,0.3-2.8,0.6-4.4,0.8    c1,0,2.5,0.1,4.5,0.1c1.7,0,3.1-0.1,4.3-0.3c-0.4,0.7-0.6,1.5-0.9,2.3h-5.2c-1.9,0-3.4-0.1-4.5-0.3c-0.8-0.2-1.6-0.5-2.4-1.1    c-0.5,0.6-0.9,1.2-1.4,1.7c-0.4-0.7-0.8-1.3-1.3-1.9c0.5-0.3,1-0.5,1.5-0.8V9.1h-1.5V7.1h3.4v5.4c0.7,0.4,1.6,0.6,2.6,0.6    c0.1,0,0.2,0,0.3,0l-0.2-1.6c0.4,0,0.7-0.1,1-0.1V10c-0.1,0.2-0.3,0.3-0.4,0.4c-0.9,0.7-1.6,1.2-2.3,1.5L75,10.3    c0.6-0.2,1.1-0.6,1.7-1c0.2-0.2,0.4-0.3,0.6-0.5h-1V5.1z M72.8,3.4c0.8,0.5,1.5,1,2.1,1.6l-1.4,1.7c-0.7-0.7-1.3-1.4-2.1-1.9    L72.8,3.4z M73.3,0.2c0.8,0.5,1.6,1,2.2,1.6l-1.3,1.7c-0.7-0.7-1.5-1.3-2.3-1.8L73.3,0.2z M76.4,0.8h3.5V0.1h1.9v0.7h3.6v1.7h-3.6    V3h4.5v1.7H75.6V3h4.3V2.4h-3.5V0.8z M78.2,7.3h5.1V6.7h-5.1V7.3z"/>
		<path class="st0" d="M90.6,0.3h12.4v5.4h-5.3v0.5h6.7v1.7H89.2V6.2h6.6V5.7h-5.2V0.3z M92.7,12.1l1.3,1.5c-0.5,0.4-1,0.8-1.6,1.1    c-0.5,0.3-1.1,0.5-1.9,0.8l-1.1-1.7c0.7-0.2,1.3-0.5,1.9-0.7C91.9,12.7,92.3,12.4,92.7,12.1z M90.8,8.3h12.1V12H98v1.3    c0,0.9-0.2,1.5-0.5,1.7c-0.4,0.3-1,0.5-1.8,0.5c-0.4,0-0.7,0-1-0.1l-0.3-1.9c0.5,0.1,0.9,0.2,1.4,0.2c0.3,0,0.5-0.3,0.5-0.8V12    h-5.3V8.3z M92.5,2.3h8.7V1.8h-8.7V2.3z M92.5,4.2h8.7V3.7h-8.7V4.2z M92.7,10.5h8.4V9.8h-8.4V10.5z M100.2,12.1    c0.6,0.3,1.2,0.6,1.8,0.9c0.6,0.2,1.2,0.4,1.8,0.6l-1.1,1.9c-0.6-0.2-1.2-0.5-1.7-0.8c-0.7-0.4-1.3-0.8-1.9-1.3L100.2,12.1z"/>
		<path class="st0" d="M113.6,0.4h2.1v2.2h5.6v1.5c-2.5,3.1-5.3,5.7-8.4,7.9c0.5,0.3,1,0.5,1.5,0.7c1.1,0.3,2.7,0.5,4.8,0.5    c1.3,0,2.3,0,3.1-0.1l-0.5,2.2c-2.2,0-4.1-0.1-5.6-0.2c-1-0.1-1.9-0.3-2.7-0.6c-0.6-0.2-1.2-0.6-1.8-1.1c-0.4-0.4-0.8-0.5-1.1-0.5    c-0.2,0-0.5,0.2-0.8,0.6l-1.5,1.7l-1.5-1.5l1.7-1.9c0.7-0.7,1.3-1,1.8-1c0.3,0,0.5,0.1,0.8,0.2c2.7-1.9,5-4,7-6.3H108V2.6h5.6V0.4    z"/>
		<path class="st0" d="M131,0.2h2v0.5h5.4v1.5H133v0.3h6.9v2.9H138V4.1h-5.1v0.5l4.4-0.3l0.1,1.5L133,6.1c0.2,0.1,0.5,0.2,0.9,0.2    c0.3,0,0.8,0,1.4,0c1,0,1.6,0,1.8,0c0.2,0,0.3-0.1,0.4-0.2c0.1-0.1,0.1-0.2,0.1-0.5l1.8,1c-0.1,0.6-0.4,1-0.7,1.2    c-0.2,0.1-0.6,0.1-1,0.1c-0.3,0-1.1,0-2.4,0c-0.7,0-1.4,0-2-0.1c-1.6,0-2.4-0.6-2.4-1.6v0l-2.9,0.2V5l2.9-0.2V4.1h-3.3v4.6    c0,0.5,0,1,0,1.5c0.3-0.3,0.5-0.6,0.6-1c0.4-0.7,0.6-1.4,0.7-2.2l1.7,0.4c-0.1,0.3-0.1,0.6-0.2,0.9h2.9c-0.3,1.9-0.8,3.3-1.5,4.2    c0,0.1-0.1,0.1-0.1,0.1c0.9,0.6,2.6,0.9,5,0.9c1.3,0,2.5-0.1,3.5-0.2l-0.5,1.9h-3c-2.8,0-4.7-0.3-5.7-1c-0.1-0.1-0.3-0.2-0.4-0.3    c-0.6,0.5-1.2,1-1.9,1.4l-1.3-1.5c0.9-0.4,1.6-0.8,2.1-1.2c-0.2-0.3-0.5-0.7-0.7-1.1c-0.2,0.3-0.4,0.5-0.6,0.7l-0.7-0.6    c0,0.3-0.1,0.5-0.1,0.8c-0.2,1-0.5,2-0.9,3l-1.7-1c0.4-1.3,0.7-2.4,0.9-3.3c0.2-1.1,0.3-2.3,0.3-3.4V2.5h5.1V0.2z M130.6,11.6    c0.3-0.5,0.5-1,0.6-1.6h-1.3c0,0.1-0.1,0.2-0.1,0.3l0,0C130.1,10.8,130.3,11.2,130.6,11.6z M134.8,8.4h3.4v2.7    c0,0.4,0,0.6,0.1,0.7c0,0,0.1,0,0.1,0s0.1,0,0.1,0c0.1,0,0.1-0.1,0.1-0.2c0-0.1,0.1-0.6,0.1-1.5l1.6,0.8c0,1.1-0.2,1.8-0.6,2.1    c-0.2,0.1-0.3,0.2-0.5,0.3c-0.3,0-0.6,0.1-0.8,0.1c-0.7,0-1.2-0.1-1.4-0.2c-0.4-0.1-0.6-0.6-0.6-1.6V10h-0.8    c-0.1,1-0.3,1.7-0.6,2.1c-0.3,0.5-0.8,0.9-1.6,1.2l-0.8-1.6c0.4-0.2,0.7-0.5,0.9-0.8c0.2-0.4,0.4-1.2,0.4-2.5H134.8z"/>
	</g>
</g>
</svg>