<?xml version="1.0" encoding="UTF-8"?>
<!-- Generator: Adobe Illustrator 21.0.2, SVG Export Plug-In . SVG Version: 6.00 Build 0)  -->
<svg version="1.1" id="圖層_1" xmlns="http://www.w3.org/2000/svg" xmlns:xlink="http://www.w3.org/1999/xlink" x="0px" y="0px" width="140.4px" height="15.6px" viewBox="0 0 140.4 15.6" style="enable-background:new 0 0 140.4 15.6;" xml:space="preserve">
<style type="text/css">
	.st0{fill:#FFFFFF;}
</style>
<g>
	<g>
		<path class="st0" d="M36.2,0.7h6.3V0h1.9v0.7H51v1.7h-6.7v0.5H50v3.6h-5.7V7h5.8v2.2h1.1v1.7h-1.1v2.6h-1.8V13h-4    c0,0.9-0.1,1.5-0.4,1.8c-0.3,0.4-0.9,0.6-1.7,0.6c-0.9,0-1.7-0.1-2.4-0.2l-0.3-1.9c0.9,0.2,1.7,0.2,2.5,0.2c0.2,0,0.3-0.1,0.4-0.2    c0-0.1,0.1-0.2,0.1-0.4h-5.8v-1.7h5.8v-0.5H36V9.1h6.5V8.6h-5.8V7h5.8V6.5h-5.6V2.9h5.6V2.4h-6.3V0.7z M38.8,4.9h3.7V4.4h-3.7V4.9    z M44.3,4.4v0.5h3.9V4.4H44.3z M44.3,8.6v0.5h4V8.6H44.3z M44.3,10.9v0.5h4v-0.5H44.3z"/>
		<path class="st0" d="M57.5,5.3l-0.4-1.1h-3V2.5h1.7c-0.2-0.4-0.5-0.7-0.8-1.1l1.6-1c0.5,0.5,0.8,1.1,1.1,1.6l-0.7,0.4h1.6V0.1h1.9    v2.4h1.5V0.1H64v2.4h0.8c0.3-0.7,0.5-1.3,0.7-2l2.1,0.6c-0.2,0.5-0.5,1-0.7,1.4h2v1.7h-3.3l-0.4,1.1h3.2v1.8h-6v0.6h5.3v1.7h-5.3    V10H69v1.8h-4.2c0.3,0.1,0.6,0.2,0.8,0.3c1,0.4,2.1,0.7,3.4,0.9L68,15.1c-1.4-0.4-2.6-1-3.8-1.7c-0.6-0.4-1.2-0.8-1.8-1.2v3.2h-2    v-3.1c-0.5,0.4-1.1,0.8-1.6,1.2c-1.5,0.8-2.8,1.4-3.9,1.7l-1-1.8c1.1-0.3,2.2-0.6,3.4-1.1c0.4-0.1,0.7-0.3,0.9-0.4h-4.1V10h6.3    V9.4h-4.9V7.7h4.9V7.1h-5.6V5.3H57.5z M63.5,4.2h-4.3l0.4,1.1h3.6L63.5,4.2z"/>
		<path class="st0" d="M86.5,0.4v1.8h-6v2.5h6v1.4c-0.5,2.2-1.1,3.9-1.8,5.2c0.8,0.9,1.7,1.7,2.8,2.4l-1.3,1.7    c-1-0.7-1.9-1.5-2.6-2.4c-0.9,1.1-1.9,1.9-2.9,2.4l-0.9-1.8c1.1-0.5,2-1.2,2.7-2.2c0,0,0,0,0,0c-0.8-1.3-1.4-2.6-1.8-4.1v0.1    c0,1.5-0.2,2.9-0.5,4.2c-0.3,1.1-0.7,2.2-1.3,3.3l-1.5-0.9v1h-1.8V8.9h-1.3v0.2c0,1.4-0.1,2.6-0.4,3.7c-0.3,1-0.6,1.9-1,2.5    l-1.5-1.1c0.4-0.7,0.6-1.5,0.8-2.4c0.2-0.9,0.2-1.8,0.2-2.7V0.4h1.8v3.7h1v-4h1.8v4H78v1.8h-4v1.3h3.1v6.5    c0.5-1.3,0.9-2.4,1.1-3.3c0.2-1.3,0.3-2.5,0.3-3.8V0.4H86.5z M82.1,6.5c0.3,1.2,0.7,2.2,1.2,3.2c0.5-0.9,0.8-2,1.1-3.2H82.1z"/>
		<path class="st0" d="M104.5,0.2v15.4h-1.8v-0.5h-11v0.5h-1.8V0.2H104.5z M91.6,13.6h11V1.8h-11V13.6z M92.9,2.2h8.4v2.9H98v0.5    h4.3V7H91.9V5.6h4.2V5.1h-3.2V2.2z M92.2,7.4h9.8v5.8h-9.8V7.4z M94,11.9h6.2V8.7H94V11.9z M94.5,3.9h5.1V3.4h-5.1V3.9z M94.5,9.1    h5.3v2.3h-5.3V9.1z M96,10.6h2.3V10H96V10.6z"/>
	</g>
</g>
</svg>