<?xml version="1.0" encoding="UTF-8"?>
<!-- Generator: Adobe Illustrator 21.0.2, SVG Export Plug-In . SVG Version: 6.00 Build 0)  -->
<svg version="1.1" id="圖層_1" xmlns="http://www.w3.org/2000/svg" xmlns:xlink="http://www.w3.org/1999/xlink" x="0px" y="0px" width="210px" height="52.1px" viewBox="0 0 210 52.1" style="enable-background:new 0 0 210 52.1;" xml:space="preserve">
<style type="text/css">
	.st0{fill:#009EA2;}
</style>
<g>
	<g>
		<path class="st0" d="M78.9,0.2l1.6,0.9c-0.7,1.3-1.4,2.3-2,3c0.4,0.9,0.7,1.9,0.9,2.9c0.2,1.6,0.3,3.4,0.3,5.2    c0,3.2-0.3,5.1-0.8,5.7c-0.6,0.7-1.8,1-3.6,1l-0.4-1.9c0.5,0.1,0.9,0.1,1.4,0.1c0.4,0,0.8-0.2,1.1-0.5c0.3-0.3,0.5-1.7,0.5-4.4    c0-0.8,0-1.6-0.1-2.3c-0.7,1.5-1.6,2.9-2.6,3.9l-1.1-1.6c1.5-1.4,2.6-3,3.4-4.9c-0.1-0.5-0.2-1-0.3-1.4c0-0.1-0.1-0.3-0.1-0.4    c-0.6,0.5-1.2,1.1-1.9,1.6l-1-1.6c0.7-0.4,1.4-0.9,2.1-1.6c-0.5-0.8-1.1-1.7-1.9-2.5l1.3-1.3c0.8,0.8,1.4,1.6,1.8,2.2    C78,1.8,78.4,1.1,78.9,0.2z M80.8,0.7H93v5.2h-8.4c-0.2,0.4-0.4,0.7-0.6,1.1h9.1c0,5.7-0.1,9.1-0.3,10.1c-0.2,0.8-0.4,1.4-0.8,1.6    c-0.5,0.3-1.4,0.5-2.6,0.5c-0.4,0-0.8,0-1.2-0.1l-0.3-1.6c0.5,0.1,1,0.1,1.5,0.1c1,0,1.6-0.3,1.7-1c0.2-0.9,0.3-3.6,0.3-8.2H83    c-0.3,0.5-0.7,0.9-1.1,1.4h2.6v-1h1.8v1h3.5v4.3h-3.5v1.6c0.6-0.1,1.2-0.2,1.7-0.2c-0.1-0.3-0.2-0.5-0.4-0.7l1.3-0.4    c0.5,0.8,0.9,1.8,1.3,2.8l-1.5,0.3c-0.1-0.2-0.2-0.4-0.2-0.6c-1.7,0.4-4.3,0.7-7.8,1l-0.2-1.7c1.4,0,2.7-0.1,4-0.2v-1.8H81v-3.4    c-0.2,0.2-0.5,0.4-0.7,0.6l-0.4-2c1.2-1,2.1-2.1,2.8-3.4h-2V0.7z M84.4,4.3V2.2h-1.9v2.1H84.4z M84.5,12.7v-1.5h-1.8v1.5H84.5z     M87.8,4.3V2.2h-1.9v2.1H87.8z M88.2,12.7v-1.5h-1.9v1.5H88.2z M91.3,4.3V2.2h-1.9v2.1H91.3z"/>
		<path class="st0" d="M96.5,1.6l1.6,0.2c-0.1,1-0.1,1.9-0.2,2.7h1.3V0h2v4.5h2v1.8h4.5V4.1h-3.8V2.3h3.8V0h2v2.3h4.3v1.8h-4.3v2.2    h4.9v1.8h-2.1v2.1h2.1V12h-2.1v5c0,0.8-0.2,1.3-0.5,1.6c-0.3,0.3-0.9,0.5-1.7,0.5h-2.9l-0.4-2.1c1.1,0.1,2.1,0.2,2.8,0.2    c0.5,0,0.8-0.2,0.8-0.5V12h-7v-1.8h7V8.1H103V6.4h-1.8v4c0.7-0.2,1.4-0.5,2-0.7v1.9c-0.6,0.3-1.3,0.5-2,0.8v7h-2V13    c-1.1,0.4-2.2,0.7-3.3,1l-0.5-2.1c1.3-0.2,2.6-0.5,3.9-0.9V6.4h-1.6c-0.2,1.1-0.4,2.1-0.6,3.1l-1.9-0.6    C95.8,6.6,96.3,4.2,96.5,1.6z M105.6,12.4c1.1,1.2,1.9,2.2,2.5,3.1l-1.9,1.3c-0.5-1-1.3-2.1-2.2-3.4L105.6,12.4z"/>
		<path class="st0" d="M120.8,0.1l1.9,0.2c-0.2,1.1-0.6,2.1-1,3.1h3v4.4c0.6-1,1.1-2,1.4-3c0.4-1.2,0.8-2.7,1-4.7l2.1,0.3    c-0.2,1.1-0.4,2.1-0.6,3h6.5c0,7.4-0.1,11.7-0.3,13.1c-0.2,1.1-0.6,1.8-1.1,2.1c-0.6,0.4-1.7,0.6-3.3,0.6c-0.5,0-1,0-1.6-0.1    l-0.3-2.1c0.6,0.1,1.2,0.2,1.9,0.2c1.3,0,2.1-0.4,2.2-1.3c0.3-1.1,0.4-4.6,0.5-10.6h-5c-0.1,0.1-0.1,0.3-0.1,0.3    c-0.5,1.5-1.2,3.1-2.3,4.8l-1-1.2v8.6h-1.8v-1h-3.8v1.6h-1.8V3.4h2.6C120.2,2.3,120.5,1.2,120.8,0.1z M118.9,9.2h3.8V5.1h-3.8V9.2    z M118.9,15h3.8v-4.2h-3.8V15z M128.7,7.9c1.2,1.9,2.1,3.6,2.8,5l-2,1.3c-0.6-1.5-1.4-3.3-2.5-5.2L128.7,7.9z"/>
		<path class="st0" d="M6.6,32.9h-5v8.8H0V31.3h6.6V32.9z"/>
		<path class="st0" d="M13.6,32l1.6,0.3c-0.2,0.4-0.3,0.7-0.5,1h1.7V32h1.9v1.3h4.3v1.3h-4.3v1h4.8V37h-4.8v1.1h4.4v2.3    c0,0.5-0.2,0.9-0.5,1.1c-0.3,0.2-0.7,0.3-1.2,0.3h-1.5l-0.3-1.4l1.1,0.1c0.4,0,0.6-0.2,0.6-0.6v-0.5h-2.6v3.3h-1.9v-3.3h-2.3v2.6    h-1.8v-4h4.1V37h-4.7v-1.4h0.8l-1.2-0.8C12.4,33.9,13.2,33,13.6,32z M21.7,42.1c0.2,0.4,0.5,0.8,0.7,1.3h8.1V45h-7.1    c0.6,0.8,1.2,1.4,1.8,1.9c0.3-0.2,0.7-0.4,1-0.6c0.4-0.3,0.8-0.6,1.2-1.1l1.4,0.8c-0.5,0.6-1,1.1-1.4,1.4    c-0.2,0.2-0.5,0.3-0.7,0.5c1.1,0.6,2.4,1.1,4,1.6l-1,1.7c-2.2-0.8-3.8-1.6-4.9-2.4c-1.1-0.9-2.2-2.2-3.3-3.8h-1    c-0.6,0.6-1.2,1.1-1.9,1.5v2.6c1.6-0.2,3-0.4,4.3-0.7V50c-1.5,0.4-4.2,0.8-8.1,1.2l-0.2-1.9c0.8,0,1.5,0,2.2-0.1v-1.8    c-1.2,0.5-2.5,1-4,1.4l-1-1.6c2.1-0.5,3.7-1,4.8-1.5c0.5-0.2,1-0.5,1.5-0.7h-6.3v-1.6h8.8c-0.2-0.4-0.5-0.8-0.7-1.1L21.7,42.1z     M16.5,35.6v-1h-2.6c-0.3,0.4-0.6,0.7-0.9,1H16.5z M24.3,33h1.9v6.2h-1.9V33z M27.7,32h1.9v8.7c0,0.7-0.2,1.1-0.5,1.4    c-0.3,0.3-0.8,0.5-1.6,0.5h-2.2l-0.3-1.8c0.8,0.1,1.5,0.1,2.1,0.1c0.5,0,0.7-0.1,0.7-0.4V32z"/>
		<path class="st0" d="M32.4,37.1h5.4v1.4c-0.7,1.1-1.5,2.4-2.6,3.6h2.7v1.3c-0.3,1.2-0.6,2.1-0.9,2.8c0.9,1.1,1.9,1.8,3.2,2.2    c1.2,0.4,3.4,0.6,6.5,0.6c2,0,3.6-0.1,5-0.2l-0.6,2.1c-6.5,0-10.4-0.2-11.6-0.6c-1.3-0.4-2.3-1.2-3.3-2.4    c-0.6,1.1-1.5,2.2-2.6,3.4l-1.4-1.5c1.1-1.1,2-2.1,2.4-2.9c0.4-0.5,0.8-1.5,1.3-3h-3.1v-1.5c0.8-0.9,1.7-2,2.6-3.4h-3.1V37.1z     M34.7,32.3c1,0.9,1.8,1.7,2.5,2.5l-1.3,1.3c-0.6-0.8-1.4-1.8-2.5-2.7L34.7,32.3z M40.9,32.2l1.9,0.3c-0.2,0.6-0.4,1.2-0.7,1.7    h1.8V32h1.9v2.3h4.6V36h-4.6v2.1h5.5v1.7h-5.5v1.3h-1.9v-1.3h-5.6v-1.7h5.6V36h-2.7c-0.4,0.7-0.9,1.3-1.3,1.9l-1.7-1.1    C39.5,35.4,40.4,33.9,40.9,32.2z M39.7,41.6h10.5v5.6H39.7V41.6z M48.3,45.5v-2.3h-6.7v2.3H48.3z"/>
		<path class="st0" d="M65.8,43.4l-1.4,1.2c-0.4-0.7-1.1-1.5-1.9-2.4c-0.5-0.6-1.3-1.3-2.4-2.1l1.3-1.1c0.7,0.5,1.5,1.2,2.5,2.1    C64.5,41.6,65.1,42.4,65.8,43.4z"/>
		<path class="st0" d="M75.4,33.6l1.6,0.2c-0.1,0.9-0.1,1.8-0.2,2.6h1.3V32h2v4.4H82v1.5c0.5-0.7,0.9-1.4,1.2-2.1    c0.4-0.9,0.8-2.2,1-3.8l2,0.3c-0.2,0.9-0.4,1.8-0.6,2.5h7.6c0,7.6-0.1,12.1-0.3,13.5c-0.2,1.1-0.5,1.8-0.9,2.2    c-0.5,0.4-1.5,0.6-2.9,0.6c-0.5,0-1,0-1.6-0.1l-0.3-2.2c0.6,0.1,1.3,0.2,2,0.2c1.1,0,1.8-0.5,1.9-1.4c0.2-1.1,0.3-4.8,0.4-11.1    h-0.5c-0.5,3.5-1.3,6.2-2.2,8.2c-1.1,2.2-2.7,4.1-4.9,5.8l-1.3-1.6c1.9-1.5,3.4-3.2,4.5-5.1c0.9-1.8,1.6-4.2,2.1-7.2h-0.9    c-0.5,2-1.1,3.5-1.7,4.7c-0.7,1.5-1.9,3.2-3.6,4.9l-1.3-1.6c1.4-1.3,2.5-2.6,3.2-3.9c0.6-1,1.1-2.4,1.5-4h-1c0,0.1,0,0.1,0,0.1    c-0.5,1.2-1.3,2.6-2.4,4l-1.4-1.7c0.2-0.2,0.3-0.4,0.5-0.6h-1.6v4.1c0.7-0.2,1.3-0.5,2-0.7v1.9c-0.6,0.3-1.3,0.5-2,0.8v7h-2V45    c-1,0.3-2.1,0.7-3.3,1l-0.5-2.1c1.3-0.2,2.5-0.5,3.8-0.9v-4.7h-1.5c-0.2,1.1-0.4,2.2-0.6,3.1l-1.9-0.6    C74.8,38.6,75.2,36.2,75.4,33.6z"/>
		<path class="st0" d="M96.3,37.3c1.3,0.6,2.6,1.3,3.7,2.1l-1.2,1.9c-1.1-1-2.3-1.8-3.5-2.4L96.3,37.3z M98.4,42.3l1.6,1.2    c-0.9,3-1.9,5.5-3,7.7l-1.6-1.7C96.4,47.8,97.4,45.4,98.4,42.3z M97,32.3c1.2,0.5,2.3,1.1,3.4,1.7l-1.3,1.9    c-1-0.9-2.1-1.5-3.2-2.1L97,32.3z M102,41.7h1.9c-0.1,2.8-0.4,4.8-0.9,6.1c-0.5,1.4-1.5,2.5-2.8,3.5l-1.3-1.6    c1.1-0.8,1.9-1.7,2.4-2.7C101.7,46,102,44.3,102,41.7z M106.8,32c0.6,0.6,1.2,1.3,1.7,2.1h6.1v1.7h-8.1c-0.4,1.1-1.1,2.2-1.9,3.2    c2.6-0.1,4.7-0.2,6.4-0.4c-0.3-0.5-0.7-1-1.1-1.5l1.3-1.3c1.2,1.4,2.2,2.9,3,4.3l-1.4,1.4c-0.2-0.5-0.5-1-0.8-1.5    c-2.4,0.4-6,0.7-10.8,0.9l-0.5-1.9h1.6c0.8-1.1,1.5-2.1,2-3.3h-3.7v-1.7h5.9c-0.4-0.5-0.9-0.9-1.4-1.5L106.8,32z M105.7,41.7h1.9    v9.4h-1.9V41.7z M109.5,41.7h1.9v7.1c0,0.3,0.2,0.5,0.6,0.5c0.6,0,0.9-0.2,0.9-0.7v-3.3l1.7,0.7c0,2.3-0.2,3.7-0.6,4.3    c-0.3,0.4-1,0.6-2,0.6c-0.8,0-1.5-0.1-1.9-0.4c-0.4-0.3-0.6-0.7-0.6-1.2V41.7z"/>
		<path class="st0" d="M128.8,43.4l-1.4,1.2c-0.4-0.7-1.1-1.5-1.9-2.4c-0.5-0.6-1.3-1.3-2.4-2.1l1.3-1.1c0.7,0.5,1.5,1.2,2.5,2.1    C127.5,41.6,128.1,42.4,128.8,43.4z"/>
		<path class="st0" d="M138.6,32.6h16.7v1.5h-7.4v1h8.5v4.6h-2v-3.1h-6.5v3.8c1.3,0.6,2.6,1.1,3.9,1.5c1,0.3,2.7,0.7,5,1.1l-1.1,1.7    c-1.2-0.2-2.3-0.5-3.4-0.8c-1.7-0.5-3.5-1.2-5.3-2.2c-1.3,0.6-2.6,1.2-3.8,1.6c-1.3,0.5-3.1,0.9-5.3,1.4l-0.9-1.8    c2.5-0.4,4.4-0.8,5.8-1.2c1-0.3,2.1-0.7,3.2-1.2v-3.9h-6.4v3.2h-2v-4.8h8.4v-1h-7.3V32.6z M146.7,42.5c0.7,0.6,1.3,1.3,1.8,2h5.5    V46c-0.7,0.7-1.6,1.4-2.6,2c-0.7,0.4-1.5,0.7-2.4,1.1c0.5,0.3,1,0.6,1.4,0.9l-1.1,1.6c-2.1-1.5-4.3-2.8-6.5-3.7l0.9-1.4    c1.3,0.5,2.5,1,3.6,1.6c1.1-0.4,2.1-0.8,3-1.3c0.4-0.2,0.8-0.5,1.2-0.7h-12v-1.6h6.9c-0.4-0.5-1-0.9-1.6-1.4L146.7,42.5z     M140.3,37.4h4.9v1.3h-4.9V37.4z M140.3,39.4h4.9v1.3h-4.9V39.4z M148.6,37.3h5.1v1.2h-5.1V37.3z M148.6,39.4h5.1v1.3h-5.1V39.4z"/>
		<path class="st0" d="M162.6,32l1.9,0.4c-0.3,0.6-0.6,1.1-0.8,1.6h4.7c-0.3-0.6-0.6-1.1-1-1.6l2.1-0.2c0.3,0.6,0.7,1.2,1,1.9h6.8    v1.6h-6.9v1.1h6.2v1.5h-6.2v1.2h6.2v1.5h-6.2v1.3h7.2v1.5h-16.4v-5.9c-0.5,0.6-1,1.2-1.6,1.7l-1.3-1.6    C160.2,36.2,161.6,34.2,162.6,32z M176.4,45v6.3h-1.9v-0.9h-11.8v0.9h-1.9V45H176.4z M162.7,48.7h11.8v-2h-11.8V48.7z M168.4,36.7    v-1.1H163v1.1H168.4z M168.4,39.4v-1.2H163v1.2H168.4z M168.4,42.3v-1.3H163v1.3H168.4z"/>
		<path class="st0" d="M186,32h1.9v3.3h1.9V32h1.9v3.3h1.5c0.5-0.8,0.9-1.7,1.4-2.9l2,0.7c-0.4,0.8-0.8,1.6-1.2,2.2h3.1V37h-5.8    l1.5,0.5c-0.3,0.5-0.6,0.9-0.9,1.3h4.6v1.6h-7.8v1.1h7.4v1.6h-7.4v1.1h8.6v1.6h-6.8c0.9,0.8,1.8,1.4,2.5,1.8    c1,0.5,2.4,0.9,4.2,1.3l-1.1,1.7c-2.1-0.6-3.6-1.3-4.7-1.9c-0.9-0.6-1.8-1.5-2.7-2.6v4.8h-1.9v-4.9c-0.6,0.7-1.2,1.3-1.9,1.8    c-1.2,0.9-3,1.8-5.4,2.7l-1-1.6c2.4-0.8,4.1-1.5,5.1-2.1c0.5-0.3,1-0.7,1.5-1.1h-6.7v-1.6h8.4v-1.1h-7.2v-1.6h7.2v-1.1h-7.7v-1.6    h4.7c-0.2-0.4-0.5-0.9-0.8-1.3l1.4-0.5h-5.9v-1.7h3c-0.3-0.7-0.6-1.4-1-2.2l1.9-0.7c0.4,0.8,0.7,1.8,1.1,2.9h1.5V32z M186.9,38.8    h4c0.4-0.6,0.8-1.2,1.1-1.8h-5.9C186.4,37.5,186.6,38.1,186.9,38.8z"/>
		<path class="st0" d="M210,52.1h-6.6v-1.6h5v-8.8h1.6V52.1z"/>
	</g>
</g>
</svg>