<?xml version="1.0" encoding="UTF-8"?>
<!-- Generator: Adobe Illustrator 21.0.2, SVG Export Plug-In . SVG Version: 6.00 Build 0)  -->
<svg version="1.1" id="圖層_1" xmlns="http://www.w3.org/2000/svg" xmlns:xlink="http://www.w3.org/1999/xlink" x="0px" y="0px" width="202.8px" height="31.6px" viewBox="0 0 202.8 31.6" style="enable-background:new 0 0 202.8 31.6;" xml:space="preserve">
<style type="text/css">
	.st0{fill:#222222;}
	.st1{fill:#009EA2;}
</style>
<g>
	<path class="st0" d="M25.5,9v18.9h5v2.8H0v-2.8h4.9V9H25.5z M16,0c0.4,0.8,0.8,1.8,1.2,2.8h12.7v7.8h-3.3V5.8H3.8v4.8H0.5V2.8h13.2   c-0.4-0.8-0.8-1.6-1.3-2.3L16,0z M8,15.4h14.2v-3.5H8V15.4z M8,21.6h14.2v-3.3H8V21.6z M8,27.9h14.2v-3.5H8V27.9z"/>
	<path class="st0" d="M42.5,0.1l2.3,2c-2.3,2.9-5.3,5.6-8.7,7.9l-2.2-2.8C37.1,5.3,40,2.9,42.5,0.1z M42.1,8.4L45,9.8   c-1.1,2.3-2.2,4.2-3.4,5.8v15.7h-3.2V19.1c-1,1-2.1,2-3.3,3l-1.1-3.9c1.7-1.4,3.2-2.8,4.4-4.2C39.7,12.8,40.9,10.9,42.1,8.4z    M44.1,14.9h20.2v2.5h-3.6v2h4.4v2.8h-4.4v5.9c0,1.2-0.3,2-0.8,2.4c-0.5,0.5-1.4,0.8-2.7,0.8h-4l-0.7-3.2c1.6,0.2,2.9,0.3,3.9,0.3   c0.8,0,1.2-0.3,1.2-0.8v-5.4H43.2v-2.8h14.5v-2H44.1V14.9z M45.6,1.3h18v11.5h-18V1.3z M49.6,22.9c1.1,1.2,2,2.6,2.8,4l-2.9,1.3   c-0.9-1.7-1.8-3.2-2.8-4.4L49.6,22.9z M48.7,6h11.8V3.8H48.7V6z M60.5,10.4V8.3H48.7v2.1H60.5z"/>
	<path class="st0" d="M83.2,0.2l1,3.1c-1.7,0.6-3.6,1-5.6,1.4v4.6h6.2v3.1h-6.2v0.3c2.2,2.1,4.4,4.5,6.6,7.1l-1.9,2.8   c-1.9-2.7-3.5-4.8-4.7-6.4v15.2h-3.1V16.7c-0.6,1.5-1.2,2.7-1.8,3.6c-1.1,1.9-2.5,3.7-4.2,5.5l-1.7-3.1c1.6-1.5,3.1-3.3,4.3-5.3   c0.9-1.4,1.7-3.1,2.3-5h-6V9.4h7.1V5.3c-1.8,0.3-3.8,0.5-5.9,0.7L69,3C74.3,2.5,79,1.6,83.2,0.2z M86.9,2.7h3.2v21.8h-3.2V2.7z    M94.5,0.1h3.4v27.5c0,1.3-0.3,2.2-0.9,2.7c-0.5,0.6-1.5,0.8-2.9,0.8h-5.5L88,27.6c2.1,0.2,3.8,0.3,5.2,0.3c0.9,0,1.3-0.3,1.3-0.8   V0.1z"/>
	<path class="st0" d="M109.6,0.1l3.1,0.4c-0.4,1.8-1,3.5-1.7,5h4.9v7.2c1-1.7,1.8-3.3,2.3-5c0.7-1.9,1.3-4.5,1.7-7.7l3.4,0.5   c-0.3,1.9-0.6,3.5-0.9,4.9h10.6c0,12-0.2,19.2-0.5,21.4c-0.3,1.7-0.9,2.9-1.7,3.4c-1,0.7-2.7,1-5.3,1c-0.8,0-1.6,0-2.6-0.1   l-0.5-3.4c1,0.2,2,0.3,3.1,0.3c2.2,0,3.4-0.7,3.7-2.2c0.4-1.8,0.7-7.6,0.7-17.4h-8.2c-0.1,0.2-0.2,0.4-0.2,0.6   c-0.7,2.5-2,5.1-3.8,7.9l-1.6-2v14h-3v-1.6h-6.3v2.6h-2.9V5.5h4.3C108.7,3.8,109.2,2,109.6,0.1z M106.6,15h6.3V8.3h-6.3V15z    M106.6,24.5h6.3v-6.8h-6.3V24.5z M122.6,13c1.9,3.2,3.5,5.9,4.6,8.2l-3.2,2.1c-1-2.5-2.3-5.3-4-8.6L122.6,13z"/>
	<path class="st1" d="M142,0l2.8,1.3c-0.6,2.2-1.2,4.2-1.8,5.8v24.4h-2.9V13.5c-0.7,1.3-1.4,2.5-2.2,3.7l-1.1-3.9   c1.1-1.8,2-3.7,2.8-5.7C140.5,5.8,141.3,3.3,142,0z M145.3,0.9h21.8v2.2h-9.4c-0.2,0.5-0.4,0.9-0.6,1.3h8.2v8.7h2.5v4.7h-2.3   c0.8,1.1,1.5,2,2,2.8l-2.2,1.6c-0.8-1.6-1.9-3.4-3.4-5.4l1.9-1.2c0.4,0.5,0.7,0.9,1.1,1.3v-1.8h-8.1c0.7,0.3,1.3,0.7,1.9,1   l-1.3,2.2c-1.1-0.8-2.2-1.5-3.4-2l0.8-1.2h-7.6v2.6h-2.9v-4.7h2.9V4.5h6.5c0.2-0.4,0.4-0.9,0.6-1.3h-9V0.9z M151,16.1h2.5v2.4   c0,0.4,0.3,0.6,0.9,0.6h4c0.2,0,0.4-0.1,0.6-0.2c0.1-0.2,0.2-0.9,0.3-2.1l2.4,0.6c-0.2,1.9-0.5,2.9-0.9,3.3c-0.4,0.4-1.1,0.5-2,0.5   H155c-0.4,0.4-0.7,0.8-1.1,1.2h10.2v1.9c-1.3,1.3-2.7,2.4-4.3,3.2c1.9,0.5,4.6,0.8,8.1,1.1l-0.7,2.8c-4.2-0.3-7.3-0.9-9.5-1.7   c-0.5-0.2-0.9-0.4-1.4-0.6c-2.7,0.9-6.4,1.7-11.1,2.4l-1.1-2.8c3.5-0.3,6.5-0.7,8.8-1.3c-1.1-0.6-2.1-1.4-3.1-2.1   c-1.1,0.5-2.3,1-3.8,1.6l-2-2.4c2.5-0.7,4.4-1.4,5.7-2c0.8-0.4,1.6-1,2.2-1.6c-0.1-0.1-0.2-0.1-0.3-0.2c-0.4-0.4-0.7-0.9-0.7-1.6   V16.1z M148.4,16.3l2.2,0.9c-0.9,2-2,3.8-3.3,5.3l-2.2-1.6C146.3,19.6,147.4,18.1,148.4,16.3z M150.2,7.6h12v-1h-12V7.6z    M150.2,10.4h12V9.4h-12V10.4z M150.2,13.2h12v-1.1h-12V13.2z M153.2,24.4c1.2,0.8,2.3,1.4,3.4,1.9c1.3-0.4,2.5-1.1,3.5-1.9H153.2z   "/>
	<path class="st1" d="M172.9,1.7h5.4V0h2.9v1.7h5.3V4h-5.3v1.6h6v2.5H184V9c0,0.5,0.2,0.7,0.7,0.7h2.7v2.1H184   c-0.8,0-1.4-0.2-1.7-0.6c-0.5-0.4-0.7-1.4-0.7-3h-3.1c-0.3,0.8-0.8,1.4-1.3,1.9c-0.7,0.8-2.2,1.7-4.5,2.8l-1.3-2.6   c1.5-0.4,2.6-0.8,3.4-1.4c0.3-0.2,0.6-0.4,0.9-0.7h-3.9V5.6h6.5V4h-5.4V1.7z M173.7,12.7h4.6v-2.7h2.9v2.7h4.8v2.4h-4.8v1.7   c2.1-0.2,3.9-0.5,5.7-0.8v2.4h1.8l-1.5-1.3c1.6-1.5,2.8-3,3.6-4.6c-0.9-1.1-1.9-2.1-3-3.3l1.9-1.7c0.7,0.7,1.4,1.4,2,2.1   c0.2-1.1,0.3-2.2,0.4-3.6h-4V3.5h4V0h2.6v3.5h4.6c-0.1,2.9-0.1,5.6-0.1,8.1c0,1.5,0.1,2.7,0.3,3.9c0.1,0.7,0.2,1,0.4,1   c0.2,0,0.4-1.6,0.5-4.7l2.5,1.5c-0.4,3-0.8,4.8-1.3,5.5c-0.4,0.6-1,1-1.5,1c-0.7,0-1.3-0.2-1.7-0.7c-0.6-0.5-1.1-1.3-1.3-2.4   c-0.3-1.2-0.5-2.9-0.5-5.1c0-1.5,0-3.3-0.1-5.4h-1.7c-0.1,2.4-0.3,4.4-0.8,6c0.9,1.1,1.8,2.2,2.5,3.3l-2,2c-0.5-0.8-1-1.6-1.6-2.4   c-0.8,1.4-1.8,2.8-3.2,4.2l-0.6-0.5c-0.3,0.9-0.5,1.8-0.8,2.5h12.3c-0.2,5.1-0.6,8-1.2,8.9c-0.6,0.8-1.9,1.3-4,1.3   c-2,0-3.4,0-4.3-0.1l-0.8-3.2c1.7,0.3,3.4,0.4,5.1,0.4c0.7,0,1.1-0.3,1.3-0.8c0.2-0.3,0.3-1.5,0.3-3.7h-9.9   c-0.7,1.3-1.4,2.3-2.1,3.1c-1.9,2-5.6,3.6-11.2,4.6l-1.2-3.1c4.9-0.6,8.1-1.7,9.8-3.3c0.4-0.4,0.7-0.8,1.1-1.3h-9.8v-2.8h11.3   c0.3-0.8,0.6-1.6,0.9-2.4c-2.8,0.5-7.1,1-12.8,1.4l-0.4-2.8c2.1,0,4-0.1,5.9-0.3v-2h-4.6V12.7z"/>
</g>
</svg>