<?xml version="1.0" encoding="UTF-8"?>
<!-- Generator: Adobe Illustrator 21.0.2, SVG Export Plug-In . SVG Version: 6.00 Build 0)  -->
<svg version="1.1" id="圖層_1" xmlns="http://www.w3.org/2000/svg" xmlns:xlink="http://www.w3.org/1999/xlink" x="0px" y="0px" width="232.3px" height="24.5px" viewBox="0 0 232.3 24.5" style="enable-background:new 0 0 232.3 24.5;" xml:space="preserve">
<style type="text/css">
	.st0{fill:#FFFFFF;}
</style>
<g>
	<path class="st0" d="M17.8,16.9c0,2.3-0.8,4-2.5,5.3c-1.5,1.2-3.5,1.8-5.9,1.8H0V0h8.9c2.2,0,4,0.6,5.5,1.7c1.6,1.3,2.4,3,2.4,5   c0,1.8-0.7,3.3-2.1,4.5C16.7,12.6,17.8,14.5,17.8,16.9z M11.9,7c0-1.8-1.2-2.6-3.6-2.6H4.7v5.2h3.6C10.7,9.5,11.9,8.7,11.9,7z    M12.9,16.7c0-1.2-0.6-2.1-1.9-2.5c-0.7-0.2-2-0.4-3.8-0.4H4.7v5.9h3.7C11.4,19.7,12.9,18.7,12.9,16.7z"/>
	<path class="st0" d="M35.7,24h-4.8l-0.1-1.2c-0.9,1.1-2.1,1.6-3.6,1.6c-2.3,0-3.9-0.7-5.1-2c-1.1-1.3-1.7-3.1-1.7-5.4V7H25v10.1   c0,2,0.9,3.1,2.6,3.1c1,0,1.7-0.3,2.3-1c0.5-0.6,0.8-1.4,0.8-2.4V7h4.6v12.6C35.2,20.8,35.4,22.3,35.7,24z"/>
	<path class="st0" d="M52.6,18.6c0,2-0.8,3.6-2.4,4.6c-1.4,0.9-3.1,1.3-5.3,1.3c-2.1,0-3.8-0.5-5-1.6c-1.3-1.1-2.1-2.7-2.2-4.8h4.6   c0.3,1.4,1.3,2.1,3,2.1c1.8,0,2.6-0.4,2.6-1.2c0-0.5-1.1-1.1-3.3-1.7c-2.1-0.6-3.5-1.1-4.3-1.6c-1.4-0.9-2.1-2.1-2.1-3.7   c0-1.8,0.7-3.3,2.2-4.2c1.3-0.8,2.9-1.2,4.8-1.2c4.4,0,6.7,2,7,6.1h-4.6c-0.4-1.2-1.3-1.8-2.5-1.8c-1.4,0-2,0.3-2,0.9   c0,0.5,0.6,0.9,1.8,1.3c2.9,0.9,4.5,1.5,5.1,1.8C51.7,15.8,52.6,17,52.6,18.6z"/>
	<path class="st0" d="M59.2,4.6h-4.6V0h4.6V4.6z M59.2,24h-4.5V7h4.5V24z"/>
	<path class="st0" d="M77.1,24h-4.6V13.9c0-2-0.9-3-2.6-3c-0.9,0-1.7,0.3-2.2,0.9c-0.5,0.6-0.7,1.4-0.7,2.4V24h-4.6V11.7   c0-0.8-0.2-2.4-0.5-4.7h4.7l0,1.2c1.2-1.1,2.6-1.7,4.1-1.7c2.3,0,3.9,0.7,5,2.2c0.9,1.2,1.4,2.9,1.4,5V24z"/>
	<path class="st0" d="M95.9,16.6H84.2c0.2,2.4,1.5,3.6,3.7,3.6c1.7,0,2.7-0.6,3.1-1.9h4.8c-0.8,4.1-3.5,6.2-7.9,6.2   c-2.8,0-4.9-0.9-6.4-2.8c-1.4-1.7-2-3.7-2-6.2c0-2.3,0.7-4.3,2-6c1.5-2,3.6-2.9,6.3-2.9c2.9,0,5,1.1,6.5,3.2   C95.3,11.5,95.9,13.8,95.9,16.6z M90.8,13.3c-0.1-0.7-0.4-1.2-1-1.7c-0.6-0.5-1.3-0.8-2.2-0.8c-0.8,0-1.5,0.2-2.1,0.7   c-0.6,0.5-1,1.1-1.1,1.7H90.8z"/>
	<path class="st0" d="M112.4,18.6c0,2-0.8,3.6-2.4,4.6c-1.4,0.9-3.1,1.3-5.3,1.3c-2.1,0-3.8-0.5-5-1.6c-1.3-1.1-2.1-2.7-2.2-4.8h4.6   c0.3,1.4,1.3,2.1,3,2.1c1.8,0,2.6-0.4,2.6-1.2c0-0.5-1.1-1.1-3.3-1.7c-2.1-0.6-3.5-1.1-4.3-1.6C98.7,14.8,98,13.5,98,12   c0-1.8,0.7-3.3,2.2-4.2c1.3-0.8,2.9-1.2,4.8-1.2c4.4,0,6.7,2,7,6.1h-4.6c-0.4-1.2-1.3-1.8-2.5-1.8c-1.4,0-2,0.3-2,0.9   c0,0.5,0.6,0.9,1.8,1.3c2.9,0.9,4.5,1.5,5.1,1.8C111.5,15.8,112.4,17,112.4,18.6z"/>
	<path class="st0" d="M128.7,18.6c0,2-0.8,3.6-2.4,4.6c-1.4,0.9-3.1,1.3-5.3,1.3c-2.1,0-3.8-0.5-5-1.6c-1.3-1.1-2.1-2.7-2.2-4.8h4.6   c0.3,1.4,1.3,2.1,3,2.1c1.8,0,2.6-0.4,2.6-1.2c0-0.5-1.1-1.1-3.3-1.7c-2.1-0.6-3.5-1.1-4.3-1.6c-1.4-0.9-2.1-2.1-2.1-3.7   c0-1.8,0.7-3.3,2.2-4.2c1.3-0.8,2.9-1.2,4.8-1.2c4.4,0,6.7,2,7,6.1h-4.6c-0.4-1.2-1.3-1.8-2.5-1.8c-1.4,0-2,0.3-2,0.9   c0,0.5,0.6,0.9,1.8,1.3c2.9,0.9,4.5,1.5,5.1,1.8C127.8,15.8,128.7,17,128.7,18.6z"/>
	<path class="st0" d="M167.7,24H163v-13l-6,13h-4l-6-13v13h-4.7V0h4.5l8.2,17.7L163.3,0h4.4V24z"/>
	<path class="st0" d="M188,15.5c0,2.4-0.7,4.5-2.2,6.2c-1.6,1.9-3.8,2.8-6.5,2.8c-2.7,0-4.9-0.9-6.5-2.8c-1.4-1.7-2.1-3.8-2.1-6.2   s0.7-4.5,2.2-6.2c1.6-1.9,3.8-2.8,6.5-2.8c2.7,0,4.9,0.9,6.5,2.8C187.3,11,188,13.1,188,15.5z M183.2,15.5c0-1.3-0.3-2.4-1-3.3   s-1.6-1.3-2.9-1.3c-1.2,0-2.1,0.4-2.8,1.3c-0.7,0.9-1,2-1,3.3s0.3,2.4,1,3.3c0.7,0.9,1.7,1.4,2.9,1.4s2.2-0.5,2.9-1.4   C182.9,17.9,183.2,16.8,183.2,15.5z"/>
	<path class="st0" d="M206.6,24h-4.7l-0.1-0.8c-1.4,0.8-2.8,1.2-4.2,1.2c-2.6,0-4.6-1-6-2.9c-1.1-1.6-1.7-3.6-1.7-6   c0-2.3,0.6-4.3,1.8-6c1.4-2,3.4-3,6-3c1.4,0,2.7,0.3,3.9,0.9V0h4.6v19.3C206.2,20.5,206.4,22,206.6,24z M201.6,15.3   c0-3-1.1-4.4-3.4-4.4c-1.1,0-1.9,0.5-2.6,1.4s-1,2-1,3.3s0.3,2.4,1,3.3c0.7,0.9,1.5,1.4,2.5,1.4C200.5,20.2,201.6,18.6,201.6,15.3z   "/>
	<path class="st0" d="M225.4,16.6h-11.7c0.2,2.4,1.5,3.6,3.7,3.6c1.7,0,2.7-0.6,3.1-1.9h4.8c-0.8,4.1-3.5,6.2-7.9,6.2   c-2.8,0-4.9-0.9-6.4-2.8c-1.4-1.7-2-3.7-2-6.2c0-2.3,0.7-4.3,2-6c1.5-2,3.6-2.9,6.3-2.9c2.9,0,5,1.1,6.5,3.2   C224.8,11.5,225.4,13.8,225.4,16.6z M220.4,13.3c-0.1-0.7-0.4-1.2-1-1.7c-0.6-0.5-1.3-0.8-2.2-0.8c-0.8,0-1.5,0.2-2.1,0.7   c-0.6,0.5-1,1.1-1.1,1.7H220.4z"/>
	<path class="st0" d="M232.3,24h-4.6V0h4.6V24z"/>
</g>
</svg>