<?xml version="1.0" encoding="UTF-8"?>
<!-- Generator: Adobe Illustrator 23.0.6, SVG Export Plug-In . SVG Version: 6.00 Build 0)  -->
<svg version="1.1" id="圖層_1" xmlns="http://www.w3.org/2000/svg" xmlns:xlink="http://www.w3.org/1999/xlink" x="0px" y="0px" width="175.5px" height="29.2px" viewBox="0 0 175.5 29.2" style="enable-background:new 0 0 175.5 29.2;" xml:space="preserve">
<style type="text/css">
	.st0{fill:#FFFFFF;}
</style>
<g>
	<path class="st0" d="M0,29.2V0h22.1v4.6H5.4v7.2h15.4V16H5.4v8.6h17.4v4.6H0z"/>
	<path class="st0" d="M46,29.2L34.4,10.6l-2.2-4.8l0.6,6.5v16.9h-5.2V0h5.8l11.5,18.6l2.2,4.8l-0.6-6.5V0h5.2v29.2H46z"/>
	<path class="st0" d="M71.2,4.6v24.6h-5.4V4.6H55.4V0h26.2v4.6H71.2z"/>
	<path class="st0" d="M102.7,29.2c-0.6-0.6-1-1-1-3.1v-3.5c0-2.1-0.6-4.8-3.8-4.8h-7.5v11.4h-5.4V0h13.8c5.4,0,9,3.4,9,7.9   c0,1.9-0.6,3.7-1.8,5c-1.1,1.3-2.1,1.8-4.6,2.4c2.8,0.4,5.6,1.2,5.6,6.7v3c0,2.9,1.1,3.7,1.9,4.2H102.7z M98.2,4.6h-7.6v8.6h6.8   c3,0,4.8-1.6,4.8-4.6C102.1,6,100.6,4.6,98.2,4.6z"/>
	<path class="st0" d="M126,18v11.2h-5.4V18L110.3,0h6.1l6,11.4l1,2l0.9-2l6-11.4h6.1L126,18z"/>
	<path class="st0" d="M164.1,20.7v-5.5h-24.6v-2.4h24.6V7.3l11.4,6.7L164.1,20.7z"/>
</g>
</svg>