<?xml version="1.0" encoding="UTF-8"?>
<!-- Generator: Adobe Illustrator 21.0.2, SVG Export Plug-In . SVG Version: 6.00 Build 0)  -->
<svg version="1.1" id="圖層_1" xmlns="http://www.w3.org/2000/svg" xmlns:xlink="http://www.w3.org/1999/xlink" x="0px" y="0px" width="139.6px" height="72.3px" viewBox="0 0 139.6 72.3" style="enable-background:new 0 0 139.6 72.3;" xml:space="preserve">
<style type="text/css">
	.st0{fill:#009D95;}
	.st1{fill:#FFFFFF;}
</style>
<g>
	<rect class="st0" width="139.6" height="72.3"/>
	<path class="st1" d="M10.5,8.5h8.2l7.6,13h0.2c-0.3-2-0.7-4-0.7-6v-7H34L34,32h-8.1l-7.5-12.3h-0.3c0.3,1.6,0.5,3.1,0.5,4.7V32   h-8.2V8.5z"/>
	<rect x="37.8" y="8.5" class="st1" width="8.5" height="23.5"/>
	<polygon class="st1" points="48.7,8.5 66.6,8.5 66.6,16.1 61.9,15.9 61.9,32 53.3,32 53.3,15.9 48.7,16.1  "/>
	<path class="st1" d="M93.9,20.3c0,7.5-5.8,12.1-13,12.1c-7.2,0-13-4.5-13-12.1c0-7.4,5.8-12.2,13-12.2   C88.1,8.1,93.9,12.9,93.9,20.3 M76.6,20.4c0,2.7,1.8,4.5,4.4,4.5c2.6,0,4.4-1.8,4.4-4.5c0-2.5-1.7-4.6-4.4-4.6   C78.2,15.9,76.6,17.9,76.6,20.4"/>
	<path class="st1" d="M96.9,8.5h10.3c5.3,0,9.8,2.2,9.8,8.2c0,3.5-1.4,5-4.5,6.1V23c0.4,0.3,1,0.7,1.4,1.4L119,32h-9.8l-3.7-7.5   h-0.1V32h-8.3V8.5z M105.3,18.9h0.6c1.4,0,2.8-0.2,2.8-2c0-1.8-1.3-2-2.7-2h-0.7V18.9z"/>
	<rect x="120.6" y="8.5" class="st1" width="8.5" height="23.5"/>
	<g>
		<path class="st1" d="M13.9,48.9H11v-7h8.7v-1.5h4v1.5h8.8v7h-2.9v10.3h3.4V63H10.5v-3.9h3.4V48.9z M28.5,46.4v-1.1H15v1.1H28.5z     M17.8,49.7v1.1h7.9v-1.1H17.8z M17.8,53.8V55h7.9v-1.2H17.8z M17.8,58v1.2h7.9V58H17.8z"/>
		<path class="st1" d="M34,44.1c1.7-1.1,2.5-2.1,3.5-3.9l3.7,1.1c-0.8,1.6-3,5.1-5.7,6.9L34,44.1z M42,47.8    c-0.6,1.2-1.3,2.4-2.1,3.5v12.3H36v-7.9c-0.4,0.3-0.5,0.4-1,0.7l-1-5.1c2.2-1.5,4-4.3,4.7-5.4l3.3,1.5V41h13.9v8.7H42V47.8z     M43.1,57.6h-2.4v-3.3h10v-0.8h-9.4v-3h15.3v3h-2v0.8h2.6v3.3h-2.6v3.9c0,1.3-0.3,2.2-2.5,2.2h-4l-0.6-3.5h2.5    c0.5,0,0.6-0.1,0.6-0.7v-1.8h-5.3c0.9,0.8,1.5,1.6,2.2,2.5l-3,2.4c-0.8-1.4-2.5-3.2-2.9-3.7L43.1,57.6z M45.7,43.5v1h6.5v-1H45.7z     M45.7,46.5v1h6.5v-1H45.7z"/>
		<path class="st1" d="M62.9,44.7c-0.9,0-2.9,0.1-3.7,0.1l-0.5-3.7c3.4,0,7.7-0.1,10.8-1l1.1,3.7c-1,0.2-1.7,0.4-3.9,0.6v2.2h3.6    v3.8H67c1.7,3.3,2.7,4.3,3.4,5.1l-2,3.4c-0.5-0.8-1-1.4-1.8-3v7.9h-3.8v-7.6c-1.1,2.2-2.5,3.8-3.3,4.8l-1.3-5.1    c2.6-2.1,4.2-5.3,4.3-5.5h-3.9v-3.8h4.3V44.7z M75.1,42.1V58h-4V42.1H75.1z M80.6,40.3v20.5c0,2.3-0.6,3-3.2,3h-4.5l-0.7-4.3h3.7    c0.7,0,0.7-0.2,0.7-0.7V40.3H80.6z"/>
		<path class="st1" d="M105,51.8c-0.6,0.6-1.6,1.6-4,3.4c0.8,1.5,2,3,4.4,5l-3.1,3c-5.4-5.2-6.3-12.1-6.5-13.9h-0.5    c-0.4,0.4-0.6,0.7-1.4,1.3c0.7,0.8,3.3,3.6,3.3,8.2c0,4.1-2.1,5.1-3.5,5.1h-4L89,61c-2.5,1.1-4.5,1.6-5.6,1.9l-1.3-3.5    c5.1-0.9,8.9-2.5,11.1-3.9c0-0.2-0.1-0.4-0.3-0.9c-1.7,1.1-5.1,2.7-8.9,3.4l-1.3-3.1c4.6-0.6,7.5-1.7,8.9-2.5    c-0.3-0.3-0.4-0.5-0.5-0.7c-0.6,0.3-3.1,1.4-7.2,2l-1.2-3.2c2.2-0.1,5.5-0.5,7.4-1.6h-4.4v-1.3h-2.5v-5.9h8.7v-1.5h3.9v1.5h8.7    v5.9h-2.6v1.3h-3c0.2,1.3,0.4,2,0.6,2.6c0.4-0.3,1.9-1.4,3.1-2.8L105,51.8z M100.7,46.2v-1.1H87v1.1H100.7z M92.4,60.5    c0.7,0,1.2-0.2,1.2-2.1c-0.5,0.4-1.6,1.2-3.4,2.1H92.4z"/>
		<path class="st1" d="M111.8,53.4c-0.1,3.6-0.8,7.2-2.5,10.4l-3.2-3.2c0.8-1.5,2-3.7,2-11.4v-8h20.4v7.7H122v1.2h7.1v3.5H122v1.2    h5.8v9.2h-3.9v-0.9h-7.7v0.9h-3.8v-9.2h5.7v-1.2H111.8z M118,49.9v-1.2h-6.1v1.2H118z M111.9,44.3v1.3h12.6v-1.3H111.9z     M116.1,57.7v1.8h7.7v-1.8H116.1z"/>
	</g>
</g>
</svg>