<?xml version="1.0" encoding="UTF-8"?>
<!-- Generator: Adobe Illustrator 21.0.2, SVG Export Plug-In . SVG Version: 6.00 Build 0)  -->
<svg version="1.1" id="圖層_1" xmlns="http://www.w3.org/2000/svg" xmlns:xlink="http://www.w3.org/1999/xlink" x="0px" y="0px" width="119.3px" height="19.4px" viewBox="0 0 119.3 19.4" style="enable-background:new 0 0 119.3 19.4;" xml:space="preserve">
<g>
	<g>
		<path d="M7.6,9.7v9.7H5.8V18h-4v1.3H0V9.7H7.6z M1.8,16.4h4v-5.1h-4V16.4z M2.2,1h13.6v7H2.2V1z M13.8,6.2V2.8H4.2v3.4H13.8z     M17.6,9.7v9.7h-1.8V18h-4.4v1.3H9.6V9.7H17.6z M11.4,16.4h4.4v-5.1h-4.4V16.4z"/>
		<path d="M31.3,16.2l1,1.3c-1.1,0.4-2.1,0.7-3,0.9c-1,0.2-2.3,0.5-3.9,0.7l-1-1.7c1.5-0.2,2.9-0.3,4-0.6    C29.5,16.7,30.4,16.5,31.3,16.2z M32.7,0.1l0.9,1.7c-1.8,0.2-3.8,0.3-6,0.3v0.7c0,0.1,0,0.3,0,0.4H34v1.6h-2.4V7h2.7l-0.9-0.9    c0.5-0.4,0.9-0.8,1.1-1.3c0.2-0.5,0.3-1,0.4-1.6V0.7c2.8,0,5.2-0.2,7.1-0.6l0.9,1.7C41,2,39,2.1,36.7,2.2v1h6.5v1.5h-2.8V7h0.9v9    H26.8V7h3V4.7h-2.4c-0.1,0.4-0.2,0.7-0.2,1.1c-0.3,0.9-0.7,1.8-1.4,2.6l-1.3-1.4c0.5-0.6,0.9-1.2,1.1-1.9c0.2-0.7,0.4-1.5,0.4-2.4    V0.7C28.7,0.7,30.9,0.5,32.7,0.1z M28.6,9.6h11V8.4h-11V9.6z M28.6,12.1h11v-1.2h-11V12.1z M39.5,14.5v-1.2h-11v1.2H39.5z M35.2,7    h3.4V4.7h-2.2c-0.1,0.3-0.2,0.6-0.3,0.8C36,6,35.7,6.5,35.2,7z M36.4,16.2c2.2,0.3,4.6,0.8,7.1,1.4l-0.7,1.8    c-2.3-0.7-4.6-1.3-7.1-1.6L36.4,16.2z"/>
		<path d="M60.9,11.3h-3.2V8.1h3.2V11.3z"/>
		<path d="M74.9,4.1h2.2v-4h1.8v4h1.6v1.7h-1.6V7c0.8,0.9,1.5,1.9,2.3,3l-0.3,0.5h1.8c0-0.5,0-1,0-1.5c-0.5,0.1-0.9,0.1-1.4,0.2    l-0.3-1.5c0.3,0,0.6,0,0.9-0.1c0.5-0.7,0.9-1.4,1.4-2.3c-0.7,0.1-1.5,0.3-2.3,0.4l-0.3-1.4c0.3,0,0.5-0.1,0.8-0.1    c0.7-1.2,1.2-2.5,1.5-4l1.5,0.2c-0.3,1.3-0.8,2.5-1.4,3.6c0.3-0.1,0.6-0.1,0.9-0.2c0.3-0.5,0.5-1.1,0.7-1.7l1.4,0.5    c-0.9,1.9-1.8,3.5-2.7,4.8c0.5,0,1-0.1,1.4-0.1c-0.1-0.4-0.2-0.8-0.3-1.2L85.6,6c0.5,1.1,0.8,2.2,1.1,3.1l-1.3,0.5    c-0.1-0.3-0.1-0.6-0.2-0.9c-0.3,0-0.6,0.1-0.9,0.1c0,0.6,0,1.2,0,1.7H87c-0.3-2.2-0.5-5.7-0.6-10.4H88c0.1,4.9,0.3,8.4,0.6,10.4    h1.9c-0.1-0.4-0.3-0.9-0.5-1.3c-0.4,0-0.7,0.1-1.1,0.1l-0.4-1.5c0.3,0,0.6,0,0.9,0c0.5-0.7,0.9-1.5,1.4-2.5    c-0.7,0.1-1.5,0.3-2.3,0.4l-0.3-1.4c0.3,0,0.5-0.1,0.8-0.1c0.6-1.2,1-2.5,1.3-4l1.5,0.2c-0.3,1.3-0.7,2.5-1.2,3.6    c0.3,0,0.7-0.1,0.9-0.2c0.2-0.4,0.4-0.9,0.6-1.4l1.4,0.5C92.7,5,91.8,6.5,91,7.7c0.5-0.1,0.9-0.2,1.3-0.3    c-0.1-0.4-0.2-0.7-0.3-1.1l1.1-0.2c0.5,1.1,0.8,2.1,1,3l-1.3,0.5c-0.1-0.3-0.1-0.6-0.2-0.9c-0.3,0.1-0.7,0.2-1,0.2    c0.2,0.5,0.4,1,0.6,1.5h1.9v1.6h-5.2c0.2,0.9,0.4,1.7,0.7,2.4c0.5-0.5,0.9-1.2,1.4-1.9l1.4,0.7c-0.6,1.1-1.3,2-2,2.7    c0.7,1.1,1.2,1.6,1.7,1.6c0.1,0,0.2-0.1,0.2-0.2c0.1-0.2,0.2-1.1,0.2-2.7l1.6,0.9c-0.2,1.6-0.5,2.6-0.8,3.1    c-0.3,0.4-0.7,0.6-1.3,0.6c-0.9,0-1.8-0.8-2.9-2.3l0,0c-1,0.8-2.2,1.5-3.9,2.1l-0.9-1.4c1.5-0.5,2.8-1.2,3.8-2    c0.1-0.1,0.1-0.1,0.2-0.1c-0.5-1-0.8-2.2-1.1-3.5h-3.1c0,0.3-0.1,0.5-0.1,0.7c1,0.7,1.9,1.4,2.8,2.2l-1,1.5    c-0.7-0.8-1.4-1.5-2.1-2c-0.3,1.1-0.6,2-1,2.6c-0.4,0.8-1.1,1.5-1.9,2.3l-1.3-1.6c0.9-0.8,1.5-1.6,1.9-2.3c0.3-0.6,0.6-1.6,0.9-3    c0-0.2,0-0.3,0.1-0.4h-2.1v-1l-0.3,0.5c-0.5-0.9-0.9-1.7-1.2-2.3v10.2h-1.8v-9c-0.5,1.4-1.1,2.6-1.7,3.7L74.6,12    c1-1.7,1.8-3.5,2.5-5.7V5.8h-2.2V4.1z"/>
		<path d="M103.5,0l2,0.7c-0.5,1.3-1.1,2.5-1.8,3.5c1.4-0.1,2.6-0.1,3.5-0.2c-0.4-0.5-0.8-1-1.3-1.5l1.3-0.8    c1.4,1.4,2.5,2.7,3.3,3.8l-1.6,1c-0.2-0.3-0.3-0.5-0.5-0.8c-1.8,0.3-4.6,0.5-8.2,0.7l-0.6-2.1c0.6,0,1.2,0,1.8,0    C102.3,2.9,103,1.5,103.5,0z M109.1,7.1v10c0,0.7-0.2,1.2-0.5,1.5c-0.3,0.3-0.7,0.5-1.2,0.5h-2.1l-0.4-1.8l1.8,0.1    c0.4,0,0.6-0.3,0.6-0.7v-1.1h-4.7v3.8h-1.8V7.1H109.1z M102.6,10.6h4.7V8.9h-4.7V10.6z M102.6,14h4.7v-1.8h-4.7V14z M110.8,0.2h2    v3.1c2.1-0.6,3.9-1.3,5.4-2l1.1,1.5c-1.9,0.9-4,1.7-6.5,2.3v1.2c0,0.5,0.2,0.7,0.7,0.7h2.9c0.3,0,0.5-0.1,0.6-0.2    c0.2-0.2,0.3-0.9,0.3-2.2l1.9,0.6c-0.2,1.8-0.4,2.8-0.8,3.1c-0.3,0.3-0.9,0.5-1.7,0.5h-3.9c-0.6,0-1.1-0.2-1.5-0.5    c-0.4-0.3-0.6-0.8-0.6-1.4V0.2z M110.8,9.4h2v3.2c2.1-0.6,3.9-1.3,5.4-2.1l1.1,1.6c-1.9,0.9-4.1,1.8-6.5,2.5v1.9    c0,0.4,0.2,0.6,0.7,0.6h3.3c0.2,0,0.3-0.1,0.4-0.2c0.1-0.2,0.2-0.9,0.2-2.1l1.9,0.6c-0.2,1.7-0.4,2.8-0.7,3.1    c-0.3,0.3-0.8,0.5-1.5,0.5h-4.2c-0.6,0-1.1-0.2-1.5-0.5c-0.4-0.3-0.6-0.8-0.6-1.3V9.4z"/>
	</g>
</g>
</svg>