<?xml version="1.0" encoding="UTF-8"?>
<!-- Generator: Adobe Illustrator 21.0.2, SVG Export Plug-In . SVG Version: 6.00 Build 0)  -->
<svg version="1.1" id="圖層_1" xmlns="http://www.w3.org/2000/svg" xmlns:xlink="http://www.w3.org/1999/xlink" x="0px" y="0px" width="44.9px" height="19.3px" viewBox="0 0 44.9 19.3" style="enable-background:new 0 0 44.9 19.3;" xml:space="preserve">
<g>
	<g>
		<path d="M0.2,5h5.3v1.4C4.9,7.6,4,8.8,3,10.1h2.5v1.3c-0.3,1.4-0.6,2.4-1,3.1c0.8,0.9,1.4,1.4,1.9,1.6c0.5,0.3,1.1,0.5,2,0.6    c1,0.2,3,0.2,6,0.3c2.2,0,3.8-0.1,4.9-0.2l-0.2,2c-5.8,0-9.3-0.1-10.6-0.2c-1.1-0.2-2.1-0.4-2.8-0.8c-0.6-0.3-1.3-0.8-2-1.7    c-0.6,1-1.3,2-2.3,3.1L0,17.7c1.1-1.1,1.9-2.1,2.3-2.9c0.4-0.5,0.8-1.5,1.3-3H0.7v-1.5c0.8-0.9,1.7-2.1,2.6-3.5H0.2V5z M2.6,0.2    c0.9,1,1.6,1.9,2.2,2.9L3.5,4.4c-0.5-0.9-1.2-2-2.2-3L2.6,0.2z M6.2,1.6h5.2V0h1.9v1.6h5.3v1.7h-5.3v1.3h4.7v5.5h-4.7v0.4    c2.1,0.8,4,1.8,5.7,3l-1.1,1.6c-1.5-1.1-3-2.1-4.6-2.8v4h-1.9v-4.1c-0.5,0.4-0.9,0.7-1.3,1c-1,0.7-2.2,1.4-3.7,2l-0.9-1.6    c1.5-0.5,2.8-1.2,3.8-1.9c0.7-0.4,1.3-0.9,1.9-1.5H6.7V4.7h4.7V3.4H6.2V1.6z M11.4,8.5V6.3H8.5v2.2H11.4z M16.1,8.5V6.3h-2.9v2.2    H16.1z"/>
		<path d="M36.1,0c0.3,0.5,0.6,1,0.9,1.6h7.6v1.6h-3.8V5h3.4v1.5h-3.4v3.3h-8.9V6.5h-3.3v2.3c0,1.5-0.1,3.1-0.3,4.7    c-0.3,1.7-0.7,3.3-1.4,5L25.2,17c0.6-1.3,1-2.7,1.2-4.1c0.2-1.5,0.3-2.9,0.3-4.1V1.6h8.2c-0.3-0.5-0.6-0.9-0.9-1.3L36.1,0z     M29.9,10.9h12.8v1.3c-1.1,1.3-2.5,2.5-4.3,3.5c1.6,0.7,3.8,1.3,6.6,1.9l-1.4,1.6c-2.6-0.7-4.7-1.4-6.3-2.1    c-0.3-0.2-0.6-0.3-0.9-0.4c-2.1,1-4.4,1.7-7,2.1L28.6,17c2.3-0.3,4.2-0.7,5.8-1.3c-1.1-0.7-2.1-1.5-2.9-2.3l1.3-0.9h-2.9V10.9z     M31.9,5V3.2h-3.3V5H31.9z M33,12.4c0.9,0.9,2.1,1.7,3.4,2.4c1.3-0.7,2.4-1.5,3.3-2.4H33z M38.8,5V3.2h-4.9V5H38.8z M33.9,6.5v1.8    h4.9V6.5H33.9z"/>
	</g>
</g>
</svg>