<?xml version="1.0" encoding="UTF-8"?>
<!-- Generator: Adobe Illustrator 21.0.2, SVG Export Plug-In . SVG Version: 6.00 Build 0)  -->
<svg version="1.1" id="圖層_1" xmlns="http://www.w3.org/2000/svg" xmlns:xlink="http://www.w3.org/1999/xlink" x="0px" y="0px" width="61.6px" height="26.8px" viewBox="0 0 61.6 26.8" style="enable-background:new 0 0 61.6 26.8;" xml:space="preserve">
<style type="text/css">
	.st0{fill:#FFFFFF;}
</style>
<g>
	<g>
		<path class="st0" d="M4.8,0.1l2.3,1V1h19.5v2h-6.2v1.5h5.4v5.7H7.3V4.5h5.5V3H7V1.5C6.5,3.4,6,5,5.4,6.4v20.2H2.9V11.4    c-0.6,1.1-1.3,2.1-2,3.1L0,11.3c1-1.5,1.8-3.1,2.5-4.8C3.3,5,4,2.9,4.8,0.1z M13.6,22.4l1.4,1.8c-1.2,0.7-2.3,1.1-3.3,1.4    c-1.1,0.4-2.5,0.7-4.2,1l-1.2-2.3c1.6-0.2,3.1-0.5,4.3-0.9C11.7,23.2,12.7,22.9,13.6,22.4z M8.3,11.3H25v11H8.3V11.3z M12.8,8.4    v-2H9.7v2H12.8z M10.5,14.5h12.2v-1.2H10.5V14.5z M10.5,17.4h12.2v-1.2H10.5V17.4z M22.8,20.4v-1.2H10.5v1.2H22.8z M18,4.5V3h-3    v1.5H18z M18,8.4v-2h-3v2H18z M19.4,22.5c2.3,0.4,4.8,1,7.3,1.9l-0.9,2.4c-2.4-1-4.9-1.8-7.5-2.3L19.4,22.5z M23.3,8.4v-2h-3v2    H23.3z"/>
		<path class="st0" d="M35,5.6h4.1V0h2.5v5.6h3.1v1.2c1-0.9,1.8-1.9,2.5-2.8C47.8,3,48.4,1.8,49,0.1l2.7,0.3    c-0.2,0.8-0.5,1.5-0.8,2.2h8.6v2c-1.5,2.4-3,4.3-4.6,5.7c1.7,1,4,1.9,6.7,2.5L60.1,15c-3.2-1-5.6-2-7.2-3.1    c-1.9,1.3-4.3,2.4-7.2,3.4l-1-2l-0.8,1.2c-0.8-1.2-1.5-2.3-2.1-3.1v15.1h-2.5V13.1c-0.9,2.4-2,4.4-3.3,6.2l-1-2.8    C36.5,14,38,11.2,39.1,8V7.9H35V5.6z M44.9,12.8c2.3-0.7,4.2-1.5,5.7-2.4c-1.1-0.9-2-2-2.8-3c-0.6,0.7-1.3,1.3-2,1.9l-1.1-1.6v0.2    h-3.1v0.7c1.2,1.2,2.4,2.4,3.6,3.8L44.9,12.8z M59.4,15.5v11.1h-2.7V25h-7.4v1.6h-2.7V15.5H59.4z M49.2,22.7h7.4v-4.8h-7.4V22.7z     M49.4,5.3c0.9,1.4,2.1,2.6,3.3,3.6c1.1-1,2.2-2.3,3.5-4h-6.6C49.6,5,49.5,5.2,49.4,5.3z"/>
	</g>
</g>
</svg>