<?xml version="1.0" encoding="UTF-8"?>
<!-- Generator: Adobe Illustrator 21.0.2, SVG Export Plug-In . SVG Version: 6.00 Build 0)  -->
<svg version="1.1" id="圖層_1" xmlns="http://www.w3.org/2000/svg" xmlns:xlink="http://www.w3.org/1999/xlink" x="0px" y="0px" width="44.6px" height="19.4px" viewBox="0 0 44.6 19.4" style="enable-background:new 0 0 44.6 19.4;" xml:space="preserve">
<g>
	<g>
		<path d="M3.4,0.1l1.6,0.7v0h14.1v1.5h-4.5v1.1h3.9v4.2H5.3V3.3h4V2.2H5.1V1.1C4.7,2.5,4.3,3.6,3.9,4.6v14.6H2.1V8.2    C1.7,9,1.2,9.8,0.7,10.5L0,8.2c0.7-1.1,1.3-2.3,1.8-3.5C2.4,3.6,2.9,2.1,3.4,0.1z M9.8,16.2l1,1.3c-0.9,0.5-1.7,0.8-2.4,1    c-0.8,0.3-1.8,0.5-3.1,0.8l-0.9-1.6c1.2-0.2,2.2-0.4,3.1-0.6C8.4,16.8,9.2,16.5,9.8,16.2z M6,8.2h12.1v8H6V8.2z M9.3,6.1V4.7H7.1    v1.4H9.3z M7.6,10.5h8.9V9.6H7.6V10.5z M7.6,12.6h8.9v-0.9H7.6V12.6z M16.5,14.8v-0.9H7.6v0.9H16.5z M13,3.3V2.2h-2.2v1.1H13z     M13,6.1V4.7h-2.2v1.4H13z M14,16.3c1.7,0.3,3.5,0.7,5.3,1.4l-0.7,1.7c-1.7-0.7-3.5-1.3-5.4-1.6L14,16.3z M16.9,6.1V4.7h-2.2v1.4    H16.9z"/>
		<path d="M25.3,4h3V0h1.8v4h2.3v0.9c0.7-0.7,1.3-1.3,1.8-2.1c0.5-0.6,0.9-1.6,1.3-2.8l2,0.2c-0.2,0.6-0.3,1.1-0.6,1.6h6.2v1.4    C42,5,40.9,6.4,39.7,7.4c1.3,0.7,2.9,1.3,4.9,1.8l-1.1,1.6c-2.3-0.7-4-1.4-5.2-2.2c-1.4,0.9-3.1,1.8-5.2,2.5l-0.8-1.4l-0.6,0.8    c-0.6-0.9-1.1-1.6-1.5-2.2v11h-1.8V9.5c-0.7,1.7-1.4,3.2-2.4,4.5l-0.7-2.1c1.3-1.8,2.3-3.8,3.1-6.1V5.7h-3V4z M32.5,9.3    c1.7-0.5,3-1.1,4.2-1.8c-0.8-0.7-1.5-1.4-2-2.2c-0.4,0.5-0.9,1-1.5,1.4l-0.8-1.1v0.1h-2.3v0.5C31,7.1,31.9,8,32.7,9L32.5,9.3z     M43,11.2v8h-2v-1.1h-5.4v1.1h-2v-8H43z M35.6,16.4H41V13h-5.4V16.4z M35.8,3.8c0.7,1,1.5,1.9,2.4,2.6c0.8-0.7,1.6-1.7,2.5-2.9H36    C35.9,3.7,35.9,3.8,35.8,3.8z"/>
	</g>
</g>
</svg>