<?xml version="1.0" encoding="UTF-8"?>
<!-- Generator: Adobe Illustrator 21.0.2, SVG Export Plug-In . SVG Version: 6.00 Build 0)  -->
<svg version="1.1" id="圖層_1" xmlns="http://www.w3.org/2000/svg" xmlns:xlink="http://www.w3.org/1999/xlink" x="0px" y="0px" width="62.1px" height="26.7px" viewBox="0 0 62.1 26.7" style="enable-background:new 0 0 62.1 26.7;" xml:space="preserve">
<style type="text/css">
	.st0{fill:#FFFFFF;}
</style>
<g>
	<g>
		<path class="st0" d="M0.3,6.9h7.4v1.9c-0.9,1.6-2.1,3.3-3.6,5.1h3.5v1.7c-0.4,1.9-0.9,3.3-1.3,4.3c1.1,1.2,1.9,2,2.6,2.3    c0.6,0.4,1.6,0.7,2.8,0.8c1.4,0.2,4.2,0.3,8.3,0.4c3,0,5.3-0.1,6.8-0.2l-0.3,2.7c-8,0-12.9-0.1-14.7-0.3c-1.6-0.2-2.9-0.6-3.8-1    c-0.8-0.4-1.8-1.2-2.8-2.4c-0.8,1.4-1.9,2.8-3.2,4.3L0,24.4c1.5-1.5,2.6-2.8,3.2-4c0.5-0.7,1.1-2.1,1.8-4.2h-4v-2.1    c1.2-1.2,2.4-2.9,3.7-4.9H0.3V6.9z M3.6,0.3c1.2,1.3,2.2,2.7,3,4L4.9,6.1c-0.7-1.3-1.7-2.7-3-4.2L3.6,0.3z M8.5,2.3h7.2V0h2.6v2.3    h7.4v2.4h-7.4v1.8h6.5V14h-6.5v0.5c2.9,1.2,5.5,2.5,7.8,4.1l-1.5,2.3c-2.1-1.5-4.2-2.8-6.3-3.9v5.5h-2.6v-5.7    c-0.6,0.6-1.2,1-1.8,1.4c-1.3,1-3.1,1.9-5.2,2.8l-1.2-2.3c2-0.7,3.8-1.6,5.3-2.6c1-0.6,1.8-1.3,2.6-2.1H9.3V6.4h6.5V4.6H8.5V2.3z     M15.7,11.8V8.7h-4v3.1H15.7z M22.3,11.8V8.7h-4v3.1H22.3z"/>
		<path class="st0" d="M49.8,0c0.4,0.6,0.8,1.4,1.2,2.2h10.5v2.3h-5.2v2.5h4.8V9h-4.8v4.5H44.1V9h-4.5v3.2c0,2.1-0.2,4.2-0.5,6.5    c-0.4,2.3-1,4.6-1.9,6.9l-2.4-2c0.8-1.8,1.4-3.7,1.6-5.6c0.3-2.1,0.4-4,0.4-5.7V2.2h11.3c-0.4-0.6-0.8-1.2-1.2-1.7L49.8,0z     M41.2,15h17.7v1.8c-1.5,1.9-3.5,3.5-5.9,4.9c2.2,0.9,5.2,1.8,9.1,2.7l-1.9,2.3c-3.6-1-6.5-2-8.7-2.9c-0.4-0.2-0.8-0.4-1.2-0.6    c-2.9,1.3-6.1,2.3-9.6,2.9l-1.2-2.6c3.1-0.4,5.8-1,8.1-1.8c-1.5-1-2.9-2-4-3.2l1.8-1.2h-4V15z M44.1,6.9V4.4h-4.5v2.5H44.1z     M45.6,17.2c1.3,1.2,2.8,2.3,4.6,3.3c1.8-0.9,3.3-2,4.6-3.3H45.6z M53.5,6.9V4.4h-6.7v2.5H53.5z M46.8,9v2.5h6.7V9H46.8z"/>
	</g>
</g>
</svg>