<?xml version="1.0" encoding="UTF-8"?>
<!-- Generator: Adobe Illustrator 21.0.2, SVG Export Plug-In . SVG Version: 6.00 Build 0)  -->
<svg version="1.1" id="圖層_1" xmlns="http://www.w3.org/2000/svg" xmlns:xlink="http://www.w3.org/1999/xlink" x="0px" y="0px" width="421.3px" height="171.5px" viewBox="0 0 421.3 171.5" style="enable-background:new 0 0 421.3 171.5;" xml:space="preserve">
<style type="text/css">
	.st0{fill:#BECED1;}
	.st1{fill:#FFFFFF;}
</style>
<rect x="0" class="st0" width="421.2" height="1.5"/>
<rect x="0" y="75" class="st0" width="421.3" height="1.5"/>
<g>
	<g>
		<path class="st1" d="M147.5,24.5h15.3v3.4h-4.1V30h3.9v23.1h-3.4v-1.5h-7.9v1.5h-3.4V30h3.7v-2.1h-4.1V24.5z M151.3,42.9h7.9v-1.8    H158c-1.7,0-2.6-0.9-2.6-2.8v-5.1h-0.7v1.6c0,1.6-0.2,3-0.6,4.2c-0.3,1.2-0.8,2.1-1.3,2.9l-1.5-1.2V42.9z M151.3,39    c0.2-0.4,0.4-0.8,0.5-1.3c0.3-0.9,0.4-1.9,0.4-2.8v-1.7h-0.9V39z M151.3,48.1h7.9v-1.9h-7.9V48.1z M154.7,27.9V30h0.7v-2.1H154.7z     M158,33.3v4.3c0,0.5,0.3,0.8,0.8,0.8h0.4v-5.1H158z M164,24.4h12.2v15.3h-3.7v-1.5h-5.1v9.4c0,0.7,0.1,1.2,0.4,1.2    c0.2,0.1,1,0.2,2.4,0.2c0.9,0,1.5,0,1.8-0.1c0.4-0.1,0.8-0.2,1-0.5c0.3-0.4,0.4-1.6,0.4-3.7l3.7,1.8c-0.3,2.7-0.7,4.4-1.3,5.2    c-0.4,0.3-0.8,0.6-1.3,0.6c-1.3,0.1-2.8,0.2-4.4,0.2c-2.4,0-3.9-0.1-4.5-0.2c-1.3-0.1-2-1.5-2-4V34.5h8.8v-6.6H164V24.4z"/>
		<path class="st1" d="M181.7,26h4.3v-2.3h3.2V26h4.3v3.1h-4.3v1.3h4.2v13.4h-4.3v1.5h4.5v3.2h-4.5v4.4h-3.2v-4.4h-4.3v-3.2h4.3    v-1.5h-4.2V30.5h4.3v-1.3h-4.3V26z M185,35.6h1.3v-1.8H185V35.6z M185,40.5h1.3v-1.8H185V40.5z M189,33.8v1.8h1.3v-1.8H189z     M189,38.7v1.8h1.3v-1.8H189z M194.1,25.1h6.3v-1.4h3.4v1.4h7v2.9h-7v0.9h6.1v10.3h-0.3c0.7,0.9,1.4,1.8,1.9,2.7l-2.7,1.5    c-0.2-0.4-0.4-0.8-0.6-1.2c-0.1,0-0.3,0-0.4,0v1.5h3.2v3.1h-3.2v2.1c0,1.7-0.3,2.8-0.9,3.3c-0.7,0.6-1.8,0.9-3.4,0.9    c-0.6,0-1.2,0-1.8-0.1l-0.6-3.6c0.8,0.3,1.6,0.4,2.4,0.4c0.6,0,0.9-0.5,0.9-1.5v-1.4h-4.9c0.6,0.7,1.1,1.5,1.5,2.2l-2.8,1.6    c-0.5-1-1.1-1.9-1.9-2.8l1.7-1h-3.7v-3.1h10.2v-1.2c-2.9,0.3-6.1,0.4-9.6,0.4l-0.5-2.8c2.2,0,4.2,0,6.1-0.1v-0.9h-6V28.9h6v-0.9    h-6.3V25.1z M197.6,32.8h2.7v-0.9h-2.7V32.8z M197.6,36.3h2.7v-0.9h-2.7V36.3z M203.8,31.9v0.9h2.8v-0.9H203.8z M203.8,35.5v0.9    h2.8v-0.9H203.8z M206.4,39.9c-0.1-0.1-0.2-0.3-0.3-0.4l0.4-0.3h-2.6v0.8C204.7,40,205.5,40,206.4,39.9z"/>
		<path class="st1" d="M217.2,25.8h4.2v-2.2h3.6v2.2h3.1v1.9c0.5-0.7,1.1-1.4,1.5-2l3.1,1.7c-0.8,1.2-1.7,2.3-2.5,3.4h1.9v2    c0.4-0.7,0.7-1.5,0.9-2.2c1-2.4,1.8-4.6,2.3-6.7l3.5,1c-0.3,1.4-0.7,2.8-1.2,4.2h7.3v3.7h-1.6c-0.4,2.6-1,5.3-1.9,7.8    c-0.4,1.3-0.9,2.5-1.5,3.6c1.5,2.2,3.2,4,5.3,5.5l-2.3,3.6c-2.1-1.7-3.9-3.5-5.2-5.4c-0.1,0.1-0.2,0.3-0.3,0.4    c-1.6,2.2-3.4,3.8-5.2,4.7l-2-3.2c1.8-1,3.3-2.4,4.6-4.2c0.3-0.4,0.6-0.8,0.8-1.2c-0.9-1.7-1.6-3.6-2.2-5.8    c-0.1,0.3-0.3,0.5-0.4,0.8l-2.3-1.8v0.9c-1.4,1.7-3,3.1-4.9,4.4v0.6c2-0.3,3.8-0.6,5.5-0.9l0.5,3.3c-1.9,0.4-3.9,0.7-6,1v2.4    c0,1.6-0.3,2.6-0.9,3c-0.6,0.6-1.7,0.9-3.2,0.9c-0.8,0-1.6,0-2.3-0.1l-0.7-3.7c1,0.3,2,0.5,3,0.5c0.1,0,0.3-0.1,0.4-0.2    c0.1-0.2,0.1-0.6,0.1-1.1v-1.1c-1.8,0.3-3.8,0.5-5.7,0.7l-0.7-3.7c2.3-0.2,4.4-0.4,6.4-0.6v-3.7l1.6,0.1c0.8-0.5,1.6-1,2.3-1.7    h-3.7c-1.6,1.3-3.3,2.6-5,3.7l-2-3.2c2.4-1.4,4.6-3.1,6.8-5.1h-6.5v-3.3h5.6v-1.6h-4.2V25.8z M225.5,30.8c0.5-0.6,1-1.1,1.5-1.7    h-2v1.7H225.5z M230.6,35.6c0.3-0.5,0.6-1.1,0.9-1.6h-4.1c-0.5,0.5-1,1.1-1.5,1.6H230.6z M235.7,34c0.6,2.2,1.2,4.2,2,6    c0.2-0.4,0.3-0.7,0.4-1.1c0.7-1.9,1.1-4,1.5-6.2h-3.4C236.1,33.1,235.9,33.5,235.7,34z"/>
		<path class="st1" d="M262.7,23.7h3.9v2.1H279v3.3h-4.5c1.2,1.2,2.4,2.5,3.6,3.9l-3.2,2.6c-0.4-0.6-0.9-1.2-1.3-1.7    c-6.1,0.8-13.1,1.3-21.1,1.5l-0.7-3.6c1.4,0,2.7,0,4.1,0c0.6-0.9,1.2-1.8,1.7-2.6h-7.4v-3.3h12.5V23.7z M275.9,35.8v13.1    c0,2.8-1.6,4.2-4.9,4.2c-1.2,0-2.5-0.1-4.1-0.4l-0.8-3.7c1.8,0.4,3.4,0.6,4.9,0.6c0.8,0,1.2-0.5,1.3-1.4h-15.2v4.9h-3.7V35.8    H275.9z M257.1,40.5h15.2v-1.3h-15.2V40.5z M257.1,45.1h15.2v-1.4h-15.2V45.1z M271.1,31.1c-0.4-0.4-0.8-0.8-1.2-1.2l1.1-0.8h-9.1    c-0.5,0.9-1.1,1.7-1.7,2.5C264,31.5,267.6,31.4,271.1,31.1z"/>
	</g>
</g>
<g>
	<g>
		<path class="st1" d="M112.7,127.1h14.4v14.8c0,0.6-0.1,1.1-0.4,1.5c-0.3,0.4-0.7,0.6-1.4,0.6h-2.5l-0.5-1.8l2.4,0.1    c0.4,0,0.6-0.2,0.6-0.6v-3.4h-5v5.5h-1.8v-5.5h-5.1c-0.1,0.7-0.2,1.3-0.3,2c-0.3,1.4-0.8,2.7-1.6,4l-1.6-1.4    c0.7-1,1.2-2.1,1.4-3.2c0.2-1.2,0.3-2.2,0.3-3.2v-9.4H112.7z M113.6,131.8h5v-3h-5V131.8z M113.6,136.6h5v-3.2h-5V136.6z     M120.3,128.8v3h5v-3H120.3z M120.3,133.4v3.2h5v-3.2H120.3z"/>
		<path class="st1" d="M139.9,142.1h-8.5v-1.7c1.8-1.6,3.2-3.1,4.2-4.3c1.5-1.8,2.3-3.1,2.3-4c0-1.4-0.8-2.1-2.3-2.1    c-1.4,0-2.1,0.8-2.1,2.5h-1.9c0.1-2.8,1.4-4.2,4.1-4.2c1.2,0,2.2,0.3,2.9,1c0.8,0.7,1.2,1.6,1.2,2.7c0,1.8-1.9,4.6-5.8,8.3h6    V142.1z"/>
		<path class="st1" d="M153.4,135.3c0,1.9-0.3,3.4-0.9,4.6c-0.8,1.6-2.1,2.4-3.8,2.4c-1.8,0-3-0.8-3.8-2.4c-0.6-1.2-0.9-2.7-0.9-4.6    s0.3-3.4,0.9-4.6c0.8-1.6,2.1-2.4,3.8-2.4c1.8,0,3.1,0.8,3.8,2.4C153.1,131.9,153.4,133.5,153.4,135.3z M151.4,135.3    c0-1.4-0.2-2.5-0.5-3.4c-0.5-1.3-1.2-2-2.3-2s-1.8,0.7-2.3,2c-0.3,0.9-0.5,2-0.5,3.4c0,3.5,0.9,5.3,2.8,5.3    C150.5,140.6,151.4,138.9,151.4,135.3z"/>
		<path class="st1" d="M161,126.2l1.6,1c-0.3,0.5-0.5,0.9-0.7,1.3h12v1.6h-6.2v2.8h5.7v1.6h-5.7v3.9h6.5v1.7h-6.5v4.1h-1.8v-4.1    h-9.2v-1.7h3v-5.5h6.2v-2.8h-5c-0.1,0.2-0.3,0.4-0.4,0.5c-0.8,1-1.8,2-3.1,3l-1-1.8c1-0.6,1.9-1.4,2.7-2.5    C159.7,128.6,160.3,127.5,161,126.2z M165.8,138.4v-3.9h-4.4v3.9H165.8z"/>
		<path class="st1" d="M194.2,129v1.8h-5.4c0.2,2.8,0.5,5,1.1,6.6c0.9-1.3,1.7-3.1,2.5-5.2l1.7,0.7c-1.1,2.9-2.2,5.1-3.3,6.5    c0.9,1.7,1.5,2.6,1.9,2.6c0.2,0,0.5-0.9,0.8-2.7l1.5,1c-0.4,1.8-0.9,3-1.2,3.4c-0.3,0.3-0.5,0.5-0.8,0.5c-0.8,0-1.7-0.5-2.5-1.4    c-0.4-0.5-0.8-1.1-1.1-1.7c-1.2,1.1-2.8,2.2-4.6,3l-1.1-1.7c2-0.9,3.7-2,4.9-3.2c-0.3-0.7-0.5-1.4-0.7-2.1    c-0.4-1.7-0.7-3.8-0.8-6.2h-6.5v2.4h5.4c-0.1,3.5-0.2,5.7-0.5,6.7c-0.3,1.1-0.9,1.6-1.9,1.6h-2.6l-0.3-1.8    c1.3,0.1,2.3,0.2,2.9,0.2c0.2,0,0.3-0.3,0.4-0.9c0.1-0.7,0.1-2,0.2-4h-3.5c0,1.4-0.2,2.8-0.4,4.3c-0.4,1.8-0.9,3.6-1.7,5.3    l-1.6-1.4c0.7-1.4,1.3-2.9,1.6-4.5c0.2-1.6,0.3-3.1,0.3-4.4V129h8.3c0-0.9,0-1.8,0-2.7h1.8c0,1,0,1.9,0.1,2.7h2.8    c-0.5-0.5-1.1-1.1-1.9-1.6l1.2-1.1c0.9,0.6,1.7,1.1,2.3,1.7l-1,1H194.2z"/>
		<path class="st1" d="M198.3,129h2.1c-0.2-0.7-0.5-1.4-0.8-2l1.8-0.2c0.3,0.7,0.5,1.4,0.7,2.2h1.4c0.2-0.9,0.4-1.8,0.6-2.7l1.7,0.2    c-0.2,0.9-0.3,1.7-0.5,2.4h7.6c-0.1,1.4-0.3,2.5-0.5,3.4h1.8c-0.2,1.3-0.3,2.5-0.5,3.4h1.5c-0.1,4.4-0.4,6.9-1.2,7.5    c-0.4,0.5-1.7,0.8-4,0.8l-0.4-1.9c0.6,0.1,1.1,0.2,1.5,0.2c0.7,0,1.3-0.2,1.7-0.5c0.3-0.3,0.6-1.8,0.7-4.5h-11.8    c-0.8,1.3-1.8,2.3-2.8,3.2l-1.5-1.1c2.6-2.4,4.5-5.3,5.7-8.8h-4.7V129z M201.3,138.7l1.7,0.3c-0.5,1.9-1.2,3.5-2.2,4.9l-1.5-1    C200.2,141.6,200.9,140.2,201.3,138.7z M203.4,134.1c-0.3,0.7-0.6,1.3-0.9,1.8h9.2c0.1-0.5,0.2-1.1,0.3-1.8H203.4z M205.2,138.9    c0.3,1.2,0.6,2.8,0.7,4.7l-1.8,0.2c0-2.1-0.2-3.6-0.4-4.8L205.2,138.9z M204.7,130.7c-0.2,0.6-0.4,1.2-0.6,1.8h6.4    c0.1-0.5,0.2-1.1,0.3-1.8H204.7z M207.9,138.4c0.5,1.1,0.9,2.4,1.2,3.9l-1.7,0.4c-0.3-1.3-0.6-2.6-1.1-3.8L207.9,138.4z     M210.7,138.1c0.6,1.1,1,2.1,1.3,3l-1.5,0.6c-0.3-1.1-0.6-2.2-1-3.2L210.7,138.1z"/>
		<path class="st1" d="M218.2,133.7h17v1.8h-17V133.7z"/>
		<path class="st1" d="M241.7,126.4l1.6,0.7c-0.4,1.4-0.8,2.6-1.3,3.6v13.5h-1.7v-10.5c-0.5,0.7-1,1.5-1.6,2.2l-0.6-2.2    c0.7-1,1.4-2.1,1.9-3.1C240.7,129.6,241.2,128.2,241.7,126.4z M255.2,127.3v16.8h-1.8v-0.9h-8v0.9h-1.8v-16.8H255.2z M245.4,141.4    h8v-12.6h-8V141.4z M245.9,131.1h2.5v-1.7h1.7v1.7h2.7v1.5h-2.7v2h1.9v5.5h-5.4v-5.5h1.8v-2h-2.5V131.1z M250.4,138.6v-2.6h-2.2    v2.6H250.4z"/>
		<path class="st1" d="M258.9,127.5h7.9v-1h1.7v1h7.9v1.4h-7.9v0.9h6.5v6h-0.9c0.8,0.9,1.4,1.6,1.9,2.3l-1.4,0.9    c-0.2-0.3-0.4-0.7-0.7-1c-0.5,0-1,0.1-1.5,0.1v1.3h4v1.4h-4v1.6c0,0.6-0.2,1.1-0.5,1.3c-0.3,0.3-0.8,0.4-1.5,0.4h-1.9l-0.4-1.8    c0.7,0.1,1.3,0.2,1.8,0.2c0.5,0,0.7-0.2,0.7-0.5v-1.3h-11.8v-1.4h11.8v-1.1c-3.2,0.2-6.8,0.4-10.8,0.6l-0.3-1.5    c2.5-0.1,4.8-0.1,7.2-0.2v-1.2h-6.4v-6h6.4v-0.9h-7.9V127.5z M262.1,132.2h4.7v-1h-4.7V132.2z M266.8,134.5v-1.1h-4.7v1.1H266.8z     M263.5,140.9c1.4,0.6,2.5,1.1,3.5,1.7l-1.3,1.3c-0.8-0.6-1.9-1.2-3.4-1.8L263.5,140.9z M268.5,131.1v1h4.7v-1H268.5z     M273.3,134.5v-1.1h-4.7v1.1H273.3z M268.5,135.8v1.1c1.5-0.1,3-0.1,4.5-0.2c-0.2-0.2-0.3-0.4-0.4-0.6l0.6-0.4H268.5z"/>
		<path class="st1" d="M282.1,130.7h12.2v1.6h-4.1c-0.5,0.4-1,0.8-1.6,1.1c0.7,0.9,1.2,1.7,1.5,2.6c1.4-0.6,2.8-1.6,4.1-2.8l1.4,1.3    c-0.8,0.7-1.7,1.4-2.6,1.9c0.4,1,1,2,1.6,2.8c0.6,0.8,1.5,1.7,2.6,2.6l-1.2,1.6c-1.2-1.1-2.2-2.3-3-3.5c-0.6-0.8-1-1.7-1.4-2.8    c-0.3,0.2-0.6,0.3-0.9,0.4c0.2,0.8,0.3,1.7,0.3,2.5c0,1.5-0.2,2.5-0.6,3.2c-0.5,0.7-1.8,1-4.2,1l-0.6-1.9c0.1,0.1,0.4,0.2,1.1,0.2    c1,0,1.7-0.1,1.9-0.4c0.3-0.4,0.5-1.1,0.5-2.1c0-0.3,0-0.6-0.1-0.9c-1.1,0.9-2.1,1.5-3,1.9c-1.4,0.7-3.2,1.5-5.3,2.2l-1-1.7    c2.1-0.6,4-1.3,5.6-2.1c1.3-0.6,2.4-1.4,3.4-2.2c0-0.2-0.1-0.3-0.1-0.5c-0.1-0.2-0.1-0.4-0.2-0.6c-1.1,0.8-2,1.3-2.8,1.7    c-1.3,0.6-2.8,1.2-4.7,1.7l-0.9-1.6c1.9-0.4,3.5-1,5-1.6c1.1-0.5,2-1,2.9-1.6c-0.1-0.3-0.3-0.5-0.5-0.7c-1.7,0.7-3.7,1.4-5.9,1.9    l-1-1.6c2.4-0.5,4.3-1,5.7-1.5c0.6-0.2,1.1-0.4,1.6-0.7h-5.4V130.7z M288.3,126.3c0.2,0.4,0.5,0.9,0.7,1.4h7.6v4h-1.8v-2.3h-13.3    v2.3h-1.8v-4h7.2c-0.2-0.4-0.5-0.8-0.7-1.2L288.3,126.3z"/>
		<path class="st1" d="M311.4,135.3c0,0.7-0.3,1.3-0.8,1.8c-0.5,0.5-1.2,0.8-1.9,0.8s-1.4-0.3-1.9-0.8c-0.5-0.5-0.8-1.1-0.8-1.8    s0.3-1.3,0.8-1.8c0.5-0.5,1.2-0.8,1.9-0.8s1.4,0.3,1.9,0.8C311.1,134,311.4,134.6,311.4,135.3z M310,135.3c0-0.4-0.1-0.7-0.4-0.9    c-0.3-0.3-0.6-0.4-0.9-0.4s-0.7,0.1-0.9,0.4c-0.3,0.2-0.4,0.5-0.4,0.9s0.1,0.7,0.4,0.9c0.3,0.3,0.6,0.4,0.9,0.4s0.7-0.1,0.9-0.4    C309.9,136,310,135.7,310,135.3z"/>
		<path class="st1" d="M4.1,153.3l1.6,0.7c-0.5,1.5-1,2.8-1.5,3.8v13.2H2.4v-10.4c-0.6,0.8-1.2,1.6-1.8,2.4L0,160.9    c0.8-1.1,1.6-2.1,2.2-3.2C2.9,156.7,3.5,155.2,4.1,153.3z M15.9,153.7l1,1.7c-1.4,0.4-3,0.7-4.9,0.9v4.9h5.6v1.8H12v5.6h5v1.7H5.6    v-1.7h4.6V163H5v-1.8h5.2v-4.7c-1.2,0.1-2.5,0.1-3.9,0.1l-0.6-1.8C9.7,154.8,13.1,154.5,15.9,153.7z"/>
		<path class="st1" d="M24.2,153.2l1.6,0.7c-0.4,1.3-0.8,2.4-1.2,3.3v13.8h-1.8v-10.7c-0.5,0.8-1.1,1.6-1.8,2.4l-0.6-2.1    c0.7-1,1.4-2.1,2-3.2C23.1,156.5,23.6,155.1,24.2,153.2z M26,154.4h12.4v1.7h-1.5v13c0,0.7-0.2,1.2-0.5,1.5    c-0.3,0.3-0.8,0.5-1.6,0.5h-2.4l-0.4-1.9c0.9,0.1,1.7,0.2,2.3,0.2c0.5,0,0.8-0.2,0.8-0.5v-12.7H26V154.4z M26.4,158.5h6.5v8h-6.5    V158.5z M31.2,164.8v-4.6h-3.1v4.6H31.2z"/>
		<path class="st1" d="M48.9,153.2H51v4.6c0.6,2.8,1.6,5.2,2.9,7c1,1.5,2.7,3.1,5.1,4.7l-1.3,1.7c-1.9-1.3-3.4-2.5-4.4-3.8    c-1.3-1.5-2.3-3.3-3.1-5.4c-0.6,2.2-1.5,4-2.6,5.2c-1.2,1.4-2.9,2.7-5.3,4l-1.2-1.7c2.9-1.8,5-3.7,6.1-5.8c1.1-2,1.7-4,1.8-5.9    V153.2z"/>
		<path class="st1" d="M61.4,156.6h3.3v-3.3h1.8v3.3h4c0,6.8-0.1,10.8-0.2,12c-0.1,1-0.4,1.6-0.7,1.9c-0.4,0.4-1.2,0.6-2.2,0.6    c-0.4,0-0.9,0-1.5-0.1l-0.3-2c0.6,0.1,1.2,0.2,1.8,0.2c0.6,0,1-0.4,1.1-1.2c0.1-1,0.2-4.2,0.2-9.7h-2.2c-0.1,2.4-0.3,4.5-0.7,6.2    c-0.5,2.2-1.5,4.4-2.9,6.6l-1.5-1.4c1.3-1.8,2.1-3.7,2.6-5.8c0.4-1.3,0.6-3.2,0.7-5.7h-3.2V156.6z M78.9,155.7v15.4h-1.8v-1.4    h-3.8v1.5h-1.8v-15.5H78.9z M73.3,168h3.8v-10.5h-3.8V168z"/>
		<path class="st1" d="M90.3,156.8c-0.1-0.3-0.1-0.5-0.2-0.8h-5.3v-1.8H92c0.3,3.8,1.1,6.7,2.4,8.9c1.3,2.2,3.1,4.3,5.6,6.2l-1.3,2    c-2.8-2.5-4.7-4.8-5.9-7c-0.7-1.3-1.3-2.6-1.7-4.1c-0.6,2-1.3,3.7-2.1,5.1c-1.1,1.9-3,3.8-5.6,5.9l-1.3-1.8    c2.5-1.9,4.3-3.8,5.5-5.8C88.6,161.7,89.5,159.5,90.3,156.8z"/>
		<path class="st1" d="M117.3,158.4v10.7h2.8v1.6h-17.3v-1.6h2.8v-10.7H117.3z M111.9,153.3c0.2,0.5,0.5,1,0.7,1.6h7.2v4.4h-1.9    v-2.7h-13v2.7h-1.9v-4.4h7.5c-0.2-0.5-0.5-0.9-0.8-1.3L111.9,153.3z M107.4,162.1h8.1v-2h-8.1V162.1z M107.4,165.6h8.1v-1.9h-8.1    V165.6z M107.4,169.1h8.1v-2h-8.1V169.1z"/>
		<path class="st1" d="M127.9,153.4l1.3,1.1c-1.3,1.7-3,3.2-5,4.5l-1.2-1.6C124.9,156.3,126.5,155,127.9,153.4z M127.7,158.1    l1.6,0.8c-0.6,1.3-1.3,2.4-1.9,3.3v8.9h-1.8v-6.9c-0.6,0.6-1.2,1.1-1.9,1.7l-0.6-2.2c1-0.8,1.8-1.6,2.5-2.4    C126.3,160.6,127,159.5,127.7,158.1z M128.8,161.7h11.5v1.4h-2v1.2h2.5v1.6h-2.5v3.4c0,0.7-0.2,1.1-0.5,1.4    c-0.3,0.3-0.8,0.4-1.5,0.4H134l-0.4-1.8c0.9,0.1,1.6,0.2,2.2,0.2c0.5,0,0.7-0.2,0.7-0.5v-3h-8.2v-1.6h8.2v-1.2h-7.7V161.7z     M129.7,154.1h10.2v6.6h-10.2V154.1z M132,166.3c0.6,0.7,1.2,1.5,1.6,2.3l-1.7,0.8c-0.5-1-1-1.8-1.6-2.5L132,166.3z M131.4,156.7    h6.7v-1.3h-6.7V156.7z M138.2,159.2V158h-6.7v1.2H138.2z"/>
		<path class="st1" d="M152,153.4l0.6,1.8c-1,0.3-2,0.6-3.2,0.8v2.6h3.5v1.8h-3.5v0.2c1.2,1.2,2.5,2.5,3.8,4l-1.1,1.6    c-1.1-1.5-2-2.7-2.7-3.6v8.6h-1.8v-8.4c-0.4,0.9-0.7,1.5-1,2.1c-0.6,1.1-1.4,2.1-2.4,3.1l-1-1.7c0.9-0.9,1.7-1.9,2.4-3    c0.5-0.8,0.9-1.8,1.3-2.8h-3.4v-1.8h4v-2.3c-1,0.2-2.2,0.3-3.4,0.4l-0.4-1.7C147,154.7,149.6,154.2,152,153.4z M154.1,154.8h1.8    v12.4h-1.8V154.8z M158.5,153.4h1.9V169c0,0.7-0.2,1.2-0.5,1.5c-0.3,0.3-0.8,0.5-1.7,0.5h-3.1l-0.4-2c1.2,0.1,2.2,0.2,3,0.2    c0.5,0,0.7-0.1,0.7-0.4V153.4z"/>
		<path class="st1" d="M164.7,155.3h3.1v-2h1.8v2h2.6v1.5h-2.6v2.2h1.1c0.9-1,1.9-2.4,2.9-4.1l1.4,0.7c-0.7,1.3-1.4,2.4-2.2,3.4h1.4    v1.5h-2.7c-0.3,0.3-0.6,0.7-1,1c-0.4,0.3-0.7,0.6-1.1,0.9h4v8.9h-1.7v-1.1h-4.2v1.2h-1.8v-6.9c-0.4,0.2-0.7,0.3-1.1,0.5l-0.9-1.4    c2.2-0.9,4-1.9,5.4-3h-5v-1.5h3.7v-2.2h-3.1V155.3z M167.5,165.4h4.2v-1.6h-4.2V165.4z M167.5,168.6h4.2v-1.8h-4.2V168.6z     M175.1,154.2h6.5v1.4c-0.6,2-1.2,4-1.9,5.7c0.9,1.2,1.4,2,1.7,2.7c0.3,0.7,0.5,1.3,0.5,2c0,1.2-0.2,2.1-0.7,2.7    c-0.5,0.6-1.6,0.9-3.5,0.9l-0.6-1.9c0.6,0.1,1.1,0.2,1.7,0.2c0.5,0,0.8-0.2,1-0.5c0.2-0.2,0.2-0.7,0.2-1.4c0-0.4-0.1-0.9-0.4-1.5    c-0.3-0.6-0.9-1.7-1.8-3.1c0.7-2,1.3-3.8,1.8-5.4h-2.7v15.3h-1.8V154.2z"/>
		<path class="st1" d="M187.6,153.2l1.9,0.6c-0.5,1.2-1.1,2.3-1.7,3.2c1.3-0.1,2.4-0.1,3.3-0.2c-0.4-0.5-0.7-0.9-1.2-1.4l1.2-0.8    c1.3,1.3,2.3,2.5,3,3.5l-1.4,1c-0.2-0.3-0.3-0.5-0.5-0.8c-1.7,0.3-4.2,0.5-7.6,0.6l-0.5-1.9c0.6,0,1.1,0,1.7,0    C186.5,155.9,187.1,154.6,187.6,153.2z M192.9,159.9v9.3c0,0.6-0.2,1.1-0.5,1.4c-0.3,0.3-0.6,0.4-1.1,0.4h-1.9l-0.4-1.7l1.7,0.1    c0.3,0,0.5-0.3,0.5-0.7v-1h-4.4v3.6h-1.7v-11.4H192.9z M186.8,163.1h4.4v-1.6h-4.4V163.1z M186.8,166.3h4.4v-1.7h-4.4V166.3z     M194.4,153.4h1.9v2.8c2-0.5,3.7-1.2,5-1.8l1,1.4c-1.7,0.9-3.7,1.6-6,2.2v1.1c0,0.4,0.2,0.6,0.7,0.6h2.7c0.2,0,0.4-0.1,0.5-0.2    c0.2-0.2,0.3-0.8,0.3-2l1.8,0.6c-0.2,1.6-0.4,2.6-0.7,2.9c-0.3,0.3-0.8,0.5-1.6,0.5h-3.6c-0.6,0-1-0.2-1.3-0.5    c-0.3-0.3-0.5-0.8-0.5-1.3V153.4z M194.4,162h1.9v2.9c2-0.6,3.7-1.2,5-1.9l1,1.5c-1.7,0.9-3.8,1.6-6.1,2.3v1.8    c0,0.4,0.2,0.6,0.7,0.6h3c0.2,0,0.3-0.1,0.4-0.2c0.1-0.1,0.2-0.8,0.2-2l1.8,0.5c-0.1,1.6-0.4,2.6-0.7,2.9    c-0.2,0.3-0.7,0.4-1.4,0.4h-3.9c-0.6,0-1-0.1-1.3-0.4c-0.3-0.3-0.5-0.7-0.5-1.2V162z"/>
		<path class="st1" d="M205,158h5v1.3c-0.6,1.1-1.4,2.2-2.4,3.4h2.3v1.2c-0.3,1.2-0.5,2.2-0.8,2.9c0.7,0.9,1.3,1.5,1.8,1.7    c0.4,0.3,1,0.5,1.9,0.6c0.9,0.2,2.8,0.2,5.5,0.3c2,0,3.5-0.1,4.6-0.2l-0.2,1.8c-5.4,0-8.6-0.1-9.8-0.2c-1.1-0.2-1.9-0.4-2.6-0.7    c-0.5-0.3-1.2-0.8-1.9-1.7c-0.5,0.9-1.2,1.9-2.1,2.9l-1.3-1.4c1-1,1.7-1.9,2.1-2.7c0.3-0.5,0.7-1.4,1.1-2.8h-2.7v-1.4    c0.8-0.8,1.6-1.9,2.5-3.3H205V158z M207.2,153.4c0.9,0.9,1.6,1.8,2.2,2.7l-1.3,1.3c-0.5-0.9-1.2-1.8-2.2-2.9L207.2,153.4z     M220.7,153.3l0.8,1.4c-1.3,0.3-2.8,0.6-4.6,0.7v1.3h5.1v1.5h-3.5c0.4,0.4,0.8,0.7,1.2,1c0.7,0.4,1.6,0.9,2.8,1.4l-1.2,1.4    c-1.3-0.7-2.3-1.4-3.1-2.2c-0.5-0.5-1-1-1.4-1.6v2.6h-1.7v-2.7h-0.1c-0.4,0.6-0.7,1-1.1,1.4c-0.7,0.8-1.9,1.7-3.6,2.6l-0.9-1.5    c1.2-0.5,2.1-1,2.8-1.5c0.4-0.3,0.7-0.6,1-0.9h-2.9v-1.5h4.8v-1.2c-1.3,0.1-2.8,0.1-4.4,0.1l-0.4-1.5    C214.4,154.2,217.8,153.9,220.7,153.3z M211.8,161.6h8.2c-0.1,0.6-0.3,1.3-0.5,2h1.9c-0.2,1.8-0.3,3-0.5,3.6    c-0.1,0.4-0.3,0.7-0.5,0.9c-0.3,0.3-0.9,0.4-1.6,0.4h-2.4l-0.5-1.8c0.9,0.1,1.7,0.2,2.4,0.2c0.4,0,0.6-0.1,0.8-0.2    c0.1-0.1,0.2-0.3,0.3-0.6c0.1-0.3,0.1-0.6,0.2-1.1h-2.4c0.2-0.7,0.4-1.3,0.6-1.9h-2.7c-0.2,1.1-0.5,2-0.8,2.7    c-0.6,1.2-1.6,2-3,2.5l-0.8-1.7c0.9-0.3,1.6-0.8,2.1-1.5c0.3-0.4,0.6-1.1,0.7-2h-1.6V161.6z"/>
		<path class="st1" d="M225.4,158h5v1.3c-0.6,1.1-1.4,2.2-2.4,3.4h2.4v1.1c-0.3,1.3-0.6,2.2-0.9,3c0.7,0.9,1.3,1.4,1.8,1.7    c0.4,0.3,1,0.5,1.9,0.6c0.9,0.2,2.8,0.2,5.5,0.3c2,0,3.5-0.1,4.6-0.2l-0.2,1.8c-5.4,0-8.6-0.1-9.8-0.2c-1.1-0.2-1.9-0.4-2.6-0.7    c-0.5-0.3-1.2-0.8-1.8-1.7c-0.6,0.9-1.3,1.9-2.2,3l-1.4-1.5c1-1,1.7-1.9,2.2-2.7c0.3-0.5,0.7-1.4,1.2-2.9h-2.6v-1.4    c0.8-0.8,1.6-1.9,2.5-3.2h-3V158z M227.4,153.4c1,1,1.8,1.9,2.4,2.8l-1.3,1.3c-0.6-0.9-1.4-1.9-2.4-3L227.4,153.4z M241.5,153.9    v5.8h0.8v7.2c0,0.6-0.2,1-0.5,1.3c-0.3,0.3-0.6,0.4-1.1,0.4h-1.9l-0.4-1.6l1.6,0.1c0.4,0,0.6-0.3,0.6-0.7v-5.2h-7.8v6.9h-1.8v-8.4    h1v-5.8H241.5z M233.7,159.7h1.6v-2.8h4.5v-1.5h-6.1V159.7z M234.1,162.2h5.2v4.4h-5.2V162.2z M237.7,165.3v-1.8h-2v1.8H237.7z     M236.9,159.7h3v-1.5h-3V159.7z"/>
		<path class="st1" d="M245.8,153.9h6.5v1h2.4c-0.2-0.5-0.5-1-0.8-1.4l1.6-0.2c0.3,0.5,0.5,1,0.7,1.6h2.3v1.4h-0.8l-0.6,2.4h1.8    v-5.5h1.6v5.5h3.2v1.5h-3.2c0,1.5,0.1,2.7,0.1,3.8c0.5-0.9,0.9-1.9,1.3-3l1.4,0.5c-0.9,2.3-1.8,3.9-2.4,4.9    c0.1,0.7,0.3,1.3,0.5,1.8c0.3,0.7,0.5,1.1,0.6,1.1c0.2,0,0.4-1,0.6-2.9l1.4,1c-0.4,1.8-0.7,2.8-1.1,3.2c-0.2,0.3-0.5,0.5-0.9,0.5    c-0.5,0-1-0.5-1.5-1.5c-0.2-0.5-0.5-1-0.6-1.6c-0.6,0.8-1.5,1.6-2.5,2.5l-1.2-1c0.3-0.3,0.6-0.5,0.9-0.8h-3.2v0.9h-1.5v-8.4h5.5    v6.7c0.6-0.6,1.2-1.3,1.7-1.9c0-0.1,0-0.3-0.1-0.4c-0.3-1.6-0.4-3.4-0.4-5.5h-7.4v10.9h-1.5V168c-1.1,0.5-2.4,0.9-3.9,1.4    l-0.4-1.8c0.3-0.1,0.6-0.1,0.8-0.2v-12h-0.8V153.9z M248.1,157.8h1.9v-2.3h-1.9V157.8z M248.1,161.9h1.9v-2.6h-1.9V161.9z     M248.1,167.1c0.6-0.2,1.3-0.4,1.9-0.6v-3h-1.9V167.1z M251.5,158.8h1.8l-0.5-2.4h-0.7v-0.9h-0.6V158.8z M253.8,164.4h2.4v-1.6    h-2.4V164.4z M253.8,167.4h2.4v-1.7h-2.4V167.4z M254.7,158.8h1l0.6-2.4h-2.1L254.7,158.8z M262.4,154.5c0.5,0.9,0.9,1.9,1.2,3    l-1.4,0.6c-0.4-1.2-0.8-2.2-1.2-3.1L262.4,154.5z"/>
		<path class="st1" d="M267.1,158.1c1.2,0.5,2.3,1.2,3.4,1.9l-1.1,1.8c-1-0.9-2.1-1.7-3.2-2.2L267.1,158.1z M269.1,162.8l1.5,1.1    c-0.8,2.8-1.7,5.3-2.8,7.4l-1.5-1.6C267.2,168.1,268.1,165.8,269.1,162.8z M267.9,153.5c1.2,0.5,2.2,1.1,3.2,1.8L270,157    c-1-0.9-2-1.6-3-2.1L267.9,153.5z M283.7,154.1v1.7h-10.4v5.1c0,1.6-0.2,3.2-0.5,5c-0.4,1.8-1,3.6-1.8,5.3l-1.6-1.4    c0.8-1.4,1.4-2.9,1.7-4.4c0.2-1.6,0.3-3.1,0.3-4.5v-6.8H283.7z M273.9,165.2h3.8v-1.7h1.7v1.7h4v1.6h-4v2.2h4.7v1.6h-11.3V169h4.8    v-2.2h-3.8V165.2z M274.2,157.9h3.3v-1.6h1.8v1.6h3.5v1.5h-3.5v2h4.1v1.6h-9.7v-1.6h3.8v-2h-3.3V157.9z"/>
		<path class="st1" d="M287.1,156h2.8v-2.7h1.8v2.7h2.3v1.6h-2.3v1.8c0,0.4,0,0.8,0,1.2h2.6v1.7h-2.7c0,0.4-0.1,0.8-0.1,1.2    c1.1,0.9,2.2,1.9,3.3,3l-1.2,1.8c-1-1.3-1.9-2.3-2.5-3c0,0.1-0.1,0.2-0.1,0.2c-0.5,1.6-1.5,3.2-2.9,4.9l-1.5-1.4    c1.3-1.3,2.1-2.7,2.7-4.2c0.3-0.7,0.4-1.6,0.6-2.7h-2.9v-1.7h3c0-0.4,0-0.8,0-1.2v-1.8h-2.8V156z M294.6,154h8.9v10.8h-2.4v3.9    c0,0.4,0.2,0.5,0.6,0.5h0.7c0.2,0,0.3-0.1,0.4-0.3c0.1-0.2,0.2-1.1,0.2-2.7l1.6,0.4c-0.1,2-0.3,3.2-0.6,3.5    c-0.2,0.4-0.7,0.5-1.4,0.5h-1.5c-0.5,0-0.9-0.1-1.2-0.4c-0.3-0.3-0.4-0.7-0.4-1.2v-4.3h-1.3c-0.2,1.6-0.5,2.9-1.1,3.7    c-0.7,1-2,1.9-3.7,2.6l-1.2-1.5c1.6-0.6,2.7-1.2,3.3-1.9c0.5-0.6,0.8-1.5,1-2.8h-1.8V154z M296.3,157.1h5.6v-1.4h-5.6V157.1z     M296.3,160.1h5.6v-1.5h-5.6V160.1z M301.9,163.1v-1.5h-5.6v1.5H301.9z"/>
		<path class="st1" d="M308.8,154.3h6.2v-1h1.8v1h6.5v1.9h1.6v1.2h-1.6v2h-6.5v0.8h7.2v1.2h-7.2v0.7h8.2v1.2h-17.5V162h7.6v-0.7    h-6.6v-1.2h6.6v-0.8h-6.2v-1.1h6.2v-0.8h-7.6v-1.2h7.6v-0.7h-6.2V154.3z M307.6,169.5h17.2v1.3h-17.2V169.5z M309.1,163.9h14.1    v4.9h-14.1V163.9z M310.8,165.8h4.5V165h-4.5V165.8z M315.3,167.7v-0.8h-4.5v0.8H315.3z M316.8,155.4v0.7h4.8v-0.7H316.8z     M316.8,157.4v0.8h4.8v-0.8H316.8z M317,165v0.8h4.6V165H317z M321.5,167.7v-0.8H317v0.8H321.5z"/>
		<path class="st1" d="M328.2,154.4h16.9v1.8h-5.9c-0.4,0.8-0.8,1.6-1.3,2.3v12.7h-2v-10.1c-0.1,0.2-0.3,0.3-0.4,0.4    c-1.7,1.8-3.8,3.4-6.3,4.8l-1.2-1.5c2.4-1.3,4.4-2.8,6-4.3c1.1-1,2.1-2.4,3.1-4.3h-8.9V154.4z M340.2,159.8c1.9,1.7,3.6,3.3,4.9,5    l-1.4,1.4c-1.1-1.6-2.7-3.3-4.8-5.1L340.2,159.8z"/>
		<path class="st1" d="M351.6,153.3l1.6,0.8c-0.4,1.6-0.9,2.9-1.4,4v13.1h-1.8v-9.9c-0.4,0.7-0.9,1.3-1.4,2l-0.6-2.2    c0.7-1.1,1.3-2.2,1.9-3.3C350.6,156.7,351.1,155.2,351.6,153.3z M365.5,162.1v3.6h-1.8v-2.1h-9v2.1H353v-3.6H365.5z M359,153.3    c0.4,0.4,0.8,1,1.2,1.5h5.1v1.5h-12v-1.5h5c-0.3-0.4-0.7-0.9-1.1-1.2L359,153.3z M354,157.3h10.4v4H354V157.3z M354.9,164.7h8.6    v1.6h-3.3v3.2c0,0.7-0.2,1.1-0.5,1.4c-0.3,0.3-0.8,0.4-1.6,0.4h-2l-0.4-1.8c0.8,0.1,1.4,0.1,1.9,0.1s0.8-0.1,0.8-0.4v-2.9h-3.5    V164.7z M362.5,159.9v-1.2h-6.7v1.2H362.5z"/>
		<path class="st1" d="M386,156v1.8h-5.4c0.2,2.8,0.5,5,1.1,6.6c0.9-1.3,1.7-3.1,2.5-5.2l1.7,0.7c-1.1,2.9-2.2,5.1-3.3,6.5    c0.9,1.7,1.5,2.6,1.9,2.6c0.2,0,0.5-0.9,0.8-2.7l1.5,1c-0.4,1.8-0.9,3-1.2,3.4c-0.3,0.3-0.5,0.5-0.8,0.5c-0.8,0-1.7-0.5-2.5-1.4    c-0.4-0.5-0.8-1.1-1.1-1.7c-1.2,1.1-2.8,2.2-4.6,3l-1.1-1.7c2-0.9,3.7-2,4.9-3.2c-0.3-0.7-0.5-1.4-0.7-2.1    c-0.4-1.7-0.7-3.8-0.8-6.2h-6.5v2.4h5.4c-0.1,3.5-0.2,5.7-0.5,6.7c-0.3,1.1-0.9,1.6-1.9,1.6h-2.6l-0.3-1.8    c1.3,0.1,2.3,0.2,2.9,0.2c0.2,0,0.3-0.3,0.4-0.9c0.1-0.7,0.1-2,0.2-4h-3.5c0,1.4-0.2,2.8-0.4,4.3c-0.4,1.8-0.9,3.6-1.7,5.3    l-1.6-1.4c0.7-1.4,1.3-2.9,1.6-4.5c0.2-1.6,0.3-3.1,0.3-4.4V156h8.3c0-0.9,0-1.8,0-2.7h1.8c0,1,0,1.9,0.1,2.7h2.8    c-0.5-0.5-1.1-1.1-1.9-1.6l1.2-1.1c0.9,0.6,1.7,1.1,2.3,1.7l-1,1H386z"/>
		<path class="st1" d="M405.6,153.9v1.7h-11.5v1.1h10.8v1.5h-10.8v1.2h10.8v1.5h-10.8v1.3h12.8v1.7h-8.8c0.5,0.9,1.2,1.7,2,2.4    c1.3-0.5,2.6-1.2,3.8-2.2l1.4,1.3c-1,0.8-2.2,1.5-3.4,2c1.5,0.8,3.3,1.5,5.4,2l-1,1.8c-3.1-1-5.4-2.2-7-3.4    c-1.4-1.1-2.4-2.4-3-3.9h-2.6v4.7c1.3-0.2,2.7-0.6,4.1-1v1.8c-2.3,0.7-4.9,1.2-7.8,1.6l-0.2-1.9c0.7-0.1,1.4-0.1,2-0.2v-5h-2.4    v-1.7h2.9v-8.4H405.6z"/>
		<path class="st1" d="M421.3,162.3c0,0.7-0.3,1.3-0.8,1.8c-0.5,0.5-1.2,0.8-1.9,0.8s-1.4-0.3-1.9-0.8c-0.5-0.5-0.8-1.1-0.8-1.8    s0.3-1.3,0.8-1.8c0.5-0.5,1.2-0.8,1.9-0.8s1.4,0.3,1.9,0.8C421,161,421.3,161.6,421.3,162.3z M419.9,162.3c0-0.4-0.1-0.7-0.4-0.9    c-0.3-0.3-0.6-0.4-0.9-0.4s-0.7,0.1-0.9,0.4c-0.3,0.2-0.4,0.5-0.4,0.9s0.1,0.7,0.4,0.9c0.3,0.3,0.6,0.4,0.9,0.4s0.7-0.1,0.9-0.4    C419.8,163,419.9,162.7,419.9,162.3z"/>
	</g>
</g>
</svg>