<?xml version="1.0" encoding="UTF-8"?>
<!-- Generator: Adobe Illustrator 22.1.0, SVG Export Plug-In . SVG Version: 6.00 Build 0)  -->
<svg version="1.1" id="圖層_1" xmlns="http://www.w3.org/2000/svg" xmlns:xlink="http://www.w3.org/1999/xlink" x="0px" y="0px" width="197px" height="28.9px" viewBox="0 0 197 28.9" style="enable-background:new 0 0 197 28.9;" xml:space="preserve">
<style type="text/css">
	.st0{fill:#FFFFFF;}
</style>
<g>
	<g>
		<path class="st0" d="M12.2,0H16v7.3c0,0.4,0,0.7,0,1c1,3.2,2.1,5.9,3.5,8.3c1.9,3.4,5.1,6.5,9.5,9.2l-3.3,3.1    c-3.3-2.4-5.9-4.9-7.7-7.5c-1.3-1.8-2.4-3.9-3.3-6.4c-0.7,1.8-1.6,3.6-2.8,5.2c-2.6,3.5-5.8,6.4-9.7,8.7L0,25.5    c4.2-2.6,7.4-5.4,9.4-8.6c1.9-3.1,2.8-6.3,2.8-9.6V0z"/>
		<path class="st0" d="M34,5.1h4.4V0h3.5v5.1H46v3.4h-4.1V10c1.9,1.5,3.6,3,5,4.4l-2.2,3.2c-0.9-1.2-1.8-2.3-2.8-3.3v14.6h-3.5V16.1    c-0.9,2-1.9,3.8-3,5.4l-2.1-2.6c1-1.3,2-3.1,3.1-5.4c0.8-1.5,1.4-3.2,1.9-4.9H34V5.1z M47.4,5h7.7V0h3.6v5h3.8v3.5h-3.8V24    c0,1.8-0.3,3.1-0.8,3.8c-0.6,0.8-1.8,1.2-3.5,1.2c-1.3,0-2.5,0-3.7-0.1L50.1,25c1.2,0.1,2.5,0.2,3.7,0.2c0.5,0,0.9-0.1,1-0.4    c0.2-0.4,0.2-0.9,0.2-1.7v-8.2c-1,1.8-2.2,3.5-3.4,5.1c-1.6,2.2-3.2,3.9-4.7,5.1l-2.4-2.7c1.9-1.5,3.8-3.6,5.9-6.4    c1.8-2.4,3.4-4.9,4.6-7.4V8.5h-7.7V5z"/>
		<path class="st0" d="M67.2,6.6h3.3V0.2H74v6.4h3.3v3.5H74v9c1.3-0.3,2.6-0.7,3.8-1l0.7,3.2c-3.1,1.1-6.5,2.1-10.2,3l-1.2-3.7    c1.2-0.2,2.5-0.5,3.6-0.7v-9.8h-3.3V6.6z M84.7,0h3.6v2.8h7v3.5h-4.6l3,0.9c-0.6,1.6-1.3,3.1-1.9,4.4h4.3V15H77.5v-3.5h3.9    c-0.6-1.4-1.3-2.7-2.2-4l2-1.2h-2.7V2.8h6.2V0z M94.5,16.5v12.4h-3.6v-1.2h-8.4v1.2h-3.6V16.5H94.5z M82.5,24.1h8.4V20h-8.4V24.1z     M84,11.5h3.9c0.7-1.7,1.4-3.5,1.9-5.2h-7.1c1,1.5,1.8,3,2.5,4.6L84,11.5z"/>
		<path class="st0" d="M113.3,0h3.8v2h12.2v3.2h-4.4c1.2,1.2,2.4,2.5,3.6,3.9l-3.1,2.5c-0.4-0.6-0.9-1.2-1.3-1.7    c-6,0.8-12.9,1.2-20.7,1.4l-0.7-3.5c1.4,0,2.7,0,4,0c0.6-0.9,1.2-1.7,1.7-2.6H101V2h12.3V0z M126.3,11.9v12.9    c0,2.8-1.6,4.1-4.8,4.1c-1.2,0-2.5-0.1-4-0.4l-0.8-3.6c1.8,0.4,3.3,0.6,4.8,0.6c0.8,0,1.2-0.5,1.2-1.4h-14.9v4.8h-3.6v-17H126.3z     M107.8,16.5h14.9v-1.2h-14.9V16.5z M107.8,21h14.9v-1.4h-14.9V21z M121.6,7.2c-0.4-0.4-0.8-0.8-1.2-1.2l1.1-0.8h-8.9    c-0.5,0.9-1.1,1.7-1.6,2.5C114.6,7.7,118.2,7.5,121.6,7.2z"/>
		<path class="st0" d="M146.8,0h3.9v3.8h12.1v3.8h-16.6c0,1.2,0,2.2-0.1,3.2h14.2c0,9.7-0.5,15.1-1.6,16c-0.8,1.2-2.2,1.8-4.2,1.8    c-1.4,0-3-0.1-5-0.3l-0.9-3.9c2.1,0.3,3.9,0.4,5.5,0.4c0.7,0,1.2-0.3,1.5-1c0.4-0.8,0.6-3.9,0.8-9.4h-10.6    c-0.1,1.5-0.3,2.8-0.6,3.8c-0.7,2.6-1.7,4.8-3.2,6.5c-1.4,1.6-3.1,2.9-5.1,4l-1.8-3.4c1.7-0.9,3-2.1,4.1-3.5    c1-1.4,1.8-2.9,2.3-4.8c0.5-1.9,0.8-5.1,0.8-9.5h-7.5V3.8h11.8V0z"/>
		<path class="st0" d="M174.3,0l3.3,1c-0.1,0.3-0.3,0.6-0.4,0.9c2,1.2,3.9,2.5,5.6,4.1l-2.4,3c-0.2-0.2-0.3-0.3-0.5-0.5v3h-3.1v2    h4.8v3.4h-4.8v6.8c1.7-0.2,3.2-0.5,4.7-0.8L182,26c-3.8,0.9-8.1,1.8-12.8,2.5l-1.2-3.6c1.8-0.2,3.6-0.4,5.2-0.7v-7.3h-4.6v-3.4    h4.6v-2h-2.5V9.8c-0.1,0.1-0.3,0.3-0.5,0.4l-2.4-2.4c1.5-1.2,2.8-2.4,3.7-3.6C172.7,2.8,173.6,1.4,174.3,0z M171.2,17.9    c0.6,1.3,1.2,2.8,1.6,4.4l-3.2,1.2c-0.4-1.6-0.9-3-1.5-4.2L171.2,17.9z M172.7,8.1h6.8c-1.4-1.2-2.7-2.3-4-3.2    c-0.3,0.4-0.5,0.7-0.8,1.1C174,6.7,173.4,7.5,172.7,8.1z M178.4,17.6l3.2,0.8c-0.4,1.6-0.7,3-1.1,4.1l-3.3-1    C177.8,20.2,178.1,18.9,178.4,17.6z M181.9,9.4h5.6V0h3.8v9.4h5.8V13h-5.8v15.9h-3.8V13h-5.6V9.4z"/>
	</g>
</g>
</svg>