<?xml version="1.0" encoding="UTF-8"?>
<!-- Generator: Adobe Illustrator 21.0.2, SVG Export Plug-In . SVG Version: 6.00 Build 0)  -->
<svg version="1.1" id="圖層_1" xmlns="http://www.w3.org/2000/svg" xmlns:xlink="http://www.w3.org/1999/xlink" x="0px" y="0px" width="566.7px" height="29.5px" viewBox="0 0 566.7 29.5" style="enable-background:new 0 0 566.7 29.5;" xml:space="preserve">
<style type="text/css">
	.st0{fill:#FFFFFF;}
</style>
<g>
	<g>
		<path class="st0" d="M13,1.1l1.6,3.2c-1.4,0.2-2.9,0.4-4.5,0.6v3.6h5.8c-0.2-2.4-0.2-5-0.2-7.9h3.8c0,3,0.1,5.6,0.2,7.9h9.2v3.7    h-8.9c0.1,1.1,0.3,2.1,0.4,2.9c0.2,1.1,0.4,2.1,0.7,3.1c1-1.5,1.9-3.2,2.7-5.1l3.5,1.8c-1.4,3.2-3,5.8-4.7,7.9    c0.8,1.8,1.4,2.6,1.9,2.6c0.2,0,0.4-0.2,0.6-0.5c0.2-0.6,0.4-1.7,0.5-3.4l3.6,1.5c-0.4,2.6-1.1,4.4-2.3,5.4    c-0.7,0.6-1.5,0.9-2.5,0.9c-1,0-2.2-1.1-3.7-3.3c-0.2-0.3-0.4-0.6-0.6-1c-1.8,1.5-3.8,2.8-5.9,3.8l-1.8-3.1c2.5-1.3,4.5-2.8,6-4.3    c-0.5-1.3-0.9-2.7-1.3-4.2c-0.4-1.5-0.7-3.1-0.9-5h-6.1v3.8c1.5-0.2,3-0.5,4.2-0.8l0.5,3.5c-1.5,0.4-3.1,0.7-4.7,1.1v4.5    c0,1.9-0.3,3.2-0.8,3.9c-0.6,0.8-1.7,1.2-3.2,1.2c-1.4,0-2.8-0.2-4-0.5l-0.7-3.9c1.4,0.4,2.8,0.7,4.1,0.7c0.3,0,0.5-0.1,0.6-0.4    c0.1-0.4,0.2-0.9,0.2-1.7v-3c-1.8,0.3-3.7,0.6-5.6,0.9L0,17.4c2.3-0.2,4.4-0.5,6.4-0.8v-4.4H0V8.5h6.4V5.3c-1.3,0.1-2.6,0.2-4,0.3    L1.1,2.1C5.4,1.9,9.4,1.5,13,1.1z M24.7,0.7c1.1,1.4,2,2.9,2.8,4.5l-3.4,2c-0.6-1.6-1.5-3.1-2.6-4.5L24.7,0.7z"/>
		<path class="st0" d="M38.1,0.5l3.6,1.1c-0.5,2-1.1,3.9-1.8,5.7v22.1h-3.2v-15c-0.5,0.9-1,1.6-1.5,2.3l-1.8-3.6    C35.5,9.1,37.1,4.9,38.1,0.5z M51.4,1.4v13.7h-5.9v14.3H42v-28H51.4z M45.5,6.6h2.4V4.7h-2.4V6.6z M45.5,11.8h2.4V9.9h-2.4V11.8z     M54.1,1.2h7.6v23.3c0,3.1-1.3,4.7-3.9,4.7c-0.9,0-1.9-0.1-3-0.2l-0.7-3.9c1.1,0.3,2.1,0.5,3.1,0.5c0.8,0,1.1-0.8,1.1-2.5v-8h-5.9    V1.2H54.1z M55.9,6.5h2.5V4.7h-2.5V6.5z M58.4,11.6V9.8h-2.5v1.8H58.4z"/>
		<path class="st0" d="M67.9,3.6h5V0.5h3.5v3.2h4.2v3.5h-4.2v0.7c1.7,1.2,3.1,2.3,4.4,3.5l-2,2.9c-0.8-1-1.6-1.8-2.4-2.6v7.2h-3.5    v-5.5c-1,1.4-2.1,2.7-3.3,3.8l-2.4-2.9c1.2-0.9,2.4-2.2,3.7-3.9c0.8-1,1.5-2,2-3.1h-4.9V3.6z M70.7,20l3.1,2.1    c-1.1,2.4-2.4,4.3-4,5.8l-2.8-3.2C68.6,23.3,69.9,21.7,70.7,20z M74.6,19.2h3.8v5.1c0,0.8,0.6,1.2,1.7,1.2c0.5,0,1.1,0.1,2,0.1    c2.1,0,3.3,0,3.7-0.1c0.4-0.2,0.7-0.4,0.8-0.8c0.1-0.2,0.3-0.8,0.3-1.9l3.6,2.1c-0.2,1.8-0.7,2.9-1.5,3.4    c-0.5,0.2-1.2,0.4-2.1,0.4C86.4,28.9,84.7,29,82,29c-1.2,0-2.3-0.1-3.3-0.2c-2.7-0.1-4.1-1.2-4.1-3.3V19.2z M81.2,1.1h13.5v16.8    H83c1.2,1.3,2.1,2.6,2.9,4l-3.2,1.9c-0.8-1.5-1.8-2.8-3-4.1l2.8-1.8h-1.1V1.1z M84.7,5.7h6.5V4.4h-6.5V5.7z M84.7,10.1h6.5V8.7    h-6.5V10.1z M84.7,14.6h6.5v-1.5h-6.5V14.6z M92.6,19.9c1.5,1.6,2.6,3.4,3.5,5.2l-3.4,2c-0.8-1.8-1.9-3.6-3.3-5.2L92.6,19.9z"/>
		<path class="st0" d="M101.7,1h27v3.3h-8.3v1.5h7.3v8.8h-15.1l1.8,0.6c-0.2,0.4-0.3,0.8-0.5,1.1h15.5v3.5h-5.9    c-0.7,1.3-1.5,2.4-2.5,3.4c2.5,0.8,5.1,1.6,7.7,2.6l-1.8,3.5c-3.3-1.4-6.5-2.6-9.6-3.5c-1,0.5-2,0.9-3.2,1.3    c-3.6,1.1-7.4,1.8-11.5,2.2l-1.1-3.5c4.2-0.3,7.6-0.8,10.3-1.5c-0.9-0.2-1.9-0.5-2.8-0.7c-0.4,0.4-0.7,0.7-1.1,1.1l-3.2-1.8    c1-1,1.9-2,2.7-3h-6v-3.5h8.3c0.3-0.6,0.6-1.2,0.9-1.7h-7.7V5.8h7.1V4.3h-8.1V1z M106.2,11.2h3.7v-2h-3.7V11.2z M111.2,20.8    c1.8,0.4,3.7,0.8,5.6,1.3c0.3-0.2,0.5-0.3,0.8-0.5c0.6-0.5,1.1-1.1,1.6-1.7h-7.3C111.6,20.2,111.4,20.5,111.2,20.8z M116.9,5.8    V4.3h-3.8v1.5H116.9z M113.2,9.2v2h3.8v-2H113.2z M120.3,9.2v2h3.9v-2H120.3z"/>
		<path class="st0" d="M134.4,7.1h3.3V0.7h3.5v6.4h3.3v3.5h-3.3v9c1.3-0.3,2.6-0.7,3.8-1l0.7,3.2c-3.1,1.1-6.5,2.1-10.2,3l-1.2-3.7    c1.2-0.2,2.5-0.5,3.6-0.7v-9.8h-3.3V7.1z M151.9,0.5h3.6v2.8h7v3.5h-4.6l3,0.9c-0.6,1.6-1.3,3.1-1.9,4.4h4.3v3.5h-18.6V12h3.9    c-0.6-1.4-1.3-2.7-2.2-4l2-1.2h-2.7V3.2h6.2V0.5z M161.7,17v12.4h-3.6v-1.2h-8.4v1.2h-3.6V17H161.7z M149.7,24.6h8.4v-4.1h-8.4    V24.6z M151.2,12h3.9c0.7-1.7,1.4-3.5,1.9-5.2h-7.1c1,1.5,1.8,3,2.5,4.6L151.2,12z"/>
		<path class="st0" d="M180.5,0.5h3.8v2h12.2v3.2h-4.4c1.2,1.2,2.4,2.5,3.6,3.9l-3.1,2.5c-0.4-0.6-0.9-1.2-1.3-1.7    c-6,0.8-12.9,1.2-20.7,1.4l-0.7-3.5c1.4,0,2.7,0,4,0c0.6-0.9,1.2-1.7,1.7-2.6h-7.3V2.5h12.3V0.5z M193.5,12.3v12.9    c0,2.8-1.6,4.1-4.8,4.1c-1.2,0-2.5-0.1-4-0.4l-0.8-3.6c1.8,0.4,3.3,0.6,4.8,0.6c0.8,0,1.2-0.5,1.2-1.4H175v4.8h-3.6v-17H193.5z     M175,17h14.9v-1.2H175V17z M175,21.5h14.9v-1.4H175V21.5z M188.8,7.7c-0.4-0.4-0.8-0.8-1.2-1.2l1.1-0.8h-8.9    c-0.5,0.9-1.1,1.7-1.6,2.5C181.8,8.1,185.4,8,188.8,7.7z"/>
		<path class="st0" d="M205.8,0.3l3.9,1.2c-0.4,1.1-0.9,2.3-1.6,3.6c-0.2,0.4-0.4,0.7-0.6,1.1c1.3-0.2,2.6-0.4,3.8-0.7    c-0.4-0.7-0.9-1.4-1.3-2.1l3-1.9c1.5,2.1,2.8,4.4,3.8,6.8l-3.2,1.9c-0.2-0.6-0.4-1.1-0.7-1.7c-3.2,0.8-6.7,1.3-10.7,1.5l-0.8-3.5    c0.6,0,1.3,0,1.9,0c0.4-0.7,0.7-1.4,1-2.2C205,3.1,205.5,1.7,205.8,0.3z M215.5,10.8V25c0,2.8-1.4,4.1-4.3,4.1    c-0.8,0-1.6-0.1-2.6-0.4l-0.7-3.6c1.2,0.4,2.3,0.6,3.3,0.6c0.4,0,0.7-0.5,0.7-1.6v-0.7h-5.8v5.7h-3.6V10.8H215.5z M206.1,15.6h5.8    v-1.5h-5.8V15.6z M206.1,20.3h5.8v-1.6h-5.8V20.3z M217,0.5h3.6v3.8c2.2-0.7,4.3-1.5,6.2-2.4l2.3,3.3c-2.6,1-5.5,1.9-8.5,2.7V9    c0,0.6,0.4,1,1.1,1.1c0.5,0.1,1.6,0.2,3.3,0.2c0.7,0,1.1-0.1,1.2-0.3c0.2-0.2,0.3-0.5,0.4-1c0.1-0.3,0.2-0.9,0.2-1.6l3.4,1.9    c-0.4,2.1-0.9,3.4-1.6,3.8c-0.2,0.2-0.6,0.4-1.3,0.5c-0.4,0.1-1.1,0.1-2.3,0.1c-1.9,0-3.3-0.1-4.3-0.3c-2.5-0.2-3.7-1.4-3.7-3.7    V0.5z M217.3,14.5h3.6v4.2c2.6-0.8,5.1-1.8,7.3-2.8l2.3,3.1c-3,1.2-6.2,2.3-9.6,3.2v2.3c0,0.7,0.3,1.1,0.8,1.1    c0.4,0.1,1.2,0.2,2.6,0.2c1,0,1.5-0.1,1.7-0.3c0.2-0.2,0.4-0.6,0.5-1.2c0.1-0.4,0.2-0.9,0.3-1.8l3.4,1.8c-0.5,2.3-1.1,3.7-1.8,4.1    c-0.2,0.2-0.7,0.4-1.5,0.5c-0.4,0.1-1.3,0.2-2.6,0.2c-1.6,0-2.9-0.1-3.8-0.3c-2.2-0.2-3.2-1.4-3.2-3.7V14.5z"/>
		<path class="st0" d="M240.5,13v3.1c0,2.4-0.2,4.7-0.6,7c-0.5,2.4-1.1,4.4-1.8,6.2l-2.9-2.4c0.7-1.7,1.2-3.5,1.5-5.2    c0.4-1.8,0.5-3.7,0.5-5.7V1.7c8.4-0.1,15.6-0.5,21.8-1.2l1.9,3c-5.9,0.8-12.6,1.2-20.4,1.3v0.8H262V13H240.5z M240.5,8.7v1.1h18    V8.7H240.5z M262.1,14.1v11.3c0,2.7-1.5,4-4.6,4c-0.9,0-2,0-3.3-0.1l-0.7-3.5c1.5,0.2,2.8,0.4,4,0.4c0.6,0,0.9-0.3,1.1-1h-13.7    v4.2h-3.5V14.1H262.1z M244.8,18.4h13.8v-1h-13.8V18.4z M244.8,22.2h13.8v-1h-13.8V22.2z"/>
		<path class="st0" d="M276.9,0l3.8,0.8c-0.2,0.4-0.4,0.8-0.6,1.1h11.6v2.6c-0.6,1-1.3,1.9-2,2.8h5.4v16.8h-4.7    c0.9,0.3,1.7,0.5,2.7,0.7c1.4,0.4,2.9,0.7,4.2,0.9l-2.1,3.7c-1.5-0.4-3-0.9-4.4-1.4c-1.7-0.6-3.3-1.4-4.8-2.1l2.1-1.7H280l1.9,1.6    c-2.6,1.5-5.8,2.8-9.5,3.8l-2-3.5c2.5-0.5,4.9-1.1,7.1-1.8h-4.7v-14c-0.3,0.3-0.7,0.5-1,0.7l-2.5-2.7c1.9-1.2,3.4-2.6,4.5-3.9    C275.2,2.9,276.2,1.4,276.9,0z M285,7.3c0.6-0.6,1.2-1.3,1.7-2h-8.8c-0.3,0.4-0.6,0.7-0.9,1.1c-0.3,0.3-0.5,0.6-0.8,0.9H285z     M276.5,12h15v-1.2h-15V12z M276.5,16.3h15v-1.2h-15V16.3z M276.5,20.7h15v-1.2h-15V20.7z"/>
		<path class="st0" d="M326.4,8.6v16.8h4.9v3.5h-28.9v-3.5h4.9V8.6H326.4z M314.7,0.5h4v2.2h12.1v6.6h-3.6V6.1h-20.8v3.4h-3.6V2.6    h11.9V0.5z M310.9,14.4h11.8v-2.2h-11.8V14.4z M310.9,19.9h11.8v-2.2h-11.8V19.9z M310.9,25.4h11.8v-2.2h-11.8V25.4z"/>
		<path class="st0" d="M342.4,8.1l3.1,1.7c-0.6,1.4-1.5,2.9-2.5,4.3v15.1h-3.6V18.4c-0.5,0.5-0.9,0.8-1.2,1.1l-2.3-3    c1.2-1,2.5-2.4,3.8-4C340.8,11,341.7,9.6,342.4,8.1z M342.2,0.2l3.1,1.8c-0.7,1.4-1.6,2.8-2.8,4.2c-1.6,1.8-2.9,3-3.9,3.7l-2.2-3    c1.1-0.8,2.2-1.9,3.4-3.2C340.7,2.5,341.5,1.4,342.2,0.2z M345.4,13.7h18.8V17h-2.9v1.3h3.5v3.2h-3.5v3.3c0,1.8-0.3,2.9-0.8,3.4    c-0.6,0.6-1.7,1-3.2,1c-1.2,0-2.3-0.1-3.3-0.4l-0.7-3.6c1.4,0.4,2.7,0.6,4,0.6c0.2,0,0.4-0.5,0.4-1.5v-2.8h-6.8c0.8,1,1.5,2,2,3.1    l-3.7,2.2c-0.6-1.4-1.4-2.8-2.5-4l2-1.2h-4.4v-3.2h13.2V17h-12.2V13.7z M346.3,1.1h16.9v11.6h-16.9V1.1z M349.8,5.4h9.9v-1h-9.9    V5.4z M349.8,9.5h9.9V8.3h-9.9V9.5z"/>
		<path class="st0" d="M384,0.5l1.6,3.3c-1.8,0.3-3.6,0.6-5.5,0.9v3.8h5.6V12h-5.6v1.7c2.2,1.6,4.1,3.2,5.6,4.7l-2.2,3.2    c-1.1-1.3-2.3-2.5-3.4-3.6v11.4h-3.6V17.8c-0.3,0.5-0.6,0.9-0.9,1.3c-1.4,2-2.8,3.5-4.2,4.4l-1.8-3.5c1.5-1.2,2.8-2.7,4.1-4.5    c0.9-1.2,1.6-2.4,2.2-3.6h-5.7V8.5h6.2V5.1c-1.4,0.2-2.9,0.3-4.5,0.5l-1.3-3.5C375.5,1.7,379.9,1.2,384,0.5z M387.2,4h3.6v18.8    h-3.6V4z M394.1,0.5h3.6v23.8c0,1.8-0.2,3.1-0.7,3.8c-0.6,0.8-1.6,1.1-3.1,1.1c-1.3,0-2.6-0.1-3.7-0.4l-0.7-3.7    c1.3,0.3,2.6,0.5,3.9,0.5c0.2,0,0.4-0.1,0.5-0.4c0.1-0.4,0.2-0.9,0.2-1.7V0.5z"/>
		<path class="st0" d="M406.1,4.2h9.4V0.5h4v3.8h9.7v3.5h-9.7v4H431v3.5h-9.4c1.2,1.5,2.5,2.9,3.9,4c1.9,1.6,4,2.9,6.6,4l-2.2,4    c-2.6-1.3-4.9-3.1-7.1-5.3c-1.1-1.1-2.2-2.4-3.2-3.8v11.1h-4v-11c-1,1.3-2,2.5-3.1,3.6c-2.9,2.5-5.4,4.3-7.5,5.3L403,24    c2.1-1,4.3-2.6,6.6-4.6c1.6-1.4,2.9-2.8,3.9-4.2h-9.1v-3.5h11.1v-4h-9.4V4.2z"/>
		<path class="st0" d="M438,3.1h11.5V0.5h3.6v2.6h11.2v3.5h-11.2v7.7c1.4,1.8,3,3.5,4.8,5c2.2,1.9,4.9,3.4,7.9,4.5l-2,3.8    c-2.2-1-4.4-2.2-6.5-3.8c-1.4-1-2.8-2.4-4.2-4.1v9.5h-3.6v-9.7c-1.2,1.4-2.5,2.7-3.9,3.8c-2.6,2.1-5,3.6-7.2,4.6l-1.9-3.3    c3.2-1.4,5.9-3.1,8.2-5.2c1.8-1.5,3.4-3.2,4.8-5V6.6H438V3.1z M442,7.2l3.7,1.2c-0.4,1-0.7,1.9-1,2.7c1.2,0.9,2.3,2,3.4,3.1    l-2.8,3c-0.7-0.9-1.5-1.8-2.3-2.6c-0.8,1.4-1.6,2.8-2.6,4.1l-2.9-2.2c1-1.4,1.8-2.8,2.5-4.3C441,10.6,441.6,8.9,442,7.2z     M458.3,7.1l3.5,1.1c-0.4,1-0.7,1.9-1.1,2.7c1.5,1,2.8,2.1,4.1,3.3l-2.6,2.9c-1-1.1-2-2.1-3.1-2.9c-0.6,1-1.2,1.8-1.9,2.7    l-2.9-2.1c0.9-1.1,1.6-2.3,2.3-3.5C457.3,9.8,457.9,8.4,458.3,7.1z"/>
		<path class="st0" d="M474.5,25.5v3h-3.6V5h2.9c0.4-1.5,0.7-3.1,1-4.7l3.8,0.9c-0.2,1.3-0.5,2.6-0.9,3.8h4.8v5.7    c0.8-1.4,1.5-2.8,2.1-4.4c0.9-2.1,1.6-4.1,2-5.9l3.8,1.2c-0.3,1.2-0.6,2.3-1,3.5h9c0,12.2-0.4,19.3-1.2,21.3    c-0.6,2.1-2.1,3.2-4.4,3.2c-1.2,0-2.4-0.2-3.7-0.5l-0.7-3.9c1.8,0.4,3.3,0.6,4.4,0.6c0.7,0,1.1-0.5,1.3-1.5    c0.4-1.8,0.5-7,0.5-15.7H488c-0.9,2.3-1.9,4.3-2.9,5.9l-2.6-2v14.8h-3.6v-1.7H474.5z M474.5,13.8h4.2V8.5h-4.2V13.8z M478.8,22.1    v-4.8h-4.2v4.8H478.8z M489.7,13c1.1,2.1,1.9,4.5,2.5,7.1l-3.9,1.2c-0.5-2.7-1.2-5.1-2.2-7.3L489.7,13z"/>
		<path class="st0" d="M516.2,0.5h3.8v7.3c0,0.4,0,0.7,0,1c1,3.2,2.1,5.9,3.5,8.3c1.9,3.4,5.1,6.5,9.5,9.2l-3.3,3.1    c-3.3-2.4-5.9-4.9-7.7-7.5c-1.3-1.8-2.4-3.9-3.3-6.4c-0.7,1.8-1.6,3.6-2.8,5.2c-2.6,3.5-5.8,6.4-9.7,8.7L504,26    c4.2-2.6,7.4-5.4,9.4-8.6c1.9-3.1,2.8-6.3,2.8-9.6V0.5z"/>
		<path class="st0" d="M540.3,22.6l3.2,1.6c-0.9,2.2-1.9,4-3,5.2l-3-2.6C538.6,25.5,539.6,24.1,540.3,22.6z M538.3,1.4h12.2v20.7    h-12.2V1.4z M541.7,7.1h5.2V4.7h-5.2V7.1z M541.7,13h5.2v-2.7h-5.2V13z M541.7,18.8h5.2v-2.5h-5.2V18.8z M548.1,22.4    c0.9,1.4,2,2.7,3.3,3.7l-2.6,3.3c-1.5-1.5-2.7-3.1-3.6-5L548.1,22.4z M551.2,6.5h8.5V0.7h3.6v5.8h3.3v3.3h-3.3v14.8    c0,1.8-0.3,2.9-0.8,3.6c-0.6,0.7-1.8,1.1-3.5,1.1c-1.2,0-2.4-0.2-3.5-0.7L555,25c1.2,0.5,2.4,0.7,3.7,0.7c0.4,0,0.7-0.1,0.9-0.4    c0.1-0.4,0.2-0.9,0.2-1.6v-8.3c-0.3,0.7-0.7,1.3-1,2c-1.6,3-3.5,5.6-5.5,7.6l-2.4-2.9c2-2.1,3.7-4.4,5.2-6.9    c1-1.9,1.8-3.6,2.4-5.3h-7.2V6.5z"/>
	</g>
</g>
</svg>