<?xml version="1.0" encoding="UTF-8"?>
<!-- Generator: Adobe Illustrator 21.0.2, SVG Export Plug-In . SVG Version: 6.00 Build 0)  -->
<svg version="1.1" id="圖層_1" xmlns="http://www.w3.org/2000/svg" xmlns:xlink="http://www.w3.org/1999/xlink" x="0px" y="0px" width="223px" height="54.1px" viewBox="0 0 223 54.1" style="enable-background:new 0 0 223 54.1;" xml:space="preserve">
<style type="text/css">
	.st0{fill:#FFFFFF;}
</style>
<g>
	<g>
		<path class="st0" d="M9.8,0.8L11,3.3C9.9,3.4,8.8,3.6,7.6,3.7v2.7h4.3c-0.1-1.8-0.2-3.7-0.2-5.9h2.8c0,2.2,0.1,4.2,0.1,5.9h6.9    v2.7h-6.7c0.1,0.8,0.2,1.5,0.3,2.2c0.2,0.8,0.3,1.6,0.5,2.3c0.8-1.2,1.4-2.4,2-3.8l2.6,1.3c-1.1,2.4-2.2,4.4-3.5,5.9    c0.6,1.3,1.1,2,1.4,2c0.2,0,0.3-0.1,0.4-0.4c0.2-0.5,0.3-1.3,0.4-2.5l2.7,1.1c-0.3,2-0.8,3.3-1.7,4.1c-0.5,0.5-1.1,0.7-1.9,0.7    c-0.7,0-1.6-0.8-2.7-2.5c-0.2-0.2-0.3-0.5-0.5-0.7c-1.3,1.1-2.8,2.1-4.5,2.9l-1.3-2.3c1.9-1,3.4-2.1,4.5-3.3c-0.4-1-0.7-2-1-3.2    c-0.3-1.1-0.5-2.4-0.7-3.8H7.6V12c1.2-0.2,2.2-0.4,3.2-0.6l0.4,2.6c-1.1,0.3-2.3,0.5-3.5,0.8v3.4c0,1.4-0.2,2.4-0.6,2.9    c-0.4,0.6-1.2,0.9-2.4,0.9c-1.1,0-2.1-0.1-3-0.4l-0.5-2.9c1,0.3,2.1,0.5,3.1,0.5c0.2,0,0.4-0.1,0.5-0.3c0.1-0.3,0.1-0.7,0.1-1.3    v-2.2c-1.4,0.2-2.8,0.5-4.2,0.7L0,13c1.7-0.2,3.3-0.4,4.8-0.6V9.1H0V6.4h4.8V4c-1,0.1-2,0.2-3,0.2l-1-2.6C4.1,1.4,7.1,1.2,9.8,0.8    z M18.5,0.5c0.8,1.1,1.5,2.2,2.1,3.4L18,5.4c-0.5-1.2-1.1-2.3-2-3.4L18.5,0.5z"/>
		<path class="st0" d="M28.6,0.4l2.7,0.8c-0.4,1.5-0.8,2.9-1.4,4.3V22h-2.4V10.8c-0.4,0.6-0.7,1.2-1.1,1.8L25,9.8    C26.6,6.8,27.9,3.7,28.6,0.4z M38.5,1v10.3h-4.4V22h-2.6V1H38.5z M34.1,5h1.8V3.5h-1.8V5z M34.1,8.8h1.8V7.4h-1.8V8.8z M40.6,0.9    h5.7v17.5c0,2.3-1,3.5-2.9,3.5c-0.6,0-1.4-0.1-2.2-0.2l-0.5-2.9c0.8,0.2,1.6,0.4,2.3,0.4c0.6,0,0.8-0.6,0.8-1.9v-6h-4.4V0.9H40.6z     M41.9,4.9h1.9V3.5h-1.9V4.9z M43.8,8.7V7.4h-1.9v1.3H43.8z"/>
		<path class="st0" d="M50.9,2.7h3.7V0.4h2.6v2.4h3.2v2.6h-3.2v0.5c1.3,0.9,2.4,1.8,3.3,2.6L59,10.6c-0.6-0.7-1.2-1.4-1.8-2V14h-2.6    V9.9c-0.7,1-1.6,2-2.5,2.9l-1.8-2.2c0.9-0.7,1.8-1.7,2.8-3c0.6-0.7,1.1-1.5,1.5-2.3h-3.7V2.7z M53,15l2.3,1.6    c-0.8,1.8-1.8,3.3-3,4.3l-2.1-2.4C51.5,17.5,52.4,16.3,53,15z M56,14.4h2.8v3.8c0,0.6,0.4,0.9,1.2,0.9c0.4,0,0.9,0,1.5,0    c1.6,0,2.5,0,2.8-0.1c0.3-0.1,0.5-0.3,0.6-0.6c0.1-0.1,0.2-0.6,0.3-1.4l2.7,1.6c-0.2,1.3-0.6,2.2-1.1,2.5    c-0.4,0.2-0.9,0.3-1.6,0.3c-0.4,0.1-1.6,0.1-3.7,0.1c-0.9,0-1.8,0-2.5-0.1c-2-0.1-3.1-0.9-3.1-2.5V14.4z M60.9,0.8H71v12.6h-8.8    c0.9,1,1.6,2,2.2,3L62,17.8c-0.6-1.1-1.3-2.1-2.3-3.1l2.1-1.3h-0.8V0.8z M63.5,4.3h4.9v-1h-4.9V4.3z M63.5,7.6h4.9v-1h-4.9V7.6z     M63.5,11h4.9V9.8h-4.9V11z M69.4,14.9c1.1,1.2,2,2.5,2.6,3.9l-2.6,1.5c-0.6-1.4-1.5-2.7-2.5-3.9L69.4,14.9z"/>
		<path class="st0" d="M76.3,0.8h20.2v2.5h-6.3v1.1h5.5V11H84.4l1.3,0.4c-0.1,0.3-0.2,0.6-0.4,0.8H97v2.6h-4.5    c-0.5,1-1.1,1.8-1.9,2.5c1.9,0.6,3.8,1.2,5.7,1.9L95,22c-2.5-1-4.9-1.9-7.2-2.6c-0.7,0.4-1.5,0.7-2.4,1c-2.7,0.8-5.5,1.4-8.6,1.7    L76,19.4c3.1-0.2,5.7-0.6,7.7-1.1c-0.7-0.2-1.4-0.4-2.1-0.5c-0.3,0.3-0.5,0.5-0.8,0.8l-2.4-1.4c0.7-0.7,1.4-1.5,2-2.2h-4.5v-2.6    h6.3c0.2-0.4,0.5-0.9,0.7-1.3H77V4.4h5.3V3.3h-6.1V0.8z M79.6,8.4h2.7V6.9h-2.7V8.4z M83.4,15.6c1.4,0.3,2.8,0.6,4.2,1    c0.2-0.1,0.4-0.2,0.6-0.4c0.5-0.4,0.9-0.8,1.2-1.3h-5.5C83.7,15.1,83.5,15.4,83.4,15.6z M87.7,4.4V3.3h-2.8v1.1H87.7z M84.9,6.9    v1.5h2.8V6.9H84.9z M90.2,6.9v1.5h2.9V6.9H90.2z"/>
		<path class="st0" d="M100.8,5.3h2.5V0.5h2.6v4.8h2.5V8h-2.5v6.8c1-0.2,1.9-0.5,2.8-0.8l0.5,2.4c-2.3,0.9-4.9,1.6-7.7,2.2l-0.9-2.8    c0.9-0.2,1.8-0.4,2.7-0.5V8h-2.5V5.3z M113.9,0.4h2.7v2.1h5.2v2.6h-3.4l2.2,0.7c-0.5,1.2-1,2.3-1.5,3.3h3.3v2.6h-14V9h2.9    c-0.4-1-1-2-1.6-3l1.5-0.9h-2V2.4h4.7V0.4z M121.3,12.8V22h-2.7v-0.9h-6.3V22h-2.7v-9.3H121.3z M112.3,18.4h6.3v-3.1h-6.3V18.4z     M113.4,9h2.9c0.5-1.3,1-2.6,1.4-3.9h-5.3c0.8,1.1,1.4,2.3,1.9,3.4L113.4,9z"/>
		<path class="st0" d="M135.4,0.4h2.9v1.5h9.1v2.4h-3.3c0.9,0.9,1.8,1.8,2.7,2.9l-2.3,1.9c-0.3-0.5-0.7-0.9-1-1.3    c-4.5,0.6-9.7,0.9-15.5,1.1l-0.5-2.6c1,0,2,0,3,0c0.5-0.7,0.9-1.3,1.3-1.9h-5.5V1.9h9.2V0.4z M145.1,9.3v9.7    c0,2.1-1.2,3.1-3.6,3.1c-0.9,0-1.9-0.1-3-0.3l-0.6-2.7c1.3,0.3,2.5,0.4,3.6,0.4c0.6,0,0.9-0.3,0.9-1h-11.2V22h-2.7V9.3H145.1z     M131.2,12.8h11.2v-0.9h-11.2V12.8z M131.2,16.1h11.2v-1h-11.2V16.1z M141.6,5.8c-0.3-0.3-0.6-0.6-0.9-0.9l0.8-0.6h-6.7    c-0.4,0.7-0.8,1.3-1.2,1.9C136.4,6.1,139,6,141.6,5.8z"/>
		<path class="st0" d="M154.4,0.3l2.9,0.9c-0.3,0.9-0.7,1.8-1.2,2.7c-0.1,0.3-0.3,0.5-0.4,0.8c1-0.1,1.9-0.3,2.8-0.5    c-0.3-0.5-0.6-1.1-1-1.6l2.3-1.4c1.1,1.6,2.1,3.3,2.8,5.1l-2.4,1.4c-0.2-0.4-0.3-0.9-0.5-1.3c-2.4,0.6-5,1-8,1.1L151.1,5    c0.5,0,1,0,1.5,0c0.3-0.5,0.5-1.1,0.8-1.6C153.8,2.3,154.1,1.3,154.4,0.3z M161.6,8.1v10.7c0,2.1-1.1,3.1-3.2,3.1    c-0.6,0-1.2-0.1-2-0.3l-0.5-2.7c0.9,0.3,1.7,0.4,2.5,0.4c0.3,0,0.5-0.4,0.5-1.2v-0.5h-4.3v4.2h-2.7V8.1H161.6z M154.6,11.7h4.3    v-1.1h-4.3V11.7z M154.6,15.3h4.3v-1.2h-4.3V15.3z M162.8,0.4h2.7v2.9c1.7-0.5,3.2-1.1,4.7-1.8l1.7,2.5c-2,0.8-4.1,1.4-6.4,2v0.9    c0,0.5,0.3,0.8,0.8,0.8c0.3,0.1,1.2,0.1,2.5,0.1c0.5,0,0.8-0.1,0.9-0.2c0.1-0.1,0.2-0.4,0.3-0.8c0.1-0.2,0.1-0.6,0.2-1.2l2.6,1.4    c-0.3,1.6-0.7,2.5-1.2,2.8c-0.1,0.2-0.5,0.3-1,0.4c-0.3,0-0.8,0.1-1.7,0.1c-1.4,0-2.5-0.1-3.2-0.2c-1.8-0.1-2.8-1.1-2.8-2.8V0.4z     M162.9,10.9h2.7V14c2-0.6,3.8-1.3,5.5-2.1l1.7,2.3c-2.2,0.9-4.6,1.7-7.2,2.4v1.8c0,0.5,0.2,0.8,0.6,0.8c0.3,0.1,0.9,0.1,2,0.1    c0.7,0,1.1-0.1,1.3-0.2c0.2-0.1,0.3-0.4,0.4-0.9c0.1-0.3,0.1-0.7,0.2-1.3l2.6,1.4c-0.3,1.8-0.8,2.8-1.4,3.1    c-0.1,0.2-0.5,0.3-1.1,0.4c-0.3,0.1-0.9,0.1-1.9,0.1c-1.2,0-2.2-0.1-2.9-0.3c-1.6-0.1-2.4-1.1-2.4-2.7V10.9z"/>
		<path class="st0" d="M180.3,9.8v2.3c0,1.8-0.2,3.5-0.4,5.2c-0.4,1.8-0.8,3.3-1.3,4.7l-2.2-1.8c0.5-1.3,0.9-2.6,1.1-3.9    c0.3-1.3,0.4-2.7,0.4-4.2V1.3c6.3-0.1,11.7-0.4,16.3-0.9l1.4,2.2c-4.4,0.6-9.5,0.9-15.3,1v0.6h16.1v5.6H180.3z M180.3,6.5v0.8    h13.5V6.5H180.3z M196.6,10.6V19c0,2-1.1,3-3.4,3c-0.7,0-1.5,0-2.5-0.1l-0.5-2.6c1.1,0.2,2.1,0.3,3,0.3c0.4,0,0.7-0.2,0.8-0.7    h-10.3V22H181V10.6H196.6z M183.6,13.8H194V13h-10.3V13.8z M183.6,16.7H194v-0.8h-10.3V16.7z"/>
		<path class="st0" d="M207.7,0l2.8,0.6c-0.1,0.3-0.3,0.6-0.4,0.8h8.7v2c-0.5,0.8-1,1.4-1.5,2.1h4.1v12.6h-3.5    c0.6,0.2,1.3,0.4,2,0.5c1.1,0.3,2.1,0.5,3.2,0.7l-1.6,2.7c-1.1-0.3-2.2-0.6-3.3-1.1c-1.3-0.5-2.5-1-3.6-1.6l1.6-1.3H210l1.5,1.2    c-2,1.1-4.3,2.1-7.1,2.8l-1.5-2.6c1.9-0.3,3.7-0.8,5.3-1.4h-3.5V7.6c-0.2,0.2-0.5,0.4-0.8,0.5l-1.9-2c1.4-0.9,2.5-1.9,3.4-2.9    C206.4,2.1,207.1,1.1,207.7,0z M213.7,5.5c0.5-0.5,0.9-1,1.3-1.5h-6.6c-0.2,0.3-0.4,0.5-0.7,0.8c-0.2,0.2-0.4,0.5-0.6,0.7H213.7z     M207.3,9h11.2V8.1h-11.2V9z M207.3,12.3h11.2v-0.9h-11.2V12.3z M207.3,15.5h11.2v-0.9h-11.2V15.5z"/>
		<path class="st0" d="M30.6,38.4V51h3.7v2.6H12.6V51h3.7V38.4H30.6z M21.8,32.4h3V34h9.1v5h-2.7v-2.4H15.6v2.6h-2.7V34h8.9V32.4z     M19,42.8h8.9v-1.7H19V42.8z M19,46.9h8.9v-1.6H19V46.9z M19,51h8.9v-1.6H19V51z"/>
		<path class="st0" d="M42.6,38.1l2.3,1.3c-0.5,1.1-1.1,2.2-1.9,3.2v11.3h-2.7v-8.2c-0.4,0.3-0.7,0.6-0.9,0.8l-1.7-2.2    c0.9-0.8,1.9-1.8,2.8-3C41.4,40.3,42.1,39.2,42.6,38.1z M42.4,32.2l2.3,1.3c-0.5,1-1.2,2.1-2.1,3.2c-1.2,1.3-2.2,2.2-3,2.7    L38,37.2c0.8-0.6,1.7-1.4,2.6-2.4C41.3,33.9,41.9,33,42.4,32.2z M44.8,42.3h14.1v2.4h-2.2v1h2.6v2.4h-2.6v2.5    c0,1.3-0.2,2.2-0.6,2.6c-0.5,0.5-1.2,0.7-2.4,0.7c-0.9,0-1.7-0.1-2.5-0.3l-0.5-2.7c1,0.3,2,0.4,3,0.4c0.2,0,0.3-0.4,0.3-1.1v-2.1    H49c0.6,0.7,1.1,1.5,1.5,2.3l-2.7,1.6c-0.5-1.1-1.1-2.1-1.9-3l1.5-0.9h-3.3v-2.4H54v-1h-9.2V42.3z M45.5,32.8h12.7v8.7H45.5V32.8z     M48.1,36h7.4v-0.8h-7.4V36z M48.1,39.1h7.4v-0.9h-7.4V39.1z"/>
		<path class="st0" d="M73.8,32.4l1.2,2.5c-1.3,0.2-2.7,0.5-4.1,0.7v2.9h4.2V41h-4.2v1.2c1.6,1.2,3,2.4,4.2,3.5l-1.7,2.4    c-0.9-1-1.7-1.9-2.6-2.7V54h-2.7v-8.6c-0.2,0.4-0.5,0.7-0.7,1c-1.1,1.5-2.1,2.6-3.1,3.3L63,47.1c1.1-0.9,2.1-2,3.1-3.4    c0.7-0.9,1.2-1.8,1.7-2.7h-4.3v-2.6h4.7v-2.5c-1.1,0.1-2.2,0.2-3.4,0.4l-1-2.6C67.4,33.3,70.8,32.9,73.8,32.4z M76.2,35h2.7v14.1    h-2.7V35z M81.4,32.4h2.7v17.8c0,1.4-0.2,2.3-0.5,2.8c-0.4,0.6-1.2,0.8-2.3,0.8c-1,0-1.9-0.1-2.8-0.3L78,50.8c1,0.2,2,0.4,2.9,0.4    c0.2,0,0.3-0.1,0.4-0.3c0.1-0.3,0.1-0.7,0.1-1.3V32.4z"/>
		<path class="st0" d="M90.4,35.2h7v-2.8h3v2.8h7.2v2.6h-7.2v3h8.6v2.6H102c0.9,1.1,1.8,2.1,2.9,3c1.4,1.2,3,2.2,4.9,3l-1.6,3    c-1.9-1-3.7-2.3-5.3-4c-0.9-0.9-1.7-1.8-2.4-2.8v8.3h-3v-8.2c-0.8,1-1.5,1.9-2.3,2.7c-2.2,1.9-4,3.2-5.6,4L88,50    c1.6-0.8,3.2-1.9,4.9-3.4c1.2-1,2.1-2.1,2.9-3.1H89v-2.6h8.3v-3h-7V35.2z"/>
		<path class="st0" d="M114.3,34.3h8.6v-2h2.7v2h8.4V37h-8.4v5.8c1,1.3,2.2,2.6,3.6,3.8c1.7,1.4,3.7,2.5,5.9,3.4l-1.5,2.8    c-1.7-0.7-3.3-1.7-4.9-2.8c-1.1-0.8-2.1-1.8-3.2-3.1v7.1H123v-7.2c-0.9,1.1-1.9,2-3,2.9c-1.9,1.6-3.7,2.7-5.4,3.4l-1.4-2.5    c2.4-1,4.5-2.3,6.1-3.9c1.4-1.2,2.6-2.4,3.6-3.8v-6h-8.6V34.3z M117.3,37.4l2.7,0.9c-0.3,0.8-0.5,1.4-0.8,2    c0.9,0.7,1.8,1.5,2.6,2.3l-2.1,2.2c-0.5-0.7-1.1-1.3-1.7-1.9c-0.6,1.1-1.2,2.1-1.9,3l-2.2-1.6c0.7-1,1.4-2.1,1.9-3.2    C116.5,39.9,117,38.6,117.3,37.4z M129.5,37.3l2.6,0.8c-0.3,0.8-0.6,1.4-0.8,2c1.1,0.8,2.1,1.6,3,2.5l-2,2.2    c-0.8-0.8-1.5-1.6-2.3-2.2c-0.4,0.7-0.9,1.4-1.4,2l-2.2-1.6c0.7-0.9,1.2-1.7,1.7-2.6C128.8,39.4,129.2,38.3,129.5,37.3z"/>
		<path class="st0" d="M141.7,51.1v2.2H139V35.8h2.2c0.3-1.2,0.6-2.3,0.7-3.5l2.8,0.7c-0.2,1-0.4,1.9-0.7,2.8h3.6V40    c0.6-1,1.1-2.1,1.6-3.3c0.7-1.6,1.2-3.1,1.5-4.5l2.8,0.9c-0.2,0.9-0.5,1.8-0.8,2.6h6.8c0,9.2-0.3,14.5-0.9,16    c-0.4,1.6-1.5,2.4-3.3,2.4c-0.9,0-1.8-0.1-2.7-0.4l-0.5-2.9c1.4,0.3,2.5,0.4,3.3,0.4c0.5,0,0.8-0.4,1-1.1    c0.3-1.3,0.4-5.3,0.4-11.8h-4.9c-0.7,1.7-1.4,3.2-2.2,4.4l-2-1.5v11.1h-2.7v-1.3H141.7z M141.7,42.4h3.2v-4h-3.2V42.4z     M144.9,48.6v-3.6h-3.2v3.6H144.9z M153.1,41.8c0.8,1.6,1.4,3.4,1.9,5.3L152,48c-0.3-2-0.9-3.8-1.6-5.5L153.1,41.8z"/>
		<path class="st0" d="M173,32.4h2.8v5.5c0,0.3,0,0.5,0,0.8c0.7,2.4,1.6,4.5,2.6,6.2c1.5,2.6,3.8,4.9,7.1,6.9L183,54    c-2.5-1.8-4.4-3.6-5.8-5.6c-1-1.4-1.8-3-2.5-4.8c-0.5,1.4-1.2,2.7-2.1,3.9c-1.9,2.7-4.3,4.8-7.2,6.5l-1.6-2.6    c3.2-1.9,5.5-4.1,7.1-6.5c1.4-2.3,2.1-4.7,2.1-7.2V32.4z"/>
		<path class="st0" d="M191.1,49l2.4,1.2c-0.7,1.7-1.5,3-2.3,3.9l-2.2-2C189.8,51.1,190.5,50.1,191.1,49z M189.5,33h9.2v15.5h-9.2    V33z M192.1,37.3h3.9v-1.8h-3.9V37.3z M192.1,41.8h3.9v-2h-3.9V41.8z M192.1,46.1h3.9v-1.9h-3.9V46.1z M196.9,48.8    c0.7,1.1,1.5,2,2.5,2.8l-2,2.5c-1.1-1.1-2-2.4-2.7-3.8L196.9,48.8z M199.2,36.9h6.4v-4.3h2.7v4.3h2.5v2.5h-2.5v11.1    c0,1.3-0.2,2.2-0.6,2.7c-0.5,0.5-1.4,0.8-2.6,0.8c-0.9,0-1.8-0.2-2.6-0.5l-0.5-2.7c0.9,0.4,1.8,0.5,2.7,0.5c0.3,0,0.6-0.1,0.7-0.3    c0.1-0.3,0.2-0.7,0.2-1.2v-6.2c-0.2,0.5-0.5,1-0.7,1.5c-1.2,2.3-2.6,4.2-4.1,5.7l-1.8-2.2c1.5-1.6,2.8-3.3,3.9-5.2    c0.8-1.4,1.4-2.7,1.8-4h-5.4V36.9z"/>
	</g>
</g>
</svg>