<?xml version="1.0" encoding="UTF-8"?>
<!-- Generator: Adobe Illustrator 21.0.2, SVG Export Plug-In . SVG Version: 6.00 Build 0)  -->
<svg version="1.1" id="圖層_1" xmlns="http://www.w3.org/2000/svg" xmlns:xlink="http://www.w3.org/1999/xlink" x="0px" y="0px" width="117.1px" height="17.3px" viewBox="0 0 117.1 17.3" style="enable-background:new 0 0 117.1 17.3;" xml:space="preserve">
<g>
	<path d="M0,0.6h8.9v2H6.5v1.2h2.3v13.5h-2v-0.9H2.2v0.9h-2V3.8h2.2V2.6H0V0.6z M2.2,11.4h4.6v-1H6.2c-1,0-1.5-0.5-1.5-1.6v-3H4.2v1   c0,0.9-0.1,1.7-0.4,2.5c-0.2,0.7-0.5,1.3-0.8,1.7l-0.9-0.7V11.4z M2.2,9.1c0.1-0.2,0.2-0.5,0.3-0.7c0.2-0.5,0.2-1.1,0.2-1.7v-1H2.2   V9.1z M2.2,14.4h4.6v-1.1H2.2V14.4z M4.2,2.6v1.2h0.4V2.6H4.2z M6.2,5.7v2.5c0,0.3,0.1,0.5,0.4,0.5h0.2v-3H6.2z M9.6,0.5h7.1v8.9   h-2.1V8.6h-3V14c0,0.4,0.1,0.7,0.2,0.7c0.1,0.1,0.6,0.1,1.4,0.1c0.5,0,0.9,0,1.1-0.1c0.2,0,0.4-0.1,0.6-0.3   c0.1-0.2,0.2-0.9,0.3-2.2l2.2,1c-0.2,1.6-0.4,2.6-0.7,3c-0.2,0.2-0.5,0.3-0.8,0.4c-0.8,0.1-1.6,0.1-2.6,0.1c-1.4,0-2.3,0-2.7-0.1   c-0.8-0.1-1.2-0.8-1.2-2.3v-8h5.1V2.6h-5V0.5z"/>
	<path d="M20,1.5h2.5V0.1h1.9v1.4h2.5v1.8h-2.5v0.7h2.4v7.8h-2.5v0.9H27v1.9h-2.7v2.5h-1.9v-2.5H20v-1.9h2.5v-0.9H20V4.1h2.5V3.3H20   V1.5z M21.9,7.1h0.7V6h-0.7V7.1z M21.9,10h0.7V8.9h-0.7V10z M24.3,6v1.1H25V6H24.3z M24.3,8.9V10H25V8.9H24.3z M27.2,1h3.7V0.1h2V1   H37v1.7h-4.1v0.5h3.5v6h-0.2c0.4,0.5,0.8,1,1.1,1.6l-1.6,0.9c-0.1-0.3-0.2-0.5-0.4-0.7c-0.1,0-0.1,0-0.2,0v0.9H37v1.8h-1.9v1.2   c0,1-0.2,1.6-0.5,1.9c-0.4,0.4-1,0.5-2,0.5c-0.4,0-0.7,0-1-0.1l-0.4-2.1c0.5,0.1,0.9,0.2,1.4,0.2c0.4,0,0.5-0.3,0.5-0.9v-0.8h-2.9   c0.3,0.4,0.6,0.8,0.9,1.3l-1.6,0.9c-0.3-0.6-0.6-1.1-1.1-1.6l1-0.6h-2.2v-1.8h6v-0.7c-1.7,0.1-3.6,0.2-5.6,0.2l-0.3-1.6   c1.3,0,2.5,0,3.6,0V9.2h-3.5v-6h3.5V2.7h-3.7V1z M29.3,5.4h1.6V4.9h-1.6V5.4z M29.3,7.5h1.6V7h-1.6V7.5z M32.9,4.9v0.5h1.6V4.9   H32.9z M32.9,7v0.5h1.6V7H32.9z M34.4,9.6c-0.1-0.1-0.1-0.2-0.2-0.2l0.2-0.1h-1.5v0.5C33.4,9.7,33.9,9.6,34.4,9.6z"/>
	<path d="M40.7,1.4h2.4V0.1h2.1v1.3h1.8v1.1c0.3-0.4,0.6-0.8,0.9-1.2l1.8,1c-0.5,0.7-1,1.3-1.5,2h1.1v1.2c0.2-0.4,0.4-0.9,0.5-1.3   c0.6-1.4,1-2.7,1.3-3.9l2.1,0.6c-0.2,0.8-0.4,1.6-0.7,2.4h4.3v2.2H56c-0.2,1.5-0.6,3.1-1.1,4.6c-0.3,0.8-0.6,1.5-0.9,2.1   c0.9,1.3,1.9,2.3,3.1,3.2l-1.4,2.1c-1.2-1-2.3-2.1-3.1-3.2c-0.1,0.1-0.1,0.2-0.2,0.2c-0.9,1.3-2,2.2-3.1,2.8l-1.2-1.9   c1-0.6,1.9-1.4,2.7-2.5c0.2-0.2,0.3-0.5,0.5-0.7c-0.5-1-0.9-2.1-1.3-3.4c-0.1,0.2-0.2,0.3-0.3,0.5l-1.4-1v0.5   c-0.8,1-1.8,1.8-2.9,2.6v0.4c1.2-0.2,2.2-0.3,3.2-0.5l0.3,1.9c-1.1,0.2-2.3,0.4-3.5,0.6v1.4c0,0.9-0.2,1.5-0.5,1.7   c-0.4,0.3-1,0.5-1.9,0.5c-0.5,0-0.9,0-1.3-0.1l-0.4-2.2c0.6,0.2,1.1,0.3,1.7,0.3c0.1,0,0.1,0,0.2-0.1c0-0.1,0.1-0.3,0.1-0.6V14   c-1.1,0.1-2.2,0.3-3.3,0.4l-0.4-2.2c1.3-0.1,2.6-0.2,3.7-0.4V9.7l0.9,0.1c0.5-0.3,0.9-0.6,1.4-1h-2.1c-0.9,0.8-1.9,1.5-2.9,2.2   l-1.2-1.9c1.4-0.8,2.7-1.8,4-3h-3.8V4.2h3.3V3.3h-2.4V1.4z M45.6,4.2c0.3-0.3,0.6-0.6,0.9-1h-1.2v1H45.6z M48.5,7.1   c0.2-0.3,0.3-0.6,0.5-0.9h-2.4c-0.3,0.3-0.6,0.6-0.9,0.9H48.5z M51.5,6.1c0.3,1.3,0.7,2.5,1.2,3.5C52.8,9.4,52.9,9.2,53,9   c0.4-1.1,0.7-2.3,0.9-3.6h-2C51.8,5.6,51.6,5.9,51.5,6.1z"/>
	<path d="M67.3,0.1h2.3v1.2h7.2v1.9h-2.6c0.7,0.7,1.4,1.5,2.1,2.3l-1.9,1.5c-0.3-0.4-0.5-0.7-0.8-1C70.1,6.5,66,6.8,61.3,6.9   l-0.4-2.1c0.8,0,1.6,0,2.4,0c0.4-0.5,0.7-1,1-1.5H60V1.4h7.3V0.1z M75,7.2v7.7c0,1.6-1,2.4-2.9,2.4c-0.7,0-1.5-0.1-2.4-0.2   l-0.5-2.2c1,0.2,2,0.4,2.8,0.4c0.5,0,0.7-0.3,0.7-0.8H64v2.8h-2.1V7.2H75z M64,10h8.9V9.2H64V10z M64,12.6h8.9v-0.8H64V12.6z    M72.2,4.5C72,4.2,71.7,4,71.5,3.7l0.6-0.5h-5.3c-0.3,0.5-0.6,1-1,1.5C68,4.7,70.2,4.6,72.2,4.5z"/>
	<path d="M84.6,12.1l1.4,1.8c-1.5,1.1-3.1,2-4.8,2.7l-1.1-2C81.5,14,83,13.2,84.6,12.1z M94,0.2l1,1.9c-2.1,0.3-4.5,0.6-7.1,0.8   c-0.7,1.1-1.4,2.1-2.1,3c0.5,0.3,1,0.6,1.5,0.9c1.2-1.2,2.3-2.5,3.2-3.7l2.3,1c-1.6,1.8-3.1,3.4-4.5,4.8c1.6-0.1,3.2-0.1,4.6-0.2   c-0.3-0.5-0.7-0.9-1-1.3l1.9-1.2c1.2,1.4,2.1,2.8,2.8,4.4l-2,1.2c-0.2-0.4-0.4-0.9-0.6-1.3c-1.5,0.1-3,0.2-4.5,0.4v6.4h-2.2V11   c-2.1,0.1-4.2,0.3-6.4,0.4l-0.4-2.1c1.6,0,3-0.1,4.5-0.2c0.2-0.2,0.5-0.4,0.7-0.6c-1.3-0.8-2.7-1.6-4.2-2.5l1.4-1.7   c0.4,0.2,0.7,0.4,1.1,0.6c0.5-0.6,0.9-1.2,1.2-1.8c-1.2,0.1-2.3,0.1-3.6,0.1l-0.6-2.1C85.2,1.1,89.6,0.8,94,0.2z M91.9,11.9   c0.8,0.6,1.6,1.1,2.4,1.5c0.8,0.4,1.6,0.8,2.3,1l-1.2,2.2c-0.8-0.3-1.6-0.7-2.3-1.2c-0.9-0.6-1.7-1.2-2.5-1.9L91.9,11.9z"/>
	<path d="M100.2,10.9l2,0.5c-0.3,1.8-0.5,3.3-0.8,4.5l-1.9-0.6C99.8,13.8,100,12.3,100.2,10.9z M102.8,0l2,0.9   c-0.7,1.3-1.4,2.5-2,3.5c0.2,0.1,0.4,0.2,0.6,0.3c0.4-0.8,0.8-1.6,1.2-2.3l2,0.9c-0.9,1.7-1.8,3.2-2.7,4.5c0.4,0,0.7-0.1,1-0.1   c-0.1-0.3-0.2-0.7-0.3-0.9l1.8-0.4c0.4,1.1,0.7,2.3,0.8,3.5l-1.9,0.5c0-0.3-0.1-0.5-0.1-0.8c-0.2,0-0.5,0.1-0.7,0.1v7.6h-2.1V9.9   c-0.8,0.1-1.5,0.2-2.3,0.2l-0.4-2c0.5,0,1.1-0.1,1.6-0.1c0.3-0.5,0.7-1,1-1.5c-0.9-0.6-1.8-1.3-2.7-1.9l1.2-1.5   c0.1,0,0.2,0.1,0.3,0.2C101.7,2.2,102.3,1.1,102.8,0z M106.6,10.5c0.4,1.2,0.6,2.5,0.7,3.7l-2,0.5c-0.1-1.4-0.3-2.6-0.6-3.8   L106.6,10.5z M110.8,0.1h2.2V2h3.7v2h-4.9c-0.1,0.5-0.3,1-0.6,1.5c-0.2,0.5-0.4,0.9-0.6,1.3c1.1-0.1,2.2-0.2,3.1-0.3   c-0.2-0.5-0.4-1-0.6-1.4l2-0.6c0.8,1.4,1.3,2.9,1.8,4.5l-2.2,0.7c-0.1-0.5-0.2-0.9-0.3-1.4c-0.1,0-0.3,0-0.4,0.1v5.9   c0,0.4,0,0.6,0.1,0.7c0,0.1,0.1,0.1,0.3,0.1c0.3,0,0.5-0.1,0.6-0.2c0.1-0.1,0.2-0.4,0.2-0.8c0-0.3,0.1-0.7,0.1-1.3l1.8,1   c-0.2,1.6-0.5,2.6-0.8,2.9c-0.1,0.2-0.3,0.3-0.7,0.3c-0.2,0.1-0.6,0.1-1.2,0.1c-0.6,0-1-0.1-1.4-0.2c-0.8-0.1-1.1-0.8-1.1-2.2v-6   c-0.4,0.1-0.7,0.1-1.1,0.1c0,2.9-0.3,4.8-0.9,5.8c-0.5,1.1-1.3,2-2.4,2.7l-1.2-1.9c0.7-0.6,1.3-1.3,1.7-2.2   c0.4-0.8,0.6-2.2,0.6-4.2c-0.4,0.1-0.9,0.1-1.3,0.1l-0.4-2.1c0.4,0,0.8-0.1,1.2-0.1c0.3-0.5,0.5-1,0.8-1.6c0.2-0.5,0.4-1,0.6-1.4   H107V2h3.8V0.1z"/>
</g>
</svg>