<?xml version="1.0" encoding="UTF-8"?>
<!-- Generator: Adobe Illustrator 21.0.2, SVG Export Plug-In . SVG Version: 6.00 Build 0)  -->
<svg version="1.1" id="圖層_1" xmlns="http://www.w3.org/2000/svg" xmlns:xlink="http://www.w3.org/1999/xlink" x="0px" y="0px" width="165px" height="56px" viewBox="0 0 165 56" style="enable-background:new 0 0 165 56;" xml:space="preserve">
<style type="text/css">
	.st0{fill:#222222;}
</style>
<g>
	<path class="st0" d="M0.2,10.1h4.6v6.8c1,0.6,2.1,0.9,3.4,1c0.9,0.1,3.3,0.2,7,0.2c2.3,0,4.2-0.2,5.8-0.5c-0.4,0.9-0.8,1.8-1.1,2.8   h-7c-2.5,0-4.5-0.1-6-0.4c-1-0.2-2.1-0.7-3.1-1.4c-0.7,0.7-1.4,1.5-2.1,2.2C1.1,19.9,0.6,19,0,18.2c0.8-0.3,1.5-0.6,2.2-0.9v-4.8   H0.2V10.1z M1.9,4.6c1,0.6,2,1.4,2.8,2.2L2.9,9.1C2,8.1,1.1,7.2,0.1,6.5L1.9,4.6z M3.1,0.3c1,0.6,1.8,1.3,2.6,2.2L3.9,4.7   C3,3.7,2.1,2.9,1.2,2.2L3.1,0.3z M9,0.2h2.5v0.7h2.9V0.2h2.5v0.7h3.5v2.1h-3.5v0.7h2.4v6.9h-5.2v0.5h6.3v4.3c0,1.6-1,2.4-3,2.4h-1   L16.1,16l-0.4,0.2c-0.1-0.2-0.1-0.3-0.2-0.5c-1.9,0.4-4,0.7-6.3,0.9l-0.4-2.2c1-0.1,1.9-0.1,2.8-0.2v-1H8.5v4H6v-6.1h5.7v-0.5H6.7   V3.7H9V3.1H6V0.9h3V0.2z M9.3,6.2h2.4V5.7H9.3V6.2z M9.3,8.6h2.4V8H9.3V8.6z M11.5,3.7h2.9V3.1h-2.9V3.7z M14.1,5.7v0.5h2.7V5.7   H14.1z M14.1,8v0.6h2.7V8H14.1z M14.9,13.9c-0.1-0.2-0.2-0.3-0.2-0.4l0.5-0.2h-1V14C14.4,14,14.6,14,14.9,13.9z M16.6,13.2   c0.4,0.7,0.7,1.4,1,2.1l-0.9,0.4c0.3,0,0.5,0.1,0.7,0.1c0.3,0,0.5-0.3,0.5-1v-1.6H16.6z"/>
	<path class="st0" d="M31.5,0.1l3,0.9c-0.2,0.6-0.5,1.2-0.8,1.8c-0.1,0.1-0.1,0.2-0.2,0.3h10.8v14.6c0,2.2-1.1,3.3-3.4,3.3   c-0.6,0-1.4-0.1-2.3-0.4l-0.5-2.8c1,0.4,1.9,0.5,2.8,0.5c0.5,0,0.7-0.4,0.7-1.2V5.6H27.6v15.3h-2.7V3.1h5.6   c0.1-0.3,0.3-0.5,0.4-0.8C31.1,1.5,31.3,0.8,31.5,0.1z M39.4,7.7V16h-7.3v1.2h-2.5V7.7H39.4z M32.1,13.6h4.8v-3.5h-4.8V13.6z"/>
	<path class="st0" d="M48.8,14.6h14.2v-0.7h2.6v0.7h3.3v2.2h-3.3V18c0,1.2-0.2,2-0.7,2.3c-0.5,0.4-1.4,0.7-2.7,0.7   c-0.7,0-1.4-0.1-2-0.3l-0.4-2.5c0.8,0.3,1.6,0.4,2.4,0.4c0.5,0,0.8-0.4,0.8-1.1v-0.8h-7.3c0.8,0.4,1.5,0.9,2.2,1.5L56,20.3   c-1-0.9-2.1-1.7-3.3-2.4l1.1-1.2h-5.1V14.6z M49.3,1h8.1V0.2h2.5V1h8.7v2.2h-8.7v0.6h7.2v7.1h-0.4c0.7,0.7,1.2,1.5,1.7,2.3l-2,1.2   c-0.2-0.3-0.4-0.7-0.7-1c-4.5,0.4-9.7,0.7-15.8,0.7l-0.4-2.2c2.8,0,5.5,0,7.9-0.1v-0.9h-7V3.8h7V3.2h-8.1V1z M52.9,6.4h4.5V5.8   h-4.5V6.4z M52.9,8.9h4.5V8.3h-4.5V8.9z M59.9,5.8v0.7h4.7V5.8H59.9z M59.9,8.3v0.6h4.7V8.3H59.9z M64.2,11.5   c-0.2-0.1-0.3-0.3-0.4-0.4l0.4-0.3h-4.3v0.8C61.4,11.7,62.8,11.6,64.2,11.5z"/>
	<path class="st0" d="M76.2,5.2h13.5v2.4h-6c-0.2,0.1-0.3,0.3-0.5,0.4c0.9,0.8,1.5,1.7,1.9,2.7c1.7-0.7,3.3-1.5,4.7-2.6l1.9,2.2   c-1.8,1.2-3.5,2.1-5.2,2.7c2,1.7,4.3,3.2,6.9,4.4l-1.5,2.3c-2.1-1.1-4.1-2.4-5.8-3.9c0,2-0.4,3.3-1.1,4.1c-0.7,0.7-1.6,1.1-2.7,1.1   c-0.7,0-1.7-0.2-3-0.5l-0.4-2.3c-1.5,0.7-3.1,1.2-4.8,1.7l-1.2-2.4c2.2-0.6,4.2-1.2,5.9-2c1.5-0.6,3-1.4,4.3-2.4   c-0.1-0.3-0.1-0.7-0.2-0.9c-1,0.7-2.2,1.3-3.4,1.8c-1.8,0.8-3.5,1.4-5.1,1.8l-1.2-2.3c1.9-0.5,3.6-1.1,5.2-1.8   c1.3-0.5,2.4-1.1,3.3-1.7c-0.2-0.2-0.4-0.4-0.5-0.5c-0.2,0.1-0.4,0.3-0.7,0.4c-2.2,1-4.2,1.7-5.8,2.1l-1.3-2.3   c1.6-0.3,3.2-0.8,4.9-1.4c0.5-0.2,0.9-0.4,1.3-0.5h-3.3V5.2z M81.3,0.1h3v1.5h8.5V6h-2.6V4H75.5v2.1h-2.6V1.6h8.4V0.1z M83.3,15.7   c-1.2,0.8-2.4,1.5-3.6,2.1c-0.1,0-0.1,0.1-0.2,0.1c1,0.3,1.9,0.4,2.7,0.4c0.3,0,0.6-0.2,0.8-0.5C83.2,17.4,83.3,16.7,83.3,15.7z"/>
	<path class="st0" d="M105.5,0.4h2.9v3h7.5v2.1c-3.4,4.2-7.2,7.7-11.3,10.6c0.7,0.4,1.4,0.7,2.1,0.9c1.4,0.4,3.6,0.6,6.5,0.6   c1.8,0,3.2-0.1,4.2-0.2l-0.7,3c-2.9,0-5.5-0.1-7.6-0.3c-1.3-0.1-2.6-0.4-3.7-0.8c-0.8-0.3-1.7-0.8-2.5-1.4c-0.6-0.5-1-0.7-1.4-0.7   c-0.3,0-0.6,0.3-1.1,0.8l-2.1,2.3l-2-2l2.4-2.6c1-0.9,1.8-1.4,2.5-1.4c0.3,0,0.7,0.1,1.1,0.3c3.6-2.6,6.7-5.4,9.4-8.5H97.9V3.4h7.6   V0.4z"/>
	<path class="st0" d="M121.6,0.7h8.1v4.8c0.8-0.8,1.4-1.6,1.8-2.5c0.6-1,1-2,1.4-3l2.7,0.7c-0.1,0.4-0.3,0.8-0.4,1.2h5.7v2.4   c-0.7,1.6-1.6,2.9-2.8,4c1.3,0.7,2.7,1.3,4.1,1.7l-1.2,2.5c-0.1,0-0.2-0.1-0.3-0.1v8.5H138v-0.8h-4.9v0.7h-2.5v-8.3   c-0.2,0.1-0.3,0.1-0.4,0.2l-0.7-1.6v2.2h-2v3.6c0.8-0.2,1.6-0.3,2.3-0.5l0.4,2.2c-2.6,0.7-5.4,1.3-8.5,1.9l-0.9-2.6   c0.3,0,0.7-0.1,1-0.1v-7.4h2.5v7c0.2,0,0.5-0.1,0.7-0.1V8.7h-3.2V0.7z M124.1,6.3h3.1V3.1h-3.1V6.3z M129.3,10.8l-0.2-0.3   c1.8-0.6,3.2-1.3,4.4-2.1c-0.5-0.6-1-1.2-1.5-1.8c-0.3,0.4-0.7,0.7-1,1L129.6,6v2.8h-2.3v2.1H129.3z M131.5,12.2h8.3   c-1.5-0.5-3-1.2-4.2-2.1C134.4,10.8,133,11.5,131.5,12.2z M133.1,17.6h4.9v-3.1h-4.9V17.6z M133.7,4.4c0.6,0.9,1.3,1.7,2.1,2.4   c0.9-0.8,1.5-1.7,2-2.6h-4C133.8,4.2,133.8,4.3,133.7,4.4z"/>
	<path class="st0" d="M148,18.2v2.1h-2.6V3.4h2.1c0.3-1.1,0.5-2.2,0.7-3.3l2.7,0.7c-0.2,1-0.4,1.9-0.6,2.7h3.4v4.1   c0.6-1,1.1-2,1.5-3.2c0.6-1.5,1.1-2.9,1.4-4.3l2.7,0.8c-0.2,0.8-0.4,1.7-0.7,2.5h6.5c0,8.8-0.3,13.9-0.9,15.3   c-0.4,1.5-1.5,2.3-3.2,2.3c-0.9,0-1.7-0.1-2.6-0.4l-0.5-2.8c1.3,0.3,2.4,0.4,3.1,0.4c0.5,0,0.8-0.4,0.9-1.1   c0.3-1.3,0.4-5.1,0.4-11.3h-4.7c-0.6,1.6-1.3,3.1-2.1,4.2l-1.9-1.4v10.6H151v-1.2H148z M148,9.8h3.1V5.9H148V9.8z M151,15.7v-3.5   H148v3.5H151z M158.8,9.2c0.8,1.5,1.4,3.2,1.8,5.1l-2.8,0.9c-0.3-1.9-0.8-3.7-1.5-5.2L158.8,9.2z"/>
	<path class="st0" d="M44.4,53.9H33.1v-2.5c5.4-4.8,8.1-8.1,8.1-9.8c0-1.5-0.8-2.2-2.5-2.2c-0.9,0-1.6,0.3-1.9,0.9   c-0.3,0.5-0.4,1.2-0.4,2.2h-3.1c0.1-3.8,1.9-5.7,5.4-5.7c1.5,0,2.8,0.4,3.8,1.2c1.1,0.9,1.6,2.1,1.6,3.6c0,2.2-2.3,5.5-6.8,9.7h7   V53.9z"/>
	<path class="st0" d="M60.9,45.5c0,2.4-0.4,4.4-1.3,5.9c-1.1,1.9-2.7,2.8-5,2.8c-2.3,0-3.9-0.9-5-2.8c-0.9-1.5-1.3-3.5-1.3-5.9   c0-2.5,0.4-4.4,1.3-6c1.1-1.9,2.7-2.9,5-2.9c2.2,0,3.9,1,5,2.9C60.4,41,60.9,43,60.9,45.5z M57.9,45.5c0-4.1-1.1-6.2-3.3-6.2   s-3.3,2.1-3.3,6.2c0,4,1.1,6,3.3,6S57.9,49.5,57.9,45.5z"/>
	<path class="st0" d="M68.2,35.1l2.7,0.8c-0.1,0.4-0.3,0.7-0.4,1.1H84v2.6h-6.8v2.7h6.1v2.6h-6.1v3.3h7.7v2.6h-7.7V56h-2.7v-5.1   h-9.9v-2.6H67v-5.6c-0.3,0.3-0.5,0.5-0.7,0.7l-2-2c0.9-1,1.7-2,2.3-2.9C67.3,37.4,67.8,36.3,68.2,35.1z M74.5,42.3v-2.7h-5.2   c-0.1,0.1-0.1,0.2-0.2,0.3c-0.5,0.9-1.1,1.7-1.7,2.4H74.5z M74.5,48.2v-3.3h-4.8v3.3H74.5z"/>
	<path class="st0" d="M88.5,38.5h9.8v2.6h-9.8V38.5z M97.5,48.1v7.7h-2.5V55h-3.3v0.8h-2.5v-7.7H97.5z M89.2,41.7h8.1v2.5h-8.1V41.7   z M89.3,44.9h7.9v2.5h-7.9V44.9z M89.5,35.4h7.6V38h-7.6V35.4z M91.6,52.7h3.3v-2.2h-3.3V52.7z M97.8,42.3h4.4v-7.1h2.7v7.1h4.2V45   h-4.2v10.9h-2.7V45h-4.4V42.3z"/>
	<path class="st0" d="M113.7,35.7h4.2V35h2.5v0.7h4.3v2.1h1.3v1.8h-1.3v2.1h-4.3v0.5h4.9V44h-4.9v0.5h5.7v1.8h-13.3v-1.8h5.1V44   h-4.4v-1.7h4.4v-0.5h-4.2v-1.7h4.2v-0.4h-5.1v-1.8h5.1v-0.4h-4.2V35.7z M125.6,53.2l0.2,2c-3.8,0.3-8.1,0.5-12.8,0.7l-0.4-2.2   C117.8,53.5,122.2,53.4,125.6,53.2z M113.4,46.7h11.5V53h-11.5V46.7z M115.7,49h2.4v-0.6h-2.4V49z M115.7,51.2h2.4v-0.6h-2.4V51.2z    M120.2,48.5V49h2.4v-0.6H120.2z M120.2,50.6v0.6h2.4v-0.6H120.2z M120.3,37.4v0.4h2v-0.4H120.3z M120.3,39.7v0.4h2v-0.4H120.3z    M126.5,36.9h2.5v14.2h-2.5V36.9z M130.3,35.3h2.5v17.2c0,1.3-0.2,2.1-0.5,2.6c-0.4,0.5-1.2,0.8-2.4,0.8c-0.7,0-1.4-0.1-2-0.3   l-0.4-2.6c0.7,0.2,1.4,0.3,2,0.3c0.3,0,0.5-0.1,0.6-0.3c0.1-0.3,0.2-0.6,0.2-1.1V35.3z"/>
</g>
</svg>