<?xml version="1.0" encoding="UTF-8"?>
<!-- Generator: Adobe Illustrator 21.0.2, SVG Export Plug-In . SVG Version: 6.00 Build 0)  -->
<svg version="1.1" id="圖層_1" xmlns="http://www.w3.org/2000/svg" xmlns:xlink="http://www.w3.org/1999/xlink" x="0px" y="0px" width="381.1px" height="29.8px" viewBox="0 0 381.1 29.8" style="enable-background:new 0 0 381.1 29.8;" xml:space="preserve">
<style type="text/css">
	.st0{fill:#222222;}
</style>
<g>
	<path class="st0" d="M0.3,14.3h6.5v9.7c1.4,0.8,3,1.3,4.8,1.5c1.3,0.2,4.6,0.3,9.9,0.3c3.2,0,6-0.2,8.3-0.7   c-0.6,1.2-1.1,2.5-1.5,3.9h-9.9c-3.5,0-6.3-0.2-8.4-0.6c-1.5-0.3-3-1-4.4-2c-1,1-2,2.1-3,3.1c-0.7-1.3-1.5-2.5-2.3-3.6   c1.1-0.4,2.2-0.8,3.2-1.3v-6.7H0.3V14.3z M2.7,6.5c1.5,0.9,2.8,1.9,4,3.1l-2.6,3.2c-1.2-1.4-2.6-2.6-3.9-3.7L2.7,6.5z M4.3,0.4   C5.7,1.2,6.9,2.3,8,3.5L5.5,6.6C4.3,5.3,3,4.1,1.7,3.2L4.3,0.4z M12.7,0.3h3.6v1h4.1v-1h3.6v1h4.9v3h-4.9v0.9h3.4V15H20v0.7h8.9   v6.1c0,2.3-1.4,3.5-4.2,3.5h-1.4l-0.5-2.5l-0.5,0.2c-0.1-0.2-0.2-0.5-0.3-0.7c-2.7,0.5-5.7,1-8.9,1.3l-0.5-3.1   c1.4-0.1,2.7-0.2,3.9-0.3v-1.5h-4.4v5.6H8.5v-8.6h8V15h-7V5.2h3.2V4.3H8.5v-3h4.2V0.3z M13.1,8.8h3.4V8h-3.4V8.8z M13.1,12.2h3.4   v-0.9h-3.4V12.2z M16.3,5.2h4.1V4.3h-4.1V5.2z M20,8v0.7h3.8V8H20z M20,11.3v0.9h3.8v-0.9H20z M21.1,19.7c-0.1-0.3-0.3-0.5-0.3-0.6   l0.7-0.3H20v1.1C20.3,19.8,20.7,19.7,21.1,19.7z M23.5,18.7c0.6,1,1,2,1.4,3l-1.3,0.6c0.4,0.1,0.7,0.1,1,0.1c0.4,0,0.7-0.5,0.7-1.4   v-2.3H23.5z"/>
	<path class="st0" d="M44.6,0.1l4.2,1.3c-0.3,0.8-0.7,1.6-1.1,2.5c-0.1,0.2-0.2,0.3-0.2,0.4h15.3v20.6c0,3.1-1.6,4.6-4.8,4.6   c-0.9,0-2-0.2-3.2-0.5L54,25c1.4,0.5,2.7,0.8,3.9,0.8c0.7,0,1-0.6,1-1.7V7.9H39v21.6h-3.8V4.3h7.9c0.2-0.4,0.4-0.7,0.5-1.1   C44,2.2,44.3,1.1,44.6,0.1z M55.7,10.8v11.8H45.4v1.7h-3.5V10.8H55.7z M45.4,19.2h6.7v-4.9h-6.7V19.2z"/>
	<path class="st0" d="M69,20.6H89v-1h3.7v1h4.7v3.1h-4.7v1.8c0,1.7-0.3,2.8-1,3.3c-0.7,0.6-2,0.9-3.8,0.9c-1,0-2-0.1-2.8-0.4   l-0.6-3.6c1.1,0.4,2.3,0.6,3.5,0.6c0.7,0,1.1-0.5,1.1-1.5v-1.1H78.7c1.1,0.6,2.1,1.3,3.1,2.1l-2.4,3c-1.5-1.3-3-2.5-4.7-3.4   l1.6-1.7H69V20.6z M69.7,1.4h11.5V0.3h3.5v1.1h12.3v3.2H84.7v0.8h10.2v10h-0.6c0.9,1.1,1.7,2.1,2.4,3.2l-2.9,1.7   c-0.3-0.5-0.6-1-0.9-1.4c-6.3,0.6-13.8,1-22.3,1L70,16.8c4,0,7.7,0,11.2-0.1v-1.3h-9.9v-10h9.9V4.6H69.7V1.4z M74.8,9.1h6.4V8.1   h-6.4V9.1z M74.8,12.6h6.4v-0.9h-6.4V12.6z M84.7,8.1v0.9h6.6V8.1H84.7z M84.7,11.7v0.9h6.6v-0.9H84.7z M90.8,16.3   c-0.2-0.2-0.4-0.4-0.6-0.5l0.6-0.4h-6.1v1.2C86.8,16.5,88.9,16.4,90.8,16.3z"/>
	<path class="st0" d="M107.7,7.4h19v3.5h-8.4c-0.2,0.2-0.5,0.4-0.7,0.5c1.2,1.2,2.1,2.4,2.7,3.8c2.4-1,4.7-2.2,6.7-3.7l2.7,3.1   c-2.5,1.6-4.9,2.9-7.4,3.9c2.9,2.4,6.1,4.5,9.7,6.3l-2.2,3.2c-3-1.6-5.8-3.5-8.3-5.6c-0.1,2.8-0.6,4.7-1.6,5.8   c-1,1-2.2,1.5-3.8,1.5c-1,0-2.4-0.2-4.2-0.7l-0.6-3.2c-2.2,0.9-4.4,1.7-6.8,2.4l-1.7-3.5c3.2-0.8,6-1.7,8.4-2.9   c2.2-0.9,4.2-2,6.1-3.4c-0.1-0.5-0.2-0.9-0.3-1.3c-1.5,1-3.1,1.8-4.8,2.6c-2.5,1.2-4.9,2-7.3,2.6l-1.7-3.3c2.7-0.7,5.1-1.6,7.4-2.6   c1.8-0.7,3.4-1.5,4.7-2.4c-0.3-0.3-0.5-0.6-0.8-0.8c-0.3,0.2-0.6,0.4-1,0.5c-3.2,1.4-5.9,2.4-8.2,3l-1.9-3.3c2.2-0.4,4.5-1.1,7-1.9   c0.7-0.3,1.3-0.5,1.8-0.7h-4.7V7.4z M115.1,0.1h4.2v2.2h12.1v6.2h-3.7V5.7h-20.9v2.9h-3.7V2.3h11.9V0.1z M117.9,22.3   c-1.6,1.1-3.3,2.1-5.1,2.9c-0.1,0-0.2,0.1-0.3,0.1c1.4,0.4,2.6,0.6,3.8,0.6c0.5,0,0.8-0.3,1.1-0.8   C117.7,24.6,117.9,23.6,117.9,22.3z"/>
	<path class="st0" d="M149.2,0.6h4.1v4.2H164v2.9c-4.8,6-10.1,11-16,15c1,0.6,2,1,3,1.3c2,0.6,5.1,0.9,9.2,0.9c2.5,0,4.5-0.1,6-0.3   l-0.9,4.2c-4.2,0-7.8-0.2-10.8-0.5c-1.9-0.2-3.6-0.6-5.2-1.1c-1.2-0.4-2.3-1.1-3.5-2c-0.8-0.7-1.5-1-2-1c-0.4,0-0.9,0.4-1.6,1.1   l-2.9,3.2l-2.8-2.9l3.3-3.6c1.4-1.3,2.6-2,3.5-2c0.5,0,1,0.1,1.6,0.4c5.1-3.6,9.5-7.7,13.3-12h-19.6V4.9h10.8V0.6z"/>
	<path class="st0" d="M172,1h11.4v6.8c1.1-1.1,1.9-2.3,2.5-3.6c0.8-1.4,1.5-2.8,1.9-4.3l3.8,0.9c-0.2,0.6-0.4,1.1-0.6,1.7h8V6   c-1,2.2-2.3,4.1-4,5.7c1.8,1,3.8,1.8,5.8,2.4l-1.7,3.6c-0.2-0.1-0.3-0.1-0.5-0.2v12h-3.6v-1.1h-7v1h-3.6V17.7   c-0.2,0.1-0.4,0.2-0.6,0.2l-1-2.3v3.1h-2.9v5.1c1.1-0.2,2.2-0.5,3.3-0.7l0.5,3.2c-3.6,1-7.6,1.9-12.1,2.7l-1.3-3.7   c0.5-0.1,1-0.1,1.4-0.2V14.6h3.6v9.9c0.3-0.1,0.7-0.1,1-0.2V12.3H172V1z M175.6,8.9h4.3V4.4h-4.3V8.9z M182.9,15.3l-0.2-0.5   c2.5-0.9,4.6-1.8,6.3-2.9c-0.7-0.8-1.4-1.7-2.1-2.6c-0.5,0.5-0.9,1-1.4,1.5l-2.1-2.3v3.9h-3.3v2.9H182.9z M186,17.2h11.8   c-2.2-0.8-4.2-1.8-6-3C190.1,15.3,188.2,16.3,186,17.2z M188.3,24.9h7v-4.3h-7V24.9z M189.2,6.2c0.9,1.3,1.8,2.4,2.9,3.3   c1.2-1.1,2.2-2.4,2.9-3.7h-5.7C189.3,6,189.2,6.1,189.2,6.2z"/>
	<path class="st0" d="M209.3,25.7v3h-3.7V4.9h2.9c0.4-1.6,0.8-3.1,1-4.7l3.8,0.9c-0.2,1.4-0.5,2.6-0.9,3.8h4.8v5.8   c0.8-1.4,1.5-2.9,2.2-4.5c0.9-2.1,1.6-4.2,2-6l3.8,1.2c-0.3,1.2-0.6,2.4-1,3.6h9.2c0,12.4-0.4,19.7-1.2,21.7   c-0.6,2.2-2.1,3.2-4.5,3.2c-1.2,0-2.5-0.2-3.7-0.5l-0.7-3.9c1.8,0.4,3.3,0.6,4.4,0.6c0.7,0,1.1-0.5,1.3-1.6c0.4-1.8,0.5-7.1,0.5-16   H223c-0.9,2.3-1.9,4.3-3,6l-2.7-2v15.1h-3.7v-1.7H209.3z M209.3,13.9h4.3V8.4h-4.3V13.9z M213.6,22.2v-4.9h-4.3v4.9H213.6z    M224.7,13c1.1,2.2,1.9,4.6,2.5,7.2l-3.9,1.3c-0.5-2.7-1.2-5.2-2.2-7.4L224.7,13z"/>
	<path class="st0" d="M256,26.7h-16v-3.6c7.6-6.8,11.4-11.4,11.4-13.9c0-2.1-1.2-3.1-3.6-3.1c-1.3,0-2.2,0.4-2.7,1.2   c-0.4,0.7-0.6,1.7-0.5,3.1h-4.3c0.1-5.4,2.7-8.1,7.7-8.1c2.2,0,4,0.6,5.4,1.7c1.5,1.2,2.3,2.9,2.3,5.1c0,3.2-3.2,7.7-9.6,13.7h9.9   V26.7z"/>
	<path class="st0" d="M279.3,14.8c0,3.5-0.6,6.2-1.8,8.4c-1.5,2.7-3.9,4-7.1,4c-3.2,0-5.6-1.3-7.1-4c-1.2-2.1-1.8-4.9-1.8-8.4   c0-3.5,0.6-6.3,1.8-8.4c1.5-2.7,3.9-4.1,7.1-4.1c3.2,0,5.5,1.4,7.1,4.1C278.7,8.6,279.3,11.4,279.3,14.8z M275.1,14.8   c0-5.8-1.5-8.8-4.6-8.8s-4.6,2.9-4.6,8.8c0,5.7,1.5,8.5,4.6,8.5S275.1,20.5,275.1,14.8z"/>
	<path class="st0" d="M289.8,0.1l3.8,1.2c-0.2,0.5-0.4,1-0.6,1.5h19v3.7h-9.7v3.8h8.6V14h-8.6v4.7h10.9v3.7h-10.9v7.2h-3.8v-7.2h-14   v-3.7h3.4v-7.9c-0.4,0.4-0.7,0.7-1,1l-2.8-2.8c1.3-1.4,2.4-2.8,3.2-4.2C288.4,3.4,289.2,1.8,289.8,0.1z M298.6,10.3V6.5h-7.4   c-0.1,0.2-0.2,0.3-0.3,0.5c-0.7,1.2-1.5,2.3-2.4,3.3H298.6z M298.6,18.7V14h-6.7v4.7H298.6z"/>
	<path class="st0" d="M318.5,5h13.9v3.7h-13.9V5z M331.1,18.6v10.9h-3.6v-1.2h-4.7v1.2h-3.6V18.6H331.1z M319.3,9.5h11.4v3.6h-11.4   V9.5z M319.5,14h11.2v3.6h-11.2V14z M319.9,0.6h10.8v3.6h-10.8V0.6z M322.8,25h4.7V22h-4.7V25z M331.6,10.3h6.3V0.3h3.8v10.1h6v3.8   h-6v15.4h-3.8V14.1h-6.3V10.3z"/>
	<path class="st0" d="M354,1h5.9V0h3.5v1h6.1v3h1.9v2.6h-1.9v3h-6.1v0.7h6.9v2.4h-6.9v0.7h8v2.5h-18.8v-2.5h7.3v-0.7h-6.3v-2.4h6.3   V9.7H354V7.2h5.9V6.6h-7.3V4.1h7.3V3.5H354V1z M371,25.7l0.3,2.8c-5.4,0.4-11.5,0.8-18.1,1l-0.5-3.1C359.9,26.2,366,26,371,25.7z    M353.6,16.5h16.3v8.9h-16.3V16.5z M356.8,19.9h3.3v-0.8h-3.3V19.9z M356.8,22.9h3.3v-0.8h-3.3V22.9z M363.3,19.1v0.8h3.5v-0.8   H363.3z M363.3,22.1v0.8h3.5v-0.8H363.3z M363.4,3.5v0.6h2.8V3.5H363.4z M363.4,6.6v0.6h2.8V6.6H363.4z M372.2,2.7h3.5v20.1h-3.5   V2.7z M377.6,0.4h3.5v24.4c0,1.8-0.2,3-0.7,3.6c-0.6,0.7-1.7,1.1-3.3,1.1c-1,0-1.9-0.1-2.8-0.4l-0.6-3.7c1,0.3,1.9,0.5,2.9,0.5   c0.4,0,0.7-0.1,0.8-0.4c0.1-0.4,0.2-0.9,0.2-1.6V0.4z"/>
</g>
</svg>