<?xml version="1.0" encoding="UTF-8"?>
<!-- Generator: Adobe Illustrator 23.0.6, SVG Export Plug-In . SVG Version: 6.00 Build 0)  -->
<svg version="1.1" id="圖層_1" xmlns="http://www.w3.org/2000/svg" xmlns:xlink="http://www.w3.org/1999/xlink" x="0px" y="0px" width="1141.1px" height="247.8px" viewBox="0 0 1141.1 247.8" style="enable-background:new 0 0 1141.1 247.8;" xml:space="preserve">
<style type="text/css">
	.st0{fill:none;}
	.st1{fill:none;stroke:#FFFFFF;stroke-width:0.3;}
	.st2{fill:#009EA2;stroke:#009EA2;stroke-width:2.9416;stroke-miterlimit:10;}
	.st3{fill:#FFFFFF;stroke:#009EA2;stroke-width:1.8987;stroke-miterlimit:10;}
	.st4{fill:#009EA2;}
	.st5{fill:#FFFFFF;stroke:#009EA2;stroke-width:0.9533;stroke-miterlimit:10;}
	.st6{fill:#009EA2;stroke:#009EA2;stroke-width:0.9533;stroke-miterlimit:10;}
	.st7{fill:#FFFFFF;}
	.st8{fill:#009EA2;stroke:#009EA2;stroke-width:0.1188;stroke-miterlimit:10;}
	.st9{fill:#009EA2;stroke:#009EA2;stroke-width:1.2157;stroke-linecap:round;stroke-linejoin:round;stroke-miterlimit:10;}
	.st10{fill:none;stroke:#009EA2;stroke-width:6.757444e-02;stroke-miterlimit:10;}
	.st11{fill:#009EA2;stroke:#009EA2;stroke-width:0.1175;stroke-miterlimit:10;}
	.st12{fill:#FFFFFF;stroke:#009EA2;stroke-width:0.6381;stroke-miterlimit:10;}
	.st13{fill:#FFFFFF;stroke:#009EA2;stroke-width:0.8737;stroke-miterlimit:10;}
	.st14{fill:#FFFFFF;stroke:#009EA2;stroke-width:0.6517;stroke-miterlimit:10;}
	.st15{fill:#009EA2;stroke:#009EA2;stroke-width:0.6517;stroke-miterlimit:10;}
	.st16{fill:#009EA2;stroke:#009EA2;stroke-width:0.4369;stroke-miterlimit:10;}
	.st17{fill:#FFFFFF;stroke:#009EA2;stroke-width:0.4369;stroke-linecap:round;stroke-linejoin:round;stroke-miterlimit:10;}
	.st18{fill:#FFFFFF;stroke:#009EA2;stroke-width:0.4369;stroke-miterlimit:10;}
	.st19{fill:none;stroke:#009EA2;stroke-width:0.4369;stroke-miterlimit:10;}
	.st20{fill:none;stroke:#FFFFFF;stroke-width:0.4369;stroke-miterlimit:10;}
	.st21{opacity:0.7;fill:url(#SVGID_1_);}
	.st22{fill:#009EA2;stroke:#009EA2;stroke-width:0.6381;stroke-miterlimit:10;}
	.st23{fill:#009EA2;stroke:#009EA2;stroke-width:0.6577;stroke-miterlimit:10;}
	.st24{fill:#009EA2;stroke:#009EA2;stroke-width:0.1808;stroke-miterlimit:10;}
	.st25{fill:none;stroke:#009EA2;stroke-width:0.8737;stroke-miterlimit:10;}
	.st26{fill:#009EA2;stroke:#009EA2;stroke-width:0.8737;stroke-miterlimit:10;}
	.st27{opacity:0.7;fill:url(#SVGID_2_);}
</style>
<pattern x="379.8" y="13.5" width="72" height="72" patternUnits="userSpaceOnUse" id="_x35__英吋方格線" viewBox="72.2 -144.2 72 72" style="overflow:visible;">
	<g>
		<rect x="72.2" y="-144.2" class="st0" width="72" height="72"/>
		<g>
			<line class="st1" x1="126.2" y1="-72.5" x2="126.2" y2="0"/>
			<line class="st1" x1="90.2" y1="-72.5" x2="90.2" y2="0"/>
		</g>
		<g>
			<line class="st1" x1="144" y1="-126.2" x2="216.5" y2="-126.2"/>
			<line class="st1" x1="144" y1="-90.2" x2="216.5" y2="-90.2"/>
		</g>
		<g>
			<line class="st1" x1="72" y1="-126.2" x2="144.5" y2="-126.2"/>
			<line class="st1" x1="126.2" y1="-144.5" x2="126.2" y2="-72"/>
			<line class="st1" x1="72" y1="-90.2" x2="144.5" y2="-90.2"/>
			<line class="st1" x1="90.2" y1="-144.5" x2="90.2" y2="-72"/>
		</g>
		<g>
			<line class="st1" x1="0" y1="-126.2" x2="72.5" y2="-126.2"/>
			<line class="st1" x1="0" y1="-90.2" x2="72.5" y2="-90.2"/>
		</g>
		<g>
			<line class="st1" x1="126.2" y1="-216.5" x2="126.2" y2="-144"/>
			<line class="st1" x1="90.2" y1="-216.5" x2="90.2" y2="-144"/>
		</g>
	</g>
</pattern>
<g>
	<line class="st2" x1="170.8" y1="105.2" x2="971.4" y2="105.2"/>
	<g>
		<circle class="st3" cx="1043.8" cy="97.3" r="96.4"/>
		<g>
			<g>
				<path class="st4" d="M1022.2,153.2h-17.7v-1.7h2.5v-10.3h1.8v10.3h3.9v-13.2h-7.8v-1.8h16.8v1.8h-7.2v5.2h6.5v1.8h-6.5v6.2h7.6      V153.2z"/>
				<path class="st4" d="M1042.6,149.4c-0.2,3-1.1,4.4-2.5,4.4c-1.2,0-2.3-1.2-3.2-3.5s-1.4-5.4-1.5-9.3h-10.4v-1.7h10.4      c-0.1-1.4-0.1-2.5-0.1-3.3h1.8c0,0.8,0,1.9,0.1,3.3h5.5v1.7h-5.4c0.1,3.8,0.5,6.6,1.2,8.3c0.7,1.7,1.3,2.6,1.6,2.6      c0.4,0,0.7-1.2,0.8-3.5L1042.6,149.4z M1035.1,150.6c-3.8,0.9-6.9,1.6-9.5,1.9l-0.4-1.7c1.2-0.1,2.5-0.4,4-0.6v-5.4h-3.3v-1.7      h8.6v1.7h-3.5v5c1.7-0.4,3-0.7,4-1L1035.1,150.6z M1042,137.9l-1.3,1.1c-0.9-0.8-1.7-1.4-2.5-1.8l1.4-1.2      C1040.6,136.7,1041.4,137.3,1042,137.9z"/>
				<path class="st4" d="M1063,152.5l-1.4,1.3c-3.9-3.4-6.3-7.1-7.4-11.1c-1.3,4.6-4,8.3-7.9,10.9l-1.3-1.4c1.8-1.2,3.3-2.6,4.5-4.2      c1.3-1.7,2.2-3.5,2.9-5.5s1-3.3,1-3.9l-0.1-0.4h-2.5v-1.8h4.2c0.2,3.9,0.9,7.1,2.3,9.5S1060.7,150.6,1063,152.5z"/>
				<path class="st4" d="M1073.2,147.1l-1.3,1.3c-0.5-0.9-1.1-1.6-1.8-2.2v7.6h-1.9V147c-0.4,0.4-1,0.9-1.7,1.6l-1.1-1.4      c2.4-2,3.9-3.9,4.7-5.9h-4.4v-1.7h6.3v1.7c-0.5,1.2-1,2.1-1.5,2.9C1071.7,145.2,1072.6,146.1,1073.2,147.1z M1070.6,138.3      l-1.6,0.9c-0.5-0.8-1.1-1.6-1.8-2.4l1.5-0.9C1069.5,136.6,1070.1,137.4,1070.6,138.3z M1083.2,153.3h-10.6v-1.8h4.4v-9h-4v-1.8      h4V136h1.9v4.6h3.9v1.8h-3.9v9h4.4V153.3z"/>
			</g>
			<g>
				<rect x="977.6" y="56.6" class="st5" width="132.4" height="62.9"/>
				<rect x="977.6" y="36.6" class="st6" width="47.7" height="19.9"/>
				<g>
					<path class="st7" d="M988.3,50l-2.3-4.2c0,0,0.1,0.8,0.1,1.4V50h-2.4v-7.5h2.7l2.2,4.2c0,0-0.1-0.8-0.1-1.4v-2.8h2.4V50H988.3z       "/>
					<path class="st7" d="M991.9,50v-7.5h2.5V50H991.9z"/>
					<path class="st7" d="M999.1,44.4V50h-2.5v-5.6h-1.8v-1.9h6v1.9H999.1z"/>
					<path class="st7" d="M1004.8,50.1c-2.3,0-4.1-1.4-4.1-3.9s1.7-3.9,4.1-3.9s4.1,1.4,4.1,3.9S1007.2,50.1,1004.8,50.1z        M1004.8,44.5c-1,0-1.6,0.7-1.6,1.7s0.6,1.7,1.6,1.7c1,0,1.6-0.7,1.6-1.7S1005.8,44.5,1004.8,44.5z"/>
					<path class="st7" d="M1013.6,50l-1.2-2.5h-0.3V50h-2.5v-7.5h3.3c0.9,0,1.6,0.2,2.2,0.5c0.5,0.4,0.9,1,0.9,1.8       c0,1.5-0.9,2.1-1.2,2.3l1.7,2.8H1013.6z M1013.3,44.5c-0.1-0.1-0.3-0.1-0.5-0.1h-0.6v1.3h0.6c0.4,0,0.8-0.2,0.8-0.7       C1013.5,44.7,1013.4,44.6,1013.3,44.5z"/>
					<path class="st7" d="M1016.8,50v-7.5h2.5V50H1016.8z"/>
				</g>
				<g>
					<rect x="986.9" y="65.2" class="st4" width="6.6" height="7.3"/>
					<rect x="998.8" y="65.2" class="st4" width="6.6" height="7.3"/>
					<rect x="1010.7" y="65.2" class="st4" width="6.6" height="7.3"/>
					<rect x="1022.6" y="65.2" class="st4" width="6.6" height="7.3"/>
					<rect x="1034.6" y="65.2" class="st4" width="6.6" height="7.3"/>
					<rect x="1046.5" y="65.2" class="st4" width="6.6" height="7.3"/>
					<rect x="1058.4" y="65.2" class="st4" width="6.6" height="7.3"/>
					<rect x="1070.3" y="65.2" class="st4" width="6.6" height="7.3"/>
					<rect x="1082.2" y="65.2" class="st4" width="6.6" height="7.3"/>
					<rect x="1094.2" y="65.2" class="st4" width="6.6" height="7.3"/>
				</g>
				<g>
					<rect x="986.9" y="75.8" class="st4" width="6.6" height="7.3"/>
					<rect x="998.8" y="75.8" class="st4" width="6.6" height="7.3"/>
					<rect x="1010.7" y="75.8" class="st4" width="6.6" height="7.3"/>
					<rect x="1022.6" y="75.8" class="st4" width="6.6" height="7.3"/>
					<rect x="1034.6" y="75.8" class="st4" width="6.6" height="7.3"/>
					<rect x="1046.5" y="75.8" class="st4" width="6.6" height="7.3"/>
					<rect x="1058.4" y="75.8" class="st4" width="6.6" height="7.3"/>
					<rect x="1070.3" y="75.8" class="st4" width="6.6" height="7.3"/>
					<rect x="1082.2" y="75.8" class="st4" width="6.6" height="7.3"/>
					<rect x="1094.2" y="75.8" class="st4" width="6.6" height="7.3"/>
				</g>
				<g>
					<rect x="986.9" y="86.4" class="st4" width="6.6" height="7.3"/>
					<rect x="998.8" y="86.4" class="st4" width="6.6" height="7.3"/>
					<rect x="1010.7" y="86.4" class="st4" width="6.6" height="7.3"/>
					<rect x="1022.6" y="86.4" class="st4" width="6.6" height="7.3"/>
					<rect x="1034.6" y="86.4" class="st4" width="6.6" height="7.3"/>
					<rect x="1046.5" y="86.4" class="st4" width="6.6" height="7.3"/>
					<rect x="1058.4" y="86.4" class="st4" width="6.6" height="7.3"/>
					<rect x="1070.3" y="86.4" class="st4" width="6.6" height="7.3"/>
					<rect x="1082.2" y="86.4" class="st4" width="6.6" height="7.3"/>
					<rect x="1094.2" y="86.4" class="st4" width="6.6" height="7.3"/>
				</g>
				<g>
					<rect x="986.9" y="96.9" class="st4" width="6.6" height="7.3"/>
					<rect x="998.8" y="96.9" class="st4" width="6.6" height="7.3"/>
					<rect x="1010.7" y="96.9" class="st4" width="6.6" height="7.3"/>
					<rect x="1022.6" y="96.9" class="st4" width="6.6" height="7.3"/>
					<rect x="1034.6" y="96.9" class="st4" width="6.6" height="7.3"/>
					<rect x="1046.5" y="96.9" class="st4" width="6.6" height="7.3"/>
					<rect x="1058.4" y="96.9" class="st4" width="6.6" height="7.3"/>
					<rect x="1070.3" y="96.9" class="st4" width="6.6" height="7.3"/>
					<rect x="1082.2" y="96.9" class="st4" width="6.6" height="7.3"/>
					<rect x="1094.2" y="96.9" class="st4" width="6.6" height="7.3"/>
				</g>
			</g>
			<g>
				<ellipse class="st8" cx="1019.4" cy="84.3" rx="20.2" ry="23.2"/>
				<path class="st9" d="M1036.3,113.3l-11-6.4c0.6,0-2.3-0.5-4.4-0.8v-0.3c0,0-0.4,0.1-1,0.2c-0.6-0.1-1-0.2-1-0.2v0.3      c-2.1,0.3-5,0.8-4.4,0.8l-11,6.4l-1.2,13.3h16.6h2h16.6L1036.3,113.3z"/>
				<g>
					<g>
						<path class="st7" d="M1034.5,81.6"/>
						<g>
							<path class="st4" d="M1034.5,82.3c1,0,1-1.5,0-1.5C1033.5,80.8,1033.5,82.3,1034.5,82.3L1034.5,82.3z"/>
						</g>
					</g>
					<g>
						<path class="st7" d="M1034.5,77.5c0.1,3.2,0.1,6.4-0.3,9.6l0.1,0.5c1.3-1.2,3.1-2.3,4.6-1.5c1.5,0.8,1.4,2.9,1.2,4.6        c-0.1,0.5-0.1,1-0.4,1.4c-0.8,1.5-2.9,1.4-4.5,1.1l-0.4-0.1c-1.6,3.7-4.3,6.8-7.7,9c-1,0.6-1.6,1.1-2.6,1.6l0,0.4        c0,1.2,0,2.3,0,3.5l0.1,0.8c-2.4,1.9-6.2,1.8-8.5-0.2l0.3,0c0-1.2,0-2.3,0-3.5l-0.2-0.5c-1.2-0.4-2.3-0.9-3.4-1.5        c-3.8-2.2-6.9-5.6-8.7-9.6l-0.6,0.1c-1.6,0.3-3.7,0.3-4.5-1.1c-0.2-0.4-0.3-0.9-0.4-1.4c-0.2-1.7-0.3-3.8,1.2-4.6        c1.5-0.9,3.3,0.3,4.6,1.5l0.2-0.5c-0.3-3.2-0.4-6.4-0.3-9.6l0,4"/>
						<g>
							<path class="st4" d="M1033.7,77.5c0.1,3.2-0.8,7.2-0.1,10.3c0.1,0.6,0.9,0.7,1.3,0.3c4.8-3.8,6.4,5.8,0.2,4.3         c-0.3-0.1-0.7,0-0.9,0.4c-2.2,4.6-5.6,7.9-10.1,10.3c-0.2,0.1-0.4,0.4-0.4,0.7c0.1,1,0.4,3.3,0,4c-1,1.9-5.5,1-7.3-0.2         c-0.1,0.5-0.3,1-0.4,1.4c0.1,0,0.2,0,0.3,0c0.4,0,0.8-0.4,0.8-0.8c0-1.8,0.3-3.3-0.6-4.6c-0.6-0.8-3-1.3-3.9-1.9         c-1.2-0.7-2.3-1.6-3.3-2.6c-1.9-1.8-3.3-4-4.5-6.4c-0.2-0.3-0.5-0.4-0.9-0.4c-6.4,1.2-4.5-8,0.1-4.3c0.3,0.3,1,0.3,1.2-0.2         c1.2-2.7,0-7.5,0.1-10.5c-0.5,0-1,0-1.5,0c0,1.3,0,2.7,0,4c0,1,1.5,1,1.5,0c0-1.3,0-2.7,0-4c0-1-1.5-1-1.5,0         c-0.1,2.2-0.1,4.5,0,6.7c0,0.9,0.1,1.8,0.2,2.7c0.2-0.4,0.2-0.6,0-0.8c-1.6,0.1-2.3-1.7-4.2-0.8c-2.3,1.1-2.5,5.3-1.2,7.2         c1,1.5,2.2,1.3,3.8,1.6c0.3,0.1,1.5-0.4,1.8-0.2c0.3,0.2,1.2,2.8,1.6,3.4c1.2,1.7,2.7,3.2,4.4,4.4c1.2,0.9,3,1.5,4.1,2.5         c0.5,0.2,1,0.4,1.5,0.5c-0.2,1,0,1.9,0.6,2.7c-0.8-0.1-0.9,1-0.4,1.4c3,2.1,6.2,2.2,9.3,0.2c0.3-0.2,0.4-0.5,0.4-0.9         c-0.2-0.8-0.4-3.4-0.1-4c0.1-0.3,2-1.2,2.2-1.3c2-1.2,3.7-2.8,5.2-4.6c0.7-0.9,2-3.9,2.4-4.2c1-0.6,3,0.5,4.3-0.4         c1.9-1.3,2.3-5.2,1.1-7.1c-1.8-2.7-4.7-1.1-6.6,0.5c0.4,0.1,0.9,0.2,1.3,0.3c-0.6-2.9,0.3-6.9,0.2-9.9         C1035.2,76.5,1033.7,76.5,1033.7,77.5L1033.7,77.5z"/>
						</g>
					</g>
					<g>
						<g>
							<g>
								<g>
									<path class="st4" d="M1011.1,89.2c1-0.9,2.4-1.2,3.8-1c1,0.2,1.4-1.3,0.4-1.5c-1.9-0.3-3.7,0.1-5.2,1.4           C1009.3,88.7,1010.4,89.8,1011.1,89.2L1011.1,89.2z"/>
								</g>
							</g>
							<g>
								<g>
									<path class="st4" d="M1028.9,88.1c-1.5-1.3-3.3-1.7-5.2-1.4c-1,0.2-0.6,1.7,0.4,1.5c1.3-0.2,2.7,0.1,3.8,1           C1028.6,89.8,1029.7,88.7,1028.9,88.1L1028.9,88.1z"/>
								</g>
							</g>
						</g>
						<g>
							<path class="st4" d="M1018.3,95c0.7,0.9,1.7,0.9,2.4,0l0.8-1.2c0.7-0.9,0.2-1.7-0.9-1.7h-2.2c-1.2,0-1.6,0.8-0.9,1.7         L1018.3,95z"/>
							<path class="st10" d="M1018.3,95c0.7,0.9,1.7,0.9,2.4,0l0.8-1.2c0.7-0.9,0.2-1.7-0.9-1.7h-2.2c-1.2,0-1.6,0.8-0.9,1.7         L1018.3,95z"/>
						</g>
					</g>
				</g>
				<g>
					<g>
						<path class="st7" d="M1016.1,104.1c1.3,1.9,2.5,3.9,3.6,6c0.2,0.4,0.4,0.7,0.3,1.1c-0.1,0.3-0.3,0.6-0.5,0.8        c-1,1.1-2.1,2.2-3.1,3.4c-0.1,0.1-0.2,0.2-0.3,0.2c-0.3,0.1-0.5-0.2-0.6-0.4c-1.7-2.7-1.7-5.9-1.7-9c0-0.7,0-1.4,0.5-1.9        C1014.5,103.7,1015.5,103.5,1016.1,104.1"/>
						<g>
							<path class="st4" d="M1015.7,104.3c1,1.4,1.9,2.9,2.8,4.4c0.6,1,1.2,1.8,0.6,3c-0.2,0.5-1.5,1.7-1.9,2         c-1.2,1-1.9,1.1-2.6-0.7c-0.3-0.9-0.5-1.9-0.6-2.9c-0.1-0.7-0.5-7,1.7-5.7c0.4,0.3,0.8-0.4,0.4-0.7c-1.9-1.2-2.9,0.8-3,2.5         c-0.1,2.4-0.2,7.7,2,9.4c0.5,0.4,0.7,0.4,1.3,0.1c0.7-0.4,1.4-1.5,1.9-2.1c0.5-0.5,1.3-1.1,1.6-1.8c0.4-0.8,0.3-1.2,0-2         c-0.8-2.1-2.4-4.1-3.6-6C1016.1,103.5,1015.4,103.8,1015.7,104.3L1015.7,104.3z"/>
						</g>
					</g>
					<g>
						<path class="st7" d="M1023.9,104.1c-1.3,1.9-2.5,3.9-3.6,6c-0.2,0.4-0.4,0.7-0.3,1.1c0.1,0.3,0.3,0.6,0.5,0.8        c1,1.1,2.1,2.2,3.1,3.4c0.1,0.1,0.2,0.2,0.3,0.2c0.3,0.1,0.5-0.2,0.6-0.4c1.7-2.7,1.7-5.9,1.7-9c0-0.7,0-1.4-0.5-1.9        C1025.4,103.7,1024.4,103.5,1023.9,104.1"/>
						<g>
							<path class="st4" d="M1023.6,103.9c-1.3,1.8-2.8,3.9-3.6,6c-0.3,0.8-0.4,1.2-0.1,1.9c0.3,0.7,1.2,1.3,1.6,1.8         c0.5,0.6,1.3,1.7,1.9,2.1c0.6,0.3,0.8,0.4,1.3-0.1c2.1-1.7,2-6.6,2-9c0-1.7-0.8-4.2-3-2.9c-0.4,0.3,0,0.9,0.4,0.7         c2.2-1.3,1.8,5.1,1.7,5.7c-0.1,1-0.3,2-0.6,2.9c0,1.1-0.4,1.5-1.2,1.4c-0.6,0.2-1,0-1.3-0.6c-0.6-0.4-1.6-1.4-1.9-2         c-0.5-1.1,0.1-2.1,0.6-3c0.9-1.5,1.8-3,2.8-4.4C1024.5,103.8,1023.8,103.5,1023.6,103.9L1023.6,103.9z"/>
						</g>
					</g>
				</g>
				<g>
					<g>
						<path class="st7" d="M1010.8,81c0-1.5,0-3.1,0-4.6c0-0.4-0.7-0.4-0.7,0c0,1.5,0,3.1,0,4.6C1010.1,81.4,1010.8,81.4,1010.8,81        L1010.8,81z"/>
					</g>
				</g>
				<g>
					<g>
						<path class="st7" d="M1017.2,81c0-1.5,0-3.1,0-4.6c0-0.4-0.7-0.4-0.7,0c0,1.5,0,3.1,0,4.6C1016.5,81.4,1017.2,81.4,1017.2,81        L1017.2,81z"/>
					</g>
				</g>
				<g>
					<g>
						<path class="st7" d="M1023.6,81c0-1.5,0-3.1,0-4.6c0-0.4-0.7-0.4-0.7,0c0,1.5,0,3.1,0,4.6C1022.9,81.4,1023.6,81.4,1023.6,81        L1023.6,81z"/>
					</g>
				</g>
				<g>
					<g>
						<path class="st7" d="M1030,81c0-1.5,0-3.1,0-4.6c0-0.4-0.7-0.4-0.7,0c0,1.5,0,3.1,0,4.6C1029.3,81.4,1030,81.4,1030,81        L1030,81z"/>
					</g>
				</g>
			</g>
			<g>
				<ellipse class="st11" cx="1065.6" cy="80.5" rx="20.2" ry="21.8"/>
				<path class="st9" d="M1082.2,113.3l-11-6.4c0.6,0-2.3-0.5-4.4-0.8v-0.3c0,0-0.4,0.1-1,0.2c-0.6-0.1-1-0.2-1-0.2v0.3      c-2.1,0.3-5,0.8-4.4,0.8l-11,6.4l-1.2,13.3h16.6h2h16.6L1082.2,113.3z"/>
				<g>
					<polyline class="st12" points="1064.4,126.4 1064.4,109 1067.3,109 1067.3,126.4      "/>
				</g>
				<g>
					<g>
						<path class="st7" d="M1050.4,81.6"/>
						<g>
							<path class="st4" d="M1050.4,82c0.6,0,0.6-0.9,0-0.9C1049.8,81.1,1049.8,82,1050.4,82L1050.4,82z"/>
						</g>
					</g>
					<g>
						<path class="st7" d="M1050.4,77.5c-0.1,3.2-0.1,6.4,0.3,9.6l-0.1,0.5c-1.3-1.2-3.1-2.3-4.6-1.5c-1.5,0.8-1.4,2.9-1.2,4.6        c0.1,0.5,0.1,1,0.4,1.4c0.8,1.5,2.9,1.4,4.5,1.1l0.4-0.1c1.6,3.7,4.3,6.8,7.7,9c1,0.6,2.9,1.1,3.9,1.6l0,0.4        c0,1.2,0,2.3,0,3.5l-0.1,0.8c2.4,1.9,6.2,1.8,8.5-0.2l-0.3,0c0-1.2,0-2.3,0-3.5l0.2-0.5c1.2-0.4,1-0.9,2.1-1.5        c3.8-2.2,6.9-5.6,8.7-9.6l0.6,0.1c1.6,0.3,3.7,0.3,4.5-1.1c0.2-0.4,0.3-0.9,0.4-1.4c0.2-1.7,0.3-3.8-1.2-4.6        c-1.5-0.9-3.3,0.3-4.6,1.5l-0.2-0.5c0.3-3.2,0.4-6.4,0.3-9.6l0,4"/>
						<g>
							<path class="st4" d="M1049.9,77.5c-0.1,2.6,0,5.1,0.1,7.7c0,0.7,0.1,1.4,0.1,2.1c0-0.4-0.2-0.7-0.4-0.8         c-1.6-0.3-2.3-1.6-4-0.6c-2.4,1.3-2.1,6.1-0.1,7.6c1.3,1,2.9-0.1,4.1,0.4c0.9,0.4,2.2,3.6,3.2,4.8c1.5,1.8,3.4,3.5,5.6,4.5         c0.3,0.2,2.5,0.6,2.7,0.9c0.4,0.5,0,3.8-0.1,4.3c0,0.2,0,0.4,0.2,0.5c3,1.9,6.1,1.8,9-0.2c0.3-0.2,0.3-0.9-0.2-0.8         c0.2-1,0.3-2.1,0.3-3.1c0.3-0.1,0.5-0.3,0.7-0.4c0.7-1,2.1-1.5,3.1-2.2c1.9-1.3,3.5-2.9,4.8-4.8c0.3-0.4,1.6-3.3,1.9-3.5         c-0.3,0.2,4.3-0.5,1.7,0.2c1.6-0.4,2.5,0,3.6-1.5c1.2-1.7,0.9-5.7-1.1-6.7c-1.7-0.9-2.5,0.7-3.9,0.7         c-0.3,0.2-0.4,0.4-0.5,0.7c0-0.6,0.1-1.3,0.1-1.9c-0.2-2.5,0.2-5.2,0.1-7.7c0-0.6-0.9-0.6-0.9,0c0,1.3,0,2.7,0,4         c0,0.6,0.9,0.6,0.9,0c0-2.4-0.1-5.7-0.9-1.2c-0.3,2-0.9,5.6,0,7.5c0.1,0.3,0.5,0.3,0.7,0.1c6.2,0.1,6.8,1.8,1.9,5.1         c-0.6,0-1.1-0.1-1.7-0.2c-0.2,0-0.4,0-0.5,0.2c-2.3,4.7-5.5,6.9-9.4,10.1c-2.2,1.7-1.6,2-1.6,5.2c0,0.2,0.2,0.5,0.5,0.5         c-2.3,0.2-6.6,1.3-7.7-1c-0.4-0.9,0-2.9,0-3.9c0-0.2-0.2-0.4-0.3-0.4c-5.3-2-8.9-5.2-11.4-10.4c-0.1-0.2-0.3-0.3-0.5-0.2         c-0.5,0.1-1,0.2-1.6,0.2c-4.9-3.2-4.3-4.9,1.9-5.1c0.2,0.2,0.7,0.2,0.8-0.2c0.7-3.1-0.2-7-0.1-10.2         C1050.9,76.9,1050,76.9,1049.9,77.5L1049.9,77.5z"/>
						</g>
					</g>
					<g>
						<g>
							<g>
								<g>
									<path class="st4" d="M1057.1,89.2c1-0.9,2.4-1.2,3.8-1c1,0.2,1.4-1.3,0.4-1.5c-1.9-0.3-3.7,0.1-5.2,1.4           C1055.2,88.7,1056.3,89.8,1057.1,89.2L1057.1,89.2z"/>
								</g>
							</g>
							<g>
								<g>
									<path class="st4" d="M1074.9,88.1c-1.5-1.3-3.3-1.7-5.2-1.4c-1,0.2-0.6,1.7,0.4,1.5c1.3-0.2,2.7,0.1,3.8,1           C1074.5,89.8,1075.6,88.7,1074.9,88.1L1074.9,88.1z"/>
								</g>
							</g>
						</g>
						<g>
							<path class="st4" d="M1064.2,95c0.7,0.9,1.7,0.9,2.4,0l0.8-1.2c0.7-0.9,0.2-1.7-0.9-1.7h-2.2c-1.2,0-1.6,0.8-0.9,1.7         L1064.2,95z"/>
							<path class="st10" d="M1064.2,95c0.7,0.9,1.7,0.9,2.4,0l0.8-1.2c0.7-0.9,0.2-1.7-0.9-1.7h-2.2c-1.2,0-1.6,0.8-0.9,1.7         L1064.2,95z"/>
						</g>
					</g>
				</g>
				<g>
					<g>
						<path class="st7" d="M1062,104.1c1.3,1.9,2.5,3.9,3.6,6c0.2,0.4,0.4,0.7,0.3,1.1c-0.1,0.3-0.3,0.6-0.5,0.8        c-1,1.1-2.1,2.2-3.1,3.4c-0.1,0.1-0.2,0.2-0.3,0.2c-0.3,0.1-0.5-0.2-0.6-0.4c-1.7-2.7-1.7-5.9-1.7-9c0-0.7,0-1.4,0.5-1.9        C1060.5,103.7,1061.5,103.5,1062,104.1"/>
						<g>
							<path class="st4" d="M1061.6,104.3c1,1.4,1.9,2.9,2.8,4.4c0.5,1,1.2,1.7,0.6,2.9c-0.2,0.5-1.5,1.7-1.9,2         c-1.2,0.9-1.8,1.1-2.4-0.7c-0.3-0.9-0.5-1.9-0.6-2.9c-0.1-0.7-0.4-6.9,1.6-5.6c0.5,0.3,1-0.5,0.5-0.8c-2-1.2-3,0.9-3.1,2.6         c-0.1,2.5-0.2,7.6,2,9.5c0.5,0.5,0.8,0.4,1.4,0.1c0.7-0.4,1.4-1.5,2-2.1c0.5-0.5,1.3-1.1,1.6-1.8c0.4-0.8,0.3-1.2,0-2.1         c-0.8-2.1-2.4-4.1-3.6-6C1062.1,103.3,1061.3,103.8,1061.6,104.3L1061.6,104.3z"/>
						</g>
					</g>
					<g>
						<path class="st7" d="M1069.9,104.1c-1.3,1.9-2.5,3.9-3.6,6c-0.2,0.4-0.4,0.7-0.3,1.1c0.1,0.3,0.3,0.6,0.5,0.8        c1,1.1,2.1,2.2,3.1,3.4c0.1,0.1,0.2,0.2,0.3,0.2c0.3,0.1,0.5-0.2,0.6-0.4c1.7-2.7,1.7-5.9,1.7-9c0-0.7,0-1.4-0.5-1.9        S1070.4,103.5,1069.9,104.1"/>
						<g>
							<path class="st4" d="M1069.5,103.8c-1.3,1.8-2.8,3.9-3.6,6c-0.3,0.8-0.4,1.2-0.1,2c0.3,0.7,1.2,1.3,1.7,1.8         c0.6,0.6,1.3,1.7,2,2.1c0.6,0.3,0.9,0.4,1.4-0.1c2.1-1.8,2-6.6,2-9.1c0-1.8-0.9-4.3-3.1-2.9c-0.5,0.3,0,1.1,0.5,0.8         c1.8-1.1,1.7,2.7,1.7,3.3c0,0.8,0,1.6-0.1,2.3c-0.1,1-0.3,2-0.6,2.9c0,1-0.4,1.5-1.2,1.4c-0.6,0.2-1,0-1.3-0.6         c-0.6-0.4-1.6-1.4-1.9-2c-0.5-1.1,0.1-2,0.6-2.9c0.9-1.5,1.8-3,2.8-4.4C1070.6,103.8,1069.8,103.3,1069.5,103.8L1069.5,103.8         z"/>
						</g>
					</g>
				</g>
			</g>
		</g>
	</g>
	<g>
		<circle class="st3" cx="97.3" cy="97.3" r="96.4"/>
		<g>
			<path class="st4" d="M49.4,151.1h-9v-1.9h3.4v-11.1l-3.5,0.9v-2l5.8-1.5v13.7h3.4V151.1z"/>
			<path class="st4" d="M51.5,143.7c0-2.7,0.5-4.7,1.4-6.1s2.3-2.1,4-2.1c3.3,0,5,2.6,5,7.9c0,2.6-0.5,4.5-1.4,5.9s-2.2,2.1-4,2.1     c-1.7,0-2.9-0.7-3.8-2S51.5,146.2,51.5,143.7z M53.9,143.6c0,3.9,0.9,5.9,2.8,5.9c1.9,0,2.8-2,2.8-6c0-4.1-0.9-6.1-2.7-6.1     C54.8,137.4,53.9,139.4,53.9,143.6z"/>
			<path class="st4" d="M74.1,147.3h-1.9v3.8H70v-3.8h-7v-1.5l6.7-10.1h2.5v9.8h1.9V147.3z M70,145.5v-6c0-0.4,0-1,0-1.5h0     c-0.2,0.4-0.4,0.8-0.6,1.2l-4.2,6.4H70z"/>
			<path class="st4" d="M82.9,139.3h-2.2v3.4c0.5-0.2,1.1-0.4,1.9-0.7l0.2,1.8c-0.7,0.3-1.4,0.6-2.1,0.8v5.6c0,0.5-0.1,0.8-0.3,1.1     c-0.2,0.3-0.5,0.5-0.7,0.5c-0.3,0.1-0.7,0.1-1.4,0.1c-0.4,0-0.8,0-1.3,0l-0.6-1.7l2.2,0c0.2,0,0.3-0.1,0.3-0.3v-4.6     c-1,0.3-1.8,0.5-2.3,0.7l-0.5-1.7c1.2-0.3,2.1-0.6,2.8-0.8v-4.1h-2.7v-1.7h2.7v-3.3h1.7v3.3h2.2V139.3z M94.1,150.5l-0.8,1.5     c-1.9-0.5-3.5-1.3-5-2.3c-1.5,1-3.3,1.7-5.4,2.3l-1.1-1.6c1.9-0.3,3.6-1,5-1.9c-1.1-0.9-2-2.3-2.6-4.2h-0.7v-1.7h9.2v1.5     c-0.8,1.8-1.8,3.2-3,4.3C90.7,149.3,92.2,149.9,94.1,150.5z M93.9,141.7h-2.5c-1.1,0-1.6-0.6-1.6-1.7v-3.6h-3.2     c0.1,2.7-0.8,4.6-2.8,5.6l-1.3-1.3c0.8-0.4,1.4-1,1.8-1.5c0.3-0.6,0.5-1.4,0.5-2.3v-2.1h6.7v5c0,0.2,0.1,0.3,0.3,0.3h2.1V141.7z      M90.6,144.5h-4.5c0.6,1.5,1.3,2.5,2.2,3.1C89.2,146.8,89.9,145.7,90.6,144.5z"/>
			<path class="st4" d="M114.5,150.3l-0.6,1.6c-1.2,0-2.7,0-4.3,0c-3,0-4.9,0-5.7-0.1s-1.6-0.3-2.4-0.7c-0.8-0.3-1.4-0.8-2-1.3     c-0.7,1-1.3,1.9-2,2.5l-1.2-1.3c1.6-1.6,2.6-3.4,3-5.6h-2.6V144c0.7-1,1.4-2.2,2.2-3.6h-2.4v-1.7h4.5v1.4     c-0.5,1.1-1.2,2.4-2.1,3.8h2.2v1.6c-0.2,1.2-0.5,2.1-0.8,2.9c0.6,0.6,1.2,1,2,1.3c0.7,0.3,1.5,0.5,2.2,0.5     c0.7,0.1,2.5,0.1,5.4,0.1C111.4,150.4,112.9,150.4,114.5,150.3z M100.8,136.9l-1.4,1.2c-0.7-0.9-1.5-1.8-2.6-2.6l1.3-1.2     C99.1,134.9,99.9,135.8,100.8,136.9z M114,139c-0.2,1.2-0.4,2.3-0.7,3.2l-1.5-0.4c0.2-0.4,0.3-0.9,0.4-1.3h-2.8v1l2.2-0.1     l0.1,1.3l-2.3,0.2v0.5c0,0.2,0.1,0.3,0.3,0.3h3.4v1.3h-4.2c-0.3,0-0.6-0.1-0.8-0.4s-0.3-0.6-0.3-0.8v-0.7l-1.5,0.1     c0,2.9-0.5,5.2-1.5,6.9l-1.4-0.9c0.8-1.5,1.2-3.2,1.2-5.2V139h3.1v-2.6c-1.2,0.1-2.5,0.2-3.9,0.2v5.5c0,2.9-0.5,5.2-1.4,7.2     l-1.5-1.1c0.8-1.9,1.2-3.8,1.2-5.9v-7.1c4.4-0.1,7.9-0.5,10.4-1.1l0.8,1.5c-1.2,0.2-2.5,0.5-4,0.6v0.6h4v1.3h-4v0.8H114z      M109,145.6c0,2.1-0.7,3.6-1.9,4.4l-1.2-1c1.1-0.7,1.6-1.8,1.5-3.4H109z M107.7,141.5v-1.1h-1.5v1.2L107.7,141.5z M114.1,147.2     c0,0.9-0.2,1.5-0.5,1.8c-0.3,0.3-0.9,0.5-1.7,0.5c-0.7,0-1.2-0.1-1.4-0.3c-0.3-0.2-0.4-0.5-0.4-1v-2.7h1.5v2.2     c0,0.2,0.1,0.4,0.4,0.4c0.4,0,0.6-0.5,0.6-1.4L114.1,147.2z"/>
			<path class="st4" d="M133.6,138.4h-13.8v5.5c0,3.3-0.5,6-1.6,8.3l-1.5-1.1c0.9-1.7,1.3-4.3,1.3-7.8v-8.6h15.5V138.4z      M131.8,137.1v-1h-12v1H131.8z M124.1,143.1c-0.2,0.3-0.6,0.8-1.1,1.5v7.5h-1.6v-6c-0.2,0.1-0.4,0.3-0.8,0.6l-0.6-1.5     c1.1-0.8,2.2-1.9,3-3.1L124.1,143.1z M124.5,139.5c-1,1.3-2.3,2.4-3.8,3.2l-0.6-1.5c1.5-0.8,2.5-1.6,3.1-2.5L124.5,139.5z      M134.7,150.9l-0.7,1.3c-1.6-0.4-3-0.9-4.4-1.5c-1.7,0.7-3.5,1.2-5.4,1.5l-0.6-1.3c1.8-0.3,3.2-0.6,4.3-1     c-0.6-0.4-1.1-0.8-1.6-1.2c-0.7,0.5-1.3,0.8-2,1.2l-0.8-1.2c0.8-0.4,1.3-0.7,1.7-1c-0.1-0.1-0.3-0.3-0.6-0.6l1.1-0.9     c0.1,0.1,0.3,0.3,0.6,0.6c0.3-0.3,0.6-0.6,1-1h-2.1v-3.8l-0.6,0.5l-1.1-1.1c1.3-0.9,2.2-1.9,2.9-2.9l1.5,0.4     c-0.1,0.2-0.2,0.3-0.2,0.3h6.6v1.3h-7.7c-0.2,0.2-0.4,0.5-0.7,0.8h7.6v4.5H129c-0.1,0.2-0.3,0.5-0.6,0.8h5.3v1.2     c-0.6,0.6-1.5,1.3-2.5,1.9C132.1,150.3,133.3,150.6,134.7,150.9z M131.8,143.2v-0.7h-4.9v0.7H131.8z M131.8,144.9v-0.7h-4.9v0.7     H131.8z M131.5,147.9h-4c0.8,0.6,1.5,1,2,1.2C130.3,148.8,131,148.4,131.5,147.9z"/>
			<path class="st4" d="M154.9,136.4H140v7.6c0,3.5-0.5,6.2-1.5,8.2L137,151c0.8-1.6,1.2-3.5,1.2-5.8v-10.4h16.7V136.4z      M154.9,151.8H140v-1.6h2.2v-3.2h1.8v3.2h2.9v-4.1h1.7v1.1h5.2v1.6h-5.2v1.4h6.3V151.8z M147.3,142.9l-0.9,1.3     c-0.6-0.6-1.1-1-1.5-1.2v3.3h-1.7v-3.2c-0.4,0.9-1,1.7-1.9,2.7l-1.2-1.3c1.1-1.1,1.9-2.2,2.5-3.3h-2.1v-1.4h2.7v-1     c-0.9,0.1-1.6,0.1-2.1,0.1l-0.6-1.4c2.1,0,4-0.3,5.8-0.7l0.7,1.3c-0.7,0.2-1.5,0.4-2.1,0.4v1.2h2v1.4h-2     C145.9,141.8,146.7,142.3,147.3,142.9z M155.2,144.2l-1,1.4c-0.7-1-1.5-1.9-2.4-2.6v3.3h-1.7v-3.2c-0.6,1-1.4,1.9-2.3,2.7     l-1.2-1.3c1.3-1.1,2.3-2.2,2.9-3.2h-1.9v-1.4h2.4v-1c-0.7,0.1-1.3,0.1-2,0.1l-0.6-1.4c2.2,0,4.2-0.3,6.1-0.7l0.8,1.3     c-0.9,0.3-1.7,0.4-2.6,0.5v1.2h2.8v1.4h-2.5C153.3,142.2,154.3,143.2,155.2,144.2z"/>
		</g>
		<g>
			<rect x="83.4" y="34.2" class="st13" width="68" height="89.9"/>
			<rect x="127.6" y="38.7" class="st14" width="18.9" height="24.3"/>
			<rect x="89.4" y="42.2" class="st15" width="31.3" height="1"/>
			<rect x="89.4" y="47.6" class="st15" width="31.3" height="1"/>
			<rect x="89.4" y="53.1" class="st15" width="31.3" height="1"/>
			<rect x="89.4" y="58.6" class="st15" width="31.3" height="1"/>
			<rect x="89.4" y="67.8" class="st15" width="56.6" height="1"/>
			<rect x="89.4" y="72.2" class="st15" width="56.6" height="1"/>
			<rect x="89.4" y="76.7" class="st15" width="56.6" height="1"/>
			<rect x="89.4" y="81.1" class="st15" width="56.6" height="1"/>
			<rect x="89.4" y="85.5" class="st15" width="56.6" height="1"/>
			<rect x="89.4" y="89.9" class="st15" width="56.6" height="1"/>
			<rect x="89.4" y="94.3" class="st15" width="56.6" height="1"/>
			<rect x="89.4" y="98.7" class="st15" width="56.6" height="1"/>
			<rect x="89.4" y="103.2" class="st15" width="56.6" height="1"/>
			<rect x="89.4" y="107.6" class="st15" width="56.6" height="1"/>
			<rect x="89.4" y="112" class="st15" width="56.6" height="1"/>
			<rect x="89.4" y="116.4" class="st15" width="56.6" height="1"/>
			<g>
				<ellipse class="st16" cx="137.1" cy="49.1" rx="6.1" ry="6.6"/>
				<path class="st17" d="M142.1,59l-3.3-1.9c0.2,0-0.7-0.1-1.3-0.3v-0.1c0,0-0.1,0-0.3,0c-0.2,0-0.3,0-0.3,0v0.1      c-0.6,0.1-1.5,0.3-1.3,0.3l-3.3,1.9l-0.4,4h5h0.6h5L142.1,59z"/>
				<g>
					<line class="st18" x1="136.7" y1="57.7" x2="136.7" y2="63"/>
					<line class="st18" x1="137.6" y1="57.7" x2="137.6" y2="63"/>
				</g>
				<g>
					<path class="st18" d="M141.6,48.2c0,1,0,1.9-0.1,2.9l0,0.2c0.4-0.3,0.9-0.7,1.4-0.4c0.4,0.3,0.4,0.9,0.4,1.4       c0,0.1,0,0.3-0.1,0.4c-0.2,0.4-0.9,0.4-1.4,0.3l-0.1,0c-0.5,1.1-1.3,2.1-2.3,2.7c-0.3,0.2-0.5,0.3-0.8,0.5l0,0.1       c0,0.4,0,0.7,0,1.1l0,0.2c-0.7,0.6-1.9,0.6-2.6-0.1l0.1,0c0-0.4,0-0.7,0-1.1l-0.1-0.1c-0.4-0.1-0.7-0.3-1-0.5       c-1.2-0.7-2.1-1.7-2.6-2.9l-0.2,0c-0.5,0.1-1.1,0.1-1.4-0.3c-0.1-0.1-0.1-0.3-0.1-0.4c-0.1-0.5-0.1-1.1,0.4-1.4       c0.5-0.3,1,0.1,1.4,0.4l0.1-0.2c-0.1-1-0.1-1.9-0.1-2.9l0,1.2c2-0.2,3.5-0.5,4.6-2.2v0.2c1.2,1.7,2.4,1.8,4.4,2"/>
					<path class="st19" d="M135.4,49.9c0,0.6,0,1.1,0,1.7"/>
					<path class="st19" d="M138.9,49.9c0,0.6,0,1.1,0,1.7"/>
					<path class="st19" d="M136.4,53.1c0.5,0.2,1.1,0.2,1.6,0"/>
				</g>
				<g>
					<path class="st18" d="M136,56.2c0.4,0.6,0.8,1.2,1.1,1.8c0.1,0.1,0.1,0.2,0.1,0.3c0,0.1-0.1,0.2-0.2,0.3       c-0.3,0.3-0.6,0.7-0.9,1c0,0-0.1,0.1-0.1,0.1c-0.1,0-0.1-0.1-0.2-0.1c-0.5-0.8-0.5-1.8-0.5-2.7c0-0.2,0-0.4,0.1-0.6       C135.5,56.1,135.8,56,136,56.2"/>
					<path class="st18" d="M138.4,56.2c-0.4,0.6-0.8,1.2-1.1,1.8c-0.1,0.1-0.1,0.2-0.1,0.3c0,0.1,0.1,0.2,0.2,0.3       c0.3,0.3,0.6,0.7,0.9,1c0,0,0.1,0.1,0.1,0.1c0.1,0,0.1-0.1,0.2-0.1c0.5-0.8,0.5-1.8,0.5-2.7c0-0.2,0-0.4-0.1-0.6       C138.8,56.1,138.5,56,138.4,56.2"/>
				</g>
				<path class="st20" d="M138.8,44.2"/>
				<path class="st20" d="M140.2,44.8c0.4,0.3,0.7,0.7,1,1.1"/>
			</g>
		</g>
		<g>
			<rect x="40.2" y="34.2" class="st13" width="68" height="89.9"/>
			<rect x="84.4" y="38.7" class="st14" width="18.9" height="24.3"/>
			<rect x="46.1" y="42.2" class="st15" width="31.3" height="1"/>
			<rect x="46.1" y="47.6" class="st15" width="31.3" height="1"/>
			<rect x="46.1" y="53.1" class="st15" width="31.3" height="1"/>
			<rect x="46.1" y="58.6" class="st15" width="31.3" height="1"/>
			<rect x="46.1" y="67.8" class="st15" width="56.6" height="1"/>
			<rect x="46.1" y="72.2" class="st15" width="56.6" height="1"/>
			<rect x="46.1" y="76.7" class="st15" width="56.6" height="1"/>
			<rect x="46.1" y="81.1" class="st15" width="56.6" height="1"/>
			<rect x="46.1" y="85.5" class="st15" width="56.6" height="1"/>
			<rect x="46.1" y="89.9" class="st15" width="56.6" height="1"/>
			<rect x="46.1" y="94.3" class="st15" width="56.6" height="1"/>
			<rect x="46.1" y="98.7" class="st15" width="56.6" height="1"/>
			<rect x="46.1" y="103.2" class="st15" width="56.6" height="1"/>
			<rect x="46.1" y="107.6" class="st15" width="56.6" height="1"/>
			<rect x="46.1" y="112" class="st15" width="56.6" height="1"/>
			<rect x="46.1" y="116.4" class="st15" width="56.6" height="1"/>
			<g>
				<path class="st16" d="M96.7,58.5c1.3,0,2.6,0,3.9,0c0.2,0,0.4,0,0.5-0.2c0.1-0.1,0.1-0.2,0.1-0.4c0.2-1.3,0.3-2.5,0.4-3.8      c0.2-2.7,0.4-5.5-0.4-8.1s-2.9-4.3-5.1-5.3c-2.3-1.1-4.4,0-4.4,0c-2.5,0.4-4.4,2.8-5.1,5.3s-0.7,5.4-0.4,8.1      c0.1,1.3,0.2,2.5,0.4,3.8c0,0.1,0,0.3,0.1,0.4c0.1,0.1,0.3,0.2,0.5,0.2c1.3,0,2.6,0,3.9,0H96.7z"/>
				<path class="st17" d="M99.8,58.3L95.9,56c0.2,0-0.8-0.2-1.6-0.3v-0.1c0,0-0.1,0-0.3,0.1c-0.2,0-0.3-0.1-0.3-0.1v0.1      c-0.7,0.1-1.8,0.3-1.6,0.3l-3.9,2.3L87.8,63h5.9h0.7h5.9L99.8,58.3z"/>
				<g>
					<line class="st18" x1="93.4" y1="56.8" x2="93.4" y2="62.9"/>
					<line class="st18" x1="94.5" y1="56.8" x2="94.5" y2="62.9"/>
				</g>
				<g>
					<path class="st18" d="M99.1,45.7c0.1,1.1,0,2.3-0.1,3.4l0,0.2c0.5-0.4,1.1-0.8,1.6-0.5c0.5,0.3,0.5,1,0.4,1.6       c0,0.2,0,0.3-0.1,0.5c-0.3,0.5-1,0.5-1.6,0.4l-0.2,0c-0.6,1.3-1.5,2.4-2.7,3.2c-0.3,0.2-0.6,0.4-0.9,0.6l0,0.1       c0,0.4,0,0.8,0,1.2l0.1,0.3c-0.9,0.7-2.2,0.6-3-0.1l0.1,0c0-0.4,0-0.8,0-1.2l-0.1-0.2c-0.4-0.1-0.8-0.3-1.2-0.5       c-1.3-0.8-2.5-2-3.1-3.4l-0.2,0c-0.6,0.1-1.3,0.1-1.6-0.4c-0.1-0.2-0.1-0.3-0.1-0.5c-0.1-0.6-0.1-1.3,0.4-1.6       c0.5-0.3,1.2,0.1,1.6,0.5l0.1-0.2c-0.1-1.1-0.1-2.3-0.1-3.4l0,1.4c2.3-0.3,4.1-0.6,5.4-2.6v0.2c1.4,1.9,2.8,2.1,5.1,2.3"/>
					<path class="st19" d="M91.9,47.6c0,0.6,0,1.3,0,1.9"/>
					<path class="st19" d="M96.1,47.6c0,0.6,0,1.3,0,1.9"/>
					<path class="st19" d="M93.1,51.4c0.6,0.2,1.3,0.2,1.8,0"/>
				</g>
				<g>
					<path class="st18" d="M92.6,55c0.5,0.7,0.9,1.4,1.3,2.1c0.1,0.1,0.1,0.3,0.1,0.4c0,0.1-0.1,0.2-0.2,0.3       c-0.4,0.4-0.7,0.8-1.1,1.2c0,0-0.1,0.1-0.1,0.1c-0.1,0-0.2-0.1-0.2-0.1c-0.6-0.9-0.6-2.1-0.6-3.2c0-0.2,0-0.5,0.2-0.7       C92.1,54.9,92.4,54.8,92.6,55"/>
					<path class="st18" d="M95.4,55c-0.5,0.7-0.9,1.4-1.3,2.1c-0.1,0.1-0.1,0.3-0.1,0.4c0,0.1,0.1,0.2,0.2,0.3       c0.4,0.4,0.7,0.8,1.1,1.2c0,0,0.1,0.1,0.1,0.1c0.1,0,0.2-0.1,0.2-0.1c0.6-0.9,0.6-2.1,0.6-3.2c0-0.2,0-0.5-0.2-0.7       C95.9,54.9,95.6,54.8,95.4,55"/>
				</g>
			</g>
		</g>
	</g>
	<g>
		<circle class="st3" cx="412.8" cy="97.3" r="96.4"/>
		<g>
			<path class="st4" d="M372,137.2h-5.3c-0.5,0.7-1.3,1.4-2.2,2.1l-1.4-1.2c1.4-1.1,2.6-2.5,3.5-4.1l1.7,0.6     c-0.2,0.3-0.3,0.6-0.5,0.9h4.1V137.2z M380.7,145.2c0,0.9-0.1,2-0.3,3.1c-0.2,1.2-0.4,1.9-0.7,2.1c-0.3,0.3-0.6,0.4-0.9,0.5     c-0.3,0.1-1,0.1-2,0.1c-0.4,0-0.8,0-1.2,0l-0.6-1.7c0.5,0,1.1,0.1,1.7,0.1c0.8,0,1.3,0,1.4-0.1s0.3-0.3,0.4-0.6     c0.1-0.3,0.2-0.9,0.2-1.8h-5.7v5.3h-1.8v-4.6c-1.8,1.8-4.2,3.3-7.3,4.3l-0.9-1.6c2.7-0.8,4.9-1.9,6.6-3.4H364l1-4.4h6.3v-1.2     h-7.4v-1.6h16v4.4h-6.7v1.2H380.7z M371.4,145.2V144h-4.8l-0.3,1.2H371.4z M370.6,138.8l-1.7,0.4c-0.2-0.3-0.5-0.8-0.9-1.3     l1.7-0.4C370,138,370.4,138.5,370.6,138.8z M381.1,137.2H375c-0.7,0.9-1.4,1.6-2.1,2.2l-1.4-1c1.2-0.9,2.4-2.3,3.4-4.1l1.8,0.4     c-0.1,0.2-0.2,0.5-0.5,0.9h5.1V137.2z M378.1,142.4v-1.2h-4.9v1.2H378.1z M378.7,139l-1.8,0.3c-0.3-0.5-0.6-1-0.9-1.4l1.8-0.4     C378.2,138,378.5,138.5,378.7,139z"/>
			<path class="st4" d="M401.4,143.7h-17.7v-1.8h17.7V143.7z"/>
			<path class="st4" d="M410.6,146.1h-6.6v-1.8h6.6V146.1z M410.2,138.7h-5.7v-1.8h5.7V138.7z M421.9,150.8l-1.1,1.5     c-2.9-1.8-4.9-4-5.9-6.6c-1,2.7-3.1,4.9-6.3,6.5l-1.3-1.4c2.6-1.4,4.4-2.8,5.3-4.2s1.4-3.3,1.4-5.7c0-0.4,0-0.8,0-1.3h1.8     c0,0.4,0,0.7,0,1.1c0,1.7,0.2,3.1,0.7,4.2s1.2,2.2,2.3,3.3C419.7,149.4,420.8,150.2,421.9,150.8z M421.5,137     c-0.5,3-1.3,5.3-2.5,7.1l-1.5-0.8c0.8-1.3,1.4-2.8,1.8-4.5h-6.4c-0.8,1.7-1.7,3.1-2.6,4l-1.4-1.1c1.6-1.8,2.9-4.4,3.8-7.5     l1.8,0.3c-0.2,0.8-0.5,1.6-0.9,2.5H421.5z"/>
			<path class="st4" d="M442.1,136.5h-7.7c-0.2,0.6-0.5,1.2-1,2h7.5v13.6h-1.8v-0.9h-11.8v0.9h-1.8v-13.5h5.7c0.4-0.6,0.8-1.3,1.1-2     h-8v-1.7h17.7V136.5z M429.5,149.6v-9.4h-2.1v9.4H429.5z M435.2,142.2v-2h-4v2H435.2z M435.2,145.9v-2.1h-4v2.1H435.2z      M435.2,149.6v-2.1h-4v2.1H435.2z M439.1,149.6v-9.4H437v9.4H439.1z"/>
			<path class="st4" d="M451.1,137.9h-6.6v-1.6h2.5c-0.1-0.3-0.3-0.8-0.7-1.5l1.8-0.4c0.3,0.6,0.6,1.2,0.8,1.9h2.1V137.9z      M450.8,141H445v-1.6h5.7V141z M450.8,143.8H445v-1.6h5.7V143.8z M450.8,151.8H449v-1h-2v1.3h-1.8v-7h5.7V151.8z M449,149.3v-2.4     h-2v2.4H449z M457.3,149c-2.1,1-4,1.7-5.7,2.2l-0.2-1.7c0.7-0.2,1.4-0.4,2-0.6v-5.7h-1.8v-1.6h5.1v1.6H455v5     c0.5-0.2,1.2-0.5,2.1-1L457.3,149z M462.6,148.1c-0.1,1.2-0.4,2.2-0.7,3c-0.3,0.8-0.8,1.2-1.4,1.2c-1.1,0-1.9-1.1-2.3-3.3     c-0.4-2.2-0.7-5.4-0.8-9.4h-5.7v-1.7h5.7l0-3.4h1.7c0,1.6,0,2.7,0.1,3.4h3.2v1.7h-3.2c0.1,3.9,0.4,6.7,0.7,8.3s0.5,2.5,0.7,2.5     c0.1,0,0.1-0.2,0.3-0.6c0.1-0.4,0.2-1.2,0.3-2.3L462.6,148.1z M462.1,136.5l-1.2,0.9c-0.4-0.6-0.9-1.2-1.6-2l1.2-0.8     C461.1,135.2,461.7,135.8,462.1,136.5z"/>
		</g>
		<g>
			<rect x="312.3" y="156.9" class="st4" width="201" height="90.9"/>
			<pattern id="SVGID_1_" xlink:href="#_x35__勗寞 潛" patternTransform="matrix(0.4369 0 0 0.4369 -4456.937 -4430.644)">
			</pattern>
			<rect x="312.3" y="156.9" class="st21" width="201" height="90.9"/>
			<g>
				<path class="st7" d="M326.9,175h9.4v9.4h-9.4V175z"/>
				<path class="st7" d="M356.9,184l-1.2,1.5c-4-3-6.6-6.1-7.8-9.4c-1,3.7-3.6,6.8-7.8,9.3l-1.2-1.5c5.3-3.3,8-7.7,8-13v-3.2h1.9      v4.2c0,2.2,0.7,4.4,2.2,6.5C352.5,180.4,354.5,182.3,356.9,184z"/>
				<path class="st7" d="M367.2,180.5h-5.5l1.4,0.6c-0.5,1.4-1.3,2.9-2.4,4.5l-1.4-1.1c1-1.4,1.7-2.7,2.1-3.9h-1.2v-12.3h7V180.5z       M365.4,171.7v-1.8h-3.4v1.8H365.4z M365.4,175.2v-1.9h-3.4v1.9H365.4z M365.4,178.8v-2h-3.4v2H365.4z M367.7,184.3l-1.5,0.8      c-0.6-1.1-1.3-2.2-2.2-3.3l1.6-0.8C366.6,182.2,367.3,183.3,367.7,184.3z M377,173.3h-1.6v10.5c0,0.5-0.2,0.9-0.5,1.1      c-0.3,0.3-0.7,0.4-1.1,0.5s-1.2,0-2.4,0l-0.7-1.8c0.5,0.1,1.1,0.1,1.6,0.1c0.6,0,1,0,1.1-0.1s0.2-0.2,0.2-0.4v-7.9      c-1.1,2.7-2.7,5.1-5,7.2l-1.2-1.5c2.4-2.2,4.2-4.7,5.2-7.6h-4.7v-1.7h5.5v-3.9h1.8v3.9h1.6V173.3z"/>
				<path class="st7" d="M385.6,172.6h-1.8v2.6c0.7-0.4,1.2-0.7,1.5-0.8l0.2,1.8c-0.3,0.2-0.8,0.5-1.6,1v6.5c0,0.5-0.1,0.8-0.3,1.1      c-0.2,0.3-0.4,0.4-0.7,0.5s-0.8,0.1-1.5,0.1c-0.4,0-0.6,0-0.9,0l-0.5-1.7c1,0.1,1.6,0,1.8,0s0.3-0.2,0.3-0.4v-5.1      c-0.4,0.2-1.1,0.5-2,0.9l-0.5-1.7c0.8-0.3,1.6-0.7,2.4-1.1v-3.6h-2.2v-1.7h2.2v-3.2h1.8v3.2h1.8V172.6z M397.7,183.3l-1,1.6      c-1.7-1.6-3.1-3.3-4.2-5.2v5.7h-1.8v-5.8c-1.3,1.9-2.9,3.6-5,5.2l-1.1-1.5c2.3-1.7,4-3.4,5.1-5.1h-3.9v-1.7h4.9v-1.4h1.8v1.4h5      v1.7h-4.2C394.1,179.8,395.6,181.5,397.7,183.3z M396.7,169.1c-2.2,0.6-5.5,1.1-10.1,1.4l-0.7-1.7c3.9-0.2,7.2-0.6,9.9-1.3      L396.7,169.1z M389.3,175l-1.7,0.5c-0.4-1.3-1-2.6-1.6-3.7l1.6-0.6C388.3,172.1,388.8,173.4,389.3,175z M392.8,174l-1.7,0.5      c-0.2-1-0.6-2.1-1.2-3.5l1.8-0.5C392.2,171.8,392.6,173,392.8,174z M397.3,170.9c-0.5,1.6-1.1,3.3-2,4.8l-1.7-0.7      c0.8-1.4,1.4-3,1.9-4.7L397.3,170.9z"/>
				<path class="st7" d="M416.7,183.3c0,0.5-0.2,1-0.6,1.4c-0.4,0.4-1.1,0.6-2.1,0.6c-0.5,0-0.9,0-1.4,0l-0.5-1.8l2.3,0      c0.2,0,0.3-0.1,0.4-0.2s0.2-0.3,0.2-0.4v-3.7h-5v5.7h-1.7v-5.7h-4.9c-0.2,2.6-0.8,4.7-1.8,6.2l-1.6-1c0.6-0.8,1-2,1.3-3.4      c0.3-1.4,0.5-2.7,0.5-4v-9h15V183.3z M408.2,172.8v-2.9h-4.7v2.9H408.2z M408.2,177.5v-3h-4.7v3H408.2z M414.9,172.8v-2.9h-5      v2.9H414.9z M414.9,177.5v-3h-5v3H414.9z"/>
				<path class="st7" d="M438,186.6h-17.6v-1.8h7.9v-4.4h-6.2v-1.8h6.2v-4.3h-7.2v-1.8h7.5c-0.3-0.9-0.7-1.8-1.3-3l1.8-0.5      c0.6,1.1,1.1,2.3,1.5,3.5h6.8v1.8h-7.2v4.3h6.2v1.8h-6.2v4.4h7.9V186.6z"/>
				<path class="st7" d="M449.3,172.1H444c-0.6,0.7-1.4,1.4-2.3,2.1l-1.2-1.5c1.6-1,2.6-2.2,3.1-3.5l1.8,0.5      c-0.1,0.3-0.2,0.5-0.4,0.8h4.3V172.1z M457.9,178.1h-1.8v-2h-13.2v2h-1.8v-3.5h7.3c-0.1-0.2-0.2-0.5-0.5-0.9l2.1-0.3      c0.2,0.3,0.4,0.7,0.7,1.2h7.2V178.1z M456,186.3h-10.8v0.8h-1.8v-9.9h11.9v3.9h-10.1v1.1H456V186.3z M447.4,173.8l-2,0.4      c-0.2-0.4-0.5-0.9-0.9-1.4l1.9-0.4C446.8,172.6,447.1,173.1,447.4,173.8z M453.5,179.7v-1.2h-8.3v1.2H453.5z M454.2,184.9v-1.4      h-9v1.4H454.2z M458.4,172.1h-6.3c-0.3,0.5-0.7,1-1.2,1.4l-1.6-0.9c1.1-1.2,1.9-2.3,2.4-3.5l1.8,0.5c-0.2,0.4-0.3,0.6-0.4,0.8      h5.3V172.1z M455.7,173.9l-2,0.3c-0.2-0.5-0.4-1-0.8-1.6l2-0.2C455.2,172.9,455.4,173.3,455.7,173.9z"/>
				<path class="st7" d="M478.7,171.5H471c-0.2,0.6-0.5,1.2-1,2h7.5v13.6h-1.8v-0.9H464v0.9h-1.8v-13.5h5.7c0.4-0.6,0.8-1.3,1.1-2      h-8v-1.7h17.7V171.5z M466.1,184.6v-9.4H464v9.4H466.1z M471.8,177.2v-2h-4v2H471.8z M471.8,180.9v-2.1h-4v2.1H471.8z       M471.8,184.6v-2.1h-4v2.1H471.8z M475.7,184.6v-9.4h-2.2v9.4H475.7z"/>
				<path class="st7" d="M487.8,172.9h-6.6v-1.6h2.5c-0.1-0.3-0.3-0.8-0.7-1.5l1.8-0.4c0.3,0.6,0.6,1.2,0.8,1.9h2.1V172.9z       M487.4,176h-5.7v-1.6h5.7V176z M487.4,178.8h-5.7v-1.6h5.7V178.8z M487.4,186.8h-1.8v-1h-2v1.3h-1.8v-7h5.7V186.8z       M485.6,184.3v-2.4h-2v2.4H485.6z M493.9,184c-2.1,1-4,1.7-5.7,2.2l-0.2-1.7c0.7-0.2,1.4-0.4,2-0.6v-5.7h-1.8v-1.6h5.1v1.6h-1.6      v5c0.5-0.2,1.2-0.5,2.1-1L493.9,184z M499.2,183.1c-0.1,1.2-0.4,2.2-0.7,3c-0.3,0.8-0.8,1.2-1.4,1.2c-1.1,0-1.9-1.1-2.3-3.3      c-0.4-2.2-0.7-5.4-0.8-9.4h-5.7v-1.7h5.7l0-3.4h1.7c0,1.6,0,2.7,0.1,3.4h3.2v1.7h-3.2c0.1,3.9,0.4,6.7,0.7,8.3s0.5,2.5,0.7,2.5      c0.1,0,0.1-0.2,0.3-0.6c0.1-0.4,0.2-1.2,0.3-2.3L499.2,183.1z M498.7,171.5l-1.2,0.9c-0.4-0.6-0.9-1.2-1.6-2l1.2-0.8      C497.8,170.2,498.3,170.8,498.7,171.5z"/>
				<path class="st7" d="M326.9,199.4h9.4v9.4h-9.4V199.4z"/>
				<path class="st7" d="M357.1,197.6l-1.1,1.6c-3.2-1.5-5.9-3.1-8.1-5c-2,1.6-4.6,3.3-7.8,4.9l-1.2-1.5c3.8-1.8,6.7-3.7,8.7-5.7      l1.9,0.7c-0.1,0.1-0.2,0.3-0.3,0.4C351.2,194.6,353.8,196.2,357.1,197.6z M354.6,209.8h-1.9v-1h-9.5v1h-1.9v-8.3h13.3V209.8z       M352.7,207v-3.7h-9.5v3.7H352.7z M352.6,199.4h-9.3v-1.7h9.3V199.4z"/>
				<path class="st7" d="M365.9,199.9l-1.2,1.4c-0.1-0.3-0.3-0.8-0.7-1.4v9.8h-1.8V201c-0.7,1.6-1.4,2.7-2.1,3.5l-0.9-1.7      c1.2-1.4,2.2-3.2,2.9-5.5h-2.7v-1.7h2.8V192h1.8v3.5h1.7v1.7H364v0.2C364.9,198.4,365.5,199.2,365.9,199.9z M377.1,200.2      l-0.9,1.6c-2-0.6-3.5-1.4-4.7-2.2c-1.4,0.9-3,1.7-4.6,2.3l-1-1.5c1.7-0.6,3.1-1.2,4.2-1.9c-0.7-0.8-1.2-1.4-1.5-2.1      c-0.6,0.5-1.1,0.9-1.3,1l-1.2-1.3c1.5-1,2.8-2.4,3.9-4.3l1.7,0.5c0,0.1-0.2,0.5-0.6,1h4.8v1.7c-0.7,1.3-1.7,2.4-2.8,3.4      C374.2,199.3,375.6,199.8,377.1,200.2z M375.9,209.7H374V209h-4.9v0.7h-1.8v-7.5h8.5V209.7z M374,207.2v-3.3h-4.9v3.3H374z       M373.8,195.1h-3.9l-0.1,0.1c0.5,0.9,1.1,1.7,1.8,2.3C372.5,196.8,373.3,196,373.8,195.1z"/>
				<path class="st7" d="M385.7,196.8c-0.5,0.8-1.1,1.8-1.9,3v10h-1.8v-8c-0.7,0.7-1.2,1.2-1.5,1.4l-1-1.7c1.5-1,3.1-2.8,4.7-5.5      L385.7,196.8z M384.9,192.6c-1.3,1.9-2.8,3.5-4.4,4.7l-1-1.6c1.3-0.9,2.6-2.2,3.7-3.9L384.9,192.6z M397.7,208.3l-0.8,1.6      c-2.6-0.5-4.6-1.1-6-1.9c-1.2,0.6-3.2,1.2-5.9,1.8l-0.8-1.6c2-0.3,3.6-0.8,5-1.3c-0.6-0.5-1.2-1.1-1.9-1.8      c-0.4,0.4-1,0.8-1.8,1.4l-1.1-1.3c0.8-0.5,1.4-1,1.9-1.4l-0.7-1.1l1.4-0.9c0.1,0.2,0.3,0.5,0.6,0.8c0.4-0.4,0.8-0.9,1.2-1.5      c-1.3,0-2.4,0.1-3.2,0.1l-0.4-1.6c1.3-0.4,2.9-1.1,4.7-2.2c-0.8,0.1-2,0.1-3.6,0.2l-0.3-1.4c1.6-0.9,3.2-2.3,4.7-4.1l1.7,0.8      c-1.1,1.4-2.4,2.5-3.9,3.2c1.1-0.1,2.4-0.2,3.7-0.3c1.2-1.1,1.9-1.8,2.2-2.1l1.7,0.8c-2.5,2.5-5.1,4.2-7.8,5.3      c1.4-0.1,3.3-0.3,5.7-0.6c-0.2-0.3-0.5-0.6-0.9-1l1.5-0.9c1.3,1.4,2.2,2.7,2.8,3.8l-1.5,0.8c-0.2-0.4-0.5-0.8-0.8-1.2      c-1.5,0.2-2.9,0.3-4.3,0.4c-0.1,0.2-0.4,0.7-0.9,1.5h6v1.7c-0.9,1.2-2,2.2-3.1,3C394.4,207.6,396.1,208.1,397.7,208.3z       M393.6,204h-5c0.6,0.8,1.4,1.5,2.3,2.1C391.5,205.8,392.4,205.1,393.6,204z"/>
				<path class="st7" d="M408.3,203.2c-0.5-0.2-0.8-0.6-0.8-1.3c0-0.4,0.1-0.7,0.4-0.9c0.3-0.2,0.6-0.4,0.9-0.4      c0.4,0,0.7,0.1,0.9,0.4c0.2,0.3,0.4,0.6,0.4,1c0,0.8-0.6,1.6-1.7,2.5l-0.6-0.5C408,203.7,408.2,203.4,408.3,203.2z"/>
				<path class="st7" d="M437.5,199h-1.8v-2.7h-13.1v2.7h-1.8v-4.3h7.5V192h1.8v2.7h7.4V199z M436.5,209.7h-1.7v-0.9h-11.1v0.9h-1.8      v-7.5h14.6V209.7z M426.4,193.8l-1.9,0.6c-0.5-0.6-1.1-1.2-1.8-1.7l1.8-0.7C425.3,192.7,425.9,193.3,426.4,193.8z M428.3,204.8      v-1.2h-4.7v1.2H428.3z M428.3,207.4v-1.2h-4.7v1.2H428.3z M434.5,201.2h-10.8v-3.9h10.8V201.2z M432.7,199.8v-1.1h-7.2v1.1      H432.7z M434.7,204.8v-1.2h-4.7v1.2H434.7z M434.7,207.4v-1.2h-4.7v1.2H434.7z M435.5,192.8c-0.6,0.6-1.2,1.2-1.9,1.6l-1.8-0.9      c0.7-0.4,1.3-0.9,2-1.6L435.5,192.8z"/>
				<path class="st7" d="M458.5,208.3l-1,1.6c-2.2-1.3-3.9-2.5-5-3.7c-1.1-1.2-2.1-2.7-3-4.6c-1.1,3.4-3.8,6.2-8.1,8.3l-1-1.6      c4.3-2,6.8-4.7,7.7-8.2h-7.2v-1.8h7.6c0.1-1.3,0.1-2.6,0.1-3.9h-6.9v-1.8h15.6v1.8h-6.8c-0.1,2.2-0.1,3.5-0.2,3.9h7.7v1.8h-7.2      C451.9,203.3,454.4,206.1,458.5,208.3z"/>
				<path class="st7" d="M478.9,207.8l-0.5,1.7h-7.6c-2.8,0-5-0.7-6.6-2.1c-0.6,1-1.3,1.9-1.9,2.6l-1.4-1.1c1.7-1.7,2.8-3.6,3.3-5.8      h-2.9v-1.6c1-1.2,1.8-2.4,2.5-3.5h-2.8v-1.6h4.8v1.6c-0.6,1.1-1.3,2.3-2.3,3.6h2.5v1.6c-0.2,1-0.6,2-1,3      c1.3,1.2,3.3,1.9,5.8,1.9H478.9z M465.7,194.4l-1.2,1.3c-0.9-1-1.9-1.9-2.9-2.6l1.2-1.3C463.6,192.4,464.6,193.3,465.7,194.4z       M478.4,206.3H468v-7.5c-0.3,0.5-0.7,0.9-1.1,1.4l-1-1.6c1.4-1.8,2.5-4.1,3.4-6.7l1.7,0.4c-0.3,0.8-0.6,1.7-1,2.6h2.8      c-0.3-0.7-0.6-1.5-1.1-2.4l1.7-0.5c0.6,1.1,1,2.1,1.2,2.9h3.5v1.6h-3.8v1.7h3.5v1.5h-3.5v1.7h3.5v1.5h-3.5v1.8h4V206.3z       M472.6,198.1v-1.7h-2.9v1.7H472.6z M472.6,201.3v-1.7h-2.9v1.7H472.6z M472.6,204.7v-1.8h-2.9v1.8H472.6z"/>
				<path class="st7" d="M487.4,192.6c-1.5,2-3.3,3.6-5.4,4.8l-0.9-1.7c1.6-0.8,3.1-2.1,4.5-3.9L487.4,192.6z M487.8,196.4      c-0.6,1.1-1.3,2.1-2,3v10.3h-1.9v-8.2c-0.7,0.7-1.4,1.3-2,1.7l-0.8-1.8c1.7-1.1,3.4-3,5-5.8L487.8,196.4z M498.9,199.5h-2.7v8.2      c0,1.3-0.7,2-2.2,2c-0.9,0-1.9,0-2.8-0.1l-0.7-1.8c0.6,0,1.6,0,3.2,0c0.1,0,0.3-0.1,0.4-0.2c0.1-0.1,0.2-0.2,0.2-0.4v-7.8h-6.6      v-1.8h11.3V199.5z M498.4,194.4h-10.2v-1.8h10.2V194.4z"/>
				<path class="st7" d="M345.5,219.2h-5.3c-0.5,0.7-1.3,1.4-2.2,2.1l-1.4-1.2c1.4-1.1,2.6-2.5,3.5-4.1l1.7,0.6      c-0.2,0.3-0.3,0.6-0.5,0.9h4.1V219.2z M354.3,227.2c0,0.9-0.1,2-0.3,3.1c-0.2,1.2-0.4,1.9-0.7,2.1c-0.3,0.3-0.6,0.4-0.9,0.5      c-0.3,0.1-1,0.1-2,0.1c-0.4,0-0.8,0-1.2,0l-0.6-1.7c0.5,0,1.1,0.1,1.7,0.1c0.8,0,1.3,0,1.4-0.1s0.3-0.3,0.4-0.6      c0.1-0.3,0.2-0.9,0.2-1.8h-5.7v5.3h-1.8v-4.6c-1.8,1.8-4.2,3.3-7.3,4.3l-0.9-1.6c2.7-0.8,4.9-1.9,6.6-3.4h-5.8l1-4.4h6.3v-1.2      h-7.4v-1.6h16v4.4h-6.7v1.2H354.3z M344.9,227.2V226h-4.8l-0.3,1.2H344.9z M344.1,220.8l-1.7,0.4c-0.2-0.3-0.5-0.8-0.9-1.3      l1.7-0.4C343.6,220,343.9,220.4,344.1,220.8z M354.6,219.2h-6.1c-0.7,0.9-1.4,1.6-2.1,2.2l-1.4-1c1.2-0.9,2.4-2.3,3.4-4.1      l1.8,0.4c-0.1,0.2-0.2,0.5-0.5,0.9h5.1V219.2z M351.6,224.4v-1.2h-4.9v1.2H351.6z M352.3,220.9l-1.8,0.3c-0.3-0.5-0.6-1-0.9-1.4      l1.8-0.4C351.8,220,352,220.5,352.3,220.9z"/>
				<path class="st7" d="M374.9,233.4h-17.6v-1.8h17.6V233.4z M373.5,218.9h-14.9v-1.8h14.9V218.9z"/>
				<path class="st7" d="M382.3,222.5c1.1,1.7,1.7,3.3,1.7,4.7c0,0.8-0.2,1.5-0.6,1.9s-1.1,0.7-2.1,0.7c-0.2,0-0.4,0-0.7,0l-0.5-1.7      c0.5,0,0.9,0,1.3,0c0.5,0,0.7-0.3,0.7-0.8c0-1.7-0.6-3.2-1.7-4.6c0.5-1.1,0.9-2.6,1.4-4.4h-2.1v15.7H378v-17.4h5.7v1.7      C383.3,219.7,382.8,221,382.3,222.5z M388.9,223.2c-1.3,0.6-2.7,1-4.2,1.4l-0.5-1.4c0.1-0.2,0.2-0.4,0.2-0.7v-6.1h1.7v2.1h2.7      v1.6H386v2.5c0.8-0.2,1.7-0.5,2.8-1L388.9,223.2z M394.4,234.1h-1.8v-1h-6.1v1h-1.8v-8.5h2.7c0.2-0.4,0.4-1,0.5-1.6l1.7,0.5      c-0.1,0.4-0.2,0.8-0.4,1.2h5.2V234.1z M392.6,228.6v-1.4h-6.1v1.4H392.6z M392.6,231.6v-1.5h-6.1v1.5H392.6z M395.4,221.4      c0,1-0.1,1.7-0.4,2.1c-0.3,0.4-0.6,0.7-0.9,0.7s-1.3,0.1-2.8,0.1c-1.2,0-1.8-0.6-1.8-1.7v-6.2h1.8v2.1h3.2v1.6h-3.2v2.3      c0,0.2,0.1,0.3,0.3,0.3c0.9,0,1.5,0,1.8-0.1c0.3-0.1,0.4-0.7,0.4-1.8L395.4,221.4z"/>
				<path class="st7" d="M406.1,217.8c-1.5,0.5-3.3,0.9-5.3,1.2v1.7h4.2l0,1.6h-4.2v2.2h4.2v1.6h-4.2v2.7c1.4-0.3,3.1-0.7,5-1.3      l0.1,1.7c-2,0.6-3.7,1.1-5.1,1.3v3.7H399v-3.3l-0.9,0.1l-0.3-1.6l1.2-0.2v-11.4c2.2-0.2,4.2-0.7,6.2-1.4L406.1,217.8z       M415.9,232.7l-1.1,1.6c-1.6-0.7-3.1-1.5-4.3-2.4c-1.2,0.9-2.7,1.7-4.6,2.4l-1-1.6c1.7-0.5,3.2-1.1,4.3-2      c-1-1.2-1.8-2.5-2.4-4.1h-0.6v-1.8h8.2v1.8c-0.6,1.4-1.4,2.8-2.5,4C412.9,231.4,414.2,232.1,415.9,232.7z M415.6,223.7h-2.5      c-0.4,0-0.7-0.1-1-0.4c-0.2-0.3-0.4-0.6-0.4-1v-3.7h-2.7c0,2.6-0.7,4.5-2.3,5.6l-1.6-1.2c1.3-0.7,2-2.2,2-4.4v-1.7h6.3v4.8      c0,0.1,0,0.2,0.1,0.2c0.1,0.1,0.2,0.1,0.3,0.1h1.6V223.7z M412.4,226.6h-3.7c0.5,1.2,1.1,2.1,1.8,2.9      C411.3,228.6,411.9,227.7,412.4,226.6z"/>
			</g>
		</g>
		<g>
			<g>
				<g>
					<g>
						<ellipse class="st11" cx="462.2" cy="71.3" rx="20.2" ry="21.8"/>
						<path class="st9" d="M478.8,104l-11-6.4c0.6,0-2.3-0.5-4.4-0.8v-0.3c0,0-0.4,0.1-1,0.2c-0.6-0.1-1-0.2-1-0.2v0.3        c-2.1,0.3-5,0.8-4.4,0.8l-11,6.4l-1.2,13.3h16.6h2H480L478.8,104z"/>
						<g>
							<line class="st22" x1="460.9" y1="99.7" x2="460.9" y2="117.1"/>
							<line class="st22" x1="463.8" y1="99.7" x2="463.8" y2="117.1"/>
						</g>
						<g>
							<g>
								<path class="st4" d="M477,68.3c0.1,3.2,0.1,6.4-0.3,9.6l0.1,0.5c1.3-1.2,3.1-2.3,4.6-1.5c1.5,0.8,1.4,2.9,1.2,4.6          c-0.1,0.5-0.1,1-0.4,1.4c-0.8,1.5-2.9,1.4-4.5,1.1l-0.4-0.1c-1.6,3.7-4.3,6.8-7.7,9c-1,0.6-1.6,1.1-2.6,1.6l0,0.4          c0,1.2,0,2.3,0,3.5l0.1,0.8c-2.4,1.9-6.2,1.8-8.5-0.2l0.3,0c0-1.2,0-2.3,0-3.5l-0.2-0.5c-1.2-0.4-2.3-0.9-3.4-1.5          c-3.8-2.2-6.9-5.6-8.7-9.6l-0.6,0.1c-1.6,0.3-3.7,0.3-4.5-1.1c-0.2-0.4-0.3-0.9-0.4-1.4c-0.2-1.7-0.3-3.8,1.2-4.6          c1.5-0.9,3.3,0.3,4.6,1.5l0.2-0.5c-0.3-3.2-0.4-6.4-0.3-9.6l0,4c6.6-0.8,11.5-1.8,15.4-7.2v0.6c3.8,5.5,7.9,5.9,14.6,6.7"/>
								<g>
									<path class="st4" d="M476.6,68.3c0.1,3.2-0.8,7.1-0.1,10.2c0.1,0.4,0.5,0.4,0.8,0.2c6.2,0.1,6.8,1.8,1.9,5.1           c-0.5,0-1.1-0.1-1.6-0.2c-0.2,0-0.4,0-0.5,0.2c-2.2,4.7-5.7,8-10.2,10.4c-0.1,0.1-0.2,0.2-0.2,0.4c0.1,1,0.4,3.2,0,3.9           c-1.1,2.3-5.4,1.2-7.7,1c0.2,0,0.5-0.2,0.5-0.5c0-1.5,0.4-3.1-0.4-4.4c-0.5-0.8-3.1-1.4-4-1.9c-1.2-0.7-2.3-1.6-3.4-2.6           c-2-1.8-3.4-4-4.5-6.4c-0.1-0.2-0.3-0.2-0.5-0.2c-0.6,0.1-1.1,0.2-1.7,0.2c-4.9-3.2-4.3-4.9,1.9-5.1           c0.2,0.2,0.6,0.2,0.7-0.1c0.8-1.9,0.3-5.5,0-7.5c-0.8-4.6-0.9-1.2-0.9,1.2c0,0.2,0.2,0.5,0.5,0.5c3.2-0.4,6.6-0.8,9.6-2.2           c1.5-0.7,3.2-1.7,4.3-3c0.6-0.6,1.6-1.9,1.1-1.9c-0.1,0,1.9,2.4,1.9,2.4c1,1,2.2,1.9,3.5,2.5c3,1.5,6.4,1.7,9.6,2.1           c0.6,0.1,0.6-0.8,0-0.9c-2.6-0.3-5.2-0.5-7.7-1.4c-2.1-0.7-6.5-3-6.5-5.4c0-0.5-0.6-0.6-0.8-0.2c-3.1,4-6.7,5.5-11.5,6.5           c-2.5,0.5-2.5,1.4-3.1-0.6c-0.2-0.7,0-1.7,0-2.4c0-0.6-0.9-0.6-0.9,0c-0.1,2.2-0.1,4.5,0,6.7c0.1,1,0.1,1.9,0.2,2.9           c-0.1-0.3-0.3-0.5-0.5-0.7c-1.5,0.1-2.2-1.6-3.9-0.7c-2.1,1.1-2.2,5-1.1,6.7c0.9,1.4,2.1,1.2,3.6,1.5           c0.3,0.1,1.4-0.4,1.7-0.2c0.6,0.4,1.5,2.9,1.9,3.5c1.2,1.6,2.6,3.1,4.2,4.3c1.2,0.9,3,1.5,4.1,2.5c0.5,0.2,1.1,0.4,1.6,0.6           c0,1,0.1,2.1,0.3,3.1c-0.5,0-0.6,0.6-0.2,0.8c2.9,2,6,2.1,9,0.2c0.2-0.1,0.2-0.3,0.2-0.5c-0.8-4.3-0.1-4,2.9-6.2           c1.9-1.4,3.6-2.9,5-4.8c0.3-0.4,1.7-3.4,2-3.6c-0.4,0.2,4.8-0.7,1.6,0.2c1.6-0.4,2.5,0,3.6-1.5c1.2-1.7,0.9-5.7-1.1-6.7           c-1.7-0.9-2.5,0.7-3.9,0.7c-0.3,0.2-0.4,0.5-0.4,0.8c0-0.7,0.1-1.4,0.1-2.1c0.1-2.6,0.2-5.1,0.1-7.7           C477.5,67.7,476.5,67.7,476.6,68.3L476.6,68.3z"/>
								</g>
							</g>
							<g>
								<path class="st4" d="M456.6,73.8c0,1.8,0,3.7,0,5.5"/>
								<g>
									<path class="st4" d="M455.9,73.8c0,1.8,0,3.7,0,5.5c0,1,1.5,1,1.5,0c0-1.8,0-3.7,0-5.5C457.4,72.8,455.9,72.8,455.9,73.8           L455.9,73.8z"/>
								</g>
							</g>
							<g>
								<path class="st4" d="M468.3,73.8c0,1.8,0,3.7,0,5.5"/>
								<g>
									<path class="st4" d="M467.6,73.8c0,1.8,0,3.7,0,5.5c0,1,1.5,1,1.5,0c0-1.8,0-3.7,0-5.5C469.1,72.8,467.6,72.8,467.6,73.8           L467.6,73.8z"/>
								</g>
							</g>
							<g>
								<path class="st4" d="M459.9,84.4c1.6,0.7,3.6,0.6,5.2-0.1"/>
								<g>
									<path class="st4" d="M459.7,85.1c1.8,0.7,3.8,0.7,5.6-0.1c0.9-0.4,0.5-1.8-0.4-1.5c-1.6,0.6-3.2,0.7-4.8,0.1           C459.2,83.3,458.8,84.8,459.7,85.1L459.7,85.1z"/>
								</g>
							</g>
						</g>
						<g>
							<g>
								<path class="st4" d="M458.6,94.8c1.3,1.9,2.5,3.9,3.6,6c0.2,0.4,0.4,0.7,0.3,1.1c-0.1,0.3-0.3,0.6-0.5,0.8          c-1,1.1-2.1,2.2-3.1,3.4c-0.1,0.1-0.2,0.2-0.3,0.2c-0.3,0.1-0.5-0.2-0.6-0.4c-1.7-2.7-1.7-5.9-1.7-9c0-0.7,0-1.4,0.5-1.9          C457,94.4,458.1,94.2,458.6,94.8"/>
								<g>
									<path class="st4" d="M458.2,95c1,1.4,1.9,2.9,2.8,4.4c0.5,1,1.2,1.7,0.6,2.9c-0.2,0.5-1.5,1.7-1.9,2           c-1.2,0.9-1.8,1.1-2.4-0.7c-0.3-0.9-0.5-1.9-0.6-2.9c-0.1-0.7-0.4-6.9,1.6-5.6c0.5,0.3,1-0.5,0.5-0.8c-2-1.2-3,0.9-3.1,2.6           c-0.1,2.5-0.2,7.6,2,9.5c0.5,0.5,0.8,0.4,1.4,0.1c0.7-0.4,1.4-1.5,2-2.1c0.5-0.5,1.3-1.1,1.6-1.8c0.4-0.8,0.3-1.2,0-2.1           c-0.8-2.1-2.4-4.1-3.6-6C458.6,94.1,457.9,94.5,458.2,95L458.2,95z"/>
								</g>
							</g>
							<g>
								<path class="st4" d="M466.4,94.8c-1.3,1.9-2.5,3.9-3.6,6c-0.2,0.4-0.4,0.7-0.3,1.1c0.1,0.3,0.3,0.6,0.5,0.8          c1,1.1,2.1,2.2,3.1,3.4c0.1,0.1,0.2,0.2,0.3,0.2c0.3,0.1,0.5-0.2,0.6-0.4c1.7-2.7,1.7-5.9,1.7-9c0-0.7,0-1.4-0.5-1.9          C468,94.4,466.9,94.2,466.4,94.8"/>
								<g>
									<path class="st4" d="M466,94.6c-1.3,1.8-2.8,3.9-3.6,6c-0.3,0.8-0.4,1.2-0.1,2c0.3,0.7,1.2,1.3,1.7,1.8           c0.6,0.6,1.3,1.7,2,2.1c0.6,0.3,0.9,0.4,1.4-0.1c2.1-1.8,2-6.6,2-9.1c0-1.8-0.9-4.3-3.1-2.9c-0.5,0.3,0,1.1,0.5,0.8           c1.8-1.1,1.7,2.7,1.7,3.3c0,0.8,0,1.6-0.1,2.3c-0.1,1-0.3,2-0.6,2.9c0,1-0.4,1.5-1.2,1.4c-0.6,0.2-1,0-1.3-0.6           c-0.6-0.4-1.6-1.4-1.9-2c-0.5-1.1,0.1-2,0.6-2.9c0.9-1.5,1.8-3,2.8-4.4C467.2,94.5,466.4,94.1,466,94.6L466,94.6z"/>
								</g>
							</g>
						</g>
					</g>
					<g>
						<path class="st7" d="M469.4,72.1h-14.6v-1.5h6.5V67h-5.2v-1.5h5.2V62h-5.9v-1.5h6.2c-0.2-0.7-0.6-1.5-1.1-2.5l1.5-0.4        c0.5,0.9,0.9,1.9,1.2,2.9h5.6V62h-5.9v3.6h5.2V67h-5.2v3.6h6.5V72.1z"/>
						<path class="st7" d="M461.9,76.9h-4.4c-0.5,0.6-1.1,1.2-1.9,1.7l-1-1.2c1.3-0.9,2.1-1.8,2.6-2.9l1.5,0.4        c-0.1,0.2-0.2,0.4-0.3,0.7h3.5V76.9z M469,81.9h-1.5v-1.6h-10.9v1.6h-1.5V79h6.1c-0.1-0.2-0.2-0.4-0.4-0.8l1.7-0.3        c0.2,0.2,0.3,0.6,0.5,1h6V81.9z M467.5,88.6h-8.9v0.7h-1.5v-8.2h9.8v3.2h-8.4v0.9h8.9V88.6z M460.4,78.3l-1.6,0.3        c-0.1-0.3-0.4-0.7-0.7-1.2l1.6-0.3C459.8,77.4,460.1,77.8,460.4,78.3z M465.4,83.2v-1h-6.9v1H465.4z M466,87.5v-1.2h-7.4v1.2        H466z M469.4,76.9h-5.2c-0.3,0.4-0.6,0.8-1,1.2l-1.4-0.7c0.9-1,1.6-1.9,2-2.9l1.5,0.4c-0.1,0.3-0.3,0.5-0.4,0.7h4.4V76.9z         M467.2,78.4l-1.6,0.3c-0.1-0.4-0.3-0.8-0.6-1.3l1.6-0.2C466.8,77.5,467,77.9,467.2,78.4z"/>
					</g>
				</g>
				<g>
					<ellipse class="st11" cx="363.8" cy="72.5" rx="20.2" ry="21.8"/>
					<path class="st9" d="M380.4,105.2l-11-6.4c0.6,0-2.3-0.5-4.4-0.8v-0.3c0,0-0.4,0.1-1,0.2c-0.6-0.1-1-0.2-1-0.2V98       c-2.1,0.3-5,0.8-4.4,0.8l-11,6.4l-1.2,13.3H363h2h16.6L380.4,105.2z"/>
					<g>
						<polyline class="st12" points="362.6,118.3 362.6,100.9 365.5,100.9 365.5,118.3       "/>
					</g>
					<g>
						<g>
							<path class="st7" d="M348.6,73.5"/>
							<g>
								<path class="st4" d="M348.6,74c0.6,0,0.6-0.9,0-0.9C348,73.1,348,74,348.6,74L348.6,74z"/>
							</g>
						</g>
						<g>
							<path class="st7" d="M348.6,69.5c-0.1,3.2-0.1,6.4,0.3,9.6l-0.1,0.5c-1.3-1.2-3.1-2.3-4.6-1.5c-1.5,0.8-1.4,2.9-1.2,4.6         c0.1,0.5,0.1,1,0.4,1.4c0.8,1.5,2.9,1.4,4.5,1.1l0.4-0.1c1.6,3.7,4.3,6.8,7.7,9c1,0.6,2.9,1.1,3.9,1.6l0,0.4         c0,1.2,0,2.3,0,3.5l-0.1,0.8c2.4,1.9,6.2,1.8,8.5-0.2l-0.3,0c0-1.2,0-2.3,0-3.5l0.2-0.5c1.2-0.4,1-0.9,2.1-1.5         c3.8-2.2,6.9-5.6,8.7-9.6l0.6,0.1c1.6,0.3,3.7,0.3,4.5-1.1c0.2-0.4,0.3-0.9,0.4-1.4c0.2-1.7,0.3-3.8-1.2-4.6         c-1.5-0.9-3.3,0.3-4.6,1.5l-0.2-0.5c0.3-3.2,0.4-6.4,0.3-9.6l0,4"/>
							<g>
								<path class="st4" d="M348.1,69.5c-0.1,2.6,0,5.1,0.1,7.7c0,0.7,0.1,1.4,0.1,2.1c0-0.4-0.2-0.7-0.4-0.8          c-1.6-0.3-2.3-1.6-4-0.6c-2.4,1.3-2.1,6.1-0.1,7.6c1.3,1,2.9-0.1,4.1,0.4c0.9,0.4,2.2,3.6,3.2,4.8c1.5,1.8,3.4,3.5,5.6,4.5          c0.3,0.2,2.5,0.6,2.7,0.9c0.4,0.5,0,3.8-0.1,4.3c0,0.2,0,0.4,0.2,0.5c3,1.9,6.1,1.8,9-0.2c0.3-0.2,0.3-0.9-0.2-0.8          c0.2-1,0.3-2.1,0.3-3.1c0.3-0.1,0.5-0.3,0.7-0.4c0.7-1,2.1-1.5,3.1-2.2c1.9-1.3,3.5-2.9,4.8-4.8c0.3-0.4,1.6-3.3,1.9-3.5          c-0.3,0.2,4.3-0.5,1.7,0.2c1.6-0.4,2.5,0,3.6-1.5c1.2-1.7,0.9-5.7-1.1-6.7c-1.7-0.9-2.5,0.7-3.9,0.7          c-0.3,0.2-0.4,0.4-0.5,0.7c0-0.6,0.1-1.3,0.1-1.9c-0.2-2.5,0.2-5.2,0.1-7.7c0-0.6-0.9-0.6-0.9,0c0,1.3,0,2.7,0,4          c0,0.6,0.9,0.6,0.9,0c0-2.4-0.1-5.7-0.9-1.2c-0.3,2-0.9,5.6,0,7.5c0.1,0.3,0.5,0.3,0.7,0.1c6.2,0.1,6.8,1.8,1.9,5.1          c-0.6,0-1.1-0.1-1.7-0.2c-0.2,0-0.4,0-0.5,0.2c-2.3,4.7-5.5,6.9-9.4,10.1c-2.2,1.7-1.6,2-1.6,5.2c0,0.2,0.2,0.5,0.5,0.5          c-2.3,0.2-6.6,1.3-7.7-1c-0.4-0.9,0-2.9,0-3.9c0-0.2-0.2-0.4-0.3-0.4c-5.3-2-8.9-5.2-11.4-10.4c-0.1-0.2-0.3-0.3-0.5-0.2          c-0.5,0.1-1,0.2-1.6,0.2c-4.9-3.2-4.3-4.9,1.9-5.1c0.2,0.2,0.7,0.2,0.8-0.2c0.7-3.1-0.2-7-0.1-10.2          C349.1,68.9,348.2,68.9,348.1,69.5L348.1,69.5z"/>
							</g>
						</g>
						<g>
							<g>
								<path class="st4" d="M369.1,75c0,1.8,0,3.7,0,5.5c0,1,1.5,1,1.5,0c0-1.8,0-3.7,0-5.5C370.6,74,369.1,74,369.1,75L369.1,75z"/>
							</g>
						</g>
						<g>
							<g>
								<path class="st4" d="M357.4,75c0,1.8,0,3.7,0,5.5c0,1,1.5,1,1.5,0c0-1.8,0-3.7,0-5.5C358.9,74,357.4,74,357.4,75L357.4,75z"/>
							</g>
						</g>
						<g>
							<g>
								<path class="st4" d="M366.4,84.8c-1.6,0.6-3.2,0.6-4.8-0.1c-0.9-0.4-1.3,1.1-0.4,1.5c1.8,0.7,3.8,0.7,5.6,0.1          C367.7,86,367.3,84.5,366.4,84.8L366.4,84.8z"/>
							</g>
						</g>
					</g>
					<g>
						<g>
							<path class="st7" d="M360.2,96c1.3,1.9,2.5,3.9,3.6,6c0.2,0.4,0.4,0.7,0.3,1.1c-0.1,0.3-0.3,0.6-0.5,0.8         c-1,1.1-2.1,2.2-3.1,3.4c-0.1,0.1-0.2,0.2-0.3,0.2c-0.3,0.1-0.5-0.2-0.6-0.4c-1.7-2.7-1.7-5.9-1.7-9c0-0.7,0-1.4,0.5-1.9         S359.7,95.4,360.2,96"/>
							<g>
								<path class="st4" d="M359.8,96.2c1,1.4,1.9,2.9,2.8,4.4c0.5,1,1.2,1.7,0.6,2.9c-0.2,0.5-1.5,1.7-1.9,2          c-1.2,0.9-1.8,1.1-2.4-0.7c-0.3-0.9-0.5-1.9-0.6-2.9c-0.1-0.7-0.4-6.9,1.6-5.6c0.5,0.3,1-0.5,0.5-0.8c-2-1.2-3,0.9-3.1,2.6          c-0.1,2.5-0.2,7.6,2,9.5c0.5,0.5,0.8,0.4,1.4,0.1c0.7-0.4,1.4-1.5,2-2.1c0.5-0.5,1.3-1.1,1.6-1.8c0.4-0.8,0.3-1.2,0-2.1          c-0.8-2.1-2.4-4.1-3.6-6C360.3,95.3,359.5,95.8,359.8,96.2L359.8,96.2z"/>
							</g>
						</g>
						<g>
							<path class="st7" d="M368.1,96c-1.3,1.9-2.5,3.9-3.6,6c-0.2,0.4-0.4,0.7-0.3,1.1c0.1,0.3,0.3,0.6,0.5,0.8         c1,1.1,2.1,2.2,3.1,3.4c0.1,0.1,0.2,0.2,0.3,0.2c0.3,0.1,0.5-0.2,0.6-0.4c1.7-2.7,1.7-5.9,1.7-9c0-0.7,0-1.4-0.5-1.9         C369.6,95.7,368.6,95.4,368.1,96"/>
							<g>
								<path class="st4" d="M367.7,95.8c-1.3,1.8-2.8,3.9-3.6,6c-0.3,0.8-0.4,1.2-0.1,2c0.3,0.7,1.2,1.3,1.7,1.8          c0.6,0.6,1.3,1.7,2,2.1c0.6,0.3,0.9,0.4,1.4-0.1c2.1-1.8,2-6.6,2-9.1c0-1.8-0.9-4.3-3.1-2.9c-0.5,0.3,0,1.1,0.5,0.8          c1.8-1.1,1.7,2.7,1.7,3.3c0,0.8,0,1.6-0.1,2.3c-0.1,1-0.3,2-0.6,2.9c0,1-0.4,1.5-1.2,1.4c-0.6,0.2-1,0-1.3-0.6          c-0.6-0.4-1.6-1.4-1.9-2c-0.5-1.1,0.1-2,0.6-2.9c0.9-1.5,1.8-3,2.8-4.4C368.8,95.8,368,95.3,367.7,95.8L367.7,95.8z"/>
							</g>
						</g>
					</g>
				</g>
			</g>
			<g>
				<rect x="384.8" y="97.5" class="st23" width="55.5" height="3"/>
				<g>
					<rect x="389" y="99.5" class="st22" width="4.6" height="17.9"/>
					<rect x="431.4" y="99.5" class="st22" width="4.6" height="17.9"/>
				</g>
			</g>
		</g>
	</g>
	<g>
		<g>
			<path class="st3" d="M876.3,175.8h-296c-5.5,0-10-4.5-10-10v-146c0-5.5,4.5-10,10-10h296c5.5,0,10,4.5,10,10v146     C886.3,171.3,881.8,175.8,876.3,175.8z"/>
			<g>
				<g>
					<g>
						<g>
							<ellipse class="st11" cx="718.3" cy="72.1" rx="20.2" ry="21.8"/>
							<path class="st9" d="M735,104.9l-11-6.4c0.6,0-2.3-0.5-4.4-0.8v-0.3c0,0-0.4,0.1-1,0.2c-0.6-0.1-1-0.2-1-0.2v0.3         c-2.1,0.3-5,0.8-4.4,0.8l-11,6.4l-1.2,13.3h16.6h2h16.6L735,104.9z"/>
							<g>
								<line class="st22" x1="717.1" y1="100.6" x2="717.1" y2="118"/>
								<line class="st22" x1="720" y1="100.6" x2="720" y2="118"/>
							</g>
							<g>
								<g>
									<path class="st4" d="M733.2,69.2c0.1,3.2,0.1,6.4-0.3,9.6l0.1,0.5c1.3-1.2,3.1-2.3,4.6-1.5c1.5,0.8,1.4,2.9,1.2,4.6           c-0.1,0.5-0.1,1-0.4,1.4c-0.8,1.5-2.9,1.4-4.5,1.1l-0.4-0.1c-1.6,3.7-4.3,6.8-7.7,9c-1,0.6-1.6,1.1-2.6,1.6l0,0.4           c0,1.2,0,2.3,0,3.5l0.1,0.8c-2.4,1.9-6.2,1.8-8.5-0.2l0.3,0c0-1.2,0-2.3,0-3.5L715,96c-1.2-0.4-2.3-0.9-3.4-1.5           c-3.8-2.2-6.9-5.6-8.7-9.6l-0.6,0.1c-1.6,0.3-3.7,0.3-4.5-1.1c-0.2-0.4-0.3-0.9-0.4-1.4c-0.2-1.7-0.3-3.8,1.2-4.6           c1.5-0.9,3.3,0.3,4.6,1.5l0.2-0.5c-0.3-3.2-0.4-6.4-0.3-9.6l0,4c6.6-0.8,11.5-1.8,15.4-7.2v0.6c3.8,5.5,7.9,5.9,14.6,6.7"/>
									<g>
										<path class="st4" d="M732.7,69.2c0.1,3.2-0.8,7.1-0.1,10.2c0.1,0.4,0.5,0.4,0.8,0.2c6.2,0.1,6.8,1.8,1.9,5.1            c-0.5,0-1.1-0.1-1.6-0.2c-0.2,0-0.4,0-0.5,0.2c-2.2,4.7-5.7,8-10.2,10.4c-0.1,0.1-0.2,0.2-0.2,0.4c0.1,1,0.4,3.2,0,3.9            c-1.1,2.3-5.4,1.2-7.7,1c0.2,0,0.5-0.2,0.5-0.5c0-1.5,0.4-3.1-0.4-4.4c-0.5-0.8-3.1-1.4-4-1.9c-1.2-0.7-2.3-1.6-3.4-2.6            c-2-1.8-3.4-4-4.5-6.4c-0.1-0.2-0.3-0.2-0.5-0.2c-0.6,0.1-1.1,0.2-1.7,0.2c-4.9-3.2-4.3-4.9,1.9-5.1            c0.2,0.2,0.6,0.2,0.7-0.1c0.8-1.9,0.3-5.5,0-7.5c-0.8-4.6-0.9-1.2-0.9,1.2c0,0.2,0.2,0.5,0.5,0.5c3.2-0.4,6.6-0.8,9.6-2.2            c1.5-0.7,3.2-1.7,4.3-3c0.6-0.6,1.6-1.9,1.1-1.9c-0.1,0,1.9,2.4,1.9,2.4c1,1,2.2,1.9,3.5,2.5c3,1.5,6.4,1.7,9.6,2.1            c0.6,0.1,0.6-0.8,0-0.9c-2.6-0.3-5.2-0.5-7.7-1.4c-2.1-0.7-6.5-3-6.5-5.4c0-0.5-0.6-0.6-0.8-0.2c-3.1,4-6.7,5.5-11.5,6.5            c-2.5,0.5-2.5,1.4-3.1-0.6c-0.2-0.7,0-1.7,0-2.4c0-0.6-0.9-0.6-0.9,0c-0.1,2.2-0.1,4.5,0,6.7c0.1,1,0.1,1.9,0.2,2.9            c-0.1-0.3-0.3-0.5-0.5-0.7c-1.5,0.1-2.2-1.6-3.9-0.7c-2.1,1.1-2.2,5-1.1,6.7c0.9,1.4,2.1,1.2,3.6,1.5            c0.3,0.1,1.4-0.4,1.7-0.2c0.6,0.4,1.5,2.9,1.9,3.5c1.2,1.6,2.6,3.1,4.2,4.3c1.2,0.9,3,1.5,4.1,2.5            c0.5,0.2,1.1,0.4,1.6,0.6c0,1,0.1,2.1,0.3,3.1c-0.5,0-0.6,0.6-0.2,0.8c2.9,2,6,2.1,9,0.2c0.2-0.1,0.2-0.3,0.2-0.5            c-0.8-4.3-0.1-4,2.9-6.2c1.9-1.4,3.6-2.9,5-4.8c0.3-0.4,1.7-3.4,2-3.6c-0.4,0.2,4.8-0.7,1.6,0.2c1.6-0.4,2.5,0,3.6-1.5            c1.2-1.7,0.9-5.7-1.1-6.7c-1.7-0.9-2.5,0.7-3.9,0.7c-0.3,0.2-0.4,0.5-0.4,0.8c0-0.7,0.1-1.4,0.1-2.1            c0.1-2.6,0.2-5.1,0.1-7.7C733.6,68.6,732.7,68.6,732.7,69.2L732.7,69.2z"/>
									</g>
								</g>
								<g>
									<path class="st4" d="M712.8,74.7c0,1.8,0,3.7,0,5.5"/>
									<g>
										<path class="st4" d="M712,74.7c0,1.8,0,3.7,0,5.5c0,1,1.5,1,1.5,0c0-1.8,0-3.7,0-5.5C713.6,73.7,712,73.7,712,74.7            L712,74.7z"/>
									</g>
								</g>
								<g>
									<path class="st4" d="M724.5,74.7c0,1.8,0,3.7,0,5.5"/>
									<g>
										<path class="st4" d="M723.7,74.7c0,1.8,0,3.7,0,5.5c0,1,1.5,1,1.5,0c0-1.8,0-3.7,0-5.5C725.3,73.7,723.7,73.7,723.7,74.7            L723.7,74.7z"/>
									</g>
								</g>
								<g>
									<path class="st4" d="M716.1,85.3c1.6,0.7,3.6,0.6,5.2-0.1"/>
									<g>
										<path class="st4" d="M715.9,86c1.8,0.7,3.8,0.7,5.6-0.1c0.9-0.4,0.5-1.8-0.4-1.5c-1.6,0.6-3.2,0.7-4.8,0.1            C715.3,84.2,714.9,85.7,715.9,86L715.9,86z"/>
									</g>
								</g>
							</g>
							<g>
								<g>
									<path class="st4" d="M714.7,95.7c1.3,1.9,2.5,3.9,3.6,6c0.2,0.4,0.4,0.7,0.3,1.1c-0.1,0.3-0.3,0.6-0.5,0.8           c-1,1.1-2.1,2.2-3.1,3.4c-0.1,0.1-0.2,0.2-0.3,0.2c-0.3,0.1-0.5-0.2-0.6-0.4c-1.7-2.7-1.7-5.9-1.7-9c0-0.7,0-1.4,0.5-1.9           C713.2,95.3,714.2,95.1,714.7,95.7"/>
									<g>
										<path class="st4" d="M714.3,95.9c1,1.4,1.9,2.9,2.8,4.4c0.5,1,1.2,1.7,0.6,2.9c-0.2,0.5-1.5,1.7-1.9,2            c-1.2,0.9-1.8,1.1-2.4-0.7c-0.3-0.9-0.5-1.9-0.6-2.9c-0.1-0.7-0.4-6.9,1.6-5.6c0.5,0.3,1-0.5,0.5-0.8            c-2-1.2-3,0.9-3.1,2.6c-0.1,2.5-0.2,7.6,2,9.5c0.5,0.5,0.8,0.4,1.4,0.1c0.7-0.4,1.4-1.5,2-2.1c0.5-0.5,1.3-1.1,1.6-1.8            c0.4-0.8,0.3-1.2,0-2.1c-0.8-2.1-2.4-4.1-3.6-6C714.8,95,714,95.4,714.3,95.9L714.3,95.9z"/>
									</g>
								</g>
								<g>
									<path class="st4" d="M722.6,95.7c-1.3,1.9-2.5,3.9-3.6,6c-0.2,0.4-0.4,0.7-0.3,1.1c0.1,0.3,0.3,0.6,0.5,0.8           c1,1.1,2.1,2.2,3.1,3.4c0.1,0.1,0.2,0.2,0.3,0.2c0.3,0.1,0.5-0.2,0.6-0.4c1.7-2.7,1.7-5.9,1.7-9c0-0.7,0-1.4-0.5-1.9           C724.1,95.3,723.1,95.1,722.6,95.7"/>
									<g>
										<path class="st4" d="M722.2,95.5c-1.3,1.8-2.8,3.9-3.6,6c-0.3,0.8-0.4,1.2-0.1,2c0.3,0.7,1.2,1.3,1.7,1.8            c0.6,0.6,1.3,1.7,2,2.1c0.6,0.3,0.9,0.4,1.4-0.1c2.1-1.8,2-6.6,2-9.1c0-1.8-0.9-4.3-3.1-2.9c-0.5,0.3,0,1.1,0.5,0.8            c1.8-1.1,1.7,2.7,1.7,3.3c0,0.8,0,1.6-0.1,2.3c-0.1,1-0.3,2-0.6,2.9c0,1-0.4,1.5-1.2,1.4c-0.6,0.2-1,0-1.3-0.6            c-0.6-0.4-1.6-1.4-1.9-2c-0.5-1.1,0.1-2,0.6-2.9c0.9-1.5,1.8-3,2.8-4.4C723.3,95.4,722.5,95,722.2,95.5L722.2,95.5z"/>
									</g>
								</g>
							</g>
						</g>
						<g>
							<path class="st7" d="M725.5,73h-14.6v-1.5h6.5v-3.6h-5.2v-1.5h5.2v-3.6h-5.9v-1.5h6.2c-0.2-0.7-0.6-1.5-1.1-2.5l1.5-0.4         c0.5,0.9,0.9,1.9,1.2,2.9h5.6v1.5H719v3.6h5.2v1.5H719v3.6h6.5V73z"/>
							<path class="st7" d="M718.1,77.8h-4.4c-0.5,0.6-1.1,1.2-1.9,1.7l-1-1.2c1.3-0.9,2.1-1.8,2.6-2.9l1.5,0.4         c-0.1,0.2-0.2,0.4-0.3,0.7h3.5V77.8z M725.2,82.8h-1.5v-1.6h-10.9v1.6h-1.5v-2.9h6.1c-0.1-0.2-0.2-0.4-0.4-0.8l1.7-0.3         c0.2,0.2,0.3,0.6,0.5,1h6V82.8z M723.6,89.5h-8.9v0.7h-1.5V82h9.8v3.2h-8.4v0.9h8.9V89.5z M716.5,79.2l-1.6,0.3         c-0.1-0.3-0.4-0.7-0.7-1.2l1.6-0.3C716,78.3,716.2,78.7,716.5,79.2z M721.6,84.1v-1h-6.9v1H721.6z M722.1,88.4v-1.2h-7.4v1.2         H722.1z M725.6,77.8h-5.2c-0.3,0.4-0.6,0.8-1,1.2l-1.4-0.7c0.9-1,1.6-1.9,2-2.9l1.5,0.4c-0.1,0.3-0.3,0.5-0.4,0.7h4.4V77.8z          M723.3,79.3l-1.6,0.3c-0.1-0.4-0.3-0.8-0.6-1.3l1.6-0.2C722.9,78.4,723.1,78.8,723.3,79.3z"/>
						</g>
					</g>
					<g>
						<ellipse class="st8" cx="619.7" cy="77.1" rx="20.2" ry="23.2"/>
						<path class="st9" d="M636.6,106.1l-11-6.4c0.6,0-2.3-0.5-4.4-0.8v-0.3c0,0-0.4,0.1-1,0.2c-0.6-0.1-1-0.2-1-0.2v0.3        c-2.1,0.3-5,0.8-4.4,0.8l-11,6.4l-1.2,13.3h16.6h2h16.6L636.6,106.1z"/>
						<g>
							<g>
								<path class="st7" d="M634.8,74.4"/>
								<g>
									<path class="st4" d="M634.8,75.2c1,0,1-1.5,0-1.5C633.8,73.7,633.8,75.2,634.8,75.2L634.8,75.2z"/>
								</g>
							</g>
							<g>
								<path class="st7" d="M634.8,70.4c0.1,3.2,0.1,6.4-0.3,9.6l0.1,0.5c1.3-1.2,3.1-2.3,4.6-1.5c1.5,0.8,1.4,2.9,1.2,4.6          c-0.1,0.5-0.1,1-0.4,1.4c-0.8,1.5-2.9,1.4-4.5,1.1l-0.4-0.1c-1.6,3.7-4.3,6.8-7.7,9c-1,0.6-1.6,1.1-2.6,1.6l0,0.4          c0,1.2,0,2.3,0,3.5l0.1,0.8c-2.4,1.9-6.2,1.8-8.5-0.2l0.3,0c0-1.2,0-2.3,0-3.5l-0.2-0.5c-1.2-0.4-2.3-0.9-3.4-1.5          c-3.8-2.2-6.9-5.6-8.7-9.6l-0.6,0.1c-1.6,0.3-3.7,0.3-4.5-1.1c-0.2-0.4-0.3-0.9-0.4-1.4c-0.2-1.7-0.3-3.8,1.2-4.6          c1.5-0.9,3.3,0.3,4.6,1.5l0.2-0.5c-0.3-3.2-0.4-6.4-0.3-9.6l0,4"/>
								<g>
									<path class="st4" d="M634,70.4c0.1,3.2-0.8,7.2-0.1,10.3c0.1,0.6,0.9,0.7,1.3,0.3c4.8-3.8,6.4,5.8,0.2,4.3           c-0.3-0.1-0.7,0-0.9,0.4c-2.2,4.6-5.6,7.9-10.1,10.3c-0.2,0.1-0.4,0.4-0.4,0.7c0.1,1,0.4,3.3,0,4c-1,1.9-5.5,1-7.3-0.2           c-0.1,0.5-0.3,1-0.4,1.4c0.1,0,0.2,0,0.3,0c0.4,0,0.8-0.4,0.8-0.8c0-1.8,0.3-3.3-0.6-4.6c-0.6-0.8-3-1.3-3.9-1.9           c-1.2-0.7-2.3-1.6-3.3-2.6c-1.9-1.8-3.3-4-4.5-6.4c-0.2-0.3-0.5-0.4-0.9-0.4c-6.4,1.2-4.5-8,0.1-4.3c0.3,0.3,1,0.3,1.2-0.2           c1.2-2.7,0-7.5,0.1-10.5c-0.5,0-1,0-1.5,0c0,1.3,0,2.7,0,4c0,1,1.5,1,1.5,0c0-1.3,0-2.7,0-4c0-1-1.5-1-1.5,0           c-0.1,2.2-0.1,4.5,0,6.7c0,0.9,0.1,1.8,0.2,2.7c0.2-0.4,0.2-0.6,0-0.8c-1.6,0.1-2.3-1.7-4.2-0.8c-2.3,1.1-2.5,5.3-1.2,7.2           c1,1.5,2.2,1.3,3.8,1.6c0.3,0.1,1.5-0.4,1.8-0.2c0.3,0.2,1.2,2.8,1.6,3.4c1.2,1.7,2.7,3.2,4.4,4.4c1.2,0.9,3,1.5,4.1,2.5           c0.5,0.2,1,0.4,1.5,0.5c-0.2,1,0,1.9,0.6,2.7c-0.8-0.1-0.9,1-0.4,1.4c3,2.1,6.2,2.2,9.3,0.2c0.3-0.2,0.4-0.5,0.4-0.9           c-0.2-0.8-0.4-3.4-0.1-4c0.1-0.3,2-1.2,2.2-1.3c2-1.2,3.7-2.8,5.2-4.6c0.7-0.9,2-3.9,2.4-4.2c1-0.6,3,0.5,4.3-0.4           c1.9-1.3,2.3-5.2,1.1-7.1c-1.8-2.7-4.7-1.1-6.6,0.5c0.4,0.1,0.9,0.2,1.3,0.3c-0.6-2.9,0.3-6.9,0.2-9.9           C635.5,69.4,634,69.4,634,70.4L634,70.4z"/>
								</g>
							</g>
							<g>
								<g>
									<path class="st4" d="M617.5,87.2c1.8,0.7,3.8,0.7,5.6-0.1c0.9-0.4,0.5-1.8-0.4-1.5c-1.6,0.6-3.2,0.7-4.8,0.1           C617,85.4,616.6,86.9,617.5,87.2L617.5,87.2z"/>
								</g>
							</g>
							<g>
								<ellipse class="st24" cx="612.6" cy="79.5" rx="0.9" ry="2.8"/>
								<ellipse class="st24" cx="627" cy="79.5" rx="0.9" ry="2.8"/>
							</g>
						</g>
						<g>
							<g>
								<path class="st7" d="M616.4,96.9c1.3,1.9,2.5,3.9,3.6,6c0.2,0.4,0.4,0.7,0.3,1.1c-0.1,0.3-0.3,0.6-0.5,0.8          c-1,1.1-2.1,2.2-3.1,3.4c-0.1,0.1-0.2,0.2-0.3,0.2c-0.3,0.1-0.5-0.2-0.6-0.4c-1.7-2.7-1.7-5.9-1.7-9c0-0.7,0-1.4,0.5-1.9          C614.8,96.5,615.9,96.3,616.4,96.9"/>
								<g>
									<path class="st4" d="M616,97.1c1,1.4,1.9,2.9,2.8,4.4c0.6,1,1.2,1.8,0.6,3c-0.2,0.5-1.5,1.7-1.9,2c-1.2,1-1.9,1.1-2.6-0.7           c-0.3-0.9-0.5-1.9-0.6-2.9c-0.1-0.7-0.5-7,1.7-5.7c0.4,0.3,0.8-0.4,0.4-0.7c-1.9-1.2-2.9,0.8-3,2.5c-0.1,2.4-0.2,7.7,2,9.4           c0.5,0.4,0.7,0.4,1.3,0.1c0.7-0.4,1.4-1.5,1.9-2.1c0.5-0.5,1.3-1.1,1.6-1.8c0.4-0.8,0.3-1.2,0-2c-0.8-2.1-2.4-4.1-3.6-6           C616.4,96.3,615.8,96.7,616,97.1L616,97.1z"/>
								</g>
							</g>
							<g>
								<path class="st7" d="M624.2,96.9c-1.3,1.9-2.5,3.9-3.6,6c-0.2,0.4-0.4,0.7-0.3,1.1c0.1,0.3,0.3,0.6,0.5,0.8          c1,1.1,2.1,2.2,3.1,3.4c0.1,0.1,0.2,0.2,0.3,0.2c0.3,0.1,0.5-0.2,0.6-0.4c1.7-2.7,1.7-5.9,1.7-9c0-0.7,0-1.4-0.5-1.9          C625.8,96.5,624.7,96.3,624.2,96.9"/>
								<g>
									<path class="st4" d="M623.9,96.7c-1.3,1.8-2.8,3.9-3.6,6c-0.3,0.8-0.4,1.2-0.1,1.9c0.3,0.7,1.2,1.3,1.6,1.8           c0.5,0.6,1.3,1.7,1.9,2.1c0.6,0.3,0.8,0.4,1.3-0.1c2.1-1.7,2-6.6,2-9c0-1.7-0.8-4.2-3-2.9c-0.4,0.3,0,0.9,0.4,0.7           c2.2-1.3,1.8,5.1,1.7,5.7c-0.1,1-0.3,2-0.6,2.9c0,1.1-0.4,1.5-1.2,1.4c-0.6,0.2-1,0-1.3-0.6c-0.6-0.4-1.6-1.4-1.9-2           c-0.5-1.1,0.1-2.1,0.6-3c0.9-1.5,1.8-3,2.8-4.4C624.8,96.7,624.2,96.3,623.9,96.7L623.9,96.7z"/>
								</g>
							</g>
						</g>
						<g>
							<g>
								<path class="st7" d="M611.1,73.8c0-1.5,0-3.1,0-4.6c0-0.4-0.7-0.4-0.7,0c0,1.5,0,3.1,0,4.6          C610.4,74.2,611.1,74.2,611.1,73.8L611.1,73.8z"/>
							</g>
						</g>
						<g>
							<g>
								<path class="st7" d="M617.5,73.8c0-1.5,0-3.1,0-4.6c0-0.4-0.7-0.4-0.7,0c0,1.5,0,3.1,0,4.6          C616.8,74.2,617.5,74.2,617.5,73.8L617.5,73.8z"/>
							</g>
						</g>
						<g>
							<g>
								<path class="st7" d="M623.9,73.8c0-1.5,0-3.1,0-4.6c0-0.4-0.7-0.4-0.7,0c0,1.5,0,3.1,0,4.6          C623.2,74.2,623.9,74.2,623.9,73.8L623.9,73.8z"/>
							</g>
						</g>
						<g>
							<g>
								<path class="st7" d="M630.3,73.8c0-1.5,0-3.1,0-4.6c0-0.4-0.7-0.4-0.7,0c0,1.5,0,3.1,0,4.6          C629.6,74.2,630.3,74.2,630.3,73.8L630.3,73.8z"/>
							</g>
						</g>
					</g>
				</g>
				<g>
					<rect x="640.9" y="98.4" class="st23" width="55.5" height="3"/>
					<g>
						<rect x="645.2" y="100.4" class="st22" width="4.6" height="17.9"/>
						<rect x="687.5" y="100.4" class="st22" width="4.6" height="17.9"/>
					</g>
				</g>
				<g>
					<g>
						<g>
							<path class="st4" d="M802.3,107.9c0.6,0.4,0.6,1.2,0,1.6l-11.6,8.2c-0.6,0.3-1,0-0.8-0.7l4.5-13.4c0.2-0.7,0.9-0.9,1.5-0.5         L802.3,107.9z"/>
							<path class="st25" d="M802.3,107.9c0.6,0.4,0.6,1.2,0,1.6l-11.6,8.2c-0.6,0.3-1,0-0.8-0.7l4.5-13.4c0.2-0.7,0.9-0.9,1.5-0.5         L802.3,107.9z"/>
						</g>
						<path class="st4" d="M841.6,57.5c-3.5,4.7-7,9.3-10.4,13.9c-1,1.3-1.9,2.7-3,4c-0.9,1.2-1.9,1.7-3.3,0.5        c-1.6-1.4-3.3-2.6-5.1-3.8c-1.6-1.1-1.3-2.2-0.4-3.4c3.3-4.4,6.5-8.7,9.8-13.1c2.3-3.1,4.7-6.3,7.1-9.4c1.9-2.5,4.2-3,6.4-1.5        c3.7,2.4,4.3,4.4,2.8,7.5c-0.5,1-0.6,2.5-0.1,3.4c1.7,3.9,0.8,7.1-1.8,10.3c-2.7,3.4-4.8,7.3-7.4,10.8        c-0.6,0.8-2.1,1.5-3.1,1.4c-1.2-0.2-2.5-1-3.3-2c-0.8-1,0.3-2.8,2.1-3.1c2.1-0.3,3.1-1.5,4.2-3.1c1.8-2.8,3.6-5.5,5.5-8.1        C842.8,60.4,842.7,59.1,841.6,57.5z"/>
						<path class="st13" d="M818.7,70.4c2.8,2.1,5.5,4,8.2,6c-8,11-15.8,21.7-23.8,32.7c-2.8-2-5.4-3.9-8.2-6        C802.9,92.1,810.7,81.3,818.7,70.4z"/>
					</g>
					<rect x="783.7" y="118.5" class="st26" width="72" height="1"/>
				</g>
				<g>
					<path class="st4" d="M774.3,87.7H767v7.2h-2.8v-7.2H757v-2.9h7.2v-7.2h2.8v7.2h7.2V87.7z"/>
				</g>
			</g>
			<g>
				<path class="st4" d="M659.6,136.3h-5.3c-0.5,0.7-1.3,1.4-2.2,2.1l-1.4-1.2c1.4-1.1,2.6-2.5,3.5-4.1l1.7,0.6      c-0.2,0.3-0.3,0.6-0.5,0.9h4.1V136.3z M668.3,144.3c0,0.9-0.1,2-0.3,3.1c-0.2,1.2-0.4,1.9-0.7,2.1c-0.3,0.3-0.6,0.4-0.9,0.5      c-0.3,0.1-1,0.1-2,0.1c-0.4,0-0.8,0-1.2,0l-0.6-1.7c0.5,0,1.1,0.1,1.7,0.1c0.8,0,1.3,0,1.4-0.1s0.3-0.3,0.4-0.6      c0.1-0.3,0.2-0.9,0.2-1.8h-5.7v5.3H659v-4.6c-1.8,1.8-4.2,3.3-7.3,4.3l-0.9-1.6c2.7-0.8,4.9-1.9,6.6-3.4h-5.8l1-4.4h6.3v-1.2      h-7.4v-1.6h16v4.4h-6.7v1.2H668.3z M659,144.3v-1.2h-4.8l-0.3,1.2H659z M658.2,137.9l-1.7,0.4c-0.2-0.3-0.5-0.8-0.9-1.3l1.7-0.4      C657.6,137.1,658,137.5,658.2,137.9z M668.7,136.3h-6.1c-0.7,0.9-1.4,1.6-2.1,2.2l-1.4-1c1.2-0.9,2.4-2.3,3.4-4.1l1.8,0.4      c-0.1,0.2-0.2,0.5-0.5,0.9h5.1V136.3z M665.7,141.5v-1.2h-4.9v1.2H665.7z M666.3,138l-1.8,0.3c-0.3-0.5-0.6-1-0.9-1.4l1.8-0.4      C665.8,137.1,666.1,137.5,666.3,138z"/>
				<path class="st4" d="M689,150.5h-17.6v-1.8H689V150.5z M687.6,136h-14.9v-1.8h14.9V136z"/>
				<path class="st4" d="M698.2,145.1h-6.6v-1.8h6.6V145.1z M697.8,137.8h-5.7V136h5.7V137.8z M709.5,149.8l-1.1,1.5      c-2.9-1.8-4.9-4-5.9-6.6c-1,2.7-3.1,4.9-6.3,6.5l-1.3-1.4c2.6-1.4,4.4-2.8,5.3-4.2c0.9-1.4,1.4-3.3,1.4-5.7c0-0.4,0-0.8,0-1.3      h1.8c0,0.4,0,0.7,0,1.1c0,1.7,0.2,3.1,0.7,4.2s1.2,2.2,2.3,3.3C707.3,148.5,708.4,149.3,709.5,149.8z M709.1,136.1      c-0.5,3-1.3,5.3-2.5,7.1l-1.5-0.8c0.8-1.3,1.4-2.8,1.8-4.5h-6.4c-0.8,1.7-1.7,3.1-2.6,4l-1.4-1.1c1.6-1.8,2.9-4.4,3.8-7.5      l1.8,0.3c-0.2,0.8-0.5,1.6-0.9,2.5H709.1z"/>
				<path class="st4" d="M729.7,135.6H722c-0.2,0.6-0.5,1.2-1,2h7.5v13.6h-1.8v-0.9H715v0.9h-1.8v-13.5h5.7c0.4-0.6,0.8-1.3,1.1-2      h-8v-1.7h17.7V135.6z M717.1,148.7v-9.4H715v9.4H717.1z M722.8,141.3v-2h-4v2H722.8z M722.8,145v-2.1h-4v2.1H722.8z       M722.8,148.7v-2.1h-4v2.1H722.8z M726.7,148.7v-9.4h-2.2v9.4H726.7z"/>
				<path class="st4" d="M738.8,137h-6.6v-1.6h2.5c-0.1-0.3-0.3-0.8-0.7-1.5l1.8-0.4c0.3,0.6,0.6,1.2,0.8,1.9h2.1V137z M738.4,140      h-5.7v-1.6h5.7V140z M738.4,142.9h-5.7v-1.6h5.7V142.9z M738.4,150.9h-1.8v-1h-2v1.3h-1.8v-7h5.7V150.9z M736.6,148.3v-2.4h-2      v2.4H736.6z M744.9,148c-2.1,1-4,1.7-5.7,2.2l-0.2-1.7c0.7-0.2,1.4-0.4,2-0.6v-5.7h-1.8v-1.6h5.1v1.6h-1.6v5      c0.5-0.2,1.2-0.5,2.1-1L744.9,148z M750.2,147.2c-0.1,1.2-0.4,2.2-0.7,3c-0.3,0.8-0.8,1.2-1.4,1.2c-1.1,0-1.9-1.1-2.3-3.3      c-0.4-2.2-0.7-5.4-0.8-9.4h-5.7v-1.7h5.7l0-3.4h1.7c0,1.6,0,2.7,0.1,3.4h3.2v1.7h-3.2c0.1,3.9,0.4,6.7,0.7,8.3s0.5,2.5,0.7,2.5      c0.1,0,0.1-0.2,0.3-0.6c0.1-0.4,0.2-1.2,0.3-2.3L750.2,147.2z M749.7,135.6l-1.2,0.9c-0.4-0.6-0.9-1.2-1.6-2l1.2-0.8      C748.8,134.3,749.3,134.9,749.7,135.6z"/>
				<path class="st4" d="M763.9,144.7h-4.3v4.2H758v-4.2h-4.3V143h4.3v-4.3h1.7v4.3h4.3V144.7z"/>
				<path class="st4" d="M776.4,136.2h-5.3c-0.7,0.9-1.3,1.6-2.1,2.1l-1.4-1.1c1.3-0.9,2.4-2.3,3.2-3.9l1.8,0.5      c-0.1,0.4-0.3,0.7-0.5,1h4.3V136.2z M785.5,149h-8v2.3h-1.8V149h-7.9v-1.4h7.9v-1h-7.3v-1.4h7.3v-0.9h-6.3V143h6.3v-0.9h-7.9      v-1.4h7.9v-0.9h-6.4v-1.4h6.4v-1h1.8v1h6.2v2.2h1.8v1.4h-1.8v2.2h-6.2v0.9h7.3v1.4h-7.3v1h8V149z M774.6,137.9l-1.8,0.4      c-0.4-0.7-0.7-1.2-1-1.5l1.8-0.4C774,137,774.4,137.5,774.6,137.9z M785.4,136.2h-6.2c-0.4,0.5-0.8,1-1.3,1.4l-1.5-1      c1-0.8,1.8-2,2.5-3.4l1.7,0.6c0,0.1-0.2,0.4-0.4,0.9h5.2V136.2z M781.9,140.8v-0.9h-4.4v0.9H781.9z M781.9,143v-0.9h-4.4v0.9      H781.9z M783.1,137.9l-1.8,0.4c-0.3-0.5-0.6-1-1.1-1.5l1.9-0.3C782.5,136.9,782.8,137.4,783.1,137.9z"/>
				<path class="st4" d="M794.6,137H788v-1.6h2.5c-0.1-0.3-0.3-0.8-0.7-1.5l1.8-0.4c0.3,0.6,0.6,1.2,0.8,1.9h2.1V137z M794.2,140      h-5.7v-1.6h5.7V140z M794.2,142.9h-5.7v-1.6h5.7V142.9z M794.2,150.9h-1.8v-1h-2v1.3h-1.8v-7h5.7V150.9z M792.4,148.3v-2.4h-2      v2.4H792.4z M800.7,148c-2.1,1-4,1.7-5.7,2.2l-0.2-1.7c0.7-0.2,1.4-0.4,2-0.6v-5.7h-1.8v-1.6h5.1v1.6h-1.6v5      c0.5-0.2,1.2-0.5,2.1-1L800.7,148z M806,147.2c-0.1,1.2-0.4,2.2-0.7,3c-0.3,0.8-0.8,1.2-1.4,1.2c-1.1,0-1.9-1.1-2.3-3.3      s-0.7-5.4-0.8-9.4H795v-1.7h5.7l0-3.4h1.7c0,1.6,0,2.7,0.1,3.4h3.2v1.7h-3.2c0.1,3.9,0.4,6.7,0.7,8.3c0.3,1.6,0.5,2.5,0.7,2.5      c0.1,0,0.1-0.2,0.3-0.6c0.1-0.4,0.2-1.2,0.3-2.3L806,147.2z M805.5,135.6l-1.2,0.9c-0.4-0.6-0.9-1.2-1.6-2l1.2-0.8      C804.6,134.3,805.1,134.9,805.5,135.6z"/>
			</g>
		</g>
		<g>
			<rect x="649.8" y="157.3" class="st4" width="156.9" height="90.1"/>
			<pattern id="SVGID_2_" xlink:href="#_x35__勗寞 潛" patternTransform="matrix(0.4369 0 0 0.4463 -4433.9731 -4369.7915)">
			</pattern>
			<rect x="649.8" y="157.3" class="st27" width="157" height="88.7"/>
			<g>
				<path class="st7" d="M683,174.3h9.4v9.4H683V174.3z"/>
				<path class="st7" d="M710.8,186.4h-1.9V185h-9.6v1.4h-1.9v-17.2h13.4V186.4z M708.9,175.9v-5h-9.6v5H708.9z M708.9,183.2v-5.5      h-9.6v5.5H708.9z"/>
				<path class="st7" d="M724.2,171.2h-5.5c-0.6,0.7-1.3,1.4-2.1,2.1l-1.3-1.4c1.2-0.9,2.2-2.1,3.1-3.5l1.8,0.5      c-0.1,0.3-0.2,0.5-0.4,0.8h4.4V171.2z M723.6,183.3l-1,1.5c-0.6-0.8-1.2-1.5-2-2.1v3.7H719v-4.1c-1.1,1.5-2,2.6-2.7,3.2      l-0.9-1.6c1.4-1.2,2.4-2.4,3.1-3.5h-2.8v-1.5h3.4v-1.1H716v-1.4h2.9v-1c-0.8,0.1-1.8,0.2-2.9,0.2l-0.5-1.5      c1.4,0,2.5-0.1,3.3-0.2v-1.2h1.7v1c1.1-0.1,1.8-0.3,2.3-0.4l0.5,1.4c-0.9,0.2-1.9,0.4-2.8,0.5v1.2h2.3v1.4h-2.3v1.1h2.8v1.5      h-2.8v0.4C721.8,181.5,722.7,182.4,723.6,183.3z M722.8,172.5l-1.7,0.5c-0.3-0.5-0.6-0.9-0.9-1.3l1.7-0.4      C722.3,171.8,722.6,172.2,722.8,172.5z M733.3,171.2h-6.5c-0.7,0.8-1.5,1.5-2.3,2.2l-1.2-1.3c1.5-1.1,2.6-2.3,3.4-3.6l1.7,0.6      l-0.4,0.7h5.3V171.2z M733.3,178.4h-9.8V177h2v-1.4h-1.7V174h1.7v-1.3h1.7v1.3h2.4v-1.3h1.7v1.3h1.6v1.5h-1.6v1.4h2V178.4z       M732.5,186.4h-1.7v-0.7h-5v0.7h-1.7v-7.2h8.4V186.4z M730.8,181.8v-1.1h-5v1.1H730.8z M730.8,184.3v-1.1h-5v1.1H730.8z       M729.5,177v-1.4h-2.4v1.4H729.5z M729.6,172.6l-1.7,0.5l-0.7-1.2l1.7-0.5C729.1,171.6,729.3,172,729.6,172.6z"/>
				<path class="st7" d="M753.5,185.9h-17.6v-1.8h7.9v-4.4h-6.2V178h6.2v-4.3h-7.2v-1.8h7.5c-0.3-0.9-0.7-1.8-1.3-3l1.8-0.5      c0.6,1.1,1.1,2.3,1.5,3.5h6.8v1.8h-7.2v4.3h6.2v1.8h-6.2v4.4h7.9V185.9z"/>
				<path class="st7" d="M764.8,171.3h-5.4c-0.6,0.7-1.4,1.4-2.3,2.1L756,172c1.6-1,2.6-2.2,3.1-3.5l1.8,0.5      c-0.1,0.3-0.2,0.5-0.4,0.8h4.3V171.3z M773.4,177.4h-1.8v-2h-13.2v2h-1.8v-3.5h7.3c-0.1-0.2-0.2-0.5-0.5-0.9l2.1-0.3      c0.2,0.3,0.4,0.7,0.7,1.2h7.2V177.4z M771.5,185.6h-10.8v0.8H759v-9.9h11.9v3.9h-10.1v1.1h10.8V185.6z M763,173.1l-2,0.4      c-0.2-0.4-0.5-0.9-0.9-1.4l1.9-0.4C762.3,171.9,762.6,172.4,763,173.1z M769.1,179v-1.2h-8.3v1.2H769.1z M769.7,184.2v-1.4h-9      v1.4H769.7z M773.9,171.3h-6.3c-0.3,0.5-0.7,1-1.2,1.4l-1.6-0.9c1.1-1.2,1.9-2.3,2.4-3.5l1.8,0.5c-0.2,0.4-0.3,0.6-0.4,0.8h5.3      V171.3z M771.2,173.2l-2,0.3c-0.2-0.5-0.4-1-0.8-1.6l2-0.2C770.7,172.1,770.9,172.6,771.2,173.2z"/>
				<path class="st7" d="M683,198.6h9.4v9.4H683V198.6z"/>
				<path class="st7" d="M704.5,199.4l-0.9,1.4c-1-0.6-1.9-1.1-2.9-1.5v1.7h2.7v7.8h-1.6v-0.8h-4v0.9h-1.6v-7.3      c-0.3,0.2-0.5,0.3-0.6,0.4l-0.8-1.6c1.4-0.8,2.5-1.7,3.4-2.7h-3v-1.5h3.8v-2.8c-1.3,0.1-2.3,0.2-3.1,0.2l-0.6-1.5      c2.9-0.1,5.3-0.4,7.2-1l1,1.4c-0.7,0.3-1.7,0.5-2.8,0.7v3h3v1.5h-3.1C702.2,198.3,703.5,198.8,704.5,199.4z M698.4,195.4      l-1.4,0.6c-0.4-0.6-0.7-1.1-1-1.5l1.4-0.6C697.8,194.2,698.1,194.8,698.4,195.4z M699.1,201v-1.8c-0.6,0.7-1.2,1.3-1.8,1.8      H699.1z M699.2,203.9v-1.4h-1.3v1.4H699.2z M699.2,206.6v-1.3h-1.3v1.3H699.2z M701.9,203.9v-1.4h-1.1v1.4H701.9z M701.9,206.6      v-1.3h-1.1v1.3H701.9z M703.6,194c-0.4,0.8-0.7,1.5-1.1,2l-1.3-0.7c0.4-0.5,0.7-1.2,1.2-2L703.6,194z M706.1,200.5      c-0.3,2.2-0.6,3.9-1,5.1l-1.4-0.7c0.4-1.4,0.8-3.1,1-5L706.1,200.5z M707.9,207.4c0,0.5-0.2,1-0.5,1.3c-0.3,0.3-0.7,0.5-1.2,0.5      c-0.5,0-1,0-1.7,0l-0.4-1.6l1.9,0c0.3,0,0.4-0.2,0.4-0.5v-13.5h-2.5v-1.7h4.1V207.4z M706.2,198.6l-1.4,0.5      c-0.2-1.3-0.4-2.5-0.8-3.7l1.4-0.5C705.7,196.3,706,197.5,706.2,198.6z M710.7,200.6c-0.4,2.2-0.8,3.8-1.2,4.9l-1.3-0.9      c0.4-1.1,0.8-2.7,1.2-4.7L710.7,200.6z M710.8,198.5l-1.4,0.6c-0.4-1.6-0.7-2.8-1.1-3.7l1.5-0.5      C710.1,195.8,710.5,197,710.8,198.5z M712.6,207.4c0,0.4-0.2,0.8-0.6,1.2c-0.4,0.4-1.3,0.6-2.9,0.6l-0.5-1.7h1.9      c0.1,0,0.2-0.1,0.3-0.2c0.1-0.1,0.2-0.3,0.2-0.4v-13.4h-2.4v-1.7h4V207.4z"/>
				<path class="st7" d="M721.9,194.7h-6.3v-1.6h2.4c0-0.1-0.2-0.7-0.6-1.8l1.8-0.3c0.1,0.2,0.3,0.6,0.4,1.1c0.2,0.5,0.3,0.8,0.3,1      h2V194.7z M721.5,197.7H716V196h5.5V197.7z M721.5,200.7H716l0-1.7h5.5V200.7z M721.4,208.7h-1.8v-0.9h-1.8v1.2H716v-6.9h5.4      V208.7z M719.6,206.1v-2.3h-1.8v2.3H719.6z M733.2,201.1h-2c-0.1,0.3-0.3,0.8-0.6,1.4h2.1v1.5h-4.3v1.3h4.7v1.5h-4.7v2.3h-1.8      v-2.3H722v-1.5h4.7V204h-4.1v-1.5h2.4c-0.1-0.6-0.3-1-0.6-1.4h-2.4v-1.5h4.7v-1.1h-4.2V197h4.2v-0.9h-4.2v-4.5h10.4v4.5h-4.4      v0.9h4.3v1.4h-4.3v1.1h4.7V201.1z M725.5,194.6v-1.5h-1.3v1.5H725.5z M729.4,201.1h-3c0.2,0.5,0.4,1,0.5,1.4h1.9      C729.1,202,729.3,201.6,729.4,201.1z M728.4,194.6v-1.5h-1.3v1.5H728.4z M731.2,194.6v-1.5h-1.3v1.5H731.2z"/>
				<path class="st7" d="M740.4,197.6c1.1,1.5,1.6,3,1.6,4.4c0,0.8-0.1,1.4-0.4,1.8s-0.6,0.7-1,0.8s-1,0.2-1.9,0.2l-0.4-1.8      c0.2,0,0.4,0,0.7,0c0.5,0,0.8-0.1,1-0.2c0.2-0.1,0.3-0.4,0.3-0.9c0-0.6-0.2-1.3-0.5-2.1c-0.3-0.8-0.8-1.5-1.2-2      c0.6-1.4,1.1-2.8,1.6-4.3h-2.1v15.6h-1.8v-17.3h5.7v1.8C741.4,195.1,740.9,196.4,740.4,197.6z M753.6,199.9h-11.5v-1.7h2.7      c-0.4-1.1-0.8-2-1.2-2.7l1.1-0.8h-2.1V193h4c-0.2-0.5-0.5-1-0.8-1.4l1.9-0.5c0.4,0.7,0.7,1.4,1,2h4.5v1.7h-2.5l1.2,0.8      c-0.3,1-0.7,1.9-1.2,2.7h2.9V199.9z M752.4,209.1h-1.8v-0.9h-5.5v0.9h-1.9v-7.6h9.2V209.1z M750.6,206.5v-3.3h-5.5v3.3H750.6z       M750.2,194.7h-5c0.3,0.6,0.8,1.8,1.3,3.5h2.3C749.6,196.8,750,195.6,750.2,194.7z"/>
				<path class="st7" d="M773.2,207.4c0,0.4-0.1,0.8-0.4,1.1s-0.7,0.5-1.2,0.5s-1.2,0.1-1.8,0.1c-0.5,0-1,0-1.5,0l-0.6-1.8      c0.4,0,0.9,0,1.4,0c1.2,0,1.9,0,2.1-0.1s0.3-0.2,0.3-0.4v-13.2h-12.6V209H757v-17.3h16.2V207.4z M770.2,197h-10.3v-1.7h10.3V197      z M769.2,205.3H761v-6.5h8.2V205.3z M767.4,203.6v-3.1h-4.6v3.1H767.4z"/>
				<path class="st7" d="M683,223h9.4v9.4H683V223z"/>
				<path class="st7" d="M697.2,220.3c-0.1,1.9-0.3,3.6-0.7,5.1l-1.5-0.7c0.3-1.6,0.5-3.1,0.6-4.7L697.2,220.3z M701.5,221.6      l-1.1,1.4c-0.2-0.4-0.5-0.8-0.9-1.3v11.7h-1.8l-0.1-17.8l0,0l1.7,0v3.8C700.2,220.1,700.9,220.8,701.5,221.6z M712.9,233h-11.6      v-1.7h5.2V227h-4.2v-1.7h4.2v-3.7H704c-0.5,1.3-1.1,2.4-1.5,3.1l-1.6-0.8c1.2-1.8,2-4.1,2.6-6.8l1.7,0.3      c-0.1,0.6-0.3,1.5-0.6,2.6h1.9v-4.1h1.8v4.1h4.2v1.7h-4.2v3.8h3.7v1.7h-3.7v4.3h4.7V233z"/>
				<path class="st7" d="M732.4,231.7c0,0.5-0.2,0.8-0.5,1.1c-0.3,0.3-0.7,0.5-1.1,0.5l-3.2,0l-0.7-1.8c1,0,2,0.1,3.1,0.1      c0.4,0,0.6-0.2,0.6-0.6v-11.1h-12.4v13.5h-1.8v-15.2h3.9c0.6-1,1.2-1.9,1.6-2.7l1.9,0.3c-0.3,0.8-0.8,1.6-1.3,2.4h10V231.7z       M728.4,229.6h-8.1v-7.5h8.1V229.6z M726.6,228v-4h-4.5v4H726.6z"/>
				<path class="st7" d="M739.8,226.8c-0.6,2.1-1.4,4.4-2.5,6.8l-1.5-1.1c1-2.2,1.8-4.4,2.5-6.7L739.8,226.8z M740.1,223.2l-1.2,1.4      c-0.7-0.8-1.8-1.6-3.2-2.5l1.2-1.4C738.1,221.5,739.1,222.3,740.1,223.2z M740.2,218.5l-1.2,1.4c-0.8-1-1.8-2-2.9-2.9l1.3-1.4      C738.3,216.3,739.2,217.3,740.2,218.5z M746.9,228.7h-4.6l1.3,0.8c-0.8,1.6-1.7,3-2.8,4.1l-1.5-1c1.1-1.2,2-2.5,2.7-3.9h-1.4      v-12.5h6.3V228.7z M745.2,219.8v-2h-2.8v2H745.2z M745.2,223.5v-2.1h-2.8v2.1H745.2z M745.2,227.1v-2h-2.8v2H745.2z       M747.6,232.5l-1.6,0.7c-0.3-0.9-0.9-2-1.7-3.3l1.6-0.8C746.6,230.3,747.2,231.4,747.6,232.5z M750,229.7h-1.7v-12.6h1.7V229.7z       M753.2,231.4c0,0.8-0.2,1.3-0.7,1.6c-0.4,0.3-1.2,0.4-2.2,0.4c-0.3,0-0.7,0-1.3,0l-0.5-1.7c1.5,0,2.4,0,2.6,0      c0.2-0.1,0.3-0.3,0.3-0.5v-15.5h1.7V231.4z"/>
				<path class="st7" d="M757.4,227c0,1.7-0.2,3.3-0.6,5l-0.9-0.3c0.3-1.5,0.5-3.1,0.6-4.8L757.4,227z M763.3,217.6h-1.9v1.3h1.4      v1.5h-1.4v1.3h1.4v1.4h-1.4v1.4h1.8c0,4.4-0.1,6.9-0.4,7.7c-0.3,0.8-1,1.1-2.2,1.1c-0.2,0-0.4,0-0.7,0l-0.6-1.6l1.7,0      c0.2,0,0.3-0.1,0.4-0.3c0.1-0.2,0.2-2,0.3-5.3h-4.7v-10h6.4V217.6z M758.8,231.5l-0.9,0.2c0-0.6,0.1-1.3,0.1-1.9      c0-0.9,0-1.7-0.1-2.6l0.8-0.1c0.1,1,0.2,2.1,0.2,3.2C758.8,230.6,758.8,231,758.8,231.5z M759.8,218.9v-1.3h-1.3v1.3H759.8z       M759.8,221.6v-1.3h-1.3v1.3H759.8z M759.8,224.5v-1.4h-1.3v1.4H759.8z M760.1,230.7l-0.8,0.2c0-1.5-0.1-2.8-0.3-3.9l0.8-0.1      C760,227.9,760.1,229.1,760.1,230.7z M761.2,229.9l-0.7,0.2c0-1-0.1-2.1-0.4-3.4l0.7-0.1C761,227.5,761.2,228.6,761.2,229.9z       M768.3,231.1l-1.1,1.3c-0.4-0.5-0.8-0.9-1.2-1.2c-0.5,0.9-1,1.7-1.6,2.4l-1.5-1c1-1.1,1.9-2.7,2.6-4.7l1.7,0.4      c-0.1,0.4-0.3,0.9-0.4,1.2C767.4,230.1,767.9,230.6,768.3,231.1z M774.1,220.1l-0.8,1.6c-0.8-0.5-1.5-0.9-2.2-1.4v1h-5.4v-1      c-0.8,0.7-1.5,1.1-1.9,1.4L763,220c2.4-1.4,4-3,4.9-4.6l1.8,0.4c-0.1,0.1-0.2,0.3-0.3,0.4C770.5,217.6,772.1,219,774.1,220.1z       M768,227.5h-4.1v-5.2h4.1V227.5z M766.6,226v-2.1h-1.2v2.1H766.6z M770.6,219.8c-0.7-0.6-1.4-1.3-2.1-2.2      c-0.6,0.8-1.3,1.5-2.2,2.2H770.6z M774,232.1l-1.2,1.4c-0.5-0.7-1.2-1.3-2-2c-0.4,0.7-0.9,1.4-1.5,2.1l-1.6-0.9      c1.2-1.3,2-2.9,2.7-4.7l1.7,0.3c-0.1,0.4-0.2,1-0.5,1.6C772.6,230.6,773.4,231.3,774,232.1z M773,227.5h-4.1v-5.2h4.1V227.5z       M771.6,226v-2.1h-1.2v2.1H771.6z"/>
			</g>
		</g>
	</g>
	<g>
		<path class="st4" d="M264.3,126.5l-1.1,1.6c-3.2-1.5-5.9-3.1-8.1-5c-2,1.6-4.6,3.3-7.8,4.9l-1.2-1.5c3.8-1.8,6.7-3.7,8.7-5.7    l1.9,0.7c-0.1,0.1-0.2,0.3-0.3,0.4C258.4,123.5,261,125.1,264.3,126.5z M261.8,138.7h-1.9v-1h-9.5v1h-1.9v-8.3h13.3V138.7z     M259.9,135.9v-3.7h-9.5v3.7H259.9z M259.8,128.3h-9.3v-1.7h9.3V128.3z"/>
		<path class="st4" d="M252.8,149.1l-1.2,1.4c-0.1-0.3-0.3-0.8-0.7-1.4v9.8h-1.8v-8.7c-0.7,1.6-1.4,2.7-2.1,3.5l-0.9-1.7    c1.2-1.4,2.2-3.2,2.9-5.5h-2.7v-1.7h2.8v-3.5h1.8v3.5h1.7v1.7h-1.7v0.2C251.8,147.6,252.4,148.4,252.8,149.1z M264,149.4l-0.9,1.6    c-2-0.6-3.5-1.4-4.7-2.2c-1.4,0.9-3,1.7-4.6,2.3l-1-1.5c1.7-0.6,3.1-1.2,4.2-1.9c-0.7-0.8-1.2-1.4-1.5-2.1c-0.6,0.5-1.1,0.9-1.3,1    l-1.2-1.3c1.5-1,2.8-2.4,3.9-4.3l1.7,0.5c0,0.1-0.2,0.5-0.6,1h4.8v1.7c-0.7,1.3-1.7,2.4-2.8,3.4C261.1,148.5,262.5,149,264,149.4z     M262.8,158.9h-1.8v-0.7H256v0.7h-1.8v-7.5h8.5V158.9z M260.9,156.4v-3.3H256v3.3H260.9z M260.7,144.3h-3.9l-0.1,0.1    c0.5,0.9,1.1,1.7,1.8,2.3C259.4,146,260.2,145.2,260.7,144.3z"/>
	</g>
	<g>
		<path class="st4" d="M548.3,126.5l-1.1,1.6c-3.2-1.5-5.9-3.1-8.1-5c-2,1.6-4.6,3.3-7.8,4.9l-1.2-1.5c3.8-1.8,6.7-3.7,8.7-5.7    l1.9,0.7c-0.1,0.1-0.2,0.3-0.3,0.4C542.3,123.5,545,125.1,548.3,126.5z M545.8,138.7h-1.9v-1h-9.5v1h-1.9v-8.3h13.3V138.7z     M543.9,135.9v-3.7h-9.5v3.7H543.9z M543.8,128.3h-9.3v-1.7h9.3V128.3z"/>
		<path class="st4" d="M536.8,149.1l-1.2,1.4c-0.1-0.3-0.3-0.8-0.7-1.4v9.8h-1.8v-8.7c-0.7,1.6-1.4,2.7-2.1,3.5l-0.9-1.7    c1.2-1.4,2.2-3.2,2.9-5.5h-2.7v-1.7h2.8v-3.5h1.8v3.5h1.7v1.7h-1.7v0.2C535.7,147.6,536.3,148.4,536.8,149.1z M548,149.4l-0.9,1.6    c-2-0.6-3.5-1.4-4.7-2.2c-1.4,0.9-3,1.7-4.6,2.3l-1-1.5c1.7-0.6,3.1-1.2,4.2-1.9c-0.7-0.8-1.2-1.4-1.5-2.1c-0.6,0.5-1.1,0.9-1.3,1    l-1.2-1.3c1.5-1,2.8-2.4,3.9-4.3l1.7,0.5c0,0.1-0.2,0.5-0.6,1h4.8v1.7c-0.7,1.3-1.7,2.4-2.8,3.4C545.1,148.5,546.4,149,548,149.4z     M546.7,158.9h-1.8v-0.7H540v0.7h-1.8v-7.5h8.5V158.9z M544.9,156.4v-3.3H540v3.3H544.9z M544.7,144.3h-3.9l-0.1,0.1    c0.5,0.9,1.1,1.7,1.8,2.3C543.4,146,544.1,145.2,544.7,144.3z"/>
	</g>
	<g>
		<path class="st4" d="M924.8,126.5l-1.1,1.6c-3.2-1.5-5.9-3.1-8.1-5c-2,1.6-4.6,3.3-7.8,4.9l-1.2-1.5c3.8-1.8,6.7-3.7,8.7-5.7    l1.9,0.7c-0.1,0.1-0.2,0.3-0.3,0.4C918.8,123.5,921.4,125.1,924.8,126.5z M922.2,138.7h-1.9v-1h-9.5v1h-1.9v-8.3h13.3V138.7z     M920.4,135.9v-3.7h-9.5v3.7H920.4z M920.3,128.3H911v-1.7h9.3V128.3z"/>
		<path class="st4" d="M913.3,149.1l-1.2,1.4c-0.1-0.3-0.3-0.8-0.7-1.4v9.8h-1.8v-8.7c-0.7,1.6-1.4,2.7-2.1,3.5l-0.9-1.7    c1.2-1.4,2.2-3.2,2.9-5.5h-2.7v-1.7h2.8v-3.5h1.8v3.5h1.7v1.7h-1.7v0.2C912.2,147.6,912.8,148.4,913.3,149.1z M924.5,149.4    l-0.9,1.6c-2-0.6-3.5-1.4-4.7-2.2c-1.4,0.9-3,1.7-4.6,2.3l-1-1.5c1.7-0.6,3.1-1.2,4.2-1.9c-0.7-0.8-1.2-1.4-1.5-2.1    c-0.6,0.5-1.1,0.9-1.3,1l-1.2-1.3c1.5-1,2.8-2.4,3.9-4.3l1.7,0.5c0,0.1-0.2,0.5-0.6,1h4.8v1.7c-0.7,1.3-1.7,2.4-2.8,3.4    C921.5,148.5,922.9,149,924.5,149.4z M923.2,158.9h-1.8v-0.7h-4.9v0.7h-1.8v-7.5h8.5V158.9z M921.4,156.4v-3.3h-4.9v3.3H921.4z     M921.2,144.3h-3.9l-0.1,0.1c0.5,0.9,1.1,1.7,1.8,2.3C919.9,146,920.6,145.2,921.2,144.3z"/>
	</g>
</g>
</svg>