<?xml version="1.0" encoding="UTF-8"?>
<!-- Generator: Adobe Illustrator 22.1.0, SVG Export Plug-In . SVG Version: 6.00 Build 0)  -->
<svg version="1.1" id="圖層_1" xmlns="http://www.w3.org/2000/svg" xmlns:xlink="http://www.w3.org/1999/xlink" x="0px" y="0px" width="474.1px" height="118.5px" viewBox="0 0 474.1 118.5" style="enable-background:new 0 0 474.1 118.5;" xml:space="preserve">
<style type="text/css">
	.st0{fill:#222222;}
	.st1{fill:#009EA2;}
</style>
<g>
	<g>
		<g>
			<path class="st0" d="M162.5,5.6v11.6h3.1v1.7h-18.7v-1.7h3V5.6H162.5z M156.7,0.1c0.3,0.5,0.5,1.1,0.7,1.7h7.8v4.8h-2v-3h-14v2.9     h-2V1.8h8.1c-0.2-0.5-0.5-1-0.8-1.4L156.7,0.1z M151.8,9.5h8.7V7.4h-8.7V9.5z M151.8,13.3h8.7v-2h-8.7V13.3z M151.8,17.1h8.7V15     h-8.7V17.1z"/>
			<path class="st0" d="M175,0.1l1.4,1.2c-1.4,1.8-3.2,3.4-5.3,4.9l-1.3-1.7C171.7,3.3,173.5,1.9,175,0.1z M174.8,5.2l1.7,0.8     c-0.7,1.4-1.3,2.6-2.1,3.5v9.6h-2v-7.4c-0.6,0.6-1.3,1.2-2,1.8l-0.7-2.4c1-0.8,1.9-1.7,2.7-2.6C173.3,7.9,174.1,6.7,174.8,5.2z      M176,9.2h12.4v1.6h-2.2V12h2.7v1.7h-2.7v3.6c0,0.7-0.2,1.2-0.5,1.5s-0.8,0.5-1.6,0.5h-2.4l-0.4-2c1,0.1,1.8,0.2,2.4,0.2     c0.5,0,0.7-0.2,0.7-0.5v-3.3h-8.9V12h8.9v-1.3h-8.3L176,9.2L176,9.2z M176.9,0.9h11V8h-11V0.9z M179.4,14.1     c0.7,0.8,1.2,1.6,1.7,2.5l-1.8,0.8c-0.5-1-1.1-1.9-1.7-2.7L179.4,14.1z M178.8,3.8h7.2V2.4h-7.2V3.8z M186,6.5V5.2h-7.2v1.3H186z     "/>
			<path class="st0" d="M202,0.2l0.6,1.9c-1,0.3-2.2,0.6-3.4,0.9v2.8h3.8v1.9h-3.8v0.2c1.3,1.3,2.7,2.7,4,4.3l-1.1,1.7     c-1.1-1.6-2.1-2.9-2.9-3.9v9.3h-1.9v-9.1c-0.4,0.9-0.8,1.7-1.1,2.2c-0.7,1.2-1.5,2.3-2.6,3.4l-1.1-1.9c1-0.9,1.9-2,2.6-3.3     c0.5-0.9,1-1.9,1.4-3.1h-3.7V5.8h4.3V3.3c-1.1,0.2-2.3,0.3-3.6,0.4l-0.4-1.9C196.6,1.6,199.5,1.1,202,0.2z M204.3,1.7h2v13.4h-2     V1.7z M209,0.1h2.1V17c0,0.8-0.2,1.3-0.5,1.6c-0.3,0.3-0.9,0.5-1.8,0.5h-3.4l-0.4-2.2c1.3,0.1,2.4,0.2,3.2,0.2     c0.5,0,0.8-0.2,0.8-0.5L209,0.1L209,0.1z"/>
			<path class="st0" d="M217.1,0.7h16.4v1.6h-7.1v1h8.5v4.9h-2V4.8h-6.5v4.5h-1.9V4.8h-6.4v3.5h-2v-5h8.4v-1h-7.3L217.1,0.7     L217.1,0.7z M216.1,10.2h18.7v1.6h-8.6l-0.6,1.3h8.3v4.4c0,0.5-0.2,1-0.5,1.3s-0.7,0.4-1.2,0.4h-1.9l-0.3-1.6l1.5,0.1     c0.4,0,0.6-0.2,0.6-0.7v-2.4h-3.3V19H227v-4.4h-3V19h-1.8v-4.3h-3v4.7h-2v-6.2h6.4l0.6-1.3h-8.1V10.2z M218.8,5.6h4.9V7h-4.9V5.6     z M218.8,8h4.9v1.3h-4.9V8z M227.2,5.6h5.1V7h-5.1V5.6z M227.2,8h5.1v1.3h-5.1V8z"/>
			<path class="st0" d="M239.2,0.8h19v1.7h-6.3v1.6h5.2v5.4h-8.4c-0.4,0.5-0.7,1-1,1.4h10.5v1.7h-4c-0.7,1.2-1.4,2.2-2.1,2.9     c2.1,0.6,4.1,1.4,6,2.2l-1.6,1.6c-1.8-0.9-3.9-1.7-6.2-2.4c-1.9,1.1-5.3,1.9-10.4,2.5l-0.7-1.9c3.9-0.2,6.8-0.7,8.6-1.4     c-1.8-0.5-3.8-0.9-6-1.3c0.8-0.8,1.5-1.6,2.2-2.3h-5.1V11h6.5c0.4-0.5,0.7-0.9,1-1.4h-6.3V4.2h5.1V2.5h-6V0.8z M245.1,8V5.8H242     V8H245.1z M250.1,15.1c0.8-0.6,1.5-1.4,2.1-2.4h-5.9c-0.4,0.5-0.8,0.9-1.2,1.3C247.1,14.4,248.8,14.8,250.1,15.1z M249.9,4.2V2.5     H247v1.6L249.9,4.2L249.9,4.2z M249.9,8V5.8H247V8H249.9z M255.1,8V5.8h-3.2V8H255.1z"/>
			<path class="st0" d="M266.5,0.1l1.9,0.2c-0.2,1.1-0.6,2.1-1,3.1h3v4.4c0.6-1,1.1-2,1.4-3c0.4-1.2,0.8-2.7,1-4.7l2.1,0.3     c-0.2,1.1-0.4,2.1-0.6,3h6.5c0,7.4-0.1,11.7-0.3,13.1c-0.2,1.1-0.6,1.8-1.1,2.1c-0.6,0.4-1.7,0.6-3.3,0.6c-0.5,0-1,0-1.6-0.1     l-0.3-2.1c0.6,0.1,1.2,0.2,1.9,0.2c1.3,0,2.1-0.4,2.2-1.3c0.3-1.1,0.4-4.6,0.5-10.6h-5c-0.1,0.1-0.1,0.3-0.1,0.3     c-0.5,1.5-1.2,3.1-2.3,4.8l-1-1.2v8.6h-1.8v-1h-3.8v1.6H263v-15h2.6C265.9,2.4,266.2,1.3,266.5,0.1z M264.7,9.2h3.8v-4h-3.8V9.2z      M264.7,15.1h3.8v-4.2h-3.8V15.1z M274.4,8c1.2,1.9,2.1,3.6,2.8,5l-2,1.3c-0.6-1.5-1.4-3.3-2.5-5.2L274.4,8z"/>
			<path class="st0" d="M293.6,0h2.3v5c0.7,3.1,1.7,5.6,3.1,7.5c1.1,1.6,2.9,3.3,5.5,5l-1.4,1.9c-2.1-1.4-3.7-2.7-4.8-4     c-1.4-1.6-2.5-3.5-3.4-5.9c-0.7,2.4-1.6,4.3-2.8,5.6c-1.2,1.5-3.1,2.9-5.7,4.3l-1.3-1.9c3.2-1.9,5.3-4,6.5-6.2     c1.2-2.2,1.8-4.3,1.9-6.3L293.6,0L293.6,0z"/>
			<path class="st0" d="M310.9,14.6l1.7,0.3c-0.7,1.7-1.7,3.2-3,4.4l-1.6-1C309.5,17.2,310.4,15.9,310.9,14.6z M309.5,0.8h7.2v13     h-7.2V0.8z M311.2,4.6h3.8V2.4h-3.8V4.6z M311.2,8.3h3.8V6h-3.8V8.3z M315,12.3V9.8h-3.8v2.5H315z M315,14.5     c1.3,1.4,2.4,2.6,3.1,3.5l-1.6,1.1c-0.7-1.1-1.7-2.4-2.9-3.8L315,14.5z M317.5,3.6h5.4V0.1h2v3.5h2.6v1.8h-2.6v11.7     c0,0.7-0.2,1.2-0.5,1.5c-0.3,0.3-0.9,0.5-1.8,0.5h-2.4l-0.4-2c1,0.1,1.8,0.2,2.4,0.2c0.5,0,0.8-0.2,0.8-0.5v-9     c-1.2,3.1-2.7,5.7-4.4,7.8l-1.3-2c2.1-2.3,3.8-5,4.9-8.2h-4.6L317.5,3.6L317.5,3.6z"/>
		</g>
	</g>
	<g>
		<path class="st1" d="M23.8,55.9H9.1v26.6H0v-36h23.8V55.9z"/>
		<path class="st1" d="M82.1,93.9c0,5.4-2.1,9.7-6.4,12.9c-3.8,2.9-8.5,4.3-14.1,4.3c-12.9,0-19.5-6.3-19.8-18.9H52    c0.1,3.4,0.9,5.9,2.4,7.5c1.5,1.6,4,2.4,7.3,2.4c2.8,0,5.2-0.7,7.2-2.1c2.2-1.7,3.3-3.9,3.3-6.7c0-2.8-1.2-4.8-3.6-6.2    c-1.9-1-4.4-1.6-7.5-1.6c-0.7,0-2.1,0.1-4.2,0.4v-9.6c1.8,0.2,3.5,0.3,5,0.3c2.6,0,4.8-0.6,6.6-1.7c2-1.4,3-3.4,3-5.8    c0-2.4-1-4.2-3.1-5.5c-1.7-1-3.9-1.5-6.4-1.5c-3.3,0-5.6,0.7-7,2c-1.3,1.4-2,3.7-2.3,7h-9.8c0.2-11.9,6.4-17.8,18.4-17.8    c5.6,0,10.2,1.2,13.8,3.6c4.2,2.8,6.3,6.9,6.3,12.3c0,4.8-2.1,8.7-6.4,11.7C79.7,84.1,82.1,88.5,82.1,93.9z"/>
		<path class="st1" d="M134.7,92c-1.6,12.7-8.6,19.1-21,19.1c-8.3,0-14.7-2.8-19.1-8.4c-4.1-5.1-6.1-11.9-6.1-20.4    c0-8.4,2.1-15.3,6.2-20.5c4.5-5.7,10.8-8.5,19-8.5c6.1,0,10.9,1.6,14.4,4.8c3.7,3.3,5.7,7.9,5.8,13.9h-10c-0.5-3.3-1.5-5.7-3-7.2    c-1.6-1.5-4-2.3-7.3-2.3c-5.2,0-9.1,2.1-11.7,6.3c-2.2,3.5-3.3,8-3.3,13.5c0,5.5,1.1,10,3.3,13.4c2.6,4.1,6.5,6.2,11.7,6.2    c6,0,9.6-3.3,11-9.8H134.7z"/>
		<path class="st1" d="M185,87h-17.2v17.1h-7.6V87h-17.2v-7.6h17.2V62.3h7.6v17.1H185V87z"/>
		<path class="st1" d="M214.8,110.1h-9.7V68.6c-2.3,1.7-5.3,3.2-9,4.7V62.9c5.1-2.3,9.2-5.2,12.1-8.5h6.5V110.1z"/>
		<path class="st1" d="M283.1,92c-1.6,12.7-8.6,19.1-21,19.1c-8.3,0-14.7-2.8-19.1-8.4c-4.1-5.1-6.1-11.9-6.1-20.4    c0-8.4,2.1-15.3,6.2-20.5c4.5-5.7,10.8-8.5,19-8.5c6.1,0,10.9,1.6,14.4,4.8c3.7,3.3,5.7,7.9,5.8,13.9h-10c-0.5-3.3-1.5-5.7-3-7.2    c-1.6-1.5-4-2.3-7.3-2.3c-5.2,0-9.1,2.1-11.7,6.3c-2.2,3.5-3.3,8-3.3,13.5c0,5.5,1.1,10,3.3,13.4c2.6,4.1,6.5,6.2,11.7,6.2    c6,0,9.6-3.3,11-9.8H283.1z"/>
		<path class="st1" d="M319.8,47.8c4.1,3.6,7.5,7.3,10.1,11.3l-4.1,2.3H354V70h-27.3v11.9h23.8v8.6h-23.8v16.3H356v8.5h-67v-8.5    h28.7V90.5h-23.1v-8.6h23.1V70h-26.6v-8.6h28.1c-2.1-2.9-4.7-5.6-7.6-8.2L319.8,47.8z"/>
		<path class="st1" d="M384.7,46.9c2.3,1.9,4.4,3.9,6.3,6.2h13.1c1.3-1.9,2.4-3.9,3.4-5.9l9.2,2.7c-0.9,1.2-1.7,2.3-2.5,3.3h15.5    v7.1h-27.3V62h23.8v6.5h-23.8v2h28.4v7.1h-65.3v-7.1h28v-2h-23.1V62h23.1v-1.8h-26.6v-7.1h13.7c-0.8-0.6-1.7-1.3-2.7-1.9    L384.7,46.9z M396.5,78.3l3.3,6.5c-3.1,0.3-6.4,0.7-9.8,1v2.6h14.3c-0.5-2.8-0.9-5.7-1.3-9h8.6c0.2,3.3,0.6,6.2,1.2,9h5.7    c-1-2.2-2.3-4.2-3.9-6.2l7.4-3.6c2,2.1,3.7,4.5,5,7l-5.6,2.7h9.5v7.7h-6.7l3.2,3.6c-2.4,2.4-4.9,4.5-7.5,6.2    c1.4,1.8,2.5,2.7,3.5,2.7c0.3,0,0.5-0.2,0.7-0.7c0.3-0.6,0.6-2,0.7-4.2l8.4,3.3c-0.6,4.1-1.9,6.9-3.8,8.4    c-1.6,1.1-3.6,1.6-5.9,1.6c-1.8,0-4-1.2-6.7-3.7c-1.1-1.1-2.1-2.2-3-3.3c-3.6,2-7.7,3.8-12.5,5.5l-4.5-7.1c4.7-1.6,9-3.4,12.7-5.3    c-0.5-0.9-0.9-1.9-1.3-2.8c-0.5-1.3-1-2.6-1.5-4H390v1.6c3.3-0.2,6.4-0.4,9.2-0.6l1.3,7.1c-3.4,0.3-6.8,0.7-10.4,1v1.4    c0,4.2-0.7,6.9-2,8.1c-1.5,1.5-4.1,2.3-7.8,2.3c-2.9,0-5.6-0.4-8.2-1.3l-1.6-8.5c3.3,1.1,6.6,1.7,9.8,1.7c0.8,0,1.2-1,1.3-3    c-4.6,0.4-9.4,0.7-14.3,1l-1.4-8.1c5.6-0.2,10.9-0.4,15.7-0.7v-2h-15.4v-7.7h15.4v-1.9c-3.7,0.2-7.4,0.5-11.3,0.7l-2.7-7.1    C378,79.6,387.7,79.1,396.5,78.3z M415.8,99c1.5-1,2.8-2,4.1-3h-5.3C415,97.2,415.4,98.2,415.8,99z"/>
		<path class="st1" d="M474.1,118.5h-23.8v-9.4H465V82.5h9.1V118.5z"/>
	</g>
</g>
</svg>