<?xml version="1.0" encoding="UTF-8"?>
<!-- Generator: Adobe Illustrator 23.0.6, SVG Export Plug-In . SVG Version: 6.00 Build 0)  -->
<svg version="1.1" id="圖層_1" xmlns="http://www.w3.org/2000/svg" xmlns:xlink="http://www.w3.org/1999/xlink" x="0px" y="0px" width="88px" height="12.1px" viewBox="0 0 88 12.1" style="enable-background:new 0 0 88 12.1;" xml:space="preserve">
<style type="text/css">
	.st0{fill:#008B91;}
</style>
<g>
	<path class="st0" d="M88,6.4l-5.6,2.7V8l4.1-1.9v0L82.4,4V2.8l5.6,3V6.4z"/>
	<g>
		<path class="st0" d="M9.9,4.5H8.8V2.7H1.1v1.8H0V1.8h4.4V0h1v1.8h4.4V4.5z M9.2,8.9c0,0.4-0.1,0.7-0.3,0.9s-0.6,0.3-1.2,0.3    c-0.2,0-0.4,0-0.8,0L6.6,9h1.3c0.2,0,0.3-0.1,0.3-0.3v-1H5.5v2.8H4.4V7.8H1.8v2.3H0.7V6.8h3.7V6H1.8V3.3h6.2V6H5.5v0.8h3.7V8.9z     M3.3,1.3l-1,0.3C2,1.2,1.6,0.8,1.1,0.4l1-0.4C2.5,0.4,2.9,0.8,3.3,1.3z M7,5.1V4.2H2.9v0.9H7z M9,0.5C8.6,0.9,8.1,1.2,7.6,1.6    l-1-0.5C7.3,0.6,7.7,0.3,7.9,0L9,0.5z"/>
		<path class="st0" d="M22.3,8c0,0.2,0,0.6-0.1,1.1s-0.2,0.8-0.4,1s-0.3,0.3-0.5,0.3s-0.6,0.1-1.4,0.1c-0.9,0-1.5,0-1.6-0.1    s-0.3-0.2-0.5-0.3s-0.2-0.4-0.2-0.6V6.9h-1.4c-0.1,0.9-0.5,1.7-1.2,2.4s-1.6,1.1-2.6,1.2l-0.6-0.9c2-0.3,3.2-1.2,3.4-2.7h-2.2V0.2    h8.2v6.7h-2.5v2.3c0,0.1,0,0.2,0.1,0.2s0.4,0.1,1,0.1c0.6,0,1,0,1.1-0.1s0.2-0.3,0.2-0.6s0.1-0.7,0.1-1.1L22.3,8z M20,5.9v-1H14v1    H20z M20,2.1V1.2H14l0,0.9H20z M20,3h-6v0.9h6V3z"/>
		<path class="st0" d="M28.6,4.5h-3.4v6h-1.1V0.3h4.5V4.5z M27.5,1.9V1.2h-2.4v0.7H27.5z M27.5,3.5V2.8h-2.4v0.7H27.5z M31.4,8.8    h-4.9V5.4h4.9V8.8z M30.4,7.8V6.4h-2.8v1.5H30.4z M33.9,9.3c0,0.4-0.1,0.7-0.3,0.8s-0.7,0.3-1.3,0.3c-0.2,0-0.4,0-0.6,0l-0.3-1    c0.8,0,1.2,0,1.3,0s0.2-0.1,0.2-0.3V4.5h-3.4V0.3h4.5V9.3z M32.8,1.9V1.2h-2.3v0.7H32.8z M32.8,3.5V2.8h-2.3v0.7H32.8z"/>
		<path class="st0" d="M46.2,9.4l-0.3,1c-3.4,0-5.5-0.1-6.5-0.3c-0.9-0.2-1.7-0.6-2.4-1.2c-0.2,0.6-0.4,1.2-0.7,1.6l-0.8-0.7    C36.1,9,36.3,7.7,36.4,6l1,0.1c0,0.5-0.1,1-0.2,1.7c0.2,0.3,0.5,0.5,0.7,0.6V5.5h-2.3V4.6h5.3v0.9h-2v1.2h1.7v0.9H39V9    c0.4,0.2,0.9,0.3,1.4,0.4c0.5,0.1,1.6,0.1,3.2,0.1C44.4,9.4,45.3,9.4,46.2,9.4z M40.6,4h-4.5V0.2h4.5V4z M39.6,1.7V1.1h-2.4v0.5    H39.6z M39.6,3.1V2.5h-2.4v0.5H39.6z M46.2,1.2h-2c-0.1,0.3-0.2,0.6-0.3,0.8h1.9v5.4h-2.9l0.6,0.5c-0.7,0.6-1.4,1.1-2.2,1.4    l-0.7-0.8c0.7-0.3,1.3-0.6,1.9-1.1h-0.9V1.9h1.3c0.1-0.2,0.2-0.5,0.3-0.8h-1.9V0.2h5V1.2z M44.8,3.5V2.8h-2.2v0.6H44.8z M44.8,4.9    V4.3h-2.2v0.6H44.8z M44.8,6.5V5.8h-2.2v0.7H44.8z M46.2,8.4l-0.5,0.8c-0.6-0.4-1.2-0.7-2-0.9l0.5-0.8C45.1,7.8,45.7,8.1,46.2,8.4    z"/>
		<path class="st0" d="M55.9,2h-3.4v2.8h3.2V6h-3.2v3.8h-1.4V0.8h4.8V2z"/>
		<path class="st0" d="M64,9.9h-1.5l-0.8-2.4H58l-0.8,2.4h-1.5l3.4-9.1h1.6L64,9.9z M61.3,6.3L60,2.8c0-0.1-0.1-0.4-0.1-0.7h0    c0,0.3-0.1,0.5-0.1,0.7l-1.3,3.6H61.3z"/>
		<path class="st0" d="M70.4,9.8l2.4,2.3h-1.9L68.9,10c-1.3,0-2.4-0.5-3.1-1.3c-0.7-0.8-1.1-1.9-1.1-3.3c0-1.4,0.4-2.6,1.2-3.5    c0.8-0.9,1.9-1.3,3.3-1.3c1.3,0,2.3,0.4,3.1,1.3s1.1,1.9,1.1,3.3c0,1.2-0.2,2.2-0.7,3C72.2,9,71.4,9.6,70.4,9.8z M69.1,1.9    c-0.9,0-1.6,0.3-2.2,1s-0.8,1.5-0.8,2.5c0,1,0.3,1.9,0.8,2.5c0.5,0.6,1.2,0.9,2.1,0.9c0.9,0,1.6-0.3,2.1-0.9    c0.5-0.6,0.8-1.4,0.8-2.5c0-1.1-0.2-1.9-0.7-2.6S70,1.9,69.1,1.9z"/>
	</g>
</g>
</svg>