<?xml version="1.0" encoding="UTF-8"?>
<!-- Generator: Adobe Illustrator 21.0.2, SVG Export Plug-In . SVG Version: 6.00 Build 0)  -->
<svg version="1.1" id="圖層_1" xmlns="http://www.w3.org/2000/svg" xmlns:xlink="http://www.w3.org/1999/xlink" x="0px" y="0px" width="551.9px" height="96.6px" viewBox="0 0 551.9 96.6" style="enable-background:new 0 0 551.9 96.6;" xml:space="preserve">
<style type="text/css">
	.st0{fill:#222222;}
</style>
<g>
	<g>
		<path class="st0" d="M11.3,2.7H2.7v15.1H0V0h11.3V2.7z"/>
		<path class="st0" d="M35.4,1.6l1.1,3.1c-1.7,0.6-3.5,1.2-5.6,1.7v5.1h7.6V1.3H42v10.2h9.9v3.1H42c0.1,3.6,0.4,6.6,1.1,9    c1.5-2,2.8-4.8,4-8.4l3.3,1.3c-1.7,4.3-3.5,7.6-5.2,9.7c-0.3,0.3-0.5,0.6-0.7,0.9c0.3,0.5,0.5,1,0.8,1.4c1,1.3,1.8,2,2.3,2    c0.4,0,1-2.1,1.7-6.3l3,2.3c-0.9,3.8-1.8,6.1-2.5,6.9c-0.6,0.7-1.3,1-2.1,1c-1.5,0-3-0.9-4.5-2.8c-0.5-0.6-1-1.2-1.4-1.9    c-2.1,1.6-4.5,3.1-7.3,4.3L32.2,31c3.3-1.2,6-2.7,8.2-4.5c-0.3-0.8-0.5-1.6-0.7-2.4c-0.7-2.8-1-5.9-1.1-9.5h-7.6v5    c2.1-0.6,4.2-1.2,6.3-2V21c-2,0.7-4.1,1.4-6.3,2v7.6c0,1.2-0.3,2.1-0.9,2.6c-0.5,0.5-1.5,0.8-3,0.8h-3.9l-0.7-3.4    c1.5,0.2,2.7,0.3,3.6,0.3c0.9,0,1.4-0.3,1.4-0.9v-6.2c-2.4,0.6-5,1.1-7.6,1.5l-0.4-3.6c2.6-0.2,5.2-0.7,8-1.3v-5.9h-7.6v-3.1h7.6    V7.1c-2,0.4-4.2,0.7-6.6,1L20.4,5C26,4.4,31,3.3,35.4,1.6z M45.5,2.8C47.9,5,49.7,6.9,51,8.5L48,10.6c-1.2-1.8-2.8-3.9-4.9-6.2    L45.5,2.8z"/>
		<path class="st0" d="M61.7,1.3l3,1.3C64,4.9,63.3,7,62.6,8.7V34h-3.2V14.9c-0.9,1.5-2,3-3.1,4.4l-1.1-3.9c1.3-1.9,2.5-3.9,3.6-6    C59.7,7.5,60.7,4.8,61.7,1.3z M75.1,3v15.8h-6.7v15.3h-3.3V3H75.1z M68.3,9.3h3.5V5.7h-3.5V9.3z M68.3,16.1h3.5V12h-3.5V16.1z     M78.3,3h8.5v27.7c0,1.2-0.4,2.1-1.1,2.7c-0.6,0.6-1.5,0.8-2.9,0.8h-3.2L78.9,31l3.4,0.1c0.8,0,1.2-0.5,1.3-1.4V18.9h-6.8V3H78.3z     M79.8,9.6h3.7V5.7h-3.7V9.6z M83.5,16.2v-4h-3.7v4H83.5z"/>
		<path class="st0" d="M91.7,5.3h6.2v-4h3.2v4h5.1v2.8h-5.1v0.7c1.9,1.3,3.7,2.8,5.6,4.5l-1.8,2.8c-1.5-1.5-2.8-2.8-3.8-3.8v8.8    h-3.2v-8.6c-0.1,0.2-0.2,0.4-0.3,0.6c-1.4,2.5-3,4.7-5,6.5l-1.3-3.5c2.7-2.3,4.9-5,6.5-8h-6.2V5.3z M95.6,23l2.7,1.3    c-1.2,3.4-2.5,6.3-4.1,8.7L91.4,31C92.9,28.7,94.3,26,95.6,23z M100.5,23h3.2v7c0,0.7,0.4,1,1.3,1h7.2c0.7,0,1.1-0.2,1.5-0.5    c0.4-0.3,0.6-1.8,0.7-4.4l3.1,0.9c-0.3,3.3-0.8,5.3-1.5,5.9c-0.6,0.6-1.7,0.9-3.4,0.9h-8.9c-1,0-1.8-0.3-2.3-0.8    c-0.6-0.5-0.9-1.3-0.9-2.1V23z M107.4,20.6c2.2,1.9,3.8,3.5,5.1,4.9l-2.8,2c-1.1-1.6-2.6-3.4-4.6-5.4L107.4,20.6z M107.1,2.5h15.5    v17.9h-15.5V2.5z M110.4,7.5h9V5.3h-9V7.5z M110.4,12.4h9v-2.2h-9V12.4z M119.4,17.5v-2.4h-9v2.4H119.4z M120.1,21.9    c2,2.9,3.5,5.5,4.6,7.6l-3.1,2.1c-1-2.4-2.3-5.1-4.1-8.1L120.1,21.9z"/>
		<path class="st0" d="M143.1,1.6l1.5,2.8c-1.8,0.8-3.8,1.4-6.2,1.8v4.7h6.6V14h-6.6v0.8c2.1,1.9,4.3,4,6.5,6.3l-2.1,3.1    c-1.7-2.2-3.1-4.1-4.4-5.4v15.6h-3.2V18.1c-1.6,3.9-3.6,7.2-5.9,9.9l-2.1-3.1c2.9-3,5.2-6.7,6.8-10.9h-6.3v-3.1h7.5V6.7    c-1.9,0.2-3.9,0.3-6,0.3l-1-3C134.1,4,139,3.2,143.1,1.6z M159.3,3.6v29.4h-3.2v-2.8h-6.3v3.2h-3.2V3.6H159.3z M149.8,27.2h6.3    V6.5h-6.3V27.2z"/>
		<path class="st0" d="M164.4,3.3h31.2v3.2h-11c-0.7,1.5-1.5,3-2.4,4.3v23.4h-3.7V15.6c-0.3,0.3-0.5,0.6-0.8,0.8    c-3,3.2-6.9,6.2-11.7,8.9l-2.1-2.8c4.5-2.5,8.2-5.1,11.1-8c2-1.9,3.9-4.5,5.7-7.9h-16.4V3.3z M186.6,13.1c3.6,3.1,6.6,6.1,9,9.1    l-2.6,2.7c-2.1-2.9-5-6.1-8.9-9.5L186.6,13.1z"/>
		<path class="st0" d="M199.3,18.2h33.3v3h-14.9c1.3,2,2.5,3.6,3.7,4.7c1.8-0.9,3.6-2.4,5.2-4.3l2.4,2.4c-1.6,1.7-3.4,3-5.3,4    c1.9,1.3,4.7,2.2,8.5,2.8l-0.9,3.4c-4.1-0.7-7.1-1.8-9.3-3.4c-2.7-2-5.4-5.2-7.9-9.6h-5.1v8.6c2.5-0.4,5-0.8,7.6-1.4v3.1    c-4.7,1-9.9,1.8-15.7,2.4l-0.4-3.2c1.7-0.1,3.4-0.2,5.2-0.5v-9h-6.3V18.2z M202.4,2.3h27.5v13.5h-27.5V2.3z M205.5,7.8h8.9V5h-8.9    V7.8z M214.3,13.1v-2.8h-8.9v2.8H214.3z M217.4,7.8h9.4V5h-9.4V7.8z M226.8,13.1v-2.8h-9.4v2.8H226.8z"/>
		<path class="st0" d="M236.2,8.9l2.5,0.1c-0.1,3.4-0.5,6.7-1.3,9.7l-2.5-0.6C235.8,15,236.2,11.9,236.2,8.9z M239.3,1.6h3.1V8    l1.7-0.5c0.7,2.1,1.4,4.6,1.9,7.3l-2.5,0.6c-0.3-1.7-0.7-3.4-1.1-5.1V34h-3.1V1.6z M246.3,2.2h9.9v13.2h-6l1.9,0.6    c-0.2,0.6-0.5,1.1-0.7,1.5h6.1c-0.4-0.9-0.7-1.7-1.1-2.4l1.5-0.2V2.2h10v13.2h-8.2c0.3,0.7,0.5,1.4,0.8,2.1h7.7v2.4h-7.9v2h7.3    v2.2h-7.3v2.1h7.3v2.1h-7.3v2.4h8.2v2.4h-18v1.3h-3V22.5c-0.9,0.9-2,1.9-3.2,2.8l-0.7-3.5c2.6-1.8,4.5-4,5.6-6.5h-2.8V2.2z     M249,6.1h4.5V4.3H249V6.1z M249,9.6h4.5V7.9H249V9.6z M253.5,13.3v-1.8H249v1.8H253.5z M257.2,21.9v-2h-6.7v2H257.2z M257.2,26.2    v-2.1h-6.7v2.1H257.2z M250.5,30.7h6.7v-2.4h-6.7V30.7z M260.6,6.1h4.6V4.3h-4.6V6.1z M260.6,9.6h4.6V7.9h-4.6V9.6z M265.2,13.3    v-1.8h-4.6v1.8H265.2z"/>
		<path class="st0" d="M271.8,7.8h4V1.3h3.2v6.5h3.3v3H279v6.9c1-0.6,2-1.3,3.1-2.1v3.6c-1,0.7-2,1.4-3.1,1.9v9.6    c0,1.2-0.3,2.1-0.9,2.6c-0.5,0.5-1.4,0.8-2.8,0.8H273l-0.7-3.4c0.9,0.2,1.7,0.3,2.3,0.3c0.8,0,1.3-0.3,1.3-0.9v-7.3    c-1.2,0.5-2.4,1-3.7,1.4l-0.4-3.6c1.3-0.2,2.7-0.6,4.1-1.2v-8.5h-4V7.8z M284.8,5.6c1.3,2.3,2.4,4.5,3.2,6.5V1.4h3.3v16.1    c0,3.7-0.5,6.8-1.5,9.3c-1,2.4-2.9,4.9-5.8,7.5l-2.8-2.6c2.6-1.9,4.3-3.9,5.4-6.1c0.7-1.2,1.1-2.9,1.3-5c-1.6,1.7-3.4,3.1-5.4,4.4    l-1.8-3c2.5-1.4,5-3.4,7.3-6v-2.4l-2.8,1.1c-0.9-2.9-1.9-5.7-3.2-8.5L284.8,5.6z M293.6,1.4h3.4v14.8c2.8,1.4,5.3,3,7.6,4.9    l-1.9,3c-1.9-1.7-3.7-3.2-5.6-4.4v9.5c0,0.8,0.4,1.2,1.3,1.2h0.7c0.7,0,1.2-0.2,1.5-0.5c0.4-0.3,0.6-1.9,0.8-4.6l3.2,1    c-0.3,3.6-0.9,5.7-1.6,6.3c-0.7,0.7-1.8,1-3.5,1H297c-1,0-1.9-0.3-2.5-0.9c-0.6-0.6-0.9-1.5-0.9-2.5V1.4z M300.5,5.3l3.2,0.8    c-0.8,3-1.7,5.8-2.9,8.3l-3.3-1.1C298.7,11.2,299.6,8.5,300.5,5.3z"/>
		<path class="st0" d="M308.5,11.5h16v12.8h-6.3v2.3h7.7v2.8h-7.7v5h-3v-5h-7.8v-2.8h7.8v-2.3h-6.7V11.5z M308.4,2.3h7.6v7.7h-7.6    V2.3z M313.3,7.6v-3H311v3H313.3z M311.6,16.6h3.6V14h-3.6V16.6z M315.2,21.7v-2.8h-3.6v2.8H315.2z M317.7,2.3h7.6v7.7h-7.6V2.3z     M318.2,14v2.7h3.2V14H318.2z M321.4,21.7v-2.8h-3.2v2.8H321.4z M322.6,7.5V4.8h-2.2v2.7H322.6z M340,10.2l0.4,3.1l-8.3,1.3    c0.2,3.4,0.5,6.2,0.9,8.4c1.1-1.8,2.3-4.2,3.5-7.1l2.7,1.7c-1.9,4.2-3.7,7.3-5.3,9.4c0.7,2.7,1.3,4.1,2.1,4.1    c0.7,0,1.3-1.7,2.1-5.2l2.5,2.5c-1.1,4.1-2.7,6.2-4.6,6.2c-1.3,0-2.4-0.7-3.4-2c-0.5-0.6-0.9-1.5-1.3-2.6c-1.6,1.5-3.4,2.8-5.5,4    l-1.8-2.6c2.6-1.5,4.7-3.2,6.3-4.9c-0.1-0.5-0.2-1-0.3-1.5c-0.5-2.4-0.9-5.6-1.2-9.8l-3.2,0.5l-0.4-3.1l3.4-0.6    c-0.1-3.1-0.2-6.7-0.2-10.6h3.2c0,3.7,0.1,7.1,0.2,10.1L340,10.2z M336.1,3.3c1.2,1.6,2.2,3.4,3.1,5.2l-2.8,1.3    c-0.9-2.1-2-4-3.1-5.6L336.1,3.3z"/>
		<path class="st0" d="M113.9,62.4c1.2,1.6,2.2,3.6,3.2,5.8h5.2c1.3-1.8,2.4-3.8,3.4-5.9l3.9,1.3c-1,1.8-2,3.3-3.2,4.6h8.9v3.1    h-10.2v19.5h11.1v3.2h-33.2v-3.2h10.9V71.3h-10v-3.1h9c-0.7-1.4-1.6-2.8-2.7-4.4L113.9,62.4z M109.1,74.5    c1.5,3.4,2.8,7.2,3.9,11.6l-3.6,0.8c-0.9-3.9-2.1-7.7-3.5-11.4L109.1,74.5z M117.6,90.8h4.1V71.3h-4.1V90.8z M130.7,74.5l3.4,1.5    c-1,3.8-2.3,7.5-3.9,11.1l-3.4-1.7C128.4,81.8,129.7,78.1,130.7,74.5z"/>
		<path class="st0" d="M155.7,62.3h1.7c4.4,2.6,9.4,5.1,15,7.2l-1.4,3.2c-0.4-0.2-0.8-0.3-1.1-0.5v9.2H142v-9.2    c-0.4,0.2-0.9,0.4-1.3,0.5l-1.4-3.1c5.1-1.9,10.1-4.3,14.8-7.3H155.7z M168.4,83v12.2H165v-1.2h-18.1v1.3h-3.4V83H168.4z     M143.8,71.4h24.4c-2.1-1-4.1-1.9-5.8-2.8V70h-12.8v-1.5C147.5,69.7,145.6,70.6,143.8,71.4z M154.2,78.9V74h-9.1v4.9h4.5    c-0.6-1-1.3-2.1-2.1-3.3l2-1.3c1.1,1.2,2,2.3,2.6,3.2l-2,1.4H154.2z M146.9,87.5H165v-2h-18.1V87.5z M146.9,91.7H165v-2.1h-18.1    V91.7z M151.1,67.7h9.4c-1.8-1-3.4-1.9-4.8-2.8C154.1,65.9,152.6,66.8,151.1,67.7z M166.8,78.9V74h-9.4v4.9h4.6l-2.1-1.5    c0.8-0.9,1.5-1.9,2.2-3.1l2.3,1c-0.6,1.4-1.3,2.6-2,3.6H166.8z"/>
		<path class="st0" d="M175.5,68.6h4.5v-6.4h3.4v6.4h4v3.1h-4v7c1.2-0.6,2.5-1.4,3.7-2.2v3.6c-1.2,0.8-2.4,1.5-3.7,2.1v9.3    c0,1.3-0.3,2.2-0.8,2.7c-0.5,0.6-1.5,0.8-2.9,0.8h-2.8l-0.7-3.6c1,0.2,1.9,0.3,2.5,0.3c0.9,0,1.4-0.3,1.4-0.9v-7.2    c-1.3,0.6-2.7,1-4.1,1.4l-0.4-3.6c1.5-0.2,3-0.6,4.5-1.2v-8.5h-4.5V68.6z M188.8,66.4h6.7v-4.2h3.4v4.2h7.5v3.1h-7.5v3.7h9.1v3.1    h-4.1v3.5h4.1V83h-4.1v8.9c0,1.2-0.3,2-0.8,2.4c-0.5,0.5-1.5,0.8-2.9,0.8h-4.1l-0.7-3.2c1.5,0.2,2.8,0.3,3.8,0.3    c0.9,0,1.4-0.3,1.4-0.9V83h-13.1v-3.1h13.1v-3.5h-13.1v-3.1h8v-3.7h-6.7V66.4z M192.6,83.8c1.9,2,3.4,3.7,4.5,5.1l-2.8,1.9    c-1-1.6-2.4-3.5-4.1-5.6L192.6,83.8z"/>
		<path class="st0" d="M216.5,61.9l3,0.9c-1.1,3.2-2.3,6-3.6,8.4c1-0.1,1.9-0.3,2.8-0.5c0.8-1.6,1.5-3.4,2.2-5.2l2.8,1    c-2.4,5.8-5,10.5-7.6,14.2c1.8-0.2,3.3-0.5,4.6-0.9c-0.3-1.3-0.6-2.6-0.9-3.8l2.4-0.7c0.8,2.3,1.4,4.9,2,7.9l-2.6,0.7    c-0.1-0.6-0.2-1.1-0.3-1.7c-2.2,0.7-5.3,1.3-9.1,1.7l-0.8-3c0.6,0,1.2,0,1.8,0c1.4-2,2.8-4.4,4.3-7.3c-1.8,0.4-3.7,0.8-5.7,1.2    l-0.7-3c0.6,0,1.2-0.1,1.7-0.2C214.1,68.8,215.4,65.5,216.5,61.9z M212.4,85.4l2.6,0.3c-0.2,3.7-0.5,6.8-0.9,9.4l-3-0.9    C211.8,91.5,212.2,88.5,212.4,85.4z M218.6,85.4c0.5,2,0.8,4.7,0.9,8.2l-2.8,0.2c-0.1-3.5-0.3-6.2-0.6-8.1L218.6,85.4z     M222.4,84.6c0.6,2.1,1.1,4.5,1.5,7.2l-2.6,0.7c-0.4-2.5-0.8-4.9-1.3-7.2L222.4,84.6z M224.9,78.4h17.6v12.4h-5.3    c2.6,0.6,5,1.4,7.2,2.2l-1.5,2.4c-2.6-1.2-5.3-2.2-8.1-3l1.1-1.7h-4.7l1.3,1.5c-2.9,1.3-5.8,2.3-8.6,3l-1.1-2.6    c2.8-0.4,5.3-1.1,7.4-1.9h-5.2V78.4z M223.4,63.8h8.7v-1.7h3.2v1.7h9v2.3h-9v1.2h7.6v2.3h-18.1v-2.3h7.3v-1.2h-8.7V63.8z     M223.6,70.9h20v6.2h-20V70.9z M229.4,75v-2h-3v2H229.4z M227.9,81.8h11.7v-1.4h-11.7V81.8z M227.9,85.2h11.7v-1.4h-11.7V85.2z     M239.6,88.6v-1.4h-11.7v1.4H239.6z M235.2,75v-2h-3.1v2H235.2z M240.8,75v-2h-3v2H240.8z"/>
		<path class="st0" d="M279.3,67.2v3.2h-10c0.3,5.1,1,9.2,2,12.2c1.7-2.5,3.2-5.7,4.6-9.7l3.1,1.3c-2,5.4-4.1,9.4-6.1,12    c1.6,3.2,2.7,4.7,3.4,4.7c0.4,0,0.9-1.7,1.4-5l2.8,1.9c-0.8,3.4-1.6,5.5-2.2,6.2c-0.5,0.6-1,0.9-1.5,0.9c-1.5,0-3-0.9-4.6-2.6    c-0.8-0.9-1.5-2-2.1-3.1c-2.2,2.1-5.1,4-8.6,5.6l-2-3.1c3.7-1.7,6.7-3.7,9-5.9c-0.5-1.2-0.9-2.5-1.3-3.8    c-0.7-3.1-1.2-6.9-1.5-11.5h-12v4.4h9.9c-0.1,6.5-0.4,10.6-0.9,12.3c-0.5,2-1.7,3-3.6,3h-4.7l-0.6-3.4c2.4,0.2,4.2,0.3,5.4,0.3    c0.3,0,0.5-0.5,0.7-1.6c0.1-1.2,0.2-3.7,0.3-7.4h-6.5c0,2.5-0.3,5.2-0.7,7.9c-0.7,3.3-1.7,6.6-3.2,9.8l-3-2.5    c1.4-2.6,2.3-5.4,2.9-8.3c0.4-3,0.6-5.7,0.6-8.2v-9.6h15.3c0-1.6-0.1-3.3-0.1-5h3.4c0,1.8,0,3.5,0.1,5h5.1c-0.9-1-2.1-1.9-3.5-3    l2.2-2.1c1.7,1.1,3.1,2.1,4.3,3.2l-1.8,1.8H279.3z"/>
		<path class="st0" d="M313.8,63.3v3.1h-21.2v2h20v2.8h-20v2.3h20v2.8h-20v2.4h23.7V82H300c0.9,1.7,2.2,3.2,3.7,4.4    c2.5-0.9,4.8-2.2,6.9-4.1l2.6,2.4c-1.9,1.5-4,2.8-6.3,3.7c2.7,1.5,6,2.8,9.9,3.8l-1.9,3.3c-5.8-1.9-10.1-4-12.9-6.3    c-2.6-2-4.4-4.4-5.5-7.2h-4.9v8.8c2.5-0.4,5-1.1,7.6-1.8v3.4c-4.3,1.2-9.1,2.2-14.3,3l-0.4-3.5c1.2-0.1,2.5-0.2,3.8-0.4V82h-4.4    v-3.2h5.4V63.3H313.8z"/>
		<path class="st0" d="M326.9,62.3l3.2,0.4c-0.4,1.9-1,3.6-1.8,5.2h5.2v7.5c1.1-1.8,1.9-3.5,2.5-5.2c0.7-2,1.3-4.7,1.8-8.1l3.6,0.5    c-0.3,1.9-0.7,3.6-1,5.1h11.1c0,12.6-0.2,20.1-0.6,22.5c-0.4,1.8-1,3-1.8,3.6c-1,0.7-2.9,1.1-5.6,1.1c-0.8,0-1.7,0-2.7-0.1    l-0.5-3.6c1.1,0.2,2.1,0.3,3.2,0.3c2.3,0,3.6-0.8,3.8-2.3c0.4-1.9,0.7-8,0.8-18.2h-8.6c-0.1,0.2-0.2,0.4-0.2,0.6    c-0.8,2.6-2.1,5.4-4,8.3l-1.7-2.1v14.7h-3.1v-1.7h-6.6v2.7h-3.1V68h4.5C325.9,66.2,326.5,64.3,326.9,62.3z M323.8,77.9h6.6v-7    h-6.6V77.9z M323.8,87.9h6.6v-7.2h-6.6V87.9z M340.5,75.8c2,3.3,3.6,6.2,4.8,8.6l-3.4,2.2c-1-2.6-2.4-5.6-4.2-9L340.5,75.8z"/>
		<path class="st0" d="M369.8,62.1h3.9v8.6c1.2,5.3,3,9.6,5.4,12.9c1.9,2.8,5.1,5.7,9.4,8.6l-2.4,3.2c-3.6-2.3-6.3-4.7-8.2-6.9    c-2.4-2.7-4.3-6.1-5.8-10.1c-1.2,4.1-2.8,7.3-4.9,9.6c-2.1,2.5-5.4,5-9.8,7.4l-2.2-3.2c5.4-3.3,9.2-6.8,11.2-10.7    c2.1-3.7,3.2-7.3,3.3-10.8V62.1z"/>
		<path class="st0" d="M392.1,75.8h31.4v3.4h-31.4V75.8z"/>
		<path class="st0" d="M428.9,66.6h6.2v-4.3h3.2v4.3h5.2v3.1h-5.2v3.7h5.2v3.1h-5.2v4.2h5.2v3.1h-5.2v6c0.6,0.2,1.2,0.4,1.8,0.5    c1.9,0.4,5.7,0.6,11.4,0.7c4.1,0,7.1-0.1,9.1-0.2l-0.4,3.2c-10.9,0-17.5-0.2-19.9-0.5c-2.2-0.4-3.9-0.9-5.2-1.7    c-1.1-0.6-2.2-1.8-3.6-3.7c-0.5,2.2-1.2,4.5-2,6.6l-2.4-2.1c0.8-2.6,1.4-4.9,1.8-7c0.3-1.8,0.6-4,0.7-6.9l3.1,0.2    c-0.1,2.2-0.3,4-0.5,5.4c1.1,1.6,2,2.7,2.7,3.5V76.5h-7.3v-3.1h7.3v-3.7h-6.2V66.6z M458.5,64v12.9h-10.4v6.8    c0,0.7,0.4,1.1,1.3,1.1h5.7c0.4,0,0.8-0.2,0.9-0.5c0.2-0.4,0.4-2,0.5-5l3.1,1c-0.3,3.8-0.7,6-1.3,6.6c-0.5,0.7-1.4,1-2.8,1h-7.5    c-1,0-1.8-0.3-2.4-0.9c-0.6-0.6-0.8-1.3-0.8-2.3V64H458.5z M448.1,67.1v6.6h7.2v-6.6H448.1z"/>
		<path class="st0" d="M465.1,65.3h29.6v3.3h-13v21.2h14.4v3.4h-32.4v-3.4h14.2V68.6h-12.8V65.3z"/>
		<path class="st0" d="M506.9,62.1l3,1.3c-1,2.9-1.9,5.4-3,7.4V95h-3.2V76c-1,1.4-2.1,2.8-3.2,4.2l-1.1-4c1.5-2,2.9-4,4.1-6    C504.6,68.3,505.8,65.6,506.9,62.1z M515.5,62.1l3.5,0.7c-0.6,1.6-1.2,3.1-1.7,4.5h14.8v3.2h-12.6v5h11.7v3.2h-11.7v5.5h11.7v3.2    h-11.7V95h-3.4V70.5h-0.4c-1.5,3.2-3.1,5.8-4.7,7.9l-2.6-3C511.6,71.4,513.9,67,515.5,62.1z"/>
		<path class="st0" d="M551.9,96.6h-11.3v-2.7h8.6V78.8h2.7V96.6z"/>
	</g>
</g>
</svg>