<?xml version="1.0" encoding="UTF-8"?>
<!-- Generator: Adobe Illustrator 23.0.6, SVG Export Plug-In . SVG Version: 6.00 Build 0)  -->
<svg version="1.1" id="圖層_1" xmlns="http://www.w3.org/2000/svg" xmlns:xlink="http://www.w3.org/1999/xlink" x="0px" y="0px" width="294.1px" height="564.6px" viewBox="0 0 294.1 564.6" style="enable-background:new 0 0 294.1 564.6;" xml:space="preserve">
<style type="text/css">
	.st0{fill:none;}
	.st1{fill:none;stroke:#FFFFFF;stroke-width:0.3;}
	.st2{fill:#009EA2;stroke:#009EA2;stroke-width:2.8371;stroke-miterlimit:10;}
	.st3{fill:#009EA2;}
	.st4{fill:none;stroke:#009EA2;stroke-width:2.0435;stroke-miterlimit:10;}
	.st5{fill:#009EA2;stroke:#FFFFFF;stroke-width:4;stroke-linecap:round;stroke-linejoin:round;stroke-miterlimit:10;}
	.st6{fill:#FFFFFF;stroke:#009EA2;stroke-width:1.319;stroke-miterlimit:10;}
	.st7{opacity:0.7;}
	.st8{fill:url(#SVGID_1_);}
	.st9{fill:#FFFFFF;}
	.st10{fill:#009EA2;stroke:#009EA2;stroke-miterlimit:10;}
	.st11{fill:#FFFFFF;stroke:#009EA2;stroke-linecap:round;stroke-linejoin:round;stroke-miterlimit:10;}
	.st12{fill:#FFFFFF;stroke:#009EA2;stroke-miterlimit:10;}
	.st13{fill:none;stroke:#009EA2;stroke-miterlimit:10;}
	.st14{fill:none;stroke:#FFFFFF;stroke-miterlimit:10;}
	.st15{fill:#009EA2;stroke:#009EA2;stroke-linecap:round;stroke-linejoin:round;stroke-miterlimit:10;}
	.st16{opacity:0.7;fill:url(#SVGID_2_);}
	.st17{fill:none;stroke:#009EA2;stroke-width:0.607;stroke-miterlimit:10;}
	.st18{fill:#FFFFFF;stroke:#009EA2;stroke-width:0.607;stroke-miterlimit:10;}
	.st19{fill:#009EA2;stroke:#009EA2;stroke-width:0.607;stroke-miterlimit:10;}
	.st20{opacity:0.7;fill:url(#SVGID_3_);}
	.st21{fill:#009EA2;stroke:#009EA2;stroke-width:8.163028e-02;stroke-miterlimit:10;}
	.st22{fill:#009EA2;stroke:#009EA2;stroke-width:0.8445;stroke-linecap:round;stroke-linejoin:round;stroke-miterlimit:10;}
	.st23{fill:#009EA2;stroke:#009EA2;stroke-width:0.4433;stroke-miterlimit:10;}
	.st24{fill:#009EA2;stroke:#009EA2;stroke-width:0.4569;stroke-miterlimit:10;}
	.st25{fill:#FFFFFF;stroke:#009EA2;stroke-width:0.6623;stroke-miterlimit:10;}
	.st26{fill:#009EA2;stroke:#009EA2;stroke-width:0.6623;stroke-miterlimit:10;}
	.st27{fill:#FFFFFF;stroke:#009EA2;stroke-width:0.4527;stroke-miterlimit:10;}
	.st28{fill:#009EA2;stroke:#009EA2;stroke-width:0.4527;stroke-miterlimit:10;}
	.st29{fill:#009EA2;stroke:#009EA2;stroke-width:0.3035;stroke-miterlimit:10;}
	.st30{fill:#FFFFFF;stroke:#009EA2;stroke-width:0.3035;stroke-linecap:round;stroke-linejoin:round;stroke-miterlimit:10;}
	.st31{fill:#FFFFFF;stroke:#009EA2;stroke-width:0.3035;stroke-miterlimit:10;}
	.st32{fill:none;stroke:#009EA2;stroke-width:0.3035;stroke-miterlimit:10;}
	.st33{fill:none;stroke:#FFFFFF;stroke-width:0.3035;stroke-miterlimit:10;}
</style>
<pattern x="-387.7" y="83.2" width="72" height="72" patternUnits="userSpaceOnUse" id="_x35__英吋方格線" viewBox="72.2 -144.2 72 72" style="overflow:visible;">
	<g>
		<rect x="72.2" y="-144.2" class="st0" width="72" height="72"/>
		<g>
			<line class="st1" x1="126.2" y1="-72.5" x2="126.2" y2="0"/>
			<line class="st1" x1="90.2" y1="-72.5" x2="90.2" y2="0"/>
		</g>
		<g>
			<line class="st1" x1="144" y1="-126.2" x2="216.5" y2="-126.2"/>
			<line class="st1" x1="144" y1="-90.2" x2="216.5" y2="-90.2"/>
		</g>
		<g>
			<line class="st1" x1="72" y1="-126.2" x2="144.5" y2="-126.2"/>
			<line class="st1" x1="126.2" y1="-144.5" x2="126.2" y2="-72"/>
			<line class="st1" x1="72" y1="-90.2" x2="144.5" y2="-90.2"/>
			<line class="st1" x1="90.2" y1="-144.5" x2="90.2" y2="-72"/>
		</g>
		<g>
			<line class="st1" x1="0" y1="-126.2" x2="72.5" y2="-126.2"/>
			<line class="st1" x1="0" y1="-90.2" x2="72.5" y2="-90.2"/>
		</g>
		<g>
			<line class="st1" x1="126.2" y1="-216.5" x2="126.2" y2="-144"/>
			<line class="st1" x1="90.2" y1="-216.5" x2="90.2" y2="-144"/>
		</g>
	</g>
</pattern>
<g>
	<line class="st2" x1="1.8" y1="225.3" x2="284.8" y2="225.3"/>
	<g>
		<path class="st3" d="M149.8,237.8l-0.7,1.1c-2.2-1-4.1-2.2-5.6-3.5c-1.4,1.1-3.2,2.3-5.4,3.4l-0.8-1c2.7-1.2,4.7-2.6,6-4l1.3,0.5    c-0.1,0.1-0.2,0.2-0.2,0.3C145.6,235.7,147.5,236.8,149.8,237.8z M148,246.3h-1.3v-0.7h-6.6v0.7h-1.3v-5.7h9.3V246.3z     M146.7,244.3v-2.6h-6.6v2.6H146.7z M146.7,239h-6.5v-1.2h6.5V239z"/>
		<path class="st3" d="M141.8,253.6l-0.8,0.9c-0.1-0.2-0.2-0.5-0.5-0.9v6.8h-1.2v-6c-0.5,1.1-0.9,1.9-1.4,2.4l-0.6-1.2    c0.8-1,1.5-2.2,2-3.8h-1.9v-1.2h1.9v-2.5h1.2v2.5h1.2v1.2h-1.2v0.1C141,252.5,141.5,253,141.8,253.6z M149.6,253.8l-0.6,1.1    c-1.4-0.4-2.4-1-3.3-1.6c-1,0.6-2.1,1.2-3.2,1.6l-0.7-1.1c1.2-0.4,2.2-0.8,2.9-1.3c-0.5-0.5-0.9-1-1.1-1.4    c-0.4,0.4-0.8,0.6-0.9,0.7l-0.8-0.9c1-0.7,1.9-1.7,2.7-3l1.2,0.3c0,0.1-0.2,0.3-0.4,0.7h3.3v1.2c-0.5,0.9-1.2,1.7-2,2.4    C147.5,253.1,148.5,253.5,149.6,253.8z M148.7,260.3h-1.3v-0.5H144v0.5h-1.3v-5.2h6V260.3z M147.4,258.6v-2.3H144v2.3H147.4z     M147.3,250.2h-2.7l-0.1,0.1c0.4,0.6,0.8,1.2,1.3,1.6C146.4,251.3,146.9,250.8,147.3,250.2z"/>
	</g>
	<g>
		<line class="st4" x1="181.8" y1="301.7" x2="88.8" y2="394.7"/>
		<g>
			<g>
				<path class="st5" d="M141.8,338.4l-0.7,1.1c-2.2-1-4.1-2.2-5.6-3.5c-1.4,1.1-3.2,2.3-5.4,3.4l-0.8-1c2.7-1.2,4.7-2.6,6-4      l1.3,0.5c-0.1,0.1-0.2,0.2-0.2,0.3C137.6,336.3,139.4,337.4,141.8,338.4z M140,346.9h-1.3v-0.7h-6.6v0.7h-1.3v-5.7h9.3V346.9z       M138.7,344.9v-2.6h-6.6v2.6H138.7z M138.6,339.7h-6.5v-1.2h6.5V339.7z"/>
				<path class="st5" d="M133.7,354.2l-0.8,0.9c-0.1-0.2-0.2-0.5-0.5-0.9v6.8h-1.2v-6c-0.5,1.1-0.9,1.9-1.4,2.4l-0.6-1.2      c0.8-1,1.5-2.2,2-3.8h-1.9v-1.2h1.9v-2.5h1.2v2.5h1.2v1.2h-1.2v0.1C133,353.1,133.5,353.7,133.7,354.2z M141.6,354.4l-0.6,1.1      c-1.4-0.4-2.4-1-3.3-1.6c-1,0.6-2.1,1.2-3.2,1.6l-0.7-1.1c1.2-0.4,2.2-0.8,2.9-1.3c-0.5-0.5-0.9-1-1.1-1.4      c-0.4,0.4-0.8,0.6-0.9,0.7l-0.8-0.9c1-0.7,1.9-1.7,2.7-3l1.2,0.3c0,0.1-0.2,0.3-0.4,0.7h3.3v1.2c-0.5,0.9-1.2,1.7-2,2.4      C139.5,353.7,140.5,354.1,141.6,354.4z M140.7,361h-1.3v-0.5H136v0.5h-1.3v-5.2h6V361z M139.4,359.2v-2.3H136v2.3H139.4z       M139.2,350.8h-2.7l-0.1,0.1c0.4,0.6,0.8,1.2,1.3,1.6C138.3,352,138.9,351.4,139.2,350.8z"/>
			</g>
			<g>
				<path class="st3" d="M141.8,338.4l-0.7,1.1c-2.2-1-4.1-2.2-5.6-3.5c-1.4,1.1-3.2,2.3-5.4,3.4l-0.8-1c2.7-1.2,4.7-2.6,6-4      l1.3,0.5c-0.1,0.1-0.2,0.2-0.2,0.3C137.6,336.3,139.4,337.4,141.8,338.4z M140,346.9h-1.3v-0.7h-6.6v0.7h-1.3v-5.7h9.3V346.9z       M138.7,344.9v-2.6h-6.6v2.6H138.7z M138.6,339.7h-6.5v-1.2h6.5V339.7z"/>
				<path class="st3" d="M133.7,354.2l-0.8,0.9c-0.1-0.2-0.2-0.5-0.5-0.9v6.8h-1.2v-6c-0.5,1.1-0.9,1.9-1.4,2.4l-0.6-1.2      c0.8-1,1.5-2.2,2-3.8h-1.9v-1.2h1.9v-2.5h1.2v2.5h1.2v1.2h-1.2v0.1C133,353.1,133.5,353.7,133.7,354.2z M141.6,354.4l-0.6,1.1      c-1.4-0.4-2.4-1-3.3-1.6c-1,0.6-2.1,1.2-3.2,1.6l-0.7-1.1c1.2-0.4,2.2-0.8,2.9-1.3c-0.5-0.5-0.9-1-1.1-1.4      c-0.4,0.4-0.8,0.6-0.9,0.7l-0.8-0.9c1-0.7,1.9-1.7,2.7-3l1.2,0.3c0,0.1-0.2,0.3-0.4,0.7h3.3v1.2c-0.5,0.9-1.2,1.7-2,2.4      C139.5,353.7,140.5,354.1,141.6,354.4z M140.7,361h-1.3v-0.5H136v0.5h-1.3v-5.2h6V361z M139.4,359.2v-2.3H136v2.3H139.4z       M139.2,350.8h-2.7l-0.1,0.1c0.4,0.6,0.8,1.2,1.3,1.6C138.3,352,138.9,351.4,139.2,350.8z"/>
			</g>
		</g>
	</g>
	<g>
		<line class="st4" x1="185.8" y1="96.9" x2="92.8" y2="189.8"/>
		<g>
			<g>
				<path class="st5" d="M145.8,133.6l-0.7,1.1c-2.2-1-4.1-2.2-5.6-3.5c-1.4,1.1-3.2,2.3-5.4,3.4l-0.8-1c2.7-1.2,4.7-2.6,6-4      l1.3,0.5c-0.1,0.1-0.2,0.2-0.2,0.3C141.6,131.5,143.4,132.6,145.8,133.6z M144,142.1h-1.3v-0.7h-6.6v0.7h-1.3v-5.7h9.3V142.1z       M142.7,140.1v-2.6h-6.6v2.6H142.7z M142.6,134.8h-6.5v-1.2h6.5V134.8z"/>
				<path class="st5" d="M137.7,149.4l-0.8,0.9c-0.1-0.2-0.2-0.5-0.5-0.9v6.8h-1.2v-6c-0.5,1.1-0.9,1.9-1.4,2.4l-0.6-1.2      c0.8-1,1.5-2.2,2-3.8h-1.9v-1.2h1.9v-2.5h1.2v2.5h1.2v1.2h-1.2v0.1C137,148.3,137.5,148.9,137.7,149.4z M145.6,149.6l-0.6,1.1      c-1.4-0.4-2.4-1-3.3-1.6c-1,0.6-2.1,1.2-3.2,1.6l-0.7-1.1c1.2-0.4,2.2-0.8,2.9-1.3c-0.5-0.5-0.9-1-1.1-1.4      c-0.4,0.4-0.8,0.6-0.9,0.7l-0.8-0.9c1-0.7,1.9-1.7,2.7-3l1.2,0.3c0,0.1-0.2,0.3-0.4,0.7h3.3v1.2c-0.5,0.9-1.2,1.7-2,2.4      C143.5,148.9,144.5,149.3,145.6,149.6z M144.7,156.2h-1.3v-0.5H140v0.5h-1.3v-5.2h6V156.2z M143.4,154.4v-2.3H140v2.3H143.4z       M143.2,146h-2.7l-0.1,0.1c0.4,0.6,0.8,1.2,1.3,1.6C142.3,147.2,142.9,146.6,143.2,146z"/>
			</g>
			<g>
				<path class="st3" d="M145.8,133.6l-0.7,1.1c-2.2-1-4.1-2.2-5.6-3.5c-1.4,1.1-3.2,2.3-5.4,3.4l-0.8-1c2.7-1.2,4.7-2.6,6-4      l1.3,0.5c-0.1,0.1-0.2,0.2-0.2,0.3C141.6,131.5,143.4,132.6,145.8,133.6z M144,142.1h-1.3v-0.7h-6.6v0.7h-1.3v-5.7h9.3V142.1z       M142.7,140.1v-2.6h-6.6v2.6H142.7z M142.6,134.8h-6.5v-1.2h6.5V134.8z"/>
				<path class="st3" d="M137.7,149.4l-0.8,0.9c-0.1-0.2-0.2-0.5-0.5-0.9v6.8h-1.2v-6c-0.5,1.1-0.9,1.9-1.4,2.4l-0.6-1.2      c0.8-1,1.5-2.2,2-3.8h-1.9v-1.2h1.9v-2.5h1.2v2.5h1.2v1.2h-1.2v0.1C137,148.3,137.5,148.9,137.7,149.4z M145.6,149.6l-0.6,1.1      c-1.4-0.4-2.4-1-3.3-1.6c-1,0.6-2.1,1.2-3.2,1.6l-0.7-1.1c1.2-0.4,2.2-0.8,2.9-1.3c-0.5-0.5-0.9-1-1.1-1.4      c-0.4,0.4-0.8,0.6-0.9,0.7l-0.8-0.9c1-0.7,1.9-1.7,2.7-3l1.2,0.3c0,0.1-0.2,0.3-0.4,0.7h3.3v1.2c-0.5,0.9-1.2,1.7-2,2.4      C143.5,148.9,144.5,149.3,145.6,149.6z M144.7,156.2h-1.3v-0.5H140v0.5h-1.3v-5.2h6V156.2z M143.4,154.4v-2.3H140v2.3H143.4z       M143.2,146h-2.7l-0.1,0.1c0.4,0.6,0.8,1.2,1.3,1.6C142.3,147.2,142.9,146.6,143.2,146z"/>
			</g>
		</g>
	</g>
	<line class="st2" x1="1.8" y1="68.7" x2="284.8" y2="68.7"/>
	<g>
		<circle class="st6" cx="219.4" cy="67.6" r="66.9"/>
		<g>
			<path class="st3" d="M191,95.3h-3.7c-0.4,0.5-0.9,1-1.5,1.5l-0.9-0.8c1-0.8,1.8-1.7,2.4-2.8l1.2,0.4c-0.1,0.2-0.2,0.4-0.4,0.6     h2.9V95.3z M197.1,100.9c0,0.6-0.1,1.4-0.2,2.2s-0.3,1.3-0.5,1.5c-0.2,0.2-0.4,0.3-0.6,0.4s-0.7,0.1-1.4,0.1c-0.3,0-0.6,0-0.8,0     l-0.4-1.2c0.3,0,0.7,0,1.2,0c0.6,0,0.9,0,1-0.1c0.1-0.1,0.2-0.2,0.3-0.5s0.1-0.7,0.2-1.3h-3.9v3.7h-1.3v-3.2     c-1.2,1.3-2.9,2.3-5,3l-0.6-1.1c1.9-0.5,3.4-1.3,4.6-2.4h-4l0.7-3h4.4v-0.8h-5.2V97h11.1v3h-4.7v0.8H197.1z M190.6,100.9V100     h-3.3l-0.2,0.8H190.6z M190,96.4l-1.2,0.3c-0.1-0.2-0.3-0.5-0.6-0.9l1.2-0.3C189.7,95.9,189.9,96.2,190,96.4z M197.3,95.3h-4.2     c-0.5,0.6-0.9,1.1-1.5,1.5l-1-0.7c0.9-0.6,1.6-1.6,2.3-2.9l1.2,0.3c0,0.1-0.2,0.4-0.4,0.6h3.5V95.3z M195.3,98.9v-0.8h-3.4v0.8     H195.3z M195.7,96.5l-1.2,0.2c-0.2-0.4-0.4-0.7-0.6-0.9l1.3-0.3C195.4,95.9,195.5,96.2,195.7,96.5z"/>
			<path class="st3" d="M211.5,99.8h-12.3v-1.2h12.3V99.8z"/>
			<path class="st3" d="M217.9,101.5h-4.6v-1.2h4.6V101.5z M217.5,96.4h-3.9v-1.2h3.9V96.4z M225.7,104.7l-0.8,1.1     c-2-1.2-3.4-2.8-4.1-4.6c-0.7,1.9-2.2,3.4-4.4,4.5l-0.9-1c1.8-1,3.1-2,3.7-2.9c0.6-1,0.9-2.3,0.9-3.9c0-0.3,0-0.6,0-0.9h1.2     c0,0.3,0,0.5,0,0.7c0,1.2,0.2,2.1,0.5,2.9c0.3,0.8,0.8,1.6,1.6,2.3C224.2,103.8,224.9,104.4,225.7,104.7z M225.4,95.2     c-0.3,2.1-0.9,3.7-1.7,4.9l-1.1-0.6c0.6-0.9,1-2,1.3-3.1h-4.5c-0.6,1.2-1.2,2.1-1.8,2.8l-1-0.8c1.1-1.3,2-3,2.7-5.2l1.2,0.2     c-0.2,0.5-0.4,1.1-0.6,1.7H225.4z"/>
			<path class="st3" d="M239.7,94.9h-5.4c-0.2,0.4-0.4,0.9-0.7,1.4h5.2v9.4h-1.2V105h-8.2v0.6h-1.2v-9.4h3.9     c0.3-0.4,0.5-0.9,0.7-1.4h-5.5v-1.2h12.3V94.9z M231,103.9v-6.5h-1.5v6.5H231z M234.9,98.8v-1.4h-2.8v1.4H234.9z M234.9,101.4     v-1.4h-2.8v1.4H234.9z M234.9,103.9v-1.4h-2.8v1.4H234.9z M237.7,103.9v-6.5h-1.5v6.5H237.7z"/>
			<path class="st3" d="M246,95.8h-4.6v-1.1h1.7c-0.1-0.2-0.2-0.6-0.5-1l1.3-0.3c0.2,0.4,0.4,0.9,0.6,1.3h1.5V95.8z M245.8,97.9h-4     v-1.1h4V97.9z M245.8,99.9h-4v-1.1h4V99.9z M245.8,105.5h-1.3v-0.7h-1.4v0.9h-1.3v-4.9h3.9V105.5z M244.5,103.7V102h-1.4v1.7     H244.5z M250.3,103.5c-1.4,0.7-2.8,1.2-4,1.5l-0.2-1.2c0.5-0.1,0.9-0.3,1.4-0.4v-4h-1.2v-1.1h3.6v1.1h-1.1v3.5     c0.3-0.1,0.8-0.3,1.5-0.7L250.3,103.5z M253.9,102.9c-0.1,0.9-0.2,1.5-0.5,2.1s-0.6,0.8-1,0.8c-0.8,0-1.3-0.8-1.6-2.3     c-0.3-1.5-0.5-3.7-0.5-6.5h-4v-1.2h3.9l0-2.4h1.2c0,1.1,0,1.9,0,2.4h2.2v1.2h-2.2c0.1,2.7,0.3,4.6,0.5,5.8s0.4,1.7,0.5,1.7     c0,0,0.1-0.2,0.2-0.5c0.1-0.3,0.2-0.8,0.2-1.6L253.9,102.9z M253.6,94.8l-0.9,0.6c-0.3-0.4-0.6-0.8-1.1-1.4l0.9-0.6     C253,93.9,253.3,94.4,253.6,94.8z"/>
		</g>
		<rect x="164.9" y="109" class="st3" width="109" height="26.5"/>
		<g class="st7">
			
				<pattern id="SVGID_1_" xlink:href="#_x35__勗寞 潛" patternTransform="matrix(0.3035 0 0 0.3035 -4963.8257 -5224.5425)" class="st7">
			</pattern>
			<rect x="164.9" y="109" class="st8" width="109" height="26.5"/>
		</g>
		<g>
			<path class="st9" d="M203.9,128.7h-1.2v-0.5h-8.9v0.6h-1.2v-12.1h11.3V128.7z M202.7,127.2v-9.5h-8.9v9.5H202.7z M202.3,119.2     h-3.5v0.4h3v3.1h-0.5c0.3,0.3,0.6,0.7,0.8,1.1l-0.9,0.3c-0.1-0.2-0.2-0.3-0.2-0.4c-2.3,0.2-4.5,0.4-6.6,0.4l-0.2-0.8     c1.2,0,2.3-0.1,3.5-0.1v-0.6h-3v-3.1h3v-0.4h-3.5v-0.8h3.5v-0.5h1.1v0.5h3.5V119.2z M202.4,125.4h-1.5v0.5c0,0.3-0.1,0.6-0.4,0.7     c-0.2,0.1-0.7,0.2-1.4,0.2c-0.2,0-0.5,0-0.7,0l-0.3-0.9c0.7,0,1.1,0,1.3,0c0.2,0,0.3-0.1,0.3-0.2v-0.3h-5.5v-0.8h5.5v-0.4h1.1     v0.4h1.5V125.4z M197.8,126.1l-0.6,0.8c-0.4-0.2-0.9-0.4-1.5-0.6l0.6-0.8C196.7,125.6,197.2,125.8,197.8,126.1z M197.7,120.8     v-0.5h-1.9v0.5H197.7z M197.7,122v-0.5h-1.9v0.5H197.7z M200.7,120.8v-0.5h-1.9v0.5H200.7z M200.7,122v-0.5h-1.9v0.5H200.7z      M200.8,122.7h-2v0.5l1.6-0.1c-0.1-0.1-0.1-0.2-0.2-0.2L200.8,122.7z"/>
			<path class="st9" d="M211.6,122.1h-0.7v5.4c0,0.6-0.2,0.9-0.5,1.1s-0.8,0.2-1.5,0.2l-0.4-1.2c0.2,0,0.4,0,0.5,0     c0.4,0,0.6,0,0.6-0.1c0.1,0,0.1-0.1,0.1-0.2v-1.2c-0.4,0.3-0.9,0.5-1.3,0.7l-0.4-0.6c-0.2,1-0.5,1.8-0.9,2.4l-1-0.7     c0.6-0.9,0.8-1.9,0.8-3v-2.9h-0.7V120h0.5v-3.5h4.4v3.5h0.4V122.1z M210.5,121.9v-0.8h-3v0.8H210.5z M210.1,118.2v-0.6h-2.2v2.4     h0.6v-1.8H210.1z M209.7,124.9V123h-1.6v0.6c0.6,0.1,1,0.3,1.4,0.4l-0.3,1c-0.4-0.1-0.8-0.3-1-0.3c0,0.5,0,0.9,0,1.2     C208.7,125.5,209.2,125.2,209.7,124.9z M210.1,120v-0.8h-0.7v0.8H210.1z M218.5,128.5h-7v-1h1.8c-0.2-0.5-0.3-0.8-0.4-1h-0.6     v-2.7h5.7v2.7h-0.7c0,0.1-0.1,0.4-0.4,1h1.6V128.5z M218.4,123.3h-6.6v-1h6.6V123.3z M218.2,121.6h-6.2v-4.2h1.7v-1h1v1h0.6v-1     h1.1v1h1.7V121.6z M213.8,119.1v-0.7h-0.7v0.7H213.8z M213.8,120.7v-0.8h-0.7v0.8H213.8z M216.8,125.6v-0.9h-3.3v0.9H216.8z      M216,126.5h-1.8c0.2,0.3,0.3,0.7,0.4,1h1.1C215.8,127.1,215.9,126.8,216,126.5z M215.5,119.1v-0.7h-0.6v0.7H215.5z M215.5,120.7     v-0.8h-0.6v0.8H215.5z M217.2,119.1v-0.7h-0.6v0.7H217.2z M217.2,120.7v-0.8h-0.6v0.8H217.2z"/>
			<path class="st9" d="M232.7,117.9h-5.4c-0.2,0.4-0.4,0.9-0.7,1.4h5.2v9.4h-1.2v-0.6h-8.2v0.6h-1.2v-9.4h3.9     c0.3-0.4,0.5-0.9,0.7-1.4h-5.5v-1.2h12.3V117.9z M223.9,127v-6.5h-1.5v6.5H223.9z M227.9,121.9v-1.4h-2.8v1.4H227.9z      M227.9,124.5V123h-2.8v1.4H227.9z M227.9,127v-1.4h-2.8v1.4H227.9z M230.6,127v-6.5h-1.5v6.5H230.6z"/>
			<path class="st9" d="M239,118.9h-4.6v-1.1h1.7c-0.1-0.2-0.2-0.6-0.5-1l1.3-0.3c0.2,0.4,0.4,0.9,0.6,1.3h1.5V118.9z M238.7,121h-4     v-1.1h4V121z M238.7,123h-4v-1.1h4V123z M238.7,128.6h-1.3v-0.7h-1.4v0.9h-1.3V124h3.9V128.6z M237.5,126.8v-1.7h-1.4v1.7H237.5z      M243.2,126.6c-1.4,0.7-2.8,1.2-4,1.5l-0.2-1.2c0.5-0.1,0.9-0.3,1.4-0.4v-4h-1.2v-1.1h3.6v1.1h-1.1v3.5c0.3-0.1,0.8-0.3,1.5-0.7     L243.2,126.6z M246.9,126c-0.1,0.9-0.2,1.5-0.5,2.1s-0.6,0.8-1,0.8c-0.8,0-1.3-0.8-1.6-2.3c-0.3-1.5-0.5-3.7-0.5-6.5h-4v-1.2h3.9     l0-2.4h1.2c0,1.1,0,1.9,0,2.4h2.2v1.2h-2.2c0.1,2.7,0.3,4.6,0.5,5.8s0.4,1.7,0.5,1.7c0,0,0.1-0.2,0.2-0.5     c0.1-0.3,0.2-0.8,0.2-1.6L246.9,126z M246.6,117.9l-0.9,0.6c-0.3-0.4-0.6-0.8-1.1-1.4l0.9-0.6C245.9,117,246.3,117.5,246.6,117.9     z"/>
		</g>
		<g>
			<path class="st10" d="M178,77.6c2.5,0,5.1,0,7.6,0c0.4,0,0.8,0,1-0.3c0.2-0.2,0.2-0.5,0.2-0.8c0.3-2.5,0.6-5,0.8-7.4     c0.5-5.3,0.7-10.9-0.8-16c-1.5-5.1-5.6-8.4-10.1-10.5c-4.6-2.1-8.6,0-8.6,0c-4.8,0.8-8.6,5.4-10.1,10.5c-1.5,5.1-1.3,10.6-0.8,16     c0.2,2.5,0.5,5,0.8,7.4c0,0.3,0.1,0.6,0.2,0.8c0.2,0.3,0.6,0.3,1,0.3c2.5,0,5.1,0,7.6,0H178z"/>
			<path class="st11" d="M184.1,77.2l-7.7-4.4c0.4,0-1.6-0.3-3.1-0.6V72c0,0-0.3,0-0.7,0.1C172.3,72,172,72,172,72v0.2     c-1.4,0.2-3.5,0.6-3.1,0.6l-7.7,4.4l-0.8,9.3H172h1.4h11.5L184.1,77.2z"/>
			<g>
				<line class="st12" x1="171.7" y1="74.3" x2="171.7" y2="86.3"/>
				<line class="st12" x1="173.7" y1="74.3" x2="173.7" y2="86.3"/>
			</g>
			<g>
				<path class="st12" d="M182.9,52.4c0.1,2.2,0,4.4-0.2,6.7l0.1,0.4c0.9-0.8,2.2-1.6,3.2-1c1,0.6,1,2,0.8,3.2c0,0.3-0.1,0.7-0.3,1      c-0.5,1-2,1-3.1,0.8l-0.3-0.1c-1.1,2.6-3,4.7-5.4,6.2c-0.7,0.4-1.1,0.8-1.8,1.1l0,0.3c0,0.8,0,1.6,0,2.4l0.1,0.5      c-1.7,1.3-4.3,1.3-5.9-0.1l0.2,0c0-0.8,0-1.6,0-2.4l-0.1-0.3c-0.8-0.3-1.6-0.6-2.4-1.1c-2.7-1.5-4.8-3.9-6-6.7l-0.4,0.1      c-1.1,0.2-2.6,0.2-3.1-0.8c-0.2-0.3-0.2-0.6-0.3-1c-0.2-1.2-0.2-2.6,0.8-3.2c1-0.6,2.3,0.2,3.2,1l0.2-0.4      c-0.2-2.2-0.3-4.4-0.2-6.7l0,2.8c4.6-0.6,8-1.2,10.7-5v0.4c2.7,3.8,5.5,4.1,10.1,4.6"/>
				<path class="st13" d="M168.7,56.2c0,1.3,0,2.6,0,3.8"/>
				<path class="st13" d="M176.8,56.2c0,1.3,0,2.6,0,3.8"/>
				<path class="st13" d="M171,63.6c1.1,0.5,2.5,0.4,3.6,0"/>
			</g>
			<g>
				<path class="st12" d="M170.1,70.8c0.9,1.3,1.8,2.7,2.5,4.1c0.1,0.2,0.3,0.5,0.2,0.8c0,0.2-0.2,0.4-0.4,0.6      c-0.7,0.8-1.4,1.6-2.2,2.3c-0.1,0.1-0.1,0.1-0.2,0.2c-0.2,0-0.3-0.1-0.4-0.3c-1.2-1.9-1.2-4.1-1.2-6.2c0-0.5,0-1,0.3-1.4      C169,70.6,169.7,70.4,170.1,70.8"/>
				<path class="st12" d="M175.5,70.8c-0.9,1.3-1.8,2.7-2.5,4.1c-0.1,0.2-0.3,0.5-0.2,0.8c0,0.2,0.2,0.4,0.4,0.6      c0.7,0.8,1.4,1.6,2.2,2.3c0.1,0.1,0.1,0.1,0.2,0.2c0.2,0,0.3-0.1,0.4-0.3c1.2-1.9,1.2-4.1,1.2-6.2c0-0.5,0-1-0.3-1.4      C176.6,70.6,175.9,70.4,175.5,70.8"/>
			</g>
		</g>
		<g>
			<ellipse class="st10" cx="204.5" cy="54.5" rx="14" ry="15.2"/>
			<path class="st11" d="M216,77.2l-7.7-4.4c0.4,0-1.6-0.3-3.1-0.6V72c0,0-0.3,0-0.7,0.1c-0.4-0.1-0.7-0.1-0.7-0.1v0.2     c-1.4,0.2-3.5,0.6-3.1,0.6l-7.7,4.4l-0.8,9.3h11.5h1.4h11.5L216,77.2z"/>
			<g>
				<line class="st12" x1="203.6" y1="74.3" x2="203.6" y2="86.3"/>
				<line class="st12" x1="205.6" y1="74.3" x2="205.6" y2="86.3"/>
			</g>
			<g>
				<path class="st12" d="M214.8,52.4c0.1,2.2,0,4.4-0.2,6.7l0.1,0.4c0.9-0.8,2.2-1.6,3.2-1c1,0.6,1,2,0.8,3.2c0,0.3-0.1,0.7-0.3,1      c-0.5,1-2,1-3.1,0.8l-0.3-0.1c-1.1,2.6-3,4.7-5.4,6.2c-0.7,0.4-1.1,0.8-1.8,1.1l0,0.3c0,0.8,0,1.6,0,2.4l0.1,0.5      c-1.7,1.3-4.3,1.3-5.9-0.1l0.2,0c0-0.8,0-1.6,0-2.4l-0.1-0.3c-0.8-0.3-1.6-0.6-2.4-1.1c-2.7-1.5-4.8-3.9-6-6.7l-0.4,0.1      c-1.1,0.2-2.6,0.2-3.1-0.8c-0.2-0.3-0.2-0.6-0.3-1c-0.2-1.2-0.2-2.6,0.8-3.2c1-0.6,2.3,0.2,3.2,1l0.2-0.4      c-0.2-2.2-0.3-4.4-0.2-6.7l0,2.8c4.6-0.6,8-1.2,10.7-5v0.4c2.7,3.8,5.5,4.1,10.1,4.6"/>
				<path class="st13" d="M200.6,56.2c0,1.3,0,2.6,0,3.8"/>
				<path class="st13" d="M208.8,56.2c0,1.3,0,2.6,0,3.8"/>
				<path class="st13" d="M202.9,63.6c1.1,0.5,2.5,0.4,3.6,0"/>
			</g>
			<g>
				<path class="st12" d="M202,70.8c0.9,1.3,1.8,2.7,2.5,4.1c0.1,0.2,0.3,0.5,0.2,0.8c0,0.2-0.2,0.4-0.4,0.6      c-0.7,0.8-1.4,1.6-2.2,2.3c-0.1,0.1-0.1,0.1-0.2,0.2c-0.2,0-0.3-0.1-0.4-0.3c-1.2-1.9-1.2-4.1-1.2-6.2c0-0.5,0-1,0.3-1.4      C200.9,70.6,201.6,70.4,202,70.8"/>
				<path class="st12" d="M207.4,70.8c-0.9,1.3-1.8,2.7-2.5,4.1c-0.1,0.2-0.3,0.5-0.2,0.8c0,0.2,0.2,0.4,0.4,0.6      c0.7,0.8,1.4,1.6,2.2,2.3c0.1,0.1,0.1,0.1,0.2,0.2c0.2,0,0.3-0.1,0.4-0.3c1.2-1.9,1.2-4.1,1.2-6.2c0-0.5,0-1-0.3-1.4      C208.5,70.6,207.8,70.4,207.4,70.8"/>
			</g>
			<path class="st14" d="M208.4,43.2"/>
			<path class="st14" d="M211.7,44.7c0.9,0.7,1.7,1.5,2.3,2.5"/>
		</g>
		<g>
			<ellipse class="st10" cx="236.2" cy="57.1" rx="14" ry="16.1"/>
			<path class="st15" d="M248,77.2l-7.7-4.4c0.4,0-1.6-0.3-3.1-0.6V72c0,0-0.3,0-0.7,0.1c-0.4-0.1-0.7-0.1-0.7-0.1v0.2     c-1.4,0.2-3.5,0.6-3.1,0.6l-7.7,4.4l-0.8,9.3h11.5h1.4h11.5L248,77.2z"/>
			<g>
				<path class="st12" d="M246.7,55.2"/>
				<path class="st12" d="M246.7,52.4c0.1,2.2,0,4.4-0.2,6.7l0.1,0.4c0.9-0.8,2.2-1.6,3.2-1c1,0.6,1,2,0.8,3.2c0,0.3-0.1,0.7-0.3,1      c-0.5,1-2,1-3.1,0.8l-0.3-0.1c-1.1,2.6-3,4.7-5.4,6.2c-0.7,0.4-1.1,0.8-1.8,1.1l0,0.3c0,0.8,0,1.6,0,2.4l0.1,0.5      c-1.7,1.3-4.3,1.3-5.9-0.1l0.2,0c0-0.8,0-1.6,0-2.4l-0.1-0.3c-0.8-0.3-1.6-0.6-2.4-1.1c-2.7-1.5-4.8-3.9-6-6.7l-0.4,0.1      c-1.1,0.2-2.6,0.2-3.1-0.8c-0.2-0.3-0.2-0.6-0.3-1c-0.2-1.2-0.2-2.6,0.8-3.2c1-0.6,2.3,0.2,3.2,1l0.2-0.4      c-0.2-2.2-0.3-4.4-0.2-6.7l0,2.8"/>
				<path class="st13" d="M234.8,63.6c1.1,0.5,2.5,0.4,3.6,0"/>
				<g>
					<ellipse class="st10" cx="231.3" cy="58.7" rx="0.7" ry="2"/>
					<ellipse class="st10" cx="241.3" cy="58.7" rx="0.7" ry="2"/>
				</g>
			</g>
			<g>
				<path class="st12" d="M233.9,70.8c0.9,1.3,1.8,2.7,2.5,4.1c0.1,0.2,0.3,0.5,0.2,0.8c0,0.2-0.2,0.4-0.4,0.6      c-0.7,0.8-1.4,1.6-2.2,2.3c-0.1,0.1-0.1,0.1-0.2,0.2c-0.2,0-0.3-0.1-0.4-0.3c-1.2-1.9-1.2-4.1-1.2-6.2c0-0.5,0-1,0.3-1.4      C232.8,70.6,233.6,70.4,233.9,70.8"/>
				<path class="st12" d="M239.4,70.8c-0.9,1.3-1.8,2.7-2.5,4.1c-0.1,0.2-0.3,0.5-0.2,0.8c0,0.2,0.2,0.4,0.4,0.6      c0.7,0.8,1.4,1.6,2.2,2.3c0.1,0.1,0.1,0.1,0.2,0.2c0.2,0,0.3-0.1,0.4-0.3c1.2-1.9,1.2-4.1,1.2-6.2c0-0.5,0-1-0.3-1.4      C240.4,70.6,239.7,70.4,239.4,70.8"/>
			</g>
			<path class="st14" d="M230,54.8c0-1.1,0-2.1,0-3.2"/>
			<path class="st14" d="M234.5,54.8c0-1.1,0-2.1,0-3.2"/>
			<path class="st14" d="M238.9,54.8c0-1.1,0-2.1,0-3.2"/>
			<path class="st14" d="M243.4,54.8c0-1.1,0-2.1,0-3.2"/>
		</g>
		<g>
			<ellipse class="st10" cx="268.3" cy="54.5" rx="14" ry="15.2"/>
			<path class="st15" d="M279.9,77.2l-7.7-4.4c0.4,0-1.6-0.3-3.1-0.6V72c0,0-0.3,0-0.7,0.1c-0.4-0.1-0.7-0.1-0.7-0.1v0.2     c-1.4,0.2-3.5,0.6-3.1,0.6l-7.7,4.4l-0.8,9.3h11.5h1.4h11.5L279.9,77.2z"/>
			<g>
				<polyline class="st12" points="267.5,86.3 267.5,74.3 269.5,74.3 269.5,86.3     "/>
			</g>
			<g>
				<path class="st12" d="M257.8,55.2"/>
				<path class="st12" d="M257.8,52.4c-0.1,2.2,0,4.4,0.2,6.7l-0.1,0.4c-0.9-0.8-2.2-1.6-3.2-1c-1,0.6-1,2-0.8,3.2      c0,0.3,0.1,0.7,0.3,1c0.5,1,2,1,3.1,0.8l0.3-0.1c1.1,2.6,3,4.7,5.4,6.2c0.7,0.4,2,0.8,2.7,1.1l0,0.3c0,0.8,0,1.6,0,2.4l-0.1,0.5      c1.7,1.3,4.3,1.3,5.9-0.1l-0.2,0c0-0.8,0-1.6,0-2.4l0.1-0.3c0.8-0.3,0.7-0.6,1.5-1.1c2.7-1.5,4.8-3.9,6-6.7l0.4,0.1      c1.1,0.2,2.6,0.2,3.1-0.8c0.2-0.3,0.2-0.6,0.3-1c0.2-1.2,0.2-2.6-0.8-3.2c-1-0.6-2.3,0.2-3.2,1l-0.2-0.4      c0.2-2.2,0.3-4.4,0.2-6.7l0,2.8"/>
				<path class="st13" d="M272.5,56.2c0,1.3,0,2.6,0,3.8"/>
				<path class="st13" d="M264.4,56.2c0,1.3,0,2.6,0,3.8"/>
				<path class="st13" d="M270.3,63.6c-1.1,0.5-2.5,0.4-3.6,0"/>
			</g>
			<g>
				<path class="st12" d="M265.8,70.8c0.9,1.3,1.8,2.7,2.5,4.1c0.1,0.2,0.3,0.5,0.2,0.8c0,0.2-0.2,0.4-0.4,0.6      c-0.7,0.8-1.4,1.6-2.2,2.3c-0.1,0.1-0.1,0.1-0.2,0.2c-0.2,0-0.3-0.1-0.4-0.3c-1.2-1.9-1.2-4.1-1.2-6.2c0-0.5,0-1,0.3-1.4      C264.8,70.6,265.5,70.4,265.8,70.8"/>
				<path class="st12" d="M271.3,70.8c-0.9,1.3-1.8,2.7-2.5,4.1c-0.1,0.2-0.3,0.5-0.2,0.8c0,0.2,0.2,0.4,0.4,0.6      c0.7,0.8,1.4,1.6,2.2,2.3c0.1,0.1,0.1,0.1,0.2,0.2c0.2,0,0.3-0.1,0.4-0.3c1.2-1.9,1.2-4.1,1.2-6.2c0-0.5,0-1-0.3-1.4      C272.4,70.6,271.6,70.4,271.3,70.8"/>
			</g>
		</g>
	</g>
	<g>
		<circle class="st6" cx="67.6" cy="222.6" r="66.9"/>
		<g>
			<path class="st3" d="M19.8,250.4h-3.7c-0.4,0.5-0.9,1-1.5,1.5l-0.9-0.8c1-0.8,1.8-1.7,2.4-2.8l1.2,0.4c-0.1,0.2-0.2,0.4-0.4,0.6     h2.9V250.4z M25.9,255.9c0,0.6-0.1,1.4-0.2,2.2s-0.3,1.3-0.5,1.5c-0.2,0.2-0.4,0.3-0.6,0.4s-0.7,0.1-1.4,0.1c-0.3,0-0.6,0-0.8,0     l-0.4-1.2c0.3,0,0.7,0,1.2,0c0.6,0,0.9,0,1-0.1c0.1-0.1,0.2-0.2,0.3-0.5s0.1-0.7,0.2-1.3h-3.9v3.7h-1.3v-3.2     c-1.2,1.3-2.9,2.3-5,3l-0.6-1.1c1.9-0.5,3.4-1.3,4.6-2.4h-4l0.7-3h4.4v-0.8h-5.2V252h11.1v3h-4.7v0.8H25.9z M19.4,255.9v-0.8     h-3.3l-0.2,0.8H19.4z M18.9,251.5l-1.2,0.3c-0.1-0.2-0.3-0.5-0.6-0.9l1.2-0.3C18.5,250.9,18.7,251.2,18.9,251.5z M26.2,250.4     h-4.2c-0.5,0.6-0.9,1.1-1.5,1.5l-1-0.7c0.9-0.6,1.6-1.6,2.3-2.9l1.2,0.3c0,0.1-0.2,0.4-0.4,0.6h3.5V250.4z M24.1,254v-0.8h-3.4     v0.8H24.1z M24.5,251.6l-1.2,0.2c-0.2-0.4-0.4-0.7-0.6-0.9l1.3-0.3C24.2,250.9,24.4,251.2,24.5,251.6z"/>
			<path class="st3" d="M40.2,260.2H28V259h12.2V260.2z M39.3,250.1H29v-1.2h10.3V250.1z"/>
			<path class="st3" d="M46.7,256.5h-4.6v-1.2h4.6V256.5z M46.4,251.4h-3.9v-1.2h3.9V251.4z M54.5,259.8l-0.8,1.1     c-2-1.2-3.4-2.8-4.1-4.6c-0.7,1.9-2.2,3.4-4.4,4.5l-0.9-1c1.8-1,3.1-2,3.7-2.9c0.6-1,0.9-2.3,0.9-3.9c0-0.3,0-0.6,0-0.9h1.2     c0,0.3,0,0.5,0,0.7c0,1.2,0.2,2.1,0.5,2.9c0.3,0.8,0.8,1.6,1.6,2.3C53,258.8,53.7,259.4,54.5,259.8z M54.2,250.2     c-0.3,2.1-0.9,3.7-1.7,4.9l-1.1-0.6c0.6-0.9,1-2,1.3-3.1h-4.5c-0.6,1.2-1.2,2.1-1.8,2.8l-1-0.8c1.1-1.3,2-3,2.7-5.2l1.2,0.2     c-0.2,0.5-0.4,1.1-0.6,1.7H54.2z"/>
			<path class="st3" d="M68.5,249.9h-5.4c-0.2,0.4-0.4,0.9-0.7,1.4h5.2v9.4h-1.2v-0.6h-8.2v0.6h-1.2v-9.4H61     c0.3-0.4,0.5-0.9,0.7-1.4h-5.5v-1.2h12.3V249.9z M59.8,258.9v-6.5h-1.5v6.5H59.8z M63.8,253.8v-1.4H61v1.4H63.8z M63.8,256.4V255     H61v1.4H63.8z M63.8,258.9v-1.4H61v1.4H63.8z M66.5,258.9v-6.5H65v6.5H66.5z"/>
			<path class="st3" d="M74.8,250.8h-4.6v-1.1H72c-0.1-0.2-0.2-0.6-0.5-1l1.3-0.3c0.2,0.4,0.4,0.9,0.6,1.3h1.5V250.8z M74.6,253h-4     v-1.1h4V253z M74.6,255h-4v-1.1h4V255z M74.6,260.5h-1.3v-0.7H72v0.9h-1.3v-4.9h3.9V260.5z M73.4,258.7v-1.7H72v1.7H73.4z      M79.1,258.5c-1.4,0.7-2.8,1.2-4,1.5l-0.2-1.2c0.5-0.1,0.9-0.3,1.4-0.4v-4h-1.2v-1.1h3.6v1.1h-1.1v3.5c0.3-0.1,0.8-0.3,1.5-0.7     L79.1,258.5z M82.8,257.9c-0.1,0.9-0.2,1.5-0.5,2.1s-0.6,0.8-1,0.8c-0.8,0-1.3-0.8-1.6-2.3c-0.3-1.5-0.5-3.7-0.5-6.5h-4v-1.2h3.9     l0-2.4h1.2c0,1.1,0,1.9,0,2.4h2.2v1.2h-2.2c0.1,2.7,0.3,4.6,0.5,5.8s0.4,1.7,0.5,1.7c0,0,0.1-0.2,0.2-0.5     c0.1-0.3,0.2-0.8,0.2-1.6L82.8,257.9z M82.5,249.9l-0.9,0.6c-0.3-0.4-0.6-0.8-1.1-1.4l0.9-0.6C81.8,249,82.1,249.4,82.5,249.9z"/>
			<path class="st3" d="M92.3,256.2h-3v2.9h-1.2v-2.9h-3V255h3v-3h1.2v3h3V256.2z"/>
			<path class="st3" d="M101,250.3h-3.7c-0.5,0.6-0.9,1.1-1.4,1.5l-1-0.8c0.9-0.7,1.6-1.6,2.2-2.7l1.2,0.3c-0.1,0.2-0.2,0.5-0.4,0.7     h3V250.3z M107.3,259.2h-5.6v1.6h-1.3v-1.6H95v-1h5.5v-0.7h-5v-1h5v-0.6h-4.4V255h4.4v-0.6H95v-0.9h5.5v-0.6h-4.4v-1h4.4v-0.7     h1.3v0.7h4.3v1.5h1.3v0.9h-1.3v1.5h-4.3v0.6h5.1v1h-5.1v0.7h5.6V259.2z M99.7,251.5l-1.2,0.3c-0.3-0.5-0.5-0.8-0.7-1l1.3-0.2     C99.4,250.8,99.6,251.2,99.7,251.5z M107.3,250.3H103c-0.3,0.4-0.6,0.7-0.9,1l-1-0.7c0.7-0.6,1.2-1.4,1.7-2.4l1.2,0.4     c0,0.1-0.1,0.3-0.3,0.6h3.6V250.3z M104.8,253.5v-0.6h-3.1v0.6H104.8z M104.8,255v-0.6h-3.1v0.6H104.8z M105.6,251.5l-1.3,0.3     c-0.2-0.3-0.4-0.7-0.7-1l1.3-0.2C105.2,250.8,105.4,251.1,105.6,251.5z"/>
			<path class="st3" d="M113.6,250.8H109v-1.1h1.7c-0.1-0.2-0.2-0.6-0.5-1l1.3-0.3c0.2,0.4,0.4,0.9,0.6,1.3h1.5V250.8z M113.4,253     h-4v-1.1h4V253z M113.4,255h-4v-1.1h4V255z M113.4,260.5h-1.3v-0.7h-1.4v0.9h-1.3v-4.9h3.9V260.5z M112.1,258.7v-1.7h-1.4v1.7     H112.1z M117.9,258.5c-1.4,0.7-2.8,1.2-4,1.5l-0.2-1.2c0.5-0.1,0.9-0.3,1.4-0.4v-4h-1.2v-1.1h3.6v1.1h-1.1v3.5     c0.3-0.1,0.8-0.3,1.5-0.7L117.9,258.5z M121.5,257.9c-0.1,0.9-0.2,1.5-0.5,2.1s-0.6,0.8-1,0.8c-0.8,0-1.3-0.8-1.6-2.3     c-0.3-1.5-0.5-3.7-0.5-6.5h-4v-1.2h3.9l0-2.4h1.2c0,1.1,0,1.9,0,2.4h2.2v1.2h-2.2c0.1,2.7,0.3,4.6,0.5,5.8s0.4,1.7,0.5,1.7     c0,0,0.1-0.2,0.2-0.5c0.1-0.3,0.2-0.8,0.2-1.6L121.5,257.9z M121.2,249.9l-0.9,0.6c-0.3-0.4-0.6-0.8-1.1-1.4l0.9-0.6     C120.6,249,120.9,249.4,121.2,249.9z"/>
		</g>
		<rect x="13.1" y="264" class="st3" width="109" height="41.4"/>
		<pattern id="SVGID_2_" xlink:href="#_x35__勗寞 潛" patternTransform="matrix(0.3035 0 0 0.3035 -4950.7007 -5200.6201)">
		</pattern>
		<rect x="13.1" y="264" class="st16" width="109" height="41.4"/>
		<g>
			<path class="st9" d="M34.8,274.4h6.5v6.5h-6.5V274.4z"/>
			<path class="st9" d="M49.9,282.1h-6.3v-1.4h2.3V273l-2.4,0.6v-1.4l4-1.1v9.5h2.3V282.1z"/>
			<path class="st9" d="M58.6,281.7c-2,0.4-4.3,0.7-6.8,1l-0.2-1.1c1.7-0.2,2.7-0.3,3-0.4v-1.4h-2.5v-1h2.5v-1.2h-2.8v-1.1h1.5     c-0.1-0.5-0.3-1.1-0.6-1.7h-1.1v-1.1h2v-3.2h1.1v3.2h0.8v-3.2h1.1v3.2h1.7v1.1h-0.9c-0.1,0.5-0.4,1-0.6,1.7h1.4v1.1h-2.5v1.2h2.2     v1h-2.2v1.2c0.8-0.1,1.7-0.2,2.8-0.4L58.6,281.7z M53.3,273l-1,0.4c-0.1-0.8-0.3-1.5-0.6-2.2l1-0.4     C52.9,271.5,53.1,272.2,53.3,273z M56.2,274.8H54c0.3,0.8,0.4,1.3,0.5,1.7h1C55.8,275.8,56,275.3,56.2,274.8z M58.7,271.2     c-0.1,0.6-0.4,1.4-0.8,2.2l-1-0.5c0.4-0.9,0.6-1.6,0.7-2.1L58.7,271.2z M61.1,278.9l-1.1,0.5c-0.3-0.9-0.7-2-1.3-3.3l1.1-0.5     C60.4,276.9,60.9,278,61.1,278.9z M63.9,274.5h-1v7c0,0.3-0.1,0.6-0.2,0.8s-0.4,0.3-0.6,0.4s-0.6,0.1-1.2,0.1c-0.3,0-0.7,0-1.1,0     l-0.4-1.2c0.4,0,0.8,0,1.1,0c0.6,0,0.9,0,1-0.1s0.1-0.1,0.1-0.2v-6.8h-2.7v-1.2h2.7v-2.9h1.2v2.9h1V274.5z"/>
			<path class="st9" d="M72.4,282.1h-6.3v-1.4h2.3V273l-2.4,0.6v-1.4l4-1.1v9.5h2.3V282.1z"/>
			<path class="st9" d="M86.5,272h-5.4c-0.2,0.4-0.4,0.9-0.7,1.4h5.2v9.4h-1.2v-0.6h-8.2v0.6H75v-9.4H79c0.3-0.4,0.5-0.9,0.7-1.4     h-5.5v-1.2h12.3V272z M77.7,281v-6.5h-1.5v6.5H77.7z M81.7,275.9v-1.4H79v1.4H81.7z M81.7,278.5v-1.4H79v1.4H81.7z M81.7,281     v-1.4H79v1.4H81.7z M84.4,281v-6.5h-1.5v6.5H84.4z"/>
			<path class="st9" d="M92.8,272.9h-4.6v-1.1h1.7c-0.1-0.2-0.2-0.6-0.5-1l1.3-0.3c0.2,0.4,0.4,0.9,0.6,1.3h1.5V272.9z M92.5,275h-4     v-1.1h4V275z M92.5,277h-4v-1.1h4V277z M92.6,282.6h-1.3v-0.7h-1.4v0.9h-1.3V278h3.9V282.6z M91.3,280.8v-1.7h-1.4v1.7H91.3z      M97.1,280.6c-1.4,0.7-2.8,1.2-4,1.5l-0.2-1.2c0.5-0.1,0.9-0.3,1.4-0.4v-4H93v-1.1h3.6v1.1h-1.1v3.5c0.3-0.1,0.8-0.3,1.5-0.7     L97.1,280.6z M100.7,280c-0.1,0.9-0.2,1.5-0.5,2.1s-0.6,0.8-1,0.8c-0.8,0-1.3-0.8-1.6-2.3c-0.3-1.5-0.5-3.7-0.5-6.5h-4v-1.2H97     l0-2.4h1.2c0,1.1,0,1.9,0,2.4h2.2v1.2h-2.2c0.1,2.7,0.3,4.6,0.5,5.8s0.4,1.7,0.5,1.7c0,0,0.1-0.2,0.2-0.5     c0.1-0.3,0.2-0.8,0.2-1.6L100.7,280z M100.4,271.9l-0.9,0.6c-0.3-0.4-0.6-0.8-1.1-1.4l0.9-0.6C99.7,271,100.1,271.5,100.4,271.9z     "/>
			<path class="st9" d="M34.8,291.3h6.5v6.5h-6.5V291.3z"/>
			<path class="st9" d="M44.7,289.4c-0.1,1.3-0.2,2.5-0.5,3.5l-1-0.5c0.2-1.1,0.4-2.2,0.4-3.3L44.7,289.4z M47.6,290.3l-0.7,1     c-0.2-0.3-0.4-0.6-0.6-0.9v8.2H45l0-12.3l0,0l1.2,0v2.6C46.7,289.3,47.2,289.7,47.6,290.3z M55.5,298.3h-8.1V297H51v-3h-2.9v-1.2     H51v-2.6h-1.7c-0.4,0.9-0.7,1.6-1.1,2.1l-1.1-0.6c0.8-1.2,1.4-2.8,1.8-4.8l1.2,0.2c-0.1,0.4-0.2,1-0.4,1.8H51v-2.9h1.3v2.9h2.9     v1.2h-2.9v2.6h2.6v1.2h-2.6v3h3.2V298.3z"/>
			<path class="st9" d="M69.1,297.3c0,0.3-0.1,0.6-0.3,0.8s-0.5,0.3-0.8,0.3l-2.3,0l-0.5-1.2c0.7,0,1.4,0,2.2,0     c0.3,0,0.4-0.1,0.4-0.4v-7.7h-8.6v9.4h-1.3v-10.6h2.7c0.4-0.7,0.8-1.3,1.1-1.9l1.3,0.2c-0.2,0.6-0.5,1.1-0.9,1.6h6.9V297.3z      M66.3,295.9h-5.6v-5.2h5.6V295.9z M65.1,294.7v-2.8h-3.1v2.8H65.1z"/>
			<path class="st9" d="M74.2,293.9c-0.4,1.5-1,3-1.8,4.7l-1.1-0.8c0.7-1.5,1.3-3.1,1.7-4.7L74.2,293.9z M74.4,291.4l-0.8,1     c-0.5-0.5-1.2-1.1-2.2-1.7l0.8-1C73,290.2,73.8,290.8,74.4,291.4z M74.5,288.1l-0.8,1c-0.6-0.7-1.2-1.4-2-2l0.9-1     C73.2,286.7,73.8,287.3,74.5,288.1z M79.2,295.2H76l0.9,0.5c-0.6,1.1-1.2,2.1-1.9,2.9l-1-0.7c0.8-0.9,1.4-1.8,1.9-2.7h-1v-8.7     h4.4V295.2z M78,289.1v-1.4h-2v1.4H78z M78,291.6v-1.4h-2v1.4H78z M78,294.1v-1.4h-2v1.4H78z M79.6,297.9l-1.1,0.5     c-0.2-0.6-0.6-1.4-1.2-2.3l1.1-0.6C78.9,296.3,79.3,297.1,79.6,297.9z M81.3,296h-1.2v-8.8h1.2V296z M83.5,297.1     c0,0.6-0.2,0.9-0.5,1.1s-0.8,0.3-1.5,0.3c-0.2,0-0.5,0-0.9,0l-0.3-1.2c1,0,1.6,0,1.8,0c0.2-0.1,0.2-0.2,0.2-0.4v-10.7h1.2V297.1z     "/>
			<path class="st9" d="M86.4,294.1c0,1.1-0.1,2.3-0.4,3.5l-0.6-0.2c0.2-1.1,0.4-2.2,0.4-3.4L86.4,294.1z M90.5,287.5h-1.4v0.9h1v1     h-1v0.9h1v1h-1v1h1.2c0,3-0.1,4.8-0.3,5.4s-0.7,0.8-1.5,0.8c-0.1,0-0.3,0-0.5,0l-0.4-1.1l1.2,0c0.1,0,0.2-0.1,0.3-0.2     c0.1-0.1,0.1-1.4,0.2-3.7h-3.3v-7h4.5V287.5z M87.4,297.1l-0.6,0.1c0-0.4,0-0.9,0-1.4c0-0.6,0-1.2-0.1-1.8l0.6-0.1     c0.1,0.7,0.1,1.5,0.1,2.2C87.4,296.6,87.4,296.9,87.4,297.1z M88.1,288.4v-0.9h-0.9v0.9H88.1z M88.1,290.3v-0.9h-0.9v0.9H88.1z      M88.1,292.3v-1h-0.9v1H88.1z M88.3,296.6l-0.6,0.1c0-1-0.1-1.9-0.2-2.7l0.5-0.1C88.2,294.7,88.3,295.5,88.3,296.6z M89.1,296.1     l-0.5,0.2c0-0.7-0.1-1.5-0.3-2.3l0.5-0.1C89,294.4,89.1,295.2,89.1,296.1z M94,296.9l-0.8,0.9c-0.3-0.4-0.6-0.6-0.8-0.8     c-0.3,0.6-0.7,1.2-1.1,1.7l-1.1-0.7c0.7-0.8,1.3-1.9,1.8-3.2l1.2,0.3c-0.1,0.3-0.2,0.6-0.3,0.9C93.4,296.2,93.7,296.5,94,296.9z      M98.1,289.3l-0.6,1.1c-0.6-0.3-1.1-0.7-1.5-1v0.7h-3.8v-0.7c-0.6,0.5-1,0.8-1.3,1l-0.6-1.2c1.6-1,2.8-2.1,3.4-3.2l1.3,0.3     c-0.1,0.1-0.1,0.2-0.2,0.3C95.6,287.6,96.6,288.5,98.1,289.3z M93.8,294.4H91v-3.6h2.8V294.4z M92.8,293.3v-1.5h-0.9v1.5H92.8z      M95.6,289.1c-0.5-0.4-1-0.9-1.4-1.5c-0.4,0.5-0.9,1-1.5,1.5H95.6z M98,297.6l-0.9,0.9c-0.4-0.5-0.8-0.9-1.4-1.4     c-0.3,0.5-0.6,1-1,1.5l-1.1-0.6c0.8-0.9,1.4-2,1.8-3.3l1.2,0.2c-0.1,0.3-0.2,0.7-0.4,1.1C97,296.5,97.6,297.1,98,297.6z      M97.3,294.4h-2.9v-3.6h2.9V294.4z M96.3,293.3v-1.5h-0.8v1.5H96.3z"/>
		</g>
		<g>
			<ellipse class="st10" cx="36.2" cy="209.1" rx="14" ry="16.1"/>
			<path class="st15" d="M47.9,229.2l-7.7-4.4c0.4,0-1.6-0.3-3.1-0.6V224c0,0-0.3,0-0.7,0.1c-0.4-0.1-0.7-0.1-0.7-0.1v0.2     c-1.4,0.2-3.5,0.6-3.1,0.6l-7.7,4.4l-0.8,9.3h11.5h1.4h11.5L47.9,229.2z"/>
			<g>
				<path class="st12" d="M46.7,207.2"/>
				<path class="st12" d="M46.6,204.4c0.1,2.2,0,4.4-0.2,6.7l0.1,0.4c0.9-0.8,2.2-1.6,3.2-1c1,0.6,1,2,0.8,3.2c0,0.3-0.1,0.7-0.3,1      c-0.5,1-2,1-3.1,0.8l-0.3-0.1c-1.1,2.6-3,4.7-5.4,6.2c-0.7,0.4-1.1,0.8-1.8,1.1l0,0.3c0,0.8,0,1.6,0,2.4l0.1,0.5      c-1.7,1.3-4.3,1.3-5.9-0.1l0.2,0c0-0.8,0-1.6,0-2.4L34,223c-0.8-0.3-1.6-0.6-2.4-1.1c-2.7-1.5-4.8-3.9-6-6.7l-0.4,0.1      c-1.1,0.2-2.6,0.2-3.1-0.8c-0.2-0.3-0.2-0.6-0.3-1c-0.2-1.2-0.2-2.6,0.8-3.2c1-0.6,2.3,0.2,3.2,1L26,211      c-0.2-2.2-0.3-4.4-0.2-6.7l0,2.8"/>
				<path class="st13" d="M34.8,215.6c1.1,0.5,2.5,0.4,3.6,0"/>
				<g>
					<ellipse class="st10" cx="31.2" cy="210.7" rx="0.7" ry="2"/>
					<ellipse class="st10" cx="41.2" cy="210.7" rx="0.7" ry="2"/>
				</g>
			</g>
			<g>
				<path class="st12" d="M33.8,222.8c0.9,1.3,1.8,2.7,2.5,4.1c0.1,0.2,0.3,0.5,0.2,0.8c0,0.2-0.2,0.4-0.4,0.6      c-0.7,0.8-1.4,1.6-2.2,2.3c-0.1,0.1-0.1,0.1-0.2,0.2c-0.2,0-0.3-0.1-0.4-0.3c-1.2-1.9-1.2-4.1-1.2-6.2c0-0.5,0-1,0.3-1.4      S33.5,222.4,33.8,222.8"/>
				<path class="st12" d="M39.3,222.8c-0.9,1.3-1.8,2.7-2.5,4.1c-0.1,0.2-0.3,0.5-0.2,0.8c0,0.2,0.2,0.4,0.4,0.6      c0.7,0.8,1.4,1.6,2.2,2.3c0.1,0.1,0.1,0.1,0.2,0.2c0.2,0,0.3-0.1,0.4-0.3c1.2-1.9,1.2-4.1,1.2-6.2c0-0.5,0-1-0.3-1.4      S39.6,222.4,39.3,222.8"/>
			</g>
			<path class="st14" d="M29.9,206.8c0-1.1,0-2.1,0-3.2"/>
			<path class="st14" d="M34.4,206.8c0-1.1,0-2.1,0-3.2"/>
			<path class="st14" d="M38.8,206.8c0-1.1,0-2.1,0-3.2"/>
			<path class="st14" d="M43.3,206.8c0-1.1,0-2.1,0-3.2"/>
		</g>
		<g>
			<g>
				<g>
					<path class="st3" d="M85,230.5c0.4,0.3,0.4,0.8,0,1.1l-8,5.7c-0.4,0.2-0.7,0-0.5-0.5l3.1-9.3c0.2-0.5,0.6-0.6,1-0.3L85,230.5z"/>
					<path class="st17" d="M85,230.5c0.4,0.3,0.4,0.8,0,1.1l-8,5.7c-0.4,0.2-0.7,0-0.5-0.5l3.1-9.3c0.2-0.5,0.6-0.6,1-0.3L85,230.5z       "/>
				</g>
				<path class="st3" d="M112.4,195.4c-2.5,3.3-4.9,6.5-7.2,9.6c-0.7,0.9-1.4,1.9-2.1,2.8c-0.6,0.8-1.3,1.2-2.3,0.4      c-1.1-0.9-2.3-1.8-3.5-2.6c-1.1-0.7-0.9-1.5-0.3-2.4c2.3-3,4.5-6.1,6.8-9.1c1.6-2.2,3.3-4.4,4.9-6.6c1.3-1.7,2.9-2.1,4.5-1.1      c2.6,1.7,3,3,2,5.2c-0.3,0.7-0.4,1.7-0.1,2.4c1.2,2.7,0.5,4.9-1.3,7.1c-1.9,2.4-3.3,5-5.1,7.5c-0.4,0.6-1.5,1.1-2.1,1      c-0.8-0.1-1.8-0.7-2.3-1.4c-0.6-0.7,0.2-2,1.5-2.1c1.4-0.2,2.2-1,2.9-2.1c1.2-1.9,2.5-3.8,3.8-5.6      C113.1,197.4,113.1,196.6,112.4,195.4z"/>
				<path class="st18" d="M96.4,204.4c2,1.4,3.8,2.8,5.7,4.2c-5.5,7.6-11,15.1-16.5,22.7c-1.9-1.4-3.8-2.7-5.7-4.1      C85.4,219.5,90.9,212,96.4,204.4z"/>
			</g>
			<rect x="72.1" y="237.8" class="st19" width="50" height="0.7"/>
		</g>
		<g>
			<path class="st3" d="M74.6,212.1h-5v5h-2v-5h-5v-2h5v-5h2v5h5V212.1z"/>
		</g>
	</g>
	<g>
		<circle class="st6" cx="219.4" cy="222.6" r="66.9"/>
		<g>
			<path class="st3" d="M191,250.4h-3.7c-0.4,0.5-0.9,1-1.5,1.5l-0.9-0.8c1-0.8,1.8-1.7,2.4-2.8l1.2,0.4c-0.1,0.2-0.2,0.4-0.4,0.6     h2.9V250.4z M197.1,255.9c0,0.6-0.1,1.4-0.2,2.2s-0.3,1.3-0.5,1.5c-0.2,0.2-0.4,0.3-0.6,0.4s-0.7,0.1-1.4,0.1c-0.3,0-0.6,0-0.8,0     l-0.4-1.2c0.3,0,0.7,0,1.2,0c0.6,0,0.9,0,1-0.1c0.1-0.1,0.2-0.2,0.3-0.5s0.1-0.7,0.2-1.3h-3.9v3.7h-1.3v-3.2     c-1.2,1.3-2.9,2.3-5,3l-0.6-1.1c1.9-0.5,3.4-1.3,4.6-2.4h-4l0.7-3h4.4v-0.8h-5.2V252h11.1v3h-4.7v0.8H197.1z M190.6,255.9v-0.8     h-3.3l-0.2,0.8H190.6z M190,251.5l-1.2,0.3c-0.1-0.2-0.3-0.5-0.6-0.9l1.2-0.3C189.7,250.9,189.9,251.2,190,251.5z M197.3,250.4     h-4.2c-0.5,0.6-0.9,1.1-1.5,1.5l-1-0.7c0.9-0.6,1.6-1.6,2.3-2.9l1.2,0.3c0,0.1-0.2,0.4-0.4,0.6h3.5V250.4z M195.3,254v-0.8h-3.4     v0.8H195.3z M195.7,251.6l-1.2,0.2c-0.2-0.4-0.4-0.7-0.6-0.9l1.3-0.3C195.4,250.9,195.5,251.2,195.7,251.6z"/>
			<path class="st3" d="M211.5,260.3h-12.3v-1.3h12.3V260.3z M210.9,250h-11v-1.3h11V250z M210.2,255h-9.8v-1.3h9.8V255z"/>
			<path class="st3" d="M217.9,256.5h-4.6v-1.2h4.6V256.5z M217.5,251.4h-3.9v-1.2h3.9V251.4z M225.7,259.8l-0.8,1.1     c-2-1.2-3.4-2.8-4.1-4.6c-0.7,1.9-2.2,3.4-4.4,4.5l-0.9-1c1.8-1,3.1-2,3.7-2.9c0.6-1,0.9-2.3,0.9-3.9c0-0.3,0-0.6,0-0.9h1.2     c0,0.3,0,0.5,0,0.7c0,1.2,0.2,2.1,0.5,2.9c0.3,0.8,0.8,1.6,1.6,2.3C224.2,258.8,224.9,259.4,225.7,259.8z M225.4,250.2     c-0.3,2.1-0.9,3.7-1.7,4.9l-1.1-0.6c0.6-0.9,1-2,1.3-3.1h-4.5c-0.6,1.2-1.2,2.1-1.8,2.8l-1-0.8c1.1-1.3,2-3,2.7-5.2l1.2,0.2     c-0.2,0.5-0.4,1.1-0.6,1.7H225.4z"/>
			<path class="st3" d="M239.7,249.9h-5.4c-0.2,0.4-0.4,0.9-0.7,1.4h5.2v9.4h-1.2v-0.6h-8.2v0.6h-1.2v-9.4h3.9     c0.3-0.4,0.5-0.9,0.7-1.4h-5.5v-1.2h12.3V249.9z M231,258.9v-6.5h-1.5v6.5H231z M234.9,253.8v-1.4h-2.8v1.4H234.9z M234.9,256.4     V255h-2.8v1.4H234.9z M234.9,258.9v-1.4h-2.8v1.4H234.9z M237.7,258.9v-6.5h-1.5v6.5H237.7z"/>
			<path class="st3" d="M246,250.8h-4.6v-1.1h1.7c-0.1-0.2-0.2-0.6-0.5-1l1.3-0.3c0.2,0.4,0.4,0.9,0.6,1.3h1.5V250.8z M245.8,253h-4     v-1.1h4V253z M245.8,255h-4v-1.1h4V255z M245.8,260.5h-1.3v-0.7h-1.4v0.9h-1.3v-4.9h3.9V260.5z M244.5,258.7v-1.7h-1.4v1.7H244.5     z M250.3,258.5c-1.4,0.7-2.8,1.2-4,1.5l-0.2-1.2c0.5-0.1,0.9-0.3,1.4-0.4v-4h-1.2v-1.1h3.6v1.1h-1.1v3.5c0.3-0.1,0.8-0.3,1.5-0.7     L250.3,258.5z M253.9,257.9c-0.1,0.9-0.2,1.5-0.5,2.1s-0.6,0.8-1,0.8c-0.8,0-1.3-0.8-1.6-2.3c-0.3-1.5-0.5-3.7-0.5-6.5h-4v-1.2     h3.9l0-2.4h1.2c0,1.1,0,1.9,0,2.4h2.2v1.2h-2.2c0.1,2.7,0.3,4.6,0.5,5.8s0.4,1.7,0.5,1.7c0,0,0.1-0.2,0.2-0.5     c0.1-0.3,0.2-0.8,0.2-1.6L253.9,257.9z M253.6,249.9l-0.9,0.6c-0.3-0.4-0.6-0.8-1.1-1.4l0.9-0.6C253,249,253.3,249.4,253.6,249.9     z"/>
		</g>
		<g>
			<rect x="164.9" y="264" class="st3" width="109" height="41.4"/>
			<pattern id="SVGID_3_" xlink:href="#_x35__勗寞 潛" patternTransform="matrix(0.3035 0 0 0.3035 -4951.8647 -5222.4712)">
			</pattern>
			<rect x="164.9" y="264" class="st20" width="109" height="41.4"/>
			<g>
				<path class="st9" d="M186.6,274.4h6.5v6.5h-6.5V274.4z"/>
				<path class="st9" d="M205.9,282.8h-1.3v-0.9h-6.7v0.9h-1.3v-11.9h9.3V282.8z M204.6,275.5V272h-6.7v3.5H204.6z M204.6,280.6      v-3.9h-6.7v3.9H204.6z"/>
				<path class="st9" d="M215.2,272.2h-3.9c-0.4,0.5-0.9,1-1.4,1.5l-0.9-0.9c0.8-0.7,1.5-1.5,2.1-2.4l1.3,0.4      c-0.1,0.2-0.2,0.4-0.3,0.5h3.1V272.2z M214.7,280.6l-0.7,1c-0.4-0.5-0.9-1-1.4-1.4v2.6h-1.2V280c-0.7,1.1-1.4,1.8-1.9,2.2      L209,281c1-0.9,1.7-1.7,2.1-2.5h-2v-1h2.3v-0.7h-2v-1h2v-0.7c-0.6,0.1-1.2,0.1-2,0.1l-0.3-1c1,0,1.8-0.1,2.3-0.1v-0.8h1.2v0.7      c0.7-0.1,1.3-0.2,1.6-0.3l0.3,1c-0.7,0.2-1.3,0.3-1.9,0.3v0.9h1.6v1h-1.6v0.7h1.9v1h-1.9v0.3C213.5,279.4,214.2,280,214.7,280.6      z M214.2,273.2l-1.2,0.3c-0.2-0.3-0.4-0.6-0.6-0.9l1.2-0.3C213.9,272.6,214,272.9,214.2,273.2z M221.5,272.2H217      c-0.5,0.6-1,1.1-1.6,1.5l-0.8-0.9c1-0.8,1.8-1.6,2.4-2.5l1.2,0.4l-0.3,0.5h3.7V272.2z M221.5,277.3h-6.8v-1h1.4v-1h-1.2v-1.1      h1.2v-0.9h1.2v0.9h1.6v-0.9h1.2v0.9h1.1v1.1h-1.1v1h1.4V277.3z M220.9,282.8h-1.2v-0.5h-3.5v0.5h-1.2v-5h5.9V282.8z       M219.8,279.6v-0.7h-3.5v0.7H219.8z M219.8,281.3v-0.8h-3.5v0.8H219.8z M218.9,276.2v-1h-1.6v1H218.9z M218.9,273.2l-1.2,0.3      l-0.5-0.8l1.2-0.3C218.6,272.5,218.7,272.8,218.9,273.2z"/>
				<path class="st9" d="M235.5,282.4h-12.2v-1.2h5.5v-3h-4.3v-1.2h4.3v-3h-5v-1.2h5.2c-0.2-0.6-0.5-1.3-0.9-2.1l1.3-0.3      c0.4,0.8,0.7,1.6,1,2.4h4.7v1.2h-5v3h4.3v1.2h-4.3v3h5.5V282.4z"/>
				<path class="st9" d="M243.4,272.3h-3.7c-0.4,0.5-0.9,1-1.6,1.5l-0.8-1c1.1-0.7,1.8-1.5,2.1-2.4l1.3,0.3      c-0.1,0.2-0.2,0.4-0.3,0.6h3V272.3z M249.3,276.5h-1.2v-1.4h-9.2v1.4h-1.2v-2.4h5.1c-0.1-0.1-0.2-0.3-0.3-0.6l1.4-0.2      c0.1,0.2,0.3,0.5,0.5,0.9h5V276.5z M248.1,282.2h-7.5v0.6h-1.2v-6.9h8.3v2.7h-7v0.8h7.5V282.2z M242.1,273.5l-1.4,0.3      c-0.1-0.3-0.3-0.6-0.6-1l1.3-0.3C241.6,272.7,241.8,273.1,242.1,273.5z M246.3,277.6v-0.8h-5.8v0.8H246.3z M246.8,281.2v-1h-6.2      v1H246.8z M249.7,272.3h-4.3c-0.2,0.3-0.5,0.7-0.8,1l-1.1-0.6c0.8-0.8,1.3-1.6,1.6-2.4l1.3,0.4c-0.1,0.2-0.2,0.4-0.3,0.6h3.7      V272.3z M247.8,273.6l-1.4,0.2c-0.1-0.3-0.3-0.7-0.5-1.1l1.4-0.2C247.5,272.9,247.6,273.2,247.8,273.6z"/>
				<path class="st9" d="M186.6,291.3h6.5v6.5h-6.5V291.3z"/>
				<path class="st9" d="M201.5,291.8l-0.6,1c-0.7-0.4-1.4-0.8-2-1v1.2h1.9v5.4h-1.1v-0.5h-2.7v0.6h-1.1v-5.1      c-0.2,0.1-0.3,0.2-0.4,0.3l-0.6-1.1c1-0.6,1.8-1.2,2.4-1.9h-2.1v-1.1h2.6v-1.9c-0.9,0.1-1.6,0.1-2.1,0.1l-0.4-1      c2,0,3.7-0.3,5-0.7l0.7,0.9c-0.5,0.2-1.2,0.3-2,0.5v2.1h2.1v1.1h-2.1C199.9,291,200.8,291.4,201.5,291.8z M197.3,289l-1,0.4      c-0.3-0.4-0.5-0.8-0.7-1.1l1-0.4C196.8,288.2,197.1,288.6,197.3,289z M197.7,292.9v-1.3c-0.4,0.5-0.8,0.9-1.2,1.3H197.7z       M197.8,294.9v-1h-0.9v1H197.8z M197.8,296.8v-0.9h-0.9v0.9H197.8z M199.7,294.9v-1h-0.8v1H199.7z M199.7,296.8v-0.9h-0.8v0.9      H199.7z M200.9,288.1c-0.3,0.6-0.5,1-0.8,1.4l-0.9-0.5c0.2-0.4,0.5-0.8,0.8-1.4L200.9,288.1z M202.6,292.6      c-0.2,1.5-0.4,2.7-0.7,3.5l-1-0.5c0.3-1,0.5-2.2,0.7-3.5L202.6,292.6z M203.9,297.4c0,0.4-0.1,0.7-0.3,0.9      c-0.2,0.2-0.5,0.3-0.9,0.3c-0.3,0-0.7,0-1.2,0l-0.3-1.1l1.3,0c0.2,0,0.3-0.1,0.3-0.3v-9.4H201v-1.2h2.8V297.4z M202.6,291.3      l-1,0.4c-0.1-0.9-0.3-1.7-0.5-2.6l1-0.3C202.3,289.7,202.5,290.5,202.6,291.3z M205.8,292.7c-0.3,1.5-0.6,2.6-0.9,3.4l-0.9-0.6      c0.3-0.8,0.6-1.9,0.8-3.2L205.8,292.7z M205.8,291.2l-1,0.4c-0.2-1.1-0.5-2-0.8-2.6l1-0.4C205.4,289.3,205.6,290.2,205.8,291.2z       M207.1,297.4c0,0.3-0.1,0.6-0.4,0.8c-0.3,0.3-0.9,0.4-2,0.4l-0.4-1.2h1.3c0.1,0,0.1,0,0.2-0.1s0.1-0.2,0.1-0.3v-9.3h-1.7v-1.2      h2.8V297.4z"/>
				<path class="st9" d="M213.6,288.6h-4.4v-1.1h1.7c0-0.1-0.1-0.5-0.4-1.2l1.2-0.2c0.1,0.2,0.2,0.4,0.3,0.8      c0.1,0.3,0.2,0.6,0.2,0.7h1.4V288.6z M213.3,290.6h-3.8v-1.2h3.8V290.6z M213.3,292.7h-3.8l0-1.2h3.8V292.7z M213.2,298.3H212      v-0.6h-1.2v0.8h-1.2v-4.8h3.7V298.3z M212,296.5v-1.6h-1.2v1.6H212z M221.4,293h-1.4c-0.1,0.2-0.2,0.5-0.4,1h1.5v1h-3v0.9h3.2v1      h-3.2v1.6h-1.2v-1.6h-3.3v-1h3.3V295h-2.9v-1h1.7c-0.1-0.4-0.2-0.7-0.4-1h-1.7v-1.1h3.3v-0.8h-2.9v-1h2.9v-0.6H214v-3.1h7.2v3.1      h-3v0.6h3v1h-3v0.8h3.3V293z M216,288.5v-1.1h-0.9v1.1H216z M218.8,293h-2.1c0.1,0.4,0.3,0.7,0.4,1h1.3      C218.5,293.7,218.7,293.3,218.8,293z M218.1,288.5v-1.1h-0.9v1.1H218.1z M220.1,288.5v-1.1h-0.9v1.1H220.1z"/>
				<path class="st9" d="M226.4,290.6c0.7,1.1,1.1,2.1,1.1,3.1c0,0.6-0.1,1-0.3,1.3s-0.4,0.5-0.7,0.6c-0.3,0.1-0.7,0.1-1.3,0.1      l-0.3-1.3c0.1,0,0.3,0,0.5,0c0.3,0,0.6,0,0.7-0.1c0.1-0.1,0.2-0.3,0.2-0.6c0-0.4-0.1-0.9-0.4-1.5c-0.2-0.6-0.5-1-0.9-1.4      c0.4-1,0.8-2,1.1-3h-1.5v10.8h-1.2v-12h3.9v1.2C227.1,288.8,226.8,289.8,226.4,290.6z M235.6,292.2h-8V291h1.9      c-0.3-0.8-0.5-1.4-0.8-1.9l0.8-0.6H228v-1.2h2.8c-0.2-0.3-0.3-0.7-0.6-1l1.3-0.4c0.3,0.5,0.5,0.9,0.7,1.4h3.1v1.2h-1.8l0.8,0.6      c-0.2,0.7-0.5,1.3-0.8,1.9h2V292.2z M234.8,298.5h-1.3v-0.6h-3.8v0.6h-1.3v-5.3h6.4V298.5z M233.5,296.7v-2.3h-3.8v2.3H233.5z       M233.3,288.6h-3.5c0.2,0.5,0.5,1.3,0.9,2.5h1.6C232.8,290,233.1,289.2,233.3,288.6z"/>
				<path class="st9" d="M249.2,297.3c0,0.3-0.1,0.6-0.3,0.8c-0.2,0.2-0.5,0.3-0.8,0.4c-0.4,0-0.8,0.1-1.3,0.1c-0.3,0-0.7,0-1.1,0      l-0.4-1.3c0.3,0,0.6,0,1,0c0.8,0,1.3,0,1.4-0.1c0.1-0.1,0.2-0.2,0.2-0.3v-9.2h-8.7v10.8H238v-12h11.3V297.3z M247.1,290.1H240      v-1.2h7.2V290.1z M246.4,295.9h-5.7v-4.5h5.7V295.9z M245.2,294.7v-2.1H242v2.1H245.2z"/>
			</g>
		</g>
		<g>
			<g>
				<g>
					<g>
						<ellipse class="st21" cx="253.7" cy="204.5" rx="14" ry="15.2"/>
						<path class="st22" d="M265.2,227.3l-7.7-4.4c0.4,0-1.6-0.3-3.1-0.6v-0.2c0,0-0.3,0-0.7,0.1c-0.4-0.1-0.7-0.1-0.7-0.1v0.2        c-1.4,0.2-3.5,0.6-3.1,0.6l-7.7,4.4l-0.8,9.3h11.5h1.4H266L265.2,227.3z"/>
						<g>
							<line class="st23" x1="252.8" y1="224.3" x2="252.8" y2="236.4"/>
							<line class="st23" x1="254.8" y1="224.3" x2="254.8" y2="236.4"/>
						</g>
						<g>
							<g>
								<path class="st3" d="M264,202.5c0.1,2.2,0,4.4-0.2,6.7l0.1,0.4c0.9-0.8,2.2-1.6,3.2-1c1,0.6,1,2,0.8,3.2          c0,0.3-0.1,0.7-0.3,1c-0.5,1-2,1-3.1,0.8l-0.3-0.1c-1.1,2.6-3,4.7-5.4,6.2c-0.7,0.4-1.1,0.8-1.8,1.1l0,0.3          c0,0.8,0,1.6,0,2.4l0.1,0.5c-1.7,1.3-4.3,1.3-5.9-0.1l0.2,0c0-0.8,0-1.6,0-2.4l-0.1-0.3c-0.8-0.3-1.6-0.6-2.4-1.1          c-2.7-1.5-4.8-3.9-6-6.7l-0.4,0.1c-1.1,0.2-2.6,0.2-3.1-0.8c-0.2-0.3-0.2-0.6-0.3-1c-0.2-1.2-0.2-2.6,0.8-3.2          c1-0.6,2.3,0.2,3.2,1l0.2-0.4c-0.2-2.2-0.3-4.4-0.2-6.7l0,2.8c4.6-0.6,8-1.2,10.7-5v0.4c2.7,3.8,5.5,4.1,10.1,4.6"/>
								<g>
									<path class="st3" d="M263.7,202.5c0.1,2.2-0.6,4.9-0.1,7.1c0,0.2,0.3,0.3,0.5,0.2c0.1,1.1,0.2,2.2,0.3,3.3           c-0.1,0-0.3,0-0.4,0.1c-1.6,3.2-3.9,5.5-7.1,7.2c-0.1,0.1-0.2,0.2-0.2,0.3c0.3,3.9,0.6,4-5.3,3.4c0.2,0,0.3-0.2,0.3-0.3           c0-0.8,0.4-2.2-0.2-3c-0.2-0.2-10.8-5.8-2.4-1.1c-2.7-1.5-4.5-3.8-5.9-6.5c-0.1-0.1-0.2-0.2-0.4-0.1           c-1.2,0.3-1.2-0.8,0.2-3.3c0.1,0.1,0.4,0,0.4-0.1c0.5-1.1,0.1-2.8,0-3.9c-0.1-0.6,0-4.3-0.6-2.3c-0.2,0.5,0,1.3,0,1.8           c0,0.2,0.1,0.3,0.3,0.3c2.3-0.3,4.7-0.6,6.8-1.6c0.7-0.3,4.2-3.3,3.6-3.3c0.2,0,3.3,3.2,4,3.5c2,0.9,4.3,1.1,6.5,1.4           c0.4,0,0.4-0.6,0-0.6c-2.3-0.3-9.8-1.1-9.8-4.7c0-0.3-0.4-0.4-0.5-0.2c-2.1,2.6-4.5,3.9-7.6,4.5c-2.8,0.6-2.5,0.4-2.5-2.1           c0-0.4-0.6-0.4-0.6,0c0,1.6,0.2,3.5,0,5c-0.3,2.2,0.6,0.8-0.6,1c-1.2,0.3-1.1-1-2.5-0.3c-1.3,0.7-1.5,3.6-0.7,4.7           c0.7,1,1.1,0.6,2.1,1c0.4,0.1,1-0.3,1.3-0.1c0.5,0.2,1.2,2,1.5,2.4c0.9,1.3,2.1,2.4,3.4,3.3c0.6,0.4,2,0.9,2.5,1.4           c0.3,0.1,0.7,0.3,1,0.4c0,0.7,0,1.4,0.2,2.2c-0.3,0-0.4,0.4-0.2,0.6c2.1,1.4,4,1.4,6.3,0.1c0.1-0.1,0.2-0.2,0.1-0.4           c-0.5-2.4,0.2-2.6,1.6-4c1.4-1.4,2.9-2.3,4.1-3.9c0-0.1,1-2.1,1.3-2.2c0.3-0.2,1,0.3,1.3,0.1c1.1-0.5,1.4,0.1,2.2-1           c0.8-1.1,0.6-3.9-0.7-4.6c-1.3-0.8-1.3,0.5-2.5,0.3c-1-0.2-0.3,3.8-0.5-1c-0.1-1.7,0.1-3.3,0-5           C264.3,202.1,263.7,202.1,263.7,202.5L263.7,202.5z"/>
								</g>
							</g>
							<g>
								<path class="st3" d="M249.8,206.3c0,1.3,0,2.6,0,3.8"/>
								<g>
									<path class="st3" d="M249.3,206.3c0,1.3,0,2.6,0,3.8c0,0.7,1.1,0.7,1.1,0c0-1.3,0-2.6,0-3.8           C250.4,205.6,249.3,205.6,249.3,206.3L249.3,206.3z"/>
								</g>
							</g>
							<g>
								<path class="st3" d="M258,206.3c0,1.3,0,2.6,0,3.8"/>
								<g>
									<path class="st3" d="M257.4,206.3c0,1.3,0,2.6,0,3.8c0,0.7,1.1,0.7,1.1,0c0-1.3,0-2.6,0-3.8           C258.5,205.6,257.4,205.6,257.4,206.3L257.4,206.3z"/>
								</g>
							</g>
							<g>
								<path class="st3" d="M252.1,213.6c1.1,0.5,2.5,0.4,3.6,0"/>
								<g>
									<path class="st3" d="M252,214.1c1.3,0.5,2.6,0.5,3.9,0c0.6-0.2,0.4-1.3-0.3-1c-1.1,0.4-2.2,0.5-3.3,0           C251.6,212.9,251.3,213.9,252,214.1L252,214.1z"/>
								</g>
							</g>
						</g>
						<g>
							<g>
								<path class="st3" d="M251.2,220.9c0.9,1.3,1.8,2.7,2.5,4.1c0.1,0.2,0.3,0.5,0.2,0.8c0,0.2-0.2,0.4-0.4,0.6          c-0.7,0.8-1.4,1.6-2.2,2.3c-0.1,0.1-0.1,0.1-0.2,0.2c-0.2,0-0.3-0.1-0.4-0.3c-1.2-1.9-1.2-4.1-1.2-6.2c0-0.5,0-1,0.3-1.4          C250.1,220.6,250.8,220.5,251.2,220.9"/>
								<g>
									<path class="st3" d="M250.9,221c0.7,1,1.3,2,1.9,3.1c0.4,0.7,0.8,1.2,0.4,2c-0.2,0.3-1,1.2-1.3,1.4           c-0.8,0.7-1.3,0.8-1.7-0.5c-0.2-0.6-0.3-1.3-0.4-2C249.8,224.6,249.6,220.3,250.9,221c0.4,0.3,0.8-0.2,0.4-0.5           c-1.4-0.8-2.1,0.6-2.1,1.8c-0.1,1.7-0.1,5.3,1.4,6.6c0.4,0.3,0.6,0.3,1,0.1c0.5-0.3,1-1,1.4-1.5c0.3-0.4,0.9-0.8,1.1-1.2           c0.3-0.6,0.2-0.9,0-1.4c-0.5-1.5-1.6-2.9-2.5-4.1C251.2,220.4,250.7,220.7,250.9,221L250.9,221z"/>
								</g>
							</g>
							<g>
								<path class="st3" d="M256.6,220.9c-0.9,1.3-1.8,2.7-2.5,4.1c-0.1,0.2-0.3,0.5-0.2,0.8c0,0.2,0.2,0.4,0.4,0.6          c0.7,0.8,1.4,1.6,2.2,2.3c0.1,0.1,0.1,0.1,0.2,0.2c0.2,0,0.3-0.1,0.4-0.3c1.2-1.9,1.2-4.1,1.2-6.2c0-0.5,0-1-0.3-1.4          C257.7,220.6,257,220.5,256.6,220.9"/>
								<g>
									<path class="st3" d="M256.4,220.7c-0.9,1.3-2,2.7-2.5,4.1c-0.2,0.6-0.3,0.9-0.1,1.4c0.2,0.5,0.8,0.9,1.2,1.3           c0.4,0.4,0.9,1.2,1.4,1.5c0.4,0.2,0.6,0.3,1-0.1c1.5-1.3,1.4-4.6,1.4-6.3c0-1.2-0.6-3-2.1-2c-0.3,0.2,0,0.8,0.3,0.5           c1.3-0.8,1.2,1.8,1.2,2.3c0,0.5,0,1.1-0.1,1.6c-0.1,0.7-0.2,1.4-0.4,2c0,0.7-0.3,1-0.8,0.9c-0.4,0.1-0.7,0-0.9-0.4           c-0.4-0.3-1.1-1-1.3-1.4c-0.3-0.8,0.1-1.4,0.4-2c0.6-1.1,1.2-2.1,1.9-3.1C257.1,220.7,256.6,220.4,256.4,220.7L256.4,220.7           z"/>
								</g>
							</g>
						</g>
					</g>
					<g>
						<path class="st9" d="M258.7,205.1h-10.1v-1h4.5v-2.5h-3.6v-1h3.6v-2.5h-4.1v-1h4.3c-0.1-0.5-0.4-1.1-0.8-1.7l1-0.3        c0.3,0.6,0.6,1.3,0.9,2h3.9v1h-4.1v2.5h3.6v1h-3.6v2.5h4.5V205.1z"/>
						<path class="st9" d="M253.5,208.4h-3.1c-0.4,0.4-0.8,0.8-1.3,1.2l-0.7-0.8c0.9-0.6,1.5-1.3,1.8-2l1.1,0.3        c-0.1,0.1-0.1,0.3-0.2,0.5h2.5V208.4z M258.4,211.9h-1v-1.1h-7.6v1.1h-1v-2h4.2c0-0.1-0.1-0.3-0.3-0.5l1.2-0.2        c0.1,0.2,0.2,0.4,0.4,0.7h4.2V211.9z M257.4,216.6h-6.2v0.5h-1v-5.7h6.8v2.2h-5.8v0.6h6.2V216.6z M252.4,209.4l-1.1,0.2        c-0.1-0.2-0.3-0.5-0.5-0.8l1.1-0.2C252,208.8,252.2,209,252.4,209.4z M255.9,212.8v-0.7h-4.8v0.7H255.9z M256.3,215.8V215        h-5.2v0.8H256.3z M258.7,208.4h-3.6c-0.2,0.3-0.4,0.5-0.7,0.8l-0.9-0.5c0.6-0.7,1.1-1.3,1.4-2l1.1,0.3        c-0.1,0.2-0.2,0.4-0.3,0.5h3V208.4z M257.1,209.5l-1.1,0.2c-0.1-0.3-0.2-0.6-0.4-0.9l1.1-0.1        C256.9,208.9,257,209.2,257.1,209.5z"/>
					</g>
				</g>
				<g>
					<ellipse class="st10" cx="185.3" cy="205.4" rx="14" ry="15.2"/>
					<path class="st15" d="M196.9,228.1l-7.7-4.4c0.4,0-1.6-0.3-3.1-0.6v-0.2c0,0-0.3,0-0.7,0.1c-0.4-0.1-0.7-0.1-0.7-0.1v0.2       c-1.4,0.2-3.5,0.6-3.1,0.6l-7.7,4.4l-0.8,9.3h11.5h1.4h11.5L196.9,228.1z"/>
					<g>
						<polyline class="st12" points="184.5,237.2 184.5,225.1 186.5,225.1 186.5,237.2       "/>
					</g>
					<g>
						<path class="st12" d="M174.8,206.1"/>
						<path class="st12" d="M174.8,203.3c-0.1,2.2,0,4.4,0.2,6.7l-0.1,0.4c-0.9-0.8-2.2-1.6-3.2-1c-1,0.6-1,2-0.8,3.2        c0,0.3,0.1,0.7,0.3,1c0.5,1,2,1,3.1,0.8l0.3-0.1c1.1,2.6,3,4.7,5.4,6.2c0.7,0.4,2,0.8,2.7,1.1l0,0.3c0,0.8,0,1.6,0,2.4        l-0.1,0.5c1.7,1.3,4.3,1.3,5.9-0.1l-0.2,0c0-0.8,0-1.6,0-2.4l0.1-0.3c0.8-0.3,0.7-0.6,1.5-1.1c2.7-1.5,4.8-3.9,6-6.7l0.4,0.1        c1.1,0.2,2.6,0.2,3.1-0.8c0.2-0.3,0.2-0.6,0.3-1c0.2-1.2,0.2-2.6-0.8-3.2c-1-0.6-2.3,0.2-3.2,1l-0.2-0.4        c0.2-2.2,0.3-4.4,0.2-6.7l0,2.8"/>
						<path class="st13" d="M189.5,207.1c0,1.3,0,2.6,0,3.8"/>
						<path class="st13" d="M181.4,207.1c0,1.3,0,2.6,0,3.8"/>
						<path class="st13" d="M187.3,214.5c-1.1,0.5-2.5,0.4-3.6,0"/>
					</g>
					<g>
						<path class="st12" d="M182.9,221.7c0.9,1.3,1.8,2.7,2.5,4.1c0.1,0.2,0.3,0.5,0.2,0.8c0,0.2-0.2,0.4-0.4,0.6        c-0.7,0.8-1.4,1.6-2.2,2.3c-0.1,0.1-0.1,0.1-0.2,0.2c-0.2,0-0.3-0.1-0.4-0.3c-1.2-1.9-1.2-4.1-1.2-6.2c0-0.5,0-1,0.3-1.4        C181.8,221.5,182.5,221.3,182.9,221.7"/>
						<path class="st12" d="M188.3,221.7c-0.9,1.3-1.8,2.7-2.5,4.1c-0.1,0.2-0.3,0.5-0.2,0.8c0,0.2,0.2,0.4,0.4,0.6        c0.7,0.8,1.4,1.6,2.2,2.3c0.1,0.1,0.1,0.1,0.2,0.2c0.2,0,0.3-0.1,0.4-0.3c1.2-1.9,1.2-4.1,1.2-6.2c0-0.5,0-1-0.3-1.4        C189.4,221.5,188.7,221.3,188.3,221.7"/>
					</g>
				</g>
			</g>
			<g>
				<rect x="199.9" y="222.8" class="st24" width="38.5" height="2.1"/>
				<g>
					<rect x="202.8" y="224.1" class="st23" width="3.2" height="12.4"/>
					<rect x="232.3" y="224.1" class="st23" width="3.2" height="12.4"/>
				</g>
			</g>
		</g>
	</g>
	<g>
		<g>
			<polyline class="st4" points="200.1,372.8 127.2,445.8 196.1,514.8    "/>
			<g>
				<circle class="st3" cx="240.1" cy="369.5" r="54"/>
				<g>
					<path class="st9" d="M225.6,361.3c0.9,0.5,1.8,0.8,2.8,0.8c1.4,0,2.4-0.5,3.1-1.5c0.7-1,1.1-2.5,1.1-4.3c0,0,0,0,0,0       c-0.7,1.2-1.8,1.8-3.3,1.8c-1.3,0-2.4-0.5-3.2-1.4c-0.8-0.9-1.3-2.1-1.3-3.4c0-1.5,0.5-2.8,1.4-3.8s2.2-1.5,3.7-1.5       c1.6,0,2.8,0.6,3.7,1.9s1.3,3,1.3,5.3c0,2.8-0.6,4.9-1.7,6.5c-1.1,1.6-2.7,2.4-4.8,2.4c-1.1,0-2.1-0.2-2.9-0.5V361.3z        M227.1,353c0,1,0.2,1.7,0.7,2.3c0.5,0.6,1.2,0.9,2,0.9c0.8,0,1.4-0.3,1.9-0.8c0.5-0.5,0.8-1.2,0.8-1.9c0-1-0.2-1.8-0.7-2.5       c-0.5-0.7-1.2-1-2-1c-0.8,0-1.4,0.3-1.9,0.9C227.3,351.4,227.1,352.1,227.1,353z"/>
					<path class="st9" d="M253.6,362.9c0,0.5-0.1,1-0.4,1.3s-0.8,0.5-1.5,0.5c-0.7,0-1.3,0-1.9,0c-0.5,0-1.1,0-1.6,0l-0.6-1.9       c1.3,0.1,2.2,0.1,2.9,0.1c0.6,0,0.9,0,1-0.1c0.1-0.1,0.2-0.2,0.2-0.5v-3.6h-10.2c-0.4,2.4-1.4,4.4-3,6.1l-1.3-1.3       c0.8-0.8,1.4-1.8,1.9-3.1s0.7-3.1,0.7-5.4v-7.7h13.8V362.9z M251.7,352v-2.9h-10v2.9H251.7z M251.7,356.9v-3.1h-10v3.1H251.7z"/>
					<path class="st9" d="M218.4,388.7h-17.8V387h2.5v-10.4h1.9V387h3.9v-13.3H201v-1.8H218v1.8h-7.2v5.3h6.5v1.8h-6.5v6.2h7.7       V388.7z"/>
					<path class="st9" d="M238.9,384.9c-0.2,3-1.1,4.5-2.5,4.5c-1.3,0-2.3-1.2-3.3-3.5s-1.4-5.5-1.5-9.3h-10.5v-1.7h10.4       c-0.1-1.4-0.1-2.5-0.1-3.3h1.8c0,0.8,0,1.9,0.1,3.3h5.5v1.7h-5.4c0.1,3.8,0.5,6.6,1.2,8.4c0.7,1.7,1.3,2.6,1.6,2.6       c0.4,0,0.7-1.2,0.8-3.5L238.9,384.9z M231.3,386.1c-3.8,0.9-7,1.6-9.5,1.9l-0.4-1.7c1.2-0.1,2.5-0.4,4-0.6v-5.4h-3.3v-1.7h8.6       v1.7h-3.5v5c1.7-0.4,3-0.7,4-1L231.3,386.1z M238.3,373.3l-1.3,1.1c-0.9-0.8-1.7-1.4-2.6-1.8l1.4-1.2       C236.8,372,237.6,372.6,238.3,373.3z"/>
					<path class="st9" d="M259.4,387.9l-1.4,1.4c-3.9-3.4-6.4-7.1-7.4-11.1c-1.4,4.7-4,8.3-7.9,11l-1.3-1.4c1.8-1.2,3.3-2.6,4.6-4.3       s2.3-3.5,2.9-5.5s1-3.3,1-3.9l-0.1-0.4h-2.5v-1.8h4.2c0.2,3.9,1,7.1,2.3,9.6S257,386,259.4,387.9z"/>
					<path class="st9" d="M269.7,382.5l-1.3,1.3c-0.6-0.9-1.1-1.6-1.8-2.2v7.6h-1.9v-6.8c-0.4,0.4-1,0.9-1.7,1.6l-1.1-1.4       c2.4-2,3.9-3.9,4.7-5.9h-4.4v-1.8h6.4v1.8c-0.5,1.2-1,2.1-1.5,2.9C268.2,380.6,269,381.6,269.7,382.5z M267,373.6l-1.6,0.9       c-0.5-0.8-1.1-1.7-1.8-2.4l1.6-0.9C265.9,372,266.5,372.8,267,373.6z M279.8,388.7H269v-1.8h4.4v-9.1h-4V376h4v-4.7h1.9v4.7       h3.9v1.8h-3.9v9.1h4.4V388.7z"/>
				</g>
			</g>
			<g>
				<circle class="st3" cx="240.1" cy="510.7" r="54"/>
				<g>
					<path class="st9" d="M218.7,478l-5.9,14.5h-2.4l5.7-13.4h-7.6v-2h10.2V478z"/>
					<path class="st9" d="M232.4,485.5l-1.4,1.3c-1-1.2-2.2-2.2-3.4-3.1l1.3-1.3C230.2,483.2,231.3,484.3,232.4,485.5z"/>
					<path class="st9" d="M244.4,484.4c-1.8-0.8-2.7-2-2.7-3.7c0-1.2,0.5-2.1,1.4-2.8c0.9-0.7,2-1.1,3.4-1.1c1.3,0,2.3,0.3,3.2,1       s1.3,1.6,1.3,2.7c0,1.7-1,3-2.9,3.9v0c2.2,0.8,3.4,2.2,3.4,4.1c0,1.4-0.5,2.4-1.5,3.1c-1,0.7-2.3,1.1-3.9,1.1       c-1.4,0-2.5-0.4-3.4-1.1c-0.9-0.7-1.4-1.7-1.4-3C241.1,486.8,242.2,485.4,244.4,484.4L244.4,484.4z M246.1,485.5       c-1.8,0.7-2.7,1.8-2.7,3.1c0,0.7,0.3,1.3,0.8,1.7c0.5,0.4,1.2,0.7,2,0.7c0.8,0,1.5-0.2,2-0.6c0.5-0.4,0.8-1,0.8-1.7       C249,487.2,248,486.2,246.1,485.5z M248.5,480.8c0-0.6-0.2-1.2-0.6-1.5s-1-0.6-1.6-0.6c-0.7,0-1.2,0.2-1.7,0.6       c-0.4,0.4-0.7,0.9-0.7,1.5c0,1.2,0.8,2.1,2.3,2.7C247.8,482.9,248.5,482,248.5,480.8z"/>
					<path class="st9" d="M269.9,491.8c0,0.5-0.1,1-0.4,1.3s-0.8,0.5-1.5,0.5c-0.7,0-1.3,0-1.9,0c-0.5,0-1.1,0-1.6,0l-0.6-1.9       c1.3,0.1,2.2,0.1,2.9,0.1c0.6,0,0.9,0,1-0.1c0.1-0.1,0.2-0.2,0.2-0.5v-3.6h-10.2c-0.4,2.4-1.4,4.4-3,6.1l-1.3-1.3       c0.8-0.8,1.4-1.8,1.9-3.1s0.7-3.1,0.7-5.4v-7.7h13.8V491.8z M268,480.9V478h-10v2.9H268z M268,485.8v-3.1h-10v3.1H268z"/>
					<path class="st9" d="M228.6,502.4h-1.9v13.8c0,0.6-0.2,1-0.5,1.4c-0.3,0.3-0.7,0.5-1.1,0.5c-0.4,0-1.8,0-4,0l-0.6-1.9       c0.9,0.1,1.8,0.1,2.6,0.1c0.8,0,1.3,0,1.4,0s0.2-0.1,0.3-0.2c0.1-0.1,0.1-0.2,0.1-0.4v-13.3h-14v-1.8h17.8V502.4z M221.8,513.7       h-9v-8.7h9V513.7z M219.9,512v-5.1h-5.3v5.1H219.9z"/>
					<path class="st9" d="M249.2,513.8c-0.2,1.5-0.4,2.5-0.6,2.9s-0.5,0.7-0.9,1c-0.4,0.2-1.1,0.4-2.1,0.3c-1,0-1.7,0-2.1,0       c-0.7,0-1.2-0.2-1.6-0.5c-0.3-0.3-0.5-0.9-0.5-1.7v-6h-2.9c-0.1,2.3-0.7,4-1.6,5.3c-1,1.2-2.6,2.3-4.9,3.1l-0.9-1.7       c3.7-1.1,5.5-3.4,5.5-6.7h-5.2v-1.7h7.8V505h-3.9c-0.8,1.1-1.4,1.9-2,2.4l-1.6-1.1c1.6-1.5,2.9-3.4,4-5.8l1.8,0.6l-1,2.1h2.8       v-3h1.8v3h7.1v1.7h-7.1v3.2h7.8v1.7h-5.6v5.9c0,0.2,0.1,0.3,0.3,0.4s0.7,0.1,1.5,0.1c0.7,0,1.2,0,1.4-0.1       c0.2-0.1,0.4-0.3,0.5-0.7c0.1-0.4,0.2-1.1,0.3-2.2L249.2,513.8z"/>
					<path class="st9" d="M269.6,517.6h-17.8v-1.8h8V513H253v-1.8h6.7V509h1.8v2.2h6.7v1.8h-6.7v2.9h8V517.6z M269.3,502.5h-8.8       c-1.3,2-2.7,3.4-4.2,4.4c3-0.1,5.8-0.3,8.5-0.6c-0.6-0.7-1.3-1.4-2-2.1l1.6-1c1.8,1.8,3.4,3.7,4.7,5.6l-1.5,1       c-0.4-0.5-0.8-1.2-1.4-2c-4.7,0.5-8.8,0.8-12.6,0.9l-0.4-1.7c1.9-0.8,3.6-2.3,5-4.5H252v-1.8h17.3V502.5z"/>
					<path class="st9" d="M218.4,528.1h-14.5l0,6.6c0,3-0.6,5.6-1.8,7.8l-1.6-1c1.1-1.8,1.6-4.3,1.6-7.4v-7.7h7       c-0.1-0.5-0.4-0.9-0.7-1.4l1.9-0.4c0.2,0.4,0.5,1,0.9,1.8h7.2V528.1z M217.8,532.6h-6.5v2.5h6v7.6h-1.8v-0.9h-8.5v0.9h-1.8       v-7.5h4.4v-6.3h1.7v2.1h6.5V532.6z M215.4,540.1v-3.4h-8.5v3.4H215.4z"/>
					<path class="st9" d="M228.3,534.3h-2.7v1.5h2v6.5h-1.8v-0.9h-2.4v1h-1.7v-6.7h2.2v-1.5H221v-1.6h2.9v-1.4h-1.5v-0.8       c-0.3,0.3-0.5,0.4-0.7,0.5l-0.9-1.4c1.4-1,2.5-2.7,3.5-4.9l1.7,0.4l-0.3,0.7c1,0.9,1.8,1.6,2.4,2.3l-1.1,1.3       c-0.5-0.6-1.1-1.3-2-2.1c-0.6,0.9-1.1,1.7-1.7,2.4h4.1v1.7h-1.7v1.4h2.7V534.3z M225.9,539.9v-2.4h-2.4v2.4H225.9z        M238.9,528.6h-4.6v1.6h3.7V541c0,0.5-0.1,0.8-0.4,1.2c-0.3,0.3-0.7,0.5-1.3,0.5c-0.2,0-0.5,0-0.8,0l-0.5-1.7       c0.4,0,0.7,0.1,0.9,0.1c0.3,0,0.4-0.1,0.4-0.4v-2.1h-2v4.1h-1.7v-4.1h-2v4.1h-1.7v-12.5h3.7v-1.6h-4.4V527h4.4v-2.2h1.7v2.2       h4.6V528.6z M232.7,533.5v-1.7h-2v1.7H232.7z M232.7,536.9V535h-2v1.9H232.7z M236.4,533.5v-1.7h-2v1.7H236.4z M236.4,536.9       V535h-2v1.9H236.4z M238.3,525.7l-0.8,1.2c-0.6-0.3-1.4-0.6-2.5-0.8l0.8-1.2C236.8,525,237.6,525.3,238.3,525.7z"/>
					<path class="st9" d="M259.5,540.9l-1.1,1.6c-2.2-1.2-3.9-2.5-5.2-4v4.3h-1.8v-5.3h-2.5v5.3h-1.7v-4.4c-1.2,1.4-2.9,2.7-4.9,3.9       l-1.1-1.4c2-1,3.6-2.2,4.7-3.4h-3v-1.5h4.2v-1.5h-5.7v-1.6h5.7v-1.4h-4.2v-1.5h4.2v-1.3h-5.5V527h17.2v1.6h-5.8v1.3h4.2v2.9       h1.9v1.6h-1.9v3h-3C255.6,538.6,257.3,539.8,259.5,540.9z M248.9,526.1l-1.5,0.8c-0.5-0.7-1.1-1.3-1.7-1.7l1.5-0.7       C247.8,524.8,248.3,525.4,248.9,526.1z M251.5,529.9v-1.3h-2.5v1.3H251.5z M251.5,532.8v-1.4h-2.5v1.4H251.5z M251.5,535.8       v-1.5h-2.5v1.5H251.5z M255.3,525.3c-0.6,0.6-1.2,1.2-1.9,1.6L252,526c0.7-0.4,1.3-0.9,1.8-1.5L255.3,525.3z M255.7,532.8v-1.4       h-2.4v1.4H255.7z M255.7,535.8v-1.5h-2.4v1.5H255.7z"/>
					<path class="st9" d="M268,527h-0.7v15.7h-1.7v-2.9c-1.1,0.4-2.2,0.8-3.3,1.1l-0.6-1.6c0.2,0,0.5-0.1,1.1-0.3V527H262v-1.7h6.1       V527z M265.7,529.5V527h-1.2v2.5H265.7z M265.7,533.8v-2.6h-1.2v2.6H265.7z M265.7,537.9v-2.4h-1.2v2.9       C264.8,538.2,265.2,538.1,265.7,537.9z M280,539c-0.2,1.7-0.5,2.7-0.7,3.2s-0.7,0.7-1.2,0.7c-0.4,0-0.7-0.2-1-0.5       s-0.6-0.9-0.9-1.9c-0.7,0.8-1.5,1.6-2.4,2.4l-1.2-1.1c1.2-1,2.3-2.1,3.1-3.3c-0.3-1.8-0.4-3.9-0.5-6.4H268v-1.6h1.6       c-0.1-0.7-0.3-1.5-0.5-2.4h-0.5v-1.6h2.2c-0.1-0.5-0.3-1-0.5-1.4l1.7-0.4c0.3,0.6,0.5,1.2,0.6,1.8h2.2v1.6h-0.6       c-0.2,0.8-0.4,1.6-0.6,2.4h1.6c0-2.7-0.1-4.6,0-5.6h1.7c0,2.2,0,4,0,5.6h3v1.6h-3c0,1.3,0.1,2.6,0.2,4.1       c0.5-1.2,0.9-2.3,1.1-3.3l1.5,0.6c-0.6,2-1.3,3.8-2.2,5.3c0.1,0.6,0.3,1.1,0.4,1.5s0.3,0.6,0.3,0.6s0.1-0.2,0.2-0.7       c0.1-0.5,0.2-1.1,0.2-2L280,539z M274.1,540.4h-5.3V533h5.3V540.4z M272.4,535.7v-1.2h-2v1.2H272.4z M272.4,538.8v-1.5h-2v1.5       H272.4z M272.4,528.1h-1.6c0.2,0.9,0.4,1.7,0.5,2.4h0.5C272,529.5,272.2,528.7,272.4,528.1z M279.7,529.2l-1.5,0.6       c-0.2-1-0.5-2.2-1-3.7l1.4-0.6C279.1,526.7,279.5,527.9,279.7,529.2z"/>
				</g>
			</g>
		</g>
		<g>
			<circle class="st6" cx="67.6" cy="440.1" r="66.9"/>
			<g>
				<g>
					<path class="st3" d="M52.6,478.9H40.3v-1.2H42v-7.2h1.3v7.2H46v-9.2h-5.4v-1.2h11.7v1.2h-5v3.6h4.5v1.2h-4.5v4.3h5.3V478.9z"/>
					<path class="st3" d="M66.7,476.3c-0.2,2.1-0.7,3.1-1.7,3.1c-0.9,0-1.6-0.8-2.2-2.4c-0.6-1.6-1-3.8-1.1-6.4h-7.2v-1.2h7.2       c-0.1-1-0.1-1.7-0.1-2.3h1.3c0,0.5,0,1.3,0.1,2.3h3.8v1.2H63c0.1,2.7,0.3,4.6,0.9,5.8c0.5,1.2,0.9,1.8,1.1,1.8       c0.3,0,0.5-0.8,0.5-2.4L66.7,476.3z M61.5,477.1c-2.6,0.7-4.8,1.1-6.6,1.3l-0.3-1.2c0.8-0.1,1.7-0.2,2.8-0.4v-3.8h-2.3v-1.2h6       v1.2h-2.4v3.5c1.1-0.2,2.1-0.5,2.8-0.7L61.5,477.1z M66.3,468.3l-0.9,0.8c-0.6-0.5-1.2-0.9-1.8-1.2l1-0.8       C65.3,467.4,65.9,467.9,66.3,468.3z"/>
					<path class="st3" d="M80.9,478.4l-1,0.9c-2.7-2.3-4.4-4.9-5.1-7.7c-0.9,3.2-2.8,5.7-5.5,7.6l-0.9-1c1.2-0.8,2.3-1.8,3.2-2.9       c0.9-1.2,1.6-2.4,2-3.8c0.5-1.4,0.7-2.3,0.7-2.7l0-0.3h-1.7v-1.3h2.9c0.1,2.7,0.7,4.9,1.6,6.6S79.3,477.1,80.9,478.4z"/>
					<path class="st3" d="M88,474.7l-0.9,0.9c-0.4-0.6-0.8-1.1-1.2-1.5v5.3h-1.3v-4.7c-0.3,0.3-0.7,0.7-1.2,1.1l-0.8-1       c1.6-1.4,2.7-2.7,3.2-4.1h-3v-1.2h4.4v1.2c-0.3,0.8-0.7,1.5-1,2C86.9,473.4,87.6,474,88,474.7z M86.2,468.5l-1.1,0.6       c-0.3-0.6-0.8-1.1-1.3-1.7l1.1-0.6C85.4,467.4,85.8,468,86.2,468.5z M95,479h-7.4v-1.3h3v-6.2h-2.7v-1.3h2.7V467h1.3v3.2h2.7       v1.3h-2.7v6.2H95V479z"/>
				</g>
				<g>
					<rect x="21.6" y="411.8" class="st25" width="92" height="43.7"/>
					<rect x="21.6" y="397.9" class="st26" width="33.1" height="13.8"/>
					<g>
						<path class="st9" d="M29,407.2l-1.6-2.9c0,0,0,0.6,0,0.9v2h-1.7V402h1.8l1.5,2.9c0,0,0-0.6,0-0.9v-2h1.7v5.2H29z"/>
						<path class="st9" d="M31.5,407.2V402h1.7v5.2H31.5z"/>
						<path class="st9" d="M36.5,403.4v3.9h-1.7v-3.9h-1.2V402h4.2v1.3H36.5z"/>
						<path class="st9" d="M40.5,407.3c-1.6,0-2.8-1-2.8-2.7s1.2-2.7,2.8-2.7s2.8,1,2.8,2.7S42.1,407.3,40.5,407.3z M40.5,403.4        c-0.7,0-1.1,0.5-1.1,1.2s0.4,1.2,1.1,1.2c0.7,0,1.1-0.5,1.1-1.2S41.2,403.4,40.5,403.4z"/>
						<path class="st9" d="M46.6,407.2l-0.8-1.7h-0.2v1.7h-1.7V402h2.3c0.6,0,1.1,0.1,1.5,0.4c0.4,0.3,0.6,0.7,0.6,1.3        c0,1.1-0.6,1.4-0.9,1.6l1.2,2H46.6z M46.4,403.4c-0.1-0.1-0.2-0.1-0.4-0.1h-0.4v0.9H46c0.3,0,0.6-0.1,0.6-0.5        C46.5,403.5,46.4,403.5,46.4,403.4z"/>
						<path class="st9" d="M48.8,407.2V402h1.7v5.2H48.8z"/>
					</g>
					<g>
						<rect x="28" y="417.8" class="st3" width="4.6" height="5.1"/>
						<rect x="36.3" y="417.8" class="st3" width="4.6" height="5.1"/>
						<rect x="44.6" y="417.8" class="st3" width="4.6" height="5.1"/>
						<rect x="52.9" y="417.8" class="st3" width="4.6" height="5.1"/>
						<rect x="61.2" y="417.8" class="st3" width="4.6" height="5.1"/>
						<rect x="69.4" y="417.8" class="st3" width="4.6" height="5.1"/>
						<rect x="77.7" y="417.8" class="st3" width="4.6" height="5.1"/>
						<rect x="86" y="417.8" class="st3" width="4.6" height="5.1"/>
						<rect x="94.3" y="417.8" class="st3" width="4.6" height="5.1"/>
						<rect x="102.6" y="417.8" class="st3" width="4.6" height="5.1"/>
					</g>
					<g>
						<rect x="28" y="425.1" class="st3" width="4.6" height="5.1"/>
						<rect x="36.3" y="425.1" class="st3" width="4.6" height="5.1"/>
						<rect x="44.6" y="425.1" class="st3" width="4.6" height="5.1"/>
						<rect x="52.9" y="425.1" class="st3" width="4.6" height="5.1"/>
						<rect x="61.2" y="425.1" class="st3" width="4.6" height="5.1"/>
						<rect x="69.4" y="425.1" class="st3" width="4.6" height="5.1"/>
						<rect x="77.7" y="425.1" class="st3" width="4.6" height="5.1"/>
						<rect x="86" y="425.1" class="st3" width="4.6" height="5.1"/>
						<rect x="94.3" y="425.1" class="st3" width="4.6" height="5.1"/>
						<rect x="102.6" y="425.1" class="st3" width="4.6" height="5.1"/>
					</g>
					<g>
						<rect x="28" y="432.5" class="st3" width="4.6" height="5.1"/>
						<rect x="36.3" y="432.5" class="st3" width="4.6" height="5.1"/>
						<rect x="44.6" y="432.5" class="st3" width="4.6" height="5.1"/>
						<rect x="52.9" y="432.5" class="st3" width="4.6" height="5.1"/>
						<rect x="61.2" y="432.5" class="st3" width="4.6" height="5.1"/>
						<rect x="69.4" y="432.5" class="st3" width="4.6" height="5.1"/>
						<rect x="77.7" y="432.5" class="st3" width="4.6" height="5.1"/>
						<rect x="86" y="432.5" class="st3" width="4.6" height="5.1"/>
						<rect x="94.3" y="432.5" class="st3" width="4.6" height="5.1"/>
						<rect x="102.6" y="432.5" class="st3" width="4.6" height="5.1"/>
					</g>
					<g>
						<rect x="28" y="439.8" class="st3" width="4.6" height="5.1"/>
						<rect x="36.3" y="439.8" class="st3" width="4.6" height="5.1"/>
						<rect x="44.6" y="439.8" class="st3" width="4.6" height="5.1"/>
						<rect x="52.9" y="439.8" class="st3" width="4.6" height="5.1"/>
						<rect x="61.2" y="439.8" class="st3" width="4.6" height="5.1"/>
						<rect x="69.4" y="439.8" class="st3" width="4.6" height="5.1"/>
						<rect x="77.7" y="439.8" class="st3" width="4.6" height="5.1"/>
						<rect x="86" y="439.8" class="st3" width="4.6" height="5.1"/>
						<rect x="94.3" y="439.8" class="st3" width="4.6" height="5.1"/>
						<rect x="102.6" y="439.8" class="st3" width="4.6" height="5.1"/>
					</g>
				</g>
				<g>
					<ellipse class="st10" cx="50.6" cy="431" rx="14" ry="16.1"/>
					<path class="st15" d="M62.3,451.2l-7.7-4.4c0.4,0-1.6-0.3-3.1-0.6v-0.2c0,0-0.3,0-0.7,0.1c-0.4-0.1-0.7-0.1-0.7-0.1v0.2       c-1.4,0.2-3.5,0.6-3.1,0.6l-7.7,4.4l-0.8,9.3h11.5h1.4h11.5L62.3,451.2z"/>
					<g>
						<path class="st12" d="M61.1,429.2"/>
						<path class="st12" d="M61.1,426.4c0.1,2.2,0,4.4-0.2,6.7l0.1,0.4c0.9-0.8,2.2-1.6,3.2-1c1,0.6,1,2,0.8,3.2        c0,0.3-0.1,0.7-0.3,1c-0.5,1-2,1-3.1,0.8l-0.3-0.1c-1.1,2.6-3,4.7-5.4,6.2c-0.7,0.4-1.1,0.8-1.8,1.1l0,0.3c0,0.8,0,1.6,0,2.4        l0.1,0.5c-1.7,1.3-4.3,1.3-5.9-0.1l0.2,0c0-0.8,0-1.6,0-2.4l-0.1-0.3c-0.8-0.3-1.6-0.6-2.4-1.1c-2.7-1.5-4.8-3.9-6-6.7        l-0.4,0.1c-1.1,0.2-2.6,0.2-3.1-0.8c-0.2-0.3-0.2-0.6-0.3-1c-0.2-1.2-0.2-2.6,0.8-3.2c1-0.6,2.3,0.2,3.2,1l0.2-0.4        c-0.2-2.2-0.3-4.4-0.2-6.7l0,2.8"/>
						<g>
							<g>
								<path class="st13" d="M44.5,434.1c0.8-0.7,2-1.1,3.1-0.8"/>
								<path class="st13" d="M56.8,434.1c-0.8-0.7-2-1.1-3.1-0.8"/>
							</g>
							<g>
								<path class="st3" d="M49.8,438.5c0.5,0.7,1.2,0.7,1.7,0l0.6-0.8c0.5-0.7,0.2-1.2-0.6-1.2h-1.5c-0.8,0-1.1,0.5-0.6,1.2          L49.8,438.5z"/>
								<path class="st13" d="M49.8,438.5c0.5,0.7,1.2,0.7,1.7,0l0.6-0.8c0.5-0.7,0.2-1.2-0.6-1.2h-1.5c-0.8,0-1.1,0.5-0.6,1.2          L49.8,438.5z"/>
							</g>
						</g>
					</g>
					<g>
						<path class="st12" d="M48.3,444.8c0.9,1.3,1.8,2.7,2.5,4.1c0.1,0.2,0.3,0.5,0.2,0.8c0,0.2-0.2,0.4-0.4,0.6        c-0.7,0.8-1.4,1.6-2.2,2.3c-0.1,0.1-0.1,0.1-0.2,0.2c-0.2,0-0.3-0.1-0.4-0.3c-1.2-1.9-1.2-4.1-1.2-6.2c0-0.5,0-1,0.3-1.4        C47.2,444.5,47.9,444.4,48.3,444.8"/>
						<path class="st12" d="M53.7,444.8c-0.9,1.3-1.8,2.7-2.5,4.1c-0.1,0.2-0.3,0.5-0.2,0.8c0,0.2,0.2,0.4,0.4,0.6        c0.7,0.8,1.4,1.6,2.2,2.3c0.1,0.1,0.1,0.1,0.2,0.2c0.2,0,0.3-0.1,0.4-0.3c1.2-1.9,1.2-4.1,1.2-6.2c0-0.5,0-1-0.3-1.4        S54.1,444.4,53.7,444.8"/>
					</g>
					<path class="st14" d="M44.4,428.7c0-1.1,0-2.1,0-3.2"/>
					<path class="st14" d="M48.8,428.7c0-1.1,0-2.1,0-3.2"/>
					<path class="st14" d="M53.3,428.7c0-1.1,0-2.1,0-3.2"/>
					<path class="st14" d="M57.7,428.7c0-1.1,0-2.1,0-3.2"/>
				</g>
				<g>
					<ellipse class="st10" cx="82.7" cy="428.4" rx="14" ry="15.2"/>
					<path class="st15" d="M94.3,451.2l-7.7-4.4c0.4,0-1.6-0.3-3.1-0.6v-0.2c0,0-0.3,0-0.7,0.1c-0.4-0.1-0.7-0.1-0.7-0.1v0.2       c-1.4,0.2-3.5,0.6-3.1,0.6l-7.7,4.4l-0.8,9.3h11.5h1.4h11.5L94.3,451.2z"/>
					<g>
						<polyline class="st12" points="81.8,460.3 81.8,448.2 83.9,448.2 83.9,460.3       "/>
					</g>
					<g>
						<path class="st12" d="M72.1,429.2"/>
						<path class="st12" d="M72.2,426.4c-0.1,2.2,0,4.4,0.2,6.7l-0.1,0.4c-0.9-0.8-2.2-1.6-3.2-1c-1,0.6-1,2-0.8,3.2        c0,0.3,0.1,0.7,0.3,1c0.5,1,2,1,3.1,0.8l0.3-0.1c1.1,2.6,3,4.7,5.4,6.2c0.7,0.4,2,0.8,2.7,1.1l0,0.3c0,0.8,0,1.6,0,2.4        l-0.1,0.5c1.7,1.3,4.3,1.3,5.9-0.1l-0.2,0c0-0.8,0-1.6,0-2.4l0.1-0.3c0.8-0.3,0.7-0.6,1.5-1.1c2.7-1.5,4.8-3.9,6-6.7l0.4,0.1        c1.1,0.2,2.6,0.2,3.1-0.8c0.2-0.3,0.2-0.6,0.3-1c0.2-1.2,0.2-2.6-0.8-3.2c-1-0.6-2.3,0.2-3.2,1l-0.2-0.4        c0.2-2.2,0.3-4.4,0.2-6.7l0,2.8"/>
						<g>
							<g>
								<path class="st13" d="M76.4,434.1c0.8-0.7,2-1.1,3.1-0.8"/>
								<path class="st13" d="M88.8,434.1c-0.8-0.7-2-1.1-3.1-0.8"/>
							</g>
							<g>
								<path class="st3" d="M81.8,438.5c0.5,0.7,1.2,0.7,1.7,0l0.6-0.8c0.5-0.7,0.2-1.2-0.6-1.2h-1.5c-0.8,0-1.1,0.5-0.6,1.2          L81.8,438.5z"/>
								<path class="st13" d="M81.8,438.5c0.5,0.7,1.2,0.7,1.7,0l0.6-0.8c0.5-0.7,0.2-1.2-0.6-1.2h-1.5c-0.8,0-1.1,0.5-0.6,1.2          L81.8,438.5z"/>
							</g>
						</g>
					</g>
					<g>
						<path class="st12" d="M80.2,444.8c0.9,1.3,1.8,2.7,2.5,4.1c0.1,0.2,0.3,0.5,0.2,0.8c0,0.2-0.2,0.4-0.4,0.6        c-0.7,0.8-1.4,1.6-2.2,2.3c-0.1,0.1-0.1,0.1-0.2,0.2c-0.2,0-0.3-0.1-0.4-0.3c-1.2-1.9-1.2-4.1-1.2-6.2c0-0.5,0-1,0.3-1.4        S79.9,444.4,80.2,444.8"/>
						<path class="st12" d="M85.7,444.8c-0.9,1.3-1.8,2.7-2.5,4.1c-0.1,0.2-0.3,0.5-0.2,0.8c0,0.2,0.2,0.4,0.4,0.6        c0.7,0.8,1.4,1.6,2.2,2.3c0.1,0.1,0.1,0.1,0.2,0.2c0.2,0,0.3-0.1,0.4-0.3c1.2-1.9,1.2-4.1,1.2-6.2c0-0.5,0-1-0.3-1.4        S86,444.4,85.7,444.8"/>
					</g>
				</g>
			</g>
		</g>
	</g>
	<g>
		<circle class="st6" cx="67.6" cy="67.6" r="66.9"/>
		<g>
			<path class="st3" d="M28,102.3c-0.2,1.3-0.5,2.4-0.9,3.3l-1-0.4c0.4-1,0.7-2.1,0.8-3.1L28,102.3z M31.3,96     c-1,1.9-2.1,3.4-3.2,4.5c0.4-0.1,0.9-0.2,1.5-0.4c-0.1-0.2-0.2-0.5-0.3-0.6l0.9-0.3c0.4,0.8,0.7,1.5,0.8,2.2l-0.9,0.3     c-0.1-0.3-0.1-0.5-0.2-0.6c-1,0.3-2.2,0.5-3.5,0.7l-0.3-1c0.9-0.7,1.7-1.7,2.4-2.8c-0.6,0.1-1.3,0.2-2.1,0.3l-0.2-0.9     c1-1.1,1.8-2.6,2.5-4.3l1.1,0.4c-0.5,1.2-1.2,2.3-2,3.5c0.5,0,1-0.1,1.4-0.2c0.3-0.4,0.5-0.9,0.8-1.4L31.3,96z M29.9,105.1     l-1.1,0.2c0-1-0.1-1.9-0.4-3l1-0.2C29.7,103.2,29.8,104.2,29.9,105.1z M31.5,103.4l-0.9,0.3c-0.1-0.6-0.3-1.1-0.6-1.6l0.9-0.3     C31.1,102.3,31.3,102.9,31.5,103.4z M33.9,100.1c0.1,1.8-0.8,3.6-2.5,5.3l-0.8-0.8c1.2-1,2-2.2,2.2-3.4h-1.4v-1.1H33.9z      M38.7,104.3l-0.8,1.1c-0.9-0.7-1.7-1.7-2.4-2.9v2.1c0,0.4-0.2,0.7-0.5,0.9c-0.3,0.2-1,0.3-2,0.3l-0.3-1.3c0.6,0,1,0,1.3,0     c0.2,0,0.3-0.1,0.3-0.2v-5h-2.6v-4.7h1.7c0.3-0.4,0.5-0.8,0.6-1.3l1.2,0.3c-0.1,0.4-0.3,0.7-0.5,1h3.1v4.7h-2.4v1.1     c0.1,0.2,0.3,0.5,0.4,0.8c0.4-0.3,0.9-0.8,1.5-1.4l0.9,0.8c-0.5,0.5-1,1-1.7,1.6C37,102.8,37.8,103.5,38.7,104.3z M36.6,96.3     v-0.8h-3.8v0.8H36.6z M36.6,98.2v-0.8h-3.8v0.8H36.6z"/>
			<path class="st3" d="M52.6,105.3H40.3v-1.3h5.1V93.3h1.3v4.2H52v1.2h-5.3v5.2h5.9V105.3z"/>
			<path class="st3" d="M59.1,96.8h-1.5v2.4c0.3-0.1,0.8-0.3,1.3-0.5l0.1,1.3c-0.5,0.2-1,0.4-1.4,0.6v3.9c0,0.3-0.1,0.6-0.2,0.8     c-0.1,0.2-0.3,0.3-0.5,0.4s-0.5,0.1-0.9,0.1c-0.2,0-0.5,0-0.9,0l-0.4-1.2l1.5,0c0.2,0,0.2-0.1,0.2-0.2V101     c-0.7,0.2-1.2,0.4-1.6,0.5l-0.4-1.2c0.8-0.2,1.5-0.4,2-0.6v-2.9h-1.9v-1.2h1.9v-2.3h1.2v2.3h1.5V96.8z M66.9,104.6l-0.6,1.1     c-1.3-0.3-2.4-0.9-3.5-1.6c-1,0.7-2.3,1.2-3.8,1.6l-0.7-1.1c1.3-0.2,2.5-0.7,3.5-1.3c-0.7-0.6-1.4-1.6-1.8-2.9h-0.5v-1.2h6.4v1.1     c-0.6,1.2-1.2,2.2-2.1,3C64.5,103.7,65.5,104.1,66.9,104.6z M66.7,98.4H65c-0.8,0-1.1-0.4-1.1-1.2v-2.5h-2.2     c0.1,1.9-0.6,3.2-1.9,3.9l-0.9-0.9c0.6-0.3,1-0.7,1.2-1.1c0.2-0.4,0.4-0.9,0.4-1.6v-1.5h4.7V97c0,0.1,0.1,0.2,0.2,0.2h1.4V98.4z      M64.4,100.4h-3.2c0.4,1,0.9,1.8,1.6,2.2C63.4,101.9,64,101.2,64.4,100.4z"/>
			<path class="st3" d="M81,104.4l-0.4,1.1c-0.9,0-1.9,0-3,0c-2.1,0-3.4,0-3.9-0.1c-0.6-0.1-1.1-0.2-1.7-0.5c-0.5-0.2-1-0.5-1.4-0.9     c-0.5,0.7-0.9,1.3-1.4,1.8l-0.8-0.9c1.1-1.1,1.8-2.4,2.1-3.9h-1.8V100c0.5-0.7,1-1.5,1.5-2.5h-1.6v-1.2h3.1v1     c-0.3,0.8-0.8,1.6-1.5,2.6h1.5v1.1c-0.2,0.8-0.3,1.5-0.6,2c0.4,0.4,0.9,0.7,1.4,0.9c0.5,0.2,1,0.3,1.5,0.4     c0.5,0.1,1.7,0.1,3.8,0.1C78.9,104.5,80,104.4,81,104.4z M71.5,95.1l-1,0.9c-0.5-0.6-1.1-1.2-1.8-1.8l0.9-0.9     C70.3,93.7,70.9,94.3,71.5,95.1z M80.7,96.6c-0.1,0.8-0.3,1.6-0.5,2.2l-1.1-0.3c0.1-0.3,0.2-0.6,0.3-0.9h-2v0.7l1.5-0.1l0.1,0.9     l-1.6,0.1v0.4c0,0.1,0.1,0.2,0.2,0.2H80v0.9h-2.9c-0.2,0-0.4-0.1-0.6-0.3c-0.2-0.2-0.2-0.4-0.2-0.6v-0.5l-1.1,0.1     c0,2-0.3,3.6-1,4.8l-1-0.6c0.6-1,0.8-2.2,0.8-3.6v-3.3h2.1v-1.8c-0.8,0.1-1.7,0.2-2.7,0.2v3.8c0,2-0.3,3.6-1,5l-1-0.8     c0.6-1.3,0.8-2.7,0.8-4.1v-4.9c3.1-0.1,5.5-0.3,7.3-0.8l0.6,1.1c-0.8,0.2-1.8,0.3-2.8,0.4v0.4h2.8v0.9h-2.8v0.5H80.7z      M77.2,101.1c0,1.5-0.5,2.5-1.3,3l-0.8-0.7c0.7-0.5,1.1-1.3,1.1-2.4H77.2z M76.3,98.3v-0.7h-1.1v0.8L76.3,98.3z M80.8,102.2     c0,0.6-0.1,1.1-0.4,1.3c-0.2,0.2-0.6,0.3-1.2,0.3c-0.5,0-0.8-0.1-1-0.2c-0.2-0.1-0.3-0.3-0.3-0.7v-1.9h1.1v1.5     c0,0.2,0.1,0.3,0.3,0.3c0.3,0,0.4-0.3,0.4-1L80.8,102.2z"/>
			<path class="st3" d="M94.3,96.1h-9.6v3.8c0,2.3-0.4,4.2-1.1,5.8l-1-0.8c0.6-1.2,0.9-3,0.9-5.4v-6h10.8V96.1z M93.1,95.2v-0.7     h-8.3v0.7H93.1z M87.7,99.4c-0.1,0.2-0.4,0.6-0.8,1v5.2h-1.1v-4.2c-0.1,0.1-0.3,0.2-0.6,0.4l-0.4-1.1c0.8-0.6,1.5-1.3,2.1-2.2     L87.7,99.4z M88,96.9c-0.7,0.9-1.6,1.7-2.6,2.2L84.9,98c1-0.6,1.7-1.1,2.2-1.7L88,96.9z M95.1,104.9l-0.5,0.9     c-1.1-0.3-2.1-0.6-3.1-1.1c-1.2,0.5-2.4,0.8-3.7,1l-0.4-0.9c1.2-0.2,2.2-0.4,3-0.7c-0.4-0.3-0.8-0.5-1.1-0.8     c-0.5,0.3-0.9,0.6-1.4,0.8l-0.6-0.8c0.5-0.2,0.9-0.5,1.2-0.7c-0.1-0.1-0.2-0.2-0.4-0.4l0.7-0.6c0,0,0.2,0.2,0.4,0.4     c0.2-0.2,0.4-0.4,0.7-0.7h-1.5v-2.6L88,99.1l-0.8-0.8c0.9-0.6,1.6-1.3,2-2l1,0.3c-0.1,0.1-0.1,0.2-0.2,0.2h4.6v0.9h-5.3     c-0.1,0.2-0.3,0.3-0.5,0.5h5.3v3.1h-3.1c-0.1,0.2-0.2,0.4-0.4,0.6h3.7v0.8c-0.4,0.4-1,0.9-1.8,1.3     C93.3,104.4,94.1,104.7,95.1,104.9z M93.1,99.4V99h-3.4v0.5H93.1z M93.1,100.6v-0.5h-3.4v0.5H93.1z M92.9,102.8h-2.8     c0.6,0.4,1,0.7,1.4,0.9C92,103.4,92.5,103.1,92.9,102.8z"/>
			<path class="st3" d="M109.1,94.7H98.7v5.3c0,2.4-0.4,4.3-1.1,5.7l-1-0.9c0.6-1.1,0.8-2.4,0.8-4v-7.2h11.6V94.7z M109.1,105.5     H98.7v-1.1h1.5v-2.2h1.2v2.2h2v-2.9h1.2v0.7h3.6v1.1h-3.6v1h4.4V105.5z M103.8,99.3l-0.6,0.9c-0.4-0.4-0.8-0.7-1-0.8v2.3H101     v-2.2c-0.3,0.6-0.7,1.2-1.3,1.8l-0.8-0.9c0.8-0.8,1.3-1.5,1.7-2.3h-1.5v-1h1.9v-0.7c-0.6,0-1.1,0.1-1.5,0.1l-0.4-1     c1.5,0,2.8-0.2,4-0.5l0.5,0.9c-0.5,0.2-1,0.3-1.5,0.3v0.8h1.4v1h-1.4C102.8,98.5,103.4,98.9,103.8,99.3z M109.3,100.2l-0.7,1     c-0.5-0.7-1.1-1.3-1.7-1.8v2.3h-1.2v-2.2c-0.4,0.7-1,1.3-1.6,1.8l-0.8-0.9c0.9-0.8,1.6-1.5,2-2.2h-1.3v-1h1.7v-0.7     c-0.5,0.1-0.9,0.1-1.4,0.1l-0.4-1c1.5,0,2.9-0.2,4.2-0.5l0.5,0.9c-0.6,0.2-1.2,0.3-1.8,0.4v0.8h2v1h-1.7     C108,98.8,108.7,99.4,109.3,100.2z"/>
		</g>
		<g>
			<rect x="57.9" y="23.8" class="st18" width="47.3" height="62.4"/>
			<rect x="88.6" y="26.9" class="st27" width="13.1" height="16.9"/>
			<rect x="62.1" y="29.3" class="st28" width="21.7" height="0.7"/>
			<rect x="62.1" y="33.1" class="st28" width="21.7" height="0.7"/>
			<rect x="62.1" y="36.9" class="st28" width="21.7" height="0.7"/>
			<rect x="62.1" y="40.7" class="st28" width="21.7" height="0.7"/>
			<rect x="62.1" y="47.1" class="st28" width="39.3" height="0.7"/>
			<rect x="62.1" y="50.2" class="st28" width="39.3" height="0.7"/>
			<rect x="62.1" y="53.3" class="st28" width="39.3" height="0.7"/>
			<rect x="62.1" y="56.3" class="st28" width="39.3" height="0.7"/>
			<rect x="62.1" y="59.4" class="st28" width="39.3" height="0.7"/>
			<rect x="62.1" y="62.5" class="st28" width="39.3" height="0.7"/>
			<rect x="62.1" y="65.5" class="st28" width="39.3" height="0.7"/>
			<rect x="62.1" y="68.6" class="st28" width="39.3" height="0.7"/>
			<rect x="62.1" y="71.7" class="st28" width="39.3" height="0.7"/>
			<rect x="62.1" y="74.7" class="st28" width="39.3" height="0.7"/>
			<rect x="62.1" y="77.8" class="st28" width="39.3" height="0.7"/>
			<rect x="62.1" y="80.9" class="st28" width="39.3" height="0.7"/>
			<g>
				<ellipse class="st29" cx="95.2" cy="34.1" rx="4.2" ry="4.6"/>
				<path class="st30" d="M98.7,41l-2.3-1.3c0.1,0-0.5-0.1-0.9-0.2v-0.1c0,0-0.1,0-0.2,0c-0.1,0-0.2,0-0.2,0v0.1      c-0.4,0.1-1,0.2-0.9,0.2L91.8,41l-0.2,2.8h3.5h0.4H99L98.7,41z"/>
				<g>
					<line class="st31" x1="95" y1="40.1" x2="95" y2="43.7"/>
					<line class="st31" x1="95.6" y1="40.1" x2="95.6" y2="43.7"/>
				</g>
				<g>
					<path class="st31" d="M98.3,33.5c0,0.7,0,1.3-0.1,2l0,0.1c0.3-0.2,0.7-0.5,1-0.3c0.3,0.2,0.3,0.6,0.3,1c0,0.1,0,0.2-0.1,0.3       c-0.2,0.3-0.6,0.3-0.9,0.2l-0.1,0c-0.3,0.8-0.9,1.4-1.6,1.9c-0.2,0.1-0.3,0.2-0.6,0.3l0,0.1c0,0.2,0,0.5,0,0.7l0,0.2       c-0.5,0.4-1.3,0.4-1.8,0l0.1,0c0-0.2,0-0.5,0-0.7l0-0.1c-0.2-0.1-0.5-0.2-0.7-0.3c-0.8-0.5-1.5-1.2-1.8-2l-0.1,0       c-0.3,0.1-0.8,0.1-0.9-0.2c0-0.1-0.1-0.2-0.1-0.3c0-0.4-0.1-0.8,0.3-1c0.3-0.2,0.7,0.1,1,0.3l0-0.1c-0.1-0.7-0.1-1.3-0.1-2       l0,0.8c1.4-0.2,2.4-0.4,3.2-1.5v0.1c0.8,1.2,1.7,1.2,3.1,1.4"/>
					<path class="st32" d="M94.1,34.6c0,0.4,0,0.8,0,1.2"/>
					<path class="st32" d="M96.5,34.6c0,0.4,0,0.8,0,1.2"/>
					<path class="st32" d="M94.8,36.9c0.3,0.1,0.7,0.1,1.1,0"/>
				</g>
				<g>
					<path class="st31" d="M94.5,39.1c0.3,0.4,0.5,0.8,0.8,1.3c0,0.1,0.1,0.2,0.1,0.2c0,0.1-0.1,0.1-0.1,0.2       c-0.2,0.2-0.4,0.5-0.7,0.7c0,0,0,0-0.1,0.1c-0.1,0-0.1,0-0.1-0.1C94,40.8,94,40.1,94,39.5c0-0.1,0-0.3,0.1-0.4       S94.4,38.9,94.5,39.1"/>
					<path class="st31" d="M96.1,39.1c-0.3,0.4-0.5,0.8-0.8,1.3c0,0.1-0.1,0.2-0.1,0.2c0,0.1,0.1,0.1,0.1,0.2       c0.2,0.2,0.4,0.5,0.7,0.7c0,0,0,0,0.1,0.1c0.1,0,0.1,0,0.1-0.1c0.4-0.6,0.4-1.2,0.4-1.9c0-0.1,0-0.3-0.1-0.4       C96.4,39,96.2,38.9,96.1,39.1"/>
				</g>
				<path class="st33" d="M96.4,30.7"/>
				<path class="st33" d="M97.4,31.1c0.3,0.2,0.5,0.5,0.7,0.8"/>
			</g>
		</g>
		<g>
			<rect x="27.9" y="23.8" class="st18" width="47.3" height="62.4"/>
			<rect x="58.6" y="26.9" class="st27" width="13.1" height="16.9"/>
			<rect x="32.1" y="29.3" class="st28" width="21.7" height="0.7"/>
			<rect x="32.1" y="33.1" class="st28" width="21.7" height="0.7"/>
			<rect x="32.1" y="36.9" class="st28" width="21.7" height="0.7"/>
			<rect x="32.1" y="40.7" class="st28" width="21.7" height="0.7"/>
			<rect x="32.1" y="47.1" class="st28" width="39.3" height="0.7"/>
			<rect x="32.1" y="50.2" class="st28" width="39.3" height="0.7"/>
			<rect x="32.1" y="53.3" class="st28" width="39.3" height="0.7"/>
			<rect x="32.1" y="56.3" class="st28" width="39.3" height="0.7"/>
			<rect x="32.1" y="59.4" class="st28" width="39.3" height="0.7"/>
			<rect x="32.1" y="62.5" class="st28" width="39.3" height="0.7"/>
			<rect x="32.1" y="65.5" class="st28" width="39.3" height="0.7"/>
			<rect x="32.1" y="68.6" class="st28" width="39.3" height="0.7"/>
			<rect x="32.1" y="71.7" class="st28" width="39.3" height="0.7"/>
			<rect x="32.1" y="74.7" class="st28" width="39.3" height="0.7"/>
			<rect x="32.1" y="77.8" class="st28" width="39.3" height="0.7"/>
			<rect x="32.1" y="80.9" class="st28" width="39.3" height="0.7"/>
			<g>
				<path class="st29" d="M67.2,40.6c0.9,0,1.8,0,2.7,0c0.1,0,0.3,0,0.4-0.1c0.1-0.1,0.1-0.2,0.1-0.3c0.1-0.9,0.2-1.7,0.3-2.6      c0.2-1.9,0.3-3.8-0.3-5.6s-2-3-3.6-3.7c-1.6-0.8-3,0-3,0c-1.7,0.3-3,1.9-3.6,3.7s-0.5,3.7-0.3,5.6c0.1,0.9,0.2,1.8,0.3,2.6      c0,0.1,0,0.2,0.1,0.3c0.1,0.1,0.2,0.1,0.4,0.1c0.9,0,1.8,0,2.7,0H67.2z"/>
				<path class="st30" d="M69.3,40.5l-2.7-1.6c0.1,0-0.6-0.1-1.1-0.2v-0.1c0,0-0.1,0-0.2,0c-0.1,0-0.2,0-0.2,0v0.1      c-0.5,0.1-1.2,0.2-1.1,0.2l-2.7,1.6L61,43.8H65h0.5h4.1L69.3,40.5z"/>
				<g>
					<line class="st31" x1="64.9" y1="39.4" x2="64.9" y2="43.7"/>
					<line class="st31" x1="65.6" y1="39.4" x2="65.6" y2="43.7"/>
				</g>
				<g>
					<path class="st31" d="M68.9,31.7c0,0.8,0,1.6-0.1,2.3l0,0.1c0.3-0.3,0.8-0.6,1.1-0.4c0.4,0.2,0.4,0.7,0.3,1.1       c0,0.1,0,0.2-0.1,0.3c-0.2,0.4-0.7,0.3-1.1,0.3l-0.1,0c-0.4,0.9-1.1,1.7-1.9,2.2c-0.2,0.2-0.4,0.3-0.6,0.4l0,0.1       c0,0.3,0,0.6,0,0.9l0,0.2c-0.6,0.5-1.5,0.4-2.1-0.1l0.1,0c0-0.3,0-0.6,0-0.9l0-0.1c-0.3-0.1-0.6-0.2-0.8-0.4       c-0.9-0.5-1.7-1.4-2.1-2.3l-0.1,0c-0.4,0.1-0.9,0.1-1.1-0.3c-0.1-0.1-0.1-0.2-0.1-0.3c-0.1-0.4-0.1-0.9,0.3-1.1       c0.4-0.2,0.8,0.1,1.1,0.4l0.1-0.1c-0.1-0.8-0.1-1.6-0.1-2.3l0,1c1.6-0.2,2.8-0.4,3.8-1.8v0.1c0.9,1.3,1.9,1.4,3.6,1.6"/>
					<path class="st32" d="M63.9,33.1c0,0.5,0,0.9,0,1.4"/>
					<path class="st32" d="M66.7,33.1c0,0.5,0,0.9,0,1.4"/>
					<path class="st32" d="M64.7,35.7c0.4,0.2,0.9,0.2,1.3,0"/>
				</g>
				<g>
					<path class="st31" d="M64.3,38.2c0.3,0.5,0.6,1,0.9,1.5c0,0.1,0.1,0.2,0.1,0.3c0,0.1-0.1,0.1-0.1,0.2c-0.3,0.3-0.5,0.5-0.8,0.8       c0,0,0,0.1-0.1,0.1c-0.1,0-0.1,0-0.2-0.1c-0.4-0.7-0.4-1.4-0.4-2.2c0-0.2,0-0.3,0.1-0.5S64.2,38.1,64.3,38.2"/>
					<path class="st31" d="M66.3,38.2c-0.3,0.5-0.6,1-0.9,1.5c0,0.1-0.1,0.2-0.1,0.3c0,0.1,0.1,0.1,0.1,0.2c0.3,0.3,0.5,0.5,0.8,0.8       c0,0,0,0.1,0.1,0.1c0.1,0,0.1,0,0.2-0.1c0.4-0.7,0.4-1.4,0.4-2.2c0-0.2,0-0.3-0.1-0.5C66.6,38.1,66.4,38.1,66.3,38.2"/>
				</g>
			</g>
		</g>
	</g>
	<g>
		<path class="st3" d="M149.8,81.3l-0.7,1.1c-2.2-1-4.1-2.2-5.6-3.5c-1.4,1.1-3.2,2.3-5.4,3.4l-0.8-1c2.7-1.2,4.7-2.6,6-4l1.3,0.5    c-0.1,0.1-0.2,0.2-0.2,0.3C145.6,79.2,147.5,80.3,149.8,81.3z M148,89.8h-1.3V89h-6.6v0.7h-1.3V84h9.3V89.8z M146.7,87.8v-2.6    h-6.6v2.6H146.7z M146.7,82.5h-6.5v-1.2h6.5V82.5z"/>
		<path class="st3" d="M141.8,97l-0.8,0.9c-0.1-0.2-0.2-0.5-0.5-0.9v6.8h-1.2v-6c-0.5,1.1-0.9,1.9-1.4,2.4l-0.6-1.2    c0.8-1,1.5-2.2,2-3.8h-1.9V94h1.9v-2.5h1.2V94h1.2v1.2h-1.2v0.1C141,95.9,141.5,96.5,141.8,97z M149.6,97.2l-0.6,1.1    c-1.4-0.4-2.4-1-3.3-1.6c-1,0.6-2.1,1.2-3.2,1.6l-0.7-1.1c1.2-0.4,2.2-0.8,2.9-1.3c-0.5-0.5-0.9-1-1.1-1.4    c-0.4,0.4-0.8,0.6-0.9,0.7l-0.8-0.9c1-0.7,1.9-1.7,2.7-3l1.2,0.3c0,0.1-0.2,0.3-0.4,0.7h3.3v1.2c-0.5,0.9-1.2,1.7-2,2.4    C147.5,96.6,148.5,97,149.6,97.2z M148.7,103.8h-1.3v-0.5H144v0.5h-1.3v-5.2h6V103.8z M147.4,102.1v-2.3H144v2.3H147.4z     M147.3,93.7h-2.7l-0.1,0.1c0.4,0.6,0.8,1.2,1.3,1.6C146.4,94.8,146.9,94.3,147.3,93.7z"/>
	</g>
</g>
</svg>