<?xml version="1.0" encoding="UTF-8"?>
<!-- Generator: Adobe Illustrator 21.0.2, SVG Export Plug-In . SVG Version: 6.00 Build 0)  -->
<svg version="1.1" id="圖層_1" xmlns="http://www.w3.org/2000/svg" xmlns:xlink="http://www.w3.org/1999/xlink" x="0px" y="0px" width="280px" height="166.6px" viewBox="0 0 280 166.6" style="enable-background:new 0 0 280 166.6;" xml:space="preserve">
<style type="text/css">
	.st0{fill:#FFFFFF;}
	.st1{opacity:0.5;fill:none;stroke:#FFFFFF;stroke-miterlimit:10;}
</style>
<g>
	<g>
		<g>
			<path class="st0" d="M72.4,16.9h3.4v-5.4h3.5v5.4h2.9v3.5h-2.9v4.1c0.7-0.2,1.4-0.5,2.1-0.8l0.5,3c-0.9,0.4-1.7,0.9-2.6,1.3v7.7     c0,1.8-0.2,2.9-0.8,3.6C78,40,77,40.4,75.5,40.4c-0.9,0-1.7-0.1-2.5-0.2l-0.7-3.6c0.9,0.2,1.8,0.3,2.6,0.3c0.4,0,0.6-0.1,0.7-0.4     c0.1-0.4,0.2-0.9,0.2-1.6v-5.4c-0.8,0.3-1.6,0.6-2.5,0.9l-1.2-3.7c1.3-0.3,2.6-0.7,3.8-1v-5.2h-3.4V16.9z M82.6,25.9h6.8v-2.8H93     v2.8h7.5v3.4h-5.3c1.6,2.5,3.6,4.4,5.9,6l-2,3.5c-1.3-1.1-2.6-2.5-3.8-4.2c-0.7-1-1.4-2-2.1-3v8.8h-3.7V32     c-0.4,0.6-0.7,1.1-1.2,1.7c-1.5,2-3.2,3.7-5.1,5.1l-2.3-2.9c1.9-1.2,3.4-2.6,4.8-4.2c0.7-0.9,1.3-1.7,1.8-2.4h-4.7V25.9z      M98.8,11.5l1.6,3.2c-5,0.9-10.7,1.6-17,2.1l-1.2-3.3C88.2,13,93.8,12.3,98.8,11.5z M86,17.3c0.9,1.6,1.5,3.3,2,5.2l-3.3,1.1     c-0.4-2-1.1-3.8-1.9-5.4L86,17.3z M91.7,16.5c0.9,1.4,1.5,3,2,4.8l-3.3,1.1c-0.4-1.8-1.1-3.4-1.9-4.8L91.7,16.5z M97.2,15.7     l3.5,1.1c-1,3-2.1,5.4-3.3,7.4l-3.3-1.8C95.4,20.2,96.5,18,97.2,15.7z"/>
			<path class="st0" d="M112.4,12.6h22.5V35c0,3.2-1.4,4.8-4.2,4.8c-0.8,0-1.7,0-2.8-0.1l-0.9-4.1c1.1,0.4,2.1,0.5,3,0.5     c0.8,0,1.1-0.8,1.1-2.5v-2.9h-6.5v8.7h-3.8v-8.7H114c-0.1,1.1-0.3,2.1-0.6,3.2c-0.5,2.1-1.3,4.2-2.4,6.3l-3.4-2     c1.2-2.7,2-5,2.3-6.9c0.5-2.4,0.7-4.8,0.7-7.2V12.6H112.4z M114.2,27.1h6.7v-3.8h-6.6V26C114.3,26.4,114.3,26.8,114.2,27.1z      M114.3,19.7h6.6v-3.5h-6.6V19.7z M124.6,16.3v3.5h6.5v-3.5H124.6z M124.6,23.4v3.8h6.5v-3.8H124.6z"/>
			<path class="st0" d="M143.1,17.3L146,18c-0.2,3.3-0.6,6.4-1.4,9.2l-2.9-1.5C142.5,22.9,142.9,20.1,143.1,17.3z M146.2,11.5h3.4     v4.6l2.1-1c0.8,1.6,1.5,3.4,2,5.4l-3.2,1.4c-0.3-1.2-0.6-2.4-1-3.5v22.1h-3.4V11.5z M152.9,13.1h7.1v-1.6h3.6v1.6h7.5v3.2h-7.5v1     h6.3v3.1h-6.3v0.9h7.9v3.2h-18.9v-3.2h7.3v-0.9h-5.8v-3.1h5.8v-1h-7.1V13.1z M170.2,25.4v11c0,2.7-1.6,4-4.9,4h-2.1l-0.8-3.5     c1.1,0.2,2,0.2,2.9,0.2c0.7,0,1.2-0.3,1.3-1h-9.4v4.2h-3.5v-15H170.2z M157.2,29.4h9.5v-0.8h-9.5V29.4z M157.2,33.1h9.5v-0.7     h-9.5V33.1z"/>
			<path class="st0" d="M178.6,14.4h4.6v-2.8h3.5v2.8h4.8v3.2h-4.8v2.2h5.4v3.2h-1.6c-0.3,1.1-0.7,2.2-1.1,3.1h2.1v3.2h-4.8v2h5.4     v3.2h-5.4v5.5h-3.5v-5.5h-5.2v-3.2h5.2v-2h-4.6v-3.2h1.9c-0.3-0.9-0.6-1.8-0.9-2.5l1.3-0.6h-3.1v-3.2h5.4v-2.2h-4.6V14.4z      M182.5,26.2h3.3c0.4-1.1,0.8-2.1,1-3.1h-4c0.4,0.8,0.8,1.6,1.1,2.5L182.5,26.2z M194.3,12.3h11.2v6.4c0,2.6-1.2,3.8-3.8,3.8     h-2.3l-0.8-3.6c0.8,0.2,1.5,0.2,2.1,0.2c0.6,0,1-0.4,1-1.2v-2.4h-5.7v7.6h10.1v2.5c-0.8,3.6-1.8,6.4-2.9,8.5c1,1.1,2.1,2.2,3.3,3     l-2.5,3.1c-1.1-0.9-2-1.9-2.9-3c-1.1,1.3-2.3,2.3-3.7,3l-1.3-2.6v2.6h-3.5V12.3H194.3z M196.1,36.8c1.1-0.6,2.1-1.5,2.9-2.5     c0-0.1-0.1-0.2-0.1-0.2c-1.2-2.2-2.1-4.7-2.6-7.5h-0.2V36.8z M199.6,26.5c0.3,1.6,0.8,3,1.4,4.3c0.6-1.3,1-2.8,1.4-4.3H199.6z"/>
		</g>
	</g>
	<line class="st1" x1="4.1" y1="0" x2="262.3" y2="0"/>
	<g>
		<path class="st0" d="M3,107.4l1,0.5c-0.4,0.9-0.9,1.6-1.3,2.2v6.4H1.5v-5.1c-0.3,0.3-0.7,0.6-1.1,0.9L0,110.8    c0.6-0.5,1.2-1,1.6-1.5C2.1,108.9,2.6,108.2,3,107.4z M3.1,103.7l1.1,0.6c-0.5,0.7-1,1.3-1.4,1.7c-0.5,0.5-1.2,0.9-2,1.4l-0.7-1.1    c0.6-0.2,1.2-0.6,1.7-1.1C2.3,104.8,2.7,104.3,3.1,103.7z M10.3,103.8l1.3,0.2c-0.2,0.8-0.4,1.5-0.6,2c0.6,0.4,1.2,0.8,1.8,1.3    l-0.8,1.2c-0.6-0.6-1.1-1.1-1.5-1.4c-0.3,0.6-0.7,1.1-1.3,1.7h0.1v2h2.9v1.3H9.4v3.2c0.4,0,0.9,0.1,1.4,0.1c0.7,0,1.5,0,2.3-0.1    l-0.2,1.4c-2.6,0-4.3-0.1-5-0.4c-0.6-0.1-1.1-0.5-1.7-1.1c-0.3-0.3-0.5-0.6-0.7-1c-0.4,0.8-0.8,1.6-1.3,2.4l-1-0.9    c0.7-1.1,1.2-2.1,1.5-3c0.3-0.8,0.4-1.8,0.5-3l1.3,0.2c-0.1,1.2-0.3,2.1-0.4,2.8c0.3,0.8,0.7,1.4,1.2,1.8c0.3,0.3,0.6,0.5,1,0.6    v-6.1H9l-0.8-1c0.6-0.6,1-1.2,1.3-1.8C9.9,105.4,10.1,104.7,10.3,103.8z M6.1,103.8l1.3,0.2c-0.2,0.7-0.4,1.3-0.6,1.7    c0.5,0.4,1.1,0.8,1.6,1.3l-0.8,1.3c-0.6-0.6-1-1.1-1.4-1.4c-0.3,0.6-0.8,1.2-1.5,1.8l-0.9-1.1c0.7-0.6,1.1-1.1,1.5-1.7    C5.7,105.4,5.9,104.7,6.1,103.8z"/>
		<path class="st0" d="M14.1,106.1h2.4v-2.4h1.3v2.4h2.9c0,4.9-0.1,7.7-0.2,8.6c-0.1,0.7-0.3,1.2-0.5,1.4c-0.3,0.3-0.8,0.4-1.6,0.4    c-0.3,0-0.7,0-1.1-0.1l-0.2-1.4c0.4,0.1,0.9,0.1,1.3,0.1c0.5,0,0.7-0.3,0.8-0.9c0.1-0.7,0.2-3,0.2-7h-1.6    c-0.1,1.8-0.2,3.2-0.5,4.5c-0.4,1.5-1,3.1-2.1,4.7l-1.1-1c0.9-1.3,1.5-2.7,1.9-4.1c0.3-1,0.4-2.3,0.5-4.1h-2.3V106.1z M26.7,105.5    v11h-1.3v-1h-2.7v1.1h-1.3v-11.1H26.7z M22.6,114.3h2.7v-7.5h-2.7V114.3z"/>
		<path class="st0" d="M34.2,106.2c0-0.2-0.1-0.4-0.1-0.6h-3.8v-1.3h5.1c0.2,2.7,0.8,4.8,1.8,6.4c0.9,1.6,2.3,3.1,4,4.4l-0.9,1.4    c-2-1.8-3.4-3.4-4.2-5c-0.5-0.9-0.9-1.9-1.2-2.9c-0.4,1.5-0.9,2.7-1.5,3.7c-0.8,1.3-2.1,2.8-4,4.3l-0.9-1.3    c1.8-1.3,3.1-2.7,3.9-4.1C33,109.8,33.6,108.1,34.2,106.2z"/>
		<path class="st0" d="M52.9,107.4v7.7h2v1.1H42.5v-1.1h2v-7.7H52.9z M49.1,103.7c0.2,0.3,0.3,0.7,0.5,1.1h5.2v3.2h-1.3v-2h-9.3v2    h-1.3v-3.2h5.4c-0.2-0.3-0.3-0.7-0.5-0.9L49.1,103.7z M45.8,110h5.8v-1.4h-5.8V110z M45.8,112.5h5.8v-1.4h-5.8V112.5z M45.8,115.1    h5.8v-1.4h-5.8V115.1z"/>
		<path class="st0" d="M59.9,103.8l0.9,0.8c-1,1.2-2.1,2.3-3.6,3.2l-0.9-1.1C57.7,105.9,58.9,104.9,59.9,103.8z M59.8,107.2l1.1,0.5    c-0.4,0.9-0.9,1.7-1.4,2.4v6.4h-1.3v-4.9c-0.4,0.4-0.9,0.8-1.4,1.2l-0.5-1.6c0.7-0.6,1.3-1.1,1.8-1.7    C58.8,108.9,59.3,108.2,59.8,107.2z M60.6,109.8h8.3v1h-1.5v0.8h1.8v1.1h-1.8v2.4c0,0.5-0.1,0.8-0.3,1c-0.2,0.2-0.6,0.3-1.1,0.3    h-1.6l-0.3-1.3c0.6,0.1,1.2,0.1,1.6,0.1c0.3,0,0.5-0.1,0.5-0.3v-2.2h-5.9v-1.1h5.9v-0.8h-5.5V109.8z M61.2,104.3h7.3v4.7h-7.3    V104.3z M62.8,113.1c0.4,0.5,0.8,1,1.1,1.6l-1.2,0.5c-0.4-0.7-0.7-1.3-1.2-1.8L62.8,113.1z M62.4,106.2h4.8v-0.9h-4.8V106.2z     M67.3,108v-0.9h-4.8v0.9H67.3z"/>
		<path class="st0" d="M76.6,103.8l0.4,1.3c-0.7,0.2-1.5,0.4-2.3,0.6v1.9h2.5v1.3h-2.5v0.1c0.9,0.9,1.8,1.8,2.7,2.9l-0.8,1.1    c-0.8-1.1-1.4-2-1.9-2.6v6.2h-1.3v-6c-0.3,0.6-0.5,1.1-0.7,1.5c-0.5,0.8-1,1.5-1.7,2.3l-0.7-1.2c0.7-0.6,1.2-1.3,1.8-2.2    c0.4-0.6,0.7-1.3,1-2h-2.4v-1.3h2.9v-1.7c-0.7,0.1-1.5,0.2-2.4,0.3l-0.3-1.2C72.9,104.7,74.9,104.4,76.6,103.8z M78.1,104.8h1.3    v8.9h-1.3V104.8z M81.2,103.8h1.4V115c0,0.5-0.1,0.9-0.4,1.1c-0.2,0.2-0.6,0.3-1.2,0.3h-2.2l-0.3-1.4c0.9,0.1,1.6,0.1,2.1,0.1    c0.4,0,0.5-0.1,0.5-0.3V103.8z"/>
		<path class="st0" d="M87.4,103.8l1.2,0.2c-0.2,0.7-0.4,1.4-0.7,2h2v2.9c0.4-0.7,0.7-1.4,1-2c0.3-0.8,0.5-1.8,0.7-3.1l1.4,0.2    c-0.1,0.8-0.3,1.4-0.4,2h4.3c0,4.9-0.1,7.8-0.2,8.7c-0.1,0.7-0.4,1.2-0.7,1.4c-0.4,0.3-1.1,0.4-2.2,0.4c-0.3,0-0.7,0-1.1-0.1    l-0.2-1.4c0.4,0.1,0.8,0.1,1.3,0.1c0.9,0,1.4-0.3,1.5-0.9c0.2-0.7,0.3-3.1,0.3-7.1h-3.3c0,0.1-0.1,0.2-0.1,0.2    c-0.3,1-0.8,2.1-1.5,3.2l-0.7-0.8v5.7h-1.2v-0.7h-2.6v1.1H85v-10h1.7C87,105.3,87.2,104.5,87.4,103.8z M86.2,109.8h2.6v-2.7h-2.6    V109.8z M86.2,113.7h2.6v-2.8h-2.6V113.7z M92.7,109c0.8,1.3,1.4,2.4,1.9,3.3l-1.3,0.9c-0.4-1-0.9-2.2-1.6-3.5L92.7,109z"/>
		<path class="st0" d="M98.9,104.3h5.8c0,5.7-0.1,9.1-0.2,10.1c-0.1,0.8-0.2,1.4-0.4,1.6c-0.2,0.3-0.7,0.5-1.4,0.5    c-0.3,0-0.7,0-1.1-0.1l-0.2-1.5c0.4,0.1,0.9,0.1,1.4,0.1c0.4,0,0.6-0.3,0.6-1c0-0.4,0-1.1,0.1-2.2h-1.8c-0.1,0.4-0.2,0.8-0.3,1.2    c-0.3,1.1-1,2.3-1.9,3.4l-1-0.9c0.8-0.9,1.4-1.9,1.7-2.9c0.1-0.2,0.2-0.5,0.2-0.8h-1.5v-1.2h1.7c0.1-0.6,0.1-1.2,0.1-1.8v-0.2    h-1.8v-1.2h1.8v-1.9h-1.7V104.3z M101.9,108.6v0.2c0,0.7,0,1.3-0.1,1.8h1.6c0-0.6,0-1.3,0-2H101.9z M101.9,105.5v1.9h1.6v-1.9    H101.9z M105.9,104.3h5.2v1c-0.5,1.5-1,2.9-1.6,4.3c0.7,0.8,1.1,1.4,1.3,1.9c0.3,0.5,0.4,0.9,0.4,1.4c0,0.9-0.2,1.5-0.5,1.9    c-0.3,0.4-1.2,0.6-2.6,0.6l-0.4-1.4c0.4,0.1,0.8,0.1,1.2,0.1c0.4,0,0.6-0.1,0.8-0.4c0.1-0.2,0.2-0.5,0.2-1c0-0.3-0.1-0.6-0.3-1.1    c-0.2-0.5-0.7-1.2-1.4-2.2c0.6-1.5,1.2-2.8,1.5-4h-2.5v11.1h-1.3V104.3z"/>
		<path class="st0" d="M112.8,109H125v1.3h-12.2V109z"/>
		<path class="st0" d="M130.3,103.7c0.2,0.4,0.4,0.8,0.6,1.3h3.4v1.2h-3.4c-0.3,0.8-0.8,1.5-1.4,2.2c0.7,0,1.4,0,2-0.1    c0.3-0.4,0.6-0.9,0.9-1.5l1,0.5c-0.8,1.4-1.7,2.7-2.7,3.6c-0.8,0.8-2,1.5-3.6,2.1l-0.7-1c1.4-0.5,2.5-1.2,3.4-2    c0.2-0.2,0.4-0.4,0.7-0.7c-0.9,0.1-2.1,0.1-3.6,0.2l-0.2-1.1c0.4,0,0.8,0,1.2,0c0.6-0.7,1.1-1.5,1.4-2.3h-2.8V105h2.8    c-0.2-0.4-0.4-0.8-0.6-1.1L130.3,103.7z M133.2,109.6l1.1,0.7c-0.8,1.1-1.5,2.1-2.3,2.8c0.8,0.5,1.5,1.2,2.2,1.9l-0.8,1.2    c-0.8-0.9-1.6-1.6-2.4-2.2c-1,0.9-2.3,1.8-3.8,2.6l-0.7-1.2c1.3-0.6,2.6-1.4,3.9-2.5C131.4,112,132.3,110.9,133.2,109.6z     M134.9,104.7h1.3v9.1h-1.3V104.7z M137.5,103.7h1.3v11.1c0,0.5-0.1,0.9-0.3,1.1c-0.2,0.2-0.6,0.4-1.2,0.4h-1.8l-0.3-1.5    c0.7,0.1,1.2,0.1,1.7,0.1c0.4,0,0.5-0.1,0.5-0.3V103.7z"/>
		<path class="st0" d="M141.3,105.4h2.4v-1.7h1.3v1.7h2v1.2h-2v1.4h2v1.2h-2v1.6h2v1.2h-2v2.3c0.2,0.1,0.5,0.1,0.7,0.2    c0.7,0.1,2.2,0.2,4.4,0.3c1.6,0,2.8,0,3.6-0.1l-0.2,1.2c-4.2,0-6.8-0.1-7.7-0.2c-0.8-0.1-1.5-0.4-2-0.7c-0.4-0.2-0.9-0.7-1.4-1.4    c-0.2,0.9-0.5,1.7-0.8,2.6l-0.9-0.8c0.3-1,0.6-1.9,0.7-2.7c0.1-0.7,0.2-1.6,0.3-2.7l1.2,0.1c0,0.8-0.1,1.5-0.2,2.1    c0.4,0.6,0.8,1.1,1.1,1.4v-4.4h-2.8v-1.2h2.8v-1.4h-2.4V105.4z M152.8,104.4v5h-4v2.7c0,0.3,0.2,0.4,0.5,0.4h2.2    c0.2,0,0.3-0.1,0.4-0.2c0.1-0.1,0.2-0.8,0.2-1.9l1.2,0.4c-0.1,1.5-0.3,2.3-0.5,2.6c-0.2,0.3-0.6,0.4-1.1,0.4h-2.9    c-0.4,0-0.7-0.1-0.9-0.3c-0.2-0.2-0.3-0.5-0.3-0.9v-8.1H152.8z M148.7,105.6v2.6h2.8v-2.6H148.7z"/>
		<path class="st0" d="M162,110.3c0,0.5-0.1,1-0.4,1.3c-0.2,0.3-0.6,0.6-1.1,0.9l-0.5-0.7c0.7-0.3,1-0.7,1.1-1.2h-0.9v-1.7h1.7    V110.3z"/>
		<path class="st0" d="M169.9,111.3l1.2,0.3c-0.3,1.3-0.7,2.4-1.1,3.4l-1.2-0.4C169.2,113.7,169.6,112.6,169.9,111.3z M172.3,103.8    c0.2,0.4,0.4,0.8,0.6,1.3h2.4v1.1h-6.5v-1.1h2.7c-0.2-0.4-0.4-0.8-0.6-1.1L172.3,103.8z M169.4,107.2h5.4v3.7h-1.9v4.2    c0,0.5-0.1,0.8-0.3,1c-0.2,0.2-0.6,0.3-1.1,0.3h-0.8l-0.3-1.3c0.3,0.1,0.5,0.1,0.7,0.1c0.4,0,0.5-0.1,0.5-0.3v-4h-2.2V107.2z     M173.6,109.8v-1.5h-2.9v1.5H173.6z M174.5,111.4c0.3,0.9,0.5,1.6,0.7,2.4l-1.2,0.5c-0.1-0.9-0.3-1.7-0.5-2.5L174.5,111.4z     M175.2,106.9h1.7v-3.2h1.2v3.2h3.3v1.2h-3.4c-0.1,1.6-0.3,2.9-0.6,4c-0.4,1.4-1.2,2.9-2.4,4.4l-1.1-0.9c1.1-1.2,1.8-2.5,2.2-3.9    c0.3-0.9,0.5-2.1,0.5-3.7h-1.7V106.9z M178.2,109.5h1.3v5.2c0,0.2,0.1,0.4,0.4,0.4c0.4,0,0.5-0.1,0.5-0.4v-2.1l1.1,0.5    c0,1.6-0.1,2.5-0.4,2.9c-0.2,0.3-0.6,0.4-1.3,0.4c-0.6,0-1-0.1-1.3-0.3c-0.3-0.2-0.4-0.5-0.4-0.9V109.5z M179.8,104.3    c0.6,0.6,1.2,1.1,1.5,1.6l-1.1,0.8c-0.3-0.5-0.8-1.1-1.4-1.8L179.8,104.3z"/>
		<path class="st0" d="M188.7,104.2v4.7h-4.3v7.7h-1.3v-12.4H188.7z M184.4,106h3v-0.8h-3V106z M184.4,107.8h3v-0.9h-3V107.8z     M185.6,109.5h7.2v1h-1.6v1.5h2v1.1h-2v2.9H190v-2.9h-1.6c-0.1,0.6-0.2,1.1-0.5,1.5c-0.3,0.5-0.9,1.1-1.8,1.6l-1-0.9    c0.8-0.4,1.3-0.8,1.7-1.2c0.2-0.2,0.3-0.6,0.4-1h-2V112h2.1v-1.5h-1.6V109.5z M190,112v-1.5h-1.6v1.5H190z M190.3,104.2h5V115    c0,0.5-0.1,0.8-0.4,1.1c-0.2,0.2-0.6,0.3-1.1,0.3h-1.3l-0.3-1.3l1.4,0.1c0.3,0,0.5-0.2,0.5-0.5v-5.8h-4.3v-4.7H190.3z M190.9,106    h3.1v-0.8h-3.1V106z M194,107.8v-0.9h-3.1v0.9H194z"/>
		<path class="st0" d="M196.8,106.3h1.8c0.2-0.8,0.3-1.7,0.4-2.6l1.3,0.1c-0.1,0.9-0.3,1.7-0.4,2.5h2.2v1.1    c-0.1,1.5-0.3,2.8-0.6,3.9c-0.2,0.5-0.3,1-0.5,1.5c0.6,0.5,1.1,1,1.5,1.4l-0.8,1c-0.4-0.4-0.8-0.8-1.3-1.3    c-0.5,0.8-1.3,1.6-2.3,2.5l-1-1c1-0.7,1.7-1.5,2.3-2.3c-0.7-0.5-1.4-1.1-2.2-1.6c0.5-1.2,1-2.5,1.3-4h-1.6V106.3z M199.6,107.4    c-0.3,1.5-0.7,2.7-1,3.7c0.4,0.3,0.9,0.6,1.2,0.9c0.5-1,0.8-2.5,1-4.6H199.6z M204.5,103.8l1.4,0.2c-0.4,1.5-0.9,2.9-1.7,4.2    c1.2-0.1,2.3-0.1,3.2-0.2c-0.4-0.7-0.8-1.4-1.2-2l1.2-0.4c0.9,1.2,1.6,2.5,2.3,4l-1.2,0.5c-0.2-0.4-0.3-0.7-0.5-1    c-1.2,0.2-3.2,0.4-5.8,0.5l-0.2-1.4c0.3,0,0.5,0,0.8,0C203.6,106.8,204.2,105.3,204.5,103.8z M208.9,110.6v6h-1.3v-0.7h-3.8v0.8    h-1.3v-6H208.9z M203.8,114.7h3.8v-2.8h-3.8V114.7z"/>
		<path class="st0" d="M212.8,103.9h1.4v8.8c1-0.4,2-0.8,3-1.3l0.3,1.3c-1.6,0.9-3.6,1.7-6,2.4l-0.6-1.4c0.6-0.2,1.3-0.3,1.9-0.5    V103.9z M220.3,103.9h1.4c0,2.9-0.3,5.2-0.9,7c1.1,1.3,2.1,2.7,2.8,4l-1.1,1.1c-0.6-1.1-1.3-2.3-2.3-3.6c-0.7,1.5-2.1,2.8-4.2,4.1    l-1-1.2c1.9-1.1,3.2-2.3,3.9-3.6C219.8,110.1,220.2,107.5,220.3,103.9z M216.5,105.2c0.9,1.5,1.7,2.8,2.2,3.8l-1.4,0.9    c-0.5-1.2-1.1-2.5-2-4L216.5,105.2z"/>
		<path class="st0" d="M225,107h1.4v-2.5h1.4v2.5h2v-3.1h1.4v3.1h2.7v-3.1h1.4v3.1h2.3v1.3h-2.3v4.9h-5.4v-4.9h-2v6.5h9.6v1.3h-9.6    v0.6h-1.4v-8.4H225V107z M231.2,108.3v3.6h2.7v-3.6H231.2z"/>
		<path class="st0" d="M240.5,104.2h10.1v6.1h-2.4c0.5,0.4,0.9,0.8,1.3,1c0.6,0.4,1.5,0.7,2.6,1.1l-0.5,1.2    c-1.4-0.5-2.5-1.1-3.2-1.5v4.7h-1.3v-5.1h0.8c-0.4-0.3-0.8-0.8-1.2-1.3h-2.1c-0.4,0.5-0.8,0.9-1.2,1.3h0.9c0,1.4-0.3,2.4-0.9,3.2    c-0.4,0.7-1.5,1.3-3.1,1.9l-0.9-1.1c1.3-0.4,2.2-0.8,2.6-1.3c0.5-0.5,0.8-1.3,0.9-2.5c-0.9,0.6-1.9,1.2-3.1,1.6l-0.7-1.1    c1.2-0.4,2.1-0.8,2.8-1.2c0.3-0.2,0.7-0.5,0.9-0.7h-2.2V104.2z M241.7,106.7h3.1v-1.4h-3.1V106.7z M244.8,109.1v-1.3h-3.1v1.3    H244.8z M246,106.7h3.2v-1.4H246V106.7z M249.3,109.1v-1.3H246v1.3H249.3z"/>
		<path class="st0" d="M253.2,107.1h3.6v0.9c-0.5,0.8-1,1.6-1.8,2.4h1.7v0.8c-0.2,0.9-0.4,1.6-0.6,2.1c0.5,0.6,1,0.9,1.3,1.1    c0.3,0.2,0.7,0.3,1.3,0.4c0.7,0.1,2,0.1,4,0.2c1.5,0,2.6,0,3.3-0.1l-0.2,1.4c-3.8,0-6.2,0-7.1-0.1c-0.8-0.1-1.4-0.3-1.8-0.5    c-0.4-0.2-0.8-0.5-1.3-1.1c-0.4,0.6-0.9,1.3-1.5,2.1l-0.9-1c0.7-0.7,1.2-1.4,1.5-1.9c0.2-0.3,0.5-1,0.8-2h-2v-1    c0.6-0.6,1.2-1.4,1.8-2.3h-2V107.1z M254.8,103.9c0.6,0.7,1.1,1.3,1.5,2l-0.9,0.9c-0.4-0.6-0.9-1.3-1.5-2.1L254.8,103.9z     M257.3,104.2h7.6v1c-0.7,0.5-1.5,0.9-2.3,1.3c0.2,0.1,0.4,0.1,0.5,0.2l-0.2,0.2h2.3v6.1c0,0.4-0.1,0.7-0.4,1    c-0.2,0.2-0.4,0.3-0.8,0.3h-1l-0.3-1.1l0.8,0.1c0.2,0,0.4-0.2,0.4-0.5V112H262v2.2h-1.2V112h-1.8v2.4h-1.3v-7.4h3.2    c-0.6-0.2-1.4-0.5-2.3-0.8l0.8-0.7c0.6,0.2,1.2,0.4,1.8,0.5c0.5-0.2,1.1-0.4,1.7-0.7h-5.5V104.2z M258.9,109h1.8v-1h-1.8V109z     M258.9,111h1.8v-1h-1.8V111z M262,108v1h1.9v-1H262z M262,110v1h1.9v-1H262z"/>
		<path class="st0" d="M267.1,106.1h7.3v-2.4h1.4v2.4h4.2v1.3h-4.2v7.7c0,0.5-0.1,0.9-0.4,1.1c-0.2,0.2-0.7,0.3-1.3,0.3h-2.2    l-0.3-1.4c0.9,0.1,1.6,0.1,2.1,0.1c0.4,0,0.6-0.1,0.6-0.3v-7.4h-0.2c-0.5,1.4-1.2,2.6-1.9,3.5c-1,1.3-2.5,2.5-4.3,3.8l-0.8-1.4    c1.9-1.2,3.3-2.4,4.1-3.4c0.6-0.7,1.1-1.5,1.5-2.5h-5.6V106.1z"/>
		<path class="st0" d="M0.8,130.7h1.5c-0.2-0.5-0.4-1-0.6-1.4l1.3-0.2c0.2,0.5,0.4,1,0.5,1.6h1c0.2-0.6,0.3-1.3,0.4-1.9l1.2,0.2    c-0.1,0.6-0.2,1.2-0.4,1.8h5.5c-0.1,1-0.2,1.8-0.4,2.5h1.3c-0.1,1-0.2,1.8-0.4,2.5h1.1c0,3.1-0.3,4.9-0.8,5.4    c-0.3,0.4-1.2,0.6-2.8,0.6l-0.3-1.4c0.4,0.1,0.8,0.1,1.1,0.1c0.5,0,0.9-0.1,1.2-0.4c0.2-0.2,0.4-1.3,0.5-3.2H3.2    c-0.6,0.9-1.3,1.7-2,2.3l-1.1-0.8c1.9-1.7,3.2-3.8,4.1-6.3H0.8V130.7z M3,137.6l1.2,0.2c-0.4,1.3-0.9,2.5-1.5,3.5l-1.1-0.7    C2.2,139.7,2.7,138.7,3,137.6z M4.5,134.3c-0.2,0.5-0.4,0.9-0.6,1.3h6.6c0.1-0.4,0.2-0.8,0.2-1.3H4.5z M5.8,137.7    c0.2,0.8,0.4,2,0.5,3.4L5,141.3c0-1.5-0.1-2.6-0.3-3.4L5.8,137.7z M5.4,131.9c-0.1,0.5-0.3,0.9-0.4,1.3h4.6    c0.1-0.4,0.2-0.8,0.2-1.3H5.4z M7.8,137.4c0.3,0.8,0.6,1.7,0.9,2.8l-1.2,0.3c-0.2-0.9-0.4-1.9-0.8-2.7L7.8,137.4z M9.7,137.2    c0.4,0.8,0.7,1.5,0.9,2.1l-1.1,0.4c-0.2-0.8-0.5-1.5-0.8-2.3L9.7,137.2z"/>
		<path class="st0" d="M25.5,129.5v11.8h-1.3v-0.8H17v0.8h-1.3v-11.8H25.5z M17,132.7h7.2v-1.9H17V132.7z M17,136h7.2v-2.1H17V136z     M17,139.3h7.2v-2H17V139.3z"/>
		<path class="st0" d="M28.3,131.4H30v-2.7h1.2v2.7h1.4v1.1h-1.4v0.5c0.5,0.7,1,1.4,1.5,2.1l-0.7,1c-0.3-0.7-0.6-1.2-0.9-1.7v7.1H30    v-6.4c-0.4,1.1-0.8,2.1-1.3,2.9l-0.5-1.4c0.7-1.2,1.3-2.6,1.8-4.1h-1.6V131.4z M34,138.2l1,0.5c-0.6,0.9-1.4,1.6-2.3,2.3l-1-0.8    C32.5,139.6,33.2,139,34,138.2z M32.3,136.9h8.8v1h-3.8v2.4c0,0.4-0.1,0.7-0.3,0.9c-0.2,0.2-0.5,0.3-1.1,0.3h-1l-0.2-1.2    c0.4,0.1,0.7,0.1,0.9,0.1c0.3,0,0.5-0.1,0.5-0.3v-2.2h-3.8V136.9z M32.6,129H41v1h-2.6v1.1h2.2v3.5h-7.6v-3.5h2.2V130h-2.5V129z     M33,135.2h7.3v1H33V135.2z M35.1,133.6v-1.5h-1v1.5H35.1z M37.2,131.1V130h-1v1.1H37.2z M37.2,133.6v-1.5h-1v1.5H37.2z     M38.9,138.3c1,0.8,1.7,1.5,2.2,2l-1.1,0.8c-0.5-0.7-1.2-1.4-2.1-2.2L38.9,138.3z M39.4,133.6v-1.5h-1v1.5H39.4z"/>
		<path class="st0" d="M54.7,130.7v1.3h-3.9c0.1,2,0.4,3.6,0.8,4.7c0.7-1,1.3-2.2,1.8-3.8l1.2,0.5c-0.8,2.1-1.6,3.6-2.4,4.6    c0.6,1.2,1.1,1.8,1.3,1.8c0.2,0,0.3-0.7,0.5-2l1.1,0.8c-0.3,1.3-0.6,2.1-0.9,2.4c-0.2,0.2-0.4,0.3-0.6,0.3c-0.6,0-1.2-0.3-1.8-1    c-0.3-0.4-0.6-0.8-0.8-1.2c-0.9,0.8-2,1.5-3.3,2.2l-0.8-1.2c1.4-0.7,2.6-1.4,3.5-2.3c-0.2-0.5-0.3-1-0.5-1.5    c-0.3-1.2-0.5-2.7-0.6-4.5h-4.7v1.7h3.8c0,2.5-0.2,4.1-0.3,4.8c-0.2,0.8-0.7,1.2-1.4,1.2h-1.8l-0.2-1.3c0.9,0.1,1.6,0.1,2.1,0.1    c0.1,0,0.2-0.2,0.3-0.6c0.1-0.5,0.1-1.4,0.1-2.9h-2.5c0,1-0.1,2-0.3,3.1c-0.3,1.3-0.7,2.6-1.2,3.8l-1.1-1c0.5-1,0.9-2.1,1.1-3.2    c0.2-1.1,0.2-2.2,0.2-3.2v-3.7h5.9c0-0.6,0-1.3,0-2h1.3c0,0.7,0,1.3,0,2h2c-0.4-0.4-0.8-0.8-1.4-1.1l0.9-0.8    c0.7,0.4,1.2,0.8,1.7,1.2l-0.7,0.7H54.7z"/>
		<path class="st0" d="M68.2,129.2v1.2h-8.3v0.8h7.8v1.1h-7.8v0.9h7.8v1.1h-7.8v0.9h9.2v1.2h-6.3c0.4,0.7,0.8,1.2,1.4,1.7    c1-0.3,1.9-0.9,2.7-1.6l1,0.9c-0.7,0.6-1.6,1.1-2.5,1.4c1,0.6,2.3,1.1,3.9,1.5l-0.8,1.3c-2.2-0.7-3.9-1.6-5-2.5    c-1-0.8-1.7-1.7-2.1-2.8h-1.9v3.4c1-0.2,2-0.4,3-0.7v1.3c-1.7,0.5-3.5,0.9-5.6,1.1l-0.2-1.4c0.5,0,1-0.1,1.5-0.2v-3.6h-1.7v-1.2    h2.1v-6H68.2z"/>
		<path class="st0" d="M78.8,135.2c0,0.5-0.2,1-0.6,1.3c-0.4,0.4-0.8,0.5-1.4,0.5s-1-0.2-1.4-0.5c-0.4-0.4-0.6-0.8-0.6-1.3    s0.2-1,0.6-1.3c0.4-0.4,0.8-0.5,1.4-0.5s1,0.2,1.4,0.5C78.6,134.2,78.8,134.6,78.8,135.2z M77.8,135.2c0-0.3-0.1-0.5-0.3-0.6    c-0.2-0.2-0.4-0.3-0.7-0.3s-0.5,0.1-0.7,0.3c-0.2,0.2-0.3,0.4-0.3,0.6c0,0.3,0.1,0.5,0.3,0.6c0.2,0.2,0.4,0.3,0.7,0.3    s0.5-0.1,0.7-0.3C77.7,135.6,77.8,135.4,77.8,135.2z"/>
		<path class="st0" d="M86.3,128.9h1.4v8.8c1-0.4,2-0.8,3-1.3l0.3,1.3c-1.6,0.9-3.6,1.7-6,2.4l-0.6-1.4c0.6-0.2,1.3-0.3,1.9-0.5    V128.9z M93.8,128.9h1.4c0,2.9-0.3,5.2-0.9,7c1.1,1.3,2.1,2.7,2.8,4L96,141c-0.6-1.1-1.3-2.3-2.3-3.6c-0.7,1.5-2.1,2.8-4.2,4.1    l-1-1.2c1.9-1.1,3.2-2.3,3.9-3.6C93.3,135.1,93.8,132.5,93.8,128.9z M90.1,130.2c0.9,1.5,1.7,2.8,2.2,3.8l-1.4,0.9    c-0.5-1.2-1.1-2.5-2-4L90.1,130.2z"/>
		<path class="st0" d="M98.6,129.4h12.6v1.3h-6.3v2.3c1.6,0.9,3.2,2,4.9,3.2l-0.9,1.3c-1.6-1.3-3-2.2-4-2.9v7h-1.4v-10.8h-4.8V129.4    z"/>
		<path class="st0" d="M118.9,128.7h0.7c0.9,1.2,1.9,2.1,2.8,2.7c0.8,0.5,1.8,1,3.1,1.4l-0.9,1.4c-1.3-0.5-2.4-0.9-3-1.5    c-0.9-0.6-1.8-1.5-2.8-2.8c-0.6,0.9-1.3,1.7-2.1,2.3c-1,0.8-2.2,1.4-3.6,2l-0.8-1.4c1.6-0.6,2.8-1.2,3.7-1.9    c0.8-0.6,1.4-1.3,2.1-2.2H118.9z M116,133.9h1.4v0.9c0,1.5-0.2,2.7-0.5,3.7c-0.3,1-1,2-1.9,3l-1.2-1c0.8-0.8,1.4-1.6,1.8-2.4    c0.3-0.7,0.5-1.8,0.5-3.3V133.9z M120.6,133.9h1.4v7.6h-1.4V133.9z"/>
		<path class="st0" d="M129.1,128.7l1.2,0.4c-0.5,1.2-1,2.3-1.5,3.3c0.4-0.1,0.8-0.1,1.2-0.2c0.3-0.6,0.6-1.2,0.8-1.9l1.1,0.4    c-1,2.2-2,4-3.1,5.5c0.7-0.1,1.3-0.2,1.8-0.3c-0.1-0.5-0.3-1-0.4-1.4l1-0.3c0.3,0.9,0.6,1.9,0.9,3.1l-1.1,0.3    c0-0.2-0.1-0.4-0.1-0.5c-1,0.2-2.3,0.4-4,0.5l-0.3-1.2c0.3,0,0.7,0,1,0c0.6-0.8,1.2-1.8,1.8-2.9c-0.8,0.1-1.6,0.3-2.6,0.5    l-0.3-1.2c0.3,0,0.6,0,0.8-0.1C128.1,131.4,128.7,130.1,129.1,128.7z M127.2,138l1.1,0.1c-0.1,1.3-0.3,2.5-0.5,3.4l-1.2-0.4    C126.9,140.1,127.1,139.1,127.2,138z M129.8,138c0.2,0.7,0.3,1.7,0.4,2.9L129,141c0-1.2-0.1-2.2-0.2-2.9L129.8,138z M131.3,137.7    c0.3,0.9,0.6,1.8,0.8,2.6l-1.1,0.4c-0.2-0.9-0.4-1.8-0.7-2.7L131.3,137.7z M132.3,129.3h6.8c-0.1,2.9-0.3,4.5-0.4,4.7    c-0.1,0.4-0.3,0.6-0.6,0.8c-0.2,0.2-0.6,0.3-1.2,0.3c-0.4,0-0.8,0-1.1-0.1l-0.2-1.3c0.7,0.1,1,0.1,1.1,0.1c0.3,0,0.6-0.1,0.7-0.3    c0.2-0.1,0.4-1.2,0.5-3.1h-2.6c-0.1,1.1-0.3,2-0.7,2.7c-0.4,0.7-1.1,1.4-2.1,2l-0.7-1.1c0.8-0.4,1.3-0.9,1.7-1.5    c0.3-0.5,0.5-1.2,0.6-2.1h-1.7V129.3z M138.9,135.6v5.8h-1.2v-0.7h-4v0.7h-1.3v-5.8H138.9z M133.7,139.6h4v-2.8h-4V139.6z"/>
		<path class="st0" d="M140.7,130.6h5.5v-1.9h1.4v1.9h5.7v1.2h-5.7v1.9h4.3v1c-0.6,1.6-1.6,3-3.1,4.1c1.3,0.6,2.9,1.1,4.8,1.5    l-0.8,1.2c-2.3-0.6-4-1.2-5.3-1.9c-1.4,0.8-3.5,1.4-6.2,2l-0.8-1.2c2.3-0.4,4.2-1,5.6-1.6c-1.3-0.9-2.3-1.9-3.1-3l1.1-0.6    c0.9,1.2,2,2.2,3.3,3c0.1-0.1,0.2-0.1,0.3-0.2c1.1-0.8,2-1.8,2.5-3h-8.4v-1.2h4.3v-1.9h-5.5V130.6z"/>
		<path class="st0" d="M154.7,131.3h1.6v-2.6h1.3v2.6h1.4v1.1h-1.4v2.6c0.4-0.2,0.8-0.5,1.2-0.8v1.3c-0.4,0.3-0.8,0.5-1.2,0.7v3.7    c0,0.5-0.1,0.9-0.3,1.1c-0.2,0.2-0.6,0.3-1.1,0.3h-0.9l-0.3-1.4c0.4,0.1,0.7,0.1,0.9,0.1c0.3,0,0.5-0.1,0.5-0.3v-2.9    c-0.5,0.2-0.9,0.4-1.4,0.5l-0.2-1.4c0.5-0.1,1.1-0.2,1.6-0.5v-3.2h-1.6V131.3z M159.3,132.8h8v1.1h-4.9c0,0.3-0.1,0.6-0.2,0.9h5.2    v1.1H162c-0.1,0.3-0.1,0.5-0.2,0.8h4.9v1c-0.5,0.9-1.1,1.5-1.7,2.1c0.7,0.3,1.6,0.6,2.6,0.7l-0.5,1.1c-1.2-0.3-2.3-0.7-3.2-1.2    c-0.9,0.5-2,0.9-3.4,1.2l-0.5-1.1c1.1-0.2,2-0.4,2.7-0.8c-0.6-0.4-1.1-1-1.5-1.6c0,0.1,0,0.1-0.1,0.2c-0.6,1.2-1.5,2.2-2.7,3.1    l-0.8-1c1-0.8,1.9-1.7,2.4-2.7c0.3-0.5,0.5-1.1,0.7-1.8h-1.7v-1.1h2c0.1-0.3,0.1-0.6,0.2-0.9h-1.9V132.8z M166.7,128.7l0.6,1.1    c-2,0.5-4.6,0.8-7.9,0.8l-0.4-1.1C162.1,129.5,164.6,129.2,166.7,128.7z M160.5,130.7c0.4,0.6,0.7,1.1,1,1.5l-1.3,0.5    c-0.2-0.6-0.5-1.1-0.8-1.7L160.5,130.7z M163.3,130.7c0.2,0.5,0.5,1,0.7,1.6l-1.3,0.2c-0.2-0.6-0.4-1.2-0.6-1.6L163.3,130.7z     M162.4,137.7c0.4,0.6,0.9,1,1.5,1.4c0.5-0.3,0.9-0.8,1.3-1.4H162.4z M165.7,130.4l1.2,0.3c-0.3,0.7-0.6,1.4-0.9,2l-1.2-0.4    C165.1,131.7,165.5,131.1,165.7,130.4z"/>
		<path class="st0" d="M174.4,128.7h1.5v3.3c0.5,2,1.2,3.7,2.1,5c0.7,1.1,2,2.2,3.7,3.3l-0.9,1.2c-1.4-0.9-2.5-1.8-3.2-2.7    c-0.9-1.1-1.7-2.4-2.2-3.9c-0.5,1.6-1.1,2.9-1.9,3.7c-0.8,1-2.1,1.9-3.8,2.9l-0.9-1.2c2.1-1.3,3.6-2.7,4.4-4.2    c0.8-1.4,1.2-2.8,1.3-4.2V128.7z"/>
		<path class="st0" d="M187,139.3l0.8,0.9c-1.5,0.6-3,1-4.5,1.3l-0.6-1.3C184.4,140.1,185.8,139.8,187,139.3z M184,132.9h10.5v6.4    H184V132.9z M184.4,129.2h9.9v3h-9.9V129.2z M185.3,134.7h7.9v-0.8h-7.9V134.7z M185.3,136.5h7.9v-0.9h-7.9V136.5z M193.2,138.2    v-0.8h-7.9v0.8H193.2z M192.9,131.2v-0.9h-7.2v0.9H192.9z M191.1,139.4c1.7,0.3,3.2,0.7,4.6,1.1l-0.8,1.1c-1.5-0.5-3-0.9-4.5-1.2    L191.1,139.4z"/>
		<path class="st0" d="M209.3,130.7v1.3h-3.9c0.1,2,0.4,3.6,0.8,4.7c0.7-1,1.3-2.2,1.8-3.8l1.2,0.5c-0.8,2.1-1.6,3.6-2.4,4.6    c0.6,1.2,1.1,1.8,1.3,1.8c0.2,0,0.3-0.7,0.5-2l1.1,0.8c-0.3,1.3-0.6,2.1-0.9,2.4c-0.2,0.2-0.4,0.3-0.6,0.3c-0.6,0-1.2-0.3-1.8-1    c-0.3-0.4-0.6-0.8-0.8-1.2c-0.9,0.8-2,1.5-3.3,2.2l-0.8-1.2c1.4-0.7,2.6-1.4,3.5-2.3c-0.2-0.5-0.3-1-0.5-1.5    c-0.3-1.2-0.5-2.7-0.6-4.5h-4.7v1.7h3.8c0,2.5-0.2,4.1-0.3,4.8c-0.2,0.8-0.7,1.2-1.4,1.2h-1.8l-0.2-1.3c0.9,0.1,1.6,0.1,2.1,0.1    c0.1,0,0.2-0.2,0.3-0.6c0.1-0.5,0.1-1.4,0.1-2.9h-2.5c0,1-0.1,2-0.3,3.1c-0.3,1.3-0.7,2.6-1.2,3.8l-1.1-1c0.5-1,0.9-2.1,1.1-3.2    c0.2-1.1,0.2-2.2,0.2-3.2v-3.7h5.9c0-0.6,0-1.3,0-2h1.3c0,0.7,0,1.3,0,2h2c-0.4-0.4-0.8-0.8-1.4-1.1l0.9-0.8    c0.7,0.4,1.2,0.8,1.7,1.2l-0.7,0.7H209.3z"/>
		<path class="st0" d="M222.8,129.2v1.2h-8.3v0.8h7.8v1.1h-7.8v0.9h7.8v1.1h-7.8v0.9h9.2v1.2h-6.3c0.4,0.7,0.8,1.2,1.4,1.7    c1-0.3,1.9-0.9,2.7-1.6l1,0.9c-0.7,0.6-1.6,1.1-2.5,1.4c1,0.6,2.3,1.1,3.9,1.5l-0.8,1.3c-2.2-0.7-3.9-1.6-5-2.5    c-1-0.8-1.7-1.7-2.1-2.8h-1.9v3.4c1-0.2,2-0.4,3-0.7v1.3c-1.7,0.5-3.5,0.9-5.6,1.1l-0.2-1.4c0.5,0,1-0.1,1.5-0.2v-3.6h-1.7v-1.2    h2.1v-6H222.8z"/>
		<path class="st0" d="M227.9,128.8l1.2,0.2c-0.2,0.7-0.4,1.4-0.7,2h2v2.9c0.4-0.7,0.7-1.4,1-2c0.3-0.8,0.5-1.8,0.7-3.1l1.4,0.2    c-0.1,0.8-0.3,1.4-0.4,2h4.3c0,4.9-0.1,7.8-0.2,8.7c-0.1,0.7-0.4,1.2-0.7,1.4c-0.4,0.3-1.1,0.4-2.2,0.4c-0.3,0-0.7,0-1.1-0.1    L233,140c0.4,0.1,0.8,0.1,1.3,0.1c0.9,0,1.4-0.3,1.5-0.9c0.2-0.7,0.3-3.1,0.3-7.1h-3.3c0,0.1-0.1,0.2-0.1,0.2    c-0.3,1-0.8,2.1-1.5,3.2l-0.7-0.8v5.7h-1.2v-0.7h-2.6v1.1h-1.2v-10h1.7C227.5,130.3,227.8,129.5,227.9,128.8z M226.7,134.8h2.6    v-2.7h-2.6V134.8z M226.7,138.7h2.6v-2.8h-2.6V138.7z M233.2,134c0.8,1.3,1.4,2.4,1.9,3.3l-1.3,0.9c-0.4-1-0.9-2.2-1.6-3.5    L233.2,134z"/>
		<path class="st0" d="M242.3,131.9l0.9,0.8c-0.3,0.5-0.7,1.1-1,1.6v7.2h-1.3v-5.7c-0.4,0.4-0.7,0.8-1.1,1.1l-0.9-1.1    C240.2,134.8,241.3,133.5,242.3,131.9z M242.2,128.7l0.9,0.8c-0.8,1.1-1.9,2.2-3.2,3.1l-0.8-1.1    C240.2,130.7,241.2,129.7,242.2,128.7z M243.5,133.1h8.4v1.2h-2v5.9c0,0.5-0.1,0.8-0.3,1c-0.2,0.2-0.6,0.3-1.2,0.3h-2.4l-0.3-1.3    c0.9,0.1,1.7,0.1,2.2,0.1c0.4,0,0.5-0.1,0.5-0.3v-5.6h-5V133.1z M244.2,129.4h6.9v1.3h-6.9V129.4z"/>
		<path class="st0" d="M259.3,129l0.5,1c-0.7,0.1-1.6,0.2-2.6,0.3v0.9h2.8v1h-2.8v0.7h2.7v4.3h-2.7v0.8h2.5v0.9h-2.5v1.1    c0.9-0.1,1.7-0.2,2.5-0.3v0.5c0.8-1.2,1.4-2.6,1.8-4c0.2-0.9,0.4-2.2,0.5-3.8h-1.5v-1.1h1.5c0-0.2,0-0.4,0-0.7v-1.9h1.2v1.9    c0,0.2,0,0.5,0,0.7h2.5c0,4.7,0,7.6-0.2,8.4c-0.1,0.7-0.2,1.1-0.5,1.3c-0.2,0.3-0.7,0.4-1.4,0.4c-0.3,0-0.6,0-1-0.1l-0.2-1.4    c0.4,0.1,0.8,0.1,1.3,0.1c0.4,0,0.6-0.3,0.6-0.9c0.1-0.7,0.1-3,0.2-6.9h-1.4c-0.1,1.6-0.2,3-0.5,4.2c-0.3,1.6-1,3.2-2.1,4.8    l-0.9-0.7v0.1c-1.2,0.2-3.4,0.4-6.5,0.6l-0.2-1.1c1.1,0,2.1-0.1,3.1-0.1V139h-2.5v-0.9h2.5v-0.8h-2.6V133h2.6v-0.7H253v-1h3.2    v-0.8c-0.8,0-1.6,0-2.5,0l-0.3-1.1C255.7,129.4,257.7,129.2,259.3,129z M254.8,134.8h1.4v-0.9h-1.4V134.8z M256.2,136.4v-0.9h-1.4    v0.9H256.2z M257.3,133.9v0.9h1.5v-0.9H257.3z M258.9,136.4v-0.9h-1.5v0.9H258.9z"/>
		<path class="st0" d="M272.6,128.7c0.9,0.5,1.6,1.1,2.2,1.6l-0.5,0.5h5.5v1.3h-7.8v1.1c0,0.3,0,0.6,0,0.9h6.2c0,3.9-0.4,6.1-1,6.7    c-0.3,0.5-1.5,0.7-3.4,0.7l-0.3-1.4c0.4,0.1,0.8,0.1,1.1,0.1c0.7,0,1.2-0.2,1.5-0.5c0.3-0.3,0.5-1.8,0.6-4.3h-4.9    c-0.1,1-0.3,1.8-0.6,2.5c-0.5,1.2-1.4,2.5-2.7,3.7l-1.1-1c1.2-1,2.1-2,2.6-3.2c0.4-0.9,0.6-2.4,0.6-4.2v-1.1h-3.4v-1.3h6.1    c-0.5-0.4-1-0.8-1.6-1.3L272.6,128.7z"/>
		<path class="st0" d="M3.5,153.8H4c1.1,0.9,2,1.8,2.9,2.7L6,157.4c-1-1.1-1.8-1.9-2.4-2.5c-0.5,0.8-1.1,1.5-1.8,2.2h3.8v1.1H4v1.1    h2.3v1.1H4v3.9c0.8-0.2,1.7-0.4,2.6-0.7v1.2c-1.8,0.5-3.9,1-6.1,1.3l-0.2-1.3c0.8-0.1,1.7-0.2,2.5-0.3v-4.2H0.4v-1.1h2.4v-1.1H1.4    v-0.7c-0.2,0.3-0.5,0.5-0.8,0.8L0.2,157c1-0.9,1.9-2,2.7-3.2H3.5z M1.6,161.4c0.2,0.7,0.4,1.6,0.5,2.7l-1.2,0.1    c0-1.2-0.1-2.1-0.3-2.7L1.6,161.4z M5.2,161.3l1,0.1c-0.1,0.9-0.2,1.8-0.4,2.4l-1.1-0.3C4.9,162.8,5.1,162,5.2,161.3z M6.5,158    h2.6v-4.3h1.4v4.3H13v1.3h-2.6v7.3H9.1v-7.3H6.5V158z"/>
		<path class="st0" d="M22.5,160.2c0,0.5-0.2,1-0.6,1.3c-0.4,0.4-0.8,0.5-1.4,0.5s-1-0.2-1.4-0.5c-0.4-0.4-0.6-0.8-0.6-1.3    s0.2-1,0.6-1.3c0.4-0.4,0.8-0.5,1.4-0.5s1,0.2,1.4,0.5C22.3,159.2,22.5,159.6,22.5,160.2z M21.5,160.2c0-0.3-0.1-0.5-0.3-0.6    c-0.2-0.2-0.4-0.3-0.7-0.3s-0.5,0.1-0.7,0.3c-0.2,0.2-0.3,0.4-0.3,0.6c0,0.3,0.1,0.5,0.3,0.6c0.2,0.2,0.4,0.3,0.7,0.3    s0.5-0.1,0.7-0.3C21.4,160.6,21.5,160.4,21.5,160.2z"/>
	</g>
	<line class="st1" x1="4.1" y1="58" x2="276.1" y2="58"/>
</g>
</svg>